<svg xmlns="http://www.w3.org/2000/svg" width="160" height="80" fill="#3c2829"  xmlns:v="https://vecta.io/nano"><path d="M117.514 45.92l5.2-9.054.679-10.949-1.165-.002-14.403 25.071.609 1.059 9.08-6.125zm1.232 2.122l-9.775 4.933.604 1.062 28.698.053.579-1.013-9.798-5.026-10.308-.01zm6.978-22.121l-1.25-.005.618 10.951 5.165 9.085 9.128 6.198.642-1.106-14.303-25.123zM85.047 43.494l-.003 3.737c-.008 4.371-2.977 6.82-7.119 6.939h-.896c-4.145-.173-7.085-2.62-7.077-6.963V43.47c.014-4.38 2.983-6.81 7.144-6.93h.824c4.176.135 7.138 2.608 7.127 6.955zm-7.835-3.328c-1.633.091-3.201.942-3.208 3.32v3.745c-.006 2.287 1.559 3.208 3.193 3.309a7.56 7.56 0 0 0 .584.005c1.602-.091 3.19-.969 3.193-3.304l.005-3.747c.008-2.352-1.581-3.233-3.209-3.328a3.57 3.57 0 0 0-.559 0zm14.075 3.784l6.447-7.381 5.086.013-7.393 8.435 7.757 8.688-5.153-.008-6.751-7.581-.013 7.569-4.092-.008.038-21.297 4.089.007-.016 11.564zm-57.862 2.488l.008-3.014c.011-4.379-3.018-6.83-7.168-6.973l-.782-.005c-4.177.131-7.148 2.569-7.151 6.945l-.008 3.717c-.008 4.17 3.066 6.759 7.04 6.968.422.008.642-.003.926 0 4.975.008 6.836-2.537 7.064-5.449l-3.744-.01c-.1.551-.284 1.965-3.42 1.962a6.95 6.95 0 0 1-1.861-.324c-2.325-.786-1.954-3.683-1.954-3.842l11.049.024zm-11.052-3.325c0-2.252 1.482-3.129 3.238-3.199a5.44 5.44 0 0 1 .544.003c1.781.075 3.27 1.025 3.265 3.211v.29l-7.054-.007.006-.3zm28.196 3.351l.007-3.007c.011-4.379-3.022-6.83-7.175-6.979h-.775c-4.184.13-7.162 2.57-7.168 6.944l-.005 3.721c-.008 4.161 3.063 6.762 7.043 6.968.434.008.644 0 .931 0 4.983.008 6.831-2.544 7.061-5.447l-3.723-.015c-.122.553-.291 1.965-3.445 1.96a6.62 6.62 0 0 1-1.84-.326c-2.346-.781-1.96-3.68-1.963-3.836l11.054.018zm-11.065-3.315c.007-2.258 1.495-3.137 3.238-3.203a6.96 6.96 0 0 1 .554.005c1.774.071 3.266 1.023 3.261 3.207v.292l-7.058-.01.005-.29zm21.248-6.609c-1.896-.005-3.195.517-3.909 1.135l.005-5.351-4.062-.006-.034 21.297h.71l1.902-1.054c.262.281 2.041 1.599 4.5 1.599l.907.008c4.11-.086 7.088-2.662 7.098-6.939l.003-3.716c.008-4.183-2.977-6.969-7.12-6.973zm3.052 10.703c-.002 2.331-1.605 3.208-3.201 3.314-.084 0-.507-.003-.583-.008-1.631-.11-3.197-1.018-3.197-3.312l.01-3.743c.003-2.386 1.575-3.223 3.201-3.331.196-.015.372-.021.572.002 1.612.112 3.206.971 3.203 3.341l-.005 3.738zm-45.993 6.309l-7.807-8.795 1.169.039c2.683.003 6.022-1.706 6.027-6.044.014-5.202-4.262-6.504-8.053-6.507l-9.103-.023L0 53.518l4.124.01v-9.505l8.461 9.52 5.226.01zM4.15 35.872l4.946.015c2.285 0 4.306.731 4.306 2.925-.006 2.2-1.268 2.988-4.317 2.973l-4.948-.003.013-5.909z"/></svg>