<svg xmlns="http://www.w3.org/2000/svg" width="150" height="110" fill="none"  xmlns:v="https://vecta.io/nano"><g clip-path="url(#B)"><path d="M49.584 36.325L1.751 63.783 82.268 110l62.404-35.823-63.695-36.558c-9.293-5.317-23.346-5.911-31.393-1.294z" fill="#d5edf4"/><path d="M114.997 90.934l7.242-4.438 7.269-4.391 7.299-4.354 7.319-4.3v1.299l-17.484-9.957-17.305-10.275-17.336-10.212-8.749-4.974-2.191-1.232-2.201-1.189-1.113-.546-1.15-.462-.576-.228-1.77-.573a36.93 36.93 0 0 0-19.571.101l-.593.164-.58.198-1.156.409c-.384.137-.748.335-1.123.472-.377.152-.746.323-1.106.512l-1.069.573-1.082.623L28.407 49.54l-8.722 5.024-8.745 4.974-4.383 2.478-4.383 2.462v-1.504l9.157 5.386 9.13 5.433 9.103 5.463 9.072 5.533-.091.157-9.359-5.024-9.295-5.124-9.298-5.141-9.291-5.181L0 63.741l5.654-3.316 4.352-2.525 8.708-5.024 8.735-4.994 19.723-11.136 1.109-.61 1.163-.589a12.89 12.89 0 0 1 1.163-.546l1.204-.479 1.227-.402.617-.194.624-.161a35.64 35.64 0 0 1 10.168-1.142c3.413.089 6.797.64 10.06 1.638l1.204.429.603.211c.199.077.391.167.587.251l1.173.519c.384.181.755.395 1.133.593.762.392 1.46.841 2.191 1.256l2.171 1.269 8.708 5.041 17.571 9.807 17.609 9.75L146.02 74.12l-8.556 4.783-7.417 4.109-7.461 4.059-7.488 4.019-.101-.157z" fill="#3c2829"/><path d="M81.453 47.739l2.612 1.497-45.24 25.949-2.61-1.5 45.237-25.947z" stroke="#877672"/><path d="M51.862 56.714l-23.124 13.26-3.614-2.073 23.121-13.26 3.617 2.073z" fill="#877672"/><g stroke="#877672"><path d="M79.7 57.043l2.612 1.497-36.255 20.792-2.609-1.497L79.7 57.043zm16.216-1.008l2.613 1.5-45.24 25.947-2.609-1.497 45.237-25.95zm-37.88 30.068L94.17 65.342l2.602 1.483L61.241 87.7l-3.205-1.596zm7.144 3.567l36.214-20.183 2.616 1.5-35.702 20.27-3.128-1.587zm8.553 4.252l25.519-14.91 2.634 1.509-24.945 15-3.209-1.599z"/></g><g fill="#3c2829"><path d="M38.435 77.27c.132.027.118-.094-.189-.249l-.297.02.486.229zm-1.862-1.408c-.391-.134-.866-.245-.711 0 .425.064.475.171.944.224.31.154.496.335.415.365.128.027.448.298.674.301a3.75 3.75 0 0 0-1.382-.824c-.101-.087.02-.067.061-.067zM7.495 58.881l.178.127a1.45 1.45 0 0 0-.178-.127zm6.86-9.907c-.137.083-.184.13-.184.147.121-.083.221-.15.184-.147z"/><path d="M17.531 47.36l-.188.093a.61.61 0 0 0 .188-.093zM7.495 58.881l-.458-.335c-.061.04.229.191.458.335zm24.871 15.005a2.04 2.04 0 0 0 .283.114l-.253-.128-.03.014zM15.539 63.343l.145.084a.84.84 0 0 0 .159 0l-.304-.084zm6.136 3.476c-.138-.084-.256 0-.337.03.118.004.233.035.337.091.027-.007.024-.044 0-.121zm9.585 5.794l.181.08-.181-.08zM11.17 60.791c-.001-.027-.012-.053-.03-.074 0 0 .007.054.03.074zm111.299 18.823v-.024c0-.024-.048.048 0 .024z"/><path d="M115.028 83.089l.094-.064c-.001-.028-.008-.055-.02-.08l-.074.144zM23.279 44.268h-.027c-.141.11-.057.06.027 0zm54.408-15.603c-.28-.182 0-.121.213-.061s.408.114 0-.175c.051.084-.945-.162-.213.235zM32.2 73.779l-.253-.145a2.37 2.37 0 0 0 .253.145z"/><path d="M77.879 28.43l-.091-.05.091.05zm-41.613 8.296a.48.48 0 0 0-.164.023s.05.007.164-.023zm-9.807 5.396l.25-.121c-.101.034-.179.084-.25.121zm14.746-8.46a1.69 1.69 0 0 0 .361-.195l-.064.017c-.086.079-.187.139-.297.178zm5.247-3.015l-.111.03-.162.101.273-.131zm91.923 39.762c-.099.026-.201.038-.304.034.132.037-.624.511.304-.034zm-105.99 3.406c-.064.011-.13-.002-.184-.037l.178.093c.023-.02.037-.02.007-.057zm8.486-41.219l.843-.459-.843.459zm72.707 15.239l.198.093a.72.72 0 0 0-.198-.093zM44.165 30.702c.178-.047.352-.11.52-.188.03-.023.057-.052.078-.084l-.597.272z"/><path d="M132.745 73.876c.795-.452.283-.368.397-.556.924-.589.51-.137.877-.241.57-.382.937-.784 1.382-1.032.047 0 .142-.034.058.057.552-.486 1.854-1.072 2.491-1.648.039-.01.079-.01.118 0-.162 0-.229-.084-.236-.154.354-.208.603-.479.796-.452-.12.061-.223.153-.297.265l.337-.258c.422-.044-.479.335-.418.452a21.94 21.94 0 0 1 2.06-1.34c.199.077-1.274.794-.459.496l-.893.442c.792-.151-.533.285.216.181 1.156-.61 1.224-.804 2.38-1.41.209-.228-.152-.07.057-.298a3.51 3.51 0 0 1 1.443-.69 2.22 2.22 0 0 0 .469-.134l.067-.027.034-.017.057-.034.273-.157.634-.422c.277-.245.283-.385.674-.67a6.77 6.77 0 0 1-.896-.539l.731.204a7.93 7.93 0 0 0-1.571-.774c-.34-.095-.655-.263-.924-.492.243.054.897.442.742.335-.674-.556-.583-.208-1.156-.536l-.034-.214-3.843-2.01c.098 0 .337.08.067-.137-1.685-.864-3.479-2.01-5.003-3.014l-.674-.221c-.138-.08-.226-.204-.061-.144-.587-.399-.077.064-.401-.057-.337-.194-.418-.335-.175-.248-1.147-.516-3.223-1.544-4.285-2.344l.242.09c-.859-.563-1.153-.335-1.908-.911l.172.07-5.462-3.306c-.387.02-1.864-1.176-2.134-1.005a23.55 23.55 0 0 0-2.191-1.594c-.408-.251-.711-.198-1.237-.466l.064-.137-.779-.261-.256-.348-.503-.241c.189.117.375.291.338.315-.786-.372-1.777-1.142-1.757-1.219l-1.841-.911a2.32 2.32 0 0 1 .631.224c-1.012-.409-.091-.238-1.032-.613.101.097-.108.044-.141.057a14.87 14.87 0 0 0-2.124-1.279h.192l-4.278-2.398c.505.335.289.432-.152.201l-.091-.241c-.337-.074.421.315-.216.09-.543-.335-.28-.372.064-.234l-.698-.335c-.017-.064.155 0 .226-.023-.337-.074-1.079-.807-1.564-.884v-.064l-3.372-1.869c-.091.107-.546-.191-.961-.298l-2.866-1.805c-.782-.372-.276-.023-.654-.147 0-.141-1.062-.74-.465-.502l-3.317-1.755c.148.144.337.278.212.258-.303-.151-.641-.432-.57-.459l.084.033c-1.911-.877-4.008-2.723-5.586-3.326l.088.034-1.571-.74c-.674-.415.462.154 0-.204a16.47 16.47 0 0 1-2.09-1.109 15.39 15.39 0 0 0-1.928-.978 4.84 4.84 0 0 0-1.055-.62l-.711-.311c-.25-.104-.526-.171-.796-.258l-2.997-.941.071.111a2.42 2.42 0 0 1-.792-.248c.03.077.435.168.165.164-3.57-.663-7.367-1.196-11.058-.975-.377 0-.747.097-1.075.281-.425.18-.888.257-1.349.224l.462-.221c-2.657.526-5.482 1.005-7.906 2.137.102-.106.225-.189.361-.244-.563.114-1.932.8-1.888.904-.374.181-.125-.034-.374.04-.536.204-1.204.784-1.507.831-.054 0 .115-.11.199-.167-.287.228-1.46.821-1.096.767-.88.429-1.591.981-2.306 1.299-.364.385-1.487.77-1.52 1.038-.051-.228-1.574.697-2.06 1.092.145-.161-.499.208-.337 0-.61.355-1.15.71-.984.75-1.261.415-2.158 1.484-2.963 1.551l-5.006 3.165c-.051-.228 1.797-1.055 1.608-1.219-1.504.968-2.303 1.648-3.867 2.482-.415.204.179-.211.293-.335-1.504.968-3.004 1.701-4.322 2.596 0-.02.131-.124.263-.221-.27.164-.647.335-.566.405l.25-.178c.509-.12-.924.884-.934.978.317-.512-1.399.72-.85 0-.169.117-.371.288-.293.335-.276.134-.381.147-.148-.074-.947.606-.546.502-1.43 1.005-.02-.044.145-.164.209-.265-.471.424-.997.783-1.564 1.068.03-.05-.078-.033.145-.161-1.271.747-2.05 1.47-3.503 2.197.31-.422-.513.211-.674.097l-.728.479.337-.097c-.674.379-1.177.827-1.777 1.102l.452-.335-1.22.743.738-.335c-.624.469.189.161-.718.623.169-.121-.674.375-1.062.479a5.2 5.2 0 0 1-1.116.727c-.159.02 0-.238-.101-.221-.246.315-1.527.924-1.854 1.3.118-.111.074-.198.02-.191l-.209.265c-.337.141-.381.151-.367.054-.934.509.408.033-.735.576.062-.062.129-.119.199-.171-1.123.583-2.08 1.286-3.122 1.812-.391 0 .86-.546.442-.486-.674.402-1.349.841-2.023 1.276l-.506.335-.566.355c-.448.275-.873.526-1.311.774l.405.241-.307-.201c.351.077.676.244.941.486l.287.208.314.214c.174.12.36.222.556.301-.185-.084-.3 0-.239 0 .944.59 2.003 1.075 3.506 1.842l-.216-.047c.539.378 1.48.891 2.077 1.269.216.044.563.255.398.05 1.686 1.413 3.709 1.892 5.232 3.132-.202-.117-.509-.224-.337-.134l1.463.767c-.057-.164-.152-.168-.408-.415.354.103.694.249 1.011.435-.674-.305-.088.161.159.375-.027-.057.088-.037.081-.08.644.603.239-.127 1.193.576l-.084.023a11.37 11.37 0 0 1 1.19.576c.105.211-.438-.181-.519-.1.583.335 1.268.435 1.726.851-.266-.111-.617-.312-.883-.422.295.287.629.533.991.73l-.041-.027.944.623-.229-.181c.897.117 1.504.79 2.593 1.155-1.055-.358-.219.017-.364.104.226.181.58.435.452.412.523.161.722.522 1.46.744 0 .057.492.285.337.335.617.312-.101-.154-.02-.177 1.011.388 2.07 1.417 3.513 1.983 1.19.579 1.483.559 2.589 1.099.337.271-.384-.017-.384-.017a8.72 8.72 0 0 0 1.558.898c-.132-.027-.034.067.105.211.445.238.381.017.924.409-.182-.005-.362-.033-.536-.084.539.258 1.092.472 1.649.74.101.154-.384-.077-.6-.137.617.311 1.591.827 1.844.817l-.361-.261c.219.121.054.164-.118.094-.566-.208-.721-.465-.725-.526l.394.191c-.246-.466-1.547-.834-2.306-1.29h.421l-.87-.301c-.138-.144-.195-.308.196-.117-.496-.402-.519-.214-.934-.583-.044-.047-.017-.04.037-.02l-.566-.254c.125.023 0-.178.297.037-.904-.67-1.628-.757-1.912-1.099l.084.037c-1.369-.707-.202.054-1.295-.368l-.485-.707-.209.057c-.135-.084-.401-.251-.32-.275-.563-.204.054.107-.293.02-.593-.499-1.858-1.005-1.888-1.286-.293-.037.59.442-.158.104-.071-.335-.84-.432-1.386-.881.253 0 .792.382.246-.07-.479 0-1.156-.717-1.686-.975-.111.144-1.146-.573-2.023-1.005.084-.02-1.564-1.005-2.33-1.524h.041c-.246.07-1.052-.432-1.686-.744.078-.08.206-.054.556.09l-.566-.335c-.257-.058-.503-.156-.728-.291l.209-.033c-.752-.425-1.588-.73-2.505-1.36-.118.077.59.744-.472.231 0-.08 0-.201.297-.074a2.62 2.62 0 0 1-.502-.255l.465.134c-.411-.298-.277-.05-.624-.261.057-.08-.223-.208-.135-.244.14.095.288.179.442.251-.354-.224-.681-.489-.971-.79 0 .067-.064.114-.361-.04-.752-.425-.199-.248-.61-.543-.216-.047-.674-.382-.742-.261a.7.7 0 0 1-.29-.291c-.421-.167-1.824-1.025-1.463-.64l.094.067-.067-.03c-1.349-.606-2.599-1.587-3.891-2.257l.027-.04c-.172-.084-.337-.178-.533-.275l-.472-.248a11.57 11.57 0 0 0-.819-.402 1.05 1.05 0 0 0 .121-.104 1.59 1.59 0 0 1 .337-.141c.111-.03.189-.033.189 0l.216-.157c.071-.05.108-.08.212-.144.275-.166.56-.315.853-.445-.536.405.236-.05-.563.395a7.46 7.46 0 0 0 1.713-1.005c-.209.265.644-.187.981-.422l-.57.221c.391-.244.745-.435 1.106-.63l-.111.251c1.632-.703 2.589-1.876 3.924-2.254.337-.335-.873.405-.576.084.715-.385 1.564-.603 1.787-.73 1.011-.472.779-.724 1.817-1.246-.158.023-.357-.044.367-.523.718-.385.991-.285.57 0-.165.101-.256.134-.26.111-.219.151-.502.335-.192.238l.061-.104c.381-.147 1.349-.71 1.167-.496.506-.355.179-.214-.229 0 .944-.446 1.413-.807 2.36-1.293-.162.057-.337.077-.185 0 1.399-.72.543-.442 1.456-1.005.57-.224-.084.291.809-.305.6-.275.199.064 0 .235.668-.434 1.377-.803 2.117-1.102l-.425.295c.253-.178.472-.301.695-.429l-.314.044c.273-.131.496-.258.516-.214.233-.221-.303-.047.179-.446.378-.151 1.032-.67 1.23-.603-1.126.586.199.067-.718.623.215-.143.44-.27.674-.378.047 0-.024.05-.088.097 1.119-.482.394-.429 1.487-1.052-.094.157.337 0 .502-.117-.438.251-.283 0 .088-.295a7.12 7.12 0 0 0 1.103-.67l-.432.211c.281-.25.595-.461.934-.626.078.034-.418.295-.229.221.465-.445 1.301-.563 2.023-1.085.377-.151.115.121.442-.02.789-.583.978-.422 1.817-1.005-.314.044-.337.094.223-.362l-1.419.908.853-.687c-.442.255-.893.599-1.166.733.398-.335.367-.288.108-.251.691-.194 1.143-.774 1.901-1.072l.125.265c1.112-.489 1.787-1.199 3.186-1.916l-.465.208c.125-.204.833-.496 1.251-.79 0 .107.3-.02.519-.074-.057-.05 1.011-.566 1.011-.807l.674-.238c1.126-.583 1.116-.958 2.188-1.534-.266.271.249.057-.421.529.337-.201.674-.368.654-.432.236-.064.91-.67 1.281-.78.135-.193.316-.351.526-.459.054 0 .024.043.024.043s.587-.412.185-.305c1.241-.362 3.034-1.762 4.103-2.08l2.36-1.43c-.03.05.02.044-.118.104 1.011-.425.465-.559 1.632-1.042.337-.053.182.03 0 .114s-.371.201-.182.134c.142.097.479-.064.893-.261.411-.249.859-.433 1.328-.543l-.189.084c.377-.086.743-.216 1.089-.389l.644-.281c.237-.09.481-.164.728-.221 0 0-.044.04 0 .047.435-.212.886-.391 1.349-.536.539-.147 1.119-.288 1.615-.412-.287.184-.442.157-.229.244.445-.104-.172-.187.721-.378.307.027.968 0 1.072.117l-.846.124c.459.114 1.092-.157 1.544-.191l-.047.084c.442-.054.881-.132 1.315-.235a7.73 7.73 0 0 1 .56-.114l.367-.05h.472l-.142-.057c.765-.211.651.09 1.419-.074l.233.188c.256-.03.701-.054 1.2-.09a13.56 13.56 0 0 1 1.507-.043 4.68 4.68 0 0 1-.482.06 13.63 13.63 0 0 1-.597.06l-1.18.097c.66.033 1.321.017 1.979-.047-.224.017-.45.017-.674 0 .166-.036.334-.064.502-.084.182 0 .374-.023.58-.023.457-.004.914.015 1.369.057-.219.335 2.596.425 3.243.908.883.116 1.753.319 2.596.606.438.131.863.335 1.311.476l.674.248.694.291c-.556-.556.553.224.556-.104.227.069.445.164.651.281l1.207.824c.26.235-.435-.147-.428-.07.91.506.337.298.893.71-.071-.164.398.05.904.389l-.674-.546c1.372.603.988.857 2.36 1.467l-.459-.154c.698.335 2.461 1.413 3.237 1.581.101.097.216.258-.088.107 1.574.948 3.678 1.815 4.845 2.656H89.5a3.45 3.45 0 0 1 .92.456c-.034 0-.155 0-.02.077.428.161.84.364 1.227.606l-.378-.124c1.507.978 2.488 1.196 3.82 1.899-.115.188 1.075.951 1.686 1.34h-.037c1.797 1.062 3.169 1.608 4.889 2.495.923.8 3.476 2.11 5.084 3.182-.236-.178.128-.121.435.03.37.265 1.163.492 1.011.63l-.138-.084c.199.335 1.031.757 1.659 1.122l.236-.164c1.459 1.273 4.382 2.344 5.117 3.165.432.171.924.456 1.349.626l-.095.107c1.086.67 1.629 1.005 3.008 1.748l-.337-.074c.765.449 1.173.208 1.887.606l.108.305c1.349.764 2.606 1.701 4.026 2.298-.037 0-.105.043-.337-.074.627.365 2.36 1.52 2.285 1.142-.08.171 1.373.81 2.138 1.156l-.182.054a5.77 5.77 0 0 1 1.621.616c.193.131.122.194-.128 0 .638.449.59.191 1.369.72l-.337-.097c.328.227.698.385 1.089.465.465.201 1.298.784 1.348.951.345.045.672.176.951.382.034.074-.131 0-.212-.017 1.112.743 1.803.851 2.535 1.423 0 .05.034.097.091.147l-1.581-.931c-.064.111.674.556 0 .368.855.3 1.68.679 2.464 1.132.03.027.055.059.075.094l-.081-.03a2.61 2.61 0 0 0 .468.245c.219.151.358.248.58.378.034.137.826.536 1.194.754.037-.137.512.161.114-.198.054.04-.077-.027-.337-.164-.057-.027-.125-.064-.165-.077h.03l-.927-.523a2.93 2.93 0 0 1 1.038.536 7.44 7.44 0 0 1 .631.104c.408.456 1.348 1.109 1.413 1.289l.984.506.492.221c-.077.066-.15.136-.219.211l-.111.131c-.044.058-.091.113-.142.164-.156.12-.348.185-.546.184.164-.103.323-.215.475-.335-.61.429-1.894 1.119-1.955 1.363-.853.395.371-.405-.728.258l.121-.134c-2.34 1.005-3.331 2.448-5.954 3.52a.95.95 0 0 1 .337-.111c-2.855 1.45-5.636 3.413-8.502 4.756a4.52 4.52 0 0 0-1.261.898l-.243-.034-.725.616c-1.089.767-2.177.827-3.516 1.869l.239-.023c-.532.285-1.628 1.005-1.598.854a.67.67 0 0 1-.337.261l-.054-.06-1.22.854c-1.011.522 0-.358-1.46.462-.526.335-1.426 1.082-1.197 1.005s.584-.278.637-.218l-.472.318c.024.248-.236.67 1.056.114l.775-.606.337-.06-.708.415c.351-.12.666-.322.921-.59.144.003.287-.03.414-.097l.722-.67c.145.02-.283.368.296.094.338-.312-.471.037.139-.389.455-.141.381 0 .809-.352.098 0 .017.104-.159.234.388-.305 1.103-.67 1.261-.898.486-.131 1.41-.847 1.477-.636.321-.3.669-.569 1.042-.804-.577.633 1.463-.821 1.416-.472.404-.502 1.84-1.176 2.697-1.822a.68.68 0 0 1-.216.174 9.22 9.22 0 0 1 1.079-.466c-.027-.204.765-.71 1.143-1.065.735-.208-.273.419.017.459-.112-.117 1.035-.774.751-.764.55-.181.452-.194.786-.201-.037-.258.435-.295.769-.67.768-.305.296.091 1.038-.422.384-.127-.266.345-.266.345zm5.552-11.639l.385.214-.385-.214zm-1.557-.894a24.02 24.02 0 0 0 .674.395c.03.07-.051.08-.209 0 .098.01-.253-.224-.465-.395zm2.811 2.723c-.256-.124-.337-.194-.337-.238l.439.231h.04c-.046.014-.095.016-.142.007z"/><path d="M140.088 64.163a.98.98 0 0 1 .108.05 1.53 1.53 0 0 0-.132-.111h-.111l.135.061zM7.704 59.029l-.03-.02a.23.23 0 0 1 .057.057l-.027-.037zM115.348 48.77l-.013.033.15.05-.137-.083zm-99.3 15.594a.31.31 0 0 0 .097.094.63.63 0 0 0-.097-.094zm3.695 2.154l.499.335-.499-.335zm2.815 1.694c.03.001.061-.005.087-.02l-.087.02zm3.24-26.78l.105-.067c.246-.172.078-.064-.105.067zm-13.323 8.019l.398-.306c-.246.128-.435.232-.398.306z"/><path d="M40.794 32.656l.094-.053-.094.053zM13.486 48.787a3.86 3.86 0 0 0-.63.358 6.51 6.51 0 0 0 .63-.358zm21.398 26.566l.134.083h.027l-.161-.083z"/><path d="M35.063 75.43l.161.07c-.048-.035-.103-.058-.161-.07z"/><path d="M35.545 75.655l-.337-.155c.102.072.216.125.337.155zm-4.403-2.519h-.067c.011.005.022.008.034.008s.023-.003.034-.008z"/><path d="M30.006 72.489a9.55 9.55 0 0 0 1.028.67h.057c-.236-.043-.802-.593-1.086-.67zm-4.494-3.282l.941.586c-.138-.144-.337-.335.118-.094-1.129-.834.192.248-1.059-.492zm-2.923-1.778c.53.276.034-.071.074-.081-.368-.145-.452-.195-.074.081zM2.897 55.545c.028.034.058.065.09.093.168-.117-.037-.037-.09-.093zm3.651-2.846l-.425.154-.128.208.553-.362zm2.886-.617l-.165.114.641-.419-.475.305zm36.148-20.785l-.199-.067c-.256.182-.226.363.199.067zm16.688-5.54a2.18 2.18 0 0 0 1.012.023c-.405 0-.806-.05-1.012-.023zm48.311 21.717l-.34-.138.614.303-.274-.165z"/></g><path d="M113.349 40.014c.186-.776-.046-.985.145-1.116.331-.209-.065-.656-.302-1.511.617-.738.414-1.773.01-1.847.411-.859-.474-1.148.486-1.822-.025.245-.25.224-.222-.374-1.255-2.892-3.25-5.733-6.216-7.612-.285-.822-.808-.586-.707-1.128-.514.071-.996.418-.67-.103-.38.137-.746-.138-.746.09-.757-.639-.71-.671-1.205-1.262-.342.269-.542.336-.653-.412.344.396-.583-.004-.666-.456-.38.137-.583.329-1.21.005-.598-.713-.494-.486-.494-1.047-.656-.059-.902-.084-1.496-.027.575.273-.032-.276.544-.232-.053-.051-.419-.327-.056-.26-.707.098-.716.262-1.401-.093-.308-.14-.394-.572-.381-.528-.592.265-.445-.186-1.43-.161-.063.113-.258-.069-.381-.195-.238-.065-.123-.459-.07-.408.151.423-.466.599-.517.424-.201-.598-.514-.261-1.077-.823-.381.366-.918.225-.665.21-.535-.265-.412-.7-.901-.873-.691-.211-1.29-.239-1.623-.695-.006.705-.628.57-.861-.305.185.575-.22.396.18-.071-.707.326-11.438-1.638-11.288-2.109-.516.528-.715.367-.187.111-.566.352-.979.442-.906-.064-.087.69-.144.327-.696.599.328.144-.335-.332-.087.13-.525-.762-.883-.413-.92-.212-.073-.055-.796.019-.884-.517.019.232-1.121.416-1.052.159-.865.276-2.102.422-2.725.41-.063-.22-.808.308-1.408-.281.184-.091-.383-.071-.627.341.432.142.078.139-.338.582-.559-.249-1.376-.005-2.87-.157.119.147-.621.758-1.447.377-.303.172-.334 0-.229-.001-.195.712-.262.512-.275.469-1.021.331-1.25.662-1.036.411-.748.319-.517.424-.434.314-.358-.316-.101-.019-.405-.179-.173.259-.358.578-.48.223.306.036-.095-.163-.293.341.317-.024.168.218-.463-.314.021.336.004.313.053.384-.065.237-.188.339-.219-.165-.728.551-.585.453-.711.346-.714.699-.754.463-.99.835-.408-.159-1.001.002-.875.441-.814-.109-.873.545-1.301.154-.515.861-1.422 1.586-2.39 1.407.55.185.091.183.483.318-.049-.072-.769.211-1.034.848.003.208-.129.579-.473 1.305-.152.367-.221.624-.573.725-.008.04-.091.378-.327.521-.012-.272-.139-.483-.435-.351-.214.812-.292.673-.663.646.444.415-.273.012.176-.05.077.035-1.066 3.481-.935 3.339-.021.225.527-.256.478.234.471-.848 1.481-1.679 2.242-2.183 1.383-1.822 4.502-3.115 7.407-4.49 13.483-4.072 33.423-.488 44.908 8.847 2.198 2.194 4.142 4.299 4.839 6.713.895 1.018 1.181 1.05.992 2.511.506-.031.862.076.655-.606-.465.371-.026-.192.326.268z" fill="#ba8d73"/><path opacity=".24" d="M101.064 53.222c-13.161 4.693-32.36 1.163-42.903-7.853-10.539-9.035-8.404-20.152 4.752-24.825 13.16-4.693 32.363-1.183 42.903 7.853 10.542 9.015 8.408 20.132-4.752 24.825z" fill="url(#A)"/><path d="M113.314 41.316c-.429-.495-.35-.584-.249-.233-.256.368-.299.152-.921.245.601.465.492.714.613.176-.076.298-.679.29-1.039.764.548-.252.474.254.311.348-.187-.118-.446-.519-.324-.164.058.468.023 1.106-.228 1.558-.051-.508-1.004.126-.42-.099l-.906 1.952c-.976.09-1.721 1.178-1.885 1.272-.263.18-.591.265-.995.751-.638-.16-.531.276-.682-.147-.17.8-.289.882-.773 1.125-.179.403-.893.541-.629.694-.826-.381-.865.048-.981.338-.615.053-.558.084-.65.129-.264.408-.088.025-.379.242-.525.131-.761-.058-.607.012-.692.246-.364.161-.438-.226.145 1.128-.848.861-1.01.831-.908.954-1.499.325-2.437.879-.519-.574-1.21-.224-1.252-.107l-1.607.451c-.04-.236-.025-.316-.797.247.094-.502-.43.294-1.049.035-.214-.081-.884.044-1.142-.585.236.522-.55.376-.623.321-.466.038-1.256.474-1.33.086-.243.184-.169.571-.123.102-.876.669-.605.782-1.516.634.433-.419-.613.157-.931-.151-.382.262-1.388-.049-1.715-.421-1.887-.058-3.03-.083-4.408-.524-.63.361-1.552.045-1.468.04-.508-.073-1.343-.29-2.145-.688-.72-.279-.557-.145-1.347-.27.167-.114-.555-.269-.537-.141-.273.344-.707-.235-1.102.316-.089-.64-.427-.619-.588-.317-.044.013-.445-.186-.736.03-.677-.063-1.871-.928-2.758-1.32-.725-.363-.816.015-1.3-.635-.104.334-.365.057-.55-.185-.835.116-1.818.017-1.909-.499-.761-.058-1.245-1.041-2.571-1.535-.548.252-.243-.149-.529-.181-.37-.027-.962-.323-.559-.249-.269-.237.056-.301-.544-.101.008-.269-.768-.578-.826-.942-.306.525-.753-.098-.616-.052-1.297-.094-1.314-.783-1.859-1.217-.479-.338-.605-.444-.685-.688-.015.08-.544-.662-.965-.532.012-.289-.719-.507-1.091-1.532.128.543.137.607.181.034-.48.451-.681-.375-.645-.119-.168-.218-.488-.069-.538-.806-.679.061-.331-.352-.542-.786-.528-.077-.562.104-.827-.153-.238-.626.174-.487-.195-.743-.247-.69.006-.705-.381-.756-.003-.208-.597-.152-.096-.267-.149-.319-.51-.51-.862-.637.425-.711.394.011.527-.027-.362-.296-.886-.621-1.096-1.616-.019-.232.108.207-.18.071-.241-.834.171-1.028-.436-1.016-.409-.491.213-1.145.034-1.303-.387-.383-.133-1.188-.377-1.109-.144-.235-.269-.569.287-1.318-.174-.074.11-.478-.294-.886-.056-.26.209-.335-.124-.563.129-.579.622-.425.209-.896.158-.179.453-.415.623-.654-.657.502-.589.473-.694.142.553.165.257-.036.076-.298-.271.22-.586.681-.314.565-.041.221.187.45.132.523-.063.113-.584-.337-.717-.07.495.029.704.026.181-.299-.146.222.146-.222.22.165-.447.271-.398.342-.328-.144.309.244-.331.77-.31.545.201.266-.397-.219-.22.063-.177-.282-.941 5.27-.466 4.963-1.018 4.342.939 9.961 6.515 14.733 10.661 8.829 30.641 12.421 44.704 7.583 6.602-1.958 10.731-5.87 11.214-10.477.285-.072 1.123-4.011.757-4.619-.127.455-.378.013-.209.335z" fill="#f6b289"/><path d="M113.331 41.341c-.02-.004-.036-.028-.057-.031l-.032-.048-.07-.075c-.033-.048-.086-.099-.119-.147l-.049-.071-.033-.048s.008-.04.028-.036l.02.004.017.024c.029.068.061.115.07.179l-.003.02a1.39 1.39 0 0 1-.183.195c-.071.049-.176.051-.26.056a1.79 1.79 0 0 0-.487.035l.012-.06a3.33 3.33 0 0 1 .395.343l.085.099c.017.024.037.027.017.024-.024.016 0 0 .004-.02l.045-.241.08.015c-.046.137-.142.202-.254.244-.092.045-.204.087-.299.152-.184.091-.375.222-.49.387l-.069-.075c.068-.029.136-.058.2-.067s.169-.01.238.065.071.179.04.236a.26.26 0 0 1-.142.202c-.024.016-.044.013-.065.009-.093-.059-.162-.134-.232-.209l-.053-.051-.016-.024s-.02-.004 0 0c0 0 .02.004.044-.013l.004-.02s-.004.02.016.024c-.004.02.013.044.029.068l-.004.02a3.7 3.7 0 0 1 .016.813c-.029.265-.101.542-.231.788-.027.036-.071.049-.108.022-.02-.004-.037-.028-.033-.048-.009-.064-.021-.108-.082-.119a.6.6 0 0 0-.189.007c-.064.009-.136.058-.184.091l.008-.04c.004-.02.007-.04-.013-.044-.016-.024-.033-.048-.053-.051 0 0-.02-.004 0 0 0 0 .02.004.044-.013.044-.013.068-.029.112-.042s.085-.005.118.042c.016.024.012.044-.012.06-.164.323-.288.653-.433.98l-.218.5c-.074.173-.144.327-.279.489-.024.016-.027.037-.048.033-.361.037-.708.222-1.003.459l-.425.379-.309.317c-.028.036-.076.069-.147.118l.023-.016-.542.336c-.167.114-.318.253-.433.419-.027.036-.071.049-.112.042l-.181-.034c-.061-.011-.125-.002-.169.01-.024.016-.044.013-.068.029l-.048.033c-.02-.004-.024.016-.064.009s-.081-.015-.097-.039c-.037-.027-.037-.027-.033-.048-.016-.024-.016-.024-.012-.044-.017-.024-.013-.044-.03-.068l-.041-.112.233-.019c-.045.241-.09.482-.219.728-.063.113-.166.219-.286.3s-.211.127-.327.189l.055-.073c-.102.21-.249.328-.412.422l-.263.18.003-.02c.004-.02-.016-.024-.012-.044l.036.028c.053.051.038.132-.013.184-.048.033-.092.045-.129.018l-.271-.113c-.101-.019-.181-.033-.245-.025s-.112.042-.148.118l-.112.27c-.012.06-.056.073-.12.082a2.02 2.02 0 0 0-.341.041c-.044.013-.109.021-.153.034-.02-.004-.044.013-.044.013s-.048.033-.092.045l.072-.049-.083.109-.051.053c-.024.016-.028.036-.1.085-.02-.004-.024.016-.044.013s-.044.013-.064.009l-.04-.007c-.021-.004-.021-.004-.037-.028-.02-.004-.02-.004 0 0l.04.008s-.044.013-.068.029-.024.016-.044.013c-.132.038-.26.056-.385.053a.64.64 0 0 1-.206-.017l-.1-.019-.041-.007-.02-.004s-.02-.004-.016-.024l-.02-.004s-.017-.024-.03-.068.047-.137.091-.15.064-.009.064-.009l.04.007c.021.004.037.028.057.031.077.035.102.123.067.199-.027.037-.051.053-.075.069l-.2.067c-.068.029-.133.038-.221.063-.04-.007-.044.013-.145-.006-.02-.004-.076-.035-.089-.079s-.013-.044-.009-.064l.007-.04.004-.02.019-.1c.011-.06-.002-.104.01-.164l.301-.048.019.232c-.015.08-.006.144-.025.245-.03.161-.104.334-.271.449-.147.118-.32.149-.485.139-.169.01-.31-.016-.447-.062l.152-.034c-.155.158-.353.329-.561.436-.211.127-.472.183-.685.206l-.659.065c-.196.047-.397.114-.56.208-.068.029-.152.034-.205-.017a1.11 1.11 0 0 0-.236-.189 1.21 1.21 0 0 0-.275-.092c-.101-.019-.189.007-.297.028-.044.013-.088.025-.136.058-.024.016-.044.013-.048.033-.02-.004-.028.036.004-.02l-.103.106-.797.247-.397.114c-.132.038-.285.072-.433.086-.084.005-.178-.054-.183-.138-.013-.044-.025-.088-.005-.084 0 0-.004.02.016.024.016.024.037.028.057.031l.02.004c-.044.013-.116.062-.187.111l-.43.294c-.072.049-.172.03-.242-.045-.033-.048-.046-.091-.038-.132l.011-.06s.004-.02 0 0l-.004.02.033.048c.037.028.097.039.097.039.02.004 0 0 0 0l-.048.033c-.092.045-.187.111-.32.149a1.05 1.05 0 0 1-.369.077c-.064.009-.145-.006-.205-.017l-.161-.03c-.081-.015-.185-.014-.306-.036s-.242-.045-.359-.087-.247-.129-.337-.208c-.086-.099-.168-.218-.21-.33-.046-.091-.007-.188.085-.234a.17.17 0 0 1 .234.085l-.004.02c.025.088.087.203.037.36a.48.48 0 0 1-.138.182c-.068.029-.116.062-.18.071a.81.81 0 0 1-.293.008l-.262-.049c-.02-.004-.037-.027-.057-.031l.117.042c-.105.002-.213.023-.325.065l-.352.101c-.112.042-.241.059-.389.074-.064.009-.169.01-.266-.028-.057-.031-.093-.059-.146-.11s-.046-.091-.075-.159l.271.112c-.048.033-.079.089-.091.15l-.004.02c.004-.02 0 0-.009-.064l-.017-.024c-.016-.024-.037-.028-.053-.051-.037-.028-.097-.039-.121-.022-.04-.008-.068.029-.092.045 0 0-.004.02-.024.016-.028.036-.024.016-.028.036l.004-.02.026-.141.284.156a2.07 2.07 0 0 0-.322.273l-.326.293c-.072.049-.147.118-.255.14s-.193.027-.277.032a3.48 3.48 0 0 1-.447-.062c-.101-.019-.166-.114-.148-.214.008-.04.035-.077.039-.097.024-.016.028-.036.052-.053s.028-.036 0 0l-.011.06c-.004.02.013.044.029.068s.053.051.053.051l.04.007.02.004s.02.004 0 0c0 0-.02-.004-.044.013l-.305.068c-.108.022-.217.043-.341.041s-.27-.008-.412-.139l.226.021c-.187.111-.376.117-.565.124a2.15 2.15 0 0 1-.504-.093c-.158-.05-.315-.1-.465-.19-.154-.07-.304-.16-.423-.307l.134.066-2.234-.102c-.741-.054-1.507-.196-2.214-.43l.149-.014c-.259.16-.556.188-.83.2-.145-.006-.27-.008-.411-.034l-.202-.037c-.04-.008-.06-.011-.097-.039l-.061-.011c-.02-.004-.02-.004-.037-.028l-.02-.004s-.02-.004-.037-.028l-.017-.024c-.02-.004-.066-.095-.058-.135.011-.06.035-.077.063-.113.024-.016.072-.049.092-.045l.001.333c-.766-.142-1.497-.36-2.182-.715l.02.004-.311-.12c-.097-.039-.198-.057-.299-.076l-.35-.023c-.121-.022-.246-.025-.347-.043l-.069-.304s-.044.013-.059.093c.005.084.025.088.025.088.02.004 0 0-.02-.004-.04-.007-.077-.035-.137-.046l-.181-.033.024-.016s.024-.016.028-.036l.015-.08-.043.117c-.028.036-.051.053-.079.089-.024.016-.072.049-.116.062-.068.029-.152.034-.213.023-.125-.002-.222-.041-.302-.056s-.145-.006-.213.023-.12.082-.175.155-.16.074-.213.023a.16.16 0 0 1-.066-.095c-.005-.084-.034-.152-.043-.216l-.075-.159c-.02-.004-.016-.024-.037-.028l-.02-.004c-.024.016-.072.049-.103.106-.028.036-.055.073-.096.065-.02-.004-.044.013-.064.009l-.02-.004-.04-.008-.04-.007-.081-.015-.161-.03c-.105.002-.189.007-.261.056-.024.016-.068.029-.088.025-.225-.021-.4-.095-.594-.172-.174-.074-.364-.171-.514-.261l-1.001-.559-.491-.278c-.17-.094-.324-.164-.502-.218-.081-.015-.178-.054-.262-.048-.081-.015-.202-.037-.319-.08-.211-.101-.346-.272-.461-.438l.217-.043c-.008.04-.035.077-.043.117-.028.036-.079.089-.147.118s-.125-.002-.185-.014c-.04-.007-.077-.035-.114-.062-.13-.086-.212-.206-.278-.301l.117.043c-.361.037-.719.054-1.086.007-.181-.034-.363-.067-.537-.141s-.353-.232-.393-.468l.11.083c-.286-.032-.533-.161-.733-.322l-.598-.485-.605-.444c-.207-.121-.437-.226-.668-.331l.084-.005c-.068.029-.136.058-.2.067-.044.013-.088.025-.129.018-.02-.004-.06-.011-.097-.039s-.053-.051-.049-.071c-.013-.044-.029-.068-.025-.088l-.016-.024-.161-.03c-.141-.026-.258-.069-.396-.115-.057-.031-.117-.042-.19-.098-.02-.004-.02-.004-.037-.028 0 0-.02-.004-.016-.024l-.02-.004-.016-.024s-.013-.044-.009-.064.028-.037.031-.057c.024-.016.044-.013.048-.033l.04.008.121.022-.07.153c-.053-.051-.086-.099-.119-.147-.017-.024-.017-.024-.013-.044s-.016-.024.004-.02c0 0 .016.024.037.027 0 0-.02-.004-.024.016l-.312.109c-.044.013-.101-.019-.113-.063l.004-.02c.008-.04-.058-.135-.151-.194-.069-.075-.163-.134-.256-.193l-.252-.213c-.069-.075-.155-.174-.193-.306l.141.026c-.035.077-.087.13-.158.178a.38.38 0 0 1-.261.056c-.081-.015-.157-.05-.231-.105-.037-.028-.053-.051-.086-.099-.017-.024-.033-.048-.029-.068s-.016-.024-.005-.084c.004-.02.028-.036.048-.033.024-.016.024-.016.044-.013l.04.007c.04.008.073.055.066.095s-.052.053-.076.069c-.286-.032-.572-.064-.839-.197-.271-.112-.479-.338-.647-.556l-.254-.317c-.086-.099-.196-.182-.309-.244l-.329-.248c-.106-.103-.205-.246-.243-.377l.145.006c-.015.08-.116.062-.112.042-.02-.004-.02-.004-.037-.028-.02-.004-.016-.024-.037-.027l-.159-.154c-.073-.055-.143-.13-.216-.185-.146-.11-.316-.204-.473-.15-.044.013-.081-.015-.097-.039l.004-.02c.008-.04-.042-.112-.075-.159l-.159-.154c-.126-.106-.232-.209-.334-.332-.225-.249-.381-.528-.49-.839l.132-.038.043.216c.009.064.034.152.047.196l-.02-.004c-.02-.004-.044.013-.044.013-.004.02 0 0 0 0l.007-.04.019-.1.021-.225.113.063c-.052.053-.123.102-.212.127s-.172.03-.27-.008c-.077-.035-.126-.107-.179-.158l-.082-.119s-.017-.024 0 0c0 0 .016.024.04.008.044-.013.048-.033.048-.033l.004-.02-.004.02c.013.044-.011.06-.055.073-.02-.004-.04-.007-.057-.031-.033-.048-.11-.083-.187-.118s-.17-.094-.216-.185c-.115-.167-.121-.355-.152-.527l.073.055c-.105.001-.189.007-.31-.016-.06-.011-.117-.042-.15-.09s-.062-.115-.054-.155c-.022-.108-.007-.188-.028-.296-.005-.084-.031-.172-.076-.264l.057.031c-.141-.026-.266-.028-.415-.014-.064.009-.149.014-.246-.025-.077-.035-.15-.09-.203-.142l-.016-.024c-.038-.132-.096-.267-.066-.428.015-.08.054-.177.03-.161-.016-.024-.09-.079-.126-.107-.02-.004-.016-.024-.037-.027-.054-.156-.109-.311-.123-.459l-.018-.128c-.013-.044-.005-.084-.025-.088.004-.02-.097-.039-.161-.03-.04-.007-.057-.031-.069-.075.004-.02-.017-.024-.053-.051s-.077-.035-.117-.043c-.02-.004-.04-.007-.077-.035 0 0-.02-.004-.037-.028-.02-.004-.029-.068-.005-.084.004-.02.028-.036.028-.036l.024-.016c.024-.016.024-.016.044-.013.044-.013.108-.022.152-.034l-.039.097a.99.99 0 0 0-.351-.356c-.15-.09-.304-.16-.478-.234-.04-.008-.053-.051-.045-.092l.004-.02c.031-.056.066-.133.118-.186s.087-.129.199-.171c.024-.016.064-.009.105-.001s.057.031.073.055c.033.048.049.071.062.115l.045.092c-.004.02.016.024.016.024l-.04-.008-.026.141c-.126-.106-.276-.197-.399-.323s-.245-.253-.343-.396c-.197-.286-.322-.621-.387-.944.004-.02.007-.04-.009-.064l.004-.02.004-.02.004-.02s.007-.04.028-.036c.024-.016.024-.016.064-.009.02.004.057.031.057.031l.016.024-.004.02-.004.02c.013.044.005.084-.026.141-.011.06-.083.109-.143.098-.064.009-.101-.019-.141-.026-.02-.004-.037-.028-.053-.051-.022-.108-.063-.22-.065-.324-.022-.108-.019-.232-.021-.336l.01-.164c.008-.04-.005-.084-.025-.088 0 0-.057-.031-.101-.019-.04-.008-.105.001-.145-.006-.02-.004-.06-.011-.057-.031-.086-.099-.144-.234-.162-.362s.005-.248.027-.369.065-.237.104-.334c.011-.06.039-.097.05-.157l.011-.06c-.175-.178-.235-.418-.258-.63-.022-.108-.023-.212-.024-.316-.013-.044-.001-.104-.018-.128l-.016-.024.02.004-.117-.042c-.062-.115-.124-.231-.138-.379s.008-.269.055-.405c.089-.254.231-.456.373-.658l.034.152c-.037-.027-.073-.055-.09-.079s-.029-.068-.025-.088c-.009-.064-.001-.104.006-.144-.005-.084.006-.144.001-.228-.014-.148-.096-.267-.202-.37l-.033-.048a.72.72 0 0 1-.003-.208c.011-.06.043-.117.046-.137s.008-.04-.029-.068c-.016-.024-.073-.055-.11-.083s-.049-.071-.042-.112a.65.65 0 0 1 .113-.27c.059-.093.134-.162.186-.215.028-.037.052-.053.055-.073s.004-.02-.013-.044c-.054-.155-.128-.211-.177-.282-.033-.048-.025-.088.002-.124.107-.126.23-.228.333-.333l.289-.32.159.154-.39.302c-.04-.007-.068.029-.112.042-.024.016-.048.033-.088.025-.02-.004-.044.013-.064.009s-.06-.011-.077-.035c-.07-.075-.082-.119-.095-.163l-.042-.112c-.009-.064.023-.12.066-.133.02.004.044-.013.064-.009.06.011.117.042.178.054l.061.011s-.044.013-.048.033l-.008.04-.004.02c-.016-.024-.069-.075-.102-.123s-.086-.099-.119-.147l.161.03a1.76 1.76 0 0 0-.261.284c-.031.056-.083.109-.09.149l-.004.02s.02.004-.013-.044c-.02-.004-.057-.031-.057-.031.068-.029.125.002.154.07.016.024.016.024.013.044-.011.06-.002.124.047.196l.062.115c-.008.04.009.064.025.088-.008.04.025.088-.01.165l.004-.02c-.008.04-.052.053-.076.069s-.044.013-.064.009l-.081-.015c-.04-.007-.077-.035-.117-.042-.057-.031-.114-.063-.174-.074-.057-.031-.117-.042-.158-.05-.044.013-.04-.008-.044.013l-.102-.123c.081.015.145.006.225.021.04.007.084-.005.105-.002.04.008.064-.009.064-.009s-.024.016-.028.037l-.011.06-.02-.004c-.016-.024-.037-.028-.073-.055-.053-.051-.13-.086-.187-.118l.172-.03-.004.02.004-.02.004-.02c.004-.02-.009-.064-.025-.088-.037-.027-.057-.031-.077-.035l-.02-.004s-.02-.004-.024.016l-.024.016.024-.016c.008-.04.055-.073.16-.074s.17.094.183.138c.033.048.045.091.058.135s-.019.1-.046.137l-.164.094-.072.049c-.068.029-.072.049-.136.058 0 0-.024.016-.044.013l-.061-.011c-.04-.008-.073-.055-.073-.055.004-.02-.016-.024-.013-.044-.013-.044-.009-.064-.005-.084l.056-.301c.011-.06.083-.109.143-.098.02.004.04.007.057.031.093.059.151.194.133.295s-.054.177-.109.25-.107.126-.178.175c-.048.033-.072.049-.14.078-.02-.004-.044.013-.064.009s-.081-.015-.117-.042c-.069-.075-.038-.132-.054-.155-.009-.064.046-.137.127-.122.04.008.081.015.114.063l.016.024c.016.024.037.027.049.072 0 0 .016.024.013.044l-.008.04-.008.04c-.004.02-.028.036-.031.056l-.048.033c-.044.013-.044.013-.064.009l-.02-.004-.04-.007c-.057-.031-.097-.039-.134-.066-.033-.048-.09-.079-.09-.079l.02.004s.02.004.024-.016c.02.004.024-.016.048-.033s.028-.036.028-.036l.004-.02.004-.02.016.024-.235.143c-.004.02.016.024.037.028 0 0 .057.031.081.015.044-.013.024-.016.044-.013l.024-.016c.004-.02 0 0 0 0-.004.02-.008.04-.031.056-.008.04-.019.101-.046.137l-.172.924-.175 1.277-.111 1.268c-.017.205-.018.433-.015.641l.004.313c.013.044.025.088.018.128-.004.02.016.024-.004.02 0 0-.02-.004-.016-.024l-.04-.008c-.04-.008-.044.013-.044.013l.24.169c-.17.8-.259 1.614-.248 2.448l.033.609.025.316a1.18 1.18 0 0 0 .048.3l.093.62.137.607c.368 1.606 1.065 3.127 1.929 4.534s1.92 2.682 3.098 3.856l.44.435.929.837.984.764a6.82 6.82 0 0 0 .496.362l1.015.707c1.372.919 2.824 1.748 4.31 2.501a49.13 49.13 0 0 0 4.577 1.969c3.121 1.159 6.367 1.988 9.637 2.572a58.2 58.2 0 0 0 9.959.845l4.992-.261c1.659-.171 3.296-.45 4.928-.813l2.413-.634 2.394-.762c1.582-.539 3.088-1.237 4.488-2.142l.522-.34.506-.364.489-.387.473-.411.226-.207.231-.227.436-.439.4-.466.21-.231.193-.255.363-.494.327-.521c.059-.093.114-.166.153-.263l.137-.286c.078-.193.192-.359.27-.553.331-.77.521-1.566.634-2.397l.052-.053.024-.016c.004-.02.028-.036.031-.056.028-.037.035-.077.067-.133.039-.097.074-.173.093-.274l.169-.571.257-1.158.177-1.172.048-.594c-.007-.188.011-.393-.08-.576l.044-.013c-.008.04-.015.08-.047.137-.027.036-.059.093-.103.106-.024.016-.044.013-.084.005l-.041-.007s-.02-.004 0 0c0 0 .021.004.024-.016-.003.02.013.044.033.048-.044.013-.051.053-.035.077zm-.033-.048c-.016-.024-.04-.007-.036-.028-.017-.024-.013-.044-.029-.068l.003-.02c.004-.02.024-.016.024-.016l.02.004.041.008c.02.004.04.008.064-.009.044-.013.052-.053.079-.089s.035-.077.043-.117c.004-.02.024-.016.024-.016l.02.004c.091.183.094.391.097.6a5.92 5.92 0 0 1-.028.597c-.031.389-.086.795-.157 1.176l-.237 1.161c-.038.201-.091.378-.149.575-.039.097-.058.197-.097.294-.007.04-.038.097-.066.133-.004.02-.028.036-.035.077l-.028.036c-.004.02-.048.033-.048.033l.052-.053c-.093.835-.287 1.651-.602 2.445l-.253.577-.137.286a1.81 1.81 0 0 1-.157.283l-.31.545-.367.514-.194.255-.21.231-.403.486-.44.459-.23.228-.227.207-.473.411c-.151.138-.338.249-.489.387-.168.114-.322.273-.51.384l-.526.36c-1.403.925-2.954 1.636-4.539 2.194l-2.398.782-2.437.651c-1.636.383-3.293.658-4.956.849s-3.347.274-5.023.318c-3.37.062-6.713-.244-10.027-.816-3.31-.592-6.576-1.424-9.718-2.587s-6.183-2.64-8.98-4.529c-2.801-1.869-5.28-4.239-7.061-7.104-.881-1.431-1.59-2.995-1.951-4.642l-.133-.627-.093-.62c-.022-.108-.023-.212-.045-.32l-.024-.316c-.003-.208-.026-.42-.029-.629-.008-.853.085-1.688.263-2.528l.24.169c-.024.016-.068.029-.132.038l-.081-.015c-.02-.004-.037-.027-.053-.051a.27.27 0 0 1-.078-.139c-.029-.068-.038-.132-.027-.192-.022-.108-.019-.232-.021-.336-.023-.212-.006-.417.015-.641l.115-1.288.175-1.277.12-.643c.019-.1.041-.221.08-.318.011-.06.019-.1.05-.157a.22.22 0 0 1 .039-.097c.004-.02.007-.04.031-.057 0 0 .004-.02.028-.036s.024-.016.068-.029.101.019.101.019c.02.004.037.027.053.051l-.235.143c-.016-.024-.033-.048-.045-.091 0 0-.017-.024-.013-.044l.008-.04c.004-.02.008-.04.031-.056s.028-.037.052-.053.044-.013.044-.013l.06.011c.081.015.117.043.157.05.037.028.077.035.097.039l-.02-.004c-.02-.004 0 0-.044.013-.02-.004-.024.016-.044.013-.024.016-.028.037-.031.057l-.008.04-.004.02-.004.02-.016-.024.24-.059s.024-.016-.029-.068c-.016-.024-.057-.031-.057-.031l-.02-.004.048-.033c.048-.033.079-.089.127-.122s.059-.093.063-.113c.007-.04-.013-.044-.029-.068l.204-.087-.052.281c-.004.02-.004.02 0 0 0 0 .004-.02-.016-.024 0 0-.033-.048-.053-.051l-.04-.008-.02-.004.287-.196-.067.133c-.016-.024-.009-.064-.029-.068-.016-.024 0 0 .02.004s0 0-.024.016l.037.027-.048.033s-.02-.004-.024.016l-.02-.004c-.02-.004-.06-.011-.077-.035-.037-.028-.029-.068-.025-.088l.004-.02.004-.02.004-.02.019-.1c.051-.053.116-.062.172-.03.077.035.13.086.203.141l.146.11c.016.024.013.044.029.068.013.044.005.084-.002.124-.004.02-.028.036-.052.053l-.024.016c-.088.025-.108.022-.173.03-.04-.008-.084.005-.125-.002-.084.005-.165-.01-.246-.025-.061-.011-.114-.063-.102-.123l.011-.06c.004-.02.031-.056.055-.073l.072-.049c.044-.013.088-.025.149-.014.084-.005.161.03.218.061a.73.73 0 0 0 .194.077c.02.004.057.031.077.035l.02.004s-.02-.004-.024.016c-.02-.004-.044.013-.048.033l.004-.02c-.031.056-.008.04-.008.04s-.016-.024-.013-.044l-.078-.139c-.046-.091-.087-.203-.061-.344l.163.134c-.024.016-.024.016-.068.029-.02-.004-.044.013-.064.009-.04-.007-.077-.035-.093-.059-.049-.072-.022-.108-.034-.152.004-.02.011-.06.035-.077.035-.077.087-.129.122-.206.083-.109.186-.215.309-.317.048-.033.108-.021.161.03a.89.89 0 0 0 .119.147c.033.048.09.079.135.17 0 0 .017.024.013.044s-.004.02.013.044l-.011.06c-.008.04-.076.069-.096.065s-.044.013-.044.013l-.121-.022c-.061-.011-.121-.022-.198-.057l.131-.142.042.112c.013.044.029.068.013.044l-.02-.004s-.02-.004 0 0c0 0 .02.004.024-.016.024-.016.068-.029.096-.065.119-.082.267-.2.386-.282.048-.033.108-.022.141.026s.025.088-.002.124c-.107.126-.214.251-.317.357s-.226.207-.309.317l.006-.144c.049.071.119.147.16.258.033.048.034.152-.017.205-.031.057-.079.089-.107.126-.076.069-.127.122-.159.179s-.066.133-.081.213l-.066-.095c.057.031.089.079.142.13s.078.139.063.22-.043.117-.05.157-.015.08-.002.124l-.013-.044c.049.071.119.147.168.218a.69.69 0 0 1 .076.264c.005.084.007.188.016.252-.008.04.005.084.001.104.013.044-.004.02-.004.02l.034.152c-.138.182-.28.385-.342.602-.039.097-.061.217-.06.321s.047.196.113.291l-.117-.043c.02.004.044-.013.084-.005.02.004.061.011.097.039l.049.071.013.044c.009.064.022.108.031.172.002.104.003.208.028.296.027.192.074.388.196.514l.049.071c.016.024.013.044.009.064l-.019.1c-.011.06-.043.117-.054.177-.043.117-.082.213-.1.314s-.037.201-.036.305c.022.108.047.196.116.271l-.077-.035c.06.011.105-.001.165.01s.125.002.194.078.054.156.063.22l-.01.164c.001.104.003.208.025.316s.043.216.069.304l-.053-.051.06.011.007-.04.017.024s.016.024.057.031c.02.004.04.007.064-.009s.028-.036.028-.036l.013.044c.065.324.174.635.354.897.078.139.201.266.307.368l.379.319c.037.028.029.068.001.104-.004.02-.024.016-.048.033s-.064.009-.081-.015c-.02-.004-.037-.028-.057-.031-.016-.024-.033-.048-.029-.068-.013-.044-.029-.068-.045-.091s-.029-.068-.049-.072c-.016-.024 0 0-.02-.004-.024.016-.072.049-.103.106s-.083.109-.114.166l-.042-.112c.174.074.348.147.494.258s.309.244.4.427c.013.044.005.084-.039.097l-.02-.004-.132.038-.024.016.024-.016.008-.04c.004-.02-.016-.024-.016-.024-.017-.024-.02-.004-.017-.024l.06.011c.04.008.097.039.154.07s.11.083.115.167l-.069-.075.121.022c.04.008.101.019.15.09.029.068.022.108.034.152l.022.108c.014.148.069.304.107.435l-.037-.028c.053.051.11.083.179.158.016.024.029.068.025.088l-.011.06-.015.08c-.022.121.016.252.057.364l-.016-.024c.053.051.106.103.146.11.037.028.121.022.185.013a1.61 1.61 0 0 1 .455.022c.02.004.04.008.057.031.045.091.067.199.072.283.001.104.007.188.012.272s.038.132.115.167c.081.015.165.01.27.008.04.007.057.031.073.055.01.168.041.34.123.459.049.071.106.103.183.138s.174.074.24.169l-.112.042.004-.02.004-.02.008-.04c.004-.02.004-.02.048-.033l.04.007.049.071c.016.024.029.068.046.092.033.048.086.099.143.13.093.059.229.001.312-.108.024-.016.068-.029.084-.005s.016.024.013.044l-.021.225-.03.161c-.004.02-.004.02-.031.057-.004.02-.028.036-.068.029s-.04-.007-.057-.031l-.017-.024c-.045-.092-.054-.156-.063-.22l-.043-.216c-.013-.044.015-.08.055-.073.044-.013.06.011.077.035a2.5 2.5 0 0 0 .478.795c.102.123.208.225.334.332.053.051.126.106.175.178.053.051.119.147.12.251l-.09-.079c.112-.042.233-.019.33.02a1.19 1.19 0 0 1 .264.153c.073.055.143.13.216.185l.159.154.016.024c.02.004-.06-.011-.092.045l.145.006c.06.24.303.389.523.554.11.083.24.169.325.268.106.103.188.222.274.321.168.218.363.4.594.505s.513.157.779.186l-.03.161.02.004s.02.004.024-.016c.02.004.028-.036.028-.036l.008-.04.016.024c.016.024.033.048.069.075.057.031.093.059.154.07.101.019.197-.047.259-.16.028-.037.072-.049.108-.022.02.004.037.028.033.048.005.084.075.159.144.234s.163.134.232.209c.093.059.163.134.252.213a.63.63 0 0 1 .122.127c.033.048.082.119.087.203l-.11-.083.312-.108c.02.004.024-.016.044-.013 0 0 .02.004.044-.013.02.004.06.011.077.035.033.048.033.048.029.068l.016.024c.013.044.049.071.086.099s.046.092-.002.124c-.024.016-.048.033-.088.025l-.081-.015.024-.016c.024-.016.024-.016.028-.036l.007-.04s.004-.02-.016-.024l.02.004c.036.027.093.059.154.07.117.042.234.085.355.107l.081.015c.04.008.081.015.137.046s.09.079.102.123.029.068.025.088c.016.024-.02-.004 0 0 0 0 .04.007.064-.009.044-.013.112-.042.16-.074.024-.016.044-.013.064-.009.235.085.482.214.709.339s.426.287.626.448l.582.461c.203.142.41.263.635.284.04.008.097.039.11.083.018.128.124.231.278.301.134.066.315.1.476.13a4.39 4.39 0 0 0 1.025-.018c.044-.013.081.015.117.042.066.095.152.194.225.249.037.028.077.035.057.031-.024.016.024-.016.031-.056.011-.06.083-.109.143-.098.02.004.057.031.073.055.099.143.217.29.355.336.114.063.347.043.541.121.392.135.712.319 1.053.507l1.001.559c.17.094.344.168.498.238.174.074.352.127.493.154l-.108.021a.71.71 0 0 1 .461-.122.42.42 0 0 1 .222.041l.101.019.04.008.02.004-.04-.007-.099.086c.059-.093.118-.186.234-.248.068-.029.136-.058.213-.023.081.015.137.046.19.098.09.079.131.191.157.278l.076.263-.279-.072c.079-.089.162-.199.278-.26s.264-.076.385-.053l.282.052c.084-.005.105-.001.136-.058l-.043.117a.13.13 0 0 1 .023-.121.28.28 0 0 1 .076-.069c.048-.033.068-.029.092-.045.044-.013.084-.005.125.002.06.011.145.006.202.037.06.011.121.022.198.057.037.028.077.035.11.083.016.024.073.055.071.179-.019.1-.066.133-.09.149l-.069-.304c.121.022.225.021.346.043l.35.023a1.25 1.25 0 0 1 .379.091l.332.124.02.004c.648.328 1.379.546 2.085.677l.001.332c.02.004.064-.009.092-.045s.028-.037.059-.093c.011-.06-.038-.132-.038-.132l-.02-.004s-.02-.004-.016-.024l.04.007.262.048c.121.022.246.025.35.023.229.001.466-.038.653-.149.048-.033.088-.025.149-.014.687.231 1.417.345 2.157.399s1.465.084 2.214.098c.04.007.101.019.134.066a1.54 1.54 0 0 0 .333.228c.134.066.271.112.409.159s.278.072.403.075.273-.012.345-.061l.024-.016c.072-.049.152-.034.202.037.016.024.097.039.178.054.084-.005.169-.01.277-.032l.305-.068c.02.004.064-.009.105-.001l.04.007.04.008c.02.004.04.007.057.031.02.004.057.031.073.055s.033.048.025.088c.009.064-.015.08-.019.1-.035.077-.059.093-.083.109s-.052.053-.055.073l-.089-.307c.141.026.282.052.407.054.061.011.125.002.169-.01s.068-.029.12-.082c.099-.085.203-.191.326-.293l.346-.289a.17.17 0 0 1 .246.025c.033.048.045.092.038.132l-.049.261c-.004.02-.004.02-.031.057l-.024.016c-.024.016-.048.033-.092.045-.024.016-.084.005-.121-.022-.02-.004-.037-.028-.053-.051l-.016-.024c-.029-.068-.009-.064-.025-.088l.004-.02.008-.04.011-.06c.046-.137.113-.27.232-.352.072-.049.173-.03.222.041l.049.071c.016.024 0 0-.004.02l.101.019c.084-.005.213-.023.325-.065l.352-.101c.132-.038.241-.059.389-.074l.117.042-.02-.004.02.004.04.008.101.019a.49.49 0 0 0 .189-.007c.02.004.044-.013.044-.013s-.009-.064-.022-.108l.316-.129a.59.59 0 0 0 .351.356c.077.035.178.054.279.072s.205.017.347.043l.282.052c.084-.005.172-.03.261-.056s.184-.091.276-.136c.024-.016.048-.033.092-.045.024-.016.044-.013.088-.025.024-.016.125.002.178.054.017.024.053.051.049.072.016.024.013.044.009.064.013.044.013.044.005.084l-.019.1-.26-.173c.143-.098.287-.196.45-.291.092-.045.143-.098.276-.136.02.004.044-.013.064-.009l.04.008.061.011c.04.007.077.035.114.063.016.024.053.051.049.072.025.088.038.132.031.172l-.183-.138c.233-.019.521-.111.786-.187s.533-.172.797-.247l-.103.106c.039-.097.083-.109.111-.146s.072-.049.096-.065c.068-.029.136-.058.2-.067a.85.85 0 0 1 .402-.03.91.91 0 0 1 .396.115c.134.066.223.145.309.244l-.202-.037c.211-.127.436-.21.672-.25s.466-.038.679-.062.41-.07.573-.164c.184-.091.335-.229.486-.367.048-.033.092-.045.152-.034.121.022.262.048.367.047.125.002.233-.019.308-.088.072-.049.131-.142.154-.262.011-.06.002-.124.013-.184-.009-.064-.018-.128-.006-.188l.003-.02c-.005-.084.05-.157.135-.162s.137.046.163.134c.005.084.01.168-.005.248l-.019.1.004-.02c.004-.02 0 0-.013-.044-.016-.024-.053-.051-.073-.055l-.04-.007c.044-.013.112-.042.176-.05l.2-.067-.028.265-.02-.004.02.004.02.004s.02.004.064-.009.1-.086.091-.15c-.013-.044-.03-.068-.03-.068l-.02-.004s-.02-.004-.016-.024l.02.004.061.011c.04.008.1.019.144.006.105-.002.213-.023.322-.044l-.044.013a.42.42 0 0 1 .159-.074c.044-.013.109-.022.165.01.041.008.037.028.037.028l-.02-.004-.02-.004-.041-.008-.02-.004c-.044.013-.02-.004 0 0l.028-.036.059-.093c.024-.016.028-.036.051-.053.021.004.024-.016.068-.029s.068-.029.113-.042l.192-.027c.129-.018.233-.019.342-.041l-.12.082c.039-.097.058-.197.141-.306.031-.057.083-.109.134-.162.072-.049.14-.078.204-.087.128-.018.27.008.37.027a9.1 9.1 0 0 1 .312.12l-.126.226-.036-.028-.017-.024s-.016-.024-.036-.028c-.017-.024-.033-.048-.026-.088l.012-.06c.003-.02.003-.02.007-.04.059-.093.103-.106.131-.142l.215-.147c.14-.078.263-.18.309-.317.004-.02.032-.057.052-.053.116-.062.208-.107.303-.172s.151-.138.206-.211c.098-.19.16-.407.205-.648.011-.06.083-.109.143-.098.04.007.077.035.09.079l.025.088c-.004.02.016.024.013.044 0 0-.004.02 0 0l-.021-.004c-.02-.004-.036-.028-.06-.011l-.02-.004.044-.013c.044-.013.068-.029.112-.042.172-.03.317-.024.455.022l-.112.042c.134-.162.309-.317.48-.451.191-.131.375-.221.543-.336l.023-.016c.004-.02.048-.033.076-.069l.309-.317a2.69 2.69 0 0 1 .449-.395c.319-.253.69-.454 1.112-.48l-.068.029a3.38 3.38 0 0 0 .251-.452c.07-.153.144-.327.218-.5l.457-.996.102.123c-.044.013-.068.029-.112.042-.02-.004-.044.013-.064.009l-.04-.008c-.02-.004-.057-.031-.073-.055s-.013-.044-.009-.064l.003-.02c.004-.02.028-.036.028-.036l.024-.016a1.39 1.39 0 0 1 .248-.099.6.6 0 0 1 .294-.008c.06.011.093.059.126.107s.045.091.054.155l-.141-.026c.126-.226.191-.463.219-.728s.033-.513-.002-.769l-.004.02c-.017-.024-.013-.044-.026-.088.004-.02-.016-.024-.012-.044s.004-.02.007-.04c0 0 .004-.02.028-.036s.044-.013.064-.009c.04.008.037.028.057.031l.036.028.053.051c.07.075.139.15.212.205l-.06-.011c.072-.049.122-.206.073-.278-.017-.024-.077-.035-.142-.026s-.132.038-.176.05c-.024.016-.06-.011-.077-.035s-.012-.044.011-.06a1.31 1.31 0 0 1 .534-.4c.092-.045.204-.087.296-.132s.187-.111.202-.191c.004-.02.028-.036.048-.033s.037.028.033.048c-.015.08-.03.161-.069.257-.004.02-.011.06-.075.069-.061-.011-.057-.031-.077-.035l-.086-.099c-.123-.127-.245-.253-.375-.339-.02-.004-.016-.024-.013-.044l.024-.016c.173-.03.342-.041.507-.031.084-.005.165.01.236-.039.068-.029.124-.102.159-.178l-.004.02c-.009-.064-.038-.132-.071-.179l-.016-.024.02.004c.02.004.048-.033.028-.036l.032.048.05.072c.033.048.086.099.118.147l.07.075c.02.004.016.024.036.027.09.079.086.099.086.099z" fill="#000"/><path d="M145.088 85.49c-.356.454-4.303 5.293-4.547 5.144.709-.222-34.709-30.213-40.156-34.67-.017-.024-.037-.028-.053-.051a1.02 1.02 0 0 1-.334-.56c-.076-.263-.097-.6-.029-.961.262-1.406 1.572-2.951 2.953-3.423.78-.271 1.405-.156 1.741.281 1.75 1.134 40.042 34.171 40.425 34.241z" fill="#f6b289"/><path d="M145.108 85.494c-.031.056-.055.073-.062.113l-.059.093-.151.138-.273.344-1.625 2.006-1.121 1.31-.578.641-.309.317c-.052.053-.103.106-.175.155-.024.016-.052.053-.096.065-.024.016-.044.013-.068.029-.02-.004-.024.016-.044.013s-.02-.004-.044.013l-.06-.011.033-.181c-.024.016-.047.033-.051.053l-.008.04-.016-.024-.049-.071c-.033-.048-.086-.099-.139-.15-.086-.099-.192-.202-.282-.281l-.603-.569-1.23-1.121-2.492-2.186-5.008-4.355-5.032-4.339-5.011-4.335-10.067-8.657-10.202-8.495c-.309-.244-.471-.607-.508-.967s.03-.722.114-1.059a4.79 4.79 0 0 1 1.048-1.822c.476-.535 1.04-.992 1.696-1.266.34-.145.693-.246 1.067-.239a1.81 1.81 0 0 1 .561.125c.174.074.336.208.475.358l-.093-.059.04.008.017.024c.479.338.874.681 1.309 1.032l1.286 1.048 2.543 2.133 5.063 4.282 10.079 8.597 15.038 12.984 2.496 2.166 1.258 1.085.631.532c.267.133.467.294.702.483zm-.044.013l-.04-.007-.037-.028-.093-.059-.163-.134-.325-.268-.655-.516-1.285-1.048-2.548-2.113-5.067-4.262-10.106-8.56-17.637-15.044-1.262-1.065-1.269-1.024.057.031-.061-.011-.032-.048c-.185-.242-.476-.358-.79-.354-.31-.016-.638.069-.954.197-.612.261-1.149.681-1.597 1.18s-.826 1.073-1.01 1.725c-.1.314-.164.655-.119.975.025.316.154.631.41.824l10.146 8.568 10.174 8.531 5.06 4.302 5.031 4.338 4.981 4.391 2.464 2.222 1.206 1.137a13.74 13.74 0 0 1 .6.589l.298.304c.053.051.085.099.138.15.017.024.053.051.066.095l.033.048c-.004.02.016.024.013.044s.012.044-.012.06c-.007.04-.031.057-.075.069l.034-.181-.041-.007.024-.016c.024-.016.048-.033.076-.069.051-.053.099-.086.151-.138l.305-.297.595-.617 1.137-1.286 1.12-1.31.562-.665.269-.324.134-.162.079-.089c-.032-.048-.005-.084.015-.08z" fill="#000"/><path d="M114.158 38.355c.29-4.58-1.813-9.187-6.477-13.146-3.955-2.955-8.278-4.939-12.89-6.498-5.726-2.181-12.11-3.404-17.604-3.921-5.059.062-10.225.582-14.595 2.765-5.087 1.22-8.184 3.847-9.822 7.264-.645.442-1.428 1.17-1 1.561-.138.515-1.031 1.617-.858 2.252-.985 4.389 1.73 9.629 6.788 13.827 11.233 10.015 31.264 13.555 44.6 8.478 6.515-2.722 10.898-5.984 11.745-10.753-.387.178.165-.323-.237-.854.088-.358.647-.67.349-.974zM101.53 49.817c-13.596 4.903-32.315.922-41.97-7.597-5.709-4.173-7.461-8.653-6.924-13.437.276-.364.422-1.148.597-1.635 1.666-3.453 5.318-6.933 10.674-8.478 12.819-5.213 31.461-1.827 41.776 7.52 4.446 3.565 7.018 7.781 6.732 11.78-.454.311-.251 1.346-.007 1.827-1.184 4.56-4.963 8.163-10.878 10.019z" fill="#fde0cf"/><g fill="#000"><path d="M114.159 38.356c.101-1.997-.26-3.975-1.002-5.817-.371-.92-.857-1.779-1.368-2.622-.534-.826-1.16-1.607-1.814-2.351l-1.032-1.064-.53-.514-.554-.497c-.09-.079-.176-.178-.289-.24l-.293-.22-.609-.424-1.243-.832a42.21 42.21 0 0 0-5.231-2.817c-1.806-.833-3.662-1.508-5.565-2.151l-2.821-.979-1.422-.429-1.429-.389-5.83-1.286-5.916-.824c-2.509.035-4.993.157-7.466.552a26.59 26.59 0 0 0-3.637.823 22.7 22.7 0 0 0-3.465 1.354l-.02-.004a18.29 18.29 0 0 0-2.999.983 15.23 15.23 0 0 0-2.763 1.505c-.864.609-1.643 1.317-2.312 2.108a12.01 12.01 0 0 0-1.701 2.636c-.004.02-.024.016-.028.036-.287.196-.557.416-.767.648-.107.126-.214.251-.264.408-.07.153-.052.281.057.364.016.024.029.068.025.088-.061.217-.179.403-.274.573l-.29.549c-.094.17-.172.363-.25.556-.054.177-.091.378-.061.55-.004.02.013.044-.007.04-.15.803-.219 1.622-.163 2.443l.073.616.048.3.206.911.181.594c.025.088.047.196.093.287l.338.873.249.566.136.275.137.275.293.553c.091.183.226.354.317.537l.341.52.365.504a21.88 21.88 0 0 0 3.341 3.673l1.909 1.621.984.764c.325.268.682.48 1.012.727a38.9 38.9 0 0 0 4.251 2.594c1.459.789 2.981 1.466 4.534 2.085s3.121 1.159 4.728 1.602l4.851 1.168c3.266.604 6.605.931 9.927.901a42.98 42.98 0 0 0 4.979-.305 38.99 38.99 0 0 0 4.903-.901c1.619-.407 3.197-.926 4.708-1.644 1.523-.674 3-1.44 4.4-2.345s2.7-1.953 3.772-3.23c.534-.628.979-1.336 1.367-2.074l.25-.556.213-.584.096-.294c.039-.097.058-.197.077-.298l.132-.599.053.051c-.044.013-.072.049-.152.034-.02-.004-.057-.031-.053-.051l.007-.04.011-.06c.015-.08.054-.177.049-.261a.79.79 0 0 0-.139-.483s-.017-.024.003-.02c.058-.197.193-.359.303-.505a1.5 1.5 0 0 0 .15-.242c-.038-.132-.044-.216-.113-.291zm.024-.016l.053.051c.016.024.033.048.029.068.013.044.022.108-.01.164-.019.1-.098.19-.153.263-.114.166-.245.308-.299.485l.004-.02c.118.147.169.322.152.527.005.084-.034.181-.049.261l-.011.06-.004.02c.02.004.064-.009.108-.022.024-.016.041.008.061.011l-.004.02-.136.619c-.019.1-.037.201-.076.298l-.097.294-.193.588-.253.576c-.368.742-.796 1.474-1.334 2.122-1.04 1.325-2.385 2.385-3.768 3.314-1.403.925-2.884 1.711-4.411 2.405-1.51.718-3.116 1.273-4.739 1.7a38.3 38.3 0 0 1-4.934.958 43.8 43.8 0 0 1-5.027.338c-3.366.042-6.705-.284-10.016-.876-3.303-.632-6.537-1.521-9.656-2.804-1.553-.62-3.091-1.32-4.57-2.113a43.62 43.62 0 0 1-4.284-2.642c-.329-.248-.682-.48-1.008-.748l-.98-.784-1.905-1.641a22.24 22.24 0 0 1-3.346-3.757l-.361-.524a9.66 9.66 0 0 1-.337-.54c-.111-.187-.226-.354-.317-.537l-.293-.553-.137-.275-.133-.295-.269-.569-.338-.873c-.045-.092-.067-.199-.089-.307l-.177-.615c-.047-.196-.09-.411-.133-.627l-.069-.304-.045-.32-.069-.636c-.052-.841.021-1.679.178-2.523l-.008.04c-.06-.24.002-.457.059-.654.078-.193.156-.387.254-.576a6.77 6.77 0 0 1 .31-.545c.094-.17.192-.359.246-.536l.025.088a.6.6 0 0 1-.157-.278c-.013-.044-.001-.104.01-.164.008-.04.019-.101.046-.137a1.35 1.35 0 0 1 .312-.441c.238-.268.528-.484.815-.68l-.028.036a12.64 12.64 0 0 1 1.745-2.649c.693-.807 1.491-1.511 2.356-2.12 1.749-1.214 3.749-1.987 5.806-2.5l-.02-.004A22.46 22.46 0 0 1 66 16.066c1.194-.361 2.433-.63 3.661-.84 2.476-.415 4.988-.573 7.477-.612l.02.004c3.983.342 7.93.989 11.805 2.017a58.13 58.13 0 0 1 5.713 1.805c1.883.639 3.752 1.359 5.577 2.195s3.589 1.786 5.265 2.865c.406.283.836.549 1.239.852.203.142.406.283.605.445l.313.224c.11.083.199.162.289.24l.554.497a10.6 10.6 0 0 0 .53.514c.375.339.698.732 1.029 1.084a26.01 26.01 0 0 1 1.807 2.391 16.06 16.06 0 0 1 1.356 2.682 13.34 13.34 0 0 1 .943 5.91zm-12.632 11.481c-3.49 1.266-7.178 1.914-10.867 2.125-3.71.207-7.418-.042-11.079-.657-1.839-.319-3.638-.735-5.416-1.272l-.674-.187-1.341-.414c-.214-.081-.429-.162-.667-.227l-.663-.247-.643-.244-.639-.264c-.214-.081-.425-.182-.635-.284a40.87 40.87 0 0 1-4.95-2.536c-1.59-.98-3.098-2.069-4.474-3.3l.02.004c-1.061-.799-2.087-1.674-3.013-2.635s-1.75-2.028-2.389-3.185c-.66-1.161-1.132-2.433-1.367-3.744-.256-1.315-.278-2.649-.115-3.97l.008-.04c.166-.219.259-.492.331-.77s.145-.555.242-.849c1.041-2.114 2.608-3.923 4.463-5.367s3.992-2.503 6.247-3.187l-.02-.004a34.52 34.52 0 0 1 7.064-1.977c2.412-.406 4.863-.576 7.317-.537 4.908.077 9.775.935 14.427 2.502 1.156.401 2.304.842 3.422 1.339a36.28 36.28 0 0 1 3.305 1.63c.527.305 1.078.594 1.577.936.527.305 1.023.667 1.543 1.013.995.704 1.983 1.447 2.895 2.26.444.415.94.776 1.384 1.191l.677.624.652.64a20.89 20.89 0 0 1 2.324 2.861c.686 1.02 1.253 2.123 1.615 3.312.366 1.169.552 2.409.469 3.64-.008.04-.015.08-.059.093-.096.065-.162.199-.189.339a1.71 1.71 0 0 0-.022.453 2.87 2.87 0 0 0 .23.894c.017.024.013.044.009.064a12.5 12.5 0 0 1-1.596 3.528c-.701 1.076-1.593 2.053-2.583 2.889s-2.082 1.547-3.216 2.148c-1.167.553-2.383 1.035-3.6 1.412zm-.017-.024a23.87 23.87 0 0 0 3.572-1.48c1.134-.601 2.226-1.313 3.196-2.152a13.84 13.84 0 0 0 2.522-2.9c.681-1.079 1.215-2.269 1.528-3.499l.009.064a3.09 3.09 0 0 1-.279-.966c-.01-.168-.021-.336.013-.517s.111-.374.279-.489l-.059.093c.055-1.195-.138-2.394-.508-3.543-.374-1.129-.944-2.211-1.613-3.208s-1.455-1.931-2.299-2.773l-.653-.64c-.212-.205-.448-.395-.68-.604-.448-.395-.94-.776-1.388-1.171-3.66-3.191-8.052-5.479-12.619-7.051a47.97 47.97 0 0 0-7.044-1.822c-2.383-.42-4.816-.683-7.25-.718-2.43-.055-4.854.079-7.262.465-2.404.366-4.756 1.011-7.025 1.88-2.248.644-4.377 1.663-6.228 3.087s-3.394 3.216-4.431 5.31c-.093.274-.165.551-.238.829l-.139.411a1.18 1.18 0 0 1-.22.396l.008-.04c-.139 1.304-.116 2.638.143 3.933s.715 2.543 1.379 3.684 1.49 2.187 2.4 3.124c.93.941 1.94 1.793 3.004 2.571 1.38 1.211 2.895 2.26 4.469 3.216s3.234 1.783 4.914 2.509a49.52 49.52 0 0 0 10.57 3.16c3.626.691 7.326.981 11.025.834l1.391-.075 1.378-.119 1.369-.183 1.377-.223a31.53 31.53 0 0 0 5.391-1.392z"/></g><path d="M144.382 89.408c1.236-1.426 1.572-3.156.749-3.864s-2.492-.127-3.729 1.299-1.572 3.156-.749 3.864 2.492.127 3.729-1.299z" fill="#877672"/><path d="M145.563 87.199c-.068.362-.192.692-.32 1.042-.144.326-.312.669-.513.965-.406.611-.946 1.155-1.613 1.489-.323.169-.683.31-1.049.367s-.759.047-1.107-.101c-.174-.074-.32-.184-.459-.334a1.38 1.38 0 0 1-.264-.485c-.122-.355-.135-.731-.088-1.097.094-.731.431-1.416.877-2.02.442-.583.982-1.127 1.636-1.505.328-.189.688-.33 1.057-.407s.803-.059 1.144.129c.17.094.333.228.451.374.115.167.21.33.237.522.085.327.078.7.011 1.062zm-.041-.007c.064-.341.071-.714-.075-1.053-.054-.156-.153-.298-.275-.425-.126-.106-.256-.193-.414-.243-.315-.1-.636-.055-.961.009-.329.085-.624.217-.928.389-1.173.697-2.118 1.852-2.49 3.176-.084.338-.107.687-.002 1.018.031.172.129.315.232.438.122.127.252.213.406.283.311.12.669.103 1.001-.002.329-.085.652-.253.936-.43.59-.369 1.094-.837 1.566-1.352.467-.495.873-1.106 1.004-1.809z" fill="#000"/></g><defs><linearGradient id="A" x1="81.659" y1="15.762" x2="68.95" y2="50.311" gradientUnits="userSpaceOnUse"><stop stop-color="#fff"/><stop offset=".203" stop-color="#fff" stop-opacity="0"/><stop offset=".406" stop-color="#fff"/><stop offset=".688" stop-color="#fff" stop-opacity="0"/><stop offset="1" stop-color="#fff"/></linearGradient><clipPath id="B"><path fill="#fff" d="M0 0h150v110H0z"/></clipPath></defs></svg>