<svg xmlns="http://www.w3.org/2000/svg" xmlns:xlink="http://www.w3.org/1999/xlink" width="150" height="110" fill="none" xmlns:v="https://vecta.io/nano"><style><![CDATA[.B{fill:#000}.C{fill:#3c2829}.D{fill:#f4ecd5}.E{fill:#daccbb}.F{fill:#a59379}.G{stroke:#000}.H{stroke-width:.146}.I{stroke-miterlimit:10}.J{stroke-width:.188}.K{stroke-linecap:round}.L{stroke-linejoin:round}.M{fill:#fffbef}]]></style><path d="M119.504 49.666c-.441 5.835-2.687 12.349-6.296 18.224-3.609 5.915-8.34 10.711-13.273 13.588l-44.671 25.697c-4.932 2.798-9.664 3.437-13.313 1.679-3.649-1.679-5.855-5.635-6.296-10.991-.401-5.076.842-11.11 3.529-16.985l25.343-14.547c4.932-2.878 9.664-7.673 13.273-13.588 3.609-5.875 5.855-12.389 6.296-18.224.361-4.596-.441-8.513-2.286-11.31.241-.12.481-.2.722-.28 5.173-1.838 9.905-1.719 13.634.4 3.689 2.118 6.215 6.115 7.218 11.43 4.812-1.798 9.183-1.239 12.11 1.519 3.048 2.758 4.451 7.514 4.01 13.388z" fill="#ffab84"/><path d="M119.544 49.666c-.441 5.635-2.326 11.03-4.932 16.026-1.324 2.478-2.847 4.876-4.612 7.074-1.724 2.238-3.689 4.276-5.854 6.115-1.083.919-2.246 1.758-3.449 2.518s-2.446 1.439-3.649 2.158l-7.258 4.236-7.298 4.196-7.338 4.196-14.676 8.312-3.689 2.079c-1.203.679-2.446 1.398-3.769 1.958s-2.647.999-4.05 1.239-2.847.32-4.25.08c-.722-.12-1.404-.32-2.085-.56-.642-.279-1.323-.559-1.885-.999-.602-.399-1.163-.839-1.644-1.399a6.45 6.45 0 0 1-.682-.799c-.201-.28-.441-.559-.602-.879-.762-1.199-1.323-2.518-1.684-3.877s-.561-2.757-.642-4.196c-.12-2.838.2-5.635.802-8.393.642-2.758 1.564-5.435 2.687-7.993l.04-.08.08-.04 17.203-10.031 8.581-5.036c2.767-1.718 5.253-3.917 7.459-6.354a47.1 47.1 0 0 0 9.704-16.945c.962-3.117 1.604-6.354 1.644-9.632 0-1.639-.12-3.237-.481-4.836-.361-1.559-.922-3.077-1.804-4.436l-.321-.52.561-.2c2.286-.919 4.692-1.479 7.178-1.559 1.243-.04 2.486.04 3.689.32s2.406.679 3.489 1.279 2.085 1.319 2.967 2.198 1.604 1.878 2.245 2.918c1.244 2.118 2.005 4.476 2.447 6.834l-.321-.2c2.165-.759 4.491-1.199 6.817-.919 1.162.16 2.285.48 3.288 1.039 1.042.52 1.925 1.279 2.726 2.118 1.564 1.718 2.487 3.877 3.008 6.115.481 2.278.561 4.596.361 6.874zm-.08-.04c.16-2.278.08-4.556-.441-6.754s-1.444-4.316-3.008-5.995c-1.524-1.639-3.689-2.718-5.894-2.917-2.246-.24-4.492.2-6.617.999l-.281.12-.04-.28c-.481-2.318-1.283-4.596-2.526-6.594-.642-.999-1.363-1.918-2.205-2.718s-1.805-1.479-2.847-1.998-2.125-.919-3.288-1.159a12.84 12.84 0 0 0-3.489-.24c-2.326.08-4.651.719-6.857 1.559l.241-.719c.922 1.439 1.564 3.077 1.925 4.756.401 1.678.521 3.357.521 5.036-.04 3.397-.682 6.714-1.684 9.912s-2.366 6.274-4.05 9.192c-1.684 2.877-3.649 5.635-5.895 8.113s-4.812 4.716-7.699 6.474c-1.444.879-2.887 1.638-4.331 2.478l-4.331 2.438-17.323 9.792.12-.12c-1.163 2.518-2.125 5.156-2.767 7.873s-1.003 5.515-.882 8.313c.08 1.399.241 2.758.602 4.116s.882 2.638 1.604 3.837c.16.32.401.559.602.839.241.28.441.56.682.8.481.519 1.002.919 1.604 1.318.561.4 1.203.68 1.845.92s1.323.399 2.005.519c1.363.2 2.767.12 4.13-.12 1.363-.28 2.687-.719 3.97-1.279s2.486-1.279 3.689-1.998l3.649-2.118 14.556-8.513 7.298-4.236 7.298-4.196 7.338-4.156c1.203-.719 2.446-1.399 3.649-2.078 1.203-.719 2.326-1.519 3.409-2.398 2.165-1.759 4.13-3.757 5.894-5.915s3.329-4.516 4.692-6.954 2.486-5.036 3.368-7.673c.923-2.718 1.524-5.475 1.765-8.273z" class="C"/><path d="M39.225 80.879c-2.687 5.915-3.93 11.95-3.529 16.985.441 5.316 2.687 9.271 6.296 10.99L7.306 94.028l-.722-.32C2.935 92.03.73 88.073.289 82.718c-.401-5.355.962-11.75 3.97-17.944 2.967-6.195 7.298-11.71 12.15-15.507l35.448 15.147c-4.852 3.797-9.223 9.312-12.15 15.507-.2.36-.361.639-.481.959z" fill="#ed7339"/><path d="M39.265 80.919c-1.043 2.358-1.925 4.756-2.526 7.234s-.962 5.036-.922 7.593c0 2.558.441 5.116 1.404 7.394.521 1.159 1.163 2.238 2.005 3.157s1.845 1.679 2.967 2.198l-.321.759-5.213-2.198-5.173-2.238-20.691-9.112-2.606-1.119-2.566-1.199c-1.644-.999-2.927-2.478-3.809-4.196-.441-.839-.802-1.719-1.043-2.638s-.441-1.838-.561-2.798c-.241-1.878-.281-3.797-.08-5.675.281-3.757 1.283-7.433 2.647-10.951 1.403-3.517 3.248-6.834 5.454-9.951 2.205-3.077 4.812-5.875 7.819-8.273l.241-.16.281.12 8.862 3.757 8.862 3.797 8.822 3.837 9.263 4.116-.401.28c-2.767 2.078-5.213 4.596-7.338 7.314-1.083 1.359-2.045 2.798-2.927 4.316a42.73 42.73 0 0 0-2.446 4.636zm-.08-.04c.722-1.599 1.524-3.157 2.366-4.636.882-1.519 1.845-2.957 2.887-4.356 2.085-2.798 4.451-5.395 7.178-7.633l.08.48-8.902-3.677-8.902-3.717-17.724-7.593.481-.08c-2.927 2.278-5.494 4.996-7.699 7.993s-4.09 6.235-5.534 9.672S.89 74.365.529 78.081c-.2 1.838-.241 3.717 0 5.555.12.919.281 1.838.561 2.718.241.879.601 1.758 1.002 2.598.842 1.639 2.085 3.117 3.649 4.076.802.48 1.684.799 2.526 1.159l2.606 1.079 10.426 4.316 10.426 4.356 5.213 2.198 5.173 2.238-.321.76c-1.203-.6-2.286-1.439-3.168-2.438s-1.524-2.198-2.005-3.397c-.962-2.438-1.283-5.076-1.203-7.674.04-2.598.521-5.156 1.163-7.633a44.79 44.79 0 0 1 2.606-7.114z" class="C"/><path d="M93.64 22.25c-3.248-.999-7.057-.759-11.067.68-.241.08-.481.16-.722.28-1.403.52-2.807 1.199-4.21 1.998-6.135 3.517-12.07 9.392-16.761 16.506-4.732 7.154-7.94 15.187-9.062 22.74L16.409 49.306c1.123-7.513 4.331-15.586 9.062-22.74 4.692-7.154 10.626-12.989 16.721-16.506 1.604-.919 3.288-1.719 4.892-2.278 5.173-1.838 9.904-1.679 13.634.4L93.64 22.25z" fill="#ed7339"/><path d="M93.68 22.25c-.16-.04-.361-.04-.521-.08l-.521-.12c-.321-.08-.682-.12-1.002-.16a17.39 17.39 0 0 0-2.005-.12c-1.363 0-2.687.2-4.01.48-1.323.32-2.606.719-3.85 1.239-1.243.48-2.446 1.079-3.649 1.758-2.326 1.359-4.491 2.957-6.536 4.716s-3.93 3.677-5.694 5.715c-1.724 2.038-3.368 4.236-4.812 6.474l-4.01 7.034c-2.326 4.836-4.17 9.991-5.013 15.307l-.04.36-.321-.12-8.822-3.877-8.862-3.797-17.924-7.593.04-.2c.802-5.635 2.606-11.07 5.133-16.186 1.243-2.558 2.687-5.036 4.25-7.394s3.328-4.636 5.213-6.754c3.81-4.236 8.261-7.993 13.473-10.471 2.606-1.239 5.373-2.158 8.301-2.398 1.444-.12 2.927-.08 4.371.2s2.847.799 4.13 1.519l.08.08-.16-.12 8.3 3.637 8.22 3.677 8.14 3.637 8.1 3.557zm-.12-.04l-8.381-3.517-16.481-6.754-8.22-3.437-.08-.08.08.08c-2.406-1.319-5.213-1.758-7.94-1.519-2.767.24-5.413 1.119-7.94 2.318-1.243.599-2.486 1.279-3.649 2.038s-2.326 1.559-3.408 2.438c-2.165 1.798-4.21 3.717-6.095 5.795-3.769 4.156-6.937 8.872-9.463 13.868-1.283 2.518-2.366 5.116-3.288 7.753-.481 1.319-.842 2.678-1.203 4.036a35.66 35.66 0 0 0-.842 4.117l-.16-.28 8.822 3.877 8.862 3.797 8.862 3.757 8.902 3.717-.361.2c.401-2.718 1.002-5.355 1.804-7.953.401-1.319.882-2.598 1.363-3.877.521-1.279 1.043-2.518 1.644-3.757 1.163-2.478 2.526-4.836 4.01-7.154 1.484-2.278 3.168-4.476 4.932-6.514 1.804-2.038 3.729-3.996 5.814-5.755s4.331-3.357 6.737-4.676c1.203-.639 2.446-1.239 3.729-1.718 1.283-.52 2.606-.879 3.93-1.159a17.7 17.7 0 0 1 4.09-.36c.682.04 1.363.08 2.045.2.321.08.682.12 1.002.2.16.04.361.08.481.12.12.08.241.16.401.2z" class="C"/><path d="M112.447 34.359c-2.567-.959-5.695-.839-9.063.4-.321-1.798-.842-3.397-1.524-4.876l10.587 4.476z" fill="#c05c2c"/><path d="M112.486 34.399c-.08 0-.16 0-.28-.04-.121 0-.241-.04-.361-.04-.201-.04-.361-.08-.562-.08l-1.122-.08c-.762-.04-1.484 0-2.246.04l-2.245.28c-.762.12-1.524.24-2.246.48l-.2.08-.041-.2a6.18 6.18 0 0 0-.24-1.239l-.361-1.199c-.281-.799-.682-1.559-1.083-2.278l-.481-.839.962.32 2.807 1.079 2.767 1.279 2.527 1.319 2.405 1.119zm-.08-.04c-1.002-.44-2.005-.799-2.967-1.119l-2.727-.919c-.882-.28-1.684-.599-2.486-.959l-2.446-1.159.481-.52c.321.799.521 1.679.722 2.478l.281 1.239c.12.4.2.839.28 1.239l-.24-.12c.722-.32 1.443-.639 2.205-.839.762-.24 1.524-.4 2.326-.4.802-.04 1.604 0 2.366.16.401.08.762.2 1.163.32l.561.24c.08.04.12.08.201.12.08.12.16.2.28.24z" class="C"/><path d="M102.422 36.518L77.6 25.887l7.9-3.397h7.017l4.371 1.878 3.97 4.436 1.564 4.916v2.798z" fill="#c05c2c"/><path d="M102.422 36.557l-6.095-2.358-6.296-2.558-6.296-2.878-6.576-2.877.361-.16 7.859-3.637h.08l7.178-.08.12.04 2.165.919 2.165.959.12.04.08.08 3.89 4.516.08.16 1.363 4.956v.08l-.2 2.798zm-.04-.08l-.161-2.758v.08l-.882-2.438-.842-2.438.08.16-4.05-4.356.16.12-2.205-.919-2.165-.959.201.04-3.529-.04c-1.163 0-2.326-.04-3.529-.04l.16-.04-4.01 1.559-4.01 1.599v-.32l6.175 2.598 6.135 2.438 6.135 2.758 6.336 2.958z" class="C"/><path d="M89.39 22.929c2.286 0 4.331.52 6.135 1.519 3.368 1.918 5.654 5.555 6.576 10.551l.281 1.519 1.443-.52c1.725-.639 3.369-.959 4.892-.959 2.366 0 4.331.759 5.895 2.198 2.727 2.478 3.97 6.874 3.569 12.309-.441 5.715-2.607 11.95-6.135 17.665-3.489 5.715-8.06 10.391-12.792 13.149l-44.671 25.698c-2.847 1.639-5.694 2.478-8.18 2.478-1.444 0-2.727-.28-3.93-.839-3.168-1.479-5.173-4.996-5.574-9.912-.401-5.156.962-11.31 3.849-17.265 2.887-6.035 7.098-11.35 11.789-15.027l.401-.32.08-.52c1.083-7.314 4.251-15.227 8.862-22.221 4.571-6.954 10.386-12.709 16.32-16.106 1.564-.919 3.168-1.639 4.692-2.198 2.326-.799 4.491-1.199 6.496-1.199zm0-1.319c-2.165 0-4.451.44-6.857 1.279-1.644.56-3.288 1.359-4.932 2.278-6.135 3.517-12.07 9.392-16.761 16.546-4.732 7.154-7.94 15.187-9.062 22.74-4.852 3.797-9.183 9.312-12.15 15.507s-4.371 12.589-3.97 17.945c.441 5.316 2.687 9.272 6.296 10.991 1.363.639 2.847.959 4.451.959 2.727 0 5.734-.919 8.822-2.678l44.671-25.698c4.932-2.837 9.623-7.673 13.272-13.588 3.609-5.875 5.855-12.389 6.296-18.224s-.962-10.631-3.97-13.388c-1.804-1.679-4.17-2.558-6.777-2.558-1.684 0-3.488.36-5.333 1.039-1.002-5.355-3.528-9.352-7.218-11.43-1.965-1.159-4.291-1.719-6.777-1.719z" fill="#fff"/><g class="C"><path d="M89.39 22.85c1.724-.04 3.489.24 5.133.919a11.48 11.48 0 0 1 4.21 3.077c1.163 1.319 2.045 2.878 2.646 4.516.321.839.562 1.679.762 2.518l.521 2.558-.401-.24 2.647-.959c.922-.28 1.845-.48 2.767-.559.962-.08 1.925-.08 2.847.08a8.22 8.22 0 0 1 2.727.959c1.684.959 3.007 2.478 3.849 4.196s1.283 3.597 1.444 5.475a26.06 26.06 0 0 1-.121 5.595c-.24 1.838-.601 3.677-1.122 5.475-1.043 3.597-2.607 6.994-4.491 10.191-1.925 3.197-4.211 6.155-6.898 8.752-1.323 1.319-2.766 2.518-4.29 3.597-.762.559-1.564 1.039-2.366 1.519l-2.406 1.359-9.664 5.475-9.624 5.555-21.573 12.589c-.802.48-1.604.959-2.446 1.359-1.684.839-3.449 1.519-5.333 1.798s-3.89.2-5.654-.599c-.882-.4-1.724-.919-2.446-1.599-.722-.639-1.323-1.438-1.805-2.278-.962-1.678-1.484-3.517-1.764-5.395-.241-1.878-.241-3.757-.08-5.635.361-3.757 1.403-7.354 2.807-10.831 1.444-3.437 3.288-6.714 5.534-9.712s4.852-5.755 7.819-7.993l-.2.32c.361-2.478.922-4.916 1.644-7.314s1.644-4.716 2.687-6.994 2.206-4.476 3.529-6.594 2.727-4.196 4.291-6.115a55 55 0 0 1 5.052-5.515c1.804-1.719 3.729-3.317 5.814-4.716 2.045-1.399 4.251-2.598 6.616-3.517 2.366-.759 4.852-1.319 7.338-1.319v.08c-2.486.04-4.932.679-7.178 1.599-2.286.919-4.411 2.198-6.456 3.637-4.01 2.838-7.499 6.434-10.546 10.311-1.524 1.958-2.887 3.997-4.17 6.115s-2.406 4.276-3.408 6.554c-2.005 4.476-3.448 9.232-4.17 14.068l-.04.2-.16.12c-5.814 4.476-10.145 10.631-13.032 17.345-1.404 3.357-2.446 6.914-2.807 10.511-.201 1.798-.201 3.637.04 5.435s.722 3.557 1.604 5.075c.882 1.559 2.165 2.838 3.81 3.517 1.604.72 3.448.84 5.213.6 1.764-.28 3.529-.879 5.173-1.679.802-.399 1.604-.879 2.406-1.318l2.406-1.359L77.36 92.709l9.624-5.555 11.99-6.994c.802-.48 1.564-.959 2.286-1.519 1.484-1.079 2.847-2.278 4.17-3.597 2.567-2.598 4.772-5.595 6.617-8.752 1.884-3.157 3.368-6.514 4.37-10.031s1.564-7.154 1.284-10.791c-.161-1.799-.562-3.597-1.364-5.196-.762-1.599-1.965-2.997-3.488-3.877s-3.369-1.159-5.173-1.039c-.882.08-1.805.24-2.647.48-.882.24-1.724.599-2.606.879l-.321.12-.08-.32c-.161-.839-.281-1.718-.481-2.518a28.91 28.91 0 0 0-.722-2.478c-.602-1.599-1.404-3.117-2.486-4.436s-2.446-2.398-4.01-3.077c-1.564-.719-3.288-1.039-5.012-1.079v-.08h.08z"/><path d="M89.389 21.65c-2.526 0-5.052.599-7.418 1.519s-4.571 2.158-6.657 3.597-4.01 3.077-5.814 4.836a56.35 56.35 0 0 0-5.053 5.635c-1.564 1.998-2.967 4.077-4.291 6.235s-2.486 4.396-3.529 6.674-1.925 4.636-2.687 7.034-1.323 4.836-1.724 7.314l-.04.16-.12.12c-2.967 2.318-5.574 5.116-7.819 8.153s-4.13 6.355-5.574 9.872-2.486 7.194-2.807 10.95c-.16 1.878-.16 3.797.16 5.675.281 1.878.842 3.717 1.804 5.315.922 1.639 2.326 2.998 4.01 3.837 1.684.879 3.609 1.159 5.494.999 1.885-.12 3.729-.679 5.453-1.439s3.328-1.798 5.012-2.757l19.769-11.55 19.809-11.51c6.777-3.477 12.11-9.152 15.96-15.627 1.924-3.237 3.448-6.714 4.491-10.351 1.002-3.597 1.604-7.394 1.283-11.11-.16-1.838-.601-3.717-1.363-5.395s-1.925-3.197-3.449-4.236c-1.524-1.079-3.368-1.599-5.253-1.679s-3.769.32-5.534.959l-.2.08-.04-.2c-.321-1.718-.762-3.397-1.484-4.996-.361-.799-.762-1.559-1.243-2.278s-1.003-1.399-1.644-2.038a12.26 12.26 0 0 0-4.331-2.878c-1.644-.599-3.408-.879-5.173-.919zm0-.08c1.764 0 3.529.28 5.173.919s3.168 1.639 4.411 2.878c.641.639 1.163 1.319 1.684 2.038.482.719.923 1.479 1.324 2.278.761 1.599 1.283 3.277 1.604 5.036l-.241-.12c1.804-.679 3.729-1.119 5.654-1.119 1.965 0 3.93.52 5.574 1.639 1.644 1.079 2.927 2.678 3.769 4.436.882 1.759 1.323 3.677 1.524 5.635.401 3.877-.12 7.753-1.163 11.47s-2.606 7.274-4.571 10.591-4.291 6.434-7.018 9.192c-1.363 1.359-2.807 2.638-4.411 3.797-.802.559-1.604 1.119-2.446 1.599l-2.486 1.439-19.889 11.35-22.375 12.669c-.842.48-1.684.919-2.606 1.279-1.764.759-3.649 1.279-5.614 1.399-1.925.12-3.93-.16-5.654-1.079-1.724-.88-3.168-2.318-4.13-3.997s-1.564-3.517-1.845-5.435c-.321-1.878-.321-3.837-.2-5.755.16-1.918.481-3.797.922-5.675s1.043-3.677 1.764-5.475a47.6 47.6 0 0 1 5.494-10.111c2.206-3.157 4.852-5.995 7.9-8.393l-.16.28c.401-2.518.962-5.036 1.724-7.473s1.724-4.796 2.807-7.114 2.286-4.556 3.649-6.714 2.847-4.236 4.451-6.195c3.208-3.957 6.937-7.514 11.188-10.311 1.083-.679 2.125-1.359 3.288-1.958 1.123-.599 2.286-1.119 3.489-1.559 2.366-.879 4.892-1.439 7.418-1.439z"/></g><path d="M76.064 45.035l19.034 10.954-11.135 6.452-8.012 4.614-19.034-10.954 8.013-4.614 11.135-6.452z" class="D"/><path d="M76.101 45.035l4.815 2.663 9.555 5.402 4.74 2.738.226.112-.226.113-4.815 2.813-2.407 1.35-2.407 1.388-9.555 5.552h-.075l-.038-.037-9.555-5.439-4.777-2.738-5.041-2.851.263-.188 9.63-5.477 4.815-2.701 4.853-2.701-4.777 2.851-4.777 2.813-4.74 2.776-4.815 2.776v-.338l4.777 2.738 14.219 8.328h-.113l4.815-2.738 4.777-2.776 2.407-1.388 2.37-1.425 4.777-2.813v.263l-9.48-5.439-4.74-2.776-4.702-2.851z" class="B"/><path d="M95.136 56.026V77.97L75.951 88.999V67.054l19.185-11.029z" class="E"/><g class="B"><path d="M95.136 56.026l.075 5.477.075 10.954v5.589l-.075.037-9.63 5.402-9.555 5.552-.15.075v-.15L75.8 78.008V66.942l.075-.037 4.815-2.738 4.778-2.738 4.815-2.701 4.853-2.701-4.777 2.851-4.777 2.813-9.555 5.552.075-.15v10.954l-.075 10.953-.15-.075 4.815-2.738 4.778-2.776 2.407-1.388 2.37-1.425 4.777-2.813-.075.112v-5.477l.075-10.954.113-5.439z"/><path d="M83.925 67.88l-.075-2.663v-2.813h.038l1.73-.975 1.693-1.013.075-.038v.075l.038 2.363v2.363l-.038.038-1.768 1.35-1.693 1.313zm0-.038l1.73-1.425 1.693-1.351-.038.075v-2.326l.038-2.363.075.038-2.596 1.463-.865.525.038-.038v2.701l-.075 2.701z"/></g><path d="M75.951 88.962L56.766 77.933V55.988l19.185 11.029v21.945z" class="F"/><path d="M75.951 88.999l-9.592-5.402-4.853-2.738-4.777-2.776-.075-.037v-.075l.038-5.477.038-2.738V61.54l-.038-5.627h.151l9.63 5.439 4.815 2.738 4.852 2.814v5.627l-.038 5.514-.151 10.953zm0-.037l-.113-11.029-.038-5.477v-5.439l.075.15-4.815-2.738-14.332-8.328.15-.075-.038 5.477v8.215l.038 2.738.038 5.477-.075-.112 4.777 2.738 14.332 8.403zm11.548-28.547L84 62.478h-.075l-4.777-2.701-4.777-2.776-4.74-2.776-4.777-2.738h-.038l.075-.038 3.498-2.063.038-.038.038.038 4.777 2.738 4.777 2.776 9.48 5.514zm-.038 0l-9.592-5.439-4.74-2.738-4.74-2.701h.075l-3.536 1.988v-.075l4.777 2.738 4.777 2.701 4.777 2.738 4.74 2.776h-.038l3.498-1.988z" class="B"/><g class="G"><path d="M79.788 85.323l-2.784 1.613v-2.888l2.784-1.613v2.889zm3.686-2.063l-2.784 1.613v-3.864l2.784-1.613v3.864zM94.12 60.902l-2.709 1.576v-3.076l2.709-1.575v3.076z" class="H I"/><path d="M76.778 84.235c.038.075 2.934-1.838 3.009-1.726.15.3-2.821 2.026-2.633 2.288.113.225 2.52-1.801 2.671-1.538s-2.708 2.063-2.596 2.288c.151.225 2.182-1.501 2.295-1.313s-2.445 1.688-2.37 1.801c.113.225 2.219-1.576 2.37-1.35.075.15-2.445 1.838-2.295 2.101s2.709-1.801 2.821-1.613m.903-4.277c.113.188 2.483-1.726 2.596-1.501.151.263-2.934 1.801-2.784 2.026.15.263 2.332-1.575 2.445-1.425.075.112-2.746 2.101-2.596 2.401.15.263 2.784-1.801 2.859-1.651.113.225-2.821 2.326-2.746 2.513.075.113 2.934-1.876 3.009-1.726.113.188-3.536 2.063-3.348 2.401.15.263 3.047-1.951 3.16-1.801.151.263-3.047 2.063-2.859 2.363.038.075 2.859-1.838 2.934-1.688s-2.897 1.538-2.784 1.763c.075.15 2.784-1.726 2.859-1.651.075.15-2.821 1.688-2.784 1.801.151.225 2.37-1.65 2.483-1.425m7.789-23.781c.15.225 2.859-1.988 3.009-1.726.15.3-3.198 2.363-3.047 2.626.038.112 2.52-1.801 2.671-1.538s-2.596 2.176-2.558 2.288c.038.075 2.483-1.763 2.633-1.538.075.15-2.633 2.026-2.596 2.176.113.225 2.407-1.726 2.558-1.463.075.113-2.332 1.2-2.219 1.388.075.113 2.069-1.538 2.219-1.275.188.3-2.897 2.026-2.821 2.176.038.075 2.709-1.913 2.859-1.651" class="J K L"/></g><path d="M68.455 49.537l-3.371 2.01 18.786 10.75 3.449-1.933-18.864-10.827z" class="M"/><path d="M65.601 72.742l9.615 5.533-5.625 3.259-4.048 2.331-9.615-5.533 4.048-2.331 5.625-3.259z" class="D"/><path d="M65.62 72.742l2.432 1.345 4.827 2.729 2.394 1.383.114.057-.114.057-2.432 1.421-1.216.682-1.216.701-4.827 2.804h-.038l-.019-.019-4.827-2.748-2.413-1.383-2.546-1.44.133-.095 4.865-2.767 2.432-1.364 2.451-1.364-2.413 1.44-2.413 1.421-2.394 1.402-2.432 1.402v-.171l2.413 1.383 7.183 4.207h-.057l2.432-1.383 2.413-1.402 1.216-.701 1.197-.72 2.413-1.421v.133l-4.789-2.748-2.394-1.402-2.375-1.44z" class="B"/><path d="M75.235 78.294V89.38l-9.691 5.571V83.866l9.691-5.571z" class="E"/><g class="B"><path d="M75.235 78.294l.038 2.767.038 5.533v2.823l-.038.019-4.865 2.729-4.827 2.805-.076.038v-.076l-.038-5.533v-5.59l.038-.019 2.432-1.383 2.413-1.383 2.432-1.364 2.451-1.364-2.413 1.44-2.413 1.421-4.827 2.805.038-.076v5.533l-.038 5.533-.076-.038 2.432-1.383 2.413-1.402 1.216-.701 1.197-.72 2.413-1.421-.038.057v-2.767l.038-5.533.057-2.748z"/><path d="M69.572 84.283l-.038-1.346v-1.421h.019l.874-.493.855-.512.038-.019v.038l.019 1.194v1.194l-.019.019-.893.682-.855.663zm0-.019l.874-.72.855-.682-.019.038v-1.175l.019-1.194.038.019-1.311.739-.437.265.019-.019v1.364l-.038 1.364z"/></g><path d="M65.544 94.932l-9.691-5.571V78.275l9.691 5.571v11.085z" class="F"/><path d="M65.544 94.951l-4.846-2.729-2.451-1.383-2.413-1.402-.038-.019v-.038l.019-2.767.019-1.383v-4.15l-.019-2.767v-.076h.076l4.865 2.748 2.432 1.383 2.413 1.402.038.019v2.842l-.019 2.786-.076 5.533zm0-.019l-.057-5.571-.019-2.767v-2.748l.038.076-2.432-1.383-7.24-4.207.076-.038-.019 2.767v4.15l.019 1.383.019 2.767-.038-.057 2.413 1.383 7.24 4.245zm5.834-14.42l-1.767 1.042h-.038L67.16 80.19l-2.413-1.402-2.394-1.402-2.413-1.383h-.019l.038-.019 1.767-1.042.019-.019.019.019 2.413 1.383 2.413 1.402 4.789 2.785zm-.019 0l-4.846-2.748-2.394-1.383-2.394-1.364h.038l-1.786 1.004v-.038l2.413 1.383 2.413 1.364 2.413 1.383 2.394 1.402h-.019l1.767-1.004z" class="B"/><g class="G"><path d="M67.482 93.095l-1.406.815v-1.46l1.406-.815v1.46zm1.862-1.043l-1.406.815v-1.952l1.406-.815v1.952zm5.378-11.294l-1.368.796V80l1.368-.796v1.554z" class="H I"/><g class="J K L"><path d="M65.961 92.545c.019.038 1.482-.929 1.52-.872.076.152-1.425 1.024-1.33 1.156.057.114 1.273-.91 1.349-.777s-1.368 1.043-1.311 1.156c.076.114 1.102-.758 1.159-.663s-1.235.853-1.197.91c.057.114 1.121-.796 1.197-.682.038.076-1.235.929-1.159 1.061s1.368-.91 1.425-.815m.457-2.161c.057.095 1.254-.872 1.311-.758.076.133-1.482.91-1.406 1.023.076.133 1.178-.796 1.235-.72.038.057-1.387 1.061-1.311 1.213.076.133 1.406-.91 1.444-.834.057.114-1.425 1.175-1.387 1.27.038.057 1.482-.948 1.52-.872.057.095-1.786 1.042-1.691 1.213.076.133 1.539-.985 1.596-.91.076.133-1.539 1.042-1.444 1.194.019.038 1.444-.928 1.482-.853s-1.463.777-1.406.891c.038.076 1.406-.872 1.444-.834.038.076-1.425.853-1.406.91.076.114 1.197-.834 1.254-.72"/><use xlink:href="#B"/></g></g><path d="M61.757 75.016l-1.703 1.015 9.49 5.43 1.742-.976-9.529-5.469z" class="M"/><path d="M51.565 77.938l9.615 5.533-5.625 3.259-4.047 2.331-9.615-5.533 4.048-2.331 5.625-3.259z" class="D"/><path d="M51.585 77.938l2.432 1.345 4.827 2.729 2.394 1.383.114.057-.114.057-2.432 1.421-1.216.682-1.216.701-4.827 2.805h-.038l-.019-.019-4.827-2.748-2.413-1.383-2.546-1.44.133-.095 4.865-2.767 2.432-1.364 2.451-1.364-2.413 1.44-2.413 1.421-2.394 1.402-2.432 1.402v-.171l2.413 1.383 7.183 4.207h-.057l2.432-1.383 2.413-1.402 1.216-.701 1.197-.72 2.413-1.421v.133l-4.789-2.748-2.394-1.402-2.375-1.44z" class="B"/><path d="M61.2 83.49v11.085l-9.691 5.572V89.061L61.2 83.49z" class="E"/><g class="B"><path d="M61.2 83.49l.038 2.767.038 5.533v2.823l-.038.019-4.865 2.729-4.827 2.805-.076.037v-.075l-.038-5.534v-5.59l.038-.019 2.432-1.383 2.413-1.383 2.432-1.364L61.2 83.49l-2.413 1.44-2.413 1.421-4.827 2.805.038-.076v5.533l-.038 5.534-.076-.038 2.432-1.384 2.413-1.402 1.216-.701 1.197-.72 2.413-1.421-.038.057v-2.767l.038-5.533.057-2.748z"/><path d="M55.537 89.478l-.038-1.345v-1.421h.019l.874-.493.855-.512.038-.019v.038l.019 1.194v1.194l-.019.019-.893.682-.855.663zm0-.019l.874-.72.855-.682-.019.038V86.92l.019-1.194.038.019-1.311.739-.437.265.019-.019v1.364l-.038 1.364z"/></g><path d="M51.509 100.128l-9.691-5.572V83.471l9.691 5.571v11.086z" class="F"/><path d="M51.509 100.147l-4.846-2.729-2.451-1.383-2.413-1.402-.038-.019v-.038l.019-2.767.019-1.383v-4.15l-.019-2.767v-.076h.076l4.865 2.748 2.432 1.383 2.413 1.402.038.019v2.842l-.019 2.786-.076 5.534zm0-.019l-.057-5.571-.019-2.767v-2.748l.038.076-2.432-1.383-7.24-4.207.076-.038-.019 2.767v4.15l.019 1.383.019 2.767-.038-.057 2.413 1.383 7.24 4.245zm5.833-14.42l-1.767 1.042h-.038l-2.413-1.364-2.413-1.402-2.394-1.402-2.413-1.383h-.019l.038-.019 1.767-1.042.019-.019.019.019 2.413 1.383 2.413 1.402 4.789 2.786zm-.019 0l-4.846-2.748-2.394-1.383-2.394-1.364h.038l-1.786 1.004v-.038l2.413 1.383 2.413 1.364 2.413 1.383 2.394 1.402h-.019l1.767-1.004z" class="B"/><g class="G"><path d="M53.447 98.29l-1.406.815v-1.459l1.406-.815v1.459zm1.862-1.043l-1.406.815V96.11l1.406-.815v1.952zm5.378-11.294l-1.368.796v-1.554l1.368-.796v1.554z" class="H I"/><g class="J K L"><path d="M51.926 97.74c.019.038 1.482-.929 1.52-.872.076.152-1.425 1.024-1.33 1.156.057.114 1.273-.91 1.349-.777s-1.368 1.043-1.311 1.156c.076.114 1.102-.758 1.159-.663s-1.235.853-1.197.91c.057.114 1.121-.796 1.197-.682.038.076-1.235.929-1.159 1.062s1.368-.91 1.425-.815m.457-2.161c.057.095 1.254-.872 1.311-.758.076.133-1.482.91-1.406 1.023.076.133 1.178-.796 1.235-.72.038.057-1.387 1.061-1.311 1.213.076.133 1.406-.909 1.444-.834.057.114-1.425 1.175-1.387 1.27.038.057 1.482-.948 1.52-.872.057.095-1.786 1.042-1.691 1.213.076.133 1.539-.985 1.596-.91.076.133-1.539 1.042-1.444 1.194.019.038 1.444-.928 1.482-.853s-1.463.777-1.406.891c.038.076 1.406-.872 1.444-.834.038.076-1.425.853-1.406.91.076.114 1.197-.834 1.254-.72"/><use xlink:href="#B" x="-14.035" y="5.195"/></g></g><path d="M47.722 80.213l-1.703 1.015 9.49 5.43 1.742-.976-9.529-5.469z" class="M"/><path d="M58.179 65.948l8.634 4.969-5.051 2.927-3.635 2.093-8.634-4.969 3.634-2.093 5.051-2.927z" class="D"/><path d="M58.195 65.948l2.184 1.208 4.334 2.45 2.15 1.242.102.051-.102.051-2.184 1.276-1.092.613-1.092.629-4.334 2.518h-.034l-.017-.017-4.334-2.467-2.167-1.242-2.287-1.293.119-.085 4.368-2.484 2.184-1.225 2.201-1.225-2.167 1.293-2.167 1.276-2.15 1.259-2.184 1.259v-.153l2.167 1.242 6.45 3.778h-.051l2.184-1.242 2.167-1.259 1.092-.63 1.075-.647 2.167-1.276v.119l-4.3-2.467-2.15-1.259-2.133-1.293z" class="B"/><path d="M66.829 70.934v9.954l-8.702 5.003v-9.954l8.702-5.003z" class="E"/><g class="B"><path d="M66.83 70.934l.034 2.484.034 4.969v2.535l-.034.017-4.368 2.45-4.334 2.518-.068.034v-.068l-.034-4.969v-5.02l.034-.017 2.184-1.242 2.167-1.242 2.184-1.225 2.201-1.225-2.167 1.293-2.167 1.276-4.334 2.518.034-.068v4.969l-.034 4.969-.068-.034 2.184-1.242 2.167-1.259 1.092-.63 1.075-.647 2.167-1.276-.034.051V78.37l.034-4.969.051-2.467z"/><path d="M61.745 76.311l-.034-1.208v-1.276h.017l.785-.442.768-.459.034-.017v.034l.017 1.072v1.072l-.017.017-.802.613-.768.596zm0-.017l.785-.647.768-.612-.017.034v-1.055l.017-1.072.034.017-1.177.664-.392.238.017-.017v1.225l-.034 1.225z"/></g><path d="M58.127 85.874l-8.702-5.003v-9.954l8.702 5.003v9.954z" class="F"/><g class="B"><path d="M58.127 85.891l-4.351-2.45-2.201-1.242-2.167-1.259-.034-.017v-.034l.017-2.484.017-1.242v-3.726l-.017-2.484v-.068h.068l4.368 2.467 2.184 1.242 2.167 1.259.034.017v2.552l-.017 2.501-.068 4.969zm0-.017l-.051-5.003-.017-2.484v-2.467l.034.068-2.184-1.242-6.501-3.778.068-.034-.017 2.484v3.726l.017 1.242.017 2.484-.034-.051 2.167 1.242 6.501 3.812z"/><use xlink:href="#C"/></g><g class="G"><path d="M59.868 84.224l-1.263.732v-1.311l1.263-.732v1.311zm1.672-.937l-1.263.732v-1.753l1.263-.732v1.753zm4.829-10.141l-1.229.715v-1.396l1.229-.715v1.396z" class="H I"/><g class="J K L"><path d="M58.502 83.73c.017.034 1.331-.834 1.365-.783.068.136-1.28.919-1.194 1.038.051.102 1.143-.817 1.212-.698s-1.229.936-1.177 1.038c.068.102.99-.681 1.041-.596s-1.109.766-1.075.817c.051.102 1.007-.715 1.075-.613.034.068-1.109.834-1.041.953s1.229-.817 1.28-.732"/><use xlink:href="#D"/><path d="M65.038 72.517c.068.102 1.297-.902 1.365-.783.068.136-1.45 1.072-1.382 1.191.017.051 1.143-.817 1.212-.698s-1.177.987-1.16 1.038c.017.034 1.126-.8 1.194-.698.034.068-1.194.919-1.177.987.051.102 1.092-.783 1.16-.664.034.051-1.058.545-1.007.63.034.051.938-.698 1.007-.579.085.136-1.314.919-1.28.987.017.034 1.229-.868 1.297-.749"/></g></g><path d="M54.727 67.991l-1.529.912 8.521 4.876 1.564-.877-8.557-4.911z" class="M"/><path d="M75.822 37.173l8.634 4.969-5.051 2.927-3.635 2.093-8.634-4.969 3.635-2.093 5.051-2.927z" class="D"/><path d="M75.839 37.173l2.184 1.208 4.334 2.45 2.15 1.242.102.051-.102.051-2.184 1.276-1.092.613-1.092.63-4.334 2.518h-.034l-.017-.017-4.334-2.467-2.167-1.242-2.287-1.293.12-.085 4.368-2.484 2.184-1.225 2.201-1.225-2.167 1.293-2.167 1.276-2.15 1.259-2.184 1.259v-.153l2.167 1.242 6.45 3.778h-.051l2.184-1.242 2.167-1.259 1.092-.63 1.075-.647 2.167-1.276v.119l-4.3-2.467-2.15-1.259-2.133-1.293z" class="B"/><path d="M84.473 42.159v9.954l-8.702 5.003v-9.954l8.702-5.003z" class="E"/><g class="B"><path d="M84.473 42.159l.034 2.484.034 4.969v2.535l-.034.017-4.368 2.45-4.334 2.518-.068.034v-.068l-.034-4.969v-5.02l.034-.017 2.184-1.242 2.167-1.242 2.184-1.225 2.201-1.225-2.167 1.293-2.167 1.276-4.334 2.518.034-.068v4.969l-.034 4.969-.068-.034 2.184-1.242 2.167-1.259 1.092-.63 1.075-.647 2.167-1.276-.034.051v-2.484l.034-4.969.051-2.467z"/><path d="M79.388 47.536l-.034-1.208v-1.276h.017l.785-.442.768-.459.034-.017v.034l.017 1.072v1.072l-.017.017-.802.613-.768.596zm0-.017l.785-.647.768-.613-.017.034v-1.055l.017-1.072.034.017-1.177.664-.393.238.017-.017v1.225l-.034 1.225z"/></g><path d="M75.77 57.099l-8.702-5.003v-9.954l8.702 5.003v9.954z" class="F"/><g class="B"><path d="M75.771 57.116l-4.351-2.45-2.201-1.242-2.167-1.259-.034-.017v-.034l.017-2.484.017-1.242V44.66l-.017-2.484v-.068h.068l4.368 2.467 2.184 1.242 2.167 1.259.034.017v2.552l-.017 2.501-.068 4.969zm0-.017l-.051-5.003-.017-2.484v-2.467l.034.068-2.184-1.242-6.501-3.778.068-.034-.017 2.484v3.727l.017 1.242.017 2.484-.034-.051 2.167 1.242 6.501 3.812z"/><use xlink:href="#C" x="17.643" y="-28.775"/></g><g class="G"><path d="M77.511 55.449l-1.263.732V54.87l1.263-.732v1.311zm1.673-.937l-1.263.732v-1.753l1.263-.732v1.753zm4.828-10.141l-1.229.715V43.69l1.229-.715v1.396z" class="H I"/><g class="J K L"><path d="M76.146 54.955c.017.034 1.331-.834 1.365-.783.068.136-1.28.919-1.195 1.038.051.102 1.143-.817 1.212-.698s-1.228.936-1.177 1.038c.068.102.99-.681 1.041-.596s-1.109.766-1.075.817c.051.102 1.007-.715 1.075-.613.034.068-1.109.834-1.041.953s1.228-.817 1.28-.732"/><use xlink:href="#D" x="17.644" y="-28.775"/><path d="M82.681 43.741c.068.102 1.297-.902 1.365-.783.068.136-1.45 1.072-1.382 1.192.017.051 1.143-.817 1.212-.698s-1.177.987-1.16 1.038c.017.034 1.126-.8 1.195-.698.034.068-1.195.919-1.177.987.051.102 1.092-.783 1.16-.664.034.051-1.058.545-1.007.63.034.051.938-.698 1.007-.579.085.136-1.314.919-1.28.987.017.034 1.229-.868 1.297-.749"/></g></g><path d="M72.37 39.216l-1.529.912 8.521 4.876 1.564-.877-8.557-4.911z" class="M"/><defs ><path id="B" d="M73.24 80.057c.076.114 1.444-1.004 1.52-.872.076.152-1.615 1.194-1.539 1.326.019.057 1.273-.91 1.349-.777s-1.311 1.099-1.292 1.156c.019.038 1.254-.891 1.33-.777.038.076-1.33 1.023-1.311 1.099.057.114 1.216-.872 1.292-.739.038.057-1.178.606-1.121.701.038.057 1.045-.777 1.121-.644.095.152-1.463 1.023-1.425 1.099.019.038 1.368-.966 1.444-.834"/><path id="C" d="M63.366 72.925l-1.587.936h-.034l-2.167-1.225-2.167-1.259-2.15-1.259-2.167-1.242h-.017l.034-.017 1.587-.936.017-.017.017.017 2.167 1.242 2.167 1.259 4.3 2.501zm-.017 0l-4.351-2.467-2.15-1.242-2.15-1.225h.034l-1.604.902v-.034l2.167 1.242 2.167 1.225 2.167 1.242 2.15 1.259h-.017l1.587-.902z"/><path id="D" d="M60.396 82.215c.051.085 1.126-.783 1.177-.681.068.119-1.331.817-1.263.919.068.119 1.058-.715 1.109-.647.034.051-1.246.953-1.177 1.089.068.119 1.263-.817 1.297-.749.051.102-1.28 1.055-1.246 1.14.034.051 1.331-.851 1.365-.783.051.085-1.604.936-1.519 1.089.068.119 1.382-.885 1.433-.817.068.119-1.382.936-1.297 1.072.017.034 1.297-.834 1.331-.766s-1.314.698-1.263.8c.034.068 1.263-.783 1.297-.749.034.068-1.28.766-1.263.817.068.102 1.075-.749 1.126-.647"/></defs></svg>