<svg xmlns="http://www.w3.org/2000/svg" width="150" height="110" fill="none"  xmlns:v="https://vecta.io/nano"><g clip-path="url(#A)"><path d="M70.933 32.511L29.419 52.78 94.24 95.653l54.201-26.442-51.293-33.907c-7.46-4.963-19.219-6.214-26.215-2.794z" fill="#d5edf4"/><g fill="#000"><path d="M70.975 32.594l-10.368 5.13-10.326 5.213-10.284 5.213-5.142 2.627-5.184 2.586.084-1.126 16.226 10.718 24.109 16.35 8.05 5.422 8.092 5.338 8.134 5.338h-.295l40.461-20.227 13.529-6.673-.084 1.335-18.545-12.22-9.23-6.172-9.188-6.214-9.146-6.256-4.551-3.128c-1.517-1.043-3.119-1.918-4.805-2.669-1.686-.709-3.456-1.251-5.226-1.71a30.44 30.44 0 0 0-5.479-.751c-1.854-.125-3.709 0-5.521.25-1.812.334-3.625.792-5.311 1.627zm-.042-.167c1.686-.834 3.498-1.335 5.311-1.626 1.854-.292 3.709-.417 5.563-.334s3.709.292 5.563.625c1.812.375 3.625.876 5.395 1.543 1.728.667 3.414 1.543 5.015 2.544l4.678 2.961 9.357 5.964 9.314 6.047 9.273 6.089 19.64 13.012-1.222.584-13.614 6.631-13.613 6.506-27.395 13.012-.126-.083-12.138-8.133-4.046-2.669-8.134-5.297L45.265 64.04 29.081 53.322l-.927-.626 1.011-.5 5.226-2.461 5.184-2.461 10.452-4.88 10.452-4.921 10.452-5.046zm.421 23.773l-15.847 7.757-1.939-1.293 15.847-7.757 1.939 1.293zm-2.234 3.294l-11.717 5.714-.759-.501 11.717-5.714.759.501zm3.751.042l-13.824 6.756-.759-.501 13.782-6.756.801.501zm-3.793 3.754l-8.387 4.087-.759-.501 8.387-4.129.759.542z"/></g><path d="M93.751 48.166L87 56.91c6.235 1.769 13.501 1.365 18.499-1.061 6.957-3.386 7.369-9.603.928-13.848l-12.677 6.166z" fill="#387487"/><path d="M93.749 47L101 39.191c-1.838-.561-3.881-.888-5.923-1.075s-4.136-.14-6.077.093L93.749 47z" fill="#ffe455"/><path d="M92 47.592L81.309 40c-.048.049-.144.049-.192.099-6.472 3.254-6.856 9.366-.863 13.458.24.148.431.296.671.444L92 47.592z" fill="#ed7339"/><path d="M92 41.592L81.309 34c-.048.049-.144.049-.192.099-6.472 3.254-6.856 9.366-.863 13.458.24.148.431.296.671.444L92 41.592z" fill="#ffa87e"/><path d="M114.976 60.454l-15.847 7.716-1.939-1.293 15.847-7.715 1.939 1.293z" fill="#000"/><g stroke="#000" stroke-width=".2"><path d="M111.974 63.322l.573.41-11.514 5.574-.565-.373 11.506-5.611zm3.711.082l.564.372-13.573 6.613-.564-.372 13.573-6.613zm-3.751 3.712l.565.373-8.178 4.026-.609-.412 8.222-3.987z"/></g><g fill="#000"><path d="M82.818 80.014l5.1 3.378-1.728.834-5.1-3.378 1.728-.834zm5.606-8.425l10.073 6.631-1.728.876-10.073-6.673 1.728-.834zm-6.955 4.504l9.062 6.006-1.728.876-9.061-6.006 1.728-.876zm4.047-.292l7.629 5.046-1.728.834-7.629-5.046 1.728-.834z"/></g><path d="M93.749 41L101 32.323c-1.838-.623-3.881-.987-5.923-1.195a26.32 26.32 0 0 0-6.077.104L93.749 41z" fill="#fff7cb"/><g fill="#000"><path d="M83.872 71.547l12.012 7.966-1.728.834-12.012-7.966 1.728-.834zm2.95-4.003l14.246 9.426-1.728.834-14.246-9.425 1.728-.834z"/></g><path d="M93.751 41.166L87 49.91c6.235 1.769 13.501 1.365 18.499-1.061 6.957-3.386 7.369-9.603.928-13.848l-12.677 6.166z" fill="#71bdd5"/><path d="M41.43 48.15L1.307 71.089l67.519 38.577 52.346-29.903L67.73 49.235c-7.755-4.421-19.556-4.921-26.299-1.084z" fill="#d5edf4"/><g fill="#000"><path d="M41.472 48.234l-9.989 5.797L11.59 65.792l-4.973 2.961-4.973 2.919v-1.126l16.901 9.634 25.162 14.764 8.429 4.88 4.215 2.419 4.215 2.377 8.471 4.796h-.337l26.004-15.222 26.088-15.097v1.376l-19.303-11.01-9.609-5.547-9.609-5.589-14.33-8.508c-1.559-.918-3.203-1.71-4.973-2.336-1.728-.584-3.54-1.043-5.353-1.334s-3.667-.417-5.521-.417a23.99 23.99 0 0 0-5.479.626c-1.77.375-3.54.959-5.142 1.877zm-.084-.125c1.602-.917 3.414-1.543 5.226-1.96s3.667-.667 5.521-.709 3.709.042 5.563.292 3.667.667 5.479 1.21c1.77.542 3.498 1.335 5.142 2.21l4.889 2.669 9.736 5.338 9.694 5.422 9.652 5.464 20.441 11.719-1.18.667-13.108 7.424-13.149 7.382L68.783 110l-.127-.083-16.859-9.676-8.471-4.755-8.514-4.713-16.985-9.467L.969 71.673 0 71.089l.969-.542 10.115-5.589L21.2 59.411l10.115-5.589 10.073-5.714z"/><path d="M41.43 40.393l-10.031 5.714-9.989 5.797-20.02 11.553v-.334l8.429 4.796 42.147 24.189 16.901 9.634h-.126l26.131-15.014 26.131-14.972v.417L92.048 55.657 72.83 44.564c-3.245-1.793-6.322-3.92-9.82-5.088-1.77-.584-3.54-1.001-5.395-1.293-1.812-.292-3.667-.375-5.521-.375-1.854.042-3.709.25-5.521.667-1.77.375-3.54 1.001-5.142 1.918zm0-.042c1.602-.917 3.372-1.543 5.184-1.96s3.667-.626 5.521-.667 3.709.083 5.563.334c1.855.292 3.667.667 5.437 1.251s3.456 1.335 5.1 2.252l14.498 8.216 9.609 5.422 9.652 5.547 19.261 11.01.337.209-.337.209-26.173 14.931-26.257 14.931-.042-.042-16.859-9.675-33.802-19.185-8.471-4.796-8.724-5.005 20.399-11.553 10.073-5.672 10.031-5.755z"/><path d="M43.411 71.798l-15.299 8.758-2.023-1.168 15.299-8.758 2.023 1.168z"/></g><g stroke="#000" stroke-width=".2"><path d="M40.587 74.874l.599.343-11.094 6.349-.6-.343 11.094-6.349zm3.711-.168l.636.346-13.155 7.473-.599-.343 13.118-7.476zm-3.502 3.923l.608.38-7.897 4.518-.6-.344 7.889-4.554z"/></g><path d="M60.022 65.023L54 74.352c6.224 1.384 13.309.513 18.066-2.255 6.579-3.845 6.579-10.201 0-14.097l-12.044 7.023z" fill="#ffe455"/><path d="M59.339 64L66 55.715c-1.881-.424-3.915-.659-5.949-.706s-4.119.094-6.051.471L59.339 64z" fill="#ed7339"/><path d="M59.339 58L66 49.715c-1.881-.424-3.915-.659-5.949-.706s-4.119.094-6.051.471L59.339 58z" fill="#ffa87e"/><path d="M58 64.852L46.158 58a.39.39 0 0 1-.203.099c-6.607 3.697-6.607 9.81 0 13.507.254.148.508.246.762.394L58 64.852z" fill="#387487"/><path d="M87.202 73.174l-15.299 8.758-2.023-1.168 15.299-8.716 2.023 1.126z" fill="#000"/><g stroke="#000" stroke-width=".2"><path d="M84.378 76.25l.6.343-11.094 6.349-.6-.343 11.094-6.349zm3.751-.167l.599.344-13.159 7.517-.6-.343 13.159-7.517zm-3.54 3.962l.6.344-7.891 4.514-.599-.343 7.891-4.514z"/></g><path d="M56.434 94.819l5.311 3.003-1.686.959-5.31-3.003 1.686-.959z" fill="#ffe455"/><g fill="#387487"><path d="M61.45 86.019l10.495 6.006-1.686.959-10.495-6.006 1.686-.959zm-6.659 4.963l9.441 5.422-1.644.959-9.483-5.422 1.686-.959z"/></g><path d="M58.837 90.398l7.924 4.546-1.644.959-7.966-4.546 1.686-.959z" fill="#ed7339"/><path d="M56.898 86.311l12.518 7.132-1.644.959-12.518-7.132 1.644-.959z" fill="#ffe455"/><path d="M59.596 82.099l14.836 8.466-1.686.959-14.836-8.466 1.686-.959z" fill="#ed7339"/><path d="M60.022 59.023L54 68.352c6.224 1.384 13.309.513 18.066-2.255 6.579-3.845 6.579-10.201 0-14.097l-12.044 7.023z" fill="#fff7cb"/><path d="M58 57.852L46.158 51a.39.39 0 0 1-.203.099c-6.607 3.697-6.607 9.81 0 13.507.254.148.508.246.762.394L58 57.852z" fill="#71bdd5"/><path d="M106.673 80.222l10.411-5.171 20.82-10.26 10.452-5.088-.042.334-28.07-18.684-22.927-15.056-1.77-1.084c-1.222-.667-2.487-1.251-3.793-1.71-2.613-.959-5.395-1.585-8.177-1.835s-5.605-.167-8.345.375l-2.023.542-.969.334-.969.417-3.793 1.835-7.586 3.712-30.43 14.597v-.083l3.077 2.044-.084.042-3.077-2.002-.084-.042.084-.042 15.131-7.507 15.131-7.465 7.586-3.712 3.793-1.835.969-.417c.337-.167.674-.25 1.011-.334.674-.25 1.391-.375 2.065-.542 2.782-.584 5.69-.626 8.514-.375 2.866.209 5.648.876 8.303 1.877 1.349.459 2.613 1.084 3.877 1.793l1.812 1.126 1.77 1.168 6.996 4.671 14.035 9.342 28.491 18.726-.337.167-10.452 5.088-20.905 10.093-10.495 5.005v-.042z" fill="#000"/></g><defs><clipPath id="A"><path fill="#fff" d="M0 0h150v110H0z"/></clipPath></defs></svg>