<svg width="150" height="110" viewBox="0 0 150 110" fill="none" xmlns="http://www.w3.org/2000/svg">
<path d="M119.504 49.6662C119.063 55.5011 116.817 62.0155 113.208 67.8904C109.599 73.8053 104.868 78.6011 99.9354 81.4786L55.2648 107.176C50.3326 109.974 45.6009 110.613 41.9518 108.855C38.3028 107.176 36.0973 103.22 35.6562 97.8644C35.2552 92.7888 36.4983 86.7541 39.185 80.8792L64.5277 66.3318C69.46 63.4542 74.1917 58.6584 77.8006 52.7435C81.4095 46.8686 83.6551 40.3542 84.0962 34.5193C84.4571 29.9233 83.6551 26.0067 81.8105 23.2091C82.0511 23.0892 82.2917 23.0093 82.5323 22.9293C87.7051 21.0909 92.4369 21.2108 96.1661 23.329C99.8552 25.4471 102.381 29.4437 103.384 34.7591C108.196 32.9606 112.567 33.5202 115.494 36.2778C118.542 39.0354 119.945 43.7913 119.504 49.6662Z" fill="#FFAB84"/>
<path d="M119.544 49.666C119.103 55.3011 117.218 60.6964 114.612 65.6921C113.288 68.1699 111.765 70.5679 110 72.766C108.276 75.004 106.311 77.0423 104.146 78.8807C103.063 79.7999 101.9 80.6392 100.697 81.3985C99.4942 82.1578 98.2511 82.8373 97.0481 83.5566L89.7902 87.793C87.3441 89.2317 84.9382 90.6305 82.4921 91.9893L75.1539 96.1857L60.4776 104.498L56.7885 106.577C55.5855 107.256 54.3424 107.975 53.0191 108.535C51.6958 109.095 50.3726 109.534 48.9691 109.774C47.5656 110.014 46.122 110.094 44.7186 109.854C43.9968 109.734 43.3151 109.534 42.6334 109.294C41.9918 109.015 41.3101 108.735 40.7487 108.295C40.1472 107.896 39.5859 107.456 39.1047 106.896C38.8641 106.657 38.6235 106.377 38.423 106.097C38.2225 105.817 37.9819 105.538 37.8215 105.218C37.0596 104.019 36.4982 102.7 36.1373 101.341C35.7764 99.9824 35.5759 98.5836 35.4957 97.1449C35.3754 94.3073 35.6962 91.5097 36.2977 88.7521C36.9393 85.9945 37.8616 83.3168 38.9844 80.7591L39.0245 80.6791L39.1047 80.6392L56.3073 70.6078L64.8885 65.5722C67.6554 63.8537 70.1415 61.6556 72.347 59.2177C76.7178 54.3419 80.046 48.507 82.051 42.2724C83.0134 39.1551 83.655 35.9179 83.6951 32.6407C83.6951 31.0021 83.5748 29.4035 83.2139 27.8049C82.853 26.2462 82.2916 24.7276 81.4094 23.3687L81.0886 22.8492L81.65 22.6494C83.9357 21.7302 86.3416 21.1706 88.8278 21.0907C90.0709 21.0507 91.3139 21.1307 92.5169 21.4104C93.7199 21.6902 94.9229 22.0898 96.0056 22.6893C97.0882 23.2888 98.0907 24.0082 98.9729 24.8874C99.8551 25.7667 100.577 26.7658 101.218 27.8049C102.462 29.9231 103.223 32.281 103.665 34.639L103.344 34.4391C105.509 33.6798 107.835 33.2402 110.161 33.5199C111.323 33.6798 112.446 33.9995 113.449 34.559C114.491 35.0786 115.374 35.8379 116.175 36.6772C117.739 38.3957 118.662 40.5539 119.183 42.7919C119.664 45.0699 119.744 47.3879 119.544 49.666ZM119.464 49.626C119.624 47.348 119.544 45.0699 119.023 42.8718C118.501 40.6738 117.579 38.5556 116.015 36.877C114.491 35.2385 112.326 34.1594 110.121 33.9596C107.875 33.7198 105.629 34.1594 103.504 34.9587L103.223 35.0786L103.183 34.7988C102.702 32.4808 101.9 30.2028 100.657 28.2045C100.015 27.2054 99.2937 26.2862 98.4516 25.4869C97.6095 24.6876 96.6471 24.0082 95.6046 23.4886C94.562 22.9691 93.4793 22.5694 92.3164 22.3296C91.1535 22.0898 89.9907 22.0099 88.8278 22.0898C86.502 22.1698 84.1763 22.8092 81.9708 23.6485L82.2114 22.9291C83.1337 24.3679 83.7753 26.0064 84.1362 27.685C84.5372 29.3635 84.6575 31.0421 84.6575 32.7206C84.6174 36.1177 83.9758 39.4348 82.9733 42.6321C81.9708 45.8293 80.6074 48.9066 78.9233 51.8241C77.2391 54.7016 75.2742 57.4592 73.0287 59.9371C70.7831 62.4149 68.2167 64.653 65.3296 66.4115C63.886 67.2907 62.4424 68.05 60.9989 68.8893L56.6682 71.3272L39.3453 81.1187L39.4656 80.9988C38.3027 83.5167 37.3403 86.1544 36.6987 88.872C36.0571 91.5897 35.6962 94.3873 35.8165 97.1848C35.8967 98.5836 36.0571 99.9424 36.418 101.301C36.7789 102.66 37.3002 103.939 38.022 105.138C38.1824 105.458 38.423 105.697 38.6235 105.977C38.8641 106.257 39.0646 106.537 39.3052 106.777C39.7864 107.296 40.3076 107.696 40.9091 108.095C41.4705 108.495 42.1121 108.775 42.7537 109.015C43.3953 109.254 44.077 109.414 44.7587 109.534C46.122 109.734 47.5255 109.654 48.8889 109.414C50.2523 109.134 51.5755 108.695 52.8587 108.135C54.1419 107.576 55.3449 106.856 56.5479 106.137L60.1969 104.019L74.7529 95.5063L82.051 91.27C84.4971 89.8712 86.903 88.4324 89.3491 87.0736L96.6872 82.9172C97.8902 82.1978 99.1333 81.5184 100.336 80.839C101.539 80.1196 102.662 79.3203 103.745 78.4411C105.91 76.6826 107.875 74.6843 109.639 72.5262C111.404 70.368 112.968 68.0101 114.331 65.5722C115.694 63.1343 116.817 60.5366 117.699 57.8988C118.622 55.1812 119.223 52.4236 119.464 49.626Z" fill="#3C2829"/>
<path d="M39.2252 80.8792C36.5385 86.7941 35.2954 92.8289 35.6964 97.8645C36.1375 103.18 38.3831 107.136 41.992 108.855L7.30612 94.0279L6.58433 93.7081C2.9353 92.0296 0.729836 88.073 0.288743 82.7176C-0.112249 77.3623 1.25113 70.9678 4.25857 64.7732C7.22592 58.5785 11.5566 53.0633 16.4087 49.2666L51.8564 64.4135C47.0044 68.2102 42.6336 73.7254 39.7063 79.9201C39.5059 80.2798 39.3455 80.5595 39.2252 80.8792Z" fill="#ED7339"/>
<path d="M39.2653 80.919C38.2227 83.2769 37.3405 85.6749 36.739 88.1527C36.1375 90.6306 35.7766 93.1883 35.8167 95.7461C35.8167 98.3039 36.2578 100.862 37.2202 103.14C37.7415 104.299 38.3831 105.378 39.2252 106.297C40.0673 107.216 41.0698 107.976 42.1925 108.495L41.8717 109.254L36.6588 107.056L31.486 104.818C28.0375 103.34 24.5889 101.781 21.1404 100.262C17.6919 98.7435 14.2433 97.1849 10.7948 95.7062L8.18833 94.5871C7.34625 94.1875 6.42396 93.8678 5.62198 93.3882C3.97791 92.389 2.69473 90.9103 1.81254 89.1918C1.37145 88.3525 1.01056 87.4733 0.769962 86.5541C0.529366 85.6349 0.32887 84.7157 0.208572 83.7565C-0.0320237 81.8781 -0.072123 79.9598 0.128373 78.0814C0.409069 74.3247 1.41155 70.6479 2.77493 67.1309C4.1784 63.614 6.02297 60.2968 8.22843 57.1795C10.4339 54.1022 13.0403 51.3046 16.0478 48.9067L16.2884 48.7468L16.5691 48.8667C19.5364 50.1057 22.5038 51.3446 25.431 52.6235L34.293 56.4202C37.2603 57.6591 40.1876 58.978 43.1148 60.2569C46.0421 61.5358 49.0094 62.8546 51.9367 64.1735L52.3778 64.3733L51.9768 64.6531C49.2099 66.7313 46.7639 69.2491 44.6386 71.9667C43.5559 73.3255 42.5935 74.7643 41.7113 76.283C40.7891 77.8017 39.9871 79.3204 39.2653 80.919ZM39.1851 80.879C39.9069 79.2804 40.7089 77.7217 41.5509 76.243C42.4331 74.7243 43.3955 73.2856 44.4381 71.8868C46.5233 69.0892 48.8891 66.4915 51.6159 64.2534L51.6961 64.733C48.7287 63.534 45.7614 62.2951 42.794 61.0562C39.8267 59.8172 36.8593 58.5783 33.892 57.3394L25.03 53.5427C22.0627 52.3037 19.1354 51.0249 16.1681 49.746L16.6493 49.666C13.722 51.9441 11.1557 54.6617 8.95022 57.6591C6.74476 60.6565 4.86009 63.8937 3.41652 67.3307C1.97294 70.7678 0.89026 74.3646 0.529366 78.0814C0.32887 79.9198 0.288771 81.7982 0.529366 83.6366C0.649664 84.5558 0.810061 85.475 1.09076 86.3543C1.33135 87.2335 1.69225 88.1127 2.09324 88.952C2.93532 90.5906 4.1784 92.0693 5.74227 93.0285C6.54426 93.5081 7.42645 93.8278 8.26853 94.1875L10.875 95.2665C14.3235 96.7453 17.8122 98.1441 21.3008 99.5828C24.7894 101.022 28.2781 102.46 31.7266 103.939L36.9395 106.137L42.1123 108.375L41.7915 109.135C40.5886 108.535 39.5059 107.696 38.6237 106.697C37.7415 105.698 37.0999 104.499 36.6187 103.3C35.6563 100.862 35.3356 98.224 35.4158 95.6262C35.4558 93.0285 35.937 90.4707 36.5786 87.9928C37.2202 85.6349 38.1024 83.197 39.1851 80.879Z" fill="#3C2829"/>
<path d="M93.6399 22.2498C90.3919 21.2507 86.5825 21.4905 82.5725 22.9293C82.3319 23.0092 82.0913 23.0891 81.8507 23.209C80.4473 23.7286 79.0438 24.408 77.6403 25.2073C71.5051 28.7242 65.5704 34.5992 60.8788 41.713C56.1471 48.8668 52.9392 56.8998 51.8164 64.4533L16.4087 49.3064C17.5315 41.7929 20.7394 33.7199 25.4711 26.5661C30.1627 19.4123 36.0974 13.5774 42.1925 10.0604C43.7965 9.1412 45.4807 8.34189 47.0847 7.78237C52.2575 5.94396 56.9892 6.10383 60.7184 8.18203L93.6399 22.2498Z" fill="#ED7339"/>
<path d="M93.68 22.2497C93.5196 22.2097 93.3191 22.2097 93.1587 22.1698C92.9582 22.1298 92.8379 22.0899 92.6374 22.0499C92.3166 21.97 91.9557 21.93 91.6349 21.89C90.9533 21.8101 90.2716 21.7701 89.63 21.7701C88.2666 21.7701 86.9433 21.97 85.6201 22.2497C84.2968 22.5694 83.0136 22.9691 81.7705 23.4886C80.5274 23.9682 79.3245 24.5677 78.1215 25.2471C75.7957 26.6059 73.6304 28.2046 71.5853 29.963C69.5402 31.7215 67.6556 33.6399 65.8912 35.6781C64.1669 37.7163 62.5229 39.9144 61.0793 42.1525C59.6357 44.4305 58.2723 46.7485 57.0694 49.1864C54.7436 54.0222 52.899 59.1777 52.0569 64.4931L52.0169 64.8528L51.6961 64.7329C48.7688 63.454 45.8416 62.1352 42.8742 60.8563L34.0123 57.0596L25.1503 53.3028L16.2884 49.5461L16.0879 49.4662L16.128 49.2663C16.93 43.6312 18.7344 38.1959 21.2607 33.0803C22.5038 30.5226 23.9474 28.0447 25.5112 25.6867C27.0751 23.3288 28.8395 21.0508 30.7241 18.9326C34.5336 14.6963 38.9846 10.9395 44.1975 8.46165C46.8039 7.22272 49.5708 6.30352 52.498 6.06373C53.9416 5.94383 55.4253 5.9838 56.8689 6.26355C58.3124 6.54331 59.7159 7.06286 60.9991 7.78224L61.0392 7.82221L61.0793 7.86217L60.9189 7.74227L69.2194 11.3791C71.9863 12.5781 74.713 13.857 77.4398 15.0559L85.5799 18.6928C88.3067 19.9317 90.9934 21.0907 93.68 22.2497ZM93.5597 22.2097C90.7929 21.0108 87.9859 19.8518 85.179 18.6928L76.8784 15.2957C74.1116 14.1767 71.3848 13.0976 68.6982 11.9386L60.558 8.54158L60.4778 8.50162L60.3976 8.42169L60.4778 8.50162C58.0718 7.18276 55.2649 6.74314 52.5381 6.98293C49.7713 7.22272 47.1247 8.10196 44.5985 9.30093C43.3554 9.90041 42.1123 10.5798 40.9494 11.3392C39.7866 12.0985 38.6237 12.8978 37.541 13.7771C35.3756 15.5755 33.3306 17.4938 31.4459 19.572C27.6766 23.7284 24.5087 28.4444 21.9825 33.44C20.6993 35.9578 19.6166 38.5556 18.6943 41.1933C18.2132 42.5122 17.8523 43.871 17.4914 45.2298C17.1305 46.5886 16.8498 47.9475 16.6493 49.3463L16.4889 49.0665L25.3107 52.9431L34.1727 56.7399L43.0346 60.4966C46.002 61.7355 48.9693 62.9745 51.9367 64.2134L51.5758 64.4132C51.9767 61.6956 52.5782 59.0578 53.3802 56.4601C53.7812 55.1412 54.2624 53.8623 54.7436 52.5835C55.2649 51.3046 55.7862 50.0656 56.3877 48.8267C57.5505 46.3489 58.9139 43.9909 60.3976 41.6729C61.8813 39.3949 63.5654 37.1968 65.3298 35.1585C67.1343 33.1203 69.059 31.162 71.1442 29.4035C73.2294 27.645 75.4749 26.0464 77.8809 24.7276C79.0839 24.0881 80.327 23.4886 81.6101 23.0091C82.8933 22.4895 84.2166 22.1298 85.5398 21.8501C86.9032 21.5703 88.2666 21.4504 89.63 21.4904C90.3117 21.5303 90.9934 21.5703 91.675 21.6902C91.9958 21.7701 92.3567 21.8101 92.6775 21.89C92.8379 21.93 93.0384 21.97 93.1587 22.0099C93.279 22.0899 93.3993 22.1698 93.5597 22.2097Z" fill="#3C2829"/>
<path d="M112.447 34.3594C109.88 33.4003 106.752 33.5202 103.384 34.7591C103.063 32.9606 102.542 31.362 101.86 29.8833L112.447 34.3594Z" fill="#C05C2C"/>
<path d="M112.486 34.3991C112.406 34.3991 112.326 34.3991 112.206 34.3592C112.085 34.3592 111.965 34.3192 111.845 34.3192C111.644 34.2792 111.484 34.2393 111.283 34.2393C110.923 34.1993 110.522 34.1593 110.161 34.1593C109.399 34.1194 108.677 34.1593 107.915 34.1993C107.153 34.2792 106.431 34.3592 105.67 34.4791C104.908 34.599 104.146 34.7189 103.424 34.9587L103.224 35.0386L103.183 34.8388C103.143 34.3991 103.063 33.9995 102.943 33.5998C102.823 33.2002 102.702 32.8005 102.582 32.4009C102.301 31.6016 101.9 30.8422 101.499 30.1228L101.018 29.2836L101.98 29.6033C102.903 29.923 103.865 30.3227 104.787 30.6824C105.75 31.082 106.672 31.5216 107.554 31.9612L110.081 33.2801C110.963 33.6798 111.765 34.0394 112.486 34.3991ZM112.406 34.3592C111.404 33.9196 110.401 33.5599 109.439 33.2401C108.477 32.9204 107.554 32.6407 106.712 32.3209C105.83 32.0412 105.028 31.7215 104.226 31.3618C103.424 31.0021 102.582 30.6424 101.78 30.2028L102.261 29.6832C102.582 30.4825 102.782 31.3618 102.983 32.1611L103.264 33.4C103.384 33.7997 103.464 34.2393 103.544 34.6389L103.304 34.519C104.026 34.1993 104.747 33.8796 105.509 33.6798C106.271 33.44 107.033 33.2801 107.835 33.2801C108.637 33.2401 109.439 33.2801 110.201 33.44C110.602 33.5199 110.963 33.6398 111.364 33.7597C111.564 33.8396 111.725 33.9196 111.925 33.9995C112.005 34.0394 112.045 34.0794 112.126 34.1194C112.206 34.2393 112.286 34.3192 112.406 34.3592Z" fill="#3C2829"/>
<path d="M102.422 36.5175L77.6001 25.8867L85.4997 22.4896H92.517L96.8878 24.368L100.858 28.8042L102.422 33.7199V36.5175Z" fill="#C05C2C"/>
<path d="M102.422 36.5573C100.417 35.7979 98.4118 34.9986 96.3266 34.1993C94.2415 33.3601 92.1563 32.5208 90.0311 31.6415C87.9058 30.7623 85.8206 29.7232 83.7355 28.764C81.6503 27.8049 79.6052 26.8857 77.5201 26.0464L77.1592 25.8865L77.5201 25.7267C78.8433 25.1272 80.1265 24.5277 81.4097 23.9282C82.6929 23.3287 84.0162 22.7293 85.2993 22.1298L85.3795 22.0898H85.4597C86.6226 22.0499 87.7855 22.0499 88.9885 22.0499L92.5172 22.0099H92.6375L92.7578 22.0499L94.9232 22.9691C95.645 23.2888 96.3667 23.6085 97.0885 23.9282L97.2088 23.9682L97.289 24.0481C98.6123 25.5268 99.8955 27.0455 101.179 28.5642L101.219 28.6441L101.259 28.7241C101.499 29.5633 101.74 30.3627 101.941 31.2019C102.181 32.0412 102.382 32.8805 102.622 33.6798V33.7197V33.7597C102.582 34.7189 102.462 35.6781 102.422 36.5573ZM102.382 36.4774C102.342 35.4782 102.261 34.599 102.221 33.7197V33.7997C101.941 33.0004 101.66 32.1611 101.339 31.3618C101.058 30.5625 100.778 29.7232 100.497 28.9239L100.577 29.0838C99.2138 27.645 97.8504 26.2063 96.5271 24.7275L96.6875 24.8474C95.9657 24.5277 95.244 24.248 94.4821 23.9282L92.3167 22.9691L92.5172 23.009L88.9885 22.9691C87.8256 22.9691 86.6627 22.9291 85.4597 22.9291L85.6201 22.8891C84.2969 23.4087 82.9736 23.9682 81.6102 24.4478C80.2869 24.9673 78.9236 25.4869 77.6003 26.0464V25.7267C79.6453 26.6459 81.7305 27.5251 83.7756 28.3244C85.8206 29.1237 87.8657 29.8831 89.9108 30.7623C91.9558 31.6415 93.9608 32.5608 96.0459 33.5199C98.1311 34.4791 100.216 35.4383 102.382 36.4774Z" fill="#3C2829"/>
<path d="M89.3896 22.9292C91.6752 22.9292 93.7203 23.4488 95.5248 24.4479C98.8931 26.3662 101.179 30.0031 102.101 34.9988L102.382 36.5174L103.825 35.9979C105.55 35.3584 107.194 35.0387 108.717 35.0387C111.083 35.0387 113.048 35.7981 114.612 37.2368C117.339 39.7147 118.582 44.1109 118.181 49.5462C117.74 55.2612 115.574 61.4958 112.046 67.2109C108.557 72.9259 103.986 77.6019 99.254 80.3595L54.5834 106.057C51.7363 107.696 48.8893 108.535 46.4031 108.535C44.9596 108.535 43.6764 108.255 42.4734 107.696C39.3056 106.217 37.3006 102.7 36.8996 97.7844C36.4986 92.6289 37.862 86.4742 40.7491 80.5193C43.6363 74.4846 47.8467 69.1692 52.5383 65.4924L52.9393 65.1726L53.0195 64.6531C54.1022 57.3394 57.27 49.4263 61.8815 42.4323C66.4528 35.4783 72.2672 29.7233 78.2019 26.3263C79.7657 25.4071 81.3697 24.6877 82.8935 24.1282C85.2192 23.3289 87.3846 22.9292 89.3896 22.9292ZM89.3896 21.6104C87.2242 21.6104 84.9385 22.05 82.5326 22.8892C80.8885 23.4488 79.2445 24.2481 77.6004 25.1673C71.4652 28.6842 65.5305 34.5591 60.8389 41.7129C56.1072 48.8668 52.8992 56.8998 51.7764 64.4533C46.9244 68.25 42.5937 73.7652 39.6264 79.9598C36.659 86.1545 35.2555 92.5489 35.6565 97.9043C36.0976 103.22 38.3432 107.176 41.9521 108.895C43.3155 109.534 44.7992 109.854 46.4031 109.854C49.1299 109.854 52.1373 108.935 55.225 107.176L99.8956 81.4785C104.828 78.641 109.519 73.8052 113.168 67.8903C116.777 62.0154 119.023 55.501 119.464 49.6661C119.905 43.8311 118.502 39.0353 115.494 36.2777C113.69 34.5991 111.324 33.7199 108.717 33.7199C107.033 33.7199 105.229 34.0796 103.384 34.759C102.382 29.4036 99.8555 25.4071 96.1664 23.3289C94.2015 22.1699 91.8757 21.6104 89.3896 21.6104Z" fill="white"/>
<path d="M89.3895 22.8497C91.1138 22.8097 92.8782 23.0895 94.5222 23.7689C96.1262 24.4483 97.6099 25.5274 98.7327 26.8462C99.8955 28.1651 100.778 29.7237 101.379 31.3623C101.7 32.2016 101.941 33.0409 102.141 33.8801C102.342 34.7194 102.502 35.5986 102.662 36.4379L102.261 36.1981C103.144 35.8784 103.986 35.5187 104.908 35.2389C105.83 34.9592 106.753 34.7594 107.675 34.6794C108.637 34.5995 109.6 34.5995 110.522 34.7594C111.484 34.9192 112.407 35.2389 113.249 35.7185C114.933 36.6777 116.256 38.1964 117.098 39.9149C117.94 41.6334 118.381 43.5118 118.542 45.3902C118.702 47.2685 118.662 49.1469 118.421 50.9853C118.181 52.8237 117.82 54.6621 117.299 56.4606C116.256 60.0575 114.692 63.4545 112.808 66.6518C110.883 69.849 108.597 72.8064 105.91 75.4042C104.587 76.723 103.144 77.922 101.62 79.0011C100.858 79.5606 100.056 80.0402 99.254 80.5197L96.848 81.8786L87.1841 87.3538C83.9761 89.1922 80.7682 91.0306 77.5602 92.909C71.1444 96.5858 64.7686 100.343 58.3928 104.099L55.9868 105.498C55.1848 105.978 54.3829 106.457 53.5408 106.857C51.8566 107.696 50.0922 108.376 48.2076 108.655C46.3229 108.935 44.3179 108.855 42.5536 108.056C41.6714 107.656 40.8293 107.137 40.1075 106.457C39.3857 105.818 38.7842 105.019 38.303 104.179C37.3407 102.501 36.8194 100.662 36.5387 98.7839C36.2981 96.9056 36.2981 95.0272 36.4585 93.1488C36.8194 89.3921 37.8619 85.7952 39.2654 82.3182C40.709 78.8812 42.5536 75.604 44.7991 72.6066C47.0447 69.6092 49.6511 66.8516 52.6185 64.6135L52.418 64.9332C52.7789 62.4554 53.3403 60.0175 54.0621 57.6196C54.7838 55.2216 55.7061 52.9037 56.7487 50.6256C57.7913 48.3476 58.9542 46.1495 60.2774 44.0313C61.6007 41.9132 63.0042 39.835 64.5681 37.9166C66.1319 35.9583 67.8161 34.1199 69.6206 32.4014C71.425 30.6829 73.3498 29.0843 75.435 27.6855C77.48 26.2867 79.6855 25.0877 82.0514 24.1685C84.4172 23.4092 86.9034 22.8497 89.3895 22.8497V22.9296C86.9034 22.9696 84.4573 23.609 82.2118 24.5282C79.9261 25.4474 77.8008 26.7263 75.7558 28.1651C71.7458 31.0026 68.2572 34.5995 65.2097 38.4761C63.6859 40.4345 62.3225 42.4727 61.0393 44.5909C59.7562 46.709 58.6334 48.8671 57.6309 51.1452C55.6259 55.6213 54.1824 60.3772 53.4606 65.213L53.4205 65.4128L53.2601 65.5327C47.4457 70.0088 43.115 76.1635 40.2278 82.8777C38.8243 86.2348 37.7817 89.7917 37.4209 93.3886C37.2204 95.187 37.2204 97.0255 37.4609 98.8239C37.7015 100.622 38.1827 102.381 39.0649 103.899C39.9471 105.458 41.2303 106.737 42.8744 107.416C44.4783 108.136 46.3229 108.256 48.0873 108.016C49.8516 107.736 51.616 107.137 53.2601 106.337C54.0621 105.938 54.864 105.458 55.666 105.019L58.072 103.66C64.528 100.023 70.9439 96.386 77.3597 92.7092C80.5677 90.8708 83.7756 89.0324 86.9836 87.154L96.5673 81.5588L98.9733 80.1601C99.7752 79.6805 100.537 79.2009 101.259 78.6414C102.743 77.5623 104.106 76.3633 105.429 75.0445C107.996 72.4467 110.201 69.4493 112.046 66.2921C113.93 63.1348 115.414 59.7777 116.416 56.2607C117.419 52.7438 117.98 49.1069 117.7 45.4701C117.539 43.6716 117.138 41.8732 116.336 40.2746C115.574 38.676 114.371 37.2772 112.848 36.3979C111.324 35.5187 109.479 35.2389 107.675 35.3588C106.793 35.4388 105.87 35.5986 105.028 35.8384C104.146 36.0782 103.304 36.4379 102.422 36.7177L102.101 36.8376L102.021 36.5178C101.86 35.6786 101.74 34.7993 101.54 34C101.339 33.1607 101.099 32.3614 100.818 31.5222C100.216 29.9236 99.4144 28.4049 98.3317 27.086C97.249 25.7671 95.8856 24.6881 94.3217 24.0087C92.7579 23.2893 91.0336 22.9696 89.3093 22.9296V22.8497H89.3895Z" fill="#3C2829"/>
<path d="M89.3894 21.6502C86.8632 21.6502 84.3369 22.2497 81.9711 23.1689C79.6052 24.0881 77.3997 25.3271 75.3146 26.7658C73.2294 28.2046 71.3046 29.8432 69.5002 31.6016C67.6957 33.3601 66.0115 35.2385 64.4477 37.2367C62.8838 39.235 61.4803 41.3132 60.157 43.4714C58.8338 45.6295 57.6709 47.8675 56.6283 50.1456C55.5857 52.4236 54.7035 54.7816 53.9416 57.1795C53.1798 59.5774 52.6184 62.0153 52.2174 64.4931L52.1773 64.653L52.057 64.7729C49.0896 67.0909 46.4832 69.8885 44.2376 72.9258C41.992 75.9632 40.1074 79.2803 38.6638 82.7973C37.2202 86.3143 36.1776 89.9911 35.8569 93.7478C35.6965 95.6262 35.6965 97.5445 36.0173 99.4229C36.2979 101.301 36.8593 103.14 37.8217 104.738C38.744 106.377 40.1475 107.736 41.8317 108.575C43.5158 109.454 45.4406 109.734 47.3253 109.574C49.2099 109.454 51.0545 108.895 52.7788 108.135C54.503 107.376 56.107 106.337 57.7912 105.378L77.5601 93.8278C84.1364 89.9511 90.7528 86.1544 97.3692 82.3177C104.146 78.8407 109.479 73.1656 113.329 66.6912C115.253 63.454 116.777 59.9771 117.82 56.3402C118.822 52.7433 119.424 48.9466 119.103 45.2298C118.943 43.3914 118.502 41.513 117.74 39.8345C116.978 38.156 115.815 36.6373 114.291 35.5982C112.767 34.5191 110.923 33.9996 109.038 33.9196C107.153 33.8397 105.269 34.2393 103.504 34.8788L103.304 34.9587L103.264 34.7589C102.943 33.0404 102.502 31.3618 101.78 29.7632C101.419 28.9639 101.018 28.2046 100.537 27.4852C100.056 26.7658 99.5345 26.0864 98.893 25.447C97.69 24.208 96.2063 23.2089 94.5622 22.5694C92.9182 21.97 91.1538 21.6902 89.3894 21.6502ZM89.3894 21.5703C91.1538 21.5703 92.9182 21.8501 94.5622 22.4895C96.2063 23.129 97.7301 24.1281 98.9732 25.367C99.6147 26.0065 100.136 26.6859 100.657 27.4053C101.139 28.1246 101.58 28.884 101.981 29.6833C102.742 31.2819 103.264 32.9605 103.585 34.7189L103.344 34.599C105.148 33.9196 107.073 33.48 108.998 33.48C110.963 33.48 112.928 33.9996 114.572 35.1186C116.216 36.1976 117.499 37.7963 118.341 39.5547C119.223 41.3132 119.664 43.2316 119.865 45.1899C120.266 49.0665 119.745 52.9432 118.702 56.6599C117.659 60.3767 116.096 63.9336 114.131 67.2508C112.166 70.5679 109.84 73.6852 107.113 76.4428C105.75 77.8016 104.306 79.0805 102.702 80.2395C101.9 80.799 101.098 81.3586 100.256 81.8381L97.7702 83.2769C91.1538 87.0736 84.4973 90.8703 77.8809 94.6271L57.9917 105.897L55.5055 107.296C54.6634 107.776 53.8213 108.215 52.8991 108.575C51.1347 109.334 49.25 109.854 47.2852 109.974C45.3604 110.094 43.3554 109.814 41.6312 108.895C39.9069 108.015 38.4633 106.577 37.5009 104.898C36.5385 103.22 35.9371 101.381 35.6564 99.4629C35.3356 97.5845 35.3356 95.6262 35.4559 93.7079C35.6163 91.7895 35.9371 89.9111 36.3781 88.0328C36.8192 86.1544 37.4207 84.356 38.1425 82.5575C39.546 79.0006 41.3906 75.6035 43.6361 72.4463C45.8416 69.289 48.4881 66.4515 51.5357 64.0535L51.3753 64.3333C51.7763 61.8155 52.3377 59.2977 53.0996 56.8598C53.8614 54.4219 54.8238 52.0639 55.9065 49.7459C56.9892 47.4279 58.1922 45.1899 59.5555 43.0317C60.9189 40.8736 62.4026 38.7954 64.0066 36.8371C67.2145 32.8805 70.9437 29.3236 75.1943 26.526C76.277 25.8466 77.3195 25.1672 78.4824 24.5677C79.6052 23.9682 80.7681 23.4487 81.9711 23.0091C84.3369 22.1298 86.8632 21.5703 89.3894 21.5703Z" fill="#3C2829"/>
<path d="M76.0637 45.0347L95.0981 55.9883L87.4618 60.4147L83.9634 62.4404L75.9509 67.0544L56.9165 56.1008L64.929 51.4868L68.4274 49.4611L76.0637 45.0347Z" fill="#F4ECD5"/>
<path d="M76.1011 45.0347C77.7186 45.935 79.2985 46.7977 80.9161 47.698L85.6935 50.3989L90.4709 53.0998C92.0508 54.0001 93.6684 54.9379 95.2107 55.8382L95.4364 55.9507L95.2107 56.0633L90.3956 58.8767L87.9881 60.2271L85.5806 61.6151C83.9631 62.5154 82.3832 63.4532 80.8032 64.391C79.2233 65.3288 77.6057 66.2666 76.0258 67.1669H75.9506L75.913 67.1294C72.7155 65.3288 69.518 63.5282 66.3582 61.6901L61.5808 58.9517L56.8034 56.2508L56.54 56.1008L56.8034 55.9132L61.6184 53.1748L66.4334 50.4364L71.2484 47.7356L76.1011 45.0347L71.3237 47.8856L66.5463 50.699L61.8065 53.4749L56.9914 56.2508V55.9132L61.7688 58.6516L66.5086 61.4275C69.7061 63.2656 72.8283 65.1412 75.9882 66.9793H75.8754C77.4929 66.0791 79.0728 65.1788 80.6904 64.241C82.2703 63.3407 83.8878 62.4028 85.4678 61.465L87.8753 60.0771L90.2452 58.6516L95.0226 55.8382V56.1008C93.4426 55.2005 91.8251 54.3002 90.2452 53.3624L85.543 50.6615L80.8032 47.8856C79.2233 46.9478 77.6434 46.01 76.1011 45.0347Z" fill="black"/>
<path d="M95.1355 56.0258V77.9704L75.9507 88.9991V67.0544L95.1355 56.0258Z" fill="#DACCBB"/>
<path d="M95.1356 56.0258C95.1732 57.8639 95.2108 59.6644 95.2108 61.5026L95.2485 66.9793L95.2861 72.4561C95.2861 74.2942 95.2861 76.0948 95.2861 77.9329V78.0455L95.2108 78.083L90.3958 80.7839L87.9883 82.1343L85.5808 83.4847C83.9633 84.385 82.3833 85.3228 80.8034 86.2607C79.2235 87.1985 77.6059 88.1363 76.026 89.0366L75.8755 89.1116V88.9615C75.8379 85.3228 75.8003 81.6466 75.8003 78.008V72.5312V66.9418L75.8755 66.9043L80.6905 64.1659L85.468 61.4275L90.283 58.7266L95.1356 56.0258L90.3582 58.8767L85.5808 61.6901L80.8034 64.466L76.026 67.2419L76.1012 67.0919V72.5687V78.0455C76.1012 81.6842 76.0636 85.3604 76.026 88.999L75.8755 88.924C77.4931 88.0237 79.073 87.1234 80.6905 86.1856C82.2705 85.2853 83.888 84.3475 85.468 83.4097L87.8755 82.0218L90.2454 80.5963L95.0228 77.7829L94.9475 77.8954C94.9475 76.0573 94.9475 74.2567 94.9475 72.4186L94.9851 66.9418L95.0228 61.465C95.0604 59.6644 95.0604 57.8263 95.1356 56.0258Z" fill="black"/>
<path d="M83.9253 67.8797L83.8501 65.2163C83.8501 64.7661 83.8501 64.316 83.8501 63.8283C83.8501 63.3782 83.8501 62.928 83.8501 62.4404V62.4029H83.8877L84.7529 61.9152L85.6181 61.4275C86.1824 61.0899 86.7466 60.7523 87.3109 60.4147L87.3861 60.3772V60.4522C87.3861 61.24 87.4237 62.0277 87.4237 62.8155V63.9784V65.1413V65.1788L87.3861 65.2163C86.7842 65.6664 86.22 66.1166 85.6181 66.5667L83.9253 67.8797ZM83.9253 67.8421C84.5272 67.3545 85.0915 66.9043 85.6557 66.4167C86.22 65.9665 86.7466 65.5164 87.3485 65.0662L87.3109 65.1413V63.9784V62.8155C87.3109 62.0277 87.3109 61.24 87.3485 60.4522L87.4237 60.4897C86.8595 60.7898 86.2576 61.1274 85.6933 61.4651L84.8281 61.9527L83.963 62.4779L84.0006 62.4404C84.0006 62.8905 84.0382 63.3032 84.0006 63.7908C84.0006 64.241 84.0006 64.6536 84.0006 65.1413L83.9253 67.8421Z" fill="black"/>
<path d="M75.9505 88.9616L56.7656 77.933V55.9883L75.9505 67.0169V88.9616Z" fill="#A59379"/>
<path d="M75.951 88.999L66.3586 83.5973L61.506 80.8589C59.926 79.9211 58.3085 78.9833 56.7286 78.083L56.6533 78.0455V77.9704L56.6909 72.4936L56.7286 69.7552V67.0168C56.7286 65.1787 56.7286 63.3782 56.7286 61.5401C56.7286 59.7019 56.6909 57.9014 56.6909 56.0633V55.9132H56.8414C60.0389 57.7513 63.274 59.5519 66.4714 61.3525L71.2865 64.0909L76.0639 66.8668L76.1391 66.9043V67.0168C76.1391 68.8549 76.1391 70.6931 76.1391 72.5312L76.1015 78.0455L75.951 88.999ZM75.951 88.9615L75.8382 77.9329L75.8005 72.4561C75.8005 70.6555 75.8005 68.8174 75.8005 67.0168L75.8758 67.1669L71.0608 64.4285L66.2834 61.6526C63.0859 59.8145 59.926 57.9389 56.7286 56.1008L56.879 56.0257C56.879 57.8638 56.8414 59.6644 56.8414 61.5025C56.8414 63.3406 56.8414 65.1412 56.8414 66.9793V69.7177L56.879 72.4561L56.9166 77.9329L56.8414 77.8204C58.4213 78.7207 60.0389 79.621 61.6188 80.5588L66.3586 83.3347L75.951 88.9615Z" fill="black"/>
<path d="M87.4992 60.4148L84.0007 62.4779H83.9631H83.9255L79.1481 59.777C77.5682 58.8768 75.9506 57.9389 74.3707 57.0011C72.7908 56.0633 71.2109 55.163 69.6309 54.2252L64.8535 51.4868H64.8159L64.8912 51.4493L68.3896 49.3861L68.4272 49.3486L68.4648 49.3861L73.2422 52.1245L78.0196 54.9005L87.4992 60.4148ZM87.4615 60.4148L77.8691 54.9755L73.1293 52.2371L68.3896 49.5362H68.4648L64.9288 51.5243V51.4493L69.7062 54.1877C71.2861 55.088 72.9036 55.9883 74.4836 56.8886C76.0635 57.7889 77.681 58.6892 79.261 59.627L84.0007 62.4029H83.9631L87.4615 60.4148Z" fill="black"/>
<path d="M79.7876 85.3229L77.0039 86.9359V84.0475L79.7876 82.4344V85.3229Z" stroke="black" stroke-width="0.1455" stroke-miterlimit="10"/>
<path d="M83.4741 83.2596L80.6904 84.8727V81.0089L83.4741 79.3959V83.2596Z" stroke="black" stroke-width="0.1455" stroke-miterlimit="10"/>
<path d="M94.1196 60.9023L91.4111 62.4778V59.4018L94.1196 57.8263V60.9023Z" stroke="black" stroke-width="0.1455" stroke-miterlimit="10"/>
<path d="M76.7783 84.235C76.8159 84.31 79.7125 82.3969 79.7877 82.5094C79.9382 82.8095 76.9664 84.5351 77.1545 84.7977C77.2673 85.0227 79.6749 82.9971 79.8253 83.2597C79.9758 83.5222 77.1169 85.3228 77.2297 85.5479C77.3802 85.773 79.4115 84.0474 79.5244 84.235C79.6372 84.4225 77.0793 85.923 77.1545 86.0356C77.2673 86.2606 79.3739 84.4601 79.5244 84.6851C79.5996 84.8352 77.0793 86.5232 77.2297 86.7858C77.3802 87.0484 79.9382 84.9852 80.051 85.1728" stroke="black" stroke-width="0.1878" stroke-linecap="round" stroke-linejoin="round"/>
<path d="M80.9531 80.8964C81.066 81.0839 83.4359 79.1708 83.5487 79.3959C83.6992 79.6585 80.6146 81.1965 80.765 81.4215C80.9155 81.6841 83.0973 79.846 83.2102 79.9961C83.2854 80.1086 80.4641 82.0968 80.6146 82.3969C80.765 82.6595 83.3983 80.5963 83.4735 80.7463C83.5863 80.9714 80.6522 83.0721 80.7274 83.2597C80.8027 83.3722 83.6616 81.384 83.7368 81.5341C83.8497 81.7216 80.2008 83.5973 80.3889 83.9349C80.5393 84.1975 83.4359 81.9842 83.5487 82.1343C83.6992 82.3969 80.5017 84.1975 80.6898 84.4976C80.7274 84.5726 83.5487 82.6595 83.624 82.8095C83.6992 82.9596 80.7274 84.3475 80.8403 84.5726C80.9155 84.7226 83.624 82.847 83.6992 82.922C83.7744 83.0721 80.8779 84.6101 80.9155 84.7226C81.066 84.9477 83.2854 83.0721 83.3983 83.2972" stroke="black" stroke-width="0.1878" stroke-linecap="round" stroke-linejoin="round"/>
<path d="M91.1855 59.5145C91.336 59.7395 94.0444 57.5263 94.1949 57.7889C94.3454 58.089 90.9974 60.1522 91.1479 60.4148C91.1855 60.5273 93.6683 58.6142 93.8187 58.8768C93.9692 59.1393 91.2231 61.0525 91.2608 61.165C91.2984 61.24 93.7435 59.4019 93.894 59.627C93.9692 59.777 91.2608 61.6527 91.2984 61.8027C91.4112 62.0278 93.7059 60.0771 93.8563 60.3397C93.9316 60.4523 91.5241 61.5401 91.6369 61.7277C91.7122 61.8402 93.7059 60.1897 93.8563 60.4523C94.0444 60.7524 90.9598 62.4779 91.035 62.628C91.0727 62.703 93.7435 60.7149 93.894 60.9774" stroke="black" stroke-width="0.1878" stroke-linecap="round" stroke-linejoin="round"/>
<path d="M68.4547 49.5366L65.084 51.5466L83.8697 62.2963L87.3182 60.3634L68.4547 49.5366Z" fill="#FFFBEF"/>
<path d="M65.6005 72.7422L75.2158 78.2755L71.3583 80.5115L69.5911 81.5348L65.5435 83.8656L55.9282 78.3323L59.9758 76.0015L61.743 74.9782L65.6005 72.7422Z" fill="#F4ECD5"/>
<path d="M65.6196 72.7422C66.4367 73.197 67.2348 73.6328 68.052 74.0876L70.4653 75.452L72.8786 76.8163C73.6767 77.2711 74.4938 77.7449 75.2729 78.1996L75.3869 78.2565L75.2729 78.3133L72.8406 79.7346L71.6244 80.4167L70.4083 81.1179C69.5912 81.5727 68.793 82.0464 67.9949 82.5201C67.1968 82.9939 66.3797 83.4676 65.5816 83.9224H65.5436L65.5246 83.9035C63.9094 82.9939 62.2942 82.0843 60.698 81.1558L58.2846 79.7725L55.8713 78.4081L55.7383 78.3323L55.8713 78.2375L58.3036 76.8542L60.736 75.4709L63.1683 74.1066L65.6196 72.7422L63.2063 74.1824L60.793 75.6036L58.3986 77.0058L55.9663 78.4081V78.2375L58.3796 79.6209L60.774 81.0231C62.3892 81.9517 63.9664 82.8991 65.5626 83.8277H65.5056C66.3227 83.3729 67.1208 82.9181 67.9379 82.4443C68.736 81.9896 69.5532 81.5158 70.3513 81.0421L71.5674 80.3409L72.7646 79.6209L75.1779 78.1996V78.3323C74.3798 77.8775 73.5627 77.4227 72.7646 76.949L70.3893 75.5846L67.9949 74.1824C67.1968 73.7086 66.3987 73.2349 65.6196 72.7422Z" fill="black"/>
<path d="M75.2348 78.2944V89.3799L65.5435 94.9511V83.8656L75.2348 78.2944Z" fill="#DACCBB"/>
<path d="M75.2351 78.2944C75.2541 79.223 75.2731 80.1325 75.2731 81.0611L75.2921 83.8277L75.3111 86.5943C75.3111 87.5229 75.3111 88.4324 75.3111 89.361V89.4178L75.2731 89.4368L72.8408 90.8011L71.6246 91.4833L70.4084 92.1655C69.5913 92.6203 68.7932 93.094 67.9951 93.5677C67.197 94.0415 66.3799 94.5152 65.5818 94.97L65.5058 95.0079V94.9321C65.4868 93.094 65.4678 91.237 65.4678 89.3989V86.6322V83.8087L65.5058 83.7898L67.9381 82.4065L70.3514 81.0232L72.7838 79.6588L75.2351 78.2944L72.8218 79.7346L70.4084 81.1558L67.9951 82.5581L65.5818 83.9603L65.6198 83.8845V86.6512V89.4178C65.6198 91.2559 65.6008 93.113 65.5818 94.9511L65.5058 94.9132C66.3229 94.4584 67.121 94.0036 67.9381 93.5298C68.7362 93.0751 69.5533 92.6013 70.3514 92.1276L71.5676 91.4265L72.7648 90.7064L75.1781 89.2852L75.1401 89.342C75.1401 88.4135 75.1401 87.5039 75.1401 86.5754L75.1591 83.8087L75.1781 81.0421C75.1971 80.1325 75.1971 79.204 75.2351 78.2944Z" fill="black"/>
<path d="M69.5722 84.2825L69.5342 82.937C69.5342 82.7097 69.5342 82.4823 69.5342 82.2359C69.5342 82.0085 69.5342 81.7811 69.5342 81.5348V81.5158H69.5532L69.9902 81.2695L70.4273 81.0231C70.7124 80.8526 70.9974 80.682 71.2824 80.5115L71.3204 80.4926V80.5305C71.3204 80.9284 71.3394 81.3263 71.3394 81.7243V82.3117V82.8991V82.9181L71.3204 82.937C71.0164 83.1644 70.7314 83.3918 70.4273 83.6192L69.5722 84.2825ZM69.5722 84.2635C69.8762 84.0172 70.1613 83.7898 70.4463 83.5434C70.7314 83.316 70.9974 83.0886 71.3014 82.8612L71.2824 82.8991V82.3117V81.7243C71.2824 81.3263 71.2824 80.9284 71.3014 80.5305L71.3394 80.5494C71.0544 80.701 70.7504 80.8715 70.4653 81.0421L70.0283 81.2884L69.5912 81.5537L69.6102 81.5348C69.6102 81.7622 69.6292 81.9706 69.6102 82.217C69.6102 82.4444 69.6102 82.6528 69.6102 82.8991L69.5722 84.2635Z" fill="black"/>
<path d="M65.5439 94.932L55.8525 89.3608V78.2754L65.5439 83.8465V94.932Z" fill="#A59379"/>
<path d="M65.5437 94.951L60.6981 92.2223L58.2467 90.839C57.4486 90.3652 56.6315 89.8915 55.8334 89.4367L55.7954 89.4178V89.3799L55.8144 86.6132L55.8334 85.2299V83.8466C55.8334 82.9181 55.8334 82.0085 55.8334 81.08C55.8334 80.1514 55.8144 79.2419 55.8144 78.3133V78.2375H55.8904C57.5056 79.1661 59.1399 80.0757 60.7551 80.9852L63.1874 82.3685L65.6007 83.7708L65.6387 83.7898V83.8466C65.6387 84.7751 65.6387 85.7037 65.6387 86.6322L65.6197 89.4178L65.5437 94.951ZM65.5437 94.9321L65.4867 89.3609L65.4677 86.5943C65.4677 85.6847 65.4677 84.7562 65.4677 83.8466L65.5057 83.9224L63.0734 82.5391L60.6601 81.1368C59.0448 80.2083 57.4486 79.2608 55.8334 78.3323L55.9094 78.2944C55.9094 79.2229 55.8904 80.1325 55.8904 81.061C55.8904 81.9896 55.8904 82.8991 55.8904 83.8277V85.211L55.9094 86.5943L55.9284 89.3609L55.8904 89.3041C56.6885 89.7588 57.5056 90.2136 58.3037 90.6874L60.6981 92.0896L65.5437 94.9321Z" fill="black"/>
<path d="M71.3775 80.5123L69.6103 81.5546H69.5913H69.5723L67.1589 80.1902C66.3608 79.7354 65.5437 79.2617 64.7456 78.7879C63.9475 78.3142 63.1494 77.8594 62.3513 77.3857L59.9379 76.0024H59.9189L59.957 75.9834L61.7242 74.9412L61.7432 74.9222L61.7622 74.9412L64.1755 76.3245L66.5889 77.7268L71.3775 80.5123ZM71.3585 80.5123L66.5128 77.7647L64.1185 76.3814L61.7242 75.017H61.7622L59.976 76.0213V75.9834L62.3893 77.3667C63.1874 77.8215 64.0045 78.2763 64.8026 78.7311C65.6007 79.1859 66.4178 79.6407 67.2159 80.1144L69.6103 81.5167H69.5913L71.3585 80.5123Z" fill="black"/>
<path d="M67.4819 93.0945L66.0757 93.9096V92.45L67.4819 91.6349V93.0945Z" stroke="black" stroke-width="0.1455" stroke-miterlimit="10"/>
<path d="M69.3442 92.0518L67.938 92.8666V90.9148L69.3442 90.1V92.0518Z" stroke="black" stroke-width="0.1455" stroke-miterlimit="10"/>
<path d="M74.7217 80.7578L73.3535 81.5537V79.9999L74.7217 79.204V80.7578Z" stroke="black" stroke-width="0.1455" stroke-miterlimit="10"/>
<path d="M65.9614 92.5447C65.9804 92.5826 67.4436 91.6158 67.4816 91.6727C67.5576 91.8244 66.0564 92.6963 66.1515 92.829C66.2085 92.9428 67.4246 91.9191 67.5006 92.0518C67.5766 92.1845 66.1324 93.0944 66.1895 93.2082C66.2655 93.3219 67.2916 92.4499 67.3486 92.5447C67.4056 92.6395 66.1134 93.3977 66.1515 93.4546C66.2085 93.5683 67.2726 92.6584 67.3486 92.7722C67.3866 92.848 66.1134 93.701 66.1895 93.8337C66.2655 93.9664 67.5576 92.9238 67.6147 93.0186" stroke="black" stroke-width="0.1878" stroke-linecap="round" stroke-linejoin="round"/>
<path d="M68.0708 90.858C68.1278 90.9527 69.325 89.9863 69.382 90.1C69.458 90.2327 67.8998 91.0096 67.9758 91.1233C68.0518 91.2559 69.154 90.3274 69.211 90.4032C69.249 90.4601 67.8238 91.4644 67.8998 91.616C67.9758 91.7486 69.306 90.7064 69.344 90.7822C69.401 90.8959 67.9188 91.9571 67.9568 92.0518C67.9948 92.1087 69.439 91.1043 69.477 91.1801C69.534 91.2749 67.6908 92.2223 67.7858 92.3929C67.8618 92.5255 69.325 91.4075 69.382 91.4833C69.458 91.616 67.8428 92.5255 67.9378 92.6771C67.9568 92.715 69.382 91.7486 69.42 91.8244C69.458 91.9002 67.9568 92.6013 68.0138 92.715C68.0518 92.7908 69.42 91.8434 69.458 91.8813C69.496 91.9571 68.0328 92.734 68.0518 92.7908C68.1278 92.9045 69.249 91.9571 69.306 92.0708" stroke="black" stroke-width="0.1878" stroke-linecap="round" stroke-linejoin="round"/>
<path d="M73.2398 80.0567C73.3158 80.1704 74.684 79.0524 74.76 79.185C74.836 79.3366 73.1448 80.3788 73.2208 80.5115C73.2398 80.5683 74.4939 79.6019 74.57 79.7346C74.646 79.8672 73.2588 80.8336 73.2778 80.8905C73.2968 80.9284 74.532 79.9999 74.608 80.1136C74.646 80.1893 73.2778 81.1368 73.2968 81.2126C73.3538 81.3263 74.513 80.3409 74.589 80.4736C74.627 80.5304 73.4108 81.08 73.4678 81.1747C73.5058 81.2316 74.513 80.3978 74.589 80.5304C74.684 80.682 73.1258 81.5537 73.1638 81.6295C73.1828 81.6674 74.532 80.6631 74.608 80.7957" stroke="black" stroke-width="0.1878" stroke-linecap="round" stroke-linejoin="round"/>
<path d="M61.757 75.0164L60.0542 76.0317L69.5439 81.462L71.2859 80.4856L61.757 75.0164Z" fill="#FFFBEF"/>
<path d="M51.5654 77.9377L61.1807 83.471L57.3232 85.707L55.5559 86.7303L51.5084 89.0611L41.8931 83.5279L45.9406 81.1971L47.7079 80.1738L51.5654 77.9377Z" fill="#F4ECD5"/>
<path d="M51.5845 77.9377C52.4016 78.3925 53.1997 78.8284 54.0168 79.2832L56.4301 80.6475L58.8434 82.0119C59.6415 82.4667 60.4587 82.9404 61.2378 83.3952L61.3518 83.4521L61.2378 83.5089L58.8054 84.9301L57.5893 85.6123L56.3731 86.3134C55.556 86.7682 54.7579 87.242 53.9598 87.7157C53.1617 88.1894 52.3446 88.6632 51.5465 89.118H51.5084L51.4894 89.099C49.8742 88.1894 48.259 87.2799 46.6628 86.3513L44.2495 84.968L41.8361 83.6037L41.7031 83.5279L41.8361 83.4331L44.2685 82.0498L46.7008 80.6665L49.1331 79.3021L51.5845 77.9377L49.1711 79.3779L46.7578 80.7991L44.3635 82.2014L41.9312 83.6037V83.4331L44.3445 84.8164L46.7388 86.2187C48.354 87.1472 49.9312 88.0947 51.5275 89.0232H51.4704C52.2876 88.5684 53.0857 88.1136 53.9028 87.6399C54.7009 87.1851 55.518 86.7114 56.3161 86.2376L57.5323 85.5365L58.7294 84.8164L61.1427 83.3952V83.5279C60.3446 83.0731 59.5275 82.6183 58.7294 82.1445L56.3541 80.7802L53.9598 79.3779C53.1617 78.9042 52.3636 78.4304 51.5845 77.9377Z" fill="black"/>
<path d="M61.1996 83.49V94.5754L51.5083 100.147V89.0611L61.1996 83.49Z" fill="#DACCBB"/>
<path d="M61.1999 83.49C61.2189 84.4185 61.2379 85.3281 61.2379 86.2566L61.2569 89.0232L61.2759 91.7899C61.2759 92.7184 61.2759 93.628 61.2759 94.5565V94.6133L61.2379 94.6323L58.8056 95.9967L57.5894 96.6788L56.3733 97.361C55.5562 97.8158 54.7581 98.2895 53.96 98.7633C53.1619 99.237 52.3447 99.7108 51.5466 100.166L51.4706 100.203V100.128C51.4516 98.2895 51.4326 96.4325 51.4326 94.5944V91.8278V89.0043L51.4706 88.9853L53.9029 87.602L56.3163 86.2187L58.7486 84.8544L61.1999 83.49L58.7866 84.9302L56.3733 86.3514L53.96 87.7536L51.5466 89.1559L51.5846 89.0801V91.8467V94.6133C51.5846 96.4514 51.5656 98.3085 51.5466 100.147L51.4706 100.109C52.2877 99.6539 53.0858 99.1991 53.9029 98.7254C54.7011 98.2706 55.5182 97.7969 56.3163 97.3231L57.5324 96.622L58.7296 95.9019L61.1429 94.4807L61.1049 94.5375C61.1049 93.609 61.1049 92.6994 61.1049 91.7709L61.1239 89.0043L61.1429 86.2377C61.1619 85.3281 61.1619 84.3996 61.1999 83.49Z" fill="black"/>
<path d="M55.537 89.478L55.499 88.1326C55.499 87.9052 55.499 87.6778 55.499 87.4315C55.499 87.2041 55.499 86.9767 55.499 86.7303V86.7114H55.518L55.9551 86.465L56.3921 86.2187C56.6772 86.0482 56.9622 85.8776 57.2473 85.7071L57.2853 85.6881V85.726C57.2853 86.1239 57.3043 86.5219 57.3043 86.9198V87.5073V88.0947V88.1136L57.2853 88.1326C56.9812 88.36 56.6962 88.5874 56.3921 88.8148L55.537 89.478ZM55.537 89.4591C55.8411 89.2127 56.1261 88.9853 56.4111 88.739C56.6962 88.5116 56.9622 88.2842 57.2663 88.0568L57.2473 88.0947V87.5073V86.9198C57.2473 86.5219 57.2473 86.1239 57.2663 85.726L57.3043 85.745C57.0192 85.8966 56.7152 86.0671 56.4301 86.2376L55.9931 86.484L55.556 86.7493L55.575 86.7303C55.575 86.9577 55.594 87.1662 55.575 87.4125C55.575 87.6399 55.575 87.8484 55.575 88.0947L55.537 89.4591Z" fill="black"/>
<path d="M51.5087 100.128L41.8174 94.5564V83.4709L51.5087 89.0421V100.128Z" fill="#A59379"/>
<path d="M51.5086 100.147L46.6629 97.4179L44.2116 96.0345C43.4135 95.5608 42.5964 95.0871 41.7983 94.6323L41.7603 94.6133V94.5754L41.7793 91.8088L41.7983 90.4255V89.0422C41.7983 88.1136 41.7983 87.2041 41.7983 86.2755C41.7983 85.347 41.7793 84.4374 41.7793 83.5089V83.4331H41.8553C43.4705 84.3616 45.1047 85.2712 46.7199 86.1808L49.1523 87.5641L51.5656 88.9664L51.6036 88.9853V89.0422C51.6036 89.9707 51.6036 90.8992 51.6036 91.8277L51.5846 94.6133L51.5086 100.147ZM51.5086 100.128L51.4516 94.5565L51.4326 91.7898C51.4326 90.8803 51.4326 89.9517 51.4326 89.0422L51.4706 89.118L49.0382 87.7346L46.6249 86.3324C45.0097 85.4039 43.4135 84.4564 41.7983 83.5279L41.8743 83.49C41.8743 84.4185 41.8553 85.3281 41.8553 86.2566C41.8553 87.1851 41.8553 88.0947 41.8553 89.0232V90.4065L41.8743 91.7898L41.8933 94.5565L41.8553 94.4996C42.6534 94.9544 43.4705 95.4092 44.2686 95.8829L46.6629 97.2852L51.5086 100.128Z" fill="black"/>
<path d="M57.3423 85.7079L55.5751 86.7501H55.5561H55.5371L53.1238 85.3858C52.3257 84.931 51.5086 84.4572 50.7104 83.9835C49.9123 83.5098 49.1142 83.055 48.3161 82.5812L45.9028 81.1979H45.8838L45.9218 81.179L47.689 80.1367L47.708 80.1178L47.727 80.1367L50.1404 81.5201L52.5537 82.9223L57.3423 85.7079ZM57.3233 85.7079L52.4777 82.9602L50.0834 81.5769L47.689 80.2125H47.727L45.9408 81.2169V81.179L48.3541 82.5623C49.1522 83.0171 49.9693 83.4719 50.7675 83.9266C51.5656 84.3814 52.3827 84.8362 53.1808 85.31L55.5751 86.7122H55.5561L57.3233 85.7079Z" fill="black"/>
<path d="M53.4467 98.2895L52.0405 99.1044V97.6453L53.4467 96.8304V98.2895Z" stroke="black" stroke-width="0.1455" stroke-miterlimit="10"/>
<path d="M55.309 97.2473L53.9028 98.0622V96.1104L55.309 95.2955V97.2473Z" stroke="black" stroke-width="0.1455" stroke-miterlimit="10"/>
<path d="M60.6865 85.9534L59.3184 86.7493V85.1954L60.6865 84.3995V85.9534Z" stroke="black" stroke-width="0.1455" stroke-miterlimit="10"/>
<path d="M51.9263 97.7402C51.9453 97.7782 53.4085 96.8114 53.4465 96.8683C53.5225 97.0199 52.0213 97.8919 52.1163 98.0246C52.1733 98.1383 53.3895 97.1147 53.4655 97.2474C53.5415 97.3801 52.0973 98.29 52.1543 98.4037C52.2303 98.5175 53.2564 97.6455 53.3135 97.7402C53.3705 97.835 52.0783 98.5933 52.1163 98.6501C52.1733 98.7639 53.2374 97.854 53.3135 97.9677C53.3515 98.0435 52.0783 98.8966 52.1543 99.0293C52.2303 99.162 53.5225 98.1194 53.5795 98.2142" stroke="black" stroke-width="0.1878" stroke-linecap="round" stroke-linejoin="round"/>
<path d="M54.0357 96.0536C54.0927 96.1483 55.2898 95.1819 55.3468 95.2956C55.4228 95.4282 53.8646 96.2051 53.9406 96.3188C54.0167 96.4515 55.1188 95.523 55.1758 95.5988C55.2138 95.6556 53.7886 96.6599 53.8646 96.8115C53.9406 96.9442 55.2708 95.902 55.3088 95.9778C55.3658 96.0915 53.8836 97.1526 53.9216 97.2474C53.9597 97.3042 55.4038 96.2999 55.4418 96.3757C55.4989 96.4704 53.6556 97.4179 53.7506 97.5885C53.8266 97.7211 55.2898 96.6031 55.3468 96.6789C55.4228 96.8115 53.8076 97.7211 53.9026 97.8727C53.9216 97.9106 55.3468 96.9442 55.3848 97.02C55.4228 97.0958 53.9216 97.7969 53.9787 97.9106C54.0167 97.9864 55.3848 97.0389 55.4228 97.0768C55.4609 97.1526 53.9977 97.9296 54.0167 97.9864C54.0927 98.1001 55.2138 97.1526 55.2708 97.2663" stroke="black" stroke-width="0.1878" stroke-linecap="round" stroke-linejoin="round"/>
<path d="M59.2046 85.2523C59.2806 85.366 60.6488 84.2479 60.7248 84.3806C60.8008 84.5322 59.1096 85.5744 59.1856 85.7071C59.2046 85.7639 60.4588 84.7975 60.5348 84.9301C60.6108 85.0628 59.2236 86.0292 59.2426 86.086C59.2616 86.1239 60.4968 85.1954 60.5728 85.3091C60.6108 85.3849 59.2426 86.3324 59.2616 86.4082C59.3186 86.5219 60.4778 85.5365 60.5538 85.6692C60.5918 85.726 59.3756 86.2755 59.4327 86.3703C59.4707 86.4271 60.4778 85.5934 60.5538 85.726C60.6488 85.8776 59.0906 86.7493 59.1286 86.8251C59.1476 86.863 60.4968 85.8587 60.5728 85.9913" stroke="black" stroke-width="0.1878" stroke-linecap="round" stroke-linejoin="round"/>
<path d="M47.7218 80.2128L46.019 81.2281L55.5087 86.6584L57.2508 85.682L47.7218 80.2128Z" fill="#FFFBEF"/>
<path d="M58.1785 65.9481L66.8127 70.9168L63.3488 72.9246L61.7618 73.8435L58.1273 75.9365L49.4932 70.9678L53.1277 68.8749L54.7146 67.956L58.1785 65.9481Z" fill="#F4ECD5"/>
<path d="M58.1953 65.9481C58.929 66.3565 59.6457 66.7479 60.3794 67.1562L62.5465 68.3814L64.7136 69.6065C65.4302 70.0149 66.164 70.4403 66.8636 70.8487L66.966 70.8997L66.8636 70.9508L64.6794 72.227L63.5874 72.8396L62.4953 73.4691C61.7616 73.8775 61.0449 74.3029 60.3282 74.7283C59.6116 75.1537 58.8778 75.5791 58.1612 75.9875H58.127L58.11 75.9705C56.6596 75.1537 55.2092 74.337 53.7758 73.5032L51.6088 72.261L49.4417 71.0359L49.3223 70.9678L49.4417 70.8827L51.6258 69.6406L53.81 68.3984L55.9941 67.1733L58.1953 65.9481L56.0282 67.2413L53.8612 68.5175L51.7112 69.7767L49.527 71.0359V70.8827L51.6941 72.1249L53.8441 73.3841C55.2945 74.2178 56.7108 75.0686 58.1441 75.9024H58.0929C58.8267 75.494 59.5433 75.0857 60.2771 74.6603C60.9937 74.2519 61.7275 73.8265 62.4441 73.4011L63.5362 72.7715L64.6112 72.1249L66.7783 70.8487V70.9678C66.0616 70.5594 65.3279 70.151 64.6112 69.7256L62.4782 68.5005L60.3282 67.2413C59.6116 66.8159 58.8949 66.3905 58.1953 65.9481Z" fill="black"/>
<path d="M66.8294 70.9338V80.8881L58.127 85.8908V75.9365L66.8294 70.9338Z" fill="#DACCBB"/>
<path d="M66.8297 70.9338C66.8468 71.7676 66.8639 72.5844 66.8639 73.4182L66.8809 75.9025L66.898 78.3868C66.898 79.2206 66.898 80.0373 66.898 80.8711V80.9222L66.8639 80.9392L64.6797 82.1643L63.5877 82.7769L62.4956 83.3895C61.7619 83.7978 61.0452 84.2232 60.3285 84.6486C59.6119 85.074 58.8781 85.4994 58.1615 85.9078L58.0932 85.9418V85.8738C58.0761 84.2232 58.0591 82.5557 58.0591 80.9051V78.4208V75.8855L58.0932 75.8684L60.2773 74.6263L62.4444 73.3841L64.6285 72.159L66.8297 70.9338L64.6627 72.227L62.4956 73.5032L60.3285 74.7624L58.1615 76.0216L58.1956 75.9535V78.4378V80.9222C58.1956 82.5727 58.1785 84.2403 58.1615 85.8908L58.0932 85.8568C58.8269 85.4484 59.5436 85.04 60.2773 84.6146C60.994 84.2062 61.7277 83.7808 62.4444 83.3554L63.5365 82.7258L64.6115 82.0792L66.7785 80.8031L66.7444 80.8541C66.7444 80.0203 66.7444 79.2036 66.7444 78.3698L66.7615 75.8855L66.7785 73.4011C66.7956 72.5844 66.7956 71.7506 66.8297 70.9338Z" fill="black"/>
<path d="M61.7446 76.3108L61.7104 75.1026C61.7104 74.8984 61.7104 74.6943 61.7104 74.473C61.7104 74.2689 61.7104 74.0647 61.7104 73.8435V73.8264H61.7275L62.12 73.6052L62.5124 73.384C62.7684 73.2309 63.0243 73.0778 63.2803 72.9246L63.3144 72.9076V72.9416C63.3144 73.299 63.3315 73.6563 63.3315 74.0136V74.5411V75.0686V75.0856L63.3144 75.1026C63.0414 75.3068 62.7854 75.511 62.5124 75.7152L61.7446 76.3108ZM61.7446 76.2937C62.0176 76.0725 62.2735 75.8683 62.5295 75.6471C62.7854 75.443 63.0243 75.2388 63.2974 75.0346L63.2803 75.0686V74.5411V74.0136C63.2803 73.6563 63.2803 73.299 63.2974 72.9416L63.3315 72.9586C63.0755 73.0948 62.8025 73.2479 62.5466 73.4011L62.1541 73.6223L61.7616 73.8605L61.7787 73.8435C61.7787 74.0477 61.7958 74.2348 61.7787 74.456C61.7787 74.6602 61.7787 74.8474 61.7787 75.0686L61.7446 76.2937Z" fill="black"/>
<path d="M58.1267 85.8737L49.4243 80.871V70.9167L58.1267 75.9194V85.8737Z" fill="#A59379"/>
<path d="M58.1271 85.8907L53.7759 83.4404L51.5747 82.1982C50.8581 81.7729 50.1243 81.3475 49.4077 80.9391L49.3735 80.9221V80.888L49.3906 78.4037L49.4077 77.1615V75.9194C49.4077 75.0856 49.4077 74.2689 49.4077 73.4351C49.4077 72.6013 49.3906 71.7845 49.3906 70.9508V70.8827H49.4589C50.9093 71.7165 52.3767 72.5332 53.8271 73.35L56.0112 74.5922L58.1783 75.8513L58.2124 75.8683V75.9194C58.2124 76.7532 58.2124 77.5869 58.2124 78.4207L58.1954 80.9221L58.1271 85.8907ZM58.1271 85.8737L58.0759 80.871L58.0589 78.3867C58.0589 77.5699 58.0589 76.7362 58.0589 75.9194L58.093 75.9875L55.9089 74.7453L53.7418 73.4861C52.2914 72.6523 50.8581 71.8015 49.4077 70.9678L49.4759 70.9337C49.4759 71.7675 49.4589 72.5843 49.4589 73.4181C49.4589 74.2518 49.4589 75.0686 49.4589 75.9024V77.1445L49.4759 78.3867L49.493 80.871L49.4589 80.82C50.1755 81.2283 50.9093 81.6367 51.6259 82.0621L53.7759 83.3213L58.1271 85.8737Z" fill="black"/>
<path d="M63.3655 72.9253L61.7786 73.8612H61.7615H61.7445L59.5774 72.6361C58.8607 72.2277 58.127 71.8023 57.4103 71.3769C56.6936 70.9515 55.977 70.5431 55.2603 70.1177L53.0932 68.8755H53.0762L53.1103 68.8585L54.6972 67.9227L54.7143 67.9056L54.7313 67.9227L56.8984 69.1648L59.0655 70.424L63.3655 72.9253ZM63.3484 72.9253L58.9972 70.458L56.8472 69.2159L54.6972 67.9907H54.7313L53.1274 68.8926V68.8585L55.2944 70.1007C56.0111 70.5091 56.7448 70.9175 57.4615 71.3258C58.1782 71.7342 58.9119 72.1426 59.6286 72.568L61.7786 73.8272H61.7615L63.3484 72.9253Z" fill="black"/>
<path d="M59.8677 84.2236L58.605 84.9556V83.6449L59.8677 82.913V84.2236Z" stroke="black" stroke-width="0.1455" stroke-miterlimit="10"/>
<path d="M61.54 83.2873L60.2773 84.019V82.2664L61.54 81.5347V83.2873Z" stroke="black" stroke-width="0.1455" stroke-miterlimit="10"/>
<path d="M66.3687 73.1464L65.1401 73.8613V72.4655L66.3687 71.7506V73.1464Z" stroke="black" stroke-width="0.1455" stroke-miterlimit="10"/>
<path d="M58.5024 83.73C58.5195 83.764 59.8334 82.8959 59.8675 82.947C59.9358 83.0832 58.5878 83.8662 58.6731 83.9853C58.7243 84.0875 59.8163 83.1683 59.8846 83.2874C59.9528 83.4066 58.656 84.2236 58.7072 84.3258C58.7755 84.4279 59.6969 83.6449 59.7481 83.73C59.7993 83.8151 58.6389 84.496 58.6731 84.547C58.7243 84.6492 59.6798 83.8321 59.7481 83.9343C59.7822 84.0023 58.6389 84.7683 58.7072 84.8875C58.7755 85.0066 59.9358 84.0704 59.987 84.1555" stroke="black" stroke-width="0.1878" stroke-linecap="round" stroke-linejoin="round"/>
<path d="M60.3964 82.2154C60.4475 82.3004 61.5225 81.4326 61.5737 81.5347C61.642 81.6538 60.2428 82.3515 60.311 82.4536C60.3793 82.5727 61.369 81.7389 61.4202 81.807C61.4543 81.858 60.1745 82.7599 60.2428 82.896C60.311 83.0151 61.5055 82.0792 61.5396 82.1473C61.5908 82.2494 60.2598 83.2023 60.294 83.2874C60.3281 83.3384 61.6249 82.4366 61.6591 82.5046C61.7102 82.5897 60.0551 83.4405 60.1404 83.5936C60.2087 83.7128 61.5225 82.7088 61.5737 82.7769C61.642 82.896 60.1916 83.7128 60.2769 83.8489C60.294 83.8829 61.5737 83.0151 61.6079 83.0832C61.642 83.1512 60.294 83.7808 60.3452 83.8829C60.3793 83.951 61.6079 83.1002 61.642 83.1342C61.6761 83.2023 60.3622 83.8999 60.3793 83.951C60.4475 84.0531 61.4543 83.2023 61.5055 83.3044" stroke="black" stroke-width="0.1878" stroke-linecap="round" stroke-linejoin="round"/>
<path d="M65.0376 72.5165C65.1059 72.6186 66.3344 71.6143 66.4027 71.7335C66.471 71.8696 64.9523 72.8058 65.0206 72.925C65.0376 72.9761 66.1638 72.108 66.2321 72.2271C66.3003 72.3463 65.0547 73.2144 65.0717 73.2654C65.0888 73.2995 66.1979 72.4654 66.2662 72.5675C66.3003 72.6356 65.0717 73.4867 65.0888 73.5548C65.14 73.6569 66.1809 72.7718 66.2491 72.891C66.2833 72.942 65.1912 73.4357 65.2424 73.5208C65.2765 73.5718 66.1809 72.8229 66.2491 72.942C66.3344 73.0782 64.9352 73.8612 64.9694 73.9293C64.9864 73.9633 66.1979 73.0612 66.2662 73.1803" stroke="black" stroke-width="0.1878" stroke-linecap="round" stroke-linejoin="round"/>
<path d="M54.7268 67.991L53.1978 68.9027L61.7191 73.7789L63.2834 72.9021L54.7268 67.991Z" fill="#FFFBEF"/>
<path d="M75.8221 37.173L84.4562 42.1416L80.9923 44.1495L79.4054 45.0683L75.7709 47.1613L67.1367 42.1927L70.7713 40.0997L72.3582 39.1808L75.8221 37.173Z" fill="#F4ECD5"/>
<path d="M75.8389 37.173C76.5726 37.5814 77.2893 37.9727 78.023 38.3811L80.1901 39.6062L82.3571 40.8314C83.0738 41.2398 83.8075 41.6652 84.5071 42.0735L84.6095 42.1246L84.5071 42.1756L82.323 43.4518L81.2309 44.0644L80.1389 44.694C79.4051 45.1024 78.6885 45.5278 77.9718 45.9532C77.2551 46.3786 76.5214 46.804 75.8047 47.2123H75.7706L75.7535 47.1953C74.3031 46.3786 72.8527 45.5618 71.4194 44.728L69.2523 43.4859L67.0853 42.2607L66.9658 42.1927L67.0853 42.1076L69.2694 40.8654L71.4535 39.6233L73.6377 38.3981L75.8389 37.173L73.6718 38.4662L71.5047 39.7424L69.3547 41.0015L67.1706 42.2607V42.1076L69.3377 43.3497L71.4877 44.6089C72.9381 45.4427 74.3543 46.2935 75.7877 47.1273H75.7365C76.4702 46.7189 77.1869 46.3105 77.9206 45.8851C78.6373 45.4767 79.371 45.0513 80.0877 44.6259L81.1797 43.9963L82.2547 43.3497L84.4218 42.0735V42.1927C83.7051 41.7843 82.9714 41.3759 82.2547 40.9505L80.1218 39.7254L77.9718 38.4662C77.2551 38.0408 76.5385 37.6154 75.8389 37.173Z" fill="black"/>
<path d="M84.4729 42.1587V52.113L75.7705 57.1157V47.1614L84.4729 42.1587Z" fill="#DACCBB"/>
<path d="M84.4733 42.1587C84.4904 42.9925 84.5074 43.8092 84.5074 44.643L84.5245 47.1273L84.5415 49.6116C84.5415 50.4454 84.5415 51.2622 84.5415 52.096V52.147L84.5074 52.164L82.3233 53.3892L81.2312 54.0017L80.1392 54.6143C79.4054 55.0227 78.6888 55.4481 77.9721 55.8735C77.2554 56.2989 76.5217 56.7243 75.805 57.1327L75.7368 57.1667V57.0986C75.7197 55.4481 75.7026 53.7805 75.7026 52.13V49.6457V47.1103L75.7368 47.0933L77.9209 45.8511L80.088 44.609L82.2721 43.3838L84.4733 42.1587L82.3062 43.4519L80.1392 44.7281L77.9721 45.9873L75.805 47.2464L75.8391 47.1784V49.6627V52.147C75.8391 53.7976 75.8221 55.4651 75.805 57.1157L75.7368 57.0816C76.4705 56.6732 77.1872 56.2649 77.9209 55.8395C78.6376 55.4311 79.3713 55.0057 80.088 54.5803L81.18 53.9507L82.255 53.3041L84.4221 52.0279L84.388 52.0789C84.388 51.2452 84.388 50.4284 84.388 49.5946L84.405 47.1103L84.4221 44.626C84.4392 43.8092 84.4392 42.9755 84.4733 42.1587Z" fill="black"/>
<path d="M79.3881 47.5356L79.354 46.3275C79.354 46.1233 79.354 45.9191 79.354 45.6979C79.354 45.4937 79.354 45.2895 79.354 45.0683V45.0513H79.3711L79.7635 44.8301L80.156 44.6089C80.4119 44.4557 80.6679 44.3026 80.9238 44.1495L80.958 44.1324V44.1665C80.958 44.5238 80.975 44.8811 80.975 45.2385V45.766V46.2935V46.3105L80.958 46.3275C80.6849 46.5317 80.429 46.7359 80.156 46.9401L79.3881 47.5356ZM79.3881 47.5186C79.6611 47.2974 79.9171 47.0932 80.173 46.872C80.429 46.6678 80.6679 46.4636 80.9409 46.2594L80.9238 46.2935V45.766V45.2385C80.9238 44.8811 80.9238 44.5238 80.9409 44.1665L80.975 44.1835C80.7191 44.3196 80.4461 44.4728 80.1901 44.6259L79.7977 44.8471L79.4052 45.0853L79.4223 45.0683C79.4223 45.2725 79.4393 45.4597 79.4223 45.6809C79.4223 45.8851 79.4223 46.0723 79.4223 46.2935L79.3881 47.5186Z" fill="black"/>
<path d="M75.7703 57.0986L67.0679 52.0959V42.1416L75.7703 47.1443V57.0986Z" fill="#A59379"/>
<path d="M75.7707 57.1156L71.4195 54.6653L69.2183 53.4231C68.5016 52.9977 67.7679 52.5723 67.0512 52.1639L67.0171 52.1469V52.1129L67.0342 49.6286L67.0512 48.3864V47.1442C67.0512 46.3105 67.0512 45.4937 67.0512 44.6599C67.0512 43.8261 67.0342 43.0094 67.0342 42.1756V42.1075H67.1024C68.5528 42.9413 70.0203 43.7581 71.4707 44.5748L73.6548 45.817L75.8219 47.0762L75.856 47.0932V47.1442C75.856 47.978 75.856 48.8118 75.856 49.6456L75.8389 52.1469L75.7707 57.1156ZM75.7707 57.0985L75.7195 52.0959L75.7024 49.6115C75.7024 48.7948 75.7024 47.961 75.7024 47.1442L75.7365 47.2123L73.5524 45.9701L71.3853 44.711C69.9349 43.8772 68.5016 43.0264 67.0512 42.1926L67.1195 42.1586C67.1195 42.9924 67.1024 43.8091 67.1024 44.6429C67.1024 45.4767 67.1024 46.2935 67.1024 47.1272V48.3694L67.1195 49.6115L67.1365 52.0959L67.1024 52.0448C67.8191 52.4532 68.5528 52.8616 69.2695 53.287L71.4195 54.5462L75.7707 57.0985Z" fill="black"/>
<path d="M81.009 44.1502L79.4221 45.086H79.4051H79.388L77.2209 43.8609C76.5043 43.4525 75.7705 43.0271 75.0539 42.6017C74.3372 42.1763 73.6205 41.768 72.9039 41.3426L70.7368 40.1004H70.7197L70.7539 40.0834L72.3408 39.1475L72.3578 39.1305L72.3749 39.1475L74.542 40.3897L76.709 41.6488L81.009 44.1502ZM80.992 44.1502L76.6408 41.6829L74.4908 40.4407L72.3408 39.2156H72.3749L70.7709 40.1174V40.0834L72.938 41.3255C73.6547 41.7339 74.3884 42.1423 75.1051 42.5507C75.8217 42.9591 76.5555 43.3674 77.2721 43.7928L79.4221 45.052H79.4051L80.992 44.1502Z" fill="black"/>
<path d="M77.5112 55.4485L76.2485 56.1804V54.8698L77.5112 54.1378V55.4485Z" stroke="black" stroke-width="0.1455" stroke-miterlimit="10"/>
<path d="M79.1836 54.5122L77.9209 55.2438V53.4912L79.1836 52.7595V54.5122Z" stroke="black" stroke-width="0.1455" stroke-miterlimit="10"/>
<path d="M84.0123 44.3713L82.7837 45.0862V43.6904L84.0123 42.9755V44.3713Z" stroke="black" stroke-width="0.1455" stroke-miterlimit="10"/>
<path d="M76.146 54.9549C76.1631 54.9889 77.477 54.1208 77.5111 54.1718C77.5793 54.308 76.2313 55.091 76.3166 55.2102C76.3678 55.3123 77.4599 54.3931 77.5281 54.5123C77.5964 54.6314 76.2996 55.4485 76.3508 55.5506C76.419 55.6527 77.3404 54.8697 77.3916 54.9549C77.4428 55.04 76.2825 55.7208 76.3166 55.7719C76.3678 55.874 77.3234 55.057 77.3916 55.1591C77.4258 55.2272 76.2825 55.9932 76.3508 56.1123C76.419 56.2315 77.5793 55.2953 77.6305 55.3804" stroke="black" stroke-width="0.1878" stroke-linecap="round" stroke-linejoin="round"/>
<path d="M78.0399 53.4401C78.0911 53.5252 79.1661 52.6574 79.2173 52.7595C79.2855 52.8786 77.8863 53.5762 77.9546 53.6783C78.0228 53.7974 79.0125 52.9637 79.0637 53.0317C79.0978 53.0828 77.8181 53.9846 77.8863 54.1207C77.9546 54.2398 79.149 53.304 79.1832 53.372C79.2344 53.4741 77.9034 54.427 77.9375 54.5121C77.9717 54.5631 79.2685 53.6613 79.3026 53.7294C79.3538 53.8144 77.6986 54.6652 77.784 54.8184C77.8522 54.9375 79.1661 53.9336 79.2173 54.0016C79.2855 54.1207 77.8351 54.9375 77.9205 55.0736C77.9375 55.1077 79.2173 54.2398 79.2514 54.3079C79.2855 54.376 77.9375 55.0056 77.9887 55.1077C78.0228 55.1757 79.2514 54.3249 79.2855 54.359C79.3197 54.427 78.0058 55.1247 78.0228 55.1757C78.0911 55.2778 79.0978 54.427 79.149 54.5291" stroke="black" stroke-width="0.1878" stroke-linecap="round" stroke-linejoin="round"/>
<path d="M82.6812 43.7413C82.7494 43.8435 83.978 42.8392 84.0463 42.9583C84.1145 43.0945 82.5959 44.0307 82.6641 44.1499C82.6812 44.2009 83.8074 43.3328 83.8756 43.452C83.9439 43.5711 82.6982 44.4392 82.7153 44.4903C82.7324 44.5243 83.8415 43.6903 83.9098 43.7924C83.9439 43.8605 82.7153 44.7116 82.7324 44.7797C82.7836 44.8818 83.8244 43.9967 83.8927 44.1158C83.9268 44.1669 82.8347 44.6605 82.8859 44.7456C82.9201 44.7967 83.8244 44.0477 83.8927 44.1669C83.978 44.3031 82.5788 45.0861 82.6129 45.1541C82.63 45.1882 83.8415 44.286 83.9098 44.4052" stroke="black" stroke-width="0.1878" stroke-linecap="round" stroke-linejoin="round"/>
<path d="M72.3703 39.2158L70.8413 40.1276L79.3627 45.0037L80.9269 44.127L72.3703 39.2158Z" fill="#FFFBEF"/>
</svg>
