<svg xmlns="http://www.w3.org/2000/svg" width="150" height="110" fill="none"  xmlns:v="https://vecta.io/nano"><g clip-path="url(#D)"><path d="M36.986 26.789l36.059 20.72-21.094 12.205-15.179 8.728L.713 47.723l15.179-8.728 6.628-3.832 14.466-8.373z" fill="#f4ecd5"/><path d="M37.057 26.789l9.122 5.038 18.101 10.218 8.979 5.18.428.213-.428.213-9.122 5.322-4.561 2.554-4.561 2.626c-3.064 1.703-6.057 3.477-9.05 5.251l-9.05 5.251h-.142l-.071-.071L18.6 58.296l-9.05-5.18-9.05-5.109L0 47.723l.499-.355 18.243-10.36 9.122-5.109 9.193-5.109-9.05 5.393-9.05 5.322-8.979 5.251-9.122 5.251v-.639l9.05 5.18 26.937 15.753h-.214l9.122-5.18 9.05-5.251 4.561-2.626 4.49-2.697 9.05-5.322v.497l-9.05-5.18-8.908-5.109-8.979-5.251-8.908-5.393z" fill="#000"/><path d="M73.116 47.581v41.512l-36.344 20.863V68.443l36.344-20.862z" fill="#daccbb"/><g fill="#000"><path d="M73.116 47.581l.142 10.36.142 20.72v10.573l-.142.071-18.243 10.218c-3.064 1.703-6.057 3.477-9.05 5.251l-9.05 5.252-.285.141v-.283l-.142-20.721V68.23l.142-.071 9.122-5.18 9.05-5.18 9.122-5.109 9.193-5.109-9.05 5.393-9.05 5.322-18.101 10.502.142-.284v20.72l-.142 20.721-.285-.142 9.122-5.18 9.05-5.251 4.561-2.626 4.49-2.697 9.05-5.322-.142.213V78.59l.142-20.72.214-10.289z"/><path d="M51.879 70.004l-.142-5.038v-5.322h.071l3.278-1.845 3.207-1.916.142-.071v.142l.071 4.47v4.47l-.071.071-3.349 2.555-3.207 2.484zm0-.071l3.278-2.697 3.207-2.555-.071.142v-4.4l.071-4.47.142.071-4.917 2.767-1.639.993.071-.071v5.109l-.143 5.109z"/></g><path d="M36.772 109.884L.428 89.021V47.51l36.344 20.862v41.512z" fill="#a59379"/><g fill="#000"><path d="M36.772 109.955L9.407 94.556.356 89.305l-.143-.071v-.142l.071-10.36.071-5.18v-15.54l-.071-10.36v-.284H.57l18.243 10.289 9.122 5.18 9.05 5.251.143.071v10.644l-.071 10.431-.285 20.721zm0-.071l-.214-20.862-.071-10.36v-10.29l.142.284-9.122-5.18L.356 47.723l.285-.142-.071 10.36v15.54l.071 5.18.071 10.36-.143-.213 9.05 5.18L18.6 99.24l18.172 10.644zm21.877-54.001l-6.627 3.903h-.142l-9.05-5.109-9.05-5.251-8.979-5.251-9.05-5.18h-.071l.143-.071 6.627-3.903.071-.071.071.071 9.05 5.18 27.009 15.682zm-.071 0L40.406 45.594l-8.979-5.18-8.979-5.109h.142l-6.699 3.761v-.142l9.05 5.18 9.05 5.109 9.05 5.18 8.979 5.251h-.071l6.627-3.761z"/></g><g stroke="#000"><g stroke-width=".146" stroke-miterlimit="10"><path d="M44.041 103.001l-5.273 3.051v-5.464l5.273-3.051v5.464zm6.983-3.903l-5.273 3.051V94.84l5.273-3.051v7.309zm20.168-42.292l-5.131 2.98v-5.819l5.131-2.98v5.819z"/></g><g stroke-width=".188" stroke-linecap="round" stroke-linejoin="round"><path d="M38.339 100.943c.071.142 5.559-3.477 5.701-3.264.285.568-5.345 3.832-4.988 4.329.214.426 4.775-3.406 5.06-2.909s-5.131 3.902-4.917 4.328c.285.426 4.133-2.838 4.347-2.483s-4.632 3.193-4.489 3.406c.214.425 4.205-2.981 4.49-2.555.143.284-4.632 3.477-4.347 3.974s5.131-3.406 5.345-3.051m1.709-8.091c.214.355 4.703-3.264 4.917-2.838.285.497-5.558 3.406-5.273 3.832.285.497 4.418-2.98 4.632-2.697.142.213-5.202 3.974-4.917 4.541.285.497 5.273-3.406 5.416-3.122.214.426-5.345 4.399-5.202 4.754.142.213 5.558-3.548 5.701-3.264.214.355-6.699 3.903-6.342 4.541.285.497 5.772-3.69 5.986-3.406.285.497-5.772 3.903-5.416 4.47.071.142 5.416-3.477 5.558-3.193s-5.487 2.91-5.273 3.335c.142.284 5.273-3.264 5.416-3.122.143.284-5.345 3.193-5.273 3.406.285.426 4.49-3.122 4.703-2.696m14.75-44.988c.285.426 5.416-3.761 5.701-3.264.285.568-6.057 4.471-5.772 4.967.071.213 4.775-3.406 5.06-2.909s-4.917 4.116-4.846 4.329c.071.142 4.703-3.335 4.988-2.909.142.284-4.988 3.832-4.917 4.116.214.426 4.561-3.264 4.846-2.767.142.213-4.418 2.271-4.204 2.626.142.213 3.919-2.909 4.204-2.413.356.568-5.487 3.832-5.345 4.116.071.142 5.131-3.619 5.416-3.122"/></g></g><path d="M113.792 26.86l36.059 20.72-21.093 12.205-15.179 8.728-36.131-20.791 15.179-8.728 6.627-3.832 14.537-8.302z" fill="#f4ecd5"/><path d="M113.793 26.789l9.121 5.038 18.101 10.218 8.979 5.18.428.213-.428.213-9.121 5.18-4.561 2.554-4.561 2.626c-3.064 1.703-6.057 3.477-9.051 5.251l-9.05 5.251-.071.071-.071-.071-18.101-10.289-18.6-10.644 9.62-5.464 9.122-5.18 9.122-5.109 9.122-5.038-8.98 5.393-9.05 5.322-18.101 10.502v-.568l9.05 5.18 26.937 15.753h-.214l9.122-5.18 9.05-5.251 4.561-2.626 4.49-2.697 9.05-5.322v.497l-9.05-5.18-8.979-5.18-8.98-5.251-8.907-5.393z" fill="#000"/><path d="M149.851 47.581v41.512l-36.344 20.863V68.443l36.344-20.862z" fill="#daccbb"/><g fill="#000"><path d="M149.923 47.581l.143 10.36.142 20.72v10.502l-.142.071-18.244 10.218c-3.064 1.704-6.057 3.478-9.05 5.251l-9.05 5.251-.286.141v-.283l-.142-20.721V68.23l.142-.071 9.122-5.18 9.051-5.18 9.121-5.109 9.193-5.109-9.05 5.393-9.051 5.322-9.05 5.251-9.05 5.18.142-.284v20.72l-.142 20.721-.286-.142 9.122-5.18 9.051-5.251 4.56-2.626 4.49-2.697 9.05-5.322-.142.213v-10.36l.142-20.72c0-3.335.072-6.812.214-10.218z"/><path d="M128.686 70.004l-.142-5.038v-5.322h.071l3.278-1.845 3.207-1.916.143-.071v.142l.071 4.47v4.47l-.071.071-3.35 2.555-3.207 2.484zm0 0l3.279-2.697 3.206-2.555-.071.142v-4.399l.071-4.471.143.071-4.917 2.767-1.639.994.071-.071v2.555c-.071.922 0 1.632 0 2.554l-.143 5.109z"/></g><path d="M113.579 109.955L77.235 89.092V47.581l36.344 20.862v41.512z" fill="#a59379"/><g fill="#000"><path d="M113.579 109.955L95.407 99.807l-9.193-5.18-9.122-5.251-.142-.071v-.142l.071-10.502.071-5.18v-15.54l-.071-10.36v-.284l.285.142 18.243 10.289 9.122 5.18 9.05 5.251.143.071v10.644l-.071 10.431-.214 20.65zm-.071-.071l-.214-20.863-.071-10.289V68.443l.142.284-9.122-5.18-9.05-5.251-18.101-10.573.285-.142-.071 10.36v15.54l.071 5.18.071 10.36-.143-.213 9.05 5.18 9.05 5.251 18.101 10.644zm21.877-53.93l-6.627 3.903h-.143l-8.979-5.18-9.05-5.251-8.98-5.251-9.192-5.18.142-.071 6.627-3.903.071-.071.071.071 9.05 5.18 9.051 5.251 17.958 10.502zm-.071 0l-18.172-10.289-17.958-10.36h.142l-6.699 3.761v-.142l9.051 5.18 9.05 5.109 9.051 5.18 8.979 5.251h-.072l6.628-3.69z"/></g><g stroke="#000"><g stroke-width=".146" stroke-miterlimit="10"><path d="M120.848 103.071l-5.274 3.052v-5.464l5.274-3.052v5.463zm6.984-3.902l-5.274 3.051v-7.309l5.274-3.051v7.309zm20.167-42.363l-5.131 2.98v-5.819l5.131-2.98v5.819z"/></g><g stroke-width=".188" stroke-linecap="round" stroke-linejoin="round"><path d="M115.075 100.943c.071.142 5.559-3.477 5.701-3.264.285.568-5.344 3.832-4.988 4.329.214.426 4.774-3.406 5.059-2.909s-5.13 3.902-4.917 4.328c.285.426 4.134-2.838 4.347-2.483s-4.632 3.193-4.489 3.406c.214.425 4.204-2.981 4.489-2.555.143.284-4.632 3.477-4.347 3.974s5.131-3.406 5.345-3.051m1.711-8.091c.213.355 4.703-3.264 4.917-2.838.285.497-5.559 3.406-5.274 3.832.285.497 4.419-2.98 4.632-2.696.143.213-5.202 3.974-4.917 4.541.285.497 5.274-3.406 5.416-3.122.214.426-5.345 4.4-5.202 4.754.143.213 5.559-3.548 5.701-3.264.214.355-6.699 3.903-6.342 4.541.285.497 5.772-3.69 5.986-3.406.285.497-5.773 3.903-5.416 4.47.071.142 5.416-3.477 5.558-3.193s-5.487 2.91-5.273 3.335c.142.284 5.273-3.264 5.416-3.122.142.284-5.345 3.193-5.274 3.406.285.426 4.49-3.122 4.704-2.696m14.751-44.918c.285.426 5.416-3.761 5.701-3.264.285.568-6.057 4.47-5.772 4.967.071.213 4.775-3.406 5.06-2.909s-4.918 4.116-4.846 4.328 4.703-3.335 4.988-2.909c.143.284-4.988 3.832-4.917 4.116.214.426 4.561-3.264 4.846-2.767.142.213-4.418 2.271-4.205 2.626.143.213 3.92-2.909 4.205-2.413.356.568-5.487 3.832-5.345 4.116.071.142 5.131-3.619 5.416-3.122"/></g></g><g fill="#fffbef"><path d="M99.973 35.79L93.1 38.868l35.504 20.679 6.533-3.656L99.973 35.79zm-77.401-.484l-6.386 3.802 35.588 20.335 6.533-3.656-35.735-20.48z"/></g><g fill="#8cc4d6"><path d="M93.46 30.606v4.258l-2.423-.142-1.425-1.987 3.848-2.129zm-34.206 0v4.258l2.423-.142 1.425-1.987-3.848-2.129z"/><path d="M86.405 33.87l-2.637 1.135-2.423-.568-.428-1.916c-.143-.78-1.283-1.348-2.637-1.348h-3.919c-1.354 0-2.423.568-2.637 1.348l-.428 1.916c-.855.142-1.639.355-2.423.568l-2.637-1.135c-1.069-.497-2.565-.426-3.492.142l-2.779 1.632c-.926.568-.998 1.419-.214 1.987l2.067 1.49c-.427.426-.713.922-.998 1.419l-3.278.213c-1.354.071-2.352.71-2.28 1.49v2.271c0 .781.998 1.419 2.28 1.49l3.278.213c.285.497.57.922.998 1.419l-2.067 1.49c-.855.568-.713 1.49.214 1.987l2.779 1.632c.926.568 2.423.568 3.492.142l2.637-1.206 2.423.568.428 1.916c.142.781 1.283 1.348 2.637 1.348h3.919c1.354 0 2.423-.568 2.637-1.348l.428-1.916c.784-.142 1.639-.355 2.423-.568l2.637 1.135c1.069.497 2.565.426 3.492-.142l2.779-1.632c.926-.568.998-1.419.214-1.987l-2.067-1.49c.428-.426.713-.922.998-1.419l3.278-.213c1.354-.071 2.352-.71 2.281-1.49v-2.271c0-.781-.998-1.419-2.281-1.49l-3.278-.213a8.62 8.62 0 0 0-.998-1.419l1.995-1.49c.855-.568.713-1.49-.214-1.987l-2.779-1.632c-.926-.497-2.423-.497-3.421-.071zm-5.06 12.347c-2.708 1.561-7.198 1.561-9.906 0s-2.708-4.116 0-5.748c2.708-1.561 7.198-1.561 9.906 0 2.708 1.632 2.708 4.187 0 5.748z"/><path d="M55.263 37.631l6.556.355 3.706 4.4 13.754 1.916 7.126-4.754 10.974-2.342v4.825l-3.919 1.916v6.103l-4.133-.426-19.74.355-4.846 2.413-5.487-2.413v-3.974l-2.565-.851-1.425-.639v-6.883z"/></g><path d="M86.405 27.838l-2.637 1.135-2.423-.568-.428-1.916c-.143-.781-1.283-1.348-2.637-1.348h-3.919c-1.354 0-2.423.568-2.637 1.348l-.427 1.916c-.855.142-1.639.355-2.423.568l-2.637-1.135c-1.069-.497-2.565-.426-3.492.142l-2.779 1.632c-.926.568-.998 1.419-.214 1.987l2.067 1.49c-.428.426-.713.922-.998 1.419l-3.207.142c-1.354.071-2.352.71-2.28 1.49v2.271c0 .781.998 1.419 2.28 1.49l3.278.213a8.61 8.61 0 0 0 .998 1.419l-2.067 1.49c-.855.568-.713 1.49.214 1.987l2.779 1.632c.926.568 2.423.568 3.492.142l2.637-1.206 2.423.568.428 1.916c.142.78 1.283 1.348 2.637 1.348h3.919c1.354 0 2.423-.568 2.637-1.348l.428-1.916c.784-.142 1.639-.355 2.423-.568l2.637 1.135c1.069.497 2.565.426 3.492-.142l2.779-1.632c.926-.568.998-1.419.214-1.987l-2.067-1.49c.427-.426.713-.922.998-1.419l3.278-.213c1.354-.071 2.352-.71 2.281-1.49V36.07c0-.781-.998-1.419-2.281-1.49l-3.278-.213c-.285-.497-.57-.922-.998-1.419l1.995-1.49c.855-.568.713-1.49-.214-1.987l-2.779-1.632c-.998-.426-2.494-.497-3.492 0zm-5.06 12.347c-2.708 1.561-7.198 1.561-9.906 0s-2.708-4.116 0-5.748c2.708-1.561 7.198-1.561 9.906 0s2.708 4.116 0 5.748z" fill="#d5edf4"/><g fill="#000"><path d="M59.254 34.58c-.071-.355-.071-.639-.071-.993s.071-.639 0-.993c-.071-.639-.071-1.277.071-1.916.071.639.071 1.277.071 1.916-.071.355 0 .639 0 .993 0 .284 0 .639-.071.993z"/><path d="M59.254 30.677c.071.284.214.568.428.71s.499.355.713.568a6.74 6.74 0 0 0 1.425 1.064h.071l-.071.071a10.16 10.16 0 0 0-.998 1.419v.071h-1.639c.285-.071.499-.071.784-.142.285 0 .499-.071.784-.071l-.071.071c.285-.497.641-.993 1.069-1.419v.071c-.428-.426-.926-.71-1.425-1.064-.285-.142-.499-.355-.713-.568s-.428-.497-.356-.78zm34.206 0l.071 1.916v2.058h-.071c-.499-.071-1.069-.071-1.568-.071-.285-.497-.641-.922-.998-1.348l-.071-.071.071-.071 1.425-1.064c.356-.497.998-.71 1.14-1.348zm0 0c0 .284-.214.568-.428.781l-.713.568-1.425 1.064v-.142a10.16 10.16 0 0 1 .998 1.419h-.071c.499.071 1.069.142 1.568.142l-.071.071c0-.639-.071-1.277 0-1.845.142-.71.142-1.348.142-2.058zm-10.903 3.051c-1.639-.922-3.492-1.277-5.273-1.419-1.853-.071-3.706.142-5.416.71-.855.284-1.71.71-2.423 1.277s-1.354 1.277-1.639 2.129c-.142.426-.214.922-.142 1.348a3.18 3.18 0 0 0 .499 1.277c.499.78 1.283 1.348 2.067 1.845 1.639.852 3.421 1.277 5.273 1.419 1.853.071 3.706-.071 5.416-.71.855-.284 1.71-.71 2.423-1.277.713-.497 1.354-1.277 1.639-2.129s.143-1.845-.356-2.626c-.57-.781-1.283-1.348-2.067-1.845zm0 0c.784.426 1.568 1.064 2.067 1.845s.713 1.774.428 2.697-.926 1.632-1.639 2.2c-.784.568-1.568.993-2.494 1.277-1.782.568-3.634.78-5.487.71-1.853-.142-3.706-.568-5.345-1.49-.784-.497-1.568-1.064-2.067-1.845s-.713-1.774-.428-2.696.927-1.632 1.639-2.2 1.568-.993 2.494-1.277c1.782-.639 3.634-.78 5.487-.71 1.924.142 3.777.568 5.345 1.49zm-6.2-.497c1.496 0 2.993.213 4.347.781.713.284 1.354.71 1.853 1.206s.926 1.277.926 1.987c0 .78-.428 1.49-.926 1.987a5.56 5.56 0 0 1-1.853 1.206c-1.354.568-2.85.852-4.347.852s-2.993-.213-4.347-.852c-.713-.284-1.354-.71-1.853-1.206-.499-.568-.926-1.277-.926-2.058s.356-1.49.926-2.058c.499-.568 1.212-.923 1.853-1.206 1.354-.426 2.851-.639 4.347-.639-1.497.071-2.993.284-4.276.922-.641.284-1.283.71-1.782 1.206l-.641.851a2.85 2.85 0 0 0-.214 1.064c0 .71.356 1.419.855 1.916s1.14.922 1.782 1.206a11.21 11.21 0 0 0 4.276.852c1.496 0 2.993-.213 4.347-.852.641-.284 1.283-.71 1.782-1.206s.855-1.206.855-1.916c0-.355-.071-.71-.214-1.064a1.94 1.94 0 0 0-.641-.851c-.499-.497-1.14-.922-1.782-1.206a13.24 13.24 0 0 0-4.347-.922z"/><path d="M76.571 38.27l-3.136.355c-.499.071-.998.213-1.496.355s-.998.355-1.425.639v-.071c.356.284.713.568 1.14.71h-.071c1.496-.71 3.136-1.064 4.775-.993-.784.071-1.639.142-2.423.355s-1.568.426-2.28.781h-.071c-.428-.213-.784-.497-1.14-.781l-.071-.071h.071l1.425-.568c.499-.142.998-.355 1.496-.426 1.069-.284 2.138-.355 3.207-.284z"/><path d="M76.357 39.263c.784-.071 1.639.071 2.423.213s1.568.497 2.28.851c.214-.142.427-.213.57-.355.214-.142.356-.284.57-.426v.071c-.855-.426-1.782-.71-2.779-.922a19.31 19.31 0 0 0-2.922-.426c.998 0 1.995.071 2.922.284.998.213 1.924.497 2.779.993l.071.071-.071.071c-.214.142-.356.284-.57.426s-.428.213-.641.355c-.713-.355-1.497-.568-2.28-.71-.713-.355-1.568-.426-2.352-.497zm-17.103 6.812l-1.354-.071c-.428 0-.927-.071-1.354-.213s-.855-.355-1.14-.71a1.14 1.14 0 0 1-.214-.639v-5.961h.143c0 .497.428.852.926 1.135.499.213.998.355 1.496.355l3.136.213c.143.284.356.497.499.71s.285.497.499.71l-1.496 1.135c-.214.213-.499.355-.713.568s-.356.497-.356.781.142.568.428.781c.214.213.499.355.784.497l1.639.922c.57.284 1.069.639 1.639.781a3.78 3.78 0 0 0 1.782 0c.57-.071 1.14-.426 1.71-.639l1.71-.781 2.423.568h.071v.071l.356 1.703c.071.568.57.993 1.069 1.206.57.213 1.14.284 1.71.284h1.782c-2.352 0-2.993-.071-3.563-.284s-1.069-.639-1.14-1.277l-.356-1.703.071.071-2.565-.568h.071l-1.71.781c-.57.213-1.14.568-1.71.639a4.08 4.08 0 0 1-1.853 0c-.641-.142-1.14-.497-1.71-.78l-1.568-.922c-.285-.142-.57-.284-.784-.497s-.428-.497-.428-.852a1.01 1.01 0 0 1 .428-.852c.214-.213.499-.355.713-.568l1.496-1.064v.071c-.214-.213-.356-.426-.499-.71l-.499-.71-3.135-.213c-.499 0-1.069-.142-1.568-.355s-.998-.639-.998-1.206h.142v5.322c0 .426-.071.922.214 1.277s.713.568 1.069.71a4.05 4.05 0 0 0 1.283.213l1.425.071zm9.692 5.606l-2.494 1.206c-.855.426-1.853.426-2.708.213-.428-.071-.855-.284-1.283-.568l-2.423-1.277c-.428-.213-.855-.568-.855-1.135l.071.071h-.071v-2.058l.071-1.987.071 1.987v1.987l-.071-.071h.071v.071c0 .426.356.78.784.993l2.423 1.419c.356.213.784.497 1.283.568a4.15 4.15 0 0 0 2.637-.284c.784-.426 1.639-.781 2.494-1.135z"/><path d="M83.768 51.681l-2.423.639.071-.071-.356 1.703c-.071.639-.641 1.064-1.212 1.277s-1.14.284-1.782.284h-3.563c-.57 0-1.212-.071-1.782-.284-.285-.142-.57-.284-.784-.497a1.69 1.69 0 0 1-.428-.781l-.356-1.703.071.071-2.423-.639 2.423.497h.071v.071c.356 1.064.214 2.555 1.496 2.909.499.213 1.14.284 1.71.284h3.563c.57 0 1.211-.071 1.71-.284 1.283-.355 1.14-1.845 1.496-2.909v-.071l2.494-.497z"/><path d="M93.46 46.075l.071 1.987v2.058h-.071l.071-.071c0 .497-.428.922-.784 1.135-.428.213-.784.426-1.212.71l-1.211.71c-.356.213-.784.497-1.283.568-.926.213-1.924.142-2.779-.284l-2.494-1.206 2.565 1.064c.855.355 1.782.426 2.637.284.428-.071.855-.284 1.283-.497l1.212-.639a10.73 10.73 0 0 0 1.211-.71c.356-.213.713-.639.713-1.064v-.071h.071l-.071.071v-1.987l.071-2.058zm-17.103 3.406h1.782c.57 0 1.14-.071 1.71-.284.499-.213 1.069-.639 1.069-1.206l.356-1.703v-.071h.071l2.423-.568 1.71.781c.57.213 1.14.568 1.71.639a3.78 3.78 0 0 0 1.782 0c.641-.142 1.14-.497 1.639-.781l1.568-.922c.285-.142.57-.284.784-.497s.356-.497.356-.781-.142-.568-.356-.781-.499-.355-.713-.568l-1.496-1.064-.071-.071.071-.071a2.55 2.55 0 0 0 .499-.71c.142-.213.356-.426.499-.71v-.071h.071l3.136-.213c.499 0 .998-.142 1.497-.355.428-.213.926-.568.926-1.064h.143v5.961c0 .213-.071.497-.214.639-.285.355-.713.568-1.14.71s-.855.142-1.354.213l-1.354.071 1.354-.142a4.05 4.05 0 0 0 1.283-.213c.428-.142.855-.355 1.069-.71.285-.355.214-.781.214-1.277V38.34h.143c0 .639-.499.993-.998 1.206s-.998.355-1.568.355l-3.136.213.071-.071c-.143.284-.356.497-.499.71l-.499.71v-.071l1.496 1.135c.214.213.499.355.713.568s.428.497.428.852-.214.639-.428.852-.499.355-.784.497l-1.639.922c-.499.284-1.069.639-1.639.781-.641.142-1.211.142-1.853.071-.641-.142-1.14-.426-1.71-.639l-1.71-.71h.071l-2.423.568.071-.071-.356 1.703c-.071.639-.641 1.064-1.14 1.277-.57.213-1.14.284-1.781.284h-1.853z"/><path d="M76.357 49.481h1.782c.57 0 1.14-.071 1.71-.284.499-.213 1.069-.639 1.069-1.206l.356-1.703v-.071h.071l2.423-.568 1.71.781c.57.213 1.069.568 1.71.639a4.08 4.08 0 0 0 1.853 0c.641-.142 1.14-.497 1.639-.781l1.568-.922c.285-.142.57-.284.784-.497s.356-.497.356-.781-.142-.568-.356-.781-.499-.355-.713-.568l-1.496-1.064-.071-.071.071-.071a2.55 2.55 0 0 0 .499-.71c.142-.213.356-.426.499-.71v-.071h.071l3.349-.213c.57-.071 1.069-.142 1.568-.426.214-.142.428-.284.57-.568.143-.213.143-.497.143-.781v-1.632c0-.284 0-.568-.143-.781a2.17 2.17 0 0 0-.57-.568c-.998-.568-2.138-.426-3.207-.568l1.639.071a3.32 3.32 0 0 1 1.639.426c.214.142.499.284.641.568.071.142.143.284.143.426v2.058c0 .284.071.568-.143.852-.143.284-.356.426-.641.568-.499.284-1.069.426-1.639.497l-3.349.213.071-.071c-.142.284-.356.497-.499.71l-.499.71v-.142l1.496 1.135c.214.213.499.355.713.568s.428.497.428.852-.214.639-.428.852-.499.355-.784.497l-1.639.922c-.57.284-1.069.639-1.639.78s-1.212.142-1.853.071c-.641-.142-1.14-.426-1.71-.639l-1.71-.71h.071l-2.423.568.071-.071-.356 1.703c-.071.639-.641 1.064-1.14 1.277-.57.213-1.14.284-1.782.284h-1.924zm.001-24.339h-1.782c-.57 0-1.212.071-1.71.284s-1.069.639-1.069 1.206l-.356 1.703-2.423.568-1.782-.639c-.57-.213-1.14-.568-1.71-.639a3.78 3.78 0 0 0-1.782 0c-.57.142-1.14.497-1.639.781l-1.639.923c-.285.142-.57.284-.784.497a1.69 1.69 0 0 0-.428.781c0 .284.143.568.356.781s.499.355.713.568l1.496 1.135c-.356.426-.713.852-.998 1.348l-3.706.284c-.57.071-1.212.355-1.639.78-.071.142-.143.213-.214.355s0 .284 0 .426v1.845a1.36 1.36 0 0 0 .285.852c.428.426.998.639 1.639.781l3.706.284h.071l.499.71c.142.213.285.497.499.71l.071.071-.071.071-1.497 1.135c-.214.213-.499.355-.713.568s-.356.497-.356.781.142.568.356.71c.214.213.499.355.784.497l1.568.922c.57.284 1.069.639 1.639.781a3.78 3.78 0 0 0 1.782 0c.57-.071 1.14-.426 1.71-.639l1.71-.71 2.423.568.356 1.703c.071.568.57.994 1.069 1.206.57.213 1.14.284 1.71.284h1.782c-2.352 0-2.993-.071-3.492-.284-.57-.213-1.069-.639-1.14-1.277l-.356-1.703.071.071-2.494-.497h.071l-1.71.781c-.57.213-1.14.568-1.71.71a4.08 4.08 0 0 1-1.853 0c-.641-.142-1.14-.497-1.71-.781l-1.568-.922c-.285-.142-.57-.284-.784-.497s-.428-.497-.428-.852a1.01 1.01 0 0 1 .428-.852c.214-.213.499-.355.713-.568l1.496-1.064v.142c-.214-.213-.356-.497-.499-.71l-.499-.71.071.071-3.706-.284c-.641-.142-1.211-.355-1.71-.851-.214-.213-.285-.568-.285-.923v-1.845c0-.142 0-.284.071-.497l.214-.426c.428-.497 1.069-.71 1.639-.781l3.706-.284a10.13 10.13 0 0 1 .998-1.419v.071l-1.496-1.277c-.214-.213-.499-.355-.713-.568s-.428-.497-.428-.852.214-.639.428-.852.499-.355.784-.497l1.568-.922c.499-.284 1.069-.639 1.71-.781a4.08 4.08 0 0 1 1.853 0c.641.142 1.14.426 1.71.639l1.71.781h-.071l2.423-.568-.071.071.356-1.703c.142-.639.713-1.064 1.283-1.277s1.14-.284 1.71-.284h1.782z"/><path d="M93.46 30.464c-.071-.497-.499-.78-.855-.993l-2.423-1.277c-.356-.213-.784-.426-1.212-.568-.855-.213-1.853-.142-2.637.213l-2.494 1.135-2.423-.568h-.071v-.071l-.356-1.703c-.071-.568-.57-.994-1.069-1.206s-1.14-.284-1.71-.284l-1.782-.071L78.21 25c.57 0 1.212 0 1.782.284.285.142.57.284.784.497a1.69 1.69 0 0 1 .427.781l.356 1.703-.071-.071 2.423.568h-.071l2.494-1.064c.855-.426 1.782-.497 2.708-.284.428.071.926.284 1.283.497l2.423 1.419c.285.355.641.71.713 1.135zm-30.429 3.548l-.641 1.064c-.214.426-.784.426-1.14.426l-2.494.213-1.212.142c-.214.071-.356.142-.499.284-.071.071 0 .142 0 .284v2.129c0 .142.214.284.428.355.784.142 1.639.142 2.494.213l1.212.071c.428.071.855 0 1.212.355.214.355.356.71.641 1.064.143.142.285.355.356.497.142.142.285.284.427.497.071.213-.142.426-.285.497l-.57.355-1.496 1.064c-.143.142-.356.213-.428.426-.071.142.071.355.285.426l.57.284 2.138 1.206c.356.213.784.213 1.14.071l2.28-.993.57-.284c.214-.071.356-.213.641-.213.214 0 .428 0 .641.071l.57.213c.428.142.784.213 1.211.284s.784.142 1.211.284c.214 0 .428.071.641.213a.98.98 0 0 1 .214.284l.071.284.285 1.206c.142.355.071.922.499.993.356.142.784.071 1.212.071h1.212-1.853c-.214 0-.428 0-.641-.071s-.428-.284-.428-.497l-.143-.639-.285-1.206-.071-.284c0-.071-.071-.142-.143-.213-.142-.142-.356-.142-.57-.213l-1.211-.213c-.428-.071-.784-.213-1.211-.284s-.784-.284-1.212-.213c-.214 0-.356.142-.57.213l-.57.284-2.28.993c-.428.142-.855.142-1.283-.071l-2.138-1.277-.57-.284c-.214-.071-.428-.284-.285-.568.071-.213.285-.284.499-.426l1.995-1.419c.143-.142.356-.284.285-.426s-.285-.284-.356-.497c-.143-.142-.285-.355-.356-.497-.285-.355-.428-.71-.641-1.064-.285-.284-.713-.284-1.14-.284l-1.212-.071-2.494-.213c-.214-.071-.428-.142-.499-.426v-2.129c0-.071 0-.213.071-.355.142-.213.356-.284.57-.355.428-.071.855-.071 1.283-.071l2.494-.142c.214 0 .428 0 .641-.071s.428-.142.499-.284c-.071-.426.142-.781.428-1.064z"/><path d="M89.683 34.012l-.214-.213-.499-.568c-.071-.071-.071-.284-.071-.355.071-.142.143-.213.285-.284l2.28-1.703c.214-.142.071-.426-.071-.497l-2.565-1.419c-.214-.142-.428-.284-.641-.284s-.499 0-.713.071l-.641.284-1.354.568c-.428.213-.855.426-1.354.568-.214.071-.499.071-.784 0l-.713-.213c-.499-.142-.926-.284-1.425-.355l-.713-.142c-.214-.071-.499-.071-.713-.213-.142-.071-.214-.142-.285-.284l.071-.426-.356-1.774c0-.142-.071-.213-.143-.284-.356-.355-.926-.213-1.354-.213h-2.993c-.214 0-.499 0-.713.071s-.428.213-.428.426l-.428 2.129c-.071.284-.356.426-.57.497-.998.142-1.924.355-2.851.639l-.713.213c-.285 0-.499 0-.713-.142l-2.708-1.135c-.214-.071-.428-.213-.641-.213s-.499 0-.713.071l-2.565 1.419c-.214.142-.499.213-.57.426-.071.071 0 .213.071.284s.214.142.285.213l1.14.852c.356.284.784.568 1.14.922.071.071.071.284 0 .355-.071.142-.142.213-.214.284-.143.213-.356.355-.499.568.142-.213.285-.355.499-.568.071-.071.142-.213.214-.284s.071-.213 0-.355l-1.14-.852-1.283-.993c-.071-.071-.214-.142-.285-.213s-.143-.284-.071-.355c.142-.284.428-.355.57-.426l2.566-1.49c.214-.071.499-.142.784-.071.285 0 .499.142.713.284l1.354.568c.926.355 1.782 1.064 2.708.568.926-.284 1.924-.497 2.851-.639.214-.071.428-.142.499-.355l.428-2.129c0-.284.285-.426.57-.497s.499-.071.713-.071h3.706c.214 0 .499.071.713.284a.54.54 0 0 1 .142.355l.428 2.129c0 .142.142.213.214.213.214.142.428.142.713.142l.713.142c.499.071.926.213 1.425.355s.926.355 1.425.213c.428-.142.855-.355 1.354-.568l1.354-.568.641-.284c.214-.071.499-.142.784-.071.285 0 .499.213.713.284l2.566 1.419c.142.071.214.142.214.284.071.142 0 .284-.143.355l-2.423 1.703c-.071.071-.214.142-.285.213s-.071.213 0 .284l.499.568.214.284zM76.357 48.417h1.212c.428 0 .855.071 1.212-.071.428-.142.356-.639.499-.993l.285-1.206.071-.284c0-.142.071-.213.214-.284.214-.142.428-.213.641-.213l1.212-.213c.427-.071.784-.213 1.211-.284l.57-.142c.214-.071.428-.071.641-.071s.428.142.57.213l.57.284 2.28.993c.356.142.855.142 1.14-.071l2.138-1.206.57-.284c.214-.071.356-.284.285-.426s-.285-.284-.428-.426l-1.995-1.419c-.142-.071-.428-.284-.356-.568.214-.426.499-.639.784-.993l.214-.213.428-.852c.356-.355.855-.355 1.211-.355l1.212-.071 2.494-.213c.214-.071.356-.142.428-.284v-2.413c-.071-.142-.285-.213-.428-.284-.356-.071-.855-.071-1.212-.142l-2.494-.213c-.356 0-.926 0-1.14-.426-.142-.355-.428-.71-.641-1.064.285.355.499.71.641 1.064.071.142.285.284.499.284.214.071.428.071.641.071l2.494.142c.428 0 .855 0 1.283.071.214.071.428.142.57.355a.64.64 0 0 1 .071.355v2.129c-.071.284-.285.355-.499.426-.855.142-1.639.142-2.494.213l-1.212.071c-.428 0-.855 0-1.14.284l-.285.497-.143.284-.214.213c-.285.284-.57.639-.784.922-.071.142.071.284.285.426l.499.355.998.78.499.355c.143.142.356.213.428.426s-.143.426-.285.497l-.57.284-2.138 1.206c-.356.213-.855.213-1.211.071l-2.28-.993-.57-.284-.57-.213c-.428-.071-.784.142-1.211.213-.428.142-.784.213-1.212.284l-1.212.213c-.214 0-.428.071-.57.213-.071.071-.142.142-.142.213l-.071.284-.285 1.206-.143.639c0 .213-.214.426-.427.497-.428.142-.855.071-1.283.071l-1.354.071z"/></g><g fill="#a9b7bd"><path d="M50.332 43.857v3.548l-1.995-.142-1.14-1.632 3.136-1.774zm-27.935 0v3.548l1.995-.142 1.14-1.632-3.136-1.774z"/><path d="M44.559 46.554l-2.138.922c-.641-.213-1.283-.355-1.995-.497l-.356-1.49c-.142-.639-1.069-1.064-2.138-1.064h-3.207c-1.069 0-1.995.426-2.138 1.064l-.356 1.561-1.995.497-2.138-.922c-.855-.355-2.067-.355-2.851.071l-2.28 1.277c-.784.426-.855 1.135-.142 1.632l1.639 1.206c-.356.355-.57.781-.784 1.135l-2.708.213c-1.069.071-1.924.639-1.853 1.206v1.845c0 .639.784 1.135 1.853 1.206l2.708.213c.214.355.499.781.784 1.135l-1.639 1.206c-.641.497-.57 1.206.142 1.632l2.28 1.277c.784.426 1.995.497 2.851.071l2.138-.922c.641.213 1.283.355 1.995.497l.356 1.561c.142.639 1.069 1.064 2.138 1.064h3.207c1.069 0 1.995-.426 2.138-1.064l.356-1.561 1.995-.497 2.138.922c.855.355 2.067.355 2.85-.071l2.28-1.277c.784-.426.855-1.135.143-1.632l-1.639-1.206c.356-.355.57-.78.784-1.135l2.708-.213c1.069-.071 1.924-.639 1.853-1.206v-1.845c0-.639-.784-1.135-1.853-1.206l-2.708-.213a10.82 10.82 0 0 0-.784-1.135l1.639-1.206c.641-.497.57-1.206-.143-1.632l-2.28-1.277c-.784-.426-1.995-.497-2.85-.142zM40.426 56.63c-2.209 1.277-5.843 1.277-8.124 0-2.209-1.277-2.209-3.406 0-4.683s5.843-1.277 8.124 0c2.209 1.348 2.209 3.406 0 4.683z"/><path d="M19.119 49.676l5.416.213 2.993 3.619 11.188 1.561 5.843-3.832 8.979-1.987v3.974l-3.207 1.561v4.967l-3.421-.284-16.105.284-3.92 1.987-4.49-1.987v-3.264l-2.067-.71-1.211-.497v-5.606z"/></g><path d="M44.559 41.658l-2.138.922c-.641-.213-1.283-.355-1.995-.497l-.356-1.49c-.142-.639-1.069-1.064-2.138-1.064h-3.207c-1.069 0-1.995.426-2.138 1.064l-.356 1.561-1.995.497-2.138-.922c-.855-.355-2.067-.355-2.851.071l-2.28 1.277c-.784.426-.855 1.135-.142 1.632l1.639 1.206c-.356.355-.57.781-.784 1.135l-2.708.213c-1.069.071-1.924.639-1.853 1.206v1.845c0 .639.784 1.135 1.853 1.206l2.708.213c.214.355.499.781.784 1.135l-1.639 1.206c-.641.497-.57 1.206.142 1.632l2.28 1.277c.784.426 1.995.497 2.851.071l2.138-.922c.641.213 1.283.355 1.995.497l.356 1.561c.142.639 1.069 1.064 2.138 1.064h3.207c1.069 0 1.995-.426 2.138-1.064l.356-1.561 1.995-.497 2.138.922c.855.355 2.067.355 2.85-.071l2.28-1.277c.784-.426.855-1.135.143-1.632l-1.639-1.206c.356-.355.57-.781.784-1.135l2.708-.213c1.069-.071 1.924-.639 1.853-1.206V48.47c0-.639-.784-1.135-1.853-1.206l-2.708-.213a10.82 10.82 0 0 0-.784-1.135l1.639-1.206c.641-.497.57-1.206-.143-1.632l-2.28-1.348c-.784-.426-1.995-.497-2.85-.071zm-4.133 10.076c-2.209 1.277-5.843 1.277-8.124 0-2.209-1.277-2.209-3.406 0-4.683s5.843-1.277 8.124 0c2.209 1.277 2.209 3.406 0 4.683z" fill="#d2dade"/><g fill="#000"><path d="M22.397 47.121c-.071-.284-.071-.497-.071-.781s.071-.497 0-.781c-.071-.497-.071-1.064 0-1.561.071.497.071 1.064 0 1.561v.781c.143.284.071.497.071.781zm0-3.193a1.55 1.55 0 0 0 .356.568c.214.142.428.284.57.426.356.355.784.639 1.212.922h.071v.071c-.285.355-.57.71-.784 1.135h-.071c-.428 0-.855.071-1.283 0 .428-.071.855-.142 1.283-.142l-.071.071c.214-.426.499-.781.855-1.135v.071c-.356-.284-.784-.639-1.212-.852-.214-.142-.428-.284-.57-.426-.285-.213-.428-.426-.356-.71zm27.935.071l.071 1.561v1.632c-.428-.071-.855-.071-1.283-.071-.214-.426-.499-.781-.855-1.135l-.071-.071.071-.071a17.82 17.82 0 0 1 1.212-.851c.214-.284.713-.497.855-.994zm0 0c0 .213-.142.497-.356.639l-1.71 1.277v-.071a10.82 10.82 0 0 1 .784 1.135c.428.071.855.071 1.283.142 0-.497-.071-.994 0-1.561-.071-.497 0-.993 0-1.561zm-8.908 2.484c-1.354-.71-2.85-1.064-4.347-1.135s-2.993.071-4.418.568c-.713.213-1.425.568-1.995.993s-1.14.993-1.354 1.774c-.214.71-.071 1.49.285 2.129.428.639.998 1.064 1.639 1.49 1.354.71 2.851 1.064 4.347 1.135s2.993-.071 4.418-.568c.713-.213 1.354-.568 1.995-.993.57-.426 1.14-.993 1.354-1.703s.071-1.49-.285-2.129c-.428-.71-.998-1.206-1.639-1.561zm0 0c.641.355 1.283.852 1.71 1.49s.57 1.419.356 2.2c-.214.71-.713 1.348-1.354 1.774a11.38 11.38 0 0 1-2.067 1.064c-1.425.497-2.993.639-4.489.568s-2.993-.497-4.347-1.206c-.641-.426-1.283-.852-1.639-1.49-.428-.639-.57-1.419-.356-2.2.214-.71.784-1.348 1.354-1.774s1.283-.781 1.995-1.064c1.425-.497 2.993-.639 4.49-.568s3.064.426 4.347 1.206zm-5.06-.426c1.212 0 2.423.142 3.563.639.57.213 1.069.568 1.497.994s.713.993.713 1.632-.285 1.206-.713 1.632-.926.781-1.497.993c-1.14.497-2.352.71-3.563.71s-2.423-.213-3.563-.71c-.57-.213-1.069-.568-1.496-.993s-.713-.993-.713-1.632.285-1.206.713-1.632a5 5 0 0 1 1.496-.994 10.2 10.2 0 0 1 3.563-.639c-1.212.071-2.423.284-3.492.781-.57.284-1.069.568-1.497.993s-.713.993-.713 1.561.285 1.135.713 1.561.926.781 1.497.993c1.069.497 2.28.71 3.492.71s2.423-.213 3.492-.71c.57-.213 1.069-.568 1.496-.993s.713-.993.713-1.561-.285-1.135-.713-1.561-.926-.781-1.496-.993c-1.069-.497-2.28-.71-3.492-.781z"/><path d="M36.507 50.173l-2.565.284c-.855.142-1.639.355-2.423.78v-.071a6.51 6.51 0 0 0 .926.568h-.071c1.212-.568 2.566-.852 3.848-.781l-1.924.284c-.641.142-1.283.355-1.853.639a10.42 10.42 0 0 1-.926-.639v-.071h.071a13.98 13.98 0 0 1 2.423-.852c.784-.142 1.639-.213 2.494-.142z"/><path d="M36.364 50.953c.641-.071 1.354 0 1.995.142s1.283.355 1.853.71c.356-.142.641-.426.926-.639v.071c-1.425-.639-2.993-.993-4.632-1.064 1.568-.071 3.207.213 4.632.994h.071l-.071.071-.926.639c-.57-.284-1.212-.497-1.853-.639-.713-.142-1.354-.213-1.995-.284zm-13.967 5.606l-1.069-.071c-.356 0-.713-.071-1.069-.142-.356-.142-.713-.284-.927-.568a.77.77 0 0 1-.214-.497v-4.967h.071c0 .426.356.71.713.922s.784.284 1.212.284l2.566.213c.142.213.285.355.428.568s.285.355.428.568l-1.211.922c-.214.142-.428.284-.57.426a1.06 1.06 0 0 0-.285.639c0 .213.142.426.356.639.143.142.428.284.641.426l1.283.71c.428.213.855.568 1.354.639.499.142.998.142 1.497 0 .499-.071.927-.355 1.425-.568l1.354-.639 1.995.497h.071l.285 1.419c.071.497.428.781.855.993s.926.213 1.425.213h1.425c-1.924 0-2.423 0-2.851-.213-.428-.142-.926-.497-.926-1.064l-.285-1.419.071.071-1.995-.497h.071l-1.354.639a8.51 8.51 0 0 1-1.425.568c-.499.071-.998.071-1.497 0s-.926-.426-1.354-.639l-1.283-.781c-.214-.142-.428-.213-.641-.426-.214-.142-.356-.426-.356-.71s.143-.497.356-.71c.214-.142.428-.284.57-.426l1.211-.922v.071c-.143-.142-.285-.355-.428-.568s-.285-.355-.427-.568l-2.565-.142c-.428 0-.855-.071-1.283-.284-.356-.213-.784-.497-.784-.993h.071v4.399c0 .355-.071.781.143.994.214.284.57.426.926.568s.713.142 1.069.213l.926.213z"/><path d="M30.307 61.101c-.641.355-1.354.639-2.067.994s-1.496.355-2.209.213c-.356-.071-.713-.284-1.069-.426l-1.995-1.135c-.356-.213-.641-.497-.713-.922l.071.071h-.071v-1.703l.071-1.632.071 1.632v1.632l-.071-.071h.071v.071c0 .355.285.639.641.781l1.995 1.135c.285.213.641.355.998.426.713.142 1.497.071 2.209-.213l2.067-.852z"/><path d="M42.421 61.101c-.641.213-1.283.355-1.995.497l.071-.071c-.071.497-.214.922-.285 1.419s-.499.852-.998 1.064c-.428.213-.926.213-1.425.213h-2.851a4.61 4.61 0 0 1-1.425-.213c-.428-.142-.926-.568-.998-1.064-.142-.497-.214-.922-.285-1.419l.071.071-1.995-.497 1.995.426c.285.852.142 2.058 1.212 2.342.428.213.926.213 1.354.213h1.425c.926 0 1.924.142 2.85-.213 1.069-.284.926-1.49 1.212-2.413.713-.071 1.354-.213 2.067-.355z"/><path d="M50.332 56.559l.071 1.632v1.703h-.071l.071-.071c0 .426-.356.71-.641.922l-1.995 1.135c-.285.213-.641.426-1.069.497-.713.142-1.568.142-2.28-.213l-2.067-.993 2.067.852c.641.284 1.425.355 2.209.213.356-.071.713-.213.998-.426l1.995-1.135c.285-.213.57-.497.57-.852v-.071h.071l-.071.071v-1.632l.142-1.632z"/><path d="M36.364 59.327h1.425c.499 0 .926-.071 1.425-.213.428-.142.855-.497.926-.993l.285-1.419h.071l1.995-.497 1.354.639c.499.213.926.426 1.425.568a5.29 5.29 0 0 0 1.497 0c.499-.071.926-.355 1.354-.639l1.212-.852c.214-.142.428-.213.641-.426.214-.142.285-.355.285-.639 0-.213-.142-.497-.285-.639-.214-.142-.428-.284-.57-.426l-1.212-.922h-.071l.071-.071c.142-.142.285-.355.428-.568s.285-.355.356-.568l2.566-.213c.427 0 .855-.071 1.211-.284.356-.142.713-.497.713-.852h.143v4.967c0 .213-.071.355-.214.497-.214.284-.57.426-.926.568s-.713.142-1.069.142l-1.069.071 1.069-.071c.356 0 .713-.071 1.069-.142.356-.142.641-.284.926-.568s.143-.639.143-.993v-4.4h.143c0 .497-.428.781-.784.993-.428.213-.855.284-1.283.284l-2.565.213h.071c-.142.213-.285.355-.428.568s-.285.355-.428.568v-.071l1.211.922c.214.142.428.284.57.497.214.142.356.426.356.71s-.143.497-.356.639l-.641.426-1.283.781c-.428.213-.855.568-1.354.639-.499.142-.998.142-1.497 0-.499-.071-.926-.355-1.425-.568l-1.354-.639h.071l-1.995.497.071-.071-.285 1.419c-.071.497-.499.852-.926 1.064s-.927.213-1.425.213l-1.639-.142z"/><path d="M36.364 59.256h1.425c.499 0 .926-.071 1.425-.213.428-.142.855-.497.926-.994l.285-1.419h.071l1.995-.497 1.354.639c.499.213.926.426 1.425.568.499.071.998.071 1.497 0s.926-.426 1.354-.639l1.212-.781c.214-.142.428-.213.641-.426.214-.142.285-.355.285-.639 0-.213-.142-.426-.285-.639-.214-.142-.428-.284-.57-.426l-1.212-.922-.071-.071.071-.071c.142-.142.285-.355.428-.568s.285-.355.428-.568l2.708-.213c.428-.071.855-.142 1.283-.355.214-.142.356-.284.428-.426.143-.213.071-.426.071-.639v-1.348c0-.213 0-.426-.143-.639s-.285-.355-.499-.426c-.784-.426-1.782-.355-2.637-.497.855.071 1.853 0 2.637.426.214.142.356.284.499.426.143.213.143.426.143.639v1.348c0 .213 0 .497-.071.71a1.66 1.66 0 0 1-.499.497c-.428.213-.855.355-1.354.355l-2.708.213h.071c-.143.213-.285.355-.428.568s-.285.426-.428.568v-.071l1.212.922c.214.142.428.284.57.497.214.142.356.426.356.71s-.142.497-.356.71l-.641.426-1.283.71c-.428.213-.855.568-1.354.639-.499.142-.998.142-1.496 0-.499-.071-.926-.355-1.425-.568l-1.354-.639h.071l-1.995.497.071-.071-.285 1.419c-.071.497-.499.852-.926 1.064s-.926.213-1.425.213h-1.496z"/><path d="M36.364 39.458h-1.425c-.499 0-.926.071-1.425.213-.428.142-.855.497-.926.993l-.285 1.419-1.995.497-1.354-.639c-.499-.213-.926-.426-1.425-.497s-.998-.071-1.497 0-.926.355-1.354.639l-1.283.781c-.214.142-.428.213-.641.426-.214.142-.285.355-.356.639 0 .213.143.497.285.639.214.142.428.284.57.426l1.211.922-.855 1.135-3.064.213c-.499.071-.998.284-1.354.639-.143.213-.214.426-.214.71v1.561c0 .284.071.497.214.71.356.355.855.568 1.283.639l3.064.213c.143.213.285.355.428.568s.285.355.428.568l.071.071-.071.071-1.069.781c-.214.142-.428.284-.57.426s-.285.355-.285.639c0 .213.142.426.285.568s.428.284.641.426l1.283.781c.428.213.855.568 1.354.639.499.142.998.142 1.497 0 .499-.071.927-.355 1.425-.497l1.354-.639 1.995.497.285 1.419c.071.497.499.852.926.994.428.213.926.213 1.425.213h1.425c-1.924 0-2.423-.071-2.85-.213s-.855-.497-.926-.994l-.285-1.419-1.995-.426-1.354.639a8.51 8.51 0 0 1-1.425.568c-.499.071-.998.071-1.497 0s-.926-.426-1.354-.639l-1.283-.781c-.214-.142-.428-.213-.641-.426-.214-.142-.356-.426-.356-.71s.143-.497.356-.71c.214-.142.428-.284.57-.497l1.212-.922v.071c-.143-.142-.285-.355-.428-.568s-.285-.355-.428-.568h.071l-3.064-.213c-.499-.071-.998-.284-1.354-.639-.214-.213-.214-.497-.214-.71v-1.561c0-.213.071-.568.214-.71.356-.426.855-.568 1.354-.639l3.064-.213c.214-.426.499-.781.784-1.135v.071l-1.212-.922c-.214-.142-.428-.284-.57-.426-.214-.142-.356-.426-.356-.71s.143-.497.356-.71.428-.284.641-.426l1.283-.781c.428-.213.855-.568 1.354-.639.499-.142.998-.142 1.497 0 .499.071.927.355 1.425.568l1.354.639 1.995-.497.285-1.419c.071-.497.499-.852.926-1.064s.926-.213 1.425-.213l1.425.142z"/><path d="M50.332 43.786c-.071-.355-.356-.639-.713-.78l-1.995-1.135a2.5 2.5 0 0 0-.998-.426c-.713-.142-1.496-.142-2.209.213l-2.067.922-1.995-.426h-.071v-.071l-.285-1.419c-.071-.497-.428-.781-.855-.993a2.29 2.29 0 0 0-1.354-.213h-1.425 1.425c.499 0 .998 0 1.425.213.428.142.926.568.998 1.064l.285 1.419-.071-.071 1.995.497 2.067-.922c.713-.355 1.497-.426 2.209-.284.356.071.713.213 1.069.426l1.995 1.135c.214.213.499.497.57.851zm-24.871 2.839l-.499.852c-.214.355-.641.355-.926.355l-1.995.142c-.356 0-.713.071-.998.071-.143.071-.285.142-.356.213-.071.142 0 .355 0 .497v1.49c0 .142.214.213.356.284l1.995.213.998.071c.356 0 .713 0 .998.284.214.284.285.639.57.851l.641.781c.071.213-.143.355-.285.426l-.428.284-.784.639-.57.426c-.143.142-.285.213-.356.355s.071.284.214.355l.428.284 1.782.994c.57.355 1.211-.142 1.853-.355l.926-.426c.285-.142.57-.284.926-.355s.713.142.998.213a5.27 5.27 0 0 1 .998.284l.998.213c.142 0 .356.071.499.213.071.071.142.142.142.213l.071.213.214.993c.071.284.071.71.428.852.285.142.641.071.998.071h.998c-1.354 0-1.71.071-1.995-.071-.143-.071-.285-.213-.356-.355l-.143-.497-.142-1.135c-.071-.142-.071-.355-.142-.426-.143-.071-.285-.142-.428-.142l-.998-.213c-.356-.071-.641-.142-.998-.284-.356-.071-.641-.213-.926-.213-.285.071-.641.213-.926.355l-1.853.852c-.356.142-.713.142-1.069-.071l-1.782-.993-.499-.213c-.142-.071-.356-.213-.285-.426s.285-.284.356-.355l.428-.284.784-.568.428-.284c.143-.071.285-.213.214-.355-.143-.284-.428-.497-.641-.781-.214-.213-.356-.568-.57-.852-.071-.355-.499-.355-.784-.355l-.998-.071-2.067-.142c-.143-.071-.356-.142-.428-.355V48.4c.071-.213.285-.213.428-.284.356-.071.713-.071.998-.071l1.995-.142c.356 0 .713 0 .926-.284l.641-.993z"/><path d="M47.196 46.625l-.142-.213-.428-.426c-.071-.071-.071-.213 0-.284l.214-.213 1.853-1.419c.143-.142.071-.355-.071-.426l-.499-.284-1.069-.568-.499-.355c-.143-.071-.356-.213-.499-.213-.214 0-.356 0-.57.071l-.57.213-1.069.497c-.356.142-.713.355-1.14.497s-.784-.071-1.212-.213c-.356-.142-.784-.213-1.14-.284l-.57-.142c-.214-.071-.428-.071-.57-.142l-.214-.213-.214-.852-.071-.639c-.071-.213-.071-.426-.214-.568-.285-.284-.713-.142-1.14-.213h-2.423c-.214 0-.428 0-.57.071-.214.071-.356.142-.356.355l-.214 1.135-.071.639c-.071.213-.285.355-.499.426l-2.352.497c-.214.071-.356.142-.57.142s-.428 0-.641-.142l-1.069-.497-1.069-.426-.57-.213c-.214 0-.356 0-.57.071l-2.067 1.135c-.142.142-.356.142-.428.355-.071.142.071.284.285.426l1.853 1.419c.071.071.071.213 0 .284l-.214.213c-.142.142-.285.284-.356.426.143-.142.285-.284.356-.426l.214-.213c.071-.071 0-.213 0-.284-.285-.284-.641-.497-.926-.71l-.998-.71-.214-.213c-.071-.071-.071-.213-.071-.284.143-.213.356-.284.499-.355l2.067-1.206c.214-.071.428-.071.641-.071s.428.142.57.213l1.069.497c.713.284 1.425.852 2.209.426.784-.213 1.568-.426 2.352-.497.143-.071.356-.142.428-.284l.427-1.703c0-.213.285-.355.428-.426.214-.071.428 0 .641-.071h2.423c.356 0 .855-.071 1.14.213.071.071.143.213.143.284l.428 1.703c0 .071.071.142.214.213s.356.071.57.142l.57.142c.356.071.784.142 1.14.284.356.071.784.284 1.14.213.356-.142.713-.284 1.069-.497l1.069-.497.57-.213c.214-.071.428-.071.641-.071s.428.142.57.213l1.995 1.135c.071.071.143.142.214.284 0 .142 0 .213-.071.284-.356.284-.641.497-.998.71l-.998.71c-.142.071-.356.284-.214.426l.356.426.071.284z"/><path d="M36.364 58.475h.998c.356 0 .713.071.998-.071.356-.142.285-.497.356-.852l.214-.994.071-.213c0-.071.071-.142.143-.213.142-.142.356-.142.499-.213l.998-.213a5.26 5.26 0 0 0 .998-.284c.285-.071.641-.213.998-.213.356.071.641.284.926.355l1.853.851a.88.88 0 0 0 .926-.071l1.782-.994.427-.284c.143-.071.285-.213.214-.355s-.214-.213-.356-.355l-.428-.284-.784-.568-.427-.284c-.143-.071-.356-.213-.285-.426.214-.355.428-.568.641-.852s.356-.568.57-.851c.285-.284.641-.284.998-.284l2.993-.213c.142-.071.285-.142.356-.284v-1.987c-.071-.142-.214-.213-.356-.213-.285-.071-.641-.071-.998-.071l-1.995-.142c-.285 0-.713 0-.926-.355l-.57-.922.57.852c.214.284.57.284.926.284l1.995.142c.356 0 .641 0 .998.071.142.071.356.142.428.284.071.213 0 .355.071.497v1.49c-.071.213-.285.284-.428.355-.713.142-1.354.142-2.067.142l-.926.213c-.356 0-.713 0-.926.213-.143.284-.285.639-.57.852l-.641.781c-.071.142.071.284.214.355l.428.284.784.639.428.284c.142.142.285.142.356.355s-.142.355-.285.426l-.427.284-1.782.993c-.285.142-.713.213-.998.071l-1.853-.852c-.285-.142-.641-.284-.926-.355-.356-.071-.641.071-.998.213-.356.071-.641.213-.998.284l-.998.213c-.142 0-.356.071-.428.142-.143.071-.143.284-.214.426l-.214.994v.497c0 .213-.142.355-.356.426-.356.142-.713.071-.998.071l-.998-.071z"/></g><g fill="#c7c7c7"><path d="M132.424 44.551v5.393l-3.064-.142-1.782-2.554 4.846-2.697zm-43.186 0v5.393l3.064-.142 1.782-2.554-4.846-2.697z"/></g><path d="M123.516 48.667l-3.349 1.49-3.065-.71-.499-2.413c-.213-.993-1.639-1.703-3.278-1.703h-4.917c-1.71 0-3.064.71-3.278 1.703l-.499 2.413-3.064.71-3.278-1.49c-1.354-.568-3.207-.497-4.418.142l-3.492 1.987c-1.211.71-1.283 1.774-.285 2.554l2.566 1.916c-.499.568-.926 1.135-1.283 1.774l-4.133.284c-1.71.142-2.922.922-2.922 1.916v2.838c0 .993 1.212 1.774 2.922 1.916l4.133.284c.356.568.784 1.206 1.283 1.774l-2.565 1.916c-1.069.781-.926 1.845.285 2.555l3.492 1.987c1.211.71 3.064.781 4.418.142l3.349-1.49 3.064.71.499 2.413c.214.993 1.639 1.703 3.278 1.703h4.918c1.639 0 3.064-.71 3.278-1.703l.499-2.413 3.064-.71 3.349 1.49c1.354.568 3.207.568 4.418-.142l3.492-1.987c1.212-.71 1.283-1.774.285-2.555l-2.565-1.916c.499-.568.926-1.135 1.283-1.774l4.133-.284c1.71-.142 2.922-.922 2.922-1.916V59.24c0-.993-1.212-1.774-2.922-1.916l-4.133-.284c-.357-.568-.784-1.206-1.283-1.774l2.565-1.916c1.069-.78.927-1.845-.285-2.554l-3.492-1.987c-1.282-.639-3.206-.71-4.489-.142zm-6.414 15.611c-3.492 1.987-9.05 1.987-12.542 0s-3.492-5.251 0-7.238 9.05-1.987 12.542 0 3.492 5.251 0 7.238z" fill="url(#A)"/><path d="M84.25 53.421l8.266.426 4.632 5.535 17.388 2.413 9.05-5.961 13.825-2.98v6.102l-4.988 2.484v7.593l-5.202-.426-24.942.426-6.129 3.051-6.912-3.051v-5.038l-3.207-1.064-1.782-.781v-8.728z" fill="url(#B)"/><path d="M123.516 41.004l-3.349 1.49-3.065-.71-.499-2.413c-.213-.994-1.639-1.703-3.278-1.703h-4.917c-1.71 0-3.064.71-3.278 1.703l-.499 2.413-3.064.71-3.278-1.49c-1.354-.568-3.207-.497-4.418.142l-3.492 1.987c-1.211.71-1.283 1.774-.285 2.554l2.566 1.916c-.499.568-.926 1.135-1.283 1.774l-4.133.284c-1.71.142-2.922.922-2.922 1.916v2.838c0 .993 1.212 1.774 2.922 1.916l4.133.284c.356.568.784 1.206 1.283 1.774l-2.565 1.916c-1.069.781-.926 1.845.285 2.555l3.492 1.987c1.211.71 3.064.781 4.418.142l3.349-1.49 3.064.71.499 2.413c.214.993 1.639 1.703 3.278 1.703h4.918c1.639 0 3.064-.71 3.278-1.703l.499-2.413 3.064-.71 3.349 1.49c1.354.568 3.207.568 4.418-.142l3.492-1.987c1.212-.71 1.283-1.774.285-2.555l-2.565-1.916c.499-.568.926-1.135 1.283-1.774l4.133-.284c1.71-.142 2.922-.923 2.922-1.916v-2.838c0-.993-1.212-1.774-2.922-1.916l-4.133-.284c-.357-.568-.784-1.206-1.283-1.774l2.565-1.916c1.069-.78.927-1.845-.285-2.554l-3.492-1.987c-1.282-.639-3.206-.71-4.489-.142zm-6.414 15.611c-3.492 1.987-9.05 1.987-12.542 0s-3.492-5.251 0-7.238 9.05-1.987 12.542 0 3.492 5.251 0 7.238z" fill="url(#C)"/><g fill="#000"><path d="M89.238 49.519c-.071-.426-.071-.852-.071-1.206.071-.426.071-.852 0-1.206-.071-.852-.071-1.632.071-2.484.142.852.142 1.632.071 2.484-.071.426 0 .852 0 1.206 0 .426 0 .781-.071 1.206z"/><path d="M89.238 44.622c.071.355.285.71.57.922s.641.426.926.71c.285.213.57.497.855.71l.926.639.071.071-.071.071-1.212 1.774v.071h-.071c-.641.071-1.354.071-1.995.071a9.54 9.54 0 0 1 1.995-.213l-.071.071c.356-.639.784-1.206 1.283-1.774v.071c-.285-.213-.57-.497-.926-.71l-.926-.639c-.285-.213-.641-.426-.926-.71-.214-.355-.428-.781-.428-1.135zm43.186 0l.071 2.413v2.554h-.071l-1.996-.142a7.63 7.63 0 0 0-1.283-1.703l-.071-.071.071-.071 1.853-1.348.927-.639c.214-.284.427-.568.499-.994zm0 .071c0 .355-.214.71-.499.993l-.855.71c-.571.497-1.212.922-1.782 1.348v-.142c.499.568.926 1.135 1.211 1.774h-.071l1.996.142-.072.071v-2.342l.072-2.555zm-13.754 3.832c-2.067-1.135-4.347-1.632-6.699-1.774-2.351-.071-4.703.142-6.841.922-1.069.355-2.138.852-3.064 1.561s-1.711 1.561-2.067 2.697c-.143.568-.214 1.135-.143 1.703s.285 1.135.642 1.632c.285.497.713.922 1.14 1.277l.356.284.357.213.712.497c2.067 1.135 4.347 1.632 6.699 1.774s4.703-.142 6.841-.852l.784-.284.784-.497 1.497-.922c.926-.639 1.71-1.561 2.066-2.696.357-1.064.143-2.342-.499-3.264s-1.567-1.703-2.565-2.271zm0-.071c.998.568 1.924 1.348 2.565 2.342s.856 2.271.499 3.406-1.14 2.058-2.066 2.767a10.17 10.17 0 0 1-3.136 1.632c-2.209.781-4.632.993-6.912.852-2.352-.142-4.704-.71-6.699-1.845l-.713-.497-.356-.213-.356-.284a5.23 5.23 0 0 1-1.141-1.348c-.285-.496-.499-1.064-.641-1.632-.071-.568-.071-1.206.142-1.774.356-1.135 1.141-2.058 2.067-2.768s1.996-1.206 3.136-1.632c2.209-.781 4.632-.993 6.912-.852 2.352.142 4.704.71 6.699 1.845z"/><path d="M110.831 47.887c1.853 0 3.777.284 5.487.993.856.355 1.711.852 2.352 1.561.356.355.641.71.855 1.135s.285.922.285 1.419c0 .993-.499 1.845-1.14 2.555-.641.639-1.496 1.206-2.352 1.561-1.71.71-3.634 1.064-5.487 1.135-1.853 0-3.777-.284-5.487-1.064-.855-.355-1.71-.852-2.352-1.561s-1.14-1.561-1.14-2.555c0-.497.143-.922.285-1.419.214-.426.499-.852.855-1.135.642-.71 1.497-1.135 2.352-1.561 1.71-.781 3.634-1.064 5.487-1.064-1.853.071-3.705.355-5.416 1.135-.855.355-1.639.922-2.28 1.561-.285.355-.57.71-.784 1.135a2.77 2.77 0 0 0-.285 1.277c0 .922.427 1.774 1.069 2.413s1.425 1.135 2.28 1.561c1.711.781 3.563 1.064 5.416 1.135 1.853 0 3.777-.284 5.416-1.064.855-.355 1.639-.922 2.281-1.561s1.069-1.561 1.069-2.413c0-.426-.143-.922-.286-1.277-.213-.426-.498-.781-.783-1.135-.642-.639-1.426-1.135-2.281-1.561-1.71-.781-3.563-1.135-5.416-1.206z"/><path d="M111.116 54.202a34.87 34.87 0 0 0-3.92.426c-.641.142-1.282.213-1.924.426s-1.211.497-1.781.781v-.071c.213.213.499.355.712.497s.499.284.784.426h-.071a11.65 11.65 0 0 1 5.986-1.206c-.998.071-2.067.142-2.993.426-.998.213-1.924.568-2.922.993h-.142c-.499-.284-.998-.639-1.426-.993l-.071-.071.071-.071c.571-.284 1.212-.497 1.853-.71l1.924-.568c1.212-.284 2.566-.355 3.92-.284z"/><path d="M110.831 55.479c.997-.071 2.066 0 3.064.213a11.16 11.16 0 0 1 2.922 1.064c.285-.142.499-.284.712-.426s.428-.355.713-.568v.071c-1.14-.497-2.28-.922-3.492-1.135-1.211-.284-2.423-.426-3.634-.497 1.211-.071 2.494.071 3.705.284 1.212.284 2.423.639 3.492 1.277l.071.071-.071.071-.712.497c-.214.142-.499.284-.784.426-.927-.497-1.924-.71-2.922-.922a22.89 22.89 0 0 0-3.064-.426zm-21.593 8.657l-1.71-.142a7.05 7.05 0 0 1-1.71-.213c-.57-.142-1.069-.426-1.425-.922-.214-.213-.285-.497-.285-.78v-7.593h.142c0 .639.57 1.135 1.14 1.419s1.212.426 1.924.426l3.991.284c.356.639.784 1.206 1.283 1.774h-.071l-1.853 1.419c-.285.213-.641.426-.926.71s-.499.639-.428.993c0 .355.214.71.499.922.285.284.641.426.998.639l1.995 1.135c.713.355 1.354.851 2.067.993s1.496.142 2.28 0 1.425-.568 2.138-.852l2.138-.922h.072l3.064.71h.071v.071l.428 2.2c.071.781.712 1.277 1.354 1.49.712.284 1.425.355 2.138.355h2.209c-2.922 0-3.706-.071-4.419-.355-.356-.142-.712-.355-.926-.568-.285-.284-.428-.639-.499-.993l-.499-2.2.072.071-3.065-.71h.072l-2.138.922c-.713.284-1.425.71-2.209.852a6.55 6.55 0 0 1-2.352 0c-.784-.142-1.425-.639-2.138-.993l-1.995-1.206c-.356-.213-.713-.355-.998-.639s-.499-.639-.499-1.064.214-.781.499-1.064.641-.497.926-.71l1.924-1.206v.071c-.499-.568-.926-1.135-1.283-1.774l-3.991-.284c-.641 0-1.354-.142-1.924-.426s-1.212-.781-1.283-1.49h.143v6.741c0 .568-.143 1.135.285 1.561.356.426.855.71 1.354.851s1.069.213 1.639.284l1.781.213z"/><path d="M101.495 71.161l-3.135 1.49c-1.069.497-2.352.568-3.492.284-.57-.142-1.14-.426-1.639-.71l-2.993-1.703c-.499-.284-1.069-.71-1.069-1.419l.142.071h-.142v-2.697l.071-2.554c.071.852.071 1.703.071 2.554v2.555l-.142-.142h.071v.071c.071.568.499.993.998 1.206l2.993 1.845c.499.284.998.568 1.568.71 1.14.213 2.352.071 3.349-.355l3.349-1.206zm18.743 0l-3.065.781.072-.071-.499 2.2c-.071.355-.214.78-.499.993-.285.284-.641.426-.998.568-.712.284-1.496.355-2.209.355h-4.418c-.713 0-1.497-.071-2.209-.355-.357-.142-.713-.355-.998-.639s-.499-.639-.499-.994l-.427-2.2.071.071-3.064-.78 3.064.639h.071v.071c.428 1.348.285 3.193 1.853 3.619.641.284 1.425.355 2.138.355h4.418c.713 0 1.497-.071 2.138-.355 1.568-.497 1.425-2.342 1.853-3.69v-.071h.071c1.069-.071 2.067-.284 3.136-.497z"/><path d="M132.424 64.136l.071 5.038h-.071l.071-.071c0 .639-.499 1.135-.998 1.419l-1.496.852-1.497.922c-.499.284-.997.639-1.639.71-1.14.284-2.423.213-3.492-.355l-3.135-1.49 3.207 1.348c1.069.497 2.28.568 3.349.284.57-.142 1.069-.355 1.568-.639l1.568-.852 1.496-.851c.499-.284.926-.781.926-1.348v-.071h.072l-.072.071.072-4.967zm-21.593 4.258h2.209c.713 0 1.497-.071 2.138-.355s1.283-.781 1.354-1.49l.428-2.2v-.071h.071l3.064-.71 2.138.994c.713.284 1.425.71 2.138.852.784.142 1.568.142 2.28 0 .784-.142 1.426-.568 2.067-.994l1.995-1.135c.357-.213.713-.355.998-.639s.499-.568.499-.993c0-.355-.214-.71-.499-.993l-.926-.71-1.853-1.348-.071-.071.071-.071c.499-.568.926-1.135 1.211-1.774v-.071h.072l3.99-.284c.642 0 1.283-.142 1.924-.426.571-.284 1.141-.71 1.141-1.348h.213v7.593c0 .284-.142.568-.285.781-.356.426-.926.71-1.425.851a7.05 7.05 0 0 1-1.71.213l-1.711.071 1.711-.142c.57-.071 1.14-.071 1.639-.284.499-.142 1.069-.426 1.354-.851.356-.426.285-.994.285-1.561v-6.741h.214c0 .355-.214.71-.428.922-.214.284-.499.426-.855.568a4.8 4.8 0 0 1-1.995.426l-3.991.284.071-.071c-.356.639-.784 1.206-1.283 1.774v-.142l1.853 1.419c.285.213.642.426.927.71s.498.639.498 1.064-.213.781-.57 1.064c-.285.284-.641.426-.997.639l-1.996 1.135c-.641.355-1.354.852-2.138.993-.783.213-1.567.213-2.351.071s-1.497-.568-2.209-.851l-2.138-.923h.071c-.998.284-2.067.497-3.064.71l.071-.071-.499 2.2c-.071.355-.214.781-.499.993-.285.284-.641.426-.926.568-.713.284-1.497.355-2.209.355l-2.067.071z"/><path d="M110.831 68.323h2.209c.713 0 1.497-.071 2.138-.355s1.283-.78 1.354-1.49l.428-2.2v-.071h.071l3.064-.71 2.138.993c.713.284 1.425.71 2.138.851.784.142 1.568.142 2.28 0 .784-.142 1.426-.639 2.067-.993l1.995-1.206c.357-.213.713-.355.998-.639s.499-.568.499-.993c0-.355-.214-.71-.499-.993l-.926-.71-1.853-1.348-.071-.071.071-.071c.499-.568.926-1.135 1.283-1.774v-.071h.071l4.204-.284c.713-.071 1.354-.213 1.924-.568a1.71 1.71 0 0 0 .713-.71c.214-.284.143-.639.143-.993v-2.626c0-.142-.072-.284-.143-.426-.214-.284-.427-.497-.713-.71-.57-.355-1.282-.497-1.995-.568l-2.067-.213 2.067.142c.713.071 1.425.213 2.067.568.285.142.57.426.784.71.071.142.142.355.213.497v3.122c0 .213-.071.355-.142.568-.214.355-.499.568-.784.781-.641.355-1.354.568-2.067.568l-4.204.284.071-.071c-.356.639-.784 1.206-1.283 1.774v-.142l1.853 1.419c.285.213.642.426.927.71s.498.639.498 1.064-.213.781-.57 1.064c-.285.284-.641.426-.997.639l-1.996 1.135c-.641.355-1.354.851-2.138.993-.783.213-1.567.213-2.351.071s-1.497-.568-2.209-.852l-2.138-.922h.071l-3.064.71.071-.071-.499 2.2c-.071.355-.214.78-.499.993-.285.284-.641.426-.926.568-.713.284-1.497.355-2.209.355l-2.067.071zm0-30.655h-2.209c-.713 0-1.497.071-2.138.355s-1.283.781-1.354 1.561l-.499 2.2v.071h-.071l-3.064.71-2.138-.922c-.713-.284-1.425-.71-2.138-.852-.784-.142-1.568-.142-2.28 0-.784.142-1.425.568-2.067.993l-1.995 1.135c-.356.213-.713.355-.998.639s-.499.568-.499.993c0 .355.214.71.499.993l2.779 2.129h.071v.071c-.499.568-.926 1.135-1.283 1.774l-4.703.355c-.784.142-1.568.426-2.067.993-.142.142-.214.284-.285.497s0 .355-.071.568v2.413c0 .426.071.781.285 1.064.499.568 1.283.852 2.067.994l4.703.355h.071v.071c.356.639.784 1.206 1.283 1.774l.071.071-.071.071-1.853 1.419c-.285.213-.641.426-.926.71s-.499.568-.428.922c0 .355.214.71.499.922.285.284.641.426.926.639l1.995 1.135c.713.355 1.354.852 2.067.993s1.497.142 2.28 0 1.425-.497 2.138-.852l2.138-.922 3.064.71h.071v.071l.428 2.2c.071.781.713 1.277 1.354 1.561.713.284 1.425.355 2.138.355h2.209c-2.922 0-3.706-.071-4.418-.355-.357-.142-.713-.355-.927-.568-.285-.284-.427-.639-.499-.993l-.498-2.2.071.071-3.064-.71h.071l-2.138.993c-.713.284-1.425.71-2.209.852a6.55 6.55 0 0 1-2.352 0c-.356-.071-.784-.213-1.14-.426l-2.993-1.703c-.356-.213-.713-.355-.998-.639s-.57-.639-.57-1.064.214-.851.499-1.064c.285-.284.641-.497.926-.71l1.853-1.419v.142c-.499-.568-.927-1.135-1.283-1.774l.071.071-4.703-.355c-.784-.142-1.568-.426-2.138-1.064-.142-.142-.214-.355-.285-.568s-.071-.426-.071-.568v-2.413c0-.213 0-.426.071-.568.071-.213.142-.355.285-.497.57-.639 1.354-.852 2.138-.993l4.703-.355c.356-.639.784-1.206 1.283-1.774v.071l-1.853-1.348c-.285-.213-.641-.426-.926-.71s-.499-.639-.499-1.064.214-.781.499-1.064.641-.426.998-.639l1.995-1.135c.641-.355 1.354-.852 2.138-.994s1.568-.213 2.352-.071 1.496.568 2.209.851l2.138.923h-.071l3.064-.71-.071.071.498-2.2c.072-.355.214-.781.499-.994.285-.284.57-.426.927-.568.712-.284 1.496-.355 2.209-.355l2.209-.355z"/><path d="M132.424 44.41c-.071-.568-.57-.994-1.069-1.206l-2.993-1.703c-.499-.284-.998-.568-1.568-.71-1.14-.213-2.352-.142-3.349.284l-3.136 1.419-3.064-.71h-.071v-.071l-.499-2.2c-.072-.71-.713-1.206-1.354-1.49s-1.426-.355-2.138-.355l-2.209-.071 2.209-.071c.712 0 1.496.071 2.209.355a4.56 4.56 0 0 1 .998.568c.285.284.498.639.498.994l.499 2.2-.071-.071 3.064.781h-.071l3.207-1.348a5.69 5.69 0 0 1 3.421-.426c.57.071 1.14.355 1.639.639l2.993 1.703c.356.426.784.852.855 1.49zm-38.411 4.399c-.285.426-.57.852-.784 1.348-.142.284-.428.355-.641.426-.285.071-.499.071-.784.071l-3.136.213c-.499.071-1.069.071-1.568.142-.214.071-.499.142-.57.355-.071.071 0 .213 0 .355v2.767c.071.213.285.355.499.426s.499.071.784.071l3.919.355c.499.071 1.14 0 1.496.426.285.426.499.922.784 1.348.142.213.356.426.499.639l.285.284c.071.071.214.213.214.355.071.142 0 .284-.071.426s-.214.213-.285.284l-.713.355-1.283.922-.641.497c-.214.142-.499.284-.499.497-.071.213.142.426.356.497l.713.355 2.708 1.561c.428.213.998.284 1.425.071l2.85-1.277.713-.355c.214-.071.499-.213.784-.284s.57 0 .855.071l.784.213 1.496.355c.499.142.998.213 1.568.284.285.071.57.071.784.284a.39.39 0 0 1 .214.355v.568l.356 1.561.143.781c0 .284.213.426.427.497s.499.142.784.142h2.352c-2.637 0-2.922 0-3.136-.142-.214-.071-.499-.355-.499-.568l-.142-.781-.356-1.561-.072-.355c0-.142-.071-.213-.213-.284a1.21 1.21 0 0 0-.713-.213l-1.568-.284-1.496-.355c-.499-.142-.998-.355-1.497-.284-.214 0-.499.142-.713.213l-.712.284-2.851 1.277c-.499.213-1.14.213-1.639-.071l-2.708-1.49-.713-.426c-.214-.071-.499-.355-.428-.71.071-.142.143-.284.285-.355l.285-.213.641-.497 1.283-.922.641-.497c.214-.142.428-.355.356-.568 0-.142-.143-.213-.214-.284l-.285-.284c-.142-.213-.356-.426-.499-.639l-.855-1.348c-.356-.426-.926-.355-1.425-.426l-3.135-.142-.784-.071c-.285 0-.499 0-.784-.071s-.57-.213-.641-.568v-2.767c0-.142 0-.284.071-.426.142-.284.428-.355.713-.426l1.568-.142 3.136-.213c.285 0 .499 0 .784-.071.214-.071.499-.142.641-.426l.855-1.135zm33.636 0l-.214-.284-.641-.71c-.071-.142-.142-.284-.071-.497.071-.142.214-.213.356-.355l2.993-2.271c.071-.071.143-.213.143-.355s-.143-.213-.285-.284l-.784-.426-1.639-.922-.784-.426c-.285-.142-.499-.284-.784-.355s-.57 0-.855.071l-4.276 1.774a2.04 2.04 0 0 1-.926 0l-.856-.284-1.781-.426-.927-.213c-.285-.071-.641-.071-.926-.213-.142-.071-.285-.213-.285-.355l-.071-.426-.428-1.845-.071-.426a.54.54 0 0 0-.143-.355c-.427-.426-1.14-.284-1.71-.284h-3.706c-.285 0-.641 0-.926.071s-.57.213-.57.497l-.356 1.774-.357 1.064c-.071.355-.427.568-.784.639a28.96 28.96 0 0 0-3.563.852c-.285.071-.57.213-.926.213-.285 0-.642-.071-.927-.213l-3.42-1.561c-.285-.142-.57-.284-.855-.284-.285-.071-.57 0-.855.071l-3.207 1.774c-.285.142-.57.284-.713.497-.071.142 0 .284.071.355s.214.213.356.284l1.497 1.135c.499.355.998.71 1.425 1.135.071.142.142.355.071.497s-.214.213-.285.355c-.214.213-.428.426-.57.71.214-.213.356-.497.57-.71.071-.142.214-.213.285-.355a.33.33 0 0 0-.071-.426c-.428-.355-.998-.71-1.497-1.064l-1.496-1.064c-.143-.071-.285-.142-.356-.284-.143-.142-.143-.355-.071-.497a.86.86 0 0 1 .356-.355l.428-.213 3.207-1.845c.285-.142.641-.142.926-.142.356 0 .641.213.927.284l1.71.781c1.14.426 2.209 1.348 3.42.71 1.212-.355 2.423-.639 3.635-.852.285-.071.57-.213.641-.497l.071-.923.428-1.774c.071-.355.427-.568.712-.639s.642-.071.927-.071h4.632c.285 0 .641.071.855.284.143.142.143.284.214.426l.071.426.428 1.845.071.426c.071.142.143.213.285.284.285.142.57.142.855.213l.927.142 1.781.426c.57.142 1.212.426 1.782.284l1.71-.71 1.71-.781.856-.355c.285-.142.641-.142.926-.071.356 0 .641.213.855.355l.784.497 1.568.922.784.497c.142.071.285.213.285.426.071.213-.072.355-.143.497l-1.496 1.135-1.497 1.064c-.142.071-.285.142-.356.284a.45.45 0 0 0 0 .426l.57.71.356.284z"/><path d="M110.831 67.046h2.352c.285 0 .499 0 .784-.142.213-.071.427-.284.427-.497l.143-.781.356-1.561.071-.355c0-.142.143-.284.214-.355.214-.142.499-.213.784-.284l1.568-.284 1.496-.355.784-.213c.285-.071.57-.071.784-.071.285 0 .499.142.784.284l.713.355 2.85 1.277c.428.213 1.069.213 1.497-.071l2.708-1.561.712-.426c.214-.142.428-.355.357-.568s-.357-.355-.571-.497l-.641-.497-1.283-.922-.641-.497c-.071-.071-.214-.142-.285-.284s-.143-.284-.071-.426.142-.284.213-.355l.286-.284c.142-.213.356-.426.498-.639.285-.426.499-.852.784-1.348.214-.213.499-.355.713-.355.285-.071.499-.071.784-.071l3.919-.355c.285 0 .499 0 .784-.071.214-.071.499-.213.499-.426v-3.122c-.071-.213-.356-.284-.57-.355-.499-.071-1.069-.071-1.568-.142l-3.135-.284c-.286 0-.499 0-.784-.071a1.04 1.04 0 0 1-.642-.426c-.214-.497-.499-.922-.784-1.348.357.426.642.852.856 1.348.142.213.356.355.641.426.214.071.499.071.784.071l3.135.213c.499.071 1.069.071 1.568.142.285.071.57.142.713.426.071.071.071.142.071.213v2.98c-.071.355-.428.497-.641.568-.285.071-.57.071-.784.071l-3.92.355c-.499.071-1.069 0-1.425.355-.285.426-.499.922-.855 1.348-.143.213-.356.426-.499.639l-.285.284c-.071.071-.214.213-.214.284-.071.213.143.355.357.568l.641.497 1.283.922.641.497.285.213c.143.071.214.213.285.355.071.284-.142.568-.427.639l-.713.355-2.708 1.561c-.499.284-1.069.284-1.568.071l-2.85-1.277-.713-.284c-.214-.071-.499-.213-.713-.213-.498-.071-.997.142-1.496.284l-1.497.426c-.499.142-.997.213-1.567.284-.286 0-.499.071-.713.213-.071.071-.143.142-.214.284l-.071.355-.356 1.561-.143.781c0 .284-.285.497-.499.639-.285.071-.499.142-.784.142h-.784l-1.71-.213z"/></g></g><defs><linearGradient id="A" x1="110.938" y1="45.332" x2="110.938" y2="75.987" gradientUnits="userSpaceOnUse"><stop stop-color="#e6e6e6"/><stop offset="1" stop-color="#9c9c9c"/></linearGradient><linearGradient id="B" x1="110.831" y1="45.5" x2="110.831" y2="76" gradientUnits="userSpaceOnUse"><stop stop-color="#e6e6e6"/><stop offset="1" stop-color="#9c9c9c"/></linearGradient><linearGradient id="C" x1="110.938" y1="37.668" x2="110.938" y2="68.323" gradientUnits="userSpaceOnUse"><stop stop-color="#d2d2d2"/><stop offset=".505" stop-color="#f0f0f0"/><stop offset="1" stop-color="#d6d6d6"/></linearGradient><clipPath id="D"><path fill="#fff" d="M0 0h150v110H0z"/></clipPath></defs></svg>