<svg xmlns="http://www.w3.org/2000/svg" width="160" height="80" fill="none"  xmlns:v="https://vecta.io/nano"><path d="M98.666 60.792L83.247 17.9h-.304l-8.949 24.844c-2.016-1.798-4.84-2.913-8.397-3.329l-1.085-.113 1.076-.139c5.866-1.065 9.81-4.809 9.81-9.318 0-6.185-5.757-10.502-14.004-10.502H44.235v.313h4.986v31.957L37.101 17.9h-.304L21.386 60.682l-.075.009a13.12 13.12 0 0 1-.621.063 11.69 11.69 0 0 1-.921.039H7.403l23.68-41.446H2.335v12.725h.305c.054-6.198 3.627-12.416 11.52-12.416h9.523L0 61.1h31.906V48.908h-.305c-.041 5.402-3.073 10.534-9.664 11.693l-.21.036 5.02-13.941h14.062l5.067 14.096h-4.998v.308h19.618v-.308h-5.02V39.529h5.792c5.894 0 9.275 2.661 9.275 7.298v3.772c0 .416.028 1.023.059 1.531v.018l-3.113 8.642h-4.067v.308h8.419v-.308h-4.023l2.835-7.869.009.122.078.709.075.469c.473 2.902 1.572 5.035 3.264 6.34l.243.179c1.286.903 2.883 1.361 4.751 1.361 2.474 0 4.124-.623 5.486-2.09l-.179-.17c-1.255 1.17-2.308 1.645-3.628 1.645-2.248 0-3.425-2.755-3.425-5.473v-5.284a11.98 11.98 0 0 0-.601-3.859l-.056-.164v-.006h10.285l5.067 14.096h-4.998v.308H104v-.308l-5.334-.002zM26.859 46.388l6.927-19.229 6.912 19.229H26.859zm28.62-7.168V19.656H59.9c5.906 0 9.024 3.547 9.024 10.255 0 7.134-1.79 9.31-7.656 9.31h-5.789zm21.071 7.168l-.03-.076a9.56 9.56 0 0 0-1.961-3.024l-.29-.293-.031-.029 5.69-15.808 6.912 19.229h-10.29z" fill="#3c2829"/></svg>