<svg xmlns="http://www.w3.org/2000/svg" width="160" height="80" fill="#3c2829"  fill-rule="evenodd" xmlns:v="https://vecta.io/nano"><path d="M95.482 43.704l4.898-6.081 2.908-3.628c.066-.082.131-.155.266-.154l3.166.004-1.133 1.426-4.498 5.638c-.092.115-.08.198-.02.312l3.953 7.48 2.285 4.319c.14.261.078.292-.184.288l-2.638-.003c-.16.001-.244-.047-.321-.194l-4.885-9.382-.169-.341c-.405.357-.719.789-1.071 1.184l-2.477 2.815c-.097.109-.079.218-.08.332l.004 5.275c.001.242-.045.323-.305.316l-2.158-.003c-.201.003-.245-.057-.245-.251V26.501c0-.196.048-.251.247-.248l2.158-.002c.261-.007.303.077.303.317l-.005 17.136zm-20.624-7.207l.987-.923c.84-.77 1.752-1.434 2.857-1.769 1.7-.516 3.373-.466 4.984.335 1.249.621 1.991 1.661 2.383 2.976.16.537.24 1.084.24 1.645l.006 14.205c.001.266-.055.355-.336.346a32.69 32.69 0 0 0-2.067-.003c-.259.008-.306-.069-.306-.312L83.6 38.732c-.007-1.159-.466-2.146-1.603-2.642-.725-.316-1.508-.368-2.289-.241-1.671.272-2.996 1.172-4.225 2.286-.499.452-.642.929-.639 1.582l.02 13.276c0 .239-.041.325-.302.317l-2.098-.001c-.252.007-.309-.061-.309-.31l.002-26.493c-.008-.187.032-.258.241-.254h2.188c.227-.005.279.056.278.28l-.005 9.965zM61.021 53.696c-2.115.003-3.85-.406-5.441-1.372-.938-.569-1.707-1.32-2.388-2.171-.102-.127-.072-.201.053-.293l1.816-1.36c.145-.112.186-.051.271.06.592.766 1.261 1.454 2.104 1.946 1.299.759 2.702.982 4.188.816.829-.092 1.599-.323 2.245-.857 1.032-.852 1.424-2.046.914-3.272-.266-.64-.776-1.062-1.353-1.426-.959-.606-2.054-.864-3.101-1.241l-3.721-1.295c-1.626-.692-2.805-1.929-2.912-3.97-.057-1.09.108-2.135.658-3.092.318-.554.723-1.036 1.251-1.416 1.185-.852 2.518-1.215 3.957-1.269 1.689-.062 3.248.363 4.721 1.18.83.46 1.537 1.053 2.162 1.757.105.118.194.25.296.372.09.108-.002.167-.064.221l-1.57 1.363c-.143.129-.198.125-.336-.014-.518-.523-1-1.082-1.621-1.501-1.209-.816-2.53-1.194-3.98-1.032-1.072.12-2.081.434-2.533 1.542-.467 1.142-.364 2.161.643 2.976.727.589 1.586.879 2.451 1.175l4.178 1.439c1.118.356 2.046.971 2.759 1.882.811 1.036 1.094 2.237 1.009 3.551-.059.916-.298 1.756-.79 2.525-.538.842-1.287 1.45-2.159 1.92-1.07.576-2.506.888-3.706.855zM45.056 37.721l.541-.855c.523-.792 1.101-1.533 1.864-2.117.868-.666 1.86-1.005 2.932-1.141.285-.036.572-.077.863-.067.133.004.167.042.166.171v2.368c.001.131-.04.157-.167.168-.414.034-.827.077-1.233.179a5.18 5.18 0 0 0-2.873 1.849c-1.012 1.27-1.627 2.736-2.124 4.261-.03.091-.02.197-.02.295l.005 10.161c.001.238-.038.324-.302.317l-2.158-.001c-.195.003-.248-.051-.248-.25V34.086c0-.194.046-.249.244-.245a66.39 66.39 0 0 0 2.218 0c.195-.003.246.047.245.243l-.003 3.327c0 .093-.035.194.05.31zM14.85 47.968c-.447 1.067-1.271 1.738-2.301 2.172-1.066.45-2.193.592-3.345.615l-5.899.026c-.233.003-.299-.057-.297-.295l.006-4.883-.006-4.913c-.001-.189.036-.257.241-.255l5.152.015c1.281.034 2.553.193 3.738.755 1.108.526 2.014 1.273 2.592 2.37.418.793.516 1.658.501 2.54a4.97 4.97 0 0 1-.381 1.852zM3.014 33.343l-.005-4.256c-.001-.212.034-.285.271-.284l6.264.017c.89.015 1.78.124 2.626.462 1.197.478 1.935 1.339 2.221 2.591.202.885.245 1.769-.012 2.655-.327 1.131-1.095 1.899-2.074 2.469-1.156.673-2.435.885-3.754.889-1.748.006-3.497-.002-5.245.007-.23.001-.3-.052-.298-.294l.006-4.256zm15.059 11.164c-.344-1.717-1.246-3.083-2.636-4.124-.679-.509-1.429-.896-2.266-1.086-.059-.013-.129-.027-.135-.094-.007-.083.079-.071.13-.092l1.297-.588c.895-.497 1.646-1.147 2.189-2.02.706-1.136.933-2.39.895-3.709-.078-2.707-1.423-4.589-3.8-5.768-1.275-.633-2.67-.758-4.068-.765L.328 26.25c-.267-.001-.328.067-.328.33l.006 13.217-.001 13.067c0 .463 0 .463.476.463l8.212-.005c1.004-.005 2.009-.049 3-.237 1.402-.266 2.764-.634 3.953-1.475 1.005-.711 1.74-1.625 2.143-2.791.488-1.411.576-2.85.283-4.314zm103.787.998v2.457c0 .118-.001.223-.096.327-1.156 1.264-2.528 2.208-4.142 2.78-.803.285-1.646.451-2.487.218-1.047-.291-1.919-.874-2.307-1.933-.341-.934-.211-1.866.344-2.709.761-1.155 1.919-1.781 3.143-2.307 1.712-.735 3.509-1.172 5.339-1.487.201-.035.209.043.208.198l-.002 2.457zm3.106 7.538c-.311-1.377-.408-2.774-.408-4.181l-.003-9.98c-.001-.892-.244-1.734-.688-2.5-.908-1.571-2.361-2.371-4.079-2.719-1.177-.238-2.372-.248-3.567-.064-2.489.382-4.347 1.674-5.61 3.841-.068.116-.112.176.057.259l1.985 1.023c.189.102.254.07.342-.124.441-.979 1.109-1.77 2.091-2.228 1.444-.674 2.964-.746 4.488-.351 1.137.295 1.889 1.024 2.173 2.209.166.694.082 1.389.115 2.084.007.142-.085.124-.169.14l-1.49.29c-2.41.505-4.791 1.109-6.978 2.286-.962.518-1.806 1.198-2.397 2.138-.774 1.23-.964 2.579-.816 4.007.152 1.462.821 2.62 1.978 3.493.837.632 1.807.934 2.853 1.003 1.215.08 2.394-.05 3.54-.49 1.289-.495 2.365-1.287 3.312-2.275.075-.079.128-.206.272-.206l.271 2.406c.011.092-.04.229.149.228L125 53.33l-.034-.285zM25.255 41.517c.139-1.368.469-2.67 1.278-3.813.744-1.051 1.75-1.65 3.028-1.828.781-.109 1.544-.088 2.301.125.73.205 1.31.634 1.811 1.194.961 1.076 1.298 2.379 1.404 3.77l.037.566c.028.215-.058.259-.262.258l-4.671-.005c-1.557 0-3.114-.004-4.671.005-.218.002-.275-.066-.254-.271zm12.998 7.557l-1.197-.602c-.239-.119-.515-.362-.71-.31s-.308.405-.46.624c-1.443 2.074-3.433 2.814-5.733 2.54-1.527-.182-2.676-1.058-3.562-2.285-1.008-1.396-1.395-2.984-1.437-4.681-.006-.236.068-.269.28-.268l12.109.011c.231.003.278-.061.273-.28l-.009-2.038c-.055-1.63-.297-3.224-1.081-4.683-.753-1.402-1.836-2.465-3.323-3.072-1.19-.485-2.436-.619-3.714-.522-1.698.129-3.184.742-4.404 1.937-1.116 1.093-1.858 2.419-2.282 3.919-.328 1.161-.493 2.347-.522 3.557-.032 1.287.012 2.562.285 3.825.371 1.712 1.059 3.259 2.29 4.536.868.9 1.872 1.588 3.063 1.989 1.527.514 3.087.525 4.657.273 1.195-.193 2.31-.61 3.252-1.381.964-.789 1.71-1.772 2.33-2.852.089-.155-.004-.186-.103-.236z"/></svg>