<svg xmlns="http://www.w3.org/2000/svg" width="160" height="80" fill="#3c2829"  xmlns:v="https://vecta.io/nano"><path d="M.267 61.493h1.781v-3.53c0-.629 0-1.404.323-1.858.321-.494.897-.654 1.219-.654 1.5 0 1.5 1.765 1.5 2.379v3.663h1.78v-4.01c0-.576 0-1.818-.682-2.633-.615-.75-1.594-1.032-2.236-1.032-1.126 0-1.742.617-2.036.898v-.644H.267v7.421z"/><path fill-rule="evenodd" d="M14.969 58.578a4.26 4.26 0 0 0 .107-.895c0-1.87-1.488-3.906-3.845-3.906-2.291 0-3.911 1.928-3.911 4.026 0 2.165 1.715 3.931 3.925 3.931a3.86 3.86 0 0 0 3.589-2.58h-1.876c-.334.615-.922.948-1.713.948-1.272 0-1.969-1.042-2.05-1.524h5.774zm-5.828-1.431c.335-1.377 1.447-1.738 2.103-1.738.884 0 1.808.548 2.009 1.738H9.142z"/><path d="M17.362 61.493h1.096l1.407-4.812h.026l1.395 4.813h1.098l2.719-7.421h-1.901l-1.368 4.533h-.026L20.6 54.071h-1.418l-1.219 4.533h-.027l-1.352-4.533h-1.902l2.68 7.421z"/><path d="M28.55 61.492h1.633v-.896c.441.495 1.073 1.137 2.506 1.137 2.718 0 3.696-2.5 3.696-3.985 0-1.963-1.473-3.931-3.736-3.931-.831 0-1.703.309-2.319.925v-3.143h-1.78v9.894zm1.673-3.809c0-1.083.844-2.233 2.21-2.233 1.126 0 2.171.867 2.171 2.313s-.978 2.339-2.144 2.339c-1.044 0-2.238-.775-2.238-2.42zm14.478-3.612h-1.635v.939h-.027c-.054-.108-.952-1.194-2.464-1.194-2.062 0-3.724 1.645-3.724 3.92 0 2.472 1.702 3.997 3.618 3.997.936 0 2.035-.496 2.597-1.161v.92h1.635v-7.421zm-1.687 3.693c0 1.377-.939 2.338-2.172 2.338-1.272 0-2.21-1.03-2.21-2.286 0-1.109.75-2.366 2.21-2.366 1.059 0 2.172.775 2.172 2.313z" fill-rule="evenodd"/><path d="M47.428 51.599h-1.781v9.894h1.781v-9.894z"/><path fill-rule="evenodd" d="M55.813 54.071h-1.634v.939h-.027c-.054-.108-.952-1.194-2.464-1.194-2.065 0-3.724 1.645-3.724 3.92 0 2.472 1.702 3.997 3.617 3.997.937 0 2.035-.496 2.599-1.161v.92h1.634v-7.421zm-1.688 3.693c0 1.377-.937 2.338-2.17 2.338-1.273 0-2.21-1.03-2.21-2.286 0-1.109.75-2.366 2.21-2.366 1.058 0 2.17.775 2.17 2.313z"/><path d="M56.761 61.493h1.78v-3.53c0-.629 0-1.404.323-1.858.321-.494.899-.654 1.219-.654 1.499 0 1.499 1.765 1.499 2.379v3.663h1.783v-4.01c0-.576 0-1.818-.685-2.633-.616-.75-1.593-1.032-2.236-1.032-1.126 0-1.741.617-2.036.898v-.644h-1.647v7.421zm12.933-2.42c-.47.749-1.057 1.03-1.647 1.03-1.341 0-2.238-1.056-2.238-2.326 0-1.524 1.072-2.326 2.156-2.326 1.099 0 1.515.708 1.728 1.082h2.01c-.764-2.287-2.802-2.715-3.739-2.715-2.049 0-3.937 1.661-3.937 3.931 0 2.461 2.047 3.985 3.951 3.985 1.741 0 3.12-1.003 3.724-2.66h-2.01z"/><path d="M79.628 58.578a4.2 4.2 0 0 0 .106-.895c0-1.87-1.486-3.906-3.843-3.906-2.291 0-3.912 1.928-3.912 4.026 0 2.165 1.715 3.931 3.925 3.931a3.86 3.86 0 0 0 3.589-2.58h-1.875c-.336.615-.923.948-1.715.948-1.273 0-1.969-1.042-2.048-1.524h5.772zm-5.827-1.431c.335-1.377 1.446-1.738 2.103-1.738.885 0 1.808.548 2.009 1.738h-4.112zM30.585 36.895l-2.381 4.104-13.178-.74 1.319-2.286 14.239-1.078zm9.526-13.077l1.194 4.529-18.698-1.227 1.319-2.285 16.186-1.017zm-12.396-5.552l10.945.008.826 3.097-13.088-.82 1.317-2.285zm-.962 25.285l-1.901 3.261-13.616.015 1.319-2.284 14.198-.992zm23.905-8.799l-3.296 5.703h3.139c1.454 0 4.061-.725 4.862-2.792.743-1.921-.622-2.913-1.575-2.913l-3.13.002zm3.143-5.455l2.738-.017c1.822-.01 3.723-.842 4.418-2.53.641-1.566-.221-2.9-1.363-2.895l-2.648-.003-3.145 5.445zm-12.394-.95l2.765-4.787 9.357-.599.327-.581-8.656-.604 2.024-3.508 16.052-.001c4.936 0 8.588 1.762 7.168 6.942-.427 1.57-2.433 5.52-8.318 7.175 1.249.148 4.36 1.524 3.824 5.091-.952 6.325-9.156 9.335-13.719 9.337l-18.95.009-.934-3.659 9.926-.699.337-.579-10.765-.654-1.16-4.338L46.003 36l.333-.575-27.52-1.733 1.319-2.284 29.623-1.92.336-.575-8.685-.562z" fill-rule="evenodd"/></svg>