<svg xmlns="http://www.w3.org/2000/svg" width="198" height="59" fill="none"  xmlns:v="https://vecta.io/nano"><path d="M28.967 28.5c-1.123-1.523-2.31-2.777-2.31-5.617v-9.426c0-4.015.289-7.68-2.696-10.441C21.618.793 17.719 0 14.735 0 8.911 0 2.397 2.158 1.033 9.283c-.144.746.417 1.143.915 1.269l5.937.635c.562-.032.963-.571 1.075-1.111.513-2.46 2.583-3.65 4.926-3.65 1.268 0 2.696.476 3.434 1.571.866 1.254.754 2.951.754 4.396v.793c-3.562.381-8.199.651-11.536 2.095a10.39 10.39 0 0 0-4.845 3.932C.523 20.985-.066 23.069.006 25.183c0 6.3 4.011 9.442 9.178 9.442 4.364 0 6.739-1.016 10.108-4.396 1.107 1.587 1.46 2.38 3.498 4.047.229.121.489.17.747.142a1.29 1.29 0 0 0 .697-.301l4.717-3.999c.514-.413.417-1.063.016-1.619zm-10.911-9.156c0 2.38.064 4.332-1.123 6.443-.979 1.698-2.535 2.745-4.252 2.745-2.359 0-3.722-1.777-3.722-4.396 0-5.157 4.669-6.093 9.114-6.093l-.016 1.301zm91.248 9.156c-1.123-1.523-2.311-2.777-2.311-5.617v-9.426c0-4.015.289-7.68-2.695-10.441C101.939.793 98.04 0 95.072 0c-5.84 0-12.355 2.158-13.702 9.283-.16.746.417 1.158.914 1.269l5.937.635c.546-.032.963-.571 1.059-1.111.513-2.46 2.599-3.65 4.926-3.65 1.267 0 2.695.476 3.434 1.571.866 1.254.754 2.951.754 4.396v.793c-3.546.397-8.199.651-11.52 2.095-1.989.783-3.686 2.154-4.857 3.927a10.2 10.2 0 0 0-1.689 5.975c0 6.3 4.011 9.442 9.178 9.442 4.364 0 6.739-1.016 10.108-4.396 1.107 1.587 1.476 2.38 3.513 4.047a1.28 1.28 0 0 0 .748.146 1.27 1.27 0 0 0 .696-.304v.016l4.718-4.015c.481-.413.433-1.063.016-1.619zm-12.05-2.713c-.979 1.698-2.535 2.745-4.252 2.745-2.359 0-3.722-1.777-3.722-4.396 0-5.157 4.685-6.093 9.113-6.093v1.317c0 2.364.064 4.316-1.139 6.427zm82.792 8.41h-6.113a1.16 1.16 0 0 1-.765-.345c-.202-.206-.319-.479-.326-.766l-.016-31.102c.028-.286.164-.551.381-.742s.499-.294.79-.289h5.68c.253.007.497.096.695.254s.336.375.396.619v4.761h.128c1.717-4.253 4.108-6.284 8.343-6.284a8.1 8.1 0 0 1 4.075.873 7.98 7.98 0 0 1 3.081 2.777C198 6.458 198 10.632 198 13.647v19.582c-.046.276-.192.526-.41.704a1.18 1.18 0 0 1-.777.264h-6.146a1.16 1.16 0 0 1-.72-.291 1.14 1.14 0 0 1-.371-.677v-16.9c0-3.396.402-8.363-3.818-8.363-1.492 0-2.872.968-3.546 2.476a13.68 13.68 0 0 0-.979 5.887v16.757c-.012.302-.144.587-.365.794a1.18 1.18 0 0 1-.822.317zM154.229.302c9.098 0 14.008 7.728 14.008 17.535 0 9.489-5.423 17.027-14.008 17.027-8.92 0-13.798-7.728-13.798-17.344 0-9.68 4.926-17.217 13.798-17.217zm.065 6.347c-4.525 0-4.814 6.094-4.814 9.886s-.064 11.901 4.749 11.901c4.75 0 4.974-6.538 4.974-10.521 0-2.618-.112-5.776-.914-8.252-.69-2.158-2.054-3.015-4.011-3.015h.016zM40.985 34.197h-6.129a1.16 1.16 0 0 1-.745-.304 1.14 1.14 0 0 1-.363-.711V2.079c0-.635.546-1.111 1.187-1.111h5.712c.594.016 1.075.476 1.123 1.031v4.062h.112c1.476-3.935 4.284-5.76 8.055-5.76 3.835 0 6.241 1.825 7.958 5.76.609-1.723 1.756-3.21 3.277-4.246S64.506.25 66.352.302c2.567 0 5.375 1.047 7.092 3.396C75.401 6.316 75 10.124 75 13.457v19.629c0 .619-.546 1.111-1.187 1.111h-6.129c-.291-.012-.566-.134-.769-.341a1.12 1.12 0 0 1-.322-.77V16.583c0-1.301.112-4.57-.177-5.808-.465-2.095-1.829-2.698-3.61-2.698-.795.026-1.566.282-2.216.736a4.04 4.04 0 0 0-1.442 1.819c-.642 1.587-.562 4.189-.562 5.967v16.487c0 .635-.529 1.111-1.187 1.111h-6.129a1.16 1.16 0 0 1-.765-.345c-.202-.206-.319-.479-.326-.766V16.583c0-3.459.562-8.569-3.787-8.569-4.396 0-4.236 4.983-4.236 8.569v16.503c0 .635-.529 1.111-1.171 1.111zm73.47-27.754V1.999c0-.295.118-.577.329-.785a1.13 1.13 0 0 1 .794-.325h20.169c.642 0 1.155.444 1.155 1.111v3.808c0 .635-.546 1.476-1.508 2.793l-10.429 14.742c3.85-.095 7.958.476 11.488 2.428.786.444.995 1.111 1.059 1.745v4.745c0 .635-.722 1.396-1.476 1.016a23.41 23.41 0 0 0-21.292.032c-.69.365-1.428-.381-1.428-1.031V27.77c0-.714 0-1.952.754-3.047l12.082-17.154h-10.526a1.13 1.13 0 0 1-.815-.314 1.11 1.11 0 0 1-.251-.364 1.09 1.09 0 0 1-.089-.433l-.016-.016zm13.125 34.292c-1.476-1.857-9.723-.873-13.446-.444-1.123.143-1.283-.825-.273-1.539 6.579-4.57 17.377-3.253 18.613-1.714 1.283 1.539-.321 12.235-6.499 17.344-.946.794-1.845.365-1.428-.666 1.396-3.428 4.493-11.108 3.033-12.98zm-4.798 5.411c-11.504 8.394-28.174 12.854-42.535 12.854-19.187.099-37.72-6.889-51.969-19.598-1.075-.952-.112-2.269 1.187-1.539 15.83 8.952 33.75 13.657 51.985 13.647 12.756 0 26.763-2.618 39.663-8.029 1.941-.793 3.578 1.27 1.668 2.666z" fill="#ed7339"/></svg>