<svg xmlns="http://www.w3.org/2000/svg" width="50" height="50" fill="#fff8ee"  xmlns:v="https://vecta.io/nano"><path d="M6.068 39.277c2.206 2.32 4.612 4.35 7.32 6.09s5.715 3.19 8.924 3.963 6.618.967 9.927.097c3.309-.773 6.317-2.513 8.724-4.737 4.813-4.447 7.621-10.537 8.623-16.723.501-3.093.602-6.283 0-9.377s-1.705-6.187-3.51-8.797-4.211-4.93-7.119-6.67A22.89 22.89 0 0 0 29.531.128C22.913-.549 15.894 1.481 10.78 5.831c-.602.483-1.203 1.16-1.805 1.74a14.2 14.2 0 0 0-1.604 1.837c-1.003 1.257-2.005 2.513-2.908 3.867-1.805 2.707-3.209 5.607-4.011 8.7-.702 3.093-.602 6.477.401 9.473 1.203 2.9 3.108 5.607 5.214 7.83zm.201-.097c-2.106-2.32-3.911-4.93-4.713-7.927s-.602-6.09.301-8.99 2.507-5.51 4.312-8.023c.902-1.257 1.905-2.417 2.908-3.577.501-.58 1.003-1.16 1.604-1.74.602-.483 1.103-1.063 1.705-1.547 4.612-3.867 10.93-5.897 17.147-5.413 3.108.29 6.116 1.063 8.824 2.513s5.114 3.48 7.019 5.897c3.81 4.93 4.913 11.503 3.71 17.497-.602 2.997-1.705 5.897-3.309 8.603-1.604 2.61-3.509 5.027-5.916 7.057-2.306 1.933-5.014 3.48-8.022 4.253s-6.117.87-9.225.387c-6.217-1.063-12.032-4.447-16.344-8.99zM29 25l-8-10 6 10-6 10 8-10z"/></svg>