<svg xmlns="http://www.w3.org/2000/svg" width="1620" height="296" fill="none"  xmlns:v="https://vecta.io/nano"><style><![CDATA[.B{opacity:.5}.C{fill:#877672}]]></style><g clip-path="url(#A)"><g fill="#f6b289"><path d="M834.852 34.782c-2.601 13.833-12.401 24.859-26.202 22.353-13.801-2.606-25.302-16.238-22.702-30.071s17.101-21.15 29.202-17.542c13.401 4.01 22.302 11.427 19.702 25.26z"/><path d="M834.852 34.782c-.6 3.208-1.6 6.215-2.901 9.222-1.3 2.907-3.1 5.713-5.4 8.019s-5.1 4.21-8.301 5.212-6.6 1.002-9.8.401c-6.401-1.303-12.201-5.012-16.401-9.924-2.101-2.406-3.901-5.212-5.101-8.219s-1.9-6.215-1.7-9.523c.1-3.308 1-6.515 2.5-9.422s3.7-5.513 6.301-7.518c5.2-4.01 12.101-5.914 18.601-4.711.8.1 1.6.401 2.4.501.8.2 1.5.501 2.3.702 1.5.501 3.101 1.103 4.501 1.804 2.9 1.403 5.8 3.107 8.1 5.413s4.101 5.212 4.801 8.42c.9 3.207.8 6.515.1 9.623zm-.1 0c.5-3.107.6-6.415-.3-9.522-.9-3.007-2.701-5.713-5.101-7.818s-5.1-3.709-8-4.912c-1.5-.601-2.9-1.203-4.401-1.704-.8-.2-1.5-.501-2.3-.702s-1.5-.401-2.3-.501c-6.1-1.002-12.701.702-17.701 4.41-2.501 1.904-4.601 4.31-6.101 7.017s-2.4 5.814-2.6 9.021c-.5 6.315 2.2 12.73 6.501 17.441a28.97 28.97 0 0 0 16.301 9.122c3.1.601 6.3.401 9.3-.401 3.001-.902 5.701-2.606 8.001-4.711s4.2-4.711 5.7-7.618c1.401-2.907 2.401-6.014 3.001-9.122zm1 17.241c-2.8 3.007-5.901 5.814-9.301 8.119s-7.2 4.21-11.301 5.212c-4.1 1.103-8.5 1.203-12.701.1s-8-3.408-11.101-6.315c-3.1-3.007-5.5-6.515-7.3-10.224-1.8-3.809-3.1-7.818-3.7-11.928-.7-4.11-.7-8.32 0-12.429s2.1-8.119 4.5-11.627c2.3-3.508 5.4-6.616 9.101-8.821A28.42 28.42 0 0 1 805.95.101c8.5-.902 17.401 1.804 23.901 7.518.8.702 1.5 1.504 2.3 2.305.701.802 1.401 1.604 2.001 2.406 1.3 1.604 2.6 3.308 3.7 5.112 2.3 3.508 4.1 7.418 5.1 11.627.9 4.11.8 8.52-.6 12.53-1.4 3.909-3.8 7.417-6.6 10.425zm-.2-.1c2.7-3.007 5-6.616 6-10.525s.8-8.119-.4-11.928-3.2-7.317-5.5-10.625l-3.7-4.811c-.701-.802-1.301-1.604-2.001-2.306s-1.4-1.403-2.1-2.005c-5.9-5.112-14.001-7.818-21.801-7.117-3.901.301-7.801 1.504-11.301 3.408-3.4 1.905-6.501 4.611-8.901 7.818s-4 7.017-4.8 11.026-.7 8.119 0 12.129 2.2 7.919 4.2 11.427 4.5 6.716 7.501 9.322 6.4 4.611 10.2 5.713a27.5 27.5 0 0 0 11.801.501c7.901-1.504 15.301-6.014 20.802-12.028zM166.301 265.027c7.201 3.007 12.101 9.723 9.101 16.94s-11.801 11.928-19.001 8.921-9.501-11.828-6.101-18.043c3.7-6.816 8.801-10.825 16.001-7.818z"/><path d="M166.301 265.027c1.7.702 3.201 1.604 4.701 2.706 1.4 1.103 2.7 2.406 3.7 3.91s1.7 3.307 1.8 5.112c.2 1.804-.2 3.708-.9 5.412-1.5 3.409-4.2 6.015-7.301 7.819-3.1 1.704-6.9 2.606-10.4 1.704s-6.601-3.408-8.201-6.716-1.8-7.317-.4-10.725c.3-.902.8-1.704 1.2-2.406.5-.802 1-1.504 1.5-2.305 1.1-1.404 2.4-2.807 3.901-3.809a10.31 10.31 0 0 1 5.1-1.704c1.9-.201 3.7.3 5.3 1.002zm0 .1c-1.6-.702-3.4-1.102-5.2-.902-1.8.1-3.4.802-4.9 1.905-1.401 1.002-2.601 2.405-3.601 3.809s-2 3.007-2.6 4.61c-1.3 3.208-1.1 7.017.3 10.124.7 1.604 1.8 3.008 3.1 4.21 1.3 1.103 2.901 2.005 4.601 2.506 3.4 1.003 7.2.301 10.2-1.503 3.101-1.805 5.501-4.611 6.901-7.819.7-1.604 1-3.408.8-5.112-.1-1.704-.7-3.408-1.6-4.911-1.8-3.308-4.8-5.614-8.001-6.917zm9.501 1.403c2.601 3.709 4.601 8.12 4.801 12.831.1 2.305-.3 4.811-1.4 6.916-1.1 2.205-2.801 4.01-4.701 5.313-4 2.606-8.7 3.708-13.301 3.508s-9.3-1.804-12.601-5.212c-1.6-1.704-3-3.709-3.7-6.015-.8-2.205-1-4.711-.8-7.016.5-4.711 3-9.322 6.9-12.129.501-.401 1.001-.702 1.501-1.002s1-.602 1.5-.802c1-.501 2.1-1.003 3.2-1.403 2.2-.802 4.5-1.404 6.9-1.404s4.701.602 6.701 1.804c2.1 1.103 3.7 2.807 5 4.611zm-.1.101c-1.3-1.805-3-3.509-5-4.511s-4.3-1.403-6.501-1.203-4.4.902-6.4 1.704c-2 .902-4.1 1.905-5.9 3.208-3.501 2.606-5.901 6.716-6.401 11.126-.3 2.205-.1 4.41.5 6.515.7 2.105 1.7 4.11 3.2 5.814 3.001 3.408 7.501 5.213 12.001 5.313s9.101-1.303 12.601-4.01c1.8-1.303 3.3-3.007 4.301-4.911s1.5-4.11 1.6-6.315c.2-4.411-1.4-9.022-4.001-12.73z"/></g><g class="B C"><path d="M811.108 209c.439 2.158.703 4.217.791 6.375v6.375l-.791 6.375c-.088 2.158 0 4.217.176 6.375.263 2.158.439 4.217.439 6.375l.088 6.375c-.176 4.217-.527 8.533-1.406 12.75h-.263c-.791-4.217-1.054-8.533-1.142-12.75a77.64 77.64 0 0 1 .263-6.375c.088-2.158.352-4.217.615-6.375s.44-4.217.352-6.375-.439-4.217-.615-6.375 0-4.217.175-6.375.44-4.217.967-6.375h.351z"/></g><g class="B C"><path d="M811.35 65.254c.6 6.014.8 12.028 1 17.942.2 6.014.2 12.029.1 17.942l-.8 17.943a267.33 267.33 0 0 0 .3 17.942 546.65 546.65 0 0 1 .6 17.943l.1 17.942c-.2 12.028-.5 23.957-1.5 35.985h-.3c-.9-12.028-1.3-23.957-1.4-35.985l.2-17.942a528.59 528.59 0 0 1 .6-17.943c.3-6.014.5-12.028.4-17.942-.1-6.015-.6-12.029-.7-17.943-.2-6.014-.1-12.028.1-17.942.2-6.014.5-12.028 1-17.942h.3z"/></g><g class="B C"><path d="M554.731 63.551l6.8-2.105 6.901-2.005a349.71 349.71 0 0 1 13.801-3.609l13.901-3.208 14.001-2.807 14.101-2.205 7.101-1.002 7.1-1.103 14.101-2.205 14.101-2.305 14.101-2.105 14.201-1.804 14.201-1.504 14.201-1.103c19.002-1.203 38.103-1.503 57.105-.702v.301l-56.905 3.608-14.201 1.103-14.201 1.203-14.201 1.303-14.201 1.403-14.201 1.704-14.101 2.205c-4.7.802-9.301 1.804-14.001 2.807l-13.901 3.007-27.802 5.814-14.001 2.907-7.001 1.504c-2.3.501-4.7 1.002-7 1.403v-.501z"/></g><g class="B C"><path d="M287.211 179.324l7.6-5.012 7.701-5.012 15.601-9.522 15.901-9.122 16.201-8.62 16.502-8.019 8.3-3.809 8.301-3.909 33.102-15.537 16.702-7.518 16.901-7.016 17.101-6.616 17.201-6.215c23.102-7.818 46.604-14.635 70.406-19.847l.1.301c-23.302 7.117-46.504 14.534-69.405 22.654l-17.202 6.114-17.101 6.315-17.001 6.616-17.002 6.816-16.801 7.117-16.601 7.718-16.301 8.319-16.101 8.721c-5.301 3.007-10.701 5.814-16.102 8.721l-16.001 8.821-31.902 17.842-.1-.301z"/></g><g class="B C"><path d="M173.102 263.924c8.401-8.42 17.001-16.639 26.202-24.157l3.5-2.807 1.801-1.403c.6-.501 1.1-1.002 1.7-1.503l6.9-5.614c2.3-1.804 4.701-3.608 7.201-5.312l7.5-4.812c10.101-6.214 18.902-14.434 28.802-20.949 4.801-3.408 9.901-6.616 15.002-9.623s10.3-5.914 15.701-8.52l.2.301c-4.701 3.708-9.501 7.116-14.401 10.524-2.4 1.705-4.901 3.308-7.301 5.012l-7.4 4.812-7.501 4.811c-2.5 1.604-5.1 3.107-7.601 4.611-5.1 3.107-10 6.415-14.601 10.124l-6.9 5.713c-2.3 1.905-4.701 3.609-7.101 5.313-4.8 3.508-9.9 6.616-14.401 10.324-9.3 7.318-18.201 15.236-26.902 23.255l-.4-.1z"/></g><g class="B C"><path d="M947.86 40.797c-2.2 0-4.4 0-6.7-.1l-6.601-.401-6.6-.501-6.601-.702c-4.4-.601-8.7-1.504-13.101-1.904s-8.8-.601-13.201-.601-8.8 0-13.301-.2l-13.201-.401c-8.8-.501-17.601-1.002-26.502-2.005v-.301c8.801-.902 17.702-1.103 26.602-.902l6.601.301 6.6.501c2.2.2 4.401.301 6.601.601 2.2.2 4.4.501 6.6.802 4.401.601 8.801 1.002 13.201 1.303s8.901.2 13.301.401 8.801.802 13.201 1.403c4.401.702 8.701 1.403 13.101 2.506v.2z"/></g><g class="B C"><path d="M1313.19 166.293l-10.7-5.713-10.7-5.814-21.61-11.226-21.7-10.826-21.9-10.525-22-10.324-22.3-9.723c-7.5-3.007-15.1-5.914-22.7-8.721l-23.01-7.919-23.2-7.317-23.3-6.816-23.4-6.315-23.6-5.814c-31.5-7.518-63.307-13.532-95.31-18.544v-.301c32.303 3.007 64.41 8.42 96.01 15.637l23.6 5.914 23.4 6.616 23.2 7.317 23 8.019 22.81 8.52 22.7 8.821 11.3 4.611 11.3 4.51 22.4 9.523 22 10.424 21.6 11.127 21.31 11.828c3.5 2.004 7 4.21 10.4 6.315l10.4 6.315v.4z"/></g><g class="B C"><path d="M1448.7 263c-10.28-9.413-20.75-18.627-31.83-26.851-5.79-3.864-11.47-7.926-17.06-11.989-1.4-.99-2.8-2.08-4.19-3.17l-4.09-3.27c-2.8-2.18-5.49-4.359-8.28-6.341-2.8-1.982-5.69-3.963-8.69-5.846l-26.64-16.348c-11.77-7.332-23.45-14.961-34.92-22.888l.2-.297c12.57 6.044 24.84 12.88 36.42 20.51 5.79 3.864 11.57 7.728 17.26 11.889l8.38 6.242c2.8 2.081 5.69 4.063 8.58 5.945 5.79 3.864 11.88 7.332 17.57 11.395 5.68 4.062 11.17 8.421 16.46 12.88 5.49 4.261 10.77 8.818 15.96 13.475s10.18 9.512 15.17 14.367l-.3.297z"/></g><g fill="#f6b289"><path d="M1471 281.765c-3.1 7.218-9.8 12.029-17 8.922s-11.8-11.929-8.7-19.146 11.9-9.422 18-5.914c6.9 3.809 10.8 8.921 7.7 16.138z"/><path d="M1471 281.766c-.7 1.604-1.6 3.208-2.7 4.611s-2.4 2.706-3.9 3.709-3.3 1.604-5.1 1.804-3.7-.301-5.4-1.002c-3.3-1.504-6-4.21-7.7-7.418-1.7-3.107-2.5-6.916-1.5-10.525.9-3.508 3.5-6.615 6.8-8.119s7.3-1.704 10.7-.301c.9.401 1.7.802 2.4 1.304.8.501 1.5 1.002 2.2 1.503 1.4 1.103 2.8 2.406 3.7 3.909 1 1.504 1.6 3.308 1.6 5.112.1 2.005-.4 3.809-1.1 5.413zm-.1 0c.7-1.604 1.1-3.408 1-5.212s-.8-3.508-1.8-4.912-2.3-2.606-3.8-3.709c-1.4-1.002-2.9-2.004-4.5-2.706-3.2-1.303-7-1.203-10.1.201-1.6.701-3 1.704-4.2 3.007s-2 2.907-2.5 4.611c-1 3.408-.4 7.217 1.4 10.224 1.7 3.107 4.5 5.613 7.7 7.016 1.6.702 3.4 1.003 5.1.902s3.4-.701 4.9-1.503c3.1-1.704 5.4-4.711 6.8-7.919zm-1.6 9.523c-3.8 2.606-8.1 4.511-12.9 4.711-2.3.1-4.8-.401-6.9-1.504s-3.9-2.806-5.2-4.811c-2.6-4.009-3.6-8.821-3.3-13.432s2-9.221 5.4-12.529c1.7-1.604 3.7-2.907 6-3.609 2.3-.802 4.7-1.002 7-.702 4.7.602 9.2 3.108 12 7.017.4.501.6 1.002 1 1.504.3.501.5 1.002.8 1.603.5 1.003 1 2.105 1.4 3.208.8 2.205 1.3 4.511 1.3 6.916s-.6 4.712-1.8 6.716c-1.1 2.005-2.9 3.609-4.8 4.912zm0-.1c1.9-1.303 3.5-3.007 4.5-5.012s1.4-4.31 1.2-6.516-.8-4.41-1.7-6.415-1.9-4.21-3.1-5.914c-2.6-3.508-6.6-6.014-11-6.615-2.2-.301-4.4-.201-6.5.401s-4.1 1.704-5.8 3.107c-3.4 2.907-5.3 7.518-5.5 12.028s1.2 9.122 3.8 12.73c1.3 1.805 2.9 3.308 4.9 4.311 1.9 1.002 4.1 1.603 6.3 1.704 4.6.3 9.1-1.203 12.9-3.809zm-649.75-2.206c-6.8 3.909-15.001 3.809-18.901-3.007s-2.3-16.64 4.4-20.549c6.801-3.909 15.101-.401 18.002 6.014 3.2 7.117 3.3 13.532-3.501 17.542z"/><path d="M819.55 288.984c-1.5.902-3.2 1.603-4.9 2.105s-3.5.701-5.4.601c-1.801-.1-3.601-.702-5.201-1.604-1.6-1.002-2.8-2.405-3.7-4.009-1.8-3.208-2.3-7.017-1.8-10.525s2.1-7.017 5-9.322c2.8-2.306 6.701-3.208 10.301-2.406 3.6.702 6.9 3.007 8.801 6.215.5.802.9 1.604 1.2 2.506.3.802.6 1.704.9 2.606.5 1.704.8 3.608.6 5.413-.1 1.804-.7 3.608-1.8 5.112-1 1.203-2.401 2.406-4.001 3.308zm0-.101c1.5-.902 2.901-2.105 3.901-3.608s1.4-3.208 1.5-5.012c0-1.804-.3-3.508-.8-5.212s-1.2-3.408-2.001-4.812c-1.8-3.007-4.9-5.112-8.3-5.914-1.7-.401-3.5-.401-5.2-.1-1.701.401-3.301 1.103-4.801 2.105-2.8 2.105-4.6 5.513-5 9.021-.5 3.509.3 7.217 2.1 10.225.9 1.503 2.1 2.806 3.5 3.809 1.5 1.002 3.2 1.503 4.901 1.704 3.5.601 7.1-.401 10.2-2.206zm-7 6.716c-4.6-.2-9.201-1.203-13.101-3.909-1.9-1.303-3.6-3.107-4.7-5.313s-1.5-4.611-1.4-7.016c.3-4.711 2.4-9.222 5.3-12.73 3-3.509 7.101-6.315 11.801-6.816 2.3-.301 4.7-.101 7 .601s4.301 2.005 6.101 3.608c3.5 3.308 5.6 8.019 5.5 12.831 0 .601-.1 1.203-.1 1.804l-.3 1.704c-.2 1.103-.5 2.306-.8 3.408-.7 2.205-1.6 4.411-3.1 6.315-1.4 1.905-3.3 3.408-5.5 4.31-2.001 1.003-4.401 1.303-6.701 1.203zm0-.1c2.3.1 4.6-.301 6.601-1.303s3.7-2.606 4.9-4.511 1.9-4.009 2.5-6.215c.5-2.205 1-4.41 1-6.615a16.88 16.88 0 0 0-4.9-11.828c-1.6-1.504-3.4-2.807-5.501-3.508-2.1-.802-4.3-1.103-6.5-.903-4.5.301-8.701 2.907-11.501 6.416-2.9 3.508-4.4 8.019-4.5 12.429 0 2.205.4 4.41 1.3 6.415s2.3 3.709 4.1 5.112c3.4 2.807 8.001 4.31 12.501 4.511z"/></g></g><defs><clipPath id="A"><path fill="#fff" d="M0 0h1620v296H0z"/></clipPath></defs></svg>