<svg width="1918" height="589" viewBox="0 0 1918 589" fill="none" xmlns="http://www.w3.org/2000/svg">
<g opacity="0.2" clip-path="url(#clip0)">
<path d="M-42.367 315.338C-36.7021 309.308 -30.3565 304.014 -23.7703 299.038C-20.4376 296.52 -17.0639 294.221 -13.7311 291.703C-10.3984 289.185 -7.20514 286.648 -4.01187 284.11C2.45401 278.975 8.91989 273.84 15.506 268.864C22.0922 263.888 28.7385 258.992 35.4449 254.176L35.505 254.255C29.1594 259.549 22.6334 264.605 16.1074 269.66C9.58136 274.716 2.93507 279.612 -3.71121 284.508C-7.10409 286.946 -10.3575 289.404 -13.6301 292.002C-16.8835 294.46 -20.096 297.137 -23.2892 299.674C-29.7551 304.809 -36.221 309.945 -42.367 315.338Z" fill="#3C2829"/>
<path d="M35.4165 252.322C41.5823 250.914 47.7097 249.786 53.9574 248.816C57.0812 248.332 60.1858 247.986 63.3096 247.502C66.4335 247.017 69.4972 246.453 72.6402 245.829C75.7833 245.204 78.7868 244.56 81.8697 243.857C84.9527 243.153 87.9153 242.29 90.8972 241.287C93.879 240.285 96.8609 239.282 99.9438 238.578C103.087 237.954 106.312 237.768 109.402 238.559L109.383 238.698C106.254 238.187 103.13 238.671 100.187 239.395C97.164 240.178 94.2423 241.26 91.2604 242.263C85.2775 244.408 79.0106 245.517 72.8423 246.426C69.7185 246.911 66.674 247.335 63.531 247.96C60.4673 248.524 57.3843 249.228 54.3206 249.792C47.9335 250.742 41.6859 251.711 35.4165 252.322Z" fill="#3C2829"/>
<path d="M113.23 239.667C115.357 242.811 118.651 244.698 121.886 246.505C123.543 247.378 125.121 248.312 126.838 249.265C127.697 249.741 128.416 250.198 129.195 250.735L131.612 252.284C133.171 253.357 134.65 254.49 136.208 255.563L140.646 258.962L149.581 265.839C152.539 268.105 155.558 270.451 158.437 272.776C161.395 275.042 164.353 277.308 167.372 279.654C173.368 284.125 179.462 288.398 185.992 292.091L185.913 292.151C179.106 288.917 172.774 284.824 166.698 280.412C160.702 275.94 154.904 271.07 149.165 266.279C146.305 263.813 143.426 261.487 140.389 259.281C137.43 257.016 134.294 255.009 131.098 252.923C127.962 250.917 124.746 248.97 121.511 247.163C119.933 246.23 118.296 245.217 116.816 244.084C115.356 242.811 114.055 241.419 113.23 239.667Z" fill="#3C2829"/>
<path d="M186.684 291.193C192.233 297.878 199.109 303.185 204.719 309.949C207.523 313.331 210.029 316.814 212.755 320.256C215.42 323.619 218.145 327.061 220.889 330.363C226.438 337.048 231.908 343.793 237.298 350.598C242.689 357.403 247.999 364.267 253.152 371.252L253.072 371.312C247.444 364.687 241.895 358.002 236.505 351.197C231.035 344.453 225.724 337.588 220.493 330.663C215.261 323.739 209.871 316.934 204.004 310.489C201.181 307.246 198.119 304.183 195.057 301.12C192.135 298.077 189.092 294.875 186.684 291.193Z" fill="#3C2829"/>
<path d="M254.787 371.767C254.526 375.215 255.558 378.561 256.749 381.787C257.94 385.014 259.27 388.259 260.321 391.466C260.807 393.099 261.354 394.812 261.919 396.385C262.405 398.018 262.951 399.731 263.437 401.364C264.469 404.71 265.521 407.917 266.632 411.203C268.776 417.835 270.641 424.427 272.267 431.2C273.894 437.972 275.242 444.706 276.291 451.539L276.212 451.599L271.313 431.421L268.714 421.382L266.115 411.343C265.223 408.017 264.251 404.75 263.139 401.464C262.027 398.178 260.837 394.952 259.646 391.726C258.455 388.5 257.264 385.274 256.152 381.988C254.962 378.762 254.028 375.216 254.787 371.767Z" fill="#3C2829"/>
<path d="M193.636 443.597C197.084 444.367 200.629 444.44 204.075 444.712C207.582 445.063 211.107 445.275 214.674 445.706C218.18 446.058 221.727 446.629 225.234 446.98C228.74 447.332 232.246 447.683 235.772 447.895C242.804 448.459 249.835 449.022 256.87 450.084C263.844 451.066 270.84 452.407 277.68 454.366L277.66 454.506C270.665 453.165 263.77 452.123 256.795 451.141C249.742 450.218 242.809 449.455 235.755 448.533C232.189 448.102 228.762 447.69 225.176 447.399C221.67 447.047 218.144 446.835 214.619 446.623C211.112 446.272 207.606 445.92 204.1 445.569C200.552 444.998 197.027 444.786 193.636 443.597Z" fill="#3C2829"/>
<path d="M192.397 442.783C198.187 437.908 202.717 431.86 207.766 426.17C210.221 423.315 212.876 420.559 215.331 417.705C217.786 414.85 220.24 411.995 222.635 409.06C227.425 403.191 232.275 397.402 237.184 391.692C242.094 385.982 247.144 380.292 252.313 374.761L252.373 374.841C247.644 380.789 242.854 386.658 237.944 392.368C233.095 398.158 228.045 403.848 222.996 409.538C220.481 412.313 217.947 415.228 215.492 418.083C213.037 420.938 210.702 423.952 208.307 426.886C205.913 429.821 203.458 432.676 200.863 435.511C198.387 438.007 195.593 440.743 192.397 442.783Z" fill="#3C2829"/>
<path d="M232.126 339.628C236.114 348.867 239.805 358.206 243.276 367.586C245.052 372.245 246.668 377.025 248.504 381.764C250.28 386.424 252.115 391.164 254.03 395.843C257.8 405.122 261.49 414.462 265.101 423.861C268.712 433.26 272.184 442.639 275.497 452.139L275.418 452.199C271.508 442.9 267.739 433.621 264.127 424.221C260.437 414.882 256.965 405.503 253.434 396.044C251.738 391.324 249.962 386.664 248.127 381.925C246.351 377.265 244.357 372.645 242.442 367.966C238.91 358.507 235.299 349.108 232.126 339.628Z" fill="#3C2829"/>
<path d="M192.789 441.486C194.621 437.477 196.731 433.506 198.563 429.497C200.535 425.507 201.967 421.299 203.46 417.171C205.032 412.982 206.665 408.874 208.097 404.666C209.669 400.477 211.023 396.329 212.395 392.042C215.2 383.546 217.986 375.19 220.991 366.794C223.996 358.397 227.061 350.081 230.265 341.783L230.405 341.803C227.739 350.318 224.874 358.734 221.948 367.071C219.023 375.407 216.018 383.803 212.874 392.18C211.302 396.368 209.809 400.497 208.376 404.705C206.944 408.913 205.571 413.2 204.218 417.348C203.432 419.443 202.785 421.556 201.999 423.651C201.213 425.745 200.227 427.74 199.241 429.735C197.251 433.864 195.08 437.755 192.789 441.486Z" fill="#3C2829"/>
<path d="M187.55 293.164C189.423 305.377 190.798 317.591 191.875 329.905L194.487 366.689C195.424 378.983 196.003 391.298 196.224 403.634C196.524 415.91 196.526 428.286 196.109 440.603L195.97 440.583C195.749 428.248 195.528 415.912 195.228 403.636C194.868 391.281 194.489 379.065 193.989 366.69C193.7 360.532 193.41 354.375 192.902 348.258C192.393 342.14 191.746 336.004 191.098 329.867L187.55 293.164Z" fill="#3C2829"/>
<path d="M99.1152 492.378C106.858 487.778 114.782 483.417 122.765 479.136C126.757 476.995 130.789 475.074 134.781 472.933C138.773 470.793 142.704 468.573 146.696 466.432C154.559 461.992 162.483 457.631 170.466 453.35C174.458 451.209 178.45 449.068 182.502 447.007C186.553 444.946 190.665 442.965 195.02 441.8L195.081 441.88C190.827 443.343 186.835 445.484 182.843 447.625C178.912 449.845 174.98 452.065 170.988 454.206C163.065 458.566 155.021 462.768 147.057 466.91C143.005 468.971 139.013 471.111 135.082 473.331C131.09 475.472 127.219 477.772 123.287 479.992C115.243 484.194 107.26 488.475 99.1152 492.378Z" fill="#3C2829"/>
<path d="M99.1293 491.242C101.174 498.074 102.782 504.986 104.171 511.938L105.152 517.197C105.48 518.951 105.807 520.704 106.134 522.457C106.789 525.963 107.523 529.409 108.317 532.935C109.845 539.907 111.155 546.92 112.324 553.912C113.494 560.905 114.366 567.998 115.098 575.071L115.019 575.131C113.709 568.119 112.539 561.126 111.37 554.133L107.86 533.155C107.285 529.589 106.691 526.162 105.896 522.637C105.162 519.19 104.289 515.724 103.495 512.199C101.827 505.207 100.439 498.254 99.1293 491.242Z" fill="#3C2829"/>
<path d="M117.548 575.345C119.849 569.481 122.489 563.736 125.328 558.09C126.708 555.297 128.367 552.544 129.886 549.77C131.406 546.997 132.985 544.304 134.565 541.61C137.804 536.163 141.162 530.874 144.321 525.487C147.56 520.04 150.659 514.573 153.818 509.186C160.016 498.252 166.354 487.337 172.752 476.503C175.911 471.115 179.149 465.668 182.448 460.3C185.686 454.853 188.906 449.545 192.284 444.118L192.344 444.197C189.305 449.744 186.206 455.211 183.047 460.598C179.948 466.065 176.849 471.532 173.61 476.979C167.273 487.894 160.815 498.649 154.278 509.464C150.979 514.831 147.82 520.219 144.641 525.746C141.482 531.133 138.443 536.679 135.344 542.146C133.765 544.84 132.245 547.613 130.666 550.307C129.086 553.001 127.506 555.694 126.047 558.547C123.088 564.034 120.248 569.679 117.548 575.345Z" fill="#3C2829"/>
<path d="M-26.0034 566.651C-18.2518 571.797 -11.3514 577.961 -4.78758 584.504C-1.54535 587.806 1.61753 591.167 4.85976 594.469C8.10199 597.771 11.3442 601.072 14.4277 604.494C15.9695 606.204 17.5113 607.915 19.0338 609.766L23.3417 615.138C26.1872 618.739 29.4294 622.041 32.7702 625.143C39.4326 631.486 46.1551 637.91 52.6396 644.513L52.5602 644.573C45.5804 638.469 38.7593 632.245 32.097 625.901C30.3965 624.31 28.696 622.72 27.1543 621.009C25.5331 619.358 24.0106 617.508 22.6275 615.677L18.4784 610.185C17.0953 608.355 15.6329 606.584 14.1705 604.813C8.24147 597.79 1.43961 591.427 -5.22277 585.083C-12.0246 578.72 -18.7664 572.436 -26.0034 566.651Z" fill="#3C2829"/>
<path d="M52.116 643.158C56.9032 636.791 62.0703 630.762 67.4779 625.051L75.8191 616.624C78.553 613.808 81.3663 610.933 84.04 608.038C89.4669 602.187 94.9347 596.556 100.422 590.785C105.909 585.015 111.316 579.304 116.604 573.434L116.664 573.513C111.817 579.801 106.589 585.751 101.102 591.521C95.6154 597.292 90.0081 602.904 84.3407 608.436C81.4673 611.232 78.6733 613.968 75.9995 616.863C73.2656 619.678 70.652 622.653 68.0384 625.628C62.8303 631.438 57.4034 637.288 52.116 643.158Z" fill="#3C2829"/>
<path d="M-23.8726 566.667C-18.3006 565.958 -12.6469 565.687 -6.99061 565.915C-1.33437 566.142 4.28343 566.649 9.78593 567.993C20.3415 572.396 31.654 572.851 42.8127 574.422C48.4113 575.069 54.0099 575.715 59.5291 576.421C65.0484 577.127 70.7263 577.713 76.2214 577.563C87.4303 577.221 98.7186 576.819 109.889 576.756L109.87 576.896C104.276 577.246 98.6827 577.596 93.0289 577.867C87.3751 578.138 81.7815 578.488 76.147 578.619C73.2996 578.645 70.5316 578.61 67.7227 578.357C64.9138 578.104 62.1241 577.711 59.3344 577.318C53.7551 576.532 48.1757 575.747 42.6757 574.901C37.0963 574.115 31.5963 573.269 25.9977 572.623C23.208 572.23 20.4184 571.838 17.6671 571.166L13.6388 569.958C12.2824 569.483 10.9068 569.147 9.53113 568.811C6.77988 568.139 4.06955 567.686 1.26064 567.433C-1.52904 567.04 -4.2778 566.866 -7.10592 566.752C-12.6035 566.405 -18.2981 566.456 -23.8726 566.667Z" fill="#3C2829"/>
<path d="M-25.052 565.932C-16.1312 557.942 -5.66859 551.663 4.89752 546.18C10.1806 543.439 15.5839 540.857 20.9463 538.056C26.2293 535.315 31.4113 532.275 36.5332 529.156C46.6567 522.758 56.6599 516.201 66.7834 509.803C76.9069 503.405 87.0905 497.086 97.3342 490.847L97.3943 490.927C87.4513 497.564 77.4481 504.121 67.3847 510.599C62.3831 513.877 57.2612 516.997 52.1995 520.196C47.1378 523.395 42.0159 526.514 36.8339 529.554C26.4699 535.634 15.8436 541.036 5.29924 546.877C-5.28609 552.499 -15.7102 558.499 -25.052 565.932Z" fill="#3C2829"/>
<path d="M98.035 491.443C95.5503 504.323 91.6899 516.866 87.9691 529.429C86.1087 535.711 84.0486 541.893 82.1882 548.174C80.3278 554.456 78.4674 560.737 76.7464 567.038C73.1651 579.621 69.6438 592.283 65.923 604.846C64.0626 611.128 62.2021 617.409 60.2816 623.611C58.4212 629.893 56.4213 636.154 54.5007 642.356L54.3612 642.337C56.0822 636.036 57.8031 629.734 59.6034 623.373C61.3243 617.072 63.1246 610.711 64.985 604.43C68.5664 591.847 72.4267 579.304 76.2871 566.76C78.2076 560.558 80.1474 554.217 81.9285 547.995C83.7889 541.714 85.4497 535.333 87.2308 529.112C90.7929 516.669 94.7927 504.145 98.035 491.443Z" fill="#3C2829"/>
<path d="M-59.4778 438.037C-55.4867 447.774 -52.7076 458.052 -50.1281 468.23L-46.4872 483.608C-45.2672 488.688 -43.9077 493.787 -42.6276 498.946C-40.0481 509.124 -37.7667 519.403 -36.0818 529.882C-34.3175 540.302 -33.2698 550.762 -32.8787 561.344L-33.0182 561.324C-33.9865 550.804 -35.3323 540.443 -37.176 530.084C-38.0978 524.904 -39.0196 519.724 -40.0208 514.605C-41.0821 509.405 -42.0833 504.286 -43.2239 499.146C-44.3646 494.007 -45.5053 488.867 -46.8648 483.768C-48.1449 478.609 -49.6631 473.63 -51.0226 468.531C-53.7224 458.193 -56.1624 448.034 -59.4778 438.037Z" fill="#3C2829"/>
<path d="M-57.0591 435.959C-50.2603 437.699 -44.4665 441.573 -38.2783 444.65C-32.1695 447.786 -25.8828 450.663 -19.5577 453.261C-6.86648 458.675 6.17809 463.073 19.4582 466.792C32.6398 470.711 46.0185 474.231 59.3371 477.672L79.3751 482.912C86.0344 484.632 92.6937 486.353 99.4131 488.152L99.3938 488.292C92.636 486.771 85.9575 485.19 79.279 483.61C72.6005 482.029 65.8618 480.369 59.2026 478.649C45.884 475.208 32.6038 471.489 19.4006 467.211C12.7797 465.212 6.25744 463.013 -0.344191 460.874C-6.86647 458.675 -13.3888 456.477 -19.7933 453.939C-26.1977 451.401 -32.5446 448.444 -38.574 445.248C-44.7622 442.172 -50.5368 438.158 -57.0591 435.959Z" fill="#3C2829"/>
<path d="M-38.3032 515.558C-27.1426 513.502 -16.0831 511.148 -5.10533 508.355C0.343864 506.989 5.87241 505.563 11.36 503.917C16.7683 502.332 22.0947 500.308 27.4813 498.364C30.165 497.461 32.8487 496.559 35.7128 495.896C38.4975 495.292 41.3423 494.768 44.168 494.384C46.9335 493.92 49.7591 493.535 52.4837 492.852C55.2083 492.169 57.8728 491.406 60.6166 490.583C63.3604 489.761 66.1042 488.938 68.8697 488.474C71.6545 487.87 74.4801 487.486 77.2865 487.241C82.9787 486.691 88.6734 486.64 94.3681 486.588L94.3489 486.728C88.6158 487.058 83.0221 487.409 77.3901 488.038C71.758 488.667 66.2487 489.954 60.9005 491.619C58.1567 492.442 55.473 493.344 52.6883 493.948C49.9036 494.551 47.0779 494.936 44.3124 495.4C41.4868 495.784 38.6611 496.169 35.9558 496.712C33.171 497.316 30.5066 498.079 27.7628 498.901C16.9679 502.431 6.29334 506.12 -4.70361 509.052C-15.8593 512.104 -27.0391 514.299 -38.3032 515.558Z" fill="#3C2829"/>
<path d="M80.4463 357.954C83.3073 368.67 85.4324 379.567 86.7615 390.565C87.426 396.064 87.8717 401.604 88.178 407.123C88.4842 412.643 88.9299 418.182 89.0967 423.683L89.4562 431.913L89.5963 436.058C89.623 437.413 89.7891 438.788 89.9553 440.162C90.2875 442.912 90.6198 445.661 91.0314 448.351L92.1678 456.619C93.6363 467.637 94.9655 478.635 96.1551 489.614L96.0757 489.674C94.3089 478.756 92.6215 467.779 91.1529 456.761C90.409 451.322 89.605 445.803 89.0198 440.244C88.8536 438.869 88.7669 437.434 88.7402 436.079L88.6795 431.874L88.6181 423.544C88.5307 417.984 88.3639 412.484 87.9182 406.945C87.4725 401.405 86.7286 395.966 85.9246 390.447C84.4175 379.709 82.5714 368.851 80.4463 357.954Z" fill="#3C2829"/>
<path d="M84.1778 359.76C91.1049 367.279 97.9142 375.137 102.699 384.275C105.131 388.814 107.265 393.453 109.935 397.812C112.525 402.231 115.433 406.41 118.56 410.549C124.754 418.747 131.126 426.686 137.24 434.944C143.434 443.142 149.488 451.32 155.444 459.698L155.364 459.758C148.932 451.74 142.64 443.741 136.367 435.603C133.221 431.604 130.173 427.405 127.107 423.346C124.04 419.286 120.992 415.088 118.084 410.908C115.176 406.729 112.287 402.411 109.617 398.052C106.947 393.693 104.515 389.154 101.925 384.735C99.4132 380.256 96.5845 376.017 93.5177 371.957C90.5302 367.838 87.3048 363.899 84.1778 359.76Z" fill="#3C2829"/>
<path d="M157.139 460.292L157.483 445.405C157.61 442.933 157.737 440.462 157.725 437.971C157.713 435.48 157.561 432.969 157.329 430.518C156.807 425.537 156.205 420.615 155.603 415.694C155.001 410.773 154.26 405.832 153.518 400.891L153.597 400.831C154.995 405.651 155.956 410.552 156.697 415.493C157.359 420.494 157.822 425.395 157.907 430.457C157.952 431.673 157.919 432.948 158.025 434.243C158.071 435.459 158.037 436.734 158.143 438.03C158.189 439.245 158.295 440.54 158.341 441.756L158.46 445.542C158.364 450.365 158.031 455.368 157.139 460.292Z" fill="#3C2829"/>
<path d="M84.9502 358.802C94.7699 363.386 104.058 369.246 112.496 376.124C116.714 379.563 120.952 382.863 125.685 385.663C130.339 388.523 135.031 391.104 139.784 393.765C149.288 399.087 158.733 404.329 168.139 409.85C177.485 415.291 186.891 420.812 196.12 426.593L196.04 426.653C186.516 421.471 177.012 416.149 167.586 410.768C158.161 405.386 148.834 399.805 139.507 394.224C130.26 388.583 120.498 383.581 111.981 376.763C103.525 370.024 94.3948 364.044 84.9502 358.802Z" fill="#3C2829"/>
<path d="M187.185 291.691C183.499 295.226 178.771 297.547 174.443 300.067C169.975 302.567 165.526 304.928 160.998 307.349C156.55 309.709 151.961 312.05 147.573 314.491C143.045 316.912 138.717 319.431 134.369 322.091L108.142 337.53C99.4056 342.63 90.5301 347.71 82.8572 354.382L82.797 354.302C90.049 347.073 98.8836 341.774 107.62 336.674C111.967 334.015 116.356 331.574 120.763 328.994C125.171 326.414 129.62 324.054 134.088 321.553C138.555 319.053 143.004 316.692 147.412 314.113L160.616 306.512C165.084 304.012 169.532 301.651 173.981 299.291C178.569 296.95 183.198 294.828 187.185 291.691Z" fill="#3C2829"/>
<path d="M110.279 238.896C108.154 248.127 105.83 257.26 103.306 266.293C102.641 268.546 101.975 270.799 101.648 273.172C101.261 275.464 101.074 277.856 100.827 280.168C100.253 284.853 98.8416 289.42 97.6495 293.946C95.1859 303.059 92.6621 312.092 89.9195 321.165C87.2563 330.179 84.4536 339.172 81.5114 348.147L81.3719 348.127C83.696 338.995 86.2198 329.961 88.883 320.948C91.5462 311.935 94.2095 302.921 97.0916 293.867C98.4232 289.361 100.034 284.893 100.468 280.189C100.716 277.877 100.824 275.545 101.09 273.093C101.338 270.781 101.943 268.448 102.47 266.175C104.952 256.923 107.476 247.89 110.279 238.896Z" fill="#3C2829"/>
<path d="M35.6276 250.787C38.2189 259.332 41.7649 267.655 45.6283 275.738C47.56 279.78 49.4123 283.881 51.4234 287.863L57.5167 299.888C61.5989 307.931 64.8467 316.354 67.8756 324.818C70.9046 333.282 74.0129 341.685 78.3332 349.548L78.2538 349.608C73.3973 342.025 70.01 333.582 66.9017 325.179C65.3476 320.977 63.8728 316.715 62.2393 312.573C60.6851 308.371 58.8328 304.269 56.9804 300.168C55.1281 296.066 53.117 292.085 51.106 288.103C49.0949 284.121 46.8651 280.18 44.854 276.198C40.9305 268.035 37.5432 259.592 35.6276 250.787Z" fill="#3C2829"/>
<path d="M-41.5942 314.379C-31.6592 318.126 -21.7844 321.792 -11.8302 325.399L-4.38916 328.154C-1.95532 329.066 0.557875 329.918 3.15042 330.709C8.17681 332.413 13.2416 333.838 18.2873 335.402C23.4122 336.906 28.4578 338.47 33.5034 340.034C38.549 341.598 43.5946 343.162 48.621 344.866C58.693 348.133 68.7458 351.541 78.7192 355.008L78.7 355.147C68.5102 352.219 58.419 349.091 48.2677 345.883C38.1163 342.675 28.1237 339.347 18.131 336.02C8.07825 332.613 -2.11154 329.684 -12.085 326.217C-22.1185 322.67 -32.0343 318.784 -41.5942 314.379Z" fill="#3C2829"/>
<path d="M-32.7837 348.48C-26.169 341.232 -19.7949 333.666 -14.0797 325.723C-11.1921 321.791 -8.36457 317.779 -5.85695 313.509C-3.28919 309.319 -0.781556 305.049 1.92569 300.878C4.63293 296.707 7.52057 292.775 10.4876 288.784C13.5147 284.871 16.4023 280.939 19.4896 277.107C25.5438 269.282 31.7184 261.616 37.953 254.031L38.0132 254.11C32.2186 262.114 26.3039 269.958 20.2496 277.783C14.3349 285.627 8.02085 293.273 2.30569 301.216C-3.34932 309.239 -7.84506 318.137 -13.5001 326.16C-19.095 334.263 -25.5894 341.67 -32.7837 348.48Z" fill="#3C2829"/>
<path d="M38.4077 253.312C50.709 256.396 62.9718 259.759 75.2154 263.261C81.2976 265.042 87.4398 266.903 93.522 268.684C99.6041 270.465 105.785 272.047 111.886 273.689C124.168 276.912 136.469 279.996 148.85 283.02C155.05 284.462 161.25 285.904 167.39 287.267C173.609 288.569 179.847 289.732 186.066 291.035L186.047 291.174C179.77 290.29 173.513 289.267 167.214 288.024C160.976 286.861 154.757 285.559 148.557 284.116C136.157 281.232 123.894 277.869 111.651 274.367C105.568 272.586 99.407 270.864 93.3056 269.223C87.1441 267.502 81.0236 266 74.8621 264.278C62.7772 260.656 50.5335 257.154 38.4077 253.312Z" fill="#3C2829"/>
<path d="M-45.5605 397.891C-39.9093 397.122 -34.7248 394.58 -29.6197 392.099C-24.5145 389.617 -19.3493 387.215 -14.0036 385.052C-8.73729 382.948 -3.35071 381.004 1.97574 378.98L18.0561 373.208C23.4427 371.264 28.8101 369.459 34.2375 367.734C39.6049 365.93 45.1117 364.145 50.6403 362.718C53.4442 361.975 56.1688 361.292 59.0137 360.768C61.8586 360.244 64.6842 359.86 67.5098 359.475C73.2213 358.786 78.8533 358.157 84.2399 356.212L84.3 356.292C79.0145 358.535 73.2839 359.364 67.6927 360.212C62.0414 360.981 56.472 362.188 51.0036 363.694C45.5352 365.2 40.1077 366.925 34.6802 368.65L18.3376 373.745C12.9101 375.47 7.54272 377.275 2.21627 379.299C-3.11017 381.323 -8.31636 383.505 -13.6019 385.748C-18.8874 387.991 -24.0335 390.254 -29.1987 392.656C-34.4626 395.257 -39.8274 397.56 -45.5605 397.891Z" fill="#3C2829"/>
<path d="M85.6636 354.137C91.7166 354.065 97.6853 353.056 103.594 351.968L112.487 350.375C115.471 349.871 118.516 349.446 121.421 349.002C127.43 348.212 133.421 347.562 139.43 346.772C145.44 345.983 151.449 345.193 157.399 344.324C169.298 342.586 181.317 341.007 193.336 339.428C205.276 337.909 217.276 336.469 229.317 335.249L229.377 335.328C217.459 337.206 205.5 338.865 193.481 340.444C181.461 342.023 169.522 343.542 157.541 344.842C145.481 346.202 133.601 347.801 121.603 349.739C115.654 350.608 109.685 351.616 103.717 352.625C97.7479 353.634 91.6589 354.483 85.6636 354.137Z" fill="#3C2829"/>
<path d="M89.3005 348.888C92.1702 353.346 90.9446 359.148 87.4748 362.145C83.9065 365.341 78.0674 364.376 74.2238 360.279C71.5972 356.637 70.728 350.042 76.0495 347.022C80.991 343.664 87.008 344.369 89.3005 348.888Z" fill="#3C2829"/>
<path d="M42.8838 248.68C45.0511 252.043 44.1764 256.33 41.5193 258.587C38.8431 260.984 34.5383 260.236 31.6159 257.192C29.6508 254.426 28.9695 249.565 32.9804 247.285C36.7316 244.826 41.135 245.375 42.8838 248.68Z" fill="#3C2829"/>
<path d="M116.634 235.595C118.802 238.958 117.927 243.245 115.27 245.502C112.594 247.899 108.289 247.151 105.366 244.108C103.401 241.342 102.72 236.48 106.731 234.2C110.482 231.741 114.965 232.23 116.634 235.595Z" fill="#3C2829"/>
<path d="M192.342 287.794C194.509 291.157 193.634 295.444 190.977 297.701C188.301 300.098 183.996 299.35 181.074 296.307C179.109 293.54 178.427 288.679 182.438 286.399C186.19 283.94 190.593 284.489 192.342 287.794Z" fill="#3C2829"/>
<path d="M235.947 335.116C238.115 338.479 237.24 342.766 234.583 345.023C231.907 347.42 227.602 346.672 224.679 343.629C222.714 340.863 222.033 336.001 226.044 333.721C229.735 331.182 234.138 331.732 235.947 335.116Z" fill="#3C2829"/>
<path d="M260.421 367.51C262.588 370.874 261.713 375.161 259.056 377.418C256.38 379.815 252.075 379.066 249.153 376.023C247.188 373.257 246.507 368.396 250.518 366.116C254.209 363.577 258.612 364.126 260.421 367.51Z" fill="#3C2829"/>
<path d="M198.33 438.924C200.497 442.288 199.623 446.574 196.966 448.832C194.289 451.229 189.985 450.48 187.062 447.437C185.097 444.671 184.416 439.81 188.427 437.53C192.118 434.991 196.601 435.48 198.33 438.924Z" fill="#3C2829"/>
<path d="M281.844 447.343C284.012 450.707 283.137 454.993 280.48 457.251C277.804 459.648 273.499 458.899 270.576 455.856C268.611 453.09 267.93 448.229 271.941 445.948C275.632 443.41 280.035 443.959 281.844 447.343Z" fill="#3C2829"/>
<path d="M102.566 485.894C104.734 489.258 103.859 493.544 101.202 495.802C98.5257 498.199 94.2209 497.45 91.2985 494.407C89.3334 491.641 88.6521 486.78 92.663 484.5C96.4142 482.041 100.757 482.51 102.566 485.894Z" fill="#3C2829"/>
<path d="M119.713 570.458C121.881 573.822 121.006 578.109 118.349 580.366C115.673 582.763 111.368 582.014 108.446 578.971C106.48 576.205 105.799 571.344 109.81 569.064C113.501 566.525 117.904 567.074 119.713 570.458Z" fill="#3C2829"/>
<path d="M159.633 457.657C161.038 459.847 160.495 462.758 158.73 464.216C156.946 465.814 154.096 465.342 152.174 463.293C150.87 461.402 150.456 458.214 153.077 456.734C155.439 455.075 158.447 455.428 159.633 457.657Z" fill="#3C2829"/>
</g>
<defs>
<clipPath id="clip0">
<rect width="1918" height="589" fill="white"/>
</clipPath>
</defs>
</svg>
