<svg width="1918" height="589" viewBox="0 0 1918 589" fill="none" xmlns="http://www.w3.org/2000/svg">
<g opacity="0.2" clip-path="url(#clip0)">
<path d="M-42.5919 107.5C-36.9385 101.482 -30.6059 96.1989 -24.0332 91.2332C-20.7072 88.7204 -17.3404 86.4264 -14.0145 83.9136C-10.6886 81.4009 -7.50181 78.8685 -4.31507 76.3361C2.13761 71.2116 8.59029 66.087 15.163 61.1214C21.7357 56.1557 28.3684 51.2694 35.0611 46.4626L35.1211 46.542C28.7885 51.8255 22.2758 56.8706 15.7631 61.9157C9.25041 66.9608 2.61769 71.847 -4.01502 76.7333C-7.40097 79.1666 -10.6477 81.6196 -13.9137 84.2117C-17.1604 86.6647 -20.3663 89.3363 -23.5531 91.8686C-30.0058 96.9932 -36.4584 102.118 -42.5919 107.5Z" fill="#3C2829"/>
<path d="M35.0327 44.6129C41.186 43.2081 47.3008 42.0818 53.5357 41.1144C56.6532 40.6307 59.7514 40.2862 62.8689 39.8025C65.9863 39.3188 69.0438 38.7557 72.1804 38.1327C75.317 37.5098 78.3145 36.8672 81.3911 36.1648C84.4677 35.4624 87.4243 34.6012 90.4001 33.6007C93.3759 32.6001 96.3517 31.5996 99.4283 30.8972C102.565 30.2743 105.783 30.0887 108.867 30.8779L108.848 31.0172C105.726 30.5064 102.608 30.9902 99.6708 31.7122C96.6542 32.494 93.7384 33.5739 90.7626 34.5744C84.7919 36.7147 78.5378 37.8214 72.3821 38.729C69.2647 39.2127 66.2264 39.6366 63.0898 40.2595C60.0323 40.8227 56.9557 41.5251 53.8983 42.0882C47.5242 43.036 41.2893 44.0034 35.0327 44.6129Z" fill="#3C2829"/>
<path d="M112.687 31.9836C114.809 35.1217 118.098 37.0043 121.326 38.8076C122.979 39.6793 124.554 40.6108 126.268 41.562C127.124 42.0375 127.842 42.4935 128.62 43.0289L131.032 44.5753C132.587 45.6461 134.063 46.7767 135.619 47.8475L140.047 51.2393L148.964 58.1025C151.916 60.3637 154.928 62.7044 157.801 65.0255C160.754 67.2867 163.706 69.548 166.718 71.8886C172.702 76.3513 178.784 80.6149 185.3 84.3008L185.221 84.3606C178.429 81.1327 172.109 77.0486 166.046 72.6458C160.063 68.1831 154.276 63.3223 148.549 58.5409C145.695 56.0806 142.822 53.7595 139.79 51.5581C136.838 49.2968 133.708 47.2945 130.518 45.2127C127.389 43.2104 124.18 41.2679 120.951 39.4647C119.377 38.5331 117.742 37.5222 116.266 36.3916C114.809 35.1217 113.511 33.7321 112.687 31.9836Z" fill="#3C2829"/>
<path d="M185.992 83.4043C191.529 90.0755 198.392 95.3717 203.989 102.122C206.788 105.498 209.289 108.973 212.009 112.408C214.669 115.764 217.388 119.199 220.127 122.495C225.665 129.166 231.123 135.897 236.502 142.688C241.882 149.479 247.182 156.329 252.323 163.3L252.244 163.36C246.627 156.748 241.09 150.077 235.71 143.286C230.252 136.555 224.952 129.704 219.731 122.794C214.51 115.883 209.131 109.093 203.276 102.661C200.458 99.4247 197.403 96.3681 194.347 93.3115C191.431 90.2746 188.395 87.0788 185.992 83.4043Z" fill="#3C2829"/>
<path d="M253.956 163.814C253.694 167.255 254.725 170.594 255.913 173.814C257.101 177.033 258.429 180.273 259.478 183.472C259.963 185.102 260.508 186.812 261.073 188.382C261.558 190.011 262.103 191.721 262.588 193.351C263.618 196.69 264.667 199.89 265.776 203.169C267.916 209.788 269.777 216.367 271.4 223.126C273.023 229.884 274.368 236.604 275.416 243.423L275.336 243.483L270.447 223.346L267.854 213.328L265.26 203.309C264.369 199.99 263.399 196.73 262.29 193.451C261.181 190.171 259.992 186.952 258.804 183.732C257.616 180.513 256.427 177.293 255.318 174.014C254.129 170.795 253.198 167.256 253.956 163.814Z" fill="#3C2829"/>
<path d="M192.929 235.497C196.37 236.266 199.908 236.338 203.347 236.61C206.846 236.961 210.365 237.172 213.924 237.602C217.423 237.953 220.963 238.523 224.462 238.874C227.961 239.224 231.46 239.575 234.979 239.787C241.996 240.349 249.014 240.912 256.034 241.971C262.994 242.951 269.975 244.289 276.801 246.244L276.782 246.384C269.8 245.046 262.919 244.006 255.959 243.025C248.92 242.105 242.001 241.344 234.962 240.423C231.403 239.993 227.983 239.582 224.404 239.291C220.905 238.941 217.387 238.729 213.869 238.517C210.369 238.167 206.87 237.816 203.371 237.465C199.831 236.895 196.313 236.684 192.929 235.497Z" fill="#3C2829"/>
<path d="M191.692 234.685C197.471 229.82 201.991 223.784 207.03 218.106C209.48 215.257 212.129 212.507 214.579 209.658C217.029 206.809 219.479 203.96 221.869 201.031C226.649 195.174 231.489 189.397 236.389 183.698C241.288 178 246.327 172.322 251.486 166.802L251.546 166.881C246.827 172.818 242.047 178.675 237.147 184.373C232.307 190.151 227.268 195.829 222.229 201.508C219.719 204.277 217.19 207.186 214.74 210.035C212.29 212.884 209.96 215.892 207.57 218.821C205.181 221.749 202.731 224.598 200.141 227.428C197.67 229.919 194.882 232.649 191.692 234.685Z" fill="#3C2829"/>
<path d="M231.34 131.74C235.32 140.96 239.003 150.281 242.468 159.641C244.24 164.291 245.853 169.061 247.685 173.791C249.457 178.441 251.289 183.171 253.2 187.841C256.962 197.101 260.645 206.421 264.248 215.801C267.852 225.181 271.317 234.542 274.623 244.022L274.543 244.081C270.642 234.802 266.88 225.541 263.276 216.161C259.594 206.841 256.129 197.481 252.605 188.041C250.912 183.331 249.14 178.681 247.308 173.951C245.536 169.301 243.546 164.69 241.635 160.021C238.111 150.581 234.507 141.201 231.34 131.74Z" fill="#3C2829"/>
<path d="M192.083 233.391C193.911 229.389 196.018 225.427 197.846 221.426C199.814 217.444 201.243 213.245 202.733 209.125C204.302 204.945 205.931 200.845 207.361 196.645C208.93 192.465 210.28 188.326 211.65 184.047C214.449 175.569 217.23 167.23 220.228 158.851C223.227 150.472 226.286 142.172 229.484 133.892L229.623 133.911C226.962 142.409 224.103 150.808 221.184 159.127C218.264 167.447 215.265 175.826 212.127 184.185C210.559 188.365 209.069 192.485 207.639 196.684C206.209 200.884 204.84 205.163 203.489 209.302C202.705 211.392 202.059 213.502 201.275 215.592C200.49 217.681 199.507 219.672 198.523 221.663C196.536 225.784 194.37 229.667 192.083 233.391Z" fill="#3C2829"/>
<path d="M186.856 85.3719C188.725 97.5597 190.097 109.749 191.171 122.037L193.778 158.746C194.714 171.015 195.291 183.305 195.512 195.616C195.811 207.867 195.813 220.217 195.397 232.509L195.258 232.49C195.038 220.179 194.818 207.869 194.518 195.618C194.159 183.288 193.78 171.097 193.281 158.747C192.993 152.602 192.704 146.457 192.196 140.353C191.689 134.248 191.043 128.124 190.396 121.999L186.856 85.3719Z" fill="#3C2829"/>
<path d="M98.6016 284.178C106.329 279.588 114.236 275.236 122.203 270.964C126.187 268.828 130.211 266.91 134.195 264.774C138.178 262.638 142.102 260.422 146.085 258.286C153.933 253.854 161.84 249.502 169.807 245.23C173.79 243.094 177.774 240.958 181.818 238.901C185.861 236.844 189.965 234.867 194.311 233.704L194.371 233.784C190.126 235.244 186.142 237.38 182.158 239.517C178.235 241.732 174.311 243.948 170.328 246.084C162.421 250.436 154.393 254.629 146.445 258.762C142.402 260.819 138.418 262.955 134.495 265.171C130.511 267.307 126.648 269.602 122.724 271.818C114.697 276.011 106.73 280.283 98.6016 284.178Z" fill="#3C2829"/>
<path d="M98.6154 283.045C100.656 289.863 102.261 296.761 103.646 303.699L104.626 308.947C104.953 310.697 105.28 312.446 105.606 314.196C106.26 317.695 106.992 321.134 107.785 324.653C109.31 331.611 110.616 338.609 111.784 345.587C112.951 352.566 113.821 359.644 114.551 366.703L114.472 366.763C113.166 359.765 111.998 352.786 110.831 345.808L107.329 324.873C106.754 321.314 106.161 317.894 105.369 314.375C104.636 310.936 103.764 307.477 102.972 303.959C101.308 296.981 99.922 290.043 98.6154 283.045Z" fill="#3C2829"/>
<path d="M116.997 366.976C119.293 361.124 121.927 355.391 124.761 349.757C126.138 346.969 127.793 344.221 129.31 341.454C130.826 338.686 132.402 335.998 133.979 333.31C137.211 327.874 140.563 322.596 143.715 317.22C146.947 311.784 150.04 306.328 153.193 300.952C159.378 290.04 165.703 279.148 172.087 268.336C175.24 262.959 178.472 257.523 181.764 252.167C184.996 246.73 188.209 241.433 191.58 236.017L191.64 236.096C188.607 241.632 185.514 247.087 182.362 252.464C179.269 257.919 176.176 263.375 172.944 268.811C166.62 279.703 160.175 290.436 153.651 301.229C150.359 306.586 147.206 311.962 144.035 317.478C140.882 322.854 137.849 328.39 134.756 333.845C133.18 336.534 131.664 339.301 130.087 341.989C128.511 344.677 126.935 347.366 125.478 350.213C122.525 355.688 119.691 361.322 116.997 366.976Z" fill="#3C2829"/>
<path d="M-26.2617 358.3C-18.526 363.435 -11.6396 369.587 -5.08921 376.117C-1.8536 379.412 1.30283 382.766 4.53844 386.061C7.77405 389.356 11.0096 392.651 14.0869 396.065C15.6255 397.773 17.1641 399.48 18.6835 401.326L22.9826 406.687C25.8223 410.281 29.0579 413.576 32.3919 416.672C39.0407 423.003 45.7494 429.413 52.2207 436.003L52.1415 436.063C45.1759 429.971 38.3688 423.76 31.72 417.429C30.023 415.842 28.326 414.254 26.7874 412.547C25.1696 410.899 23.6502 409.053 22.2699 407.226L18.1292 401.745C16.749 399.918 15.2896 398.151 13.8301 396.384C7.91324 389.376 1.12527 383.025 -5.52351 376.694C-12.3115 370.344 -19.0394 364.073 -26.2617 358.3Z" fill="#3C2829"/>
<path d="M51.698 434.651C56.4753 428.297 61.6319 422.28 67.0285 416.581L75.3526 408.171C78.081 405.361 80.8884 402.491 83.5568 399.602C88.9725 393.764 94.4292 388.144 99.905 382.385C105.381 376.626 110.777 370.927 116.054 365.069L116.114 365.148C111.277 371.423 106.06 377.361 100.584 383.12C95.1085 388.879 89.5126 394.479 83.8568 399.999C80.9893 402.79 78.201 405.52 75.5327 408.409C72.8043 411.219 70.1961 414.188 67.5878 417.157C62.3904 422.955 56.9746 428.793 51.698 434.651Z" fill="#3C2829"/>
<path d="M-24.1353 358.316C-18.5747 357.608 -12.9325 357.338 -7.28778 357.565C-1.64309 357.792 3.96324 358.298 9.4545 359.639C19.9885 364.033 31.2779 364.487 42.4138 366.055C48.001 366.7 53.5881 367.345 59.0961 368.05C64.6041 368.755 70.2704 369.34 75.7543 369.189C86.9403 368.848 98.2056 368.447 109.353 368.385L109.334 368.524C103.752 368.873 98.1697 369.223 92.5275 369.493C86.8853 369.763 81.3031 370.113 75.68 370.243C72.8385 370.269 70.0762 370.235 67.273 369.982C64.4698 369.729 61.6858 369.337 58.9018 368.945C53.3339 368.161 47.7659 367.377 42.2771 366.533C36.7091 365.749 31.2203 364.905 25.6332 364.26C22.8492 363.868 20.0652 363.476 17.3196 362.805L13.2995 361.6C11.9459 361.126 10.573 360.79 9.20022 360.455C6.45459 359.785 3.74979 359.333 0.946624 359.08C-1.83736 358.688 -4.58051 358.514 -7.40285 358.401C-12.8892 358.054 -18.5722 358.106 -24.1353 358.316Z" fill="#3C2829"/>
<path d="M-25.3122 357.582C-16.4096 349.609 -5.96836 343.342 4.57617 337.871C9.84843 335.136 15.2407 332.559 20.5922 329.764C25.8644 327.028 31.0359 323.995 36.1473 320.881C46.2501 314.497 56.2328 307.953 66.3356 301.568C76.4384 295.183 86.6013 288.877 96.8241 282.651L96.8841 282.73C86.9613 289.354 76.9785 295.898 66.9358 302.362C61.9444 305.634 56.833 308.747 51.7815 311.939C46.7302 315.132 41.6187 318.245 36.4473 321.279C26.1045 327.346 15.4999 332.738 4.97707 338.566C-5.58664 344.177 -15.9895 350.165 -25.3122 357.582Z" fill="#3C2829"/>
<path d="M97.5234 283.246C95.0437 296.099 91.1913 308.617 87.478 321.154C85.6214 327.423 83.5656 333.592 81.7089 339.861C79.8523 346.13 77.9957 352.398 76.2783 358.687C72.7042 371.244 69.1902 383.88 65.4769 396.417C63.6203 402.686 61.7637 408.955 59.8471 415.144C57.9904 421.412 55.9946 427.662 54.078 433.851L53.9388 433.831C55.6562 427.543 57.3736 421.255 59.1702 414.907C60.8877 408.618 62.6843 402.27 64.5409 396.002C68.115 383.445 71.9674 370.927 75.8199 358.409C77.7365 352.22 79.6723 345.891 81.4497 339.683C83.3064 333.414 84.9638 327.046 86.7412 320.837C90.2961 308.42 94.2877 295.922 97.5234 283.246Z" fill="#3C2829"/>
<path d="M-59.668 229.948C-55.685 239.666 -52.9116 249.922 -50.3374 260.08L-46.704 275.427C-45.4865 280.496 -44.1297 285.584 -42.8522 290.733C-40.278 300.891 -38.0013 311.148 -36.3198 321.606C-34.5591 332.004 -33.5136 342.444 -33.1232 353.004L-33.2624 352.984C-34.2287 342.485 -35.5718 332.146 -37.4117 321.807C-38.3317 316.638 -39.2516 311.469 -40.2507 306.36C-41.3099 301.171 -42.309 296.062 -43.4473 290.933C-44.5857 285.804 -45.724 280.675 -47.0807 275.587C-48.3583 270.438 -49.8734 265.469 -51.2301 260.38C-53.9243 250.064 -56.3594 239.926 -59.668 229.948Z" fill="#3C2829"/>
<path d="M-57.2539 227.875C-50.469 229.611 -44.687 233.478 -38.5115 236.548C-32.4152 239.678 -26.1413 242.549 -19.8291 245.141C-7.1638 250.545 5.85413 254.933 19.1072 258.645C32.2618 262.556 45.6132 266.069 58.9046 269.503L78.9016 274.732C85.5473 276.449 92.193 278.166 98.8987 279.962L98.8795 280.101C92.1355 278.583 85.4706 277.006 78.8057 275.428C72.1409 273.851 65.416 272.194 58.7703 270.477C45.4789 267.044 32.2259 263.332 19.0496 259.063C12.4423 257.068 5.93332 254.874 -0.654829 252.739C-7.16379 250.545 -13.6728 248.351 -20.0642 245.818C-26.4556 243.285 -32.7895 240.335 -38.8066 237.145C-44.9821 234.075 -50.7449 230.069 -57.2539 227.875Z" fill="#3C2829"/>
<path d="M-38.5366 307.311C-27.3988 305.26 -16.3618 302.91 -5.40652 300.123C0.031545 298.76 5.5488 297.336 11.0252 295.694C16.4225 294.112 21.738 292.092 27.1136 290.152C29.7918 289.252 32.47 288.351 35.3282 287.689C38.1073 287.087 40.9463 286.564 43.7662 286.18C46.526 285.717 49.3459 285.333 52.065 284.652C54.784 283.97 57.443 283.209 60.1812 282.388C62.9194 281.567 65.6576 280.746 68.4175 280.282C71.1965 279.68 74.0164 279.296 76.8171 279.052C82.4977 278.503 88.1807 278.452 93.8638 278.401L93.8446 278.54C88.1232 278.87 82.541 279.219 76.9204 279.847C71.2998 280.475 65.8018 281.76 60.4646 283.421C57.7263 284.242 55.0481 285.143 52.2691 285.745C49.4901 286.347 46.6702 286.731 43.9103 287.194C41.0905 287.578 38.2706 287.961 35.5707 288.504C32.7917 289.106 30.1327 289.868 27.3945 290.689C16.6217 294.211 5.96887 297.892 -5.00562 300.818C-16.1385 303.864 -27.2955 306.055 -38.5366 307.311Z" fill="#3C2829"/>
<path d="M79.9705 150.029C82.8257 160.723 84.9464 171.598 86.2728 182.574C86.936 188.061 87.3808 193.59 87.6864 199.098C87.992 204.606 88.4368 210.135 88.6033 215.623L88.9621 223.837L89.1019 227.973C89.1285 229.326 89.2943 230.697 89.4601 232.069C89.7917 234.813 90.1233 237.557 90.5341 240.241L91.6681 248.493C93.1337 259.488 94.46 270.464 95.6472 281.42L95.568 281.48C93.8049 270.585 92.1209 259.629 90.6553 248.634C89.9129 243.206 89.1105 237.699 88.5265 232.151C88.3607 230.779 88.2741 229.347 88.2475 227.995L88.1869 223.798L88.1257 215.485C88.0384 209.936 87.872 204.448 87.4272 198.92C86.9824 193.391 86.24 187.963 85.4376 182.456C83.9337 171.739 82.0913 160.904 79.9705 150.029Z" fill="#3C2829"/>
<path d="M83.6946 151.831C90.6075 159.335 97.4029 167.177 102.178 176.296C104.605 180.826 106.734 185.455 109.399 189.806C111.984 194.215 114.886 198.386 118.007 202.517C124.188 210.698 130.546 218.62 136.648 226.862C142.829 235.043 148.871 243.205 154.815 251.566L154.736 251.626C148.317 243.624 142.038 235.641 135.777 227.52C132.638 223.529 129.596 219.338 126.536 215.287C123.475 211.236 120.434 207.046 117.532 202.875C114.63 198.705 111.747 194.395 109.082 190.045C106.417 185.695 103.99 181.165 101.405 176.755C98.8988 172.285 96.0758 168.055 93.0153 164.004C90.034 159.893 86.8151 155.962 83.6946 151.831Z" fill="#3C2829"/>
<path d="M156.507 252.159L156.85 237.301C156.977 234.835 157.104 232.368 157.091 229.882C157.079 227.396 156.927 224.891 156.697 222.445C156.175 217.474 155.574 212.563 154.974 207.651C154.373 202.74 153.633 197.809 152.893 192.879L152.972 192.819C154.367 197.629 155.326 202.519 156.066 207.45C156.726 212.441 157.188 217.333 157.273 222.384C157.318 223.597 157.285 224.87 157.391 226.163C157.437 227.376 157.403 228.649 157.509 229.941C157.555 231.154 157.661 232.447 157.706 233.66L157.825 237.438C157.729 242.252 157.396 247.244 156.507 252.159Z" fill="#3C2829"/>
<path d="M84.4653 150.875C94.265 155.45 103.534 161.298 111.954 168.162C116.164 171.594 120.394 174.887 125.117 177.681C129.761 180.536 134.444 183.112 139.187 185.767C148.672 191.078 158.097 196.309 167.484 201.819C176.811 207.249 186.198 212.759 195.408 218.528L195.329 218.587C185.824 213.416 176.339 208.105 166.933 202.735C157.526 197.364 148.219 191.795 138.911 186.225C129.682 180.596 119.94 175.604 111.441 168.799C103.002 162.074 93.8907 156.107 84.4653 150.875Z" fill="#3C2829"/>
<path d="M186.491 83.9009C182.813 87.4287 178.095 89.7454 173.775 92.2602C169.317 94.7554 164.877 97.1113 160.358 99.5271C155.919 101.883 151.34 104.219 146.96 106.655C142.442 109.07 138.122 111.585 133.783 114.239L107.61 129.647C98.8914 134.736 90.034 139.806 82.3767 146.464L82.3167 146.385C89.5539 139.171 98.3705 133.882 107.089 128.793C111.427 126.139 115.807 123.703 120.206 121.129C124.604 118.554 129.044 116.198 133.503 113.703C137.961 111.208 142.401 108.852 146.8 106.277L159.977 98.6925C164.435 96.1973 168.875 93.8414 173.314 91.4855C177.893 89.1492 182.513 87.0315 186.491 83.9009Z" fill="#3C2829"/>
<path d="M109.742 31.214C107.622 40.4267 105.303 49.5404 102.784 58.555C102.12 60.8038 101.455 63.0525 101.129 65.4199C100.743 67.7079 100.556 70.0949 100.31 72.4025C99.7366 77.0774 98.3285 81.6348 97.1388 86.1519C94.6802 95.246 92.1616 104.261 89.4247 113.315C86.7669 122.31 83.9698 131.286 81.0336 140.242L80.8944 140.222C83.2138 131.108 85.7324 122.094 88.3902 113.099C91.048 104.104 93.7058 95.1087 96.582 86.0735C97.9109 81.576 99.5182 77.1177 99.9519 72.4231C100.199 70.1155 100.306 67.7883 100.572 65.3415C100.819 63.034 101.424 60.7058 101.949 58.4374C104.427 49.2041 106.945 40.1895 109.742 31.214Z" fill="#3C2829"/>
<path d="M35.2432 43.0812C37.8292 51.6081 41.368 59.9142 45.2235 67.9811C47.1512 72.0145 48.9998 76.1077 51.0067 80.0813L57.0875 92.0815C61.1614 100.108 64.4026 108.514 67.4254 116.961C70.4481 125.407 73.5501 133.794 77.8616 141.641L77.7824 141.701C72.9358 134.133 69.5554 125.707 66.4534 117.321C64.9025 113.127 63.4307 108.874 61.8005 104.741C60.2495 100.548 58.4009 96.4543 56.5524 92.361C54.7038 88.2678 52.6969 84.2942 50.69 80.3206C48.683 76.347 46.4577 72.4137 44.4507 68.4401C40.5352 60.2938 37.1549 51.868 35.2432 43.0812Z" fill="#3C2829"/>
<path d="M-41.8208 106.543C-31.9061 110.282 -22.0514 113.941 -12.1175 117.541L-4.6917 120.29C-2.26283 121.2 0.245235 122.05 2.83249 122.84C7.84861 124.54 12.9031 125.962 17.9384 127.523C23.0529 129.024 28.0882 130.585 33.1235 132.146C38.1588 133.707 43.1941 135.267 48.2102 136.968C58.2617 140.229 68.2939 143.629 78.247 147.089L78.2278 147.228C68.0588 144.306 57.9882 141.184 47.8576 137.983C37.727 134.781 27.7547 131.461 17.7825 128.14C7.75025 124.739 -2.41873 121.817 -12.3718 118.357C-22.3849 114.817 -32.2804 110.939 -41.8208 106.543Z" fill="#3C2829"/>
<path d="M-33.0281 140.575C-26.4269 133.342 -20.0658 125.791 -14.3623 117.864C-11.4806 113.94 -8.65882 109.936 -6.15631 105.675C-3.5938 101.493 -1.09128 97.2321 1.61043 93.0698C4.31214 88.9076 7.19389 84.9837 10.1548 80.9999C13.1758 77.0956 16.0575 73.1717 19.1385 69.3468C25.1804 61.5381 31.3423 53.8884 37.5642 46.318L37.6242 46.3974C31.8415 54.3845 25.9388 62.2128 19.8969 70.0215C13.9943 77.8497 7.69314 85.4799 1.98966 93.4072C-3.65381 101.414 -8.14036 110.293 -13.7838 118.3C-19.3673 126.386 -25.8484 133.778 -33.0281 140.575Z" fill="#3C2829"/>
<path d="M38.0181 45.601C50.2942 48.6785 62.532 52.0345 74.7506 55.5297C80.8203 57.3073 86.95 59.1642 93.0198 60.9418C99.0895 62.7193 105.258 64.2978 111.346 65.936C123.603 69.1528 135.88 72.2303 148.235 75.2479C154.422 76.6871 160.609 78.1263 166.737 79.4861C172.943 80.786 179.169 81.9467 185.375 83.2466L185.356 83.3859C179.092 82.5037 172.847 81.4823 166.562 80.2422C160.336 79.0815 154.13 77.7816 147.942 76.3424C135.568 73.464 123.33 70.108 111.111 66.6127C105.042 64.8352 98.8927 63.1175 92.8038 61.4792C86.6549 59.7615 80.5469 58.2625 74.398 56.5448C62.3378 52.9299 50.1191 49.4346 38.0181 45.601Z" fill="#3C2829"/>
<path d="M-45.7788 189.884C-40.1391 189.117 -34.9652 186.581 -29.8705 184.104C-24.7758 181.627 -19.621 179.23 -14.2863 177.071C-9.03074 174.972 -3.65516 173.032 1.6604 171.013L17.7079 165.252C23.0835 163.312 28.4399 161.511 33.8563 159.789C39.2127 157.988 44.7083 156.207 50.2256 154.784C53.0238 154.042 55.7428 153.36 58.5819 152.837C61.4209 152.314 64.2408 151.931 67.0607 151.547C72.7604 150.859 78.381 150.231 83.7566 148.291L83.8166 148.37C78.5419 150.609 72.8229 151.436 67.2432 152.283C61.6034 153.05 56.0454 154.255 50.5881 155.757C45.1309 157.26 39.7145 158.982 34.2981 160.703L17.9888 165.788C12.5724 167.51 7.21601 169.311 1.90045 171.33C-3.41512 173.35 -8.61067 175.528 -13.8854 177.767C-19.1601 180.005 -24.2957 182.263 -29.4504 184.66C-34.7035 187.256 -40.0574 189.554 -45.7788 189.884Z" fill="#3C2829"/>
<path d="M85.1772 146.22C91.2179 146.148 97.1744 145.141 103.071 144.055L111.946 142.466C114.924 141.962 117.962 141.538 120.861 141.095C126.859 140.307 132.837 139.658 138.834 138.87C144.831 138.082 150.829 137.295 156.766 136.427C168.641 134.692 180.635 133.117 192.63 131.541C204.545 130.025 216.521 128.588 228.537 127.37L228.597 127.45C216.703 129.324 204.769 130.979 192.774 132.555C180.779 134.131 168.864 135.647 156.908 136.944C144.872 138.301 133.017 139.897 121.044 141.83C115.106 142.698 109.15 143.704 103.193 144.711C97.2369 145.718 91.1603 146.565 85.1772 146.22Z" fill="#3C2829"/>
<path d="M88.8068 140.982C91.6706 145.431 90.4475 151.221 86.9848 154.211C83.4238 157.401 77.5966 156.438 73.7609 152.349C71.1396 148.715 70.2722 142.134 75.5829 139.12C80.5143 135.768 86.519 136.472 88.8068 140.982Z" fill="#3C2829"/>
<path d="M42.4848 40.9779C44.6477 44.3346 43.7747 48.6124 41.1231 50.8652C38.4523 53.2573 34.1563 52.5103 31.24 49.4734C29.2788 46.7129 28.5989 41.8615 32.6017 39.586C36.3452 37.132 40.7396 37.6799 42.4848 40.9779Z" fill="#3C2829"/>
<path d="M116.084 27.9199C118.247 31.2766 117.374 35.5544 114.723 37.8072C112.052 40.1993 107.756 39.4523 104.84 36.4154C102.878 33.6549 102.198 28.8035 106.201 26.528C109.945 24.0741 114.418 24.5621 116.084 27.9199Z" fill="#3C2829"/>
<path d="M191.638 80.0121C193.8 83.3689 192.928 87.6467 190.276 89.8995C187.605 92.2916 183.309 91.5446 180.393 88.5076C178.432 85.7471 177.752 80.8957 181.754 78.6203C185.498 76.1663 189.892 76.7142 191.638 80.0121Z" fill="#3C2829"/>
<path d="M235.154 127.237C237.317 130.594 236.444 134.872 233.792 137.125C231.121 139.517 226.825 138.77 223.909 135.733C221.948 132.972 221.268 128.121 225.271 125.846C228.954 123.312 233.348 123.86 235.154 127.237Z" fill="#3C2829"/>
<path d="M259.578 159.566C261.74 162.923 260.868 167.2 258.216 169.453C255.545 171.845 251.249 171.098 248.333 168.061C246.372 165.301 245.692 160.45 249.694 158.174C253.378 155.641 257.772 156.189 259.578 159.566Z" fill="#3C2829"/>
<path d="M197.614 230.834C199.777 234.191 198.904 238.469 196.252 240.722C193.581 243.114 189.285 242.367 186.369 239.33C184.408 236.569 183.728 231.718 187.731 229.442C191.414 226.909 195.888 227.397 197.614 230.834Z" fill="#3C2829"/>
<path d="M280.957 239.236C283.12 242.593 282.247 246.87 279.596 249.123C276.925 251.515 272.629 250.768 269.713 247.731C267.751 244.971 267.072 240.119 271.074 237.844C274.758 235.311 279.152 235.858 280.957 239.236Z" fill="#3C2829"/>
<path d="M102.045 277.708C104.208 281.065 103.335 285.343 100.684 287.595C98.0129 289.988 93.7169 289.241 90.8005 286.204C88.8393 283.443 88.1594 278.592 92.1622 276.316C95.9058 273.862 100.24 274.331 102.045 277.708Z" fill="#3C2829"/>
<path d="M119.158 362.1C121.321 365.456 120.448 369.734 117.796 371.987C115.125 374.379 110.829 373.632 107.913 370.595C105.952 367.835 105.272 362.983 109.275 360.708C112.958 358.174 117.352 358.722 119.158 362.1Z" fill="#3C2829"/>
<path d="M58.7988 428.412C60.9616 431.769 60.0887 436.047 57.4371 438.3C54.7663 440.692 50.4703 439.945 47.5539 436.908C45.5928 434.147 44.9129 429.296 48.9156 427.02C52.5992 424.487 56.9935 425.035 58.7988 428.412Z" fill="#3C2829"/>
<path d="M158.996 249.529C160.398 251.714 159.856 254.619 158.094 256.074C156.314 257.669 153.47 257.197 151.552 255.153C150.251 253.266 149.838 250.085 152.453 248.608C154.81 246.952 157.812 247.304 158.996 249.529Z" fill="#3C2829"/>
</g>
<defs>
<clipPath id="clip0">
<rect width="1918" height="589" fill="white"/>
</clipPath>
</defs>
</svg>
