<svg width="1620" height="296" viewBox="0 0 1620 296" fill="none" xmlns="http://www.w3.org/2000/svg">
<g clip-path="url(#clip0)">
<path d="M834.852 34.7824C832.251 48.6151 822.451 59.6412 808.65 57.1353C794.849 54.5291 783.348 40.8969 785.948 27.0642C788.548 13.2315 803.049 5.91416 815.15 9.52269C828.551 13.5322 837.452 20.9497 834.852 34.7824Z" fill="#F6B289"/>
<path d="M834.852 34.7823C834.252 37.9899 833.252 40.997 831.951 44.0041C830.651 46.911 828.851 49.7176 826.551 52.0231C824.251 54.3285 821.451 56.233 818.25 57.2354C815.05 58.2378 811.65 58.2378 808.45 57.6364C802.049 56.3333 796.249 52.6245 792.049 47.7129C789.948 45.3072 788.148 42.5006 786.948 39.4935C785.748 36.4863 785.048 33.2788 785.248 29.9709C785.348 26.6631 786.248 23.4555 787.748 20.5487C789.248 17.6418 791.448 15.0356 794.049 13.0309C799.249 9.02139 806.15 7.11689 812.65 8.31973C813.45 8.41997 814.25 8.72068 815.05 8.82092C815.85 9.02139 816.55 9.3221 817.35 9.52258C818.85 10.0238 820.451 10.6252 821.851 11.3268C824.751 12.7302 827.651 14.4342 829.951 16.7396C832.252 19.0451 834.052 21.952 834.752 25.1596C835.652 28.3671 835.552 31.675 834.852 34.7823ZM834.752 34.7823C835.252 31.675 835.352 28.3671 834.452 25.2598C833.552 22.2527 831.751 19.5463 829.351 17.4413C826.951 15.3363 824.251 13.7325 821.351 12.5297C819.851 11.9283 818.451 11.3268 816.95 10.8257C816.15 10.6252 815.45 10.3245 814.65 10.124C813.85 9.92353 813.15 9.72305 812.35 9.62282C806.25 8.62045 799.649 10.3245 794.649 14.0332C792.148 15.9377 790.048 18.3434 788.548 21.0498C787.048 23.7562 786.148 26.8636 785.948 30.0712C785.448 36.3861 788.148 42.8013 792.449 47.5124C796.649 52.2236 802.549 55.5314 808.75 56.634C811.85 57.2354 815.05 57.0349 818.05 56.233C821.051 55.3309 823.751 53.6269 826.051 51.5219C828.351 49.4169 830.251 46.8108 831.751 43.9039C833.152 40.997 834.152 37.8897 834.752 34.7823Z" fill="#F6B289"/>
<path d="M835.752 52.0233C832.952 55.0304 829.851 57.8371 826.451 60.1425C823.051 62.448 819.251 64.3525 815.15 65.3548C811.05 66.4575 806.65 66.5577 802.449 65.4551C798.249 64.3525 794.449 62.047 791.348 59.1401C788.248 56.133 785.848 52.6247 784.048 48.916C782.248 45.107 780.948 41.0975 780.348 36.9878C779.648 32.878 779.648 28.6681 780.348 24.5584C781.048 20.4486 782.448 16.4392 784.848 12.9309C787.148 9.42257 790.248 6.31522 793.949 4.11C797.549 1.90479 801.749 0.501467 805.95 0.100519C814.45 -0.801614 823.351 1.90479 829.851 7.6183C830.651 8.31996 831.351 9.12185 832.151 9.92375C832.852 10.7256 833.552 11.5275 834.152 12.3294C835.452 13.9332 836.752 15.6373 837.852 17.4415C840.152 20.9498 841.952 24.8591 842.952 29.069C843.852 33.1787 843.752 37.5892 842.352 41.5987C840.952 45.5079 838.552 49.0162 835.752 52.0233ZM835.552 51.9231C838.252 48.916 840.552 45.3074 841.552 41.3982C842.552 37.4889 842.352 33.279 841.152 29.47C839.952 25.661 837.952 22.1527 835.652 18.8448C834.452 17.2411 833.252 15.6373 831.952 14.0335C831.251 13.2316 830.651 12.4297 829.951 11.728C829.251 11.0264 828.551 10.3247 827.851 9.72328C821.951 4.61119 813.85 1.90479 806.05 2.60645C802.149 2.90716 798.249 4.11 794.749 6.01451C791.349 7.91901 788.248 10.6254 785.848 13.833C783.448 17.0406 781.848 20.8496 781.048 24.8591C780.248 28.8686 780.348 32.9783 781.048 36.9878C781.748 40.9972 783.248 44.9065 785.248 48.4148C787.248 51.9231 789.748 55.1307 792.749 57.7368C795.749 60.343 799.149 62.3477 802.949 63.4503C806.75 64.4527 810.75 64.6532 814.75 63.9515C822.651 62.448 830.051 57.9373 835.552 51.9231Z" fill="#F6B289"/>
<path d="M166.301 265.027C173.502 268.034 178.402 274.75 175.402 281.967C172.402 289.184 163.601 293.895 156.401 290.888C149.2 287.881 146.9 279.06 150.3 272.845C154 266.029 159.101 262.02 166.301 265.027Z" fill="#F6B289"/>
<path d="M166.301 265.027C168.001 265.729 169.502 266.631 171.002 267.733C172.402 268.836 173.702 270.139 174.702 271.643C175.702 273.146 176.402 274.95 176.502 276.755C176.702 278.559 176.302 280.463 175.602 282.167C174.102 285.576 171.402 288.182 168.301 289.986C165.201 291.69 161.401 292.592 157.901 291.69C154.4 290.788 151.3 288.282 149.7 284.974C148.1 281.666 147.9 277.657 149.3 274.249C149.6 273.347 150.1 272.545 150.5 271.843C151 271.041 151.5 270.339 152 269.538C153.1 268.134 154.4 266.731 155.901 265.729C157.401 264.726 159.201 264.125 161.001 264.025C162.901 263.824 164.701 264.325 166.301 265.027ZM166.301 265.127C164.701 264.425 162.901 264.025 161.101 264.225C159.301 264.325 157.701 265.027 156.201 266.13C154.8 267.132 153.6 268.535 152.6 269.939C151.6 271.342 150.6 272.946 150 274.549C148.7 277.757 148.9 281.566 150.3 284.673C151 286.277 152.1 287.681 153.4 288.883C154.7 289.986 156.301 290.888 158.001 291.389C161.401 292.392 165.201 291.69 168.201 289.886C171.302 288.081 173.702 285.275 175.102 282.067C175.802 280.463 176.102 278.659 175.902 276.955C175.802 275.251 175.202 273.547 174.302 272.044C172.502 268.736 169.502 266.43 166.301 265.127Z" fill="#F6B289"/>
<path d="M175.802 266.53C178.403 270.239 180.403 274.65 180.603 279.361C180.703 281.666 180.303 284.172 179.203 286.277C178.103 288.482 176.402 290.287 174.502 291.59C170.502 294.196 165.802 295.298 161.201 295.098C156.601 294.897 151.901 293.294 148.6 289.886C147 288.182 145.6 286.177 144.9 283.871C144.1 281.666 143.9 279.16 144.1 276.855C144.6 272.144 147.1 267.533 151 264.726C151.501 264.325 152.001 264.024 152.501 263.724C153.001 263.423 153.501 263.122 154.001 262.922C155.001 262.421 156.101 261.919 157.201 261.519C159.401 260.717 161.701 260.115 164.101 260.115C166.502 260.115 168.802 260.717 170.802 261.919C172.902 263.022 174.502 264.726 175.802 266.53ZM175.702 266.631C174.402 264.826 172.702 263.122 170.702 262.12C168.702 261.118 166.402 260.717 164.201 260.917C162.001 261.118 159.801 261.819 157.801 262.621C155.801 263.523 153.701 264.526 151.901 265.829C148.4 268.435 146 272.545 145.5 276.955C145.2 279.16 145.4 281.365 146 283.47C146.7 285.575 147.7 287.58 149.2 289.284C152.201 292.692 156.701 294.497 161.201 294.597C165.702 294.697 170.302 293.294 173.802 290.587C175.602 289.284 177.102 287.58 178.103 285.676C179.103 283.771 179.603 281.566 179.703 279.361C179.903 274.95 178.303 270.339 175.702 266.631Z" fill="#F6B289"/>
<g opacity="0.5">
<path d="M811.108 209C811.547 211.158 811.811 213.217 811.899 215.375C811.986 217.533 812.074 219.592 811.899 221.75C811.723 223.908 811.284 225.967 811.108 228.125C811.02 230.283 811.108 232.342 811.284 234.5C811.547 236.658 811.723 238.717 811.723 240.875C811.811 243.033 811.899 245.092 811.811 247.25C811.635 251.467 811.284 255.783 810.405 260H810.142C809.351 255.783 809.088 251.467 809 247.25C809 245.092 809.088 243.033 809.263 240.875C809.351 238.717 809.615 236.658 809.878 234.5C810.142 232.342 810.318 230.283 810.23 228.125C810.142 225.967 809.791 223.908 809.615 221.75C809.439 219.592 809.615 217.533 809.79 215.375C809.966 213.217 810.23 211.158 810.757 209H811.108Z" fill="#877672"/>
</g>
<g opacity="0.5">
<path d="M811.35 65.2544C811.95 71.2686 812.15 77.2828 812.35 83.1968C812.55 89.2111 812.55 95.2253 812.45 101.139C812.25 107.153 811.75 113.168 811.65 119.082C811.55 125.096 811.65 131.11 811.95 137.024C812.25 143.038 812.45 149.053 812.55 154.967C812.65 160.981 812.75 166.995 812.65 172.909C812.45 184.937 812.15 196.866 811.15 208.894H810.85C809.95 196.866 809.55 184.937 809.45 172.909C809.45 166.895 809.55 160.881 809.65 154.967C809.75 148.952 809.95 142.938 810.25 137.024C810.55 131.01 810.75 124.996 810.65 119.082C810.55 113.067 810.05 107.053 809.95 101.139C809.75 95.125 809.85 89.1108 810.05 83.1968C810.25 77.1826 810.55 71.1684 811.05 65.2544H811.35Z" fill="#877672"/>
</g>
<g opacity="0.5">
<path d="M554.731 63.5505C557.031 62.8488 559.231 62.1472 561.531 61.4455C563.832 60.7438 566.132 60.0422 568.432 59.4408C573.032 58.1377 577.633 56.9348 582.233 55.8322C586.833 54.7296 591.534 53.627 596.134 52.6246C600.834 51.6223 605.435 50.7201 610.135 49.818L624.236 47.6128L631.337 46.6104L638.437 45.5078C643.137 44.8061 647.838 44.1045 652.538 43.3026C657.238 42.6009 661.939 41.799 666.639 40.9971C671.34 40.2955 676.04 39.4936 680.74 38.8922C685.441 38.2907 690.141 37.6893 694.941 37.0879L709.142 35.5843C713.843 35.1834 718.643 34.7824 723.343 34.4817C742.345 33.2789 761.446 32.9782 780.448 33.7801V34.0808C761.446 35.1834 742.445 36.286 723.543 37.6893C718.843 38.0903 714.043 38.4912 709.342 38.7919L695.141 39.9948C690.441 40.496 685.641 40.8969 680.94 41.2978C676.24 41.799 671.44 42.2 666.739 42.7012C662.039 43.2023 657.339 43.8038 652.538 44.4052C647.838 45.1069 643.137 45.8085 638.437 46.6104C633.737 47.4123 629.136 48.4147 624.436 49.417L610.535 52.4242C605.935 53.4265 601.234 54.4289 596.634 55.331C592.034 56.3334 587.333 57.3358 582.733 58.2379C578.133 59.2403 573.432 60.2426 568.732 61.1448C566.432 61.646 564.032 62.1472 561.731 62.6483C559.431 63.1495 557.031 63.6507 554.731 64.0517V63.5505Z" fill="#877672"/>
</g>
<g opacity="0.5">
<path d="M287.211 179.324C289.711 177.62 292.311 175.916 294.811 174.312C297.411 172.608 299.912 170.904 302.512 169.3C307.712 166.093 312.913 162.885 318.113 159.778C323.413 156.671 328.714 153.663 334.014 150.656C339.415 147.749 344.815 144.843 350.215 142.036L366.717 134.017L375.017 130.208L383.318 126.299L416.42 110.762C422.021 108.256 427.521 105.75 433.122 103.244C438.722 100.838 444.423 98.533 450.023 96.2276L467.124 89.6119C472.825 87.5069 478.625 85.5022 484.325 83.3972C507.427 75.5787 530.929 68.7626 554.731 63.5503L554.831 63.851C531.529 70.9678 508.327 78.3854 485.426 86.5046C479.725 88.5093 473.925 90.6143 468.224 92.619L451.123 98.934L434.122 105.55C428.521 107.855 422.821 110.06 417.12 112.366C411.52 114.771 405.92 117.077 400.319 119.483C394.819 121.988 389.218 124.595 383.718 127.201C378.318 129.907 372.817 132.714 367.417 135.52L351.316 144.241C346.015 147.248 340.615 150.055 335.214 152.962C329.914 155.869 324.513 158.876 319.213 161.783L287.311 179.625L287.211 179.324Z" fill="#877672"/>
</g>
<g opacity="0.5">
<path d="M173.102 263.924C181.503 255.504 190.103 247.285 199.304 239.767L202.804 236.96L204.605 235.557C205.205 235.056 205.705 234.555 206.305 234.054C208.605 232.149 210.905 230.245 213.205 228.44C215.505 226.636 217.906 224.832 220.406 223.128C222.906 221.524 225.406 219.92 227.906 218.316C238.007 212.102 246.808 203.882 256.708 197.367C261.509 193.959 266.609 190.751 271.71 187.744C276.81 184.737 282.01 181.83 287.411 179.224L287.611 179.525C282.91 183.233 278.11 186.641 273.21 190.049C270.81 191.754 268.309 193.357 265.909 195.061C263.409 196.665 261.009 198.269 258.509 199.873L251.008 204.684C248.508 206.288 245.908 207.791 243.407 209.295C238.307 212.402 233.407 215.71 228.806 219.419C226.506 221.323 224.306 223.228 221.906 225.132C219.606 227.037 217.205 228.741 214.805 230.445C210.005 233.953 204.905 237.061 200.404 240.769C191.104 248.087 182.203 256.005 173.502 264.024L173.102 263.924Z" fill="#877672"/>
</g>
<g opacity="0.5">
<path d="M947.86 40.7965C945.66 40.7965 943.46 40.7965 941.16 40.6963C938.96 40.5961 936.759 40.4958 934.559 40.2954C932.359 40.1951 930.159 39.9946 927.959 39.7942C925.759 39.5937 923.558 39.3932 921.358 39.0925C916.958 38.4911 912.658 37.589 908.257 37.188C903.857 36.7871 899.457 36.5866 895.056 36.5866C890.656 36.5866 886.256 36.5866 881.755 36.3861C877.355 36.2859 872.955 36.1856 868.554 35.9852C859.754 35.484 850.953 34.9828 842.052 33.9804V33.6797C850.853 32.7776 859.754 32.5771 868.654 32.7776C870.854 32.8778 873.055 32.9781 875.255 33.0783L881.855 33.5795C884.055 33.78 886.256 33.8802 888.456 34.1809C890.656 34.3814 892.856 34.6821 895.056 34.9828C899.457 35.5842 903.857 35.9852 908.257 36.2859C912.658 36.5866 917.158 36.4863 921.558 36.6868C925.959 36.8873 930.359 37.4887 934.759 38.0901C939.16 38.7918 943.46 39.4935 947.86 40.5961V40.7965Z" fill="#877672"/>
</g>
<g opacity="0.5">
<path d="M1313.19 166.293C1309.59 164.389 1305.99 162.484 1302.49 160.58C1298.89 158.675 1295.39 156.771 1291.79 154.766C1284.59 151.057 1277.38 147.349 1270.18 143.54C1262.88 139.931 1255.68 136.323 1248.48 132.714C1241.18 129.206 1233.88 125.798 1226.58 122.189L1204.58 111.865C1197.18 108.557 1189.78 105.349 1182.28 102.142C1174.78 99.1347 1167.18 96.2278 1159.58 93.4212C1151.98 90.7148 1144.27 88.1086 1136.57 85.5024C1128.87 83.0967 1121.07 80.6911 1113.37 78.1851L1090.07 71.369L1066.67 65.0541C1058.77 63.1496 1050.97 61.2451 1043.07 59.2403C1011.57 51.7225 979.763 45.7083 947.76 40.6965V40.3958C980.063 43.4029 1012.17 48.8157 1043.77 56.0327C1051.67 57.9372 1059.57 59.942 1067.37 61.9467L1090.77 68.5624L1113.97 75.8797C1121.67 78.4858 1129.27 81.1922 1136.97 83.8986C1144.58 86.7053 1152.18 89.6121 1159.78 92.4188C1167.28 95.4259 1174.88 98.3328 1182.48 101.24L1193.78 105.851L1205.08 110.361L1227.48 119.884C1234.88 123.292 1242.18 126.8 1249.48 130.308C1256.68 134.017 1263.88 137.726 1271.08 141.435C1278.19 145.344 1285.29 149.353 1292.39 153.263C1295.89 155.267 1299.39 157.473 1302.79 159.578C1306.29 161.683 1309.69 163.788 1313.19 165.893V166.293Z" fill="#877672"/>
</g>
<g opacity="0.5">
<path d="M1448.7 263C1438.42 253.587 1427.95 244.373 1416.87 236.149C1411.08 232.285 1405.4 228.223 1399.81 224.16C1398.41 223.17 1397.01 222.08 1395.62 220.99L1391.53 217.72C1388.73 215.54 1386.04 213.361 1383.25 211.379C1380.45 209.397 1377.56 207.416 1374.56 205.533C1371.57 203.651 1368.68 201.867 1365.68 200.084C1362.69 198.3 1359.7 196.418 1356.8 194.634C1353.81 192.752 1350.92 190.968 1347.92 189.185C1336.15 181.853 1324.47 174.224 1313 166.297L1313.2 166C1325.77 172.044 1338.04 178.88 1349.62 186.51C1355.41 190.374 1361.19 194.238 1366.88 198.399L1375.26 204.641C1378.06 206.722 1380.95 208.704 1383.84 210.586C1389.63 214.45 1395.72 217.918 1401.41 221.981C1407.09 226.043 1412.58 230.402 1417.87 234.861C1423.36 239.122 1428.64 243.679 1433.83 248.336C1439.02 252.993 1444.01 257.848 1449 262.703L1448.7 263Z" fill="#877672"/>
</g>
<path d="M1471 281.765C1467.9 288.983 1461.2 293.794 1454 290.687C1446.8 287.579 1442.2 278.758 1445.3 271.541C1448.4 264.324 1457.2 262.119 1463.3 265.627C1470.2 269.436 1474.1 274.548 1471 281.765Z" fill="#F6B289"/>
<path d="M1471 281.766C1470.3 283.37 1469.4 284.974 1468.3 286.377C1467.2 287.78 1465.9 289.083 1464.4 290.086C1462.9 291.088 1461.1 291.69 1459.3 291.89C1457.5 292.091 1455.6 291.589 1453.9 290.888C1450.6 289.384 1447.9 286.678 1446.2 283.47C1444.5 280.363 1443.7 276.554 1444.7 272.945C1445.6 269.437 1448.2 266.33 1451.5 264.826C1454.8 263.323 1458.8 263.122 1462.2 264.525C1463.1 264.926 1463.9 265.327 1464.6 265.829C1465.4 266.33 1466.1 266.831 1466.8 267.332C1468.2 268.435 1469.6 269.738 1470.5 271.241C1471.5 272.745 1472.1 274.549 1472.1 276.353C1472.2 278.358 1471.7 280.162 1471 281.766ZM1470.9 281.766C1471.6 280.162 1472 278.358 1471.9 276.554C1471.8 274.75 1471.1 273.046 1470.1 271.642C1469.1 270.239 1467.8 269.036 1466.3 267.933C1464.9 266.931 1463.4 265.929 1461.8 265.227C1458.6 263.924 1454.8 264.024 1451.7 265.428C1450.1 266.129 1448.7 267.132 1447.5 268.435C1446.3 269.738 1445.5 271.342 1445 273.046C1444 276.454 1444.6 280.263 1446.4 283.27C1448.1 286.377 1450.9 288.883 1454.1 290.286C1455.7 290.988 1457.5 291.289 1459.2 291.188C1460.9 291.088 1462.6 290.487 1464.1 289.685C1467.2 287.981 1469.5 284.974 1470.9 281.766Z" fill="#F6B289"/>
<path d="M1469.3 291.289C1465.5 293.895 1461.2 295.8 1456.4 296C1454.1 296.1 1451.6 295.599 1449.5 294.496C1447.4 293.394 1445.6 291.69 1444.3 289.685C1441.7 285.676 1440.7 280.864 1441 276.253C1441.3 271.642 1443 267.032 1446.4 263.724C1448.1 262.12 1450.1 260.817 1452.4 260.115C1454.7 259.313 1457.1 259.113 1459.4 259.413C1464.1 260.015 1468.6 262.521 1471.4 266.43C1471.8 266.931 1472 267.432 1472.4 267.934C1472.7 268.435 1472.9 268.936 1473.2 269.537C1473.7 270.54 1474.2 271.642 1474.6 272.745C1475.4 274.95 1475.9 277.256 1475.9 279.661C1475.9 282.067 1475.3 284.373 1474.1 286.377C1473 288.382 1471.2 289.986 1469.3 291.289ZM1469.3 291.189C1471.2 289.886 1472.8 288.182 1473.8 286.177C1474.8 284.172 1475.2 281.867 1475 279.661C1474.8 277.456 1474.2 275.251 1473.3 273.246C1472.4 271.241 1471.4 269.036 1470.2 267.332C1467.6 263.824 1463.6 261.318 1459.2 260.717C1457 260.416 1454.8 260.516 1452.7 261.118C1450.6 261.719 1448.6 262.822 1446.9 264.225C1443.5 267.132 1441.6 271.743 1441.4 276.253C1441.2 280.764 1442.6 285.375 1445.2 288.983C1446.5 290.788 1448.1 292.291 1450.1 293.294C1452 294.296 1454.2 294.897 1456.4 294.998C1461 295.298 1465.5 293.795 1469.3 291.189Z" fill="#F6B289"/>
<path d="M819.55 288.983C812.75 292.892 804.549 292.792 800.649 285.976C796.749 279.16 798.349 269.336 805.049 265.427C811.85 261.518 820.15 265.026 823.051 271.441C826.251 278.558 826.351 284.973 819.55 288.983Z" fill="#F6B289"/>
<path d="M819.55 288.984C818.05 289.886 816.35 290.587 814.65 291.089C812.95 291.59 811.15 291.79 809.25 291.69C807.449 291.59 805.649 290.988 804.049 290.086C802.449 289.084 801.249 287.681 800.349 286.077C798.549 282.869 798.049 279.06 798.549 275.552C799.049 272.044 800.649 268.535 803.549 266.23C806.349 263.924 810.25 263.022 813.85 263.824C817.45 264.526 820.75 266.831 822.651 270.039C823.151 270.841 823.551 271.643 823.851 272.545C824.151 273.347 824.451 274.249 824.751 275.151C825.251 276.855 825.551 278.759 825.351 280.564C825.251 282.368 824.651 284.172 823.551 285.676C822.551 286.879 821.15 288.082 819.55 288.984ZM819.55 288.883C821.05 287.981 822.451 286.778 823.451 285.275C824.451 283.771 824.851 282.067 824.951 280.263C824.951 278.459 824.651 276.755 824.151 275.051C823.651 273.347 822.951 271.643 822.15 270.239C820.35 267.232 817.25 265.127 813.85 264.325C812.15 263.924 810.35 263.924 808.65 264.225C806.949 264.626 805.349 265.328 803.849 266.33C801.049 268.435 799.249 271.843 798.849 275.351C798.349 278.86 799.149 282.568 800.949 285.576C801.849 287.079 803.049 288.382 804.449 289.385C805.949 290.387 807.649 290.888 809.35 291.089C812.85 291.69 816.45 290.688 819.55 288.883Z" fill="#F6B289"/>
<path d="M812.55 295.599C807.95 295.399 803.349 294.396 799.449 291.69C797.549 290.387 795.849 288.583 794.749 286.377C793.649 284.172 793.249 281.766 793.349 279.361C793.649 274.65 795.749 270.139 798.649 266.631C801.649 263.122 805.75 260.316 810.45 259.815C812.75 259.514 815.15 259.714 817.45 260.416C819.751 261.118 821.751 262.421 823.551 264.024C827.051 267.332 829.151 272.043 829.051 276.855C829.051 277.456 828.951 278.058 828.951 278.659C828.851 279.26 828.751 279.862 828.651 280.363C828.451 281.466 828.151 282.669 827.851 283.771C827.151 285.976 826.251 288.182 824.751 290.086C823.351 291.991 821.451 293.494 819.251 294.396C817.25 295.399 814.85 295.699 812.55 295.599ZM812.55 295.499C814.85 295.599 817.15 295.198 819.151 294.196C821.151 293.193 822.851 291.59 824.051 289.685C825.251 287.781 825.951 285.676 826.551 283.47C827.051 281.265 827.551 279.06 827.551 276.855C827.551 272.444 825.751 268.134 822.651 265.027C821.051 263.523 819.251 262.22 817.15 261.519C815.05 260.717 812.85 260.416 810.65 260.616C806.15 260.917 801.949 263.523 799.149 267.032C796.249 270.54 794.749 275.051 794.649 279.461C794.649 281.666 795.049 283.871 795.949 285.876C796.849 287.881 798.249 289.585 800.049 290.988C803.449 293.795 808.05 295.298 812.55 295.499Z" fill="#F6B289"/>
</g>
<defs>
<clipPath id="clip0">
<rect width="1620" height="296" fill="white"/>
</clipPath>
</defs>
</svg>
