<svg xmlns="http://www.w3.org/2000/svg" width="1918" height="589" fill="none"  xmlns:v="https://vecta.io/nano"><g opacity=".2" clip-path="url(#A)" fill="#3c2829"><path d="M-42.367 315.338c5.665-6.03 12.01-11.324 18.597-16.3 3.333-2.518 6.706-4.817 10.039-7.335s6.526-5.055 9.719-7.593l19.518-15.246 19.939-14.688.06.079c-6.346 5.294-12.872 10.35-19.398 15.405s-13.172 9.952-19.819 14.848c-3.393 2.438-6.646 4.896-9.919 7.494-3.253 2.458-6.466 5.135-9.659 7.672-6.466 5.135-12.932 10.271-19.078 15.664zm77.784-63.016c6.166-1.408 12.293-2.536 18.541-3.506l9.352-1.314c3.124-.485 6.188-1.049 9.331-1.673l9.23-1.972c3.083-.704 6.046-1.567 9.028-2.57s5.964-2.005 9.047-2.709c3.143-.624 6.368-.81 9.458-.019l-.019.139c-3.129-.511-6.253-.027-9.196.697-3.023.783-5.945 1.865-8.927 2.868-5.983 2.145-12.25 3.254-18.418 4.163-3.124.485-6.168.909-9.311 1.534-3.064.564-6.147 1.268-9.21 1.832-6.387.95-12.635 1.919-18.904 2.53zm77.813-12.655c2.127 3.144 5.421 5.031 8.656 6.838 1.657.873 3.235 1.807 4.952 2.76a27.35 27.35 0 0 1 2.357 1.47l2.417 1.549c1.559 1.073 3.038 2.206 4.596 3.279l4.438 3.399 8.935 6.877 8.856 6.937 8.935 6.878c5.996 4.471 12.09 8.744 18.62 12.437l-.079.06c-6.807-3.234-13.139-7.327-19.215-11.739-5.996-4.472-11.794-9.342-17.533-14.133-2.86-2.466-5.739-4.792-8.776-6.998-2.959-2.265-6.095-4.272-9.291-6.358a188.23 188.23 0 0 0-9.587-5.76c-1.578-.933-3.215-1.946-4.695-3.079-1.46-1.273-2.761-2.665-3.586-4.417zm73.454 51.526c5.549 6.685 12.425 11.992 18.035 18.756 2.804 3.382 5.31 6.865 8.036 10.307l8.134 10.107 16.409 20.235c5.391 6.805 10.701 13.669 15.854 20.654l-.08.06c-5.628-6.625-11.177-13.31-16.567-20.115-5.47-6.744-10.781-13.609-16.012-20.534s-10.622-13.729-16.489-20.174c-2.823-3.243-5.885-6.306-8.947-9.369-2.922-3.043-5.965-6.245-8.373-9.927zm68.103 80.574c-.261 3.448.771 6.794 1.962 10.02s2.521 6.472 3.572 9.679c.486 1.633 1.033 3.346 1.598 4.919l1.518 4.979a380.84 380.84 0 0 0 3.195 9.839c2.144 6.632 4.009 13.224 5.635 19.997s2.975 13.506 4.024 20.339l-.079.06-4.899-20.178-5.198-20.078c-.892-3.326-1.864-6.593-2.976-9.879s-2.302-6.512-3.493-9.738l-3.494-9.738c-1.19-3.226-2.124-6.772-1.365-10.221zm-61.151 71.83c3.448.77 6.993.843 10.439 1.115l10.599.994c3.506.352 7.053.923 10.56 1.274l10.538.915c7.032.564 14.063 1.127 21.098 2.189 6.974.982 13.97 2.323 20.81 4.282l-.02.14c-6.995-1.341-13.89-2.383-20.865-3.365l-21.04-2.608-10.579-1.134c-3.506-.352-7.032-.564-10.557-.776l-10.519-1.054c-3.548-.571-7.073-.783-10.464-1.972zm-1.239-.814c5.79-4.875 10.32-10.923 15.369-16.613 2.455-2.855 5.11-5.611 7.565-8.465l7.304-8.645 14.549-17.368c4.91-5.71 9.96-11.4 15.129-16.931l.06.08c-4.729 5.948-9.519 11.817-14.429 17.527-4.849 5.79-9.899 11.48-14.948 17.17-2.515 2.775-5.049 5.69-7.504 8.545s-4.79 5.869-7.185 8.803a198.97 198.97 0 0 1-7.444 8.625c-2.476 2.496-5.27 5.232-8.466 7.272z"/><path d="M232.126 339.628c3.988 9.239 7.679 18.578 11.15 27.958l5.228 14.178 5.526 14.079 11.071 28.018 10.396 28.278-.079.06c-3.91-9.299-7.679-18.578-11.291-27.978l-10.693-28.177-5.307-14.119c-1.776-4.66-3.77-9.28-5.685-13.959l-10.316-28.338zm-39.337 101.858c1.832-4.009 3.942-7.98 5.774-11.989 1.972-3.99 3.404-8.198 4.897-12.326l4.637-12.505c1.572-4.189 2.926-8.337 4.298-12.624l8.596-25.248 9.274-25.011.14.02c-2.666 8.515-5.531 16.931-8.457 25.268l-9.074 25.109-4.498 12.525-4.158 12.643c-.786 2.095-1.433 4.208-2.219 6.303s-1.772 4.089-2.758 6.084c-1.99 4.129-4.161 8.02-6.452 11.751z"/><path d="M187.55 293.164c1.873 12.213 3.248 24.427 4.325 36.741l2.612 36.784c.937 12.294 1.516 24.609 1.737 36.945.3 12.276.302 24.652-.115 36.969l-.139-.02-.742-36.947-1.239-36.946-1.087-18.432c-.509-6.118-1.156-12.254-1.804-18.391l-3.548-36.703zM99.115 492.378c7.743-4.6 15.667-8.961 23.65-13.242 3.992-2.141 8.024-4.062 12.016-6.203l11.915-6.501 23.77-13.082 12.036-6.343c4.051-2.061 8.163-4.042 12.518-5.207l.061.08c-4.254 1.463-8.246 3.604-12.238 5.745l-11.855 6.581c-7.923 4.36-15.967 8.562-23.931 12.704-4.052 2.061-8.044 4.201-11.975 6.421-3.992 2.141-7.863 4.441-11.795 6.661l-24.172 12.386z"/><path d="M99.129 491.242c2.045 6.832 3.653 13.744 5.042 20.696l1.963 10.519c.655 3.506 1.389 6.952 2.183 10.478 1.528 6.972 2.838 13.985 4.007 20.977s2.042 14.086 2.774 21.159l-.079.06-3.649-20.998-3.51-20.978c-.575-3.566-1.169-6.993-1.964-10.518-.734-3.447-1.607-6.913-2.401-10.438-1.668-6.992-3.056-13.945-4.366-20.957zm18.419 84.103c2.301-5.864 4.941-11.609 7.78-17.255 1.38-2.793 3.039-5.546 4.558-8.32s3.099-5.466 4.679-8.16l9.756-16.123 9.497-16.301 18.934-32.683 9.696-16.203 9.836-16.182.06.079-9.297 16.401-9.437 16.381-19.332 32.485c-3.299 5.367-6.458 10.755-9.637 16.282l-9.297 16.4-4.678 8.161c-1.58 2.694-3.16 5.387-4.619 8.24a378.8 378.8 0 0 0-8.499 16.798z"/><path d="M-26.003 566.651c7.752 5.146 14.652 11.31 21.216 17.853l9.647 9.965c3.242 3.302 6.484 6.603 9.568 10.025 1.542 1.71 3.084 3.421 4.606 5.272l4.308 5.372c2.846 3.601 6.088 6.903 9.429 10.005l19.869 19.37-.079.06c-6.98-6.104-13.801-12.328-20.463-18.672-1.701-1.591-3.401-3.181-4.943-4.892-1.621-1.651-3.144-3.501-4.527-5.332l-4.149-5.492c-1.383-1.83-2.846-3.601-4.308-5.372-5.929-7.023-12.731-13.386-19.393-19.73-6.802-6.363-13.544-12.647-20.781-18.432zm78.119 76.507c4.787-6.367 9.954-12.396 15.362-18.107l8.341-8.427 8.221-8.586 16.382-17.253 16.182-17.351.06.079c-4.847 6.288-10.075 12.238-15.562 18.008s-11.094 11.383-16.761 16.915c-2.873 2.796-5.667 5.532-8.341 8.427-2.734 2.815-5.347 5.79-7.961 8.765l-15.922 17.53zm-75.989-76.491a101.46 101.46 0 0 1 16.882-.752c5.656.227 11.274.734 16.777 2.078 10.556 4.403 21.868 4.858 33.027 6.429l16.716 1.999c5.519.706 11.197 1.292 16.692 1.142l33.668-.807-.019.14-16.841.971-16.882.752c-2.847.026-5.615-.009-8.424-.262s-5.599-.646-8.388-1.039l-16.659-2.417-16.678-2.278c-2.79-.393-5.579-.785-8.331-1.457l-4.028-1.208c-1.356-.475-2.732-.811-4.108-1.147-2.751-.672-5.462-1.125-8.27-1.378-2.79-.393-5.538-.567-8.367-.681-5.498-.347-11.192-.296-16.767-.085zm-1.179-.735c8.921-7.99 19.383-14.269 29.95-19.752l16.049-8.124c5.283-2.741 10.465-5.781 15.587-8.9l30.25-19.353 30.551-18.956.06.08-30.01 19.672c-5.002 3.278-10.123 6.398-15.185 9.597a543.92 543.92 0 0 1-15.366 9.358c-10.364 6.08-20.99 11.482-31.535 17.323-10.585 5.622-21.009 11.622-30.351 19.055z"/><path d="M98.035 491.443c-2.485 12.88-6.345 25.423-10.066 37.986l-5.781 18.745-5.442 18.864-10.823 37.808-5.641 18.765-5.781 18.745-.14-.019 5.242-18.964 5.382-18.943c3.581-12.583 7.442-25.126 11.302-37.67l5.641-18.765 5.302-18.883 10.804-37.669zm-157.513-53.406c3.991 9.737 6.77 20.015 9.35 30.193l3.641 15.378 3.86 15.338c2.58 10.178 4.861 20.457 6.546 30.936 1.764 10.42 2.812 20.88 3.203 31.462l-.139-.02c-.968-10.52-2.314-20.881-4.158-31.24l-2.845-15.479-3.203-15.459-3.641-15.378c-1.28-5.159-2.798-10.138-4.158-15.237-2.7-10.338-5.14-20.497-8.455-30.494zm2.419-2.078c6.799 1.74 12.593 5.614 18.781 8.691a244.49 244.49 0 0 0 18.721 8.611c12.691 5.414 25.736 9.812 39.016 13.531 13.182 3.919 26.56 7.439 39.879 10.88l40.076 10.48-.019.14-20.115-4.682-20.076-4.961c-13.318-3.441-26.599-7.16-39.802-11.438-6.621-1.999-13.143-4.198-19.745-6.337-6.522-2.199-13.045-4.397-19.449-6.935s-12.751-5.495-18.781-8.691c-6.188-3.076-11.963-7.09-18.485-9.289z"/><path d="M-38.303 515.558c11.161-2.056 22.22-4.41 33.198-7.203 5.449-1.366 10.978-2.792 16.465-4.438 5.408-1.585 10.735-3.609 16.121-5.553 2.684-.903 5.367-1.805 8.232-2.468 2.785-.604 5.63-1.128 8.455-1.512 2.766-.464 5.591-.849 8.316-1.532s5.389-1.446 8.133-2.269 5.488-1.645 8.253-2.109c2.785-.604 5.61-.988 8.417-1.233 5.692-.55 11.387-.601 17.082-.653l-.019.14c-5.733.33-11.327.681-16.959 1.31s-11.141 1.916-16.49 3.581c-2.744.823-5.428 1.725-8.212 2.329s-5.61.988-8.376 1.452c-2.826.384-5.651.769-8.357 1.312-2.785.604-5.449 1.367-8.193 2.189-10.795 3.53-21.469 7.219-32.466 10.151-11.156 3.052-22.335 5.247-33.6 6.506zM80.446 357.954a236.42 236.42 0 0 1 6.315 32.611c.665 5.499 1.11 11.039 1.416 16.558l.919 16.56.359 8.23.14 4.145c.027 1.355.193 2.729.359 4.104l1.076 8.189 1.136 8.268 3.987 32.995-.079.06-4.923-32.913-2.133-16.517c-.166-1.375-.253-2.81-.28-4.165l-.061-4.205-.061-8.33c-.087-5.56-.254-11.06-.7-16.599s-1.19-10.979-1.994-16.498c-1.507-10.738-3.353-21.596-5.478-32.493zm3.732 1.806c6.927 7.519 13.736 15.377 18.521 24.515 2.432 4.539 4.566 9.178 7.236 13.537 2.59 4.419 5.498 8.598 8.625 12.737l18.68 24.395 18.204 24.754-.08.06-18.997-24.155c-3.146-3.999-6.194-8.198-9.26-12.257a395.66 395.66 0 0 1-9.023-12.438c-2.908-4.18-5.797-8.497-8.467-12.856s-5.102-8.898-7.692-13.317c-2.512-4.479-5.34-8.718-8.407-12.778-2.988-4.119-6.213-8.058-9.34-12.197zm72.961 100.532l.344-14.887.242-7.434-.396-7.453-1.726-14.824c-.602-4.921-1.343-9.862-2.085-14.803l.079-.06c1.398 4.82 2.359 9.721 3.1 14.662.662 5.001 1.125 9.902 1.21 14.964.045 1.216.012 2.491.118 3.786.046 1.216.012 2.491.118 3.787l.198 3.726.119 3.786c-.096 4.823-.429 9.826-1.321 14.75z"/><path d="M84.95 358.802c9.82 4.584 19.108 10.444 27.546 17.322 4.218 3.439 8.456 6.739 13.189 9.539 4.654 2.86 9.346 5.441 14.099 8.102l28.355 16.085 27.981 16.743-.08.06-28.454-15.885-28.079-16.544c-9.247-5.641-19.009-10.643-27.526-17.461-8.456-6.739-17.586-12.719-27.031-17.961zm102.235-67.111c-3.686 3.535-8.414 5.856-12.742 8.376l-13.445 7.282-13.425 7.142c-4.528 2.421-8.856 4.94-13.204 7.6l-26.227 15.439c-8.736 5.1-17.612 10.18-25.285 16.852l-.06-.08c7.252-7.229 16.087-12.528 24.823-17.628 4.347-2.659 8.736-5.1 13.143-7.68s8.857-4.94 13.325-7.441l13.324-7.44 13.204-7.601c4.468-2.5 8.916-4.861 13.365-7.221 4.588-2.341 9.217-4.463 13.204-7.6zm-76.906-52.795a611.79 611.79 0 0 1-6.973 27.397c-.665 2.253-1.331 4.506-1.658 6.879-.387 2.292-.574 4.684-.821 6.996-.574 4.685-1.985 9.252-3.177 13.778l-7.73 27.219-8.408 26.982-.139-.02c2.324-9.132 4.848-18.166 7.511-27.179l8.209-27.081c1.332-4.506 2.942-8.974 3.376-13.678.248-2.312.356-4.644.622-7.096.248-2.312.853-4.645 1.38-6.918 2.482-9.252 5.006-18.285 7.809-27.279zm-74.651 11.891c2.591 8.545 6.137 16.868 10.001 24.951l5.795 12.125 6.093 12.025c4.082 8.043 7.33 16.466 10.359 24.93s6.137 16.867 10.458 24.73l-.079.06c-4.856-7.583-8.244-16.026-11.352-24.429l-4.662-12.606c-1.554-4.202-3.407-8.304-5.259-12.405s-3.863-8.083-5.874-12.065-4.241-7.923-6.252-11.905c-3.923-8.163-7.311-16.606-9.226-25.411zm-77.222 63.592l37.205 13.775a127.63 127.63 0 0 0 7.54 2.555c5.026 1.704 10.091 3.129 15.137 4.693l15.216 4.632 15.118 4.832 30.098 10.142-.019.139c-10.19-2.928-20.281-6.056-30.432-9.264l-30.137-9.863-30.216-9.803c-10.033-3.547-19.949-7.433-29.509-11.838z"/><path d="M-32.784 348.48c6.615-7.248 12.989-14.814 18.704-22.757 2.888-3.932 5.715-7.944 8.223-12.214l7.783-12.631c2.707-4.171 5.595-8.103 8.562-12.094l9.002-11.677c6.054-7.825 12.229-15.491 18.463-23.076l.06.079c-5.794 8.004-11.709 15.848-17.764 23.673L2.306 301.216c-5.655 8.023-10.151 16.921-15.806 24.944-5.595 8.103-12.089 15.51-19.284 22.32zm71.192-95.168c12.301 3.084 24.564 6.447 36.808 9.949l18.307 5.423c6.082 1.781 12.263 3.363 18.364 5.005l36.964 9.331 18.54 4.247 18.676 3.768-.019.139c-6.277-.884-12.534-1.907-18.833-3.15a429.79 429.79 0 0 1-18.657-3.908c-12.4-2.884-24.663-6.247-36.906-9.749l-18.345-5.144-18.443-4.945-36.454-10.966zM-45.56 397.891c5.651-.769 10.836-3.311 15.941-5.792s10.27-4.884 15.616-7.047c5.266-2.104 10.653-4.048 15.979-6.072l16.08-5.772c5.387-1.944 10.754-3.749 16.181-5.474 5.367-1.804 10.874-3.589 16.403-5.016 2.804-.743 5.528-1.426 8.373-1.95s5.671-.908 8.496-1.293c5.712-.689 11.344-1.318 16.73-3.263l.06.08c-5.285 2.243-11.016 3.072-16.607 3.92-5.651.769-11.221 1.976-16.689 3.482s-10.896 3.231-16.323 4.956l-16.343 5.095c-5.427 1.725-10.795 3.53-16.121 5.554s-10.533 4.206-15.818 6.449-10.432 4.506-15.597 6.908c-5.264 2.601-10.629 4.904-16.362 5.235zm131.224-43.754c6.053-.072 12.022-1.081 17.93-2.169l8.893-1.593c2.984-.504 6.029-.929 8.934-1.373l18.009-2.23 53.906-7.344 35.981-4.179.06.079c-11.918 1.878-23.877 3.537-35.896 5.116l-35.94 4.398c-12.06 1.36-23.94 2.959-35.938 4.897l-17.886 2.886c-5.969 1.009-12.058 1.858-18.053 1.512z"/><path d="M89.301 348.888c2.87 4.458 1.644 10.26-1.826 13.257-3.568 3.196-9.407 2.231-13.251-1.866-2.627-3.642-3.496-10.237 1.826-13.257 4.942-3.358 10.959-2.653 13.251 1.866zM42.884 248.68c2.167 3.363 1.293 7.65-1.364 9.907-2.676 2.397-6.981 1.649-9.903-1.395-1.965-2.766-2.646-7.627 1.365-9.907 3.751-2.459 8.155-1.91 9.903 1.395zm73.75-13.085c2.168 3.363 1.293 7.65-1.364 9.907-2.676 2.397-6.981 1.649-9.904-1.394-1.965-2.766-2.646-7.628 1.365-9.908 3.751-2.459 8.234-1.97 9.903 1.395zm75.708 52.199c2.167 3.363 1.292 7.65-1.365 9.907-2.676 2.397-6.981 1.649-9.903-1.394-1.965-2.767-2.647-7.628 1.364-9.908 3.752-2.459 8.155-1.91 9.904 1.395zm43.605 47.322c2.168 3.363 1.293 7.65-1.364 9.907-2.676 2.397-6.981 1.649-9.904-1.394-1.965-2.766-2.646-7.628 1.365-9.908 3.691-2.539 8.094-1.989 9.903 1.395zm24.474 32.394c2.167 3.364 1.292 7.651-1.365 9.908-2.676 2.397-6.981 1.648-9.903-1.395-1.965-2.766-2.646-7.627 1.365-9.907 3.691-2.539 8.094-1.99 9.903 1.394zm-62.091 71.414c2.167 3.364 1.293 7.65-1.364 9.908-2.677 2.397-6.981 1.648-9.904-1.395-1.965-2.766-2.646-7.627 1.365-9.907 3.691-2.539 8.174-2.05 9.903 1.394zm83.514 8.419c2.168 3.364 1.293 7.65-1.364 9.908-2.676 2.397-6.981 1.648-9.904-1.395-1.965-2.766-2.646-7.627 1.365-9.908 3.691-2.538 8.094-1.989 9.903 1.395zm-179.278 38.551c2.168 3.364 1.293 7.65-1.364 9.908-2.676 2.397-6.981 1.648-9.903-1.395-1.965-2.766-2.646-7.627 1.364-9.907 3.751-2.459 8.094-1.99 9.903 1.394zm17.147 84.564c2.168 3.364 1.293 7.651-1.364 9.908-2.676 2.397-6.981 1.648-9.903-1.395-1.966-2.766-2.647-7.627 1.364-9.907 3.691-2.539 8.094-1.99 9.903 1.394zm39.92-112.801c1.405 2.19.862 5.101-.903 6.559-1.784 1.598-4.634 1.126-6.556-.923-1.304-1.891-1.718-5.079.903-6.559 2.362-1.659 5.37-1.306 6.556.923z"/></g><defs><clipPath id="A"><path fill="#fff" d="M0 0h1918v589H0z"/></clipPath></defs></svg>