<svg xmlns="http://www.w3.org/2000/svg" width="25" height="76" fill="none"  xmlns:v="https://vecta.io/nano"><path d="M12.108 25c.439 2.158.703 4.217.791 6.375v6.375l-.791 6.375c-.088 2.158 0 4.217.176 6.375.264 2.158.439 4.217.439 6.375l.088 6.375c-.176 4.217-.527 8.533-1.405 12.75h-.264c-.791-4.217-1.054-8.533-1.142-12.75 0-2.158.088-4.217.264-6.375.088-2.158.351-4.217.615-6.375s.439-4.217.351-6.375-.439-4.217-.615-6.375 0-4.217.176-6.375.439-4.217.966-6.375h.351z" fill="#877672" opacity=".5"/><g fill="#f6b289"><path d="M15.218 3.508c4.92 2.148 8.268 6.944 6.218 12.098s-8.063 8.519-12.983 6.371S1.962 13.53 4.286 9.091c2.528-4.868 6.013-7.731 10.933-5.584z"/><path d="M15.218 3.508c1.162.501 2.187 1.145 3.211 1.933.957.787 1.845 1.718 2.528 2.792s1.162 2.362 1.23 3.651c.137 1.288-.137 2.649-.615 3.866-1.025 2.434-2.87 4.295-4.988 5.584-2.118 1.217-4.715 1.861-7.106 1.217s-4.51-2.434-5.603-4.796-1.23-5.226-.273-7.66c.205-.644.547-1.217.82-1.718L5.447 6.73c.752-1.002 1.64-2.004 2.665-2.72a6.85 6.85 0 0 1 3.485-1.217c1.298-.143 2.528.215 3.622.716zm0 .072c-1.093-.501-2.323-.787-3.553-.644-1.23.072-2.323.573-3.348 1.36-.957.716-1.777 1.718-2.46 2.72S4.49 9.164 4.08 10.309c-.888 2.291-.752 5.011.205 7.23.478 1.145 1.23 2.148 2.118 3.007.888.787 1.982 1.432 3.143 1.79 2.323.716 4.92.215 6.97-1.074 2.118-1.289 3.758-3.293 4.715-5.584.478-1.145.683-2.434.547-3.651-.068-1.217-.478-2.434-1.093-3.508-1.23-2.362-3.28-4.009-5.466-4.939zm6.492 1.002c1.777 2.649 3.143 5.798 3.28 9.163.068 1.646-.205 3.436-.957 4.94-.752 1.575-1.913 2.863-3.212 3.794-2.733 1.861-5.945 2.649-9.088 2.505s-6.355-1.288-8.61-3.722c-1.093-1.217-2.05-2.649-2.528-4.295-.547-1.575-.683-3.365-.547-5.011.342-3.365 2.05-6.658 4.715-8.662.342-.286.683-.501 1.025-.716s.683-.43 1.025-.573C7.496 1.647 8.248 1.289 9 1.003 10.504.43 12.075 0 13.715 0s3.211.43 4.578 1.289c1.435.787 2.528 2.004 3.416 3.293zm-.068.072c-.888-1.289-2.05-2.506-3.416-3.221a8.01 8.01 0 0 0-4.442-.859c-1.503.143-3.006.644-4.373 1.217-1.367.644-2.802 1.36-4.031 2.291-2.392 1.861-4.031 4.796-4.373 7.946-.205 1.575-.068 3.15.342 4.653.478 1.503 1.162 2.935 2.187 4.152 2.05 2.434 5.125 3.722 8.2 3.794s6.218-.931 8.61-2.863c1.23-.931 2.255-2.148 2.938-3.508s1.025-2.935 1.093-4.51c.137-3.15-.957-6.443-2.733-9.091z"/></g></svg>