<svg width="800" height="800" viewBox="0 0 800 800" fill="none" xmlns="http://www.w3.org/2000/svg">
<g clip-path="url(#clip0_3_8)">
<path d="M623.504 484.004L398.041 709.467C323.177 784.331 202.176 784.331 127.312 709.467L121.219 703.373C85.5277 667.682 65.506 618.934 65.506 567.573C65.506 516.213 85.5277 468.335 121.219 431.774L478.128 74.864C504.244 48.7486 539.064 33.9499 576.496 33.9499C613.928 33.9499 648.749 48.7486 674.864 74.864L693.145 93.1447C747.116 147.116 747.116 235.909 693.145 289.88L545.158 437.867L423.286 561.48C382.372 602.394 316.213 602.394 275.299 561.48L269.206 555.386C228.292 514.472 228.292 448.313 269.206 407.399L503.373 174.102C510.337 167.138 510.337 156.692 503.373 149.728C496.409 142.764 485.963 142.764 478.999 149.728L244.831 383.025C190.86 436.997 190.86 525.789 244.831 579.761L250.925 585.854C277.911 612.84 313.602 626.768 349.293 626.768C384.984 626.768 420.675 612.84 447.66 585.854L570.403 463.112L718.39 315.125C786.289 247.225 786.289 136.67 718.39 68.7704L700.109 50.4897C667.029 17.4102 623.504 0 577.367 0C531.23 0 486.833 18.2807 454.625 50.4897L97.7149 407.399C54.1893 450.054 30.6855 507.508 30.6855 567.573C30.6855 627.639 54.1893 685.092 96.8444 727.748L102.938 733.841C147.334 778.237 204.788 800 263.112 800C321.436 800 378.89 778.237 423.286 733.841L648.749 508.379C655.713 501.415 655.713 490.968 648.749 484.004C641.785 477.04 630.468 477.04 623.504 484.004Z" fill="white"/>
<path d="M712.296 395.212L693.145 414.363C686.181 421.328 686.181 431.774 693.145 438.738C696.627 442.22 700.979 443.961 705.332 443.961C709.684 443.961 714.037 442.22 717.519 438.738L736.67 419.586C743.634 412.622 743.634 402.176 736.67 395.212C729.706 389.119 719.26 389.119 712.296 395.212Z" fill="white"/>
</g>
<defs>
<clipPath id="clip0_3_8">
<rect width="800" height="800" fill="white"/>
</clipPath>
</defs>
</svg>
