<svg xmlns="http://www.w3.org/2000/svg" width="313" height="530" fill="none"  xmlns:v="https://vecta.io/nano"><g fill="#fff"><path d="M141.292 402.605l.775 4.676 4.293 9.777 8.235 7.722 11.684 5.526 15.485 1.842 3.589-.355.212-.992-2.182-3.896-3.52-3.684-3.73-3.471-3.378-2.763-7.18-3.472-18.089-6.163-6.194-4.747zm109.238 5.527l-3.519 3.117-7.813 4.817-13.936 4.534-7.109 2.267-4.645 1.842-3.027 1.63-2.956 2.125-1.337 1.771-.423 1.629 5.842 3.968 10.488 2.692 13.795-3.259 6.335-6.234 4.997-9.635 2.464-6.447.844-4.817zm-93.401-105.417l2.956 14.948 4.505 6.73 4.293 3.826 9.995 3.188 5.772 1.488.352-3.968-4.575-7.934-8.165-8.289-5.209-3.613-5.067-2.692-4.857-3.684zm96.85-98.331l-5.35 4.18-7.179 6.093-5.349 3.117-11.754 5.384-5.702 6.093-2.604 6.659.211 3.755 4.646 1.346 10.558-1.771 1.759 1.983 10.98 2.905 8.446-1.7 12.458-3.968-3.871-.85-7.531-.921-9.291-5.384 3.66-5.526 4.435-10.485 1.478-10.91zm-72.215 305.693l.774 17.499 10.487-.921 6.405 1.912 2.745 1.134-.14-1.913-3.942-7.864-2.041-10.626 1.196-19.695 1.267-12.468 4.223-22.246 1.338-6.305 1.619-7.438-.493-6.093-1.83-1.629.352-7.935.07-1.7.211-8.36.141-6.517.352-9.21 1.197-7.51 2.463-22.811 1.83-17.145 1.619-8.289.141-.85 2.534-7.934-5.702-1.417-1.266-3.613.633-6.022v-.142l.493-16.294v-10.343l.915-12.752.211-5.101 3.026-14.239 3.801-16.082.141-.496-1.337-6.659-1.056-6.66.281-20.97 1.478-12.043 2.534-16.082-.985-5.313-2.604-16.861-.141-8.785v-2.763l3.238-10.201-3.872-.638h-4.997l-5.631-.85h-3.73v1.913l4.927 7.084.281 4.605-.07 2.267-.211 5.739-.774 8.076-.775 16.365v8.289l-.14 3.046-2.605 24.158-.563 7.864-.704 9.493-5.138.566 2.112 6.66.141 3.046.633 14.665-2.886 15.019-3.378 17.711-1.126 11.122-.563 8.289.211 6.872.07 3.188-1.548 4.392-4.364 2.622 6.264 10.414.071.354 1.618 13.46-.774 31.243-1.056 23.378-.633 8.997-.704 10.414-4.434.284.985 4.109 1.619 16.436c.07.566-1.197 23.591-1.197 23.591l-.844 8.076-2.393 25.433z"/><path opacity=".3" d="M199.712 140.837v1.913l4.927 7.084.282 4.605-.071 2.267 7.32-.779 2.675-.425v-2.763l3.097-10.414-3.871-.638h-4.997l-5.631-.85h-3.731zm-5.701 99.394l2.112 6.659.14 3.047c2.816.566 5.702.779 8.587.708 3.872-.071 7.813-.567 11.614-1.346l.141-.496-1.338-6.659-1.055-6.659.07-5.243a245.36 245.36 0 0 0-14.429-.213l-.704 9.494-5.138.708zm-10.769 93.656l6.264 10.414.071.354 8.024-.141 14.006-.425.141-.85 2.534-7.935-5.701-1.417-1.267-3.613.633-6.022v-.141c-4.082-.355-8.235-.425-12.388-.425h-6.475l.07 3.188-1.548 4.392-4.364 2.621zm.352 98.473l.986 4.109 1.126 11.477c6.053.779 12.247.85 18.37.709l1.619-7.439-.493-6.093-1.83-1.629.352-7.935.071-1.7c-4.223-1.984-9.08-2.267-13.796-2.196h-1.267l-.704 10.414-4.434.283z"/></g><g fill="#3c2829"><path d="M197.671 482.873c-.845 1.913-1.267 3.968-1.619 5.951l-.352 2.976-.07 2.975c.14 1.984.563 4.038.492 6.022 0 1.983-.352 3.967-.844 5.951-.211.992-.493 2.125-.493 3.188-.07 1.062.07 2.196.211 3.259.352 2.125.845 4.038 1.337 5.88l.352 1.417.212.708.14.425c0 .142.071.213.071.283s.07.213.07.284c.282.637.563 1.062.845 1.488l.844 1.275 1.76 2.408c.281.425.633.78.915 1.205.141.212.281.425.422.567.141.212.211.425.211.495l.282.284c.211-.142.211-.354.211-.496v-.425c0-.284-.07-.567-.07-.85-.071-.496-.211-1.063-.352-1.559l-.986-2.904-.492-1.417-.423-1.276c0-.07-.07-.779-.14-1.275l-.282-1.558c-.422-2.055-1.196-3.897-1.76-5.739-.492-1.842-.915-3.542-1.055-5.526-.141-2.054-.211-4.038.07-6.021.211-1.984.915-3.968 1.267-5.951l.282-2.976v-2.975c-.071-1.984-.282-4.038-.775-6.093h-.281z"/><path d="M185.001 477.63a105.58 105.58 0 0 0 2.112-11.264c.493-3.825.774-7.651.774-11.477.07-3.825-.352-7.722-1.056-11.476-.704-3.826-1.689-7.51-2.674-11.194l-.493.709c2.956-.071 5.912-.071 8.798.07l4.434.213c1.408.071 2.816.283 4.012.708.563.213 1.126.496 1.549.851.211.212.422.354.563.566l.281.284.212.354c.563.921.703 2.125.703 3.4-.07 1.276-.352 2.622-.703 3.968l-.634 2.054-.633 2.126c-1.69 5.738-2.886 11.618-3.66 17.569-.212 1.488-.352 2.975-.493 4.463s-.211 2.976-.282 4.463l-.07 2.267v2.267c0 1.488 0 2.976.07 4.464h.352c.704-2.905 1.126-5.81 1.76-8.714.281-1.417.563-2.905.915-4.322l.915-4.321c1.267-5.739 2.745-11.406 4.223-17.074.704-2.763 1.76-5.809 1.689-9.139 0-.85-.141-1.7-.352-2.55s-.633-1.7-1.126-2.48c-1.056-1.558-2.815-2.55-4.434-2.904s-3.238-.354-4.716-.213c-1.478.071-2.956.213-4.434.354-2.956.213-5.842.284-8.798.284h-.704l.141.637c.915 3.684 1.337 7.439 1.407 11.194.141 3.755.071 7.509.141 11.264s0 7.51-.07 11.264-.141 7.581 0 11.406l.281-.071z"/><path d="M182.89 527.434l.563-6.235v-3.117l-.14-3.117c-.282-2.054-.775-4.109-.845-6.234l.141-3.117.563-3.117 1.196-6.164.845-6.163.211-6.235-.493-6.376-.352-.07c-.844 1.983-1.407 4.038-1.9 6.092l-1.196 6.164c-.282 2.054-.352 4.179-.423 6.305v3.188c0 1.062.141 2.125.211 3.188.212 2.125.282 4.18.071 6.305-.211 2.054-.774 4.18-.986 6.305-.07 1.063-.14 2.125 0 3.188l.352 3.188c.211 1.063.352 2.125.704 3.117l.493 1.559c.07.283.211.496.281.779l.423.779.281-.212zm21.819-130.141c-.844 1.416-1.267 2.975-1.619 4.463l-.351 2.267c-.071.779-.071 1.558 0 2.267.14 1.558.633 3.046.703 4.605s-.211 3.046-.633 4.534-.774 3.046-.915 4.534l-.422 4.534.07 2.338c.07.85.211 1.629.422 2.408l.634 2.267c.211.709.563 1.488.704 2.196l.352.071c.422-.779.563-1.558.703-2.338l.352-2.337.211-2.197.282-2.196c.141-1.488.07-3.046 0-4.605 0-1.558-.211-3.046-.493-4.605s-.352-3.046-.211-4.604c.141-1.488.774-3.047 1.126-4.534a12.34 12.34 0 0 0 .211-2.267l-.07-2.267c-.141-1.488-.281-3.047-.774-4.605l-.282.071z"/><path d="M200.275 334.383c1.196.283 2.393.425 3.519.496l3.519.283c2.253.213 4.435.496 6.335 1.275l-.985-1.771-1.76 7.51-1.126 7.934-1.337 7.864-1.267 7.864-1.478 15.585-.775 7.793s-.492 5.313-.281 8.006l.352.07 2.322-7.58c.423-1.275.704-2.55 1.056-3.826l.774-3.967c.986-5.313.915-10.626 1.056-15.869.071-2.621-.07-5.242-.07-7.864s.141-5.242.633-7.792 1.408-5.03 2.393-7.439c1.056-2.409 2.112-4.888 2.534-7.651l.211-1.346-1.196-.425c-1.267-.425-2.534-.709-3.801-.78s-2.463-.071-3.73.071c-1.197.142-2.393.354-3.52.567l-3.448.708.07.284z"/><path d="M188.169 432.289c.915-4.108 1.478-8.288 1.971-12.468.281-2.125.422-4.18.633-6.305.141-2.126.352-4.18.422-6.305.212-4.18.071-8.431-.07-12.611s-.141-8.43.07-12.61.634-8.36.915-12.61c.352-4.18.493-8.431.634-12.61.07-2.126.141-4.251 0-6.518a18.6 18.6 0 0 0-1.689-6.659 20.29 20.29 0 0 0-1.69-2.976c-.633-.921-1.337-1.771-1.97-2.621-1.338-1.63-2.393-3.117-2.886-4.747l-1.126 1.842c2.534-.779 5.279-.85 8.164-.779 2.816.071 5.772.354 8.728 0v-.354c-2.886-.425-5.631-1.134-8.517-1.701-1.478-.283-2.956-.425-4.434-.566-1.548-.071-3.097 0-4.645.354l-1.408.283.282 1.559c.211 1.204.704 2.409 1.267 3.4s1.196 1.984 1.759 2.834c1.267 1.771 2.323 3.259 3.027 5.03.774 1.771 1.196 3.542 1.478 5.455.211 1.913.211 3.967.281 6.093l.352 12.61c.211 4.18.423 8.43.352 12.61 0 4.18-.281 8.36-.774 12.54s-.985 8.359-1.267 12.539c-.211 4.18-.352 8.36-.422 12.61-.071 4.18-.071 8.431.211 12.611l.352.07zm21.045-148.417c-.915 2.054-1.408 4.18-1.689 6.305l-.352 3.188c-.07 1.063-.07 2.125 0 3.188l.774 6.376c.071 2.125-.211 4.251-.633 6.305l-.634 3.117c-.141.496-.211.992-.281 1.559l-.211 1.7c-.212 2.196-.141 4.392-.071 6.447.141 2.054.211 4.038.071 6.022 0 .212-.071.496-.071.708v.425c0 .213-.07.425 0 .638 0 .779.282 1.417.634 1.913.633 1.062 1.407 1.841 2.322 2.479l.282-.212c-.422-.992-.774-1.984-.915-2.905-.071-.425-.071-.85 0-1.134 0-.07.07-.141.07-.141s.071-.071.071-.142l.07-.213c.141-.283.211-.566.282-.779.774-2.196.915-4.534.915-6.659 0-2.196-.282-4.251-.352-6.234v-3.118c0-1.062-.141-2.125-.212-3.258-.211-2.126-.351-4.251-.14-6.376.14-2.126.774-4.251 1.055-6.306a24.2 24.2 0 0 0 .212-3.188l-.071-3.188c-.07-2.125-.211-4.25-.704-6.375l-.422-.142z"/><path d="M189.858 306.4l3.871-16.294.915-4.109.845-4.109.774-4.18.563-4.18c.563-5.597.563-11.335.423-16.932s-.634-11.264-1.69-16.861l-.985 1.346 8.024.355 4.012.07c1.337 0 2.604 0 3.73.213 1.126.142 2.182.567 2.886 1.063.704.566 1.267 1.346 1.478 2.267.282.921.282 2.125.141 3.258-.141 1.205-.422 2.409-.704 3.614l-.493 1.912-.492 1.984c-.352 1.275-.634 2.621-.915 3.967l-.845 3.968c-.211 1.346-.493 2.692-.704 3.967-.844 5.313-1.337 10.697-1.337 16.152l.352.071 3.66-15.586 1.056-3.825 1.055-3.826 1.126-3.825 1.197-3.826c.422-1.346.704-2.763.915-4.18.141-1.487.211-3.046-.282-4.675-.422-1.63-1.548-3.188-2.956-4.18-1.478-.992-3.097-1.417-4.575-1.559s-2.885-.071-4.223-.071l-4.012.142-7.953.496-1.408.071.422 1.204c1.69 5.243 2.605 10.768 2.605 16.365 0 1.417-.141 2.763-.212 4.18-.14 1.417-.351 2.763-.492 4.109l-.704 4.109-.774 4.109c-.563 2.692-1.056 5.455-1.549 8.218l-1.407 8.289c-.845 5.525-1.549 11.122-1.549 16.79l.211-.071z"/><path d="M187.184 333.037h.07l.071-.071c.07-.071.14-.071.211-.141.14-.071.211-.213.352-.284.211-.212.492-.425.703-.567l1.197-1.275c.352-.425.704-.921.985-1.488l.212-.425c.07-.141.07-.141.14-.354.071-.141.071-.283.071-.425v-.425l-.211-.85c-.352-1.063-.986-2.125-1.197-3.259s-.07-2.267.211-3.4c.352-1.134.563-2.267.704-3.401s.352-2.196.352-3.33c-.07-2.267-.282-4.534-1.126-6.871l-.352-.071-.915 1.629a8.35 8.35 0 0 0-.634 1.7c-.352 1.134-.633 2.267-.703 3.401-.141 1.133 0 2.338.07 3.471l.211 1.771.493 1.701c.352 1.133.563 2.267.563 3.4s-.493 2.338-.563 3.542v.992c0 .071 0-.071 0-.071v-.141c0-.142 0-.213.07-.355 0-.07 0 0 0 .071-.07.142-.07.213-.141.354-.211.496-.422.992-.563 1.559a7.51 7.51 0 0 0-.422 1.7c-.07.284-.07.638-.07.921v.921c0 .071 0 .142.07.213l.141-.142zm30.687-149.197l-1.126 7.084-1.337 6.943-.282 7.368c-.141 2.408-.492 4.817-.915 7.226l-.633 3.613-.423 3.613-.563 7.226.141 7.297c.211 2.621.986 4.888 1.478 7.226l.352.071c.282-.638.352-1.275.422-1.842l.212-1.842.352-3.542.844-7.155.141-7.226-.07-3.614-.282-3.613c-.211-2.408-.282-4.817.141-7.226.352-2.408 1.337-4.605 2.041-6.942.352-1.134.633-2.338.774-3.543.211-1.204.352-2.479.352-3.754 0-2.551-.352-5.03-1.196-7.368h-.423zm-14.64 12.255c.986-4.676 1.549-9.351 1.971-14.027l.211-3.542c.071-1.205.071-2.338.141-3.542l.071-1.772c0-.566 0-1.062.07-1.7.07-1.133.141-2.338.141-3.542.07-1.204.07-2.338 0-3.542 0-1.205-.071-2.409-.211-3.613-.071-.354-.071-.638-.141-.992l-.071-.425c0-.142-.07-.213-.07-.354-.07-.496-.07-1.063-.07-1.63 0-1.133.07-2.338.14-3.542 0-1.204.071-2.409-.211-3.684-.07-.142-.07-.354-.141-.496s-.14-.354-.211-.496l-.492-.779c-.352-.496-.704-.992-1.056-1.417a25.72 25.72 0 0 1-1.901-2.904c-.563-.992-.985-2.055-1.126-3.047l-.633.992c1.478-.283 2.956-.354 4.364-.142.704.142 1.407.355 2.111.567.774.213 1.619.425 2.393.567s1.619.212 2.464.283 1.619.071 2.534 0c.422 0 .985-.071 1.126-.141h.141c.07 0 .211.07.351.141.634.213 1.338.567 2.042.85l-1.056-1.912c-.352 1.558-.845 3.188-1.408 4.817l-.844 2.48c-.282.85-.493 1.771-.704 2.692-.704 3.683-.634 7.438-.141 10.98.281 1.772.563 3.543.985 5.243.352 1.7.775 3.4 1.267 5.101a265.74 265.74 0 0 1 2.534 10.13h.352c.141-3.542-.282-7.084-.633-10.555l-.634-5.172c-.07-.85-.211-1.7-.281-2.55l-.212-2.551c-.211-3.4-.07-6.73.493-9.918.211-.779.352-1.559.563-2.338l.704-2.479c.493-1.701.985-3.472 1.267-5.314l.211-1.487-1.337-.425c-.563-.213-1.267-.426-2.182-.709-.211-.071-.493-.142-.774-.212a2.31 2.31 0 0 0-.986 0c-.563.07-.774.141-1.196.141-.704.071-1.408.142-2.182.142-.704 0-1.478 0-2.182-.071s-1.478-.142-2.182-.283c-.774-.071-1.549-.213-2.464-.284-1.759-.071-3.448.284-4.997.78l-.845.283.212.708c.352 1.276.985 2.409 1.618 3.401s1.408 1.913 2.112 2.834c.352.496.704.921 1.056 1.417.141.212.352.496.493.708l.14.283a.64.64 0 0 1 .071.355c.211.991.14 2.196 0 3.329s-.352 2.267-.563 3.472l-.212 1.842v1.771c-.07 2.196-.492 4.605-.703 6.872-.141 1.133-.212 2.337-.282 3.542 0 .567-.07 1.204-.07 1.842v1.771l.07 7.013c.07 4.676.07 9.352.422 14.098l.563.142zm-4.223 43.852c.845-1.771 1.267-3.542 1.619-5.384a19.3 19.3 0 0 0 .422-2.692c.141-.921.211-1.842.141-2.763l-.352-5.597c.07-1.842.422-3.613.985-5.455a37.2 37.2 0 0 0 1.267-5.384l.775-5.455c.14-1.842.14-3.684.07-5.526-.141-1.842-.282-3.754-.774-5.596h-.352c-.774 1.771-1.197 3.542-1.689 5.384-.423 1.771-.775 3.613-.986 5.384-.211 1.842-.281 3.684-.352 5.526s-.07 3.684.141 5.526c.141 1.842.141 3.684-.211 5.526-.282 1.842-1.056 3.613-1.408 5.384-.211.921-.281 1.842-.352 2.763s-.07 1.842-.07 2.763c.07 1.842.211 3.684.704 5.596h.422zm-20.059 182.141l-4.364-4.038a23.87 23.87 0 0 0-4.927-3.471c-1.76-.992-3.59-1.842-5.349-2.621l-5.49-2.267c-3.66-1.417-7.461-2.622-11.262-3.684-.915-.284-1.76-.567-2.534-.921-.774-.425-1.478-.992-2.111-1.63-.634-.708-1.127-1.488-1.619-2.338s-.915-1.7-1.267-2.621l-.986.354 2.816 9.068c.985 3.047 1.971 6.093 3.378 9.068.704 1.488 1.619 2.905 2.605 4.251 1.055 1.346 2.181 2.55 3.448 3.613 2.534 2.196 5.42 3.967 8.447 5.243s6.264 2.125 9.502 2.55c1.618.213 3.237.354 4.856.425 1.549.071 3.167 0 4.716 0h1.196c.423 0 .845-.071 1.056 0 .704.071 1.549.213 2.393.213.423 0 .915 0 1.408-.071l.422-.142.423-.212c.14-.142.281-.213.422-.355s.281-.354.281-.566c.212-.78 0-1.276-.14-1.701-.211-.425-.423-.779-.704-1.133-.493-.709-1.056-1.275-1.619-1.842l-1.619-1.7c-1.126-1.346-2.252-2.409-3.378-3.472zm-.282.284c1.126 1.062 2.252 2.196 3.238 3.4s1.971 2.48 2.674 3.826c.141.354.282.637.352.992 0 .141.071.283.071.425v.141c0 .071 0 .071-.071.071v-.071h-.211c-.281 0-.563-.071-.915-.141-.704-.142-1.407-.425-2.252-.638-.563-.142-.915-.142-1.267-.213l-1.197-.141c-1.548-.213-3.097-.354-4.715-.496a45.86 45.86 0 0 1-4.505-.638c-2.956-.496-5.912-1.275-8.657-2.338s-5.42-2.479-7.743-4.321-4.293-4.038-5.982-6.589-3.027-5.384-4.223-8.288-2.253-5.88-3.097-8.927l-.986.354c.774 1.842 1.478 3.755 2.675 5.455.633.851 1.337 1.701 2.252 2.338s1.83 1.134 2.816 1.559c3.66 1.629 7.249 3.117 10.98 4.392 1.83.638 3.73 1.205 5.63 1.771s3.801.992 5.631 1.63c1.83.567 3.59 1.417 5.209 2.55 1.407 1.205 2.885 2.48 4.293 3.897z"/><path d="M184.931 431.864c-.211-.567-.493-1.133-.844-1.629s-.704-.85-1.127-1.275c-.844-.709-1.759-1.417-2.815-1.701s-2.252-.212-3.308-.566c-.986-.284-1.901-.921-2.745-1.63s-1.689-1.417-2.604-1.913l-1.338-.85c-.422-.283-.844-.496-1.337-.708-1.83-.85-3.66-1.488-5.983-2.055l-.211.284c.845 2.267 2.534 3.967 4.434 5.101.493.283.986.495 1.478.708s1.056.354 1.549.496 1.056.354 1.548.425c.563.142 1.056.142 1.619.212 1.126.071 2.112.355 3.027.851.422.283.844.637 1.267.991s.774.78 1.196 1.134.845.567 1.267.779.915.425 1.408.567c.493.212.985.354 1.478.496s1.056.283 1.689.354l.352-.071zm26.042-5.595c1.549-.992 3.308-1.772 5.138-2.338 1.76-.567 3.59-.992 5.49-1.346 3.731-.709 7.461-1.205 11.121-2.267 3.731-.992 7.391-2.551 10.628-4.818 3.238-2.196 6.124-5.03 8.165-8.359l-.985-.355c-.423 2.976-1.338 5.81-2.534 8.573s-2.675 5.384-4.223 7.934-3.027 5.101-4.998 6.872-4.575 3.046-7.32 3.967c-2.674.992-5.419 1.63-8.235 1.771-2.745.142-5.56-.212-8.305-.921-1.408-.354-2.745-.85-4.153-1.346-1.478-.708-3.026-.921-4.082-1.629-.563-.354-.704-.709-.493-1.346s.704-1.204 1.197-1.771c1.056-.921 2.322-1.771 3.589-2.621zm-.211-.284c-1.267.779-2.534 1.63-3.73 2.621-.563.496-1.126 1.063-1.619 1.842a2.35 2.35 0 0 0-.282 1.417c.071.496.423.921.704 1.275.634.638 1.338 1.063 2.041 1.417.352.213.704.355.986.567.141.071.281.142.422.283l.493.355a25.99 25.99 0 0 0 4.153 2.267c2.885 1.346 6.193 1.912 9.431 1.912a26.03 26.03 0 0 0 9.361-1.983c2.886-1.205 5.842-2.692 8.235-5.101s3.801-5.384 4.998-8.147c1.267-2.834 2.322-5.668 3.308-8.572.915-2.905 1.759-5.88 2.252-8.927l.422-2.479-1.407 2.054c-1.056 1.559-2.323 2.905-3.731 4.039s-3.026 2.054-4.645 2.833c-3.308 1.559-6.757 2.692-10.276 3.826-3.52 1.063-7.18 2.267-10.699 3.755-1.759.708-3.519 1.487-5.279 2.267-1.83.637-3.519 1.417-5.138 2.479z"/><path d="M205.695 432.148c1.267.283 2.393.283 3.519.212l1.619-.283c.563-.142 1.056-.283 1.548-.567.986-.496 1.901-1.346 2.886-1.771 1.056-.425 2.112-.496 3.308-.496 1.126.071 2.252.071 3.379-.142l3.237-.566c1.056-.284 2.041-.709 3.097-1.205.493-.283.986-.496 1.478-.85.493-.283.986-.637 1.478-1.062l-.07-.355c-1.197-.354-2.323-.496-3.519-.496-1.126 0-2.253.071-3.308.284s-2.112.567-3.168.992c-.492.212-1.055.354-1.548.637-.493.213-.986.567-1.478.85-.986.638-1.971 1.063-3.097 1.276-1.056.212-2.323-.071-3.449 0-.563.07-1.126.141-1.619.354l-1.548.637c-.986.496-1.971 1.134-2.816 2.126l.071.425zm-40.19-124.119l-2.182-1.204-2.111-1.346c-1.338-.921-2.534-2.126-3.379-3.33l-1.548-2.338-.141 3.046c-.07 1.701-.07 3.33.07 5.03a25.28 25.28 0 0 0 .915 5.03c.423 1.63 1.127 3.259 1.901 4.818s1.759 2.975 2.815 4.321c2.112 2.692 4.505 5.03 7.391 6.872 1.407.921 3.026 1.629 4.645 2.125.774.284 1.619.496 2.393.78.352.141.845.283 1.056.354l1.056.425c.703.354 1.478.708 2.252.992s1.619.637 2.604.779c.493.071 1.056.142 1.83 0 .422-.142.845-.283 1.267-.708a2.42 2.42 0 0 0 .774-1.347c.211-.85.071-1.487 0-1.983s-.211-.921-.352-1.417c-.563-1.771-1.407-3.33-2.322-4.817s-1.901-2.763-2.886-4.109c-1.056-1.346-2.182-2.622-3.449-3.826a44.22 44.22 0 0 0-4.012-3.188c-2.815-1.771-5.701-3.33-8.587-4.959zm-.211.354c2.886 1.559 5.349 3.826 7.39 6.305 1.056 1.205 2.042 2.48 3.027 3.755s1.9 2.55 2.815 3.826l1.338 1.983 1.337 1.984c.845 1.346 1.619 2.621 2.182 3.967.141.354.211.638.352.992.07.283.07.496.141.425 0 0 .07-.212.211-.283s.211-.142.211-.142-.282.071-.563 0c-.634-.071-1.337-.213-2.112-.425l-2.322-.709c-.423-.141-.845-.212-1.267-.354-.493-.141-.845-.141-1.267-.212-.845-.142-1.619-.213-2.393-.354-1.549-.284-3.097-.638-4.505-1.347-2.815-1.416-5.208-3.825-6.687-6.659-1.548-2.834-2.252-5.951-2.956-8.997l-2.041-9.422-1.689.779c1.408 1.204 2.956 1.984 4.434 2.692l2.252 1.063c.704.354 1.408.708 2.112 1.133z"/><path d="M186.128 332.966c-.423-.992-.845-1.771-1.338-2.479-.281-.355-.492-.709-.844-1.063-.282-.354-.634-.638-1.056-.921-.774-.496-1.83-.708-2.604-1.275-.704-.567-1.267-1.346-1.689-2.196l-.634-1.276c-.211-.425-.493-.779-.774-1.133-.563-.708-1.126-1.488-1.83-2.055s-1.478-1.133-2.323-1.558-1.759-.85-2.815-1.063l-.211.284c.211 1.062.633 1.983 1.126 2.833a13.11 13.11 0 0 0 1.619 2.267c.633.709 1.337 1.205 2.111 1.772.352.283.704.566 1.126.779l1.267.637c.915.425 1.69.921 2.253 1.63s.844 1.771 1.337 2.55c.281.425.563.709.915 1.063a17.69 17.69 0 0 0 1.196.85c.845.496 1.901.921 3.027.779l.141-.425zm52.507-116.468c1.759-.779 3.449-1.7 5.067-2.692a43.79 43.79 0 0 0 4.716-3.329c1.549-1.205 2.956-2.48 4.364-3.826s2.675-2.763 3.942-4.251l-2.745-1.275c-.704 3.968-1.479 7.935-2.394 11.902s-2.111 7.935-3.8 11.619c-.845 1.842-1.83 3.613-3.097 5.171-1.197 1.559-2.745 2.905-4.434 3.897-1.69 1.062-3.52 1.842-5.35 2.479s-3.73 1.134-5.701 1.488c-1.9.354-3.871.567-5.842.637-.985.071-1.9 0-3.026.071-.986.071-1.971.071-2.675-.071-.352-.07-.634-.212-.563-.212 0 0 .07.071.07.142l.071.141v-.071c0-.212.07-.637.211-.991.141-.425.281-.85.492-1.276.352-.92.775-1.771 1.197-2.833l.141-.425.07-.213.071-.212.211-.709c.14-.496.352-.921.492-1.346.352-.921.704-1.7 1.197-2.409s1.056-1.346 1.689-1.912c1.338-1.205 3.097-2.126 4.927-3.047 3.801-1.7 7.461-3.825 10.699-6.447l-.211-.283c-3.731 1.771-7.461 3.259-11.332 4.534-1.971.709-3.942 1.488-5.842 2.834-.915.708-1.83 1.488-2.534 2.479s-1.267 1.984-1.69 2.976l-.633 1.488-.282.708-.07.213-.211.425c-.422.85-.845 1.842-1.267 2.833-.211.496-.422 1.063-.563 1.63s-.352 1.133-.422 1.983c0 .213 0 .496.07.709.07.283.141.638.282.921.281.496.633.992 1.055 1.275.845.567 1.619.779 2.253.85 1.337.213 2.393.071 3.449 0 .915-.071 2.041-.071 3.096-.212 2.112-.213 4.224-.496 6.265-1.063 4.152-.992 8.094-2.905 11.402-5.526.845-.637 1.619-1.417 2.323-2.196s1.407-1.629 1.971-2.48a33.65 33.65 0 0 0 1.618-2.692c.492-.921.986-1.842 1.408-2.763 1.76-3.754 3.519-7.509 5.068-11.405 1.478-3.897 2.674-7.935 3.237-12.115l.775-5.738-3.52 4.463c-1.126 1.488-2.393 2.834-3.589 4.251l-3.871 4.038c-1.338 1.275-2.675 2.621-4.153 3.825-1.408 1.276-2.886 2.48-4.364 3.684l.282.354z"/><path d="M217.519 239.523c1.267.212 2.323.07 3.449-.213 1.056-.283 2.112-.638 2.956-1.346s1.479-1.771 2.394-2.409c.844-.637 1.83-1.062 2.956-1.346.563-.142 1.056-.354 1.619-.567.492-.212.985-.495 1.478-.779.985-.567 1.9-1.133 2.674-1.842.775-.779 1.549-1.558 2.182-2.479a10.63 10.63 0 0 0 1.478-3.118l-.281-.283c-.563.142-1.126.354-1.619.567l-1.478.708c-.493.213-.915.496-1.337.78l-1.267.85c-.845.637-1.549 1.346-2.323 2.054a16.66 16.66 0 0 0-2.112 2.338c-.352.425-.703.85-1.126 1.204s-.844.638-1.337.851a5.56 5.56 0 0 1-1.549.425l-1.618.283a5.05 5.05 0 0 0-1.408.638l-1.337.85a8.33 8.33 0 0 0-1.267 1.062c-.423.355-.775.78-1.127 1.346v.426zm27.028-7.863l4.434 3.471c1.479 1.133 3.097 2.196 4.927 3.046.915.425 1.901.78 2.957.921s2.111.142 3.097.071c1.97-.212 3.73-.708 5.56-.425l-.211-.992c-1.126.921-2.604 1.275-4.083 1.7l-4.504.921-4.434.851c-1.479.283-2.886.425-4.364.566a43.47 43.47 0 0 1-4.294.213c-1.407 0-2.815-.071-4.223-.284-.704-.07-1.478-.212-2.182-.354l-2.182-.425c-1.407-.283-2.745-.637-3.801-1.771l-.281.142c.211.779.704 1.558 1.337 2.125s1.338.992 2.041 1.417l2.182.992 2.253.85c1.548.496 3.167.85 4.786.992s3.308 0 4.856-.213c1.619-.283 3.168-.637 4.646-1.062s2.956-.992 4.364-1.63l4.223-1.984c1.407-.637 2.886-1.133 4.293-2.054l1.056-.708-1.337-.284c-1.901-.425-3.871-.567-5.631-.921-.422-.071-.845-.141-1.267-.283-.422-.071-.774-.213-1.197-.354l-2.393-.851c-1.619-.637-3.237-1.487-4.927-2.267s-3.589-1.487-5.49-1.7l-.211.284zm-6.123 4.745c-.071.354 0 .709.07.921.07.284.141.496.282.638.211.354.492.637.915.637.422-.07.985-.425 1.337-.354.352 0 .633.354.845.78.14.212.211.425.352.637s.281.283.422.425c.281.213.633.496 1.056.496.352.071.774-.071 1.196-.212a3.89 3.89 0 0 0 1.267-.992l.07-.354c-.281-.638-.492-1.063-.774-1.347-.281-.354-.492-.566-.844-.708-.282-.142-.634-.071-.986-.071s-.704.142-1.126.354-.845.213-1.056 0c-.281-.212-.352-.921-.492-1.275-.071-.212-.212-.283-.352-.283-.141-.071-.352-.071-.493-.071-.211 0-.422.071-.634.142s-.492.212-.844.354l-.211.283z"/></g><g fill="#fff"><path d="M150.803 423.776l-.645 3.898-3.58 8.151-6.865 6.437-9.741 4.607-12.91 1.536-2.993-.295-.176-.827 1.82-3.249 2.934-3.071 3.11-2.894 2.816-2.303 5.986-2.895 15.081-5.138 5.163-3.957zm-91.072 4.607l2.934 2.599 6.514 4.016 11.619 3.78 5.927 1.89 3.873 1.536 2.523 1.358 2.465 1.772 1.115 1.477.352 1.358-4.87 3.308-8.743 2.244-11.501-2.717-5.281-5.197-4.166-8.033-2.054-5.375-.704-4.016zm77.869-87.887l-2.464 12.462-3.756 5.611-3.579 3.19-8.333 2.658-4.812 1.24-.293-3.307 3.814-6.616 6.807-6.91 4.342-3.012 4.225-2.245 4.049-3.071zm-80.744-81.979l4.46 3.485 5.985 5.079 4.46 2.599 9.8 4.489 4.753 5.079 2.171 5.552-.176 3.13-3.873 1.123-8.802-1.477-1.467 1.654-9.154 2.421-7.042-1.417-10.386-3.308 3.227-.708 6.279-.768 7.746-4.489-3.051-4.607-3.697-8.741-1.232-9.096zm60.206 254.859l-.645 14.588-8.744-.768-5.34 1.595-2.288.945.117-1.595 3.286-6.556 1.702-8.859-.998-16.42-1.056-10.395-3.521-18.546-1.115-5.256-1.35-6.202.411-5.08 1.526-1.358-.352-8.033-.176-6.969-.117-5.434-.293-7.678-.998-6.261-3.579-33.312-1.35-6.91-.117-.709-2.112-6.615 4.753-1.181 1.056-3.012-.528-5.021v-.118l-.411-13.585v-8.623l-.763-10.631-.176-4.253-2.523-11.872-3.169-13.407-.117-.413 1.115-5.552.88-5.552-.235-17.483-1.232-10.041-2.112-13.407.822-4.43 2.171-14.057.117-7.324v-2.303l-2.699-8.506 3.227-.531h4.166l4.694-.709h3.111v1.595l-4.108 5.906-.235 3.839.059 1.89.176 4.784.645 6.734.645 13.643v6.911l.117 2.539 2.171 20.141.47 6.556.587 7.915 4.283.472-1.76 5.552-.117 2.54-.529 12.226 2.406 12.521 2.817 14.766.939 9.273.469 6.911-.176 5.729-.058 2.658 1.291 3.662 3.638 2.185-5.223 8.682-.058.296-1.35 11.222.645 26.047.881 19.49.528 7.502.586 8.682 3.697.236-.821 3.426-1.35 13.702c-.059.473.998 19.669.998 19.669l.704 6.733 1.995 21.204z"/><path opacity=".3" d="M102.098 205.537v1.595l-4.107 5.906-.235 3.839.059 1.89-6.103-.649-2.23-.355v-2.303l-2.582-8.683 3.228-.531h4.166l4.694-.709h3.11zm4.753 82.866l-1.76 5.552-.117 2.539c-2.348.473-4.753.65-7.159.591-3.228-.059-6.514-.472-9.682-1.122l-.117-.414 1.115-5.552.88-5.551-.059-4.371a204.5 204.5 0 0 1 12.029-.177l.587 7.914 4.283.591zm8.979 78.082l-5.223 8.682-.059.295c-2.229.059-4.459-.059-6.689-.118l-11.678-.354-.117-.709-2.112-6.615 4.753-1.181 1.056-3.013-.528-5.02v-.118c3.404-.295 6.865-.355 10.328-.355h5.398l-.059 2.658 1.291 3.662 3.639 2.186zm-.294 82.098l-.822 3.425-.938 9.569c-5.047.649-10.211.708-15.316.59l-1.35-6.202.411-5.079 1.526-1.358-.352-8.033c3.521-1.654 7.57-1.89 11.501-1.831h1.056l.587 8.682 3.697.237z"/></g><g fill="#3c2829"><path d="M103.8 490.696c.705 1.594 1.057 3.307 1.35 4.961l.293 2.481.059 2.48c-.117 1.654-.469 3.367-.411 5.021 0 1.653.294 3.307.704 4.961.177.827.411 1.772.411 2.658.059.886-.058 1.831-.176 2.717-.293 1.772-.704 3.366-1.115 4.902l-.293 1.181-.176.591-.118.354c0 .118-.058.177-.058.236s-.059.178-.059.237c-.235.531-.469.886-.704 1.24l-.704 1.063-1.467 2.008c-.235.355-.528.65-.763 1.004-.117.178-.235.355-.352.473-.118.177-.176.354-.176.413l-.235.237c-.176-.118-.176-.296-.176-.414v-.354c0-.236.059-.473.059-.709.059-.413.176-.886.293-1.299.235-.827.528-1.654.822-2.422l.41-1.181.352-1.063c0-.059.059-.65.118-1.063l.235-1.3c.352-1.713.997-3.248 1.467-4.784.41-1.536.762-2.953.88-4.607.117-1.713.176-3.367-.059-5.02-.176-1.654-.763-3.308-1.056-4.962l-.235-2.48v-2.481c.059-1.654.235-3.367.646-5.079h.234z"/><path d="M114.363 486.325c-.763-3.131-1.35-6.261-1.76-9.392-.411-3.189-.646-6.378-.646-9.568-.059-3.189.293-6.438.88-9.568.587-3.19 1.409-6.261 2.23-9.332l.411.591c-2.465-.06-4.929-.06-7.335.059l-3.697.177c-1.174.059-2.347.236-3.345.59-.469.178-.939.414-1.291.709-.176.177-.352.296-.469.473l-.235.236-.176.295c-.469.768-.587 1.772-.587 2.835.059 1.063.293 2.186.587 3.308l.528 1.713.528 1.772c1.409 4.784 2.406 9.686 3.052 14.647.176 1.241.293 2.481.41 3.721s.176 2.481.235 3.721l.059 1.89v1.89c0 1.241 0 2.481-.059 3.721h-.293c-.587-2.421-.939-4.843-1.467-7.264-.235-1.182-.47-2.422-.763-3.603l-.763-3.603c-1.056-4.784-2.288-9.509-3.521-14.234-.587-2.304-1.467-4.844-1.408-7.62 0-.708.117-1.417.293-2.126s.528-1.417.939-2.067c.88-1.3 2.347-2.126 3.697-2.422s2.699-.295 3.932-.177c1.232.059 2.464.177 3.696.295 2.465.178 4.871.237 7.336.237h.586l-.117.531c-.763 3.072-1.115 6.202-1.174 9.332-.117 3.131-.058 6.261-.117 9.391s0 6.261.059 9.391.117 6.32 0 9.51l-.235-.059z"/><path d="M116.123 527.846l-.469-5.198v-2.598l.117-2.599c.235-1.713.646-3.426.704-5.198l-.117-2.599-.469-2.598-.998-5.139-.704-5.138-.176-5.198.411-5.316.293-.059c.704 1.654 1.174 3.367 1.584 5.08l.998 5.138c.235 1.713.293 3.485.352 5.257v2.658c0 .886-.117 1.772-.176 2.658-.176 1.772-.235 3.484-.059 5.256.176 1.713.646 3.485.822 5.257.058.886.117 1.772 0 2.658l-.294 2.658c-.176.886-.293 1.772-.586 2.598l-.411 1.3c-.059.236-.176.413-.235.65l-.352.649-.235-.177zm-18.191-108.5c.704 1.181 1.056 2.481 1.35 3.721l.293 1.89a10.16 10.16 0 0 1 0 1.89c-.117 1.3-.528 2.54-.587 3.839s.176 2.54.528 3.78.645 2.54.763 3.78l.352 3.781-.059 1.949a11.08 11.08 0 0 1-.352 2.008l-.528 1.89c-.176.59-.469 1.24-.587 1.831l-.293.059c-.352-.65-.469-1.3-.587-1.949l-.293-1.949-.176-1.831-.235-1.831c-.117-1.241-.059-2.54 0-3.839 0-1.3.176-2.54.411-3.84a14.06 14.06 0 0 0 .176-3.839c-.117-1.24-.645-2.539-.939-3.78-.117-.649-.176-1.24-.176-1.89l.059-1.89c.117-1.24.235-2.539.645-3.839l.235.059z"/><path d="M101.629 366.898c-.997.236-1.995.354-2.934.413l-2.934.236c-1.878.178-3.697.414-5.281 1.064l.822-1.477 1.467 6.261.939 6.615 1.115 6.556 1.056 6.556 1.232 12.994.645 6.497s.411 4.43.235 6.674l-.293.059-1.936-6.32c-.352-1.063-.587-2.126-.88-3.189l-.645-3.308c-.822-4.429-.763-8.859-.88-13.23-.059-2.185.059-4.371.059-6.556s-.117-4.371-.528-6.497-1.174-4.193-1.995-6.202c-.88-2.008-1.76-4.075-2.112-6.378l-.176-1.123.998-.354c1.056-.354 2.112-.591 3.169-.65s2.054-.059 3.11.059c.997.118 1.995.296 2.934.473l2.875.59-.059.237z"/><path d="M111.722 448.523c-.763-3.425-1.232-6.91-1.643-10.395-.235-1.772-.352-3.484-.528-5.256-.117-1.772-.293-3.485-.352-5.257-.176-3.485-.059-7.029.059-10.513s.117-7.029-.059-10.514-.528-6.969-.763-10.513c-.293-3.485-.411-7.028-.528-10.513-.059-1.772-.117-3.544 0-5.434s.587-3.78 1.408-5.552c.411-.886.88-1.713 1.409-2.481s1.115-1.476 1.643-2.185c1.115-1.358 1.995-2.599 2.406-3.957l.938 1.535c-2.112-.649-4.401-.708-6.806-.649-2.348.059-4.812.295-7.277 0v-.296c2.406-.354 4.695-.945 7.1-1.417 1.233-.236 2.465-.354 3.697-.473 1.291-.059 2.582 0 3.873.296l1.174.236-.235 1.299c-.176 1.004-.587 2.009-1.056 2.835s-.998 1.654-1.467 2.363c-1.056 1.477-1.937 2.717-2.523 4.193-.646 1.477-.998 2.954-1.233 4.548-.176 1.595-.176 3.308-.234 5.08l-.294 10.513c-.176 3.485-.352 7.029-.293 10.513 0 3.485.235 6.97.645 10.455s.822 6.969 1.057 10.454a310.19 310.19 0 0 1 .352 10.513c.058 3.485.058 7.029-.176 10.513l-.294.059zM94.177 324.786c.763 1.713 1.174 3.485 1.408 5.257l.293 2.658a20.08 20.08 0 0 1 0 2.658l-.645 5.315c-.059 1.772.176 3.544.528 5.257l.528 2.599c.117.413.176.827.235 1.299l.176 1.418c.176 1.831.117 3.662.059 5.375-.117 1.712-.176 3.366-.059 5.02 0 .177.059.413.059.591v.354c0 .177.059.354 0 .532 0 .649-.235 1.181-.528 1.594a6.53 6.53 0 0 1-1.937 2.067l-.235-.177c.352-.827.646-1.654.763-2.421.059-.355.059-.709 0-.945 0-.059-.059-.118-.059-.118s-.059-.06-.059-.119l-.059-.177c-.117-.236-.176-.472-.235-.649-.645-1.831-.763-3.781-.763-5.552 0-1.831.235-3.544.293-5.198v-2.599c0-.886.117-1.772.176-2.717.176-1.772.293-3.544.117-5.315-.117-1.772-.645-3.544-.88-5.257a20.23 20.23 0 0 1-.176-2.658l.059-2.658c.059-1.772.176-3.544.587-5.315l.352-.119z"/><path d="M110.314 343.568l-3.228-13.584-.762-3.426-.705-3.426-.645-3.485-.47-3.484c-.469-4.666-.469-9.45-.352-14.116s.528-9.391 1.409-14.057l.821 1.122-6.689.295-3.345.059c-1.115 0-2.171 0-3.11.177-.939.118-1.819.473-2.406.886-.587.473-1.056 1.122-1.232 1.89-.235.768-.235 1.772-.117 2.717.117 1.004.352 2.008.587 3.012l.411 1.595.411 1.654c.293 1.063.528 2.185.763 3.307l.704 3.308c.176 1.122.411 2.244.587 3.308.704 4.429 1.115 8.918 1.115 13.466l-.293.059-3.051-12.994-1.76-6.379-.939-3.189-.998-3.19c-.352-1.122-.587-2.303-.763-3.484-.117-1.241-.176-2.54.235-3.898.352-1.359 1.291-2.658 2.465-3.485 1.232-.827 2.582-1.182 3.814-1.3s2.406-.059 3.521-.059l3.345.118 6.631.414 1.173.059-.352 1.004c-1.408 4.371-2.171 8.978-2.171 13.644 0 1.181.118 2.303.176 3.484.118 1.182.294 2.304.411 3.426l.587 3.426.645 3.425c.47 2.245.88 4.548 1.291 6.852l1.174 6.91c.704 4.607 1.291 9.273 1.291 13.998l-.176-.059z"/><path d="M112.544 365.776h-.059l-.059-.059c-.059-.059-.117-.059-.176-.118-.117-.059-.176-.177-.293-.237-.176-.177-.411-.354-.587-.472l-.998-1.063a6.54 6.54 0 0 1-.821-1.24l-.176-.355c-.059-.118-.059-.118-.118-.295-.058-.118-.058-.236-.058-.355v-.354l.176-.709c.293-.886.821-1.772.997-2.717s.059-1.89-.176-2.835c-.293-.945-.469-1.89-.587-2.835s-.293-1.831-.293-2.776c.059-1.89.235-3.78.939-5.729l.293-.059.763 1.359a6.91 6.91 0 0 1 .528 1.417c.294.945.528 1.89.587 2.835.118.945 0 1.949-.059 2.894l-.176 1.477-.41 1.417c-.294.945-.47 1.89-.47 2.835s.411 1.949.47 2.954v.826c0 .06 0-.059 0-.059v-.118c0-.118 0-.177-.059-.295 0-.059 0 0 0 .059.059.118.059.177.117.295.176.414.352.827.47 1.3a6.28 6.28 0 0 1 .352 1.417c.059.236.059.532.059.768v.768c0 .059 0 .118-.059.177l-.117-.118zM86.959 241.389l.939 5.906 1.115 5.788.235 6.143c.117 2.008.411 4.016.763 6.025l.528 3.012.352 3.012.469 6.024-.117 6.084c-.176 2.185-.822 4.075-1.232 6.024l-.293.06c-.235-.532-.293-1.064-.352-1.536l-.176-1.536-.293-2.953-.704-5.965-.117-6.025.059-3.012.235-3.012c.176-2.008.235-4.017-.117-6.025-.293-2.008-1.115-3.839-1.702-5.788a16.53 16.53 0 0 1-.645-2.953c-.176-1.004-.293-2.067-.293-3.13 0-2.127.293-4.194.998-6.143h.352zm12.206 10.217c-.822-3.898-1.291-7.796-1.643-11.694l-.176-2.954c-.059-1.004-.059-1.949-.117-2.953l-.059-1.476c0-.473 0-.886-.059-1.418-.059-.945-.117-1.949-.117-2.953a24.78 24.78 0 0 1 0-2.953 26 26 0 0 1 .176-3.012c.059-.296.059-.532.117-.827l.059-.355c0-.118.059-.177.059-.295.059-.413.059-.886.059-1.358 0-.945-.059-1.95-.117-2.954 0-1.004-.059-2.008.176-3.071.059-.118.059-.295.117-.413s.117-.296.176-.414l.411-.649a20.54 20.54 0 0 1 .88-1.182c.587-.768 1.115-1.594 1.584-2.421s.822-1.713.939-2.54l.528.827c-1.232-.236-2.464-.295-3.638-.118-.587.118-1.174.295-1.76.472a24.43 24.43 0 0 1-1.995.473c-.645.118-1.35.177-2.054.236s-1.35.059-2.112 0c-.352 0-.822-.059-.939-.118h-.117c-.059 0-.176.059-.293.118-.528.177-1.115.472-1.702.709l.88-1.595c.293 1.299.704 2.658 1.174 4.016l.704 2.068c.235.708.411 1.476.587 2.244.587 3.071.528 6.202.117 9.155-.235 1.476-.469 2.953-.822 4.37a56.27 56.27 0 0 1-1.056 4.253 222.05 222.05 0 0 0-2.112 8.446h-.293c-.117-2.953.235-5.906.528-8.8l.528-4.312c.059-.709.176-1.417.235-2.126l.176-2.127c.176-2.835.059-5.611-.411-8.268-.176-.65-.293-1.3-.469-1.949l-.587-2.068c-.411-1.417-.822-2.894-1.056-4.429l-.176-1.241 1.115-.354c.469-.177 1.056-.355 1.819-.591.176-.059.411-.118.645-.177a1.93 1.93 0 0 1 .822 0c.469.059.645.118.998.118.587.059 1.174.118 1.819.118.587 0 1.232 0 1.819-.059s1.232-.118 1.819-.236c.645-.059 1.291-.177 2.054-.236 1.467-.059 2.875.236 4.166.649l.704.237-.176.59c-.293 1.063-.821 2.008-1.35 2.835s-1.173 1.595-1.76 2.363c-.293.413-.587.768-.88 1.181-.117.177-.293.414-.411.591l-.117.236c-.059.118-.059.177-.059.295-.176.827-.117 1.831 0 2.776s.293 1.89.469 2.894l.176 1.536v1.477c.059 1.831.411 3.839.587 5.729.117.945.176 1.949.235 2.953 0 .472.059 1.004.059 1.536v1.476l-.059 5.847c-.059 3.899-.059 7.797-.352 11.754l-.469.118zm3.52 36.56c-.704-1.476-1.056-2.953-1.349-4.489-.176-.767-.294-1.535-.352-2.244-.118-.768-.176-1.536-.118-2.303l.294-4.666c-.059-1.536-.352-3.013-.822-4.548-.469-1.477-.821-3.013-1.056-4.489l-.645-4.548c-.117-1.536-.117-3.071-.059-4.607.117-1.536.235-3.13.645-4.666h.293c.645 1.477.997 2.953 1.408 4.489.352 1.476.646 3.012.822 4.489l.293 4.607c.059 1.535.059 3.071-.117 4.606-.118 1.536-.118 3.072.176 4.607.234 1.536.88 3.013 1.173 4.489.176.768.235 1.536.294 2.304s.058 1.535.058 2.303c-.058 1.536-.176 3.072-.586 4.666h-.353zm16.724 151.853l3.638-3.367c1.233-1.122 2.641-2.126 4.108-2.894 1.467-.827 2.993-1.536 4.46-2.185l4.577-1.89c3.051-1.182 6.22-2.186 9.389-3.072l2.112-.768c.646-.354 1.232-.826 1.761-1.358.528-.591.938-1.24 1.349-1.949s.763-1.418 1.056-2.185l.822.295-2.347 7.56-2.817 7.56c-.587 1.24-1.35 2.422-2.171 3.544-.88 1.122-1.819 2.126-2.875 3.012a26.52 26.52 0 0 1-7.042 4.371c-2.523 1.063-5.223 1.772-7.922 2.126l-4.049.355h-4.929c-.352 0-.704-.06-.88 0l-1.995.177c-.353 0-.763 0-1.174-.059l-.352-.118-.352-.178c-.118-.118-.235-.177-.352-.295s-.235-.295-.235-.473c-.176-.649 0-1.063.117-1.417.176-.354.352-.65.587-.945.411-.591.88-1.063 1.35-1.536l1.349-1.417c.939-1.122 1.878-2.008 2.817-2.894zm.235.236c-.939.886-1.878 1.831-2.699 2.835s-1.644 2.067-2.23 3.189c-.118.296-.235.532-.294.827 0 .118-.058.237-.058.355v.118c0 .059 0 .059.058.059v-.059h.176c.235 0 .47-.059.763-.118.587-.118 1.174-.355 1.878-.532.469-.118.763-.118 1.056-.177l.998-.118 3.931-.414 3.756-.531c2.464-.414 4.929-1.063 7.218-1.949s4.518-2.068 6.454-3.603 3.58-3.367 4.988-5.493 2.524-4.489 3.521-6.911 1.878-4.902 2.582-7.441l.822.295c-.646 1.535-1.233 3.13-2.23 4.548-.528.708-1.115 1.417-1.878 1.949a13.08 13.08 0 0 1-2.347 1.299l-9.154 3.662-4.695 1.477-4.694 1.358a15.64 15.64 0 0 0-4.343 2.126l-3.579 3.249z"/><path d="M114.422 448.169c.176-.473.41-.945.704-1.359s.587-.708.939-1.063c.704-.59 1.467-1.181 2.347-1.417s1.878-.177 2.758-.473c.821-.236 1.584-.768 2.288-1.358s1.409-1.181 2.172-1.595l1.115-.709c.352-.236.704-.413 1.114-.59 1.526-.709 3.052-1.241 4.988-1.713l.176.236c-.704 1.89-2.112 3.308-3.697 4.253-.41.236-.821.413-1.232.59s-.88.296-1.291.414-.88.295-1.291.354c-.469.118-.88.118-1.349.177-.939.059-1.761.296-2.524.709-.352.236-.704.532-1.056.827s-.645.65-.997.945-.705.472-1.057.65-.763.354-1.173.472c-.411.177-.822.296-1.233.414a8.41 8.41 0 0 1-1.408.295l-.293-.059zm-21.712-4.665c-1.291-.827-2.758-1.477-4.284-1.949-1.467-.473-2.993-.827-4.577-1.122l-9.272-1.89c-3.11-.827-6.161-2.127-8.861-4.017-2.699-1.831-5.105-4.193-6.807-6.969l.822-.296c.352 2.481 1.115 4.844 2.113 7.147s2.23 4.489 3.521 6.615 2.523 4.253 4.166 5.729 3.814 2.54 6.103 3.308c2.23.827 4.518 1.358 6.866 1.476 2.288.119 4.636-.177 6.924-.767 1.174-.296 2.288-.709 3.462-1.123 1.232-.59 2.523-.767 3.403-1.358.469-.295.587-.591.411-1.122s-.587-1.004-.998-1.477c-.88-.768-1.936-1.476-2.993-2.185zm.176-.236c1.056.649 2.112 1.358 3.11 2.185.47.413.939.886 1.35 1.536a1.96 1.96 0 0 1 .235 1.181c-.058.414-.352.768-.587 1.063-.528.532-1.115.886-1.702 1.181-.293.177-.587.296-.822.473-.117.059-.235.118-.352.236l-.411.295a21.6 21.6 0 0 1-3.462 1.89c-2.406 1.123-5.164 1.595-7.863 1.595a21.71 21.71 0 0 1-7.804-1.654c-2.405-1.004-4.87-2.244-6.866-4.252s-3.169-4.489-4.166-6.793c-1.056-2.362-1.936-4.725-2.758-7.146-.763-2.422-1.467-4.902-1.878-7.442l-.352-2.067 1.174 1.712c.88 1.3 1.936 2.422 3.11 3.367s2.523 1.713 3.873 2.363c2.758 1.299 5.633 2.244 8.567 3.189l8.919 3.13 4.401 1.89c1.526.532 2.934 1.182 4.284 2.068z"/><path d="M97.111 448.405c-1.056.237-1.995.237-2.934.177l-1.35-.236c-.47-.118-.88-.236-1.291-.472-.822-.414-1.584-1.123-2.406-1.477-.88-.354-1.76-.413-2.758-.413-.939.059-1.878.059-2.817-.118l-2.699-.473c-.88-.236-1.702-.591-2.582-1.004-.411-.236-.822-.414-1.232-.709-.411-.236-.822-.531-1.232-.886l.059-.295c.998-.295 1.937-.414 2.934-.414.939 0 1.878.06 2.758.237s1.76.472 2.641.827c.411.177.88.295 1.291.531.411.177.822.473 1.232.709.822.532 1.643.886 2.582 1.063.88.177 1.937-.059 2.875 0 .469.059.939.118 1.35.295l1.291.532c.822.413 1.643.945 2.347 1.772l-.059.354zm33.506-103.479l1.819-1.004 1.761-1.122c1.115-.768 2.112-1.772 2.816-2.776l1.291-1.949.118 2.54c.058 1.417.058 2.776-.059 4.193s-.352 2.776-.763 4.194c-.352 1.358-.939 2.717-1.584 4.016s-1.467 2.481-2.347 3.603c-1.761 2.244-3.756 4.193-6.162 5.729-1.174.768-2.523 1.358-3.873 1.772l-1.995.65c-.293.118-.704.236-.88.295l-.88.354c-.587.296-1.233.591-1.878.827s-1.35.532-2.171.65c-.411.059-.881.118-1.526 0-.352-.118-.704-.236-1.056-.591a2.02 2.02 0 0 1-.646-1.122c-.176-.709-.058-1.24 0-1.654s.176-.768.294-1.181c.469-1.477 1.173-2.776 1.936-4.016s1.584-2.304 2.406-3.426c.88-1.122 1.819-2.185 2.875-3.189a37.01 37.01 0 0 1 3.345-2.658l7.159-4.135zm.176.296c-2.406 1.299-4.46 3.189-6.161 5.256l-2.524 3.131-2.347 3.189-2.23 3.308c-.704 1.122-1.349 2.185-1.819 3.307l-.293.827c-.059.236-.059.413-.117.354 0 0-.059-.177-.176-.236s-.177-.118-.177-.118.235.059.47 0c.528-.059 1.115-.177 1.76-.354l1.937-.591c.352-.118.704-.177 1.056-.295.411-.118.704-.118 1.056-.177l1.995-.296c1.291-.236 2.582-.531 3.756-1.122 2.347-1.181 4.342-3.189 5.575-5.552 1.291-2.363 1.877-4.961 2.464-7.501l1.702-7.855 1.408.649c-1.173 1.004-2.464 1.654-3.697 2.245l-1.877.886-1.761.945z"/><path d="M113.424 365.717c.352-.827.704-1.477 1.115-2.067.234-.296.411-.591.704-.886.235-.296.528-.532.88-.768.646-.414 1.526-.591 2.171-1.063.587-.473 1.057-1.123 1.409-1.831l.528-1.063c.176-.355.411-.65.645-.946.47-.59.939-1.24 1.526-1.712s1.232-.945 1.936-1.3 1.467-.708 2.348-.886l.176.237c-.176.886-.528 1.653-.939 2.362s-.822 1.299-1.35 1.89-1.115 1.004-1.76 1.477c-.294.236-.587.472-.939.649l-1.056.532c-.763.354-1.409.768-1.878 1.358s-.704 1.477-1.115 2.127c-.235.354-.47.59-.763.886a14.37 14.37 0 0 1-.998.708c-.704.414-1.584.768-2.523.65l-.117-.354zm-43.776-97.1c-1.467-.65-2.875-1.418-4.225-2.245s-2.699-1.772-3.932-2.776c-1.291-1.004-2.465-2.067-3.638-3.189s-2.23-2.304-3.286-3.544l2.288-1.063c.587 3.307 1.232 6.615 1.995 9.923s1.76 6.615 3.169 9.686c.704 1.536 1.526 3.012 2.582 4.312a13.02 13.02 0 0 0 3.697 3.248c1.408.886 2.934 1.536 4.46 2.067s3.11.945 4.753 1.241a33.25 33.25 0 0 0 4.87.531c.822.059 1.584 0 2.523.059.822.059 1.643.059 2.23-.059.293-.059.528-.177.469-.177 0 0-.059.059-.059.118l-.059.118v-.059c0-.177-.059-.531-.176-.827-.117-.354-.235-.708-.411-1.063-.293-.768-.645-1.476-.998-2.362l-.235-.709-.176-.591c-.117-.413-.293-.768-.411-1.122-.293-.768-.587-1.418-.998-2.008s-.88-1.122-1.408-1.595c-1.115-1.004-2.582-1.772-4.108-2.54-3.169-1.417-6.22-3.189-8.919-5.374l.176-.237a80.69 80.69 0 0 0 9.448 3.78c1.643.591 3.286 1.241 4.87 2.363.763.591 1.526 1.24 2.112 2.067s1.056 1.654 1.408 2.481l.528 1.24.235.591.059.177.176.354c.352.709.704 1.536 1.056 2.363.176.413.352.886.469 1.358s.293.945.352 1.654c0 .177 0 .414-.059.591-.059.236-.117.531-.235.768-.235.413-.528.827-.88 1.063a4.16 4.16 0 0 1-1.878.709c-1.115.177-1.995.059-2.875 0-.763-.06-1.702-.06-2.582-.178-1.76-.177-3.521-.413-5.222-.886-3.462-.826-6.748-2.421-9.506-4.607-.704-.531-1.35-1.181-1.936-1.831s-1.174-1.358-1.643-2.067a28.55 28.55 0 0 1-1.35-2.244c-.411-.768-.822-1.536-1.174-2.304-1.467-3.13-2.934-6.26-4.225-9.509-1.232-3.248-2.23-6.615-2.699-10.1l-.645-4.784 2.934 3.721c.939 1.241 1.995 2.363 2.993 3.544l3.227 3.367c1.115 1.063 2.23 2.185 3.462 3.189 1.174 1.063 2.406 2.067 3.638 3.071l-.235.296z"/><path d="M87.252 287.812c-1.056.177-1.936.059-2.875-.177-.88-.237-1.76-.532-2.465-1.122s-1.232-1.477-1.995-2.009c-.704-.531-1.526-.886-2.465-1.122-.469-.118-.88-.295-1.35-.472-.411-.178-.822-.414-1.232-.65-.822-.473-1.584-.945-2.23-1.536-.645-.649-1.291-1.299-1.819-2.067a8.85 8.85 0 0 1-1.232-2.599l.235-.236a8.97 8.97 0 0 1 1.35.473l1.232.59c.411.177.763.414 1.115.65l1.056.709c.704.531 1.291 1.122 1.937 1.712a13.87 13.87 0 0 1 1.76 1.95c.293.354.587.708.939 1.004s.704.531 1.115.708a4.61 4.61 0 0 0 1.291.355l1.35.236a4.2 4.2 0 0 1 1.174.532l1.115.708c.352.237.704.532 1.056.886.352.296.645.65.939 1.123v.354zm-22.533-6.555l-3.697 2.894c-1.232.945-2.582 1.831-4.108 2.539-.763.355-1.584.65-2.465.768a12.69 12.69 0 0 1-2.582.059c-1.643-.177-3.11-.59-4.636-.354l.176-.827c.939.768 2.171 1.063 3.404 1.417l3.756.768 3.697.709c1.232.236 2.406.354 3.638.473a36.35 36.35 0 0 0 3.579.177c1.174 0 2.347-.059 3.521-.236.587-.06 1.232-.178 1.819-.296l1.819-.354c1.174-.236 2.289-.532 3.169-1.477l.235.118c-.176.65-.587 1.3-1.115 1.772s-1.115.827-1.702 1.182l-1.819.826-1.878.709c-1.291.414-2.641.709-3.99.827s-2.758 0-4.049-.177c-1.35-.236-2.641-.532-3.873-.886s-2.464-.827-3.638-1.359l-3.521-1.653c-1.174-.532-2.406-.945-3.579-1.713l-.88-.591 1.115-.236c1.584-.354 3.227-.473 4.694-.768.352-.059.704-.118 1.056-.236.352-.059.645-.177.998-.295l1.995-.709c1.35-.532 2.699-1.241 4.108-1.89s2.993-1.241 4.577-1.418l.176.237zm5.105 3.956c.059.295 0 .591-.059.768-.059.236-.117.413-.235.532-.176.295-.411.531-.763.531-.352-.059-.822-.354-1.115-.295-.293 0-.528.295-.704.65-.117.177-.176.354-.293.531s-.235.236-.352.354c-.235.178-.528.414-.88.414-.293.059-.645-.059-.998-.177a3.24 3.24 0 0 1-1.056-.827l-.059-.295c.235-.532.411-.886.645-1.123.235-.295.411-.472.704-.59.235-.118.528-.059.822-.059s.587.118.939.295.704.177.88 0c.235-.177.293-.768.411-1.063.059-.177.176-.236.293-.236.117-.06.293-.06.411-.06.176 0 .352.06.528.119s.411.177.704.295l.176.236z"/></g><g fill="#fff"><path d="M236.708 357.389l-1.049 6.336-5.818 13.249-11.16 10.465-15.834 7.489-20.984 2.496-4.865-.48-.286-1.344 2.957-5.281 4.769-4.992 5.055-4.704 4.579-3.745 9.729-4.704 24.514-8.353 8.393-6.432zm-148.036 7.488l4.769 4.224 10.588 6.529 18.886 6.144 9.634 3.073 6.295 2.496 4.102 2.208 4.006 2.88 1.812 2.4.572 2.208-7.916 5.377-14.213 3.648-18.695-4.416-8.585-8.449-6.772-13.057-3.338-8.736-1.145-6.529zM215.247 222.02l-4.006 20.257-6.105 9.121-5.818 5.184-13.545 4.32-7.821 2.016-.477-5.376 6.2-10.753 11.064-11.233 7.059-4.896 6.867-3.648 6.582-4.992zM83.998 88.763l7.249 5.664 9.729 8.256 7.249 4.225 15.929 7.296 7.726 8.257 3.53 9.024-.287 5.089-6.295 1.824-14.308-2.4-2.384 2.688-14.88 3.936-11.446-2.304-16.883-5.376 5.246-1.152 10.206-1.249 12.591-7.296-4.96-7.489-6.009-14.209-2.003-14.784zm97.865 414.268l-1.049 23.714-14.213-1.248-8.68 2.592-3.72 1.536.191-2.592 5.342-10.657 2.766-14.401-1.622-26.69-1.717-16.897-5.723-30.146-1.812-8.545-2.194-10.08.668-8.257 2.48-2.208-.572-13.057-.287-11.329-.19-8.832-.477-12.481-1.622-10.177-5.818-54.148-2.194-11.232-.191-1.152-3.434-10.753 7.727-1.92 1.716-4.897-.858-8.16v-.192l-.668-22.082v-14.017l-1.24-17.281-.286-6.912-4.101-19.298-5.151-21.793-.191-.672 1.812-9.025 1.431-9.025-.381-28.418-2.003-16.321-3.434-21.794 1.335-7.2 3.529-22.85.191-11.905v-3.744L132.835 4.66l5.247-.864h6.772l7.631-1.152h5.055v2.592l-6.677 9.601-.382 6.24.096 3.072.286 7.777 1.049 10.945 1.049 22.178v11.233l.191 4.128 3.529 32.738.764 10.657.953 12.865 6.963.768-2.861 9.025-.191 4.128-.858 19.873 3.91 20.354 4.579 24.001 1.526 15.073.763 11.233-.286 9.313-.095 4.32 2.098 5.952 5.914 3.553-8.489 14.113-.096.48-2.194 18.241 1.05 42.339 1.43 31.682.859 12.193.954 14.113 6.009.384-1.335 5.568-2.194 22.274c-.096.768 1.621 31.97 1.621 31.97l1.145 10.945 3.243 34.466z"/><path opacity=".3" d="M157.54 2.645v2.592l-6.677 9.601-.382 6.24.096 3.072-9.92-1.056-3.625-.576v-3.744l-4.197-14.113 5.246-.864h6.773l7.63-1.152h5.056zm7.726 134.696l-2.862 9.025-.19 4.128c-3.816.768-7.726 1.056-11.637.96-5.246-.096-10.588-.768-15.739-1.824l-.19-.672 1.812-9.024 1.431-9.025-.096-7.105a332.09 332.09 0 0 1 19.554-.288l.954 12.865 6.963.96zm14.594 126.921l-8.489 14.113-.096.48c-3.624.096-7.249-.096-10.874-.192l-18.981-.576-.191-1.152-3.434-10.753 7.726-1.92 1.717-4.896-.858-8.161v-.192c5.532-.48 11.16-.576 16.787-.576h8.776l-.096 4.321 2.099 5.952 5.914 3.552zm-.477 133.45l-1.336 5.568-1.526 15.553c-8.203 1.056-16.597 1.152-24.895.96l-2.194-10.081.668-8.256 2.48-2.208-.572-13.057c5.723-2.688 12.304-3.072 18.695-2.976h1.717l.954 14.113 6.009.384z"/></g><g fill="#3c2829"><path d="M160.306 466.164c1.145 2.592 1.717 5.377 2.194 8.065l.477 4.032.095 4.032c-.19 2.689-.763 5.473-.667 8.161 0 2.688.477 5.376 1.144 8.065.286 1.344.668 2.88.668 4.32.095 1.44-.095 2.976-.286 4.416-.477 2.88-1.145 5.472-1.812 7.969l-.477 1.92-.287.96-.19.576c0 .192-.096.288-.096.384s-.095.288-.095.384c-.382.864-.763 1.44-1.145 2.016l-1.144 1.728-2.385 3.264c-.381.576-.858 1.057-1.24 1.633-.191.288-.381.576-.572.768-.191.288-.286.576-.286.672l-.382.384c-.286-.192-.286-.48-.286-.672v-.576c0-.384.095-.768.095-1.152.096-.672.286-1.441.477-2.113.382-1.344.859-2.688 1.336-3.936l.667-1.92.573-1.728c0-.096.095-1.056.19-1.728l.382-2.112c.572-2.785 1.621-5.281 2.385-7.777.667-2.496 1.24-4.8 1.43-7.488.191-2.785.286-5.473-.095-8.161-.286-2.688-1.24-5.376-1.717-8.065l-.382-4.032v-4.032c.096-2.688.382-5.473 1.05-8.257h.381z"/><path d="M177.475 459.06c-1.24-5.088-2.194-10.177-2.861-15.265-.668-5.184-1.049-10.369-1.049-15.553-.096-5.185.477-10.465 1.43-15.553.954-5.185 2.29-10.177 3.625-15.169l.668.96c-4.007-.096-8.013-.096-11.923.096l-6.01.288c-1.907.096-3.815.384-5.437.96-.763.288-1.526.672-2.098 1.152-.286.288-.572.48-.763.768l-.382.384-.286.48c-.763 1.248-.954 2.88-.954 4.608.096 1.728.477 3.553.954 5.377l.859 2.784.858 2.88c2.289 7.777 3.911 15.745 4.96 23.81.286 2.016.477 4.032.668 6.048s.286 4.032.381 6.049l.096 3.072v3.072c0 2.016 0 4.032-.096 6.048h-.477c-.953-3.936-1.526-7.872-2.384-11.808-.382-1.921-.763-3.937-1.24-5.857l-1.24-5.856c-1.717-7.777-3.72-15.457-5.723-23.138-.954-3.744-2.385-7.872-2.289-12.385 0-1.152.19-2.304.477-3.456s.858-2.304 1.526-3.36c1.43-2.112 3.815-3.456 6.009-3.936s4.388-.48 6.391-.288c2.003.096 4.006.288 6.009.48 4.006.288 7.917.384 11.923.384h.954l-.191.864c-1.24 4.992-1.812 10.08-1.908 15.169-.191 5.088-.095 10.176-.191 15.265s0 10.177.096 15.265.191 10.273 0 15.457l-.382-.096z"/><path d="M180.337 526.552l-.764-8.448v-4.224l.191-4.225c.382-2.784 1.049-5.568 1.145-8.448l-.191-4.225-.763-4.224-1.622-8.353-1.144-8.352-.286-8.449.667-8.64.477-.096c1.145 2.688 1.908 5.472 2.576 8.256l1.621 8.353c.382 2.784.477 5.664.573 8.544v4.321c0 1.44-.191 2.88-.287 4.32-.286 2.88-.381 5.664-.095 8.545.286 2.784 1.049 5.664 1.335 8.544.096 1.44.191 2.88 0 4.321l-.477 4.32c-.286 1.44-.476 2.88-.953 4.224l-.668 2.112c-.095.384-.286.672-.382 1.056l-.572 1.056-.381-.288zm-29.57-176.364c1.145 1.92 1.717 4.033 2.194 6.049l.477 3.072a16.41 16.41 0 0 1 0 3.072c-.191 2.112-.858 4.128-.954 6.241s.287 4.128.859 6.144 1.049 4.128 1.24 6.144l.572 6.145-.095 3.168c-.096 1.152-.286 2.208-.573 3.264l-.858 3.072c-.286.961-.763 2.017-.954 2.977l-.477.096c-.572-1.056-.763-2.112-.954-3.169l-.477-3.168-.286-2.976-.381-2.976c-.191-2.016-.096-4.128 0-6.241 0-2.112.286-4.128.667-6.24a22.87 22.87 0 0 0 .287-6.24c-.191-2.017-1.05-4.129-1.527-6.145-.19-1.056-.286-2.016-.286-3.072l.096-3.072c.19-2.016.381-4.129 1.049-6.241l.381.096z"/><path d="M156.777 264.934c-1.622.384-3.243.576-4.769.672l-4.77.384c-3.052.288-6.009.672-8.584 1.728l1.335-2.4c.668 3.264 1.717 6.624 2.385 10.177l1.526 10.752c.477 3.553 1.145 7.105 1.812 10.657s1.336 7.104 1.717 10.657l2.003 21.121c.286 3.456.668 7.009 1.05 10.561s.667 7.2.381 10.849l-.477.096-3.148-10.273c-.572-1.728-.953-3.456-1.43-5.184-.382-1.824-.763-3.553-1.05-5.377-1.335-7.2-1.24-14.401-1.43-21.505-.096-3.552.095-7.105.095-10.657s-.191-7.104-.858-10.561-1.908-6.816-3.243-10.08c-1.431-3.265-2.862-6.625-3.434-10.369l-.286-1.824 1.621-.576c1.717-.576 3.434-.96 5.151-1.056s3.338-.096 5.055.096c1.622.192 3.243.48 4.769.768l4.674.96-.095.384z"/><path d="M173.183 397.616c-1.24-5.569-2.003-11.233-2.671-16.898-.381-2.88-.572-5.664-.858-8.544-.191-2.88-.477-5.665-.573-8.545-.286-5.664-.095-11.425.096-17.089s.191-11.425-.096-17.089-.858-11.329-1.24-17.089c-.477-5.665-.667-11.425-.858-17.09-.095-2.88-.191-5.76 0-8.832a25.21 25.21 0 0 1 2.289-9.025c.668-1.44 1.431-2.784 2.289-4.032s1.813-2.4 2.671-3.552c1.812-2.208 3.243-4.225 3.911-6.433l1.526 2.496c-3.434-1.056-7.154-1.152-11.065-1.056-3.815.096-7.821.48-11.827 0v-.48c3.911-.576 7.631-1.536 11.541-2.304 2.003-.384 4.006-.576 6.01-.768 2.098-.096 4.196 0 6.295.48l1.908.384-.382 2.112c-.286 1.632-.954 3.265-1.717 4.609s-1.621 2.688-2.384 3.84c-1.717 2.4-3.148 4.416-4.102 6.816-1.049 2.401-1.622 4.801-2.003 7.393-.286 2.592-.286 5.376-.382 8.256l-.477 17.09c-.286 5.664-.572 11.424-.476 17.089 0 5.664.381 11.329 1.049 16.993s1.335 11.329 1.717 16.993c.286 5.665.477 11.329.572 17.089.095 5.665.095 11.425-.286 17.09l-.477.096zm-28.52-201.134c1.24 2.784 1.908 5.664 2.289 8.544l.477 4.321c.095 1.44.095 2.88 0 4.32l-1.049 8.64c-.096 2.881.286 5.761.858 8.545l.859 4.224c.191.672.286 1.344.381 2.113l.286 2.304c.287 2.976.191 5.952.096 8.736-.191 2.784-.286 5.473-.096 8.161 0 .288.096.672.096.96v.576c0 .288.095.576 0 .864 0 1.056-.382 1.92-.859 2.592-.858 1.44-1.907 2.496-3.147 3.36l-.382-.288c.572-1.344 1.049-2.688 1.24-3.936.096-.576.096-1.152 0-1.536 0-.096-.095-.192-.095-.192s-.096-.096-.096-.192l-.095-.288c-.191-.384-.286-.768-.382-1.056-1.049-2.976-1.24-6.145-1.24-9.025 0-2.976.382-5.76.477-8.448v-4.225c0-1.44.191-2.88.287-4.416.286-2.88.476-5.76.19-8.641-.19-2.88-1.049-5.76-1.43-8.544a32.82 32.82 0 0 1-.287-4.32l.096-4.321c.095-2.88.286-5.76.954-8.64l.572-.192z"/><path d="M170.894 227.012l-5.246-22.082-1.24-5.568-1.145-5.568-1.049-5.665-.763-5.664c-.763-7.585-.763-15.361-.573-22.946s.859-15.265 2.29-22.849l1.335 1.824-10.874.48-5.437.096c-1.812 0-3.529 0-5.055.288-1.526.192-2.957.768-3.911 1.44-.954.768-1.717 1.824-2.003 3.072-.381 1.248-.381 2.88-.191 4.416.191 1.633.573 3.265.954 4.897l.668 2.592.668 2.688c.477 1.728.858 3.552 1.24 5.377l1.144 5.376c.286 1.824.668 3.648.954 5.376 1.145 7.201 1.812 14.497 1.812 21.89l-.477.096-4.96-21.122-2.861-10.368-1.526-5.185-1.622-5.184c-.572-1.824-.954-3.744-1.24-5.664-.19-2.017-.286-4.129.382-6.337.572-2.208 2.098-4.32 4.006-5.664 2.003-1.344 4.197-1.92 6.2-2.112s3.911-.096 5.723-.096l5.437.192 10.778.672 1.908.096-.572 1.632c-2.29 7.104-3.53 14.593-3.53 22.177 0 1.92.191 3.745.287 5.665.19 1.92.477 3.744.667 5.568l.954 5.568 1.049 5.569c.763 3.648 1.431 7.392 2.099 11.137l1.907 11.232c1.145 7.489 2.099 15.073 2.099 22.754l-.286-.096z"/><path d="M174.518 263.11h-.095l-.096-.096c-.095-.096-.19-.096-.286-.192-.191-.096-.286-.288-.477-.384-.286-.288-.667-.576-.954-.768l-1.621-1.728c-.477-.576-.954-1.248-1.336-2.016l-.286-.576c-.095-.192-.095-.192-.19-.48-.096-.192-.096-.384-.096-.576v-.576l.286-1.152c.477-1.44 1.336-2.88 1.622-4.416s.095-3.073-.286-4.609c-.477-1.536-.763-3.072-.954-4.608s-.477-2.976-.477-4.512c.095-3.073.381-6.145 1.526-9.313l.477-.096 1.24 2.208c.382.768.668 1.536.858 2.304.477 1.536.859 3.072.954 4.609.191 1.536 0 3.168-.095 4.704l-.286 2.4-.668 2.304c-.477 1.536-.763 3.072-.763 4.609s.668 3.168.763 4.8v1.344c0 .096 0-.096 0-.096v-.192c0-.192 0-.288-.095-.48 0-.096 0 0 0 .096.095.192.095.288.19.48.287.672.573 1.344.764 2.112a10.22 10.22 0 0 1 .572 2.304c.095.384.095.864.095 1.248v1.248c0 .096 0 .192-.095.288l-.191-.192zM132.93 60.92l1.527 9.601 1.812 9.409.381 9.985c.191 3.264.668 6.528 1.24 9.793l.859 4.896.572 4.897.763 9.792-.191 9.889c-.286 3.552-1.335 6.625-2.003 9.793l-.477.096c-.381-.864-.476-1.728-.572-2.496l-.286-2.497-.477-4.8-1.145-9.697-.19-9.792.095-4.897.382-4.896c.286-3.264.381-6.528-.191-9.793-.477-3.264-1.812-6.24-2.766-9.409-.477-1.536-.859-3.168-1.05-4.8-.286-1.632-.476-3.36-.476-5.088 0-3.456.476-6.817 1.621-9.985h.572zm19.841 16.61c-1.336-6.336-2.099-12.673-2.671-19.009l-.286-4.8c-.096-1.632-.096-3.168-.191-4.8l-.095-2.4c0-.768 0-1.44-.096-2.304-.095-1.536-.191-3.168-.191-4.8a40.46 40.46 0 0 1 0-4.8 42.09 42.09 0 0 1 .287-4.896c.095-.48.095-.864.19-1.344l.096-.576c0-.192.095-.288.095-.48.096-.672.096-1.44.096-2.208 0-1.536-.096-3.168-.191-4.8 0-1.632-.096-3.264.286-4.992.095-.192.095-.48.191-.672s.19-.48.286-.672l.668-1.056c.476-.672.953-1.344 1.43-1.92.954-1.248 1.813-2.592 2.576-3.936s1.335-2.784 1.526-4.128l.858 1.344c-2.003-.384-4.006-.48-5.914-.192-.953.192-1.907.48-2.861.768-1.049.288-2.194.576-3.243.768s-2.194.288-3.339.384-2.193.096-3.433 0c-.573 0-1.336-.096-1.527-.192h-.19c-.096 0-.287.096-.477.192-.859.288-1.813.768-2.766 1.152l1.43-2.592c.477 2.112 1.145 4.32 1.908 6.528l1.145 3.36c.381 1.152.667 2.4.953 3.648.954 4.992.859 10.081.191 14.881-.381 2.4-.763 4.8-1.335 7.105a91.39 91.39 0 0 1-1.717 6.913c-1.24 4.608-2.385 9.121-3.434 13.729h-.477c-.191-4.8.382-9.601.859-14.305l.858-7.008c.096-1.152.286-2.304.382-3.456l.286-3.456c.286-4.608.095-9.121-.668-13.441-.286-1.056-.477-2.112-.763-3.168l-.954-3.36c-.667-2.304-1.335-4.704-1.717-7.2l-.286-2.016 1.812-.576c.764-.288 1.717-.576 2.957-.96a15.66 15.66 0 0 1 1.05-.288 3.13 3.13 0 0 1 1.335 0c.763.096 1.049.192 1.621.192.954.096 1.908.192 2.957.192.954 0 2.003 0 2.957-.096s2.003-.192 2.957-.384c1.049-.096 2.099-.288 3.339-.384 2.384-.096 4.673.384 6.772 1.056l1.145.384-.287.96c-.477 1.728-1.335 3.264-2.193 4.608s-1.908 2.592-2.862 3.84c-.477.672-.954 1.248-1.431 1.92-.19.288-.477.672-.667.96l-.191.384c-.096.192-.096.288-.096.48-.286 1.344-.19 2.976 0 4.512s.477 3.072.764 4.704l.286 2.496v2.4c.095 2.976.667 6.241.954 9.313.19 1.536.286 3.168.381 4.8 0 .768.095 1.632.095 2.496v2.4l-.095 9.505c-.095 6.336-.095 12.673-.572 19.105l-.763.192z"/><path d="M158.494 136.957c-1.145-2.4-1.717-4.8-2.194-7.296-.286-1.248-.477-2.496-.572-3.649-.191-1.248-.287-2.496-.191-3.744l.477-7.584c-.096-2.497-.573-4.897-1.336-7.393a50.56 50.56 0 0 1-1.717-7.296l-1.049-7.393c-.191-2.496-.191-4.992-.095-7.488.191-2.496.381-5.088 1.049-7.585h.477c1.049 2.4 1.621 4.8 2.289 7.296.572 2.4 1.049 4.896 1.336 7.297l.476 7.489c.096 2.496.096 4.992-.19 7.488-.191 2.496-.191 4.992.286 7.489.381 2.496 1.431 4.896 1.908 7.296.286 1.248.381 2.496.476 3.744l.096 3.745c-.096 2.496-.286 4.992-.954 7.584h-.572zm27.184 246.833l5.914-5.472c2.003-1.824 4.292-3.456 6.677-4.704 2.384-1.344 4.864-2.497 7.249-3.553l7.44-3.072c4.96-1.92 10.111-3.552 15.261-4.992 1.24-.384 2.385-.768 3.434-1.248 1.049-.576 2.003-1.344 2.862-2.208.858-.96 1.526-2.017 2.194-3.169s1.24-2.304 1.717-3.552l1.335.48-3.815 12.289c-1.336 4.128-2.671 8.257-4.579 12.289-.954 2.016-2.194 3.936-3.529 5.76-1.431 1.824-2.957 3.457-4.674 4.897-3.434 2.976-7.345 5.376-11.446 7.104s-8.489 2.88-12.877 3.456c-2.194.288-4.388.48-6.581.576-2.099.096-4.293 0-6.391 0h-1.622c-.572 0-1.144-.096-1.43 0-.954.096-2.099.288-3.244.288-.572 0-1.24 0-1.907-.096l-.573-.192-.572-.288c-.191-.192-.381-.288-.572-.48s-.382-.48-.382-.768c-.286-1.056 0-1.728.191-2.304.286-.576.572-1.056.954-1.536.668-.96 1.431-1.728 2.194-2.496l2.194-2.304c1.526-1.824 3.052-3.265 4.578-4.705zm.382.384c-1.527 1.44-3.053 2.977-4.388 4.609s-2.671 3.36-3.625 5.184c-.19.48-.381.864-.477 1.344 0 .192-.095.384-.095.576v.192c0 .096 0 .096.095.096v-.096h.287c.381 0 .763-.096 1.24-.192.953-.192 1.907-.576 3.052-.864.763-.192 1.24-.192 1.717-.288l1.621-.192c2.099-.288 4.197-.48 6.391-.672a62.29 62.29 0 0 0 6.105-.864c4.006-.672 8.012-1.728 11.732-3.168s7.344-3.36 10.492-5.857 5.819-5.472 8.108-8.928 4.101-7.297 5.723-11.233 3.052-7.969 4.197-12.097l1.335.48c-1.049 2.496-2.003 5.089-3.624 7.393-.859 1.152-1.813 2.304-3.053 3.168s-2.48 1.536-3.815 2.112c-4.96 2.208-9.825 4.224-14.88 5.952-2.48.865-5.055 1.633-7.631 2.401s-5.151 1.344-7.631 2.208c-2.48.768-4.864 1.92-7.058 3.456-1.908 1.632-3.911 3.36-5.818 5.28z"/><path d="M177.57 397.039c.286-.768.668-1.536 1.145-2.208s.954-1.152 1.526-1.728c1.145-.96 2.385-1.92 3.815-2.304s3.053-.288 4.484-.768c1.335-.384 2.575-1.248 3.719-2.208s2.29-1.92 3.53-2.592l1.812-1.153c.572-.384 1.145-.672 1.812-.96 2.48-1.152 4.96-2.016 8.108-2.784l.286.384c-1.144 3.072-3.434 5.377-6.009 6.913-.668.384-1.335.672-2.003.96s-1.431.48-2.099.672-1.43.48-2.098.576c-.763.192-1.431.192-2.194.288-1.526.096-2.861.48-4.101 1.152-.573.384-1.145.864-1.717 1.344s-1.05 1.056-1.622 1.536-1.144.768-1.717 1.056-1.24.576-1.907.768c-.668.288-1.336.48-2.004.672s-1.43.384-2.289.48l-.477-.096zm-35.291-7.583c-2.099-1.345-4.483-2.401-6.963-3.169-2.385-.768-4.865-1.344-7.44-1.824-5.056-.96-10.111-1.632-15.071-3.072-5.055-1.344-10.015-3.456-14.403-6.528-4.388-2.977-8.298-6.817-11.065-11.329l1.335-.48c.572 4.032 1.812 7.872 3.434 11.617s3.625 7.296 5.723 10.752 4.101 6.913 6.772 9.313 6.2 4.128 9.92 5.376c3.624 1.344 7.344 2.208 11.16 2.4 3.72.192 7.535-.288 11.255-1.248 1.908-.48 3.72-1.152 5.628-1.824 2.003-.96 4.101-1.248 5.532-2.208.763-.48.954-.96.668-1.824s-.954-1.632-1.622-2.4c-1.431-1.248-3.147-2.4-4.864-3.552zm.286-.384c1.717 1.056 3.434 2.208 5.055 3.552.763.672 1.526 1.44 2.194 2.496a3.18 3.18 0 0 1 .382 1.92c-.096.672-.573 1.248-.954 1.728-.859.864-1.813 1.44-2.766 1.92-.477.288-.954.48-1.336.768-.191.096-.381.192-.572.384l-.668.48c-1.717 1.152-3.624 2.209-5.628 3.073-3.91 1.824-8.393 2.592-12.781 2.592a35.3 35.3 0 0 1-12.686-2.688c-3.911-1.633-7.917-3.649-11.16-6.913s-5.151-7.296-6.772-11.041c-1.717-3.84-3.148-7.68-4.483-11.616-1.24-3.937-2.385-7.969-3.052-12.097l-.572-3.36 1.908 2.784c1.431 2.112 3.148 3.936 5.055 5.472s4.102 2.784 6.295 3.84c4.483 2.112 9.157 3.649 13.927 5.185 4.769 1.44 9.729 3.072 14.498 5.088 2.385.96 4.769 2.016 7.154 3.072 2.48.864 4.769 1.92 6.963 3.361z"/><path d="M149.432 397.424c-1.717.384-3.243.384-4.769.288l-2.194-.384c-.763-.192-1.431-.384-2.098-.768-1.336-.672-2.576-1.824-3.911-2.4-1.431-.576-2.862-.672-4.483-.672-1.526.096-3.053.096-4.579-.192l-4.387-.768c-1.431-.384-2.766-.96-4.197-1.632-.668-.384-1.336-.672-2.003-1.152-.668-.384-1.336-.865-2.003-1.441l.095-.48c1.622-.48 3.148-.672 4.769-.672 1.526 0 3.053.096 4.483.384s2.862.768 4.293 1.344c.667.289 1.43.481 2.098.865.668.288 1.335.768 2.003 1.152 1.335.864 2.671 1.44 4.197 1.728 1.431.288 3.148-.096 4.674 0 .763.096 1.526.192 2.194.48l2.098.864c1.335.672 2.671 1.536 3.815 2.88l-.095.576zm54.465-168.204l2.957-1.632 2.861-1.824c1.812-1.248 3.434-2.88 4.578-4.513l2.099-3.168.191 4.129c.095 2.304.095 4.512-.096 6.816s-.572 4.512-1.24 6.816c-.572 2.209-1.526 4.417-2.575 6.529s-2.385 4.032-3.815 5.856c-2.862 3.649-6.105 6.817-10.016 9.313-1.907 1.248-4.101 2.208-6.295 2.88-1.049.384-2.194.672-3.243 1.056-.477.192-1.145.384-1.431.48l-1.431.576c-.954.48-2.003.96-3.052 1.344s-2.194.864-3.529 1.056c-.668.096-1.431.192-2.48 0-.573-.192-1.145-.384-1.717-.96a3.28 3.28 0 0 1-1.049-1.824c-.286-1.152-.096-2.016 0-2.688s.286-1.248.477-1.92c.763-2.4 1.907-4.512 3.147-6.528s2.576-3.745 3.911-5.569c1.431-1.824 2.957-3.552 4.674-5.184a59.96 59.96 0 0 1 5.437-4.321c3.815-2.4 7.726-4.512 11.637-6.72zm.286.48c-3.911 2.112-7.249 5.184-10.016 8.545-1.43 1.632-2.766 3.36-4.101 5.088s-2.575 3.456-3.815 5.184l-3.625 5.377c-1.145 1.824-2.194 3.552-2.957 5.376-.191.48-.286.864-.477 1.344-.095.384-.095.672-.191.576 0 0-.095-.288-.286-.384s-.286-.192-.286-.192.382.096.763 0c.859-.096 1.812-.288 2.862-.576l3.147-.96c.573-.192 1.145-.288 1.717-.48.668-.192 1.145-.192 1.717-.288 1.145-.192 2.194-.288 3.243-.48 2.099-.384 4.197-.864 6.105-1.824 3.815-1.92 7.058-5.184 9.061-9.025 2.099-3.84 3.053-8.064 4.006-12.193l2.767-12.768 2.289 1.056c-1.908 1.632-4.006 2.688-6.009 3.648l-3.053 1.44c-.954.48-1.907.96-2.861 1.536z"/><path d="M175.949 263.014c.573-1.344 1.145-2.4 1.813-3.36.381-.48.667-.96 1.144-1.44.382-.48.859-.864 1.431-1.248 1.049-.672 2.48-.96 3.529-1.728.954-.768 1.717-1.824 2.289-2.976l.859-1.728c.286-.576.667-1.056 1.049-1.536.763-.961 1.526-2.017 2.48-2.785s2.003-1.536 3.148-2.112 2.384-1.152 3.815-1.44l.286.384c-.286 1.44-.858 2.688-1.526 3.84s-1.335 2.113-2.194 3.073-1.812 1.632-2.861 2.4c-.477.384-.954.768-1.526 1.056l-1.717.864c-1.24.576-2.29 1.248-3.053 2.208s-1.144 2.4-1.812 3.456c-.381.576-.763.96-1.24 1.44-.477.384-1.049.768-1.621 1.152-1.145.673-2.576 1.249-4.102 1.057l-.191-.577zM104.793 105.18c-2.385-1.056-4.674-2.305-6.868-3.649s-4.388-2.88-6.391-4.512c-2.099-1.632-4.006-3.36-5.914-5.184s-3.625-3.744-5.342-5.76l3.72-1.728c.954 5.376 2.003 10.753 3.243 16.129s2.861 10.753 5.151 15.745c1.145 2.497 2.48 4.897 4.197 7.009 1.622 2.112 3.721 3.936 6.01 5.28 2.289 1.44 4.769 2.496 7.249 3.36s5.055 1.537 7.726 2.017c2.575.48 5.246.768 7.917.864 1.335.096 2.575 0 4.101.096 1.336.096 2.671.096 3.625-.096.477-.096.859-.288.763-.288 0 0-.095.096-.095.192l-.096.192v-.096a4.25 4.25 0 0 0-.286-1.344c-.191-.576-.381-1.152-.667-1.729-.477-1.248-1.05-2.4-1.622-3.84l-.191-.576-.095-.288-.096-.288-.286-.96c-.19-.672-.477-1.248-.667-1.824-.477-1.248-.954-2.304-1.622-3.264a14.84 14.84 0 0 0-2.289-2.592c-1.812-1.633-4.197-2.881-6.677-4.129-5.151-2.304-10.111-5.184-14.498-8.736l.286-.384a131.3 131.3 0 0 0 15.357 6.144c2.67.96 5.341 2.016 7.916 3.84 1.24.96 2.48 2.016 3.434 3.361s1.717 2.688 2.29 4.032l.858 2.016.382.96.095.288.095.192.191.384c.572 1.152 1.145 2.496 1.717 3.84.286.672.572 1.44.763 2.209s.477 1.536.572 2.688c0 .288 0 .672-.095.96-.095.384-.191.864-.382 1.248-.381.672-.858 1.344-1.43 1.728-1.145.768-2.194 1.056-3.053 1.152-1.812.288-3.243.096-4.673 0-1.24-.096-2.767-.096-4.197-.288-2.862-.288-5.723-.672-8.49-1.44a39.99 39.99 0 0 1-15.452-7.489c-1.144-.864-2.194-1.92-3.148-2.976s-1.908-2.208-2.671-3.36-1.526-2.4-2.194-3.648-1.335-2.496-1.908-3.745c-2.385-5.088-4.769-10.176-6.868-15.457-2.003-5.28-3.625-10.752-4.388-16.417l-1.049-7.776 4.769 6.048c1.526 2.016 3.243 3.84 4.865 5.76l5.246 5.472c1.812 1.728 3.625 3.552 5.628 5.184 1.908 1.728 3.911 3.36 5.914 4.993l-.381.48z"/><path d="M133.408 136.381c-1.717.288-3.148.096-4.674-.288-1.431-.384-2.862-.864-4.006-1.824s-2.003-2.4-3.243-3.264c-1.145-.864-2.48-1.44-4.006-1.824-.763-.192-1.431-.48-2.194-.768-.668-.288-1.336-.672-2.003-1.056-1.336-.768-2.576-1.536-3.625-2.496-1.049-1.056-2.098-2.112-2.957-3.361a14.4 14.4 0 0 1-2.003-4.224l.382-.384c.763.192 1.526.48 2.194.768l2.003.96c.667.288 1.24.672 1.812 1.056l1.717 1.152c1.144.864 2.098 1.824 3.147 2.785s2.004 2.016 2.862 3.168c.477.576.954 1.152 1.526 1.632s1.145.864 1.812 1.152 1.336.48 2.099.576l2.194.384c.667.192 1.335.48 1.907.864l1.813 1.152c.572.384 1.144.864 1.717 1.44.572.48 1.049 1.056 1.526 1.824v.576zM96.78 125.725l-6.009 4.705c-2.003 1.536-4.197 2.976-6.677 4.128-1.24.576-2.575 1.056-4.006 1.248s-2.862.192-4.197.096c-2.671-.288-5.055-.96-7.535-.576l.286-1.344c1.526 1.248 3.529 1.728 5.532 2.304l6.105 1.248 6.009 1.152c2.003.384 3.911.576 5.914.768 1.908.192 3.911.288 5.818.288s3.815-.096 5.723-.384c.954-.096 2.003-.288 2.957-.48l2.957-.576c1.908-.384 3.72-.864 5.151-2.4l.381.192c-.286 1.056-.954 2.112-1.812 2.88s-1.812 1.344-2.766 1.92l-2.957 1.344-3.052 1.153c-2.099.672-4.293 1.152-6.487 1.344s-4.483 0-6.581-.288c-2.194-.384-4.292-.864-6.295-1.44s-4.006-1.345-5.914-2.209l-5.723-2.688c-1.908-.864-3.911-1.536-5.818-2.784l-1.431-.96 1.812-.384c2.575-.576 5.246-.768 7.631-1.248.572-.096 1.145-.192 1.717-.384.572-.096 1.049-.288 1.621-.48l3.243-1.152c2.194-.864 4.388-2.016 6.677-3.073s4.865-2.016 7.44-2.304l.286.384zm8.298 6.432c.096.48 0 .96-.095 1.248-.095.385-.191.673-.382.865-.286.48-.667.864-1.24.864-.572-.096-1.335-.576-1.812-.48-.477 0-.858.48-1.144 1.056-.191.288-.287.576-.477.864s-.382.384-.572.576c-.382.288-.858.672-1.431.672-.477.096-1.049-.096-1.622-.288-.572-.288-1.145-.672-1.717-1.344l-.095-.48c.382-.864.668-1.44 1.049-1.824.381-.481.668-.769 1.145-.961.382-.192.858-.096 1.335-.096s.954.192 1.526.48 1.145.288 1.431 0c.381-.288.477-1.248.668-1.728.095-.288.286-.384.476-.384.191-.096.477-.096.668-.096.286 0 .572.096.859.192s.667.288 1.144.48l.286.384z"/></g></svg>