<svg width="320" height="690" viewBox="0 0 320 690" fill="none" xmlns="http://www.w3.org/2000/svg">
<g opacity="0.2" clip-path="url(#clip0)">
<path d="M396.152 36.4714C388.13 39.0589 380.354 41.8929 372.578 44.9732C368.752 46.575 364.926 48.1768 360.977 49.6554C357.151 51.2571 353.201 52.6125 349.251 53.9679C341.352 56.6786 333.453 59.6357 325.678 62.5929C317.902 65.6732 309.879 68.3839 302.721 72.5732V72.6964C310.25 69.1232 318.272 66.7821 326.048 63.7018C333.824 60.7446 341.599 57.6643 349.375 54.5839C353.201 52.9821 357.151 51.5036 361.1 50.025C365.05 48.5464 368.999 47.3143 372.949 45.8357C380.724 43.0018 388.5 39.9214 396.152 36.4714Z" fill="url(#paint0_linear)"/>
<path d="M412.197 164.861C410.469 162.396 408.124 160.425 405.779 158.577C403.434 156.729 401.089 154.757 398.744 153.032L384.427 142.066C379.737 138.37 374.923 134.796 370.48 130.73C368.259 128.759 366.16 126.664 364.062 124.446C361.964 122.352 359.989 120.011 357.644 118.162C355.299 116.314 352.707 114.712 350.239 112.987C347.77 111.262 345.425 109.414 343.08 107.566C338.39 103.746 333.7 100.05 329.01 96.3535C319.63 88.9607 310.126 81.5678 300.499 74.4214L300.376 74.5446C309.509 82.3071 318.889 89.9464 328.269 97.3392C332.959 101.159 337.65 104.732 342.463 108.429C344.808 110.277 347.277 112.125 349.745 113.727C352.213 115.452 354.929 116.807 357.274 118.655C359.619 120.504 361.717 122.598 363.815 124.693C365.913 126.787 368.135 128.882 370.233 130.977C374.677 135.043 379.12 138.986 383.81 142.805C388.5 146.625 393.313 150.075 398.127 153.771L405.409 159.07C407.754 160.795 410.099 162.643 412.197 164.861Z" fill="url(#paint1_linear)"/>
<path d="M266.805 0.985718C269.026 7.02322 271.495 13.0607 274.21 18.8518C275.568 21.8089 277.049 24.6429 278.406 27.6C279.764 30.5572 280.998 33.5143 282.233 36.4714C284.701 42.5089 287.54 48.3 290.502 53.9679C293.464 59.6357 296.426 65.4268 299.018 71.3411H299.142C297.29 65.0572 294.575 59.1429 291.736 53.3518L287.293 44.7268L282.85 36.1018C281.369 33.2679 280.011 30.3107 278.777 27.3536C277.543 24.3964 276.432 21.3161 275.197 18.3589C272.729 12.5679 270.014 6.65358 266.805 0.985718Z" fill="url(#paint2_linear)"/>
<path d="M298.524 72.6965C294.822 70.2322 292.23 66.659 289.144 63.4554C286.182 60.2518 283.096 57.0483 279.764 54.0911C276.555 51.134 273.099 48.3 269.767 45.3429C266.434 42.509 263.102 39.5518 259.893 36.5947C253.351 30.6804 246.563 25.0125 240.022 19.0983L235.085 14.6625L230.395 10.1036C227.186 7.02325 223.73 4.06611 219.78 2.2179V2.34111C227.433 6.90004 232.369 14.5393 239.281 20.2072C242.49 23.2875 245.946 26.1215 249.278 28.9554C252.611 31.7893 256.067 34.6233 259.523 37.334C262.978 40.1679 266.311 43.0018 269.643 45.959C272.976 48.9161 276.061 51.9965 279.147 55.0768C282.356 58.1572 285.442 61.2375 288.527 64.4411C291.613 67.1518 294.575 70.725 298.524 72.6965Z" fill="url(#paint3_linear)"/>
<path d="M297.537 74.4215C284.948 70.3554 271.988 67.3982 258.906 64.8107C252.364 63.5786 245.823 62.4697 239.405 61.2375C232.863 60.0054 226.445 58.65 219.904 57.2947C206.944 54.5839 193.985 51.8732 180.902 49.6554C167.819 47.3143 154.736 45.2197 141.53 43.7411V43.8643C154.613 46.2054 167.572 48.5464 180.655 50.8875C193.738 53.2286 206.697 55.6929 219.78 58.0339C226.322 59.1429 232.863 60.375 239.281 61.7304C245.823 62.9625 252.241 64.4411 258.782 65.7965C271.742 68.5072 284.701 71.2179 297.537 74.4215Z" fill="url(#paint4_linear)"/>
<path d="M185.962 0.739319C182.013 3.69646 178.187 7.02325 174.484 10.35C172.633 12.075 170.905 13.9232 169.053 15.525C167.202 17.25 165.351 18.8518 163.376 20.4536C161.401 22.0554 159.55 23.6572 157.575 25.259C155.724 26.8607 153.749 28.4625 152.021 30.3107C148.442 33.7607 144.862 37.334 141.53 41.0304L141.653 41.1536C145.603 38.0732 149.306 34.7465 153.008 31.4197C156.588 27.9697 160.29 24.6429 163.87 21.1929C165.598 19.4679 167.449 17.7429 169.3 16.1411C171.152 14.5393 173.126 12.9375 175.101 11.3357C178.927 8.00896 182.63 4.55896 185.962 0.739319Z" fill="url(#paint5_linear)"/>
<path d="M152.885 0.492859C150.91 3.45 149.799 6.9 149.059 10.2268C148.688 11.9518 148.565 13.6768 148.318 15.4018C148.071 17.1268 147.578 18.8518 147.084 20.4536C146.096 23.7804 144.986 27.1071 143.751 30.3107C142.641 33.6375 141.53 36.8411 140.666 40.2911H140.789C142.394 37.2107 143.875 34.0071 144.986 30.6804C146.096 27.3536 147.084 24.0268 147.701 20.5768C147.948 18.8518 148.318 17.1268 148.688 15.4018C149.059 13.6768 149.552 12.075 150.046 10.35C151.033 7.14643 151.897 3.81964 152.885 0.492859Z" fill="url(#paint6_linear)"/>
<path d="M144.862 0.862488C144.245 4.18927 143.875 7.39284 143.752 10.7196C143.752 12.3214 143.752 14.0464 143.752 15.6482C143.628 17.25 143.505 18.975 143.258 20.5768C142.764 23.9036 142.27 27.1071 141.9 30.4339C141.53 33.7607 141.16 36.9643 140.913 40.2911H141.036C142.024 37.0875 142.764 33.8839 143.258 30.5571C143.628 27.2303 143.998 23.9036 143.998 20.5768C143.998 18.975 144.122 17.25 144.245 15.6482C144.369 14.0464 144.739 12.3214 144.862 10.7196C144.986 7.51606 145.109 4.18927 144.862 0.862488Z" fill="url(#paint7_linear)"/>
<path d="M78.3369 0.616089C77.8432 2.34109 76.8558 3.81966 75.8684 5.29823C74.8811 6.7768 73.8937 8.25537 73.0297 9.85716C72.1657 11.4589 71.4252 13.0607 70.5612 14.6625C69.6973 16.2643 68.7099 17.7429 67.7225 19.2214C65.7477 22.1786 63.8964 25.2589 62.1684 28.3393C60.4405 31.5429 58.836 34.7464 57.4784 38.0732H57.6018C59.5765 35.1161 61.4279 32.0357 63.2793 28.9554C65.0072 25.875 66.7351 22.6714 68.3396 19.4679C69.2036 17.8661 69.9441 16.2643 70.9315 14.7857C71.9189 13.3072 72.9063 11.8286 73.8937 10.35C74.8811 8.87144 75.745 7.26966 76.609 5.79109C77.5964 4.1893 78.3369 2.4643 78.3369 0.616089Z" fill="url(#paint8_linear)"/>
<path d="M46.1237 0.492859C45.6301 2.21786 46.0003 3.94286 46.3706 5.54464C46.7409 7.14643 47.2345 8.74822 47.8517 10.35C48.4688 11.9518 49.2093 13.4304 49.703 14.9089C50.1967 16.5107 50.567 18.1125 50.8138 19.7143C51.0607 23.0411 51.3075 26.3679 52.048 29.5714C52.7886 32.775 53.8994 35.9786 55.3805 39.0589H55.5039C54.7634 35.8554 53.8994 32.6518 53.2823 29.4482C52.912 27.8464 52.6652 26.2446 52.4183 24.6429C52.1715 23.0411 51.9246 21.3161 51.5544 19.7143C51.1841 18.1125 50.6904 16.5107 50.1967 14.9089L48.9625 10.1036C48.4688 8.50179 47.9751 7.02322 47.4814 5.42143C46.8643 3.69643 46.2472 2.09464 46.1237 0.492859Z" fill="url(#paint9_linear)"/>
<path d="M298.401 79.35C287.416 90.8089 277.295 102.884 267.422 115.329C264.953 118.409 262.608 121.612 259.893 124.446C257.177 127.28 254.339 130.114 251.623 132.948C248.908 135.782 246.316 138.862 243.971 142.066C241.626 145.27 239.404 148.473 237.059 151.8C227.926 164.614 217.805 176.936 208.055 189.257C205.586 192.337 202.995 195.295 200.279 198.129C197.564 200.962 194.355 203.304 191.393 206.014C185.468 211.436 181.642 218.582 175.595 223.757L175.718 223.88C182.013 218.952 186.086 211.929 192.01 206.754C194.972 204.166 198.181 201.825 201.02 199.114C203.859 196.404 206.45 193.323 209.042 190.243C218.916 177.921 228.79 165.477 237.677 152.416C242.12 145.886 246.316 139.109 251.994 133.564C254.709 130.73 257.671 128.02 260.386 125.186C263.225 122.475 265.694 119.271 268.286 116.314C273.346 110.277 278.159 103.993 283.22 97.9553C288.28 91.425 293.341 85.3875 298.401 79.35Z" fill="url(#paint10_linear)"/>
<path d="M139.802 46.6982C142.517 61.484 145.603 76.1465 148.812 90.809C150.416 98.0786 152.268 105.471 153.872 112.741C155.477 120.011 156.958 127.404 158.439 134.796C161.277 149.582 164.363 164.245 167.449 178.907C170.411 193.57 173.25 208.355 175.348 223.264H175.471C174.237 208.232 171.768 193.446 168.806 178.661C167.325 171.268 165.721 163.998 164.116 156.605C162.512 149.213 160.907 141.943 159.179 134.673C157.451 127.404 155.847 120.011 154.366 112.618C152.761 105.225 151.404 97.8322 149.923 90.5625C146.714 75.9 143.505 61.3607 139.802 46.6982Z" fill="url(#paint11_linear)"/>
<path d="M301.61 79.2268C304.819 85.6339 306.3 92.5339 308.151 99.3107C309.139 102.761 310.25 106.088 311.114 109.538C312.101 112.988 312.965 116.438 313.829 119.888C315.557 126.788 317.532 133.564 319.63 140.341C321.851 147.118 324.196 153.771 326.912 160.425H327.035C325.06 153.525 322.962 146.748 320.987 139.971L314.569 119.641C313.459 116.314 312.471 112.864 311.607 109.414C310.743 105.964 310.003 102.514 309.262 99.0643C308.398 95.6143 307.534 92.1643 306.423 88.7143C305.066 85.3875 303.708 82.0607 301.61 79.2268Z" fill="url(#paint12_linear)"/>
<path d="M324.813 159.932C317.285 154.757 309.756 149.582 302.227 144.53C294.698 139.479 287.046 134.427 279.394 129.498C271.741 124.57 263.966 119.764 256.19 115.082C248.414 110.4 240.639 105.595 232.74 101.159L220.891 94.3822L214.967 90.9322C212.992 89.7001 211.141 88.5911 209.166 87.359C201.513 82.4304 194.108 77.1322 186.579 71.9572C182.753 69.3697 179.05 66.7822 175.224 64.4411C171.398 61.9769 167.449 59.759 163.376 57.5411C155.353 53.1054 147.207 49.0394 138.814 45.5894V45.7126C147.084 49.6554 155.106 53.7215 163.005 58.4036C170.904 62.9626 178.433 68.0144 185.962 73.1894C193.491 78.3644 200.896 83.6626 208.672 88.4679C210.647 89.7001 212.498 90.9322 214.473 92.0411L220.521 95.3679L232.493 101.898C240.515 106.211 248.414 110.77 256.067 115.698C263.842 120.504 271.371 125.555 278.9 130.607C294.081 140.341 309.386 150.322 324.813 159.932Z" fill="url(#paint13_linear)"/>
<path d="M322.222 162.643C310.496 168.804 298.154 173.362 285.688 177.798C279.517 180.016 273.223 182.234 267.051 184.329C260.757 186.546 254.586 188.518 248.414 190.859C242.243 193.2 236.072 195.787 230.148 198.745C224.223 201.702 218.423 204.659 212.375 207.493C200.526 213.161 188.307 218.212 176.212 223.634V223.757C188.554 219.198 200.896 214.393 212.869 208.725C218.916 205.891 224.717 202.811 230.518 199.854C236.319 196.896 242.367 194.186 248.414 191.598C254.462 189.134 260.757 186.793 267.051 184.821C273.346 182.727 279.641 180.879 285.935 178.784C298.524 174.471 310.99 169.543 322.222 162.643Z" fill="url(#paint14_linear)"/>
<path d="M323.456 163.875C320.124 169.05 314.816 172.007 310.126 175.95C307.781 177.921 305.436 179.77 303.091 181.618C300.746 183.466 298.031 184.945 295.562 186.67C292.97 188.395 290.625 190.243 288.28 192.214C285.935 194.186 283.59 196.157 281.369 198.129C276.802 202.195 272.359 206.261 268.039 210.45L268.162 210.573C272.976 206.877 277.666 203.057 282.233 199.114C286.799 195.171 291.243 190.982 295.933 187.286C300.746 183.712 305.93 180.386 310.867 176.812C313.335 174.964 315.68 173.116 318.025 171.145C320.124 169.05 322.345 166.709 323.456 163.875Z" fill="url(#paint15_linear)"/>
<path d="M265.2 212.175C257.795 212.914 250.389 213.777 242.984 215.009C235.579 216.241 228.297 218.089 220.768 217.473C218.916 217.35 217.065 217.35 215.09 217.473C213.239 217.596 211.388 217.843 209.536 218.089C205.834 218.582 202.131 219.075 198.428 219.568C191.023 220.677 183.617 221.786 176.335 223.264V223.388C183.741 222.771 191.27 221.909 198.675 220.923C202.378 220.43 206.08 219.814 209.783 219.321C211.634 219.075 213.486 218.705 215.337 218.582C217.188 218.459 219.04 218.336 220.891 218.336C222.743 218.336 224.594 218.213 226.569 218.089C228.42 217.966 230.271 217.72 232.123 217.473C235.825 216.98 239.528 216.611 243.231 216.118C250.513 215.009 257.918 213.777 265.2 212.175Z" fill="url(#paint16_linear)"/>
<path d="M330.738 241.993C325.924 238.912 320.987 236.202 315.927 233.614C313.335 232.382 310.743 231.273 308.275 230.041C305.683 228.809 303.214 227.454 300.746 226.221C295.809 223.511 290.749 221.046 285.565 218.705C280.381 216.364 275.197 214.27 269.89 212.298V212.421C274.95 215.009 280.011 217.473 285.071 219.937C290.255 222.279 295.315 224.62 300.499 226.961C303.091 228.07 305.683 229.302 308.151 230.534C310.62 231.889 313.088 233.245 315.557 234.6C320.494 237.311 325.554 239.775 330.738 241.993Z" fill="url(#paint17_linear)"/>
<path d="M409.976 164.861C404.298 167.571 398.621 170.036 392.696 172.13C386.772 174.225 380.848 175.95 374.8 177.675C362.704 181.125 350.486 184.082 338.513 187.902C332.466 189.75 326.541 191.845 320.617 193.816C314.693 195.787 308.768 197.759 302.721 199.607C290.749 203.304 278.776 206.877 266.681 210.204V210.327C278.9 207.739 291.119 204.536 303.091 200.839C315.063 197.143 326.912 192.707 338.637 188.518C344.561 186.423 350.485 184.575 356.657 182.973C362.704 181.371 368.876 180.139 374.923 178.537C380.971 176.936 387.019 175.211 392.943 172.993C398.867 170.775 404.545 168.064 409.976 164.861Z" fill="url(#paint18_linear)"/>
<path d="M265.324 215.132C260.51 231.889 255.944 248.77 251.624 265.65C249.526 274.152 247.427 282.53 245.329 291.032C243.231 299.534 240.886 307.912 238.541 316.291C233.974 333.171 229.284 349.929 224.964 366.809C222.743 375.187 220.644 383.689 218.546 392.191C216.448 400.693 214.35 409.071 212.252 417.573H212.375C214.844 409.195 217.065 400.816 219.41 392.314C221.755 383.936 223.977 375.557 226.198 367.055C230.642 350.175 234.962 333.295 239.158 316.414C241.256 307.912 243.354 299.534 245.699 291.032C247.921 282.654 250.389 274.275 252.611 265.773C257.178 249.016 261.498 232.136 265.324 215.132Z" fill="url(#paint19_linear)"/>
<path d="M267.792 215.255C269.767 222.771 271.865 230.288 273.717 237.804L274.457 240.638L275.074 243.471L276.185 249.139C276.926 252.959 277.913 256.779 278.9 260.475C279.888 264.295 280.999 267.991 282.233 271.688L285.812 282.777C288.28 290.17 290.749 297.563 293.094 304.955C297.908 319.741 302.104 334.773 306.053 349.805L311.854 372.477C313.706 379.993 315.557 387.632 317.532 395.148H317.655C316.051 387.509 314.446 379.87 312.718 372.354C310.99 364.714 309.262 357.198 307.288 349.559C303.462 334.404 298.895 319.495 293.711 304.832C291.119 297.439 288.527 290.17 286.182 282.654C283.837 275.261 281.739 267.745 279.888 260.105C277.913 252.589 276.679 244.827 274.704 237.311C272.606 230.041 270.261 222.648 267.792 215.255Z" fill="url(#paint20_linear)"/>
<path d="M469.219 290.293C463.171 295.098 457.123 300.027 451.199 305.079C445.275 310.13 439.227 314.936 432.439 318.632C429.106 320.48 425.65 322.452 422.441 324.546C419.232 326.641 416.023 328.982 412.814 331.2C406.396 335.636 399.978 339.948 393.56 344.261C380.724 352.886 367.765 361.511 355.052 370.382C348.634 374.818 342.339 379.254 335.921 383.689C329.627 388.125 323.209 392.561 316.914 397.243L317.038 397.366C323.579 393.177 329.997 388.864 336.415 384.552C342.833 380.239 349.375 375.927 355.669 371.491C368.505 362.743 381.218 353.871 393.807 344.877C400.102 340.441 406.52 335.882 412.938 331.57C416.147 329.352 419.356 327.257 422.688 325.162C426.021 323.068 429.476 321.343 432.809 319.495C436.265 317.646 439.597 315.552 442.683 313.211C445.768 310.87 448.73 308.282 451.693 305.818C457.617 300.766 463.418 295.591 469.219 290.293Z" fill="url(#paint21_linear)"/>
<path d="M317.532 399.83C314.57 405.991 312.101 412.275 309.879 418.805C308.892 422.009 307.905 425.336 306.917 428.539C305.93 431.743 304.943 435.07 303.832 438.273C301.734 444.804 300.006 451.334 298.525 457.987C297.043 464.641 295.439 471.171 292.847 477.455H292.97C296.303 471.418 298.154 464.764 299.759 458.234C301.24 451.58 302.844 445.05 304.449 438.396C305.313 435.07 306.177 431.866 307.288 428.662C308.275 425.459 309.633 422.255 310.743 419.052C313.212 412.768 315.434 406.361 317.532 399.83Z" fill="url(#paint22_linear)"/>
<path d="M292.6 475.238C289.144 473.389 285.688 471.541 282.356 469.57C279.024 467.598 275.815 465.257 272.606 463.039C269.396 460.821 266.187 458.604 262.978 456.263C259.769 453.921 256.684 451.58 253.598 449.116C247.427 444.188 241.256 439.505 234.961 434.823C228.667 430.141 222.249 425.582 215.831 421.146L215.707 421.27C221.755 426.321 227.926 431.127 234.221 435.809C240.515 440.491 246.81 445.173 253.228 449.609C256.437 451.827 259.646 454.168 262.732 456.509C265.817 458.85 268.903 461.438 271.988 463.779C275.074 466.12 278.406 468.338 281.862 470.309C285.318 472.28 288.897 473.882 292.6 475.238Z" fill="url(#paint23_linear)"/>
<path d="M318.642 398.845C322.715 407.223 327.035 415.479 331.478 423.611C333.7 427.677 336.168 431.62 338.39 435.809C340.612 439.875 342.833 444.064 344.931 448.13C349.128 456.386 353.448 464.641 357.891 472.773C362.334 480.905 366.901 489.038 371.591 497.046H371.714C367.641 488.668 363.445 480.413 359.002 472.157C354.682 463.902 350.115 455.77 345.549 447.761C343.204 443.695 340.982 439.629 338.884 435.563C336.662 431.496 334.687 427.307 332.589 423.118C328.022 414.986 323.579 406.854 318.642 398.845Z" fill="url(#paint24_linear)"/>
<path d="M462.061 394.409C460.086 394.779 458.481 395.888 456.877 396.996C455.272 398.105 453.915 399.461 452.31 400.446C449.101 402.541 445.522 404.02 442.066 405.621C435.031 408.825 428.119 412.152 421.084 415.479C414.172 418.805 407.261 422.379 400.225 425.705C393.314 429.032 386.279 432.236 379.243 435.563C365.173 441.97 351.226 448.5 337.279 455.154C330.244 458.48 323.333 461.807 316.544 465.504C309.756 469.2 303.215 473.266 297.167 478.195L297.29 478.318C303.461 473.759 310.126 469.816 317.038 466.243C323.826 462.67 330.861 459.589 337.897 456.263C351.843 449.732 365.79 442.955 379.614 436.179C386.525 432.729 393.437 429.402 400.472 426.198C407.507 422.871 414.543 419.791 421.578 416.588C428.613 413.384 435.525 409.934 442.436 406.607C445.892 404.882 449.471 403.28 452.68 401.063C454.285 399.954 455.643 398.598 457.124 397.366C458.605 396.134 460.209 395.025 462.061 394.409Z" fill="url(#paint25_linear)"/>
<path d="M463.789 394.162C451.693 393.793 439.598 393.67 427.502 393.793C421.454 393.916 415.407 394.162 409.359 394.162C403.311 394.286 397.263 394.162 391.216 394.039C385.168 393.916 379.12 393.916 373.072 393.793C367.025 393.793 360.977 393.793 354.929 393.916C342.834 394.286 330.738 395.395 318.889 398.352V398.475C330.738 396.257 342.834 395.518 354.929 395.148C367.025 394.902 379.12 394.902 391.216 394.532C397.263 394.409 403.311 394.286 409.359 394.409C415.407 394.409 421.454 394.655 427.502 394.655C439.598 394.902 451.693 394.655 463.789 394.162Z" fill="url(#paint26_linear)"/>
<path d="M316.915 399.584C301.116 404.636 285.442 409.934 269.767 415.355C261.991 418.189 254.215 421.023 246.316 423.734C238.541 426.445 230.642 429.155 222.743 431.743C207.068 437.041 191.27 442.093 175.595 447.514C167.696 450.102 159.92 452.936 152.144 455.646C144.369 458.357 136.47 461.068 128.694 464.025V464.148C136.593 461.684 144.492 459.096 152.391 456.509C160.29 453.921 168.189 451.334 175.965 448.747C191.64 443.448 207.315 438.027 222.989 432.359C230.765 429.525 238.541 426.814 246.44 424.104C254.339 421.393 262.238 418.929 270.014 416.218C285.812 411.043 301.487 405.498 316.915 399.584Z" fill="url(#paint27_linear)"/>
<path d="M209.536 417.573C204.229 423.488 197.194 427.184 190.282 431.127C186.826 433.098 183.494 435.07 179.915 437.041C178.187 438.027 176.459 438.889 174.731 439.875C173.003 440.738 171.151 441.6 169.3 442.339C165.721 443.941 162.018 445.42 158.315 446.898C154.613 448.377 150.91 449.732 147.207 451.211C143.505 452.689 139.802 454.168 136.346 456.139C134.618 457.125 132.89 458.111 131.286 459.343C129.681 460.575 128.2 461.807 126.719 463.286L126.842 463.409C132.89 458.234 140.419 455.277 147.701 452.566C155.106 449.855 162.512 446.775 169.547 443.202L174.854 440.491C176.582 439.505 178.31 438.52 180.038 437.657C183.494 435.809 187.073 434.084 190.652 432.236C194.108 430.388 197.564 428.416 200.896 426.075C204.229 423.611 207.315 420.9 209.536 417.573Z" fill="url(#paint28_linear)"/>
<path d="M319.013 396.75C317.285 398.229 315.187 399.091 312.965 399.707C310.743 400.323 308.522 400.57 306.3 400.939C301.857 401.679 297.29 402.418 292.847 403.28C288.404 404.143 283.96 405.129 279.394 405.991C274.951 406.854 270.384 407.593 265.941 408.332C256.931 409.687 247.921 411.289 239.034 412.891C230.024 414.493 221.138 416.341 212.251 418.312V418.436C221.261 417.204 230.271 415.725 239.281 414.123C248.291 412.521 257.178 410.796 266.187 408.948C270.631 408.086 275.074 407.1 279.641 406.361C284.084 405.621 288.651 405.005 293.094 404.266C297.537 403.527 302.104 402.664 306.547 401.802C308.769 401.309 310.99 400.939 313.212 400.323C315.433 399.584 317.532 398.475 319.013 396.75Z" fill="url(#paint29_linear)"/>
<path d="M295.562 475.854C281.616 476.716 267.545 476.716 253.599 475.73C246.563 475.237 239.652 474.498 232.74 473.512C229.284 473.02 225.828 472.527 222.249 472.28C218.793 472.034 215.214 472.034 211.758 472.034C208.302 472.034 204.723 471.911 201.267 471.664C197.811 471.418 194.355 470.802 190.899 470.309L180.532 468.461C177.076 467.845 173.497 467.475 170.041 467.229C156.094 465.996 141.9 466.613 128.2 463.409V463.532C134.989 465.504 141.9 466.489 148.935 467.105C155.971 467.721 162.882 467.968 169.917 468.584C176.829 469.2 183.741 470.432 190.653 471.541C194.108 472.034 197.564 472.527 201.144 472.773C204.723 473.02 208.179 472.896 211.635 472.773C225.705 471.788 239.405 475.73 253.352 476.839C267.422 477.825 281.616 477.702 295.562 475.854Z" fill="url(#paint30_linear)"/>
<path d="M374.677 498.032C367.888 496.8 361.224 495.198 354.682 493.104C351.35 492.118 348.141 491.009 344.932 489.777C341.599 488.668 338.143 488.298 334.811 487.805C328.023 486.82 321.234 485.587 314.57 483.986C307.905 482.507 301.24 480.536 294.698 478.564V478.687C300.993 481.521 307.658 483.616 314.323 485.341C321.111 486.943 327.899 488.052 334.811 488.545C338.267 488.791 341.723 489.037 344.932 490.27C346.536 490.886 348.141 491.502 349.745 492.241C351.35 492.98 352.954 493.596 354.559 494.089C360.853 496.307 367.765 497.786 374.677 498.032Z" fill="url(#paint31_linear)"/>
<path d="M292.23 479.18C292.6 484.355 293.217 489.654 293.711 494.829C293.958 497.416 294.081 500.004 293.958 502.591C293.835 505.179 293.588 507.766 293.464 510.354C293.094 515.529 292.971 520.827 292.6 526.002C292.353 531.177 291.983 536.475 291.613 541.65C290.872 552.123 290.502 562.596 290.502 573.07C290.502 583.543 290.872 594.016 291.613 604.489H291.736L291.86 573.07L291.983 557.421L292.23 541.65C292.353 536.352 292.6 531.177 292.971 526.002C293.341 520.827 293.958 515.529 294.452 510.354C294.698 507.766 294.945 505.179 295.069 502.468C295.192 499.88 294.945 497.17 294.698 494.582C293.958 489.53 293.217 484.355 292.23 479.18Z" fill="url(#paint32_linear)"/>
<path d="M293.217 477.455C287.663 481.398 282.603 486.08 278.283 491.255C276.061 493.843 274.087 496.677 271.988 499.264C270.878 500.496 269.767 501.729 268.533 502.837C267.298 503.946 265.941 504.932 264.583 505.918C261.868 507.889 258.906 509.737 256.437 512.079C253.969 514.42 251.747 517.007 249.649 519.718C245.452 525.139 241.873 530.807 237.553 536.105C235.455 538.693 233.11 541.157 230.518 543.375C227.926 545.593 225.211 547.441 222.496 549.536C219.78 551.63 217.065 553.848 214.967 556.559C212.745 559.27 210.894 562.104 208.796 564.691C206.697 567.279 204.229 569.62 201.761 571.961L194.355 578.861C189.418 583.543 184.481 588.225 179.544 592.907L179.668 593.03C184.852 588.595 189.912 584.159 194.972 579.6L202.625 572.823C205.216 570.605 207.685 568.141 209.906 565.554C212.128 562.843 213.979 560.009 216.078 557.421C218.176 554.834 220.644 552.616 223.36 550.521C226.075 548.427 228.79 546.455 231.382 544.237C233.974 541.896 236.196 539.309 238.294 536.598C242.49 531.177 245.946 525.386 250.143 520.087C252.241 517.377 254.586 514.912 257.054 512.695C259.646 510.477 262.485 508.752 265.324 506.78C268.162 504.932 270.878 502.591 272.976 499.88C275.074 497.17 277.049 494.336 279.147 491.748C283.22 486.573 288.034 481.891 293.217 477.455Z" fill="url(#paint33_linear)"/>
<path d="M127.583 467.598C130.298 472.527 132.273 477.825 134.371 483.123C136.346 488.421 138.444 493.72 140.542 498.895C142.641 504.07 144.986 509.245 147.084 514.543C149.182 519.718 151.157 525.016 153.132 530.314C157.081 540.911 161.031 551.507 165.227 561.98C169.424 572.454 173.62 582.927 178.187 593.277H178.31C174.484 582.68 170.534 572.084 166.461 561.488C162.388 551.014 158.069 540.541 153.749 530.068C151.527 524.893 149.429 519.595 147.454 514.296C145.356 508.998 143.505 503.7 141.53 498.402C139.555 493.104 137.457 487.929 135.235 482.63C133.014 477.455 130.792 472.28 127.583 467.598Z" fill="url(#paint34_linear)"/>
<path d="M127.089 465.257C130.669 468.091 134.124 471.048 137.58 474.128C139.308 475.607 140.913 477.209 142.394 478.934C143.998 480.536 145.356 482.384 146.96 483.986C149.923 487.436 153.378 490.516 156.958 493.473C160.414 496.43 163.993 499.264 167.572 502.098L189.048 519.225L210.4 536.352C217.559 542.02 224.717 547.687 231.999 553.232C239.281 558.777 246.81 563.952 253.598 570.112C260.263 576.273 266.187 583.173 272.359 589.95C275.444 593.277 278.653 596.604 281.986 599.684C285.441 602.764 289.021 605.598 292.97 607.816L293.094 607.693C285.441 602.764 279.023 596.111 272.976 589.211C266.928 582.311 261.127 575.164 254.339 569.003C247.55 562.843 239.898 557.668 232.616 552.123C225.211 546.702 217.929 541.28 210.647 535.612C203.365 530.068 196.206 524.4 189.171 518.609C182.013 512.818 175.101 506.904 168.066 501.112L157.451 492.364C153.872 489.53 150.54 486.573 147.454 483.123C145.973 481.398 144.368 479.673 142.764 478.071C141.159 476.47 139.432 474.868 137.704 473.389C134.495 470.555 130.792 467.845 127.089 465.257Z" fill="url(#paint35_linear)"/>
<path d="M291.489 606.83C282.356 605.352 273.223 604.12 264.089 603.134C259.523 602.641 254.832 602.271 250.266 602.148C245.699 602.025 241.009 602.148 236.442 601.779C227.309 601.039 218.299 598.698 209.289 596.85C200.279 594.879 191.023 593.277 181.766 594.016V594.139C191.023 594.139 200.033 596.111 209.042 598.082C213.486 599.068 218.052 600.054 222.619 600.916C227.186 601.779 231.752 602.395 236.442 602.518C241.132 602.641 245.699 602.395 250.266 602.641C254.832 602.764 259.399 603.504 263.966 604.12C273.099 605.352 282.233 606.338 291.489 606.83Z" fill="url(#paint36_linear)"/>
<path d="M374.923 496.43C372.331 501.482 368.505 505.671 365.049 510.107C361.594 514.543 358.138 518.979 354.682 523.414C351.349 527.973 348.017 532.532 344.561 536.968C341.229 541.527 337.649 545.839 334.194 550.275C330.614 554.711 327.158 559.023 323.703 563.459C321.975 565.677 320.247 567.895 318.766 570.482C317.285 572.946 316.544 575.78 315.433 578.245C314.199 580.709 312.348 582.804 310.496 584.775C308.522 586.87 306.67 588.964 304.819 591.059C301.116 595.372 297.907 600.054 294.945 604.859L295.068 604.982C298.277 600.423 301.857 595.988 305.559 591.798C307.411 589.704 309.385 587.732 311.36 585.638C313.335 583.666 315.31 581.448 316.544 578.861C317.778 576.273 318.519 573.563 319.876 571.098C321.234 568.634 322.839 566.416 324.567 564.198C328.022 559.763 331.355 555.204 334.687 550.645C338.02 546.086 341.476 541.65 344.931 537.214C348.387 532.779 351.967 528.466 355.422 524.03C358.878 519.595 362.334 515.159 365.667 510.6C369.122 506.164 372.825 501.729 374.923 496.43Z" fill="url(#paint37_linear)"/>
<path d="M408.001 615.579C403.434 609.788 398.991 603.997 394.671 598.082C392.45 595.125 390.351 592.168 388.253 589.211C386.155 586.254 384.057 583.173 381.588 580.339C376.775 574.672 370.48 570.605 365.543 565.184C360.483 559.886 356.163 553.848 351.967 547.811C347.77 541.773 343.697 535.613 339.131 529.821C336.909 526.864 334.317 524.277 331.849 521.566C329.38 518.855 326.788 516.145 324.32 513.434C314.323 502.714 304.819 491.502 295.686 479.92L295.562 480.043C304.078 492.118 313.335 503.577 323.332 514.296L330.861 522.429C333.33 525.139 335.922 527.727 338.267 530.561C342.833 536.229 347.153 542.266 351.473 548.18C355.793 554.095 360.236 560.009 365.296 565.43C367.765 568.141 370.48 570.729 373.196 573.193C375.911 575.657 378.626 578.122 380.848 580.955C383.193 583.789 385.168 586.87 387.389 589.827C389.611 592.784 391.709 595.741 393.931 598.698C398.374 604.489 402.941 610.157 408.001 615.579Z" fill="url(#paint38_linear)"/>
<path d="M410.346 618.659C401.213 615.455 391.586 613.607 381.959 612.498C377.145 612.005 372.332 611.636 367.518 611.143C362.705 610.773 357.891 610.157 353.078 609.664C343.451 608.555 333.824 607.816 324.197 607.2C314.57 606.584 304.819 606.338 295.192 606.461V606.584C304.819 607.323 314.446 607.939 324.073 608.432L352.954 610.28C357.768 610.65 362.581 611.02 367.395 611.513C372.208 612.005 377.022 612.745 381.712 613.484C391.339 614.839 400.843 616.318 410.346 618.659Z" fill="url(#paint39_linear)"/>
<path d="M290.378 609.048C287.663 612.252 284.331 614.593 280.875 616.934C279.147 618.166 277.419 619.275 275.691 620.507C273.963 621.739 272.359 623.095 270.754 624.45C267.545 627.161 264.583 630.118 261.497 632.952C258.412 635.786 255.45 638.62 252.364 641.454C246.193 647.121 240.145 652.789 234.097 658.58C228.05 664.371 222.249 670.286 216.448 676.323L216.571 676.446C222.866 670.902 229.037 665.234 234.961 659.566C241.009 653.775 246.933 647.984 252.734 642.07C255.696 639.113 258.659 636.155 261.744 633.445C264.83 630.611 268.039 628.023 271.371 625.436C274.58 622.848 277.913 620.384 281.369 617.92C284.701 615.209 288.157 612.622 290.378 609.048Z" fill="url(#paint40_linear)"/>
<path d="M179.421 595.248L188.678 615.086C190.282 618.413 191.887 621.616 193.244 625.066C194.725 628.393 195.96 631.843 197.071 635.293C198.305 638.743 199.539 642.193 200.773 645.643C202.131 649.093 203.489 652.42 204.97 655.746C208.055 662.4 211.634 668.807 216.078 674.598L216.201 674.475C212.375 668.314 209.043 661.784 206.204 655.13C203.242 648.477 200.526 641.7 197.688 635.047C194.849 628.393 192.257 621.493 189.542 614.716C186.703 607.939 183.371 601.409 179.421 595.248Z" fill="url(#paint41_linear)"/>
<path d="M215.584 679.896C214.967 687.659 214.597 695.421 214.473 703.307C214.35 707.25 214.473 711.07 214.35 715.013C214.226 718.955 213.98 722.775 213.733 726.718C213.116 734.48 212.622 742.243 212.128 750.005C211.635 757.768 211.264 765.53 211.017 773.416H211.141C212.128 765.654 212.869 757.891 213.362 750.129C213.856 742.366 214.226 734.604 214.35 726.718C214.473 722.775 214.473 718.955 214.72 715.013C214.844 711.07 215.214 707.25 215.461 703.307C215.831 695.545 215.954 687.659 215.708 679.896H215.584Z" fill="url(#paint42_linear)"/>
<path d="M217.805 678.418C220.767 682.361 222.742 686.796 225.087 690.986C226.321 693.08 227.556 695.175 228.79 697.27C230.148 699.364 231.505 701.336 232.863 703.307C235.702 707.25 238.787 711.07 241.873 714.889L251.006 726.348C254.092 730.168 257.054 733.987 260.139 737.807C263.225 741.627 266.187 745.446 269.149 749.266C275.074 757.028 280.751 764.914 285.688 773.293H285.812C281.615 764.545 276.185 756.289 270.26 748.527C264.336 740.764 257.918 733.371 251.5 725.979C248.291 722.282 245.082 718.586 242.12 714.643L239.898 711.686L237.8 708.729C236.319 706.757 234.961 704.786 233.603 702.691C230.888 698.625 228.173 694.559 225.704 690.37C223.483 686.427 221.138 681.991 217.805 678.418Z" fill="url(#paint43_linear)"/>
<path d="M327.529 754.934C319.877 746.555 310.62 739.902 300.993 734.111C296.179 731.277 291.119 728.689 286.182 725.855C281.245 723.145 276.432 720.188 271.618 717.354C269.273 715.875 266.928 714.273 264.706 712.672C262.485 710.947 260.386 709.098 258.288 707.25C256.19 705.402 254.215 703.43 252.117 701.459C250.019 699.611 247.674 697.886 245.329 696.284C240.639 693.08 235.702 690.37 230.888 687.413C226.075 684.455 221.508 681.252 217.559 677.186L217.435 677.309C221.138 681.622 225.704 685.072 230.395 688.275C235.085 691.355 240.022 694.189 244.588 697.393C249.278 700.473 253.351 704.293 257.548 708.113C259.646 709.961 261.744 711.809 264.089 713.534C266.434 715.259 268.779 716.614 271.248 718.093C281.122 723.514 290.872 729.182 300.376 735.22C305.189 738.177 309.879 741.257 314.446 744.584C319.013 747.541 323.332 751.114 327.529 754.934Z" fill="url(#paint44_linear)"/>
<path d="M408.125 619.029C392.079 623.341 376.158 627.9 360.236 632.582C352.337 635.046 344.438 637.511 336.415 639.852C328.516 642.316 320.494 644.534 312.471 646.752C296.426 651.311 280.505 655.746 264.583 660.552C256.561 662.893 248.661 665.357 240.762 667.821C232.863 670.286 224.841 672.627 216.942 675.214V675.337C224.964 673.243 232.987 670.902 241.009 668.684C249.032 666.466 257.054 664.248 264.953 661.784C280.875 657.102 296.797 652.296 312.718 647.491C320.617 645.027 328.64 642.563 336.539 640.345C344.561 638.004 352.584 635.909 360.483 633.568C376.405 629.009 392.326 624.204 408.125 619.029Z" fill="url(#paint45_linear)"/>
<path d="M292.6 606.953C295.068 619.275 297.907 631.473 300.869 643.671C302.35 649.709 304.078 655.87 305.559 661.907C307.041 667.945 308.398 674.105 309.756 680.266C312.471 692.587 315.186 704.786 318.149 716.984C321.111 729.182 324.196 741.38 327.405 753.455H327.529C324.937 741.134 322.222 728.936 319.383 716.614C316.544 704.416 313.459 692.218 310.373 680.02C308.768 673.982 307.287 667.821 305.93 661.661C304.449 655.5 303.214 649.339 301.857 643.302C299.018 631.227 296.056 619.029 292.6 606.953Z" fill="url(#paint46_linear)"/>
<path d="M294.945 75.5303C294.822 79.2268 298.401 82.3071 301.486 82.0607C305.436 82.0607 308.398 79.4732 308.028 75.5303C307.781 72.3268 304.572 69 301.486 69C297.66 68.6303 294.698 71.7107 294.945 75.5303Z" fill="url(#paint47_linear)"/>
<path d="M134.125 43.8643C134.001 47.5607 137.58 50.6411 140.666 50.3947C144.616 50.3947 147.578 47.8071 147.207 43.8643C146.961 40.6607 143.752 37.3339 140.666 37.3339C136.84 36.8411 134.001 40.0446 134.125 43.8643Z" fill="url(#paint48_linear)"/>
<path d="M261.251 212.175C261.127 215.871 264.706 218.952 267.792 218.705C271.742 218.705 274.704 216.118 274.333 212.175C274.087 208.971 270.878 205.645 267.792 205.645C263.966 205.275 261.004 208.355 261.251 212.175Z" fill="url(#paint49_linear)"/>
<path d="M169.177 224.989C169.053 228.686 172.633 231.766 175.718 231.52C179.668 231.52 182.63 228.932 182.26 224.989C182.013 221.786 178.804 218.459 175.718 218.459C171.892 217.966 168.93 221.17 169.177 224.989Z" fill="url(#paint50_linear)"/>
<path d="M310.99 398.475C310.867 402.171 314.446 405.252 317.532 405.005C321.481 405.005 324.443 402.418 324.073 398.475C323.826 395.271 320.617 391.945 317.532 391.945C313.706 391.575 310.744 394.655 310.99 398.475Z" fill="url(#paint51_linear)"/>
<path d="M205.834 419.668C205.71 423.364 209.289 426.445 212.375 426.198C216.325 426.198 219.287 423.611 218.916 419.668C218.67 416.464 215.461 413.138 212.375 413.138C208.425 412.645 205.587 415.848 205.834 419.668Z" fill="url(#paint52_linear)"/>
<path d="M121.042 465.134C120.918 468.83 124.497 471.911 127.583 471.664C131.533 471.664 134.495 469.077 134.124 465.134C133.878 461.93 130.669 458.604 127.583 458.604C123.757 458.234 120.795 461.314 121.042 465.134Z" fill="url(#paint53_linear)"/>
<path d="M288.033 476.962C287.91 480.659 291.489 483.739 294.575 483.493C298.524 483.493 301.486 480.905 301.116 476.962C300.869 473.759 297.66 470.432 294.575 470.432C290.625 469.939 287.786 473.143 288.033 476.962Z" fill="url(#paint54_linear)"/>
<path d="M286.059 605.968C285.935 609.664 289.515 612.745 292.6 612.498C296.55 612.498 299.512 609.911 299.142 605.968C298.895 602.764 295.686 599.438 292.6 599.438C288.774 599.068 285.812 602.148 286.059 605.968Z" fill="url(#paint55_linear)"/>
<path d="M172.879 595.248C172.756 598.945 176.335 602.025 179.421 601.779C183.37 601.779 186.333 599.191 185.962 595.248C185.716 592.045 182.507 588.718 179.421 588.718C175.595 588.348 172.756 591.429 172.879 595.248Z" fill="url(#paint56_linear)"/>
<path d="M210.4 678.418C210.277 682.114 213.856 685.195 216.941 684.948C220.891 684.948 223.853 682.361 223.483 678.418C223.236 675.214 220.027 671.888 216.941 671.888C212.992 671.395 210.153 674.598 210.4 678.418Z" fill="url(#paint57_linear)"/>
<path d="M49.5792 41.8929C49.4558 45.5893 53.0351 48.6697 56.1207 48.4232C60.0702 48.4232 63.0324 45.8357 62.6621 41.8929C62.4152 38.6893 59.2062 35.3625 56.1207 35.3625C52.1711 34.9929 49.3323 38.0732 49.5792 41.8929Z" fill="url(#paint58_linear)"/>
</g>
<defs>
<linearGradient id="paint0_linear" x1="349.437" y1="36.4714" x2="349.437" y2="72.6964" gradientUnits="userSpaceOnUse">
<stop stop-color="#FFF8EE"/>
<stop offset="1" stop-color="#FFF8EE" stop-opacity="0"/>
</linearGradient>
<linearGradient id="paint1_linear" x1="356.286" y1="74.4214" x2="356.286" y2="164.861" gradientUnits="userSpaceOnUse">
<stop stop-color="#FFF8EE"/>
<stop offset="1" stop-color="#FFF8EE" stop-opacity="0"/>
</linearGradient>
<linearGradient id="paint2_linear" x1="282.973" y1="0.985718" x2="282.973" y2="71.3411" gradientUnits="userSpaceOnUse">
<stop stop-color="#FFF8EE"/>
<stop offset="1" stop-color="#FFF8EE" stop-opacity="0"/>
</linearGradient>
<linearGradient id="paint3_linear" x1="259.152" y1="2.2179" x2="259.152" y2="72.6965" gradientUnits="userSpaceOnUse">
<stop stop-color="#FFF8EE"/>
<stop offset="1" stop-color="#FFF8EE" stop-opacity="0"/>
</linearGradient>
<linearGradient id="paint4_linear" x1="219.534" y1="43.7411" x2="219.534" y2="74.4215" gradientUnits="userSpaceOnUse">
<stop stop-color="#FFF8EE"/>
<stop offset="1" stop-color="#FFF8EE" stop-opacity="0"/>
</linearGradient>
<linearGradient id="paint5_linear" x1="163.746" y1="0.739319" x2="163.746" y2="41.1536" gradientUnits="userSpaceOnUse">
<stop stop-color="#FFF8EE"/>
<stop offset="1" stop-color="#FFF8EE" stop-opacity="0"/>
</linearGradient>
<linearGradient id="paint6_linear" x1="146.775" y1="0.492859" x2="146.775" y2="40.2911" gradientUnits="userSpaceOnUse">
<stop stop-color="#FFF8EE"/>
<stop offset="1" stop-color="#FFF8EE" stop-opacity="0"/>
</linearGradient>
<linearGradient id="paint7_linear" x1="142.959" y1="0.862488" x2="142.959" y2="40.2911" gradientUnits="userSpaceOnUse">
<stop stop-color="#FFF8EE"/>
<stop offset="1" stop-color="#FFF8EE" stop-opacity="0"/>
</linearGradient>
<linearGradient id="paint8_linear" x1="67.9076" y1="0.616089" x2="67.9076" y2="38.0732" gradientUnits="userSpaceOnUse">
<stop stop-color="#FFF8EE"/>
<stop offset="1" stop-color="#FFF8EE" stop-opacity="0"/>
</linearGradient>
<linearGradient id="paint9_linear" x1="50.6949" y1="0.492859" x2="50.6949" y2="39.0589" gradientUnits="userSpaceOnUse">
<stop stop-color="#FFF8EE"/>
<stop offset="1" stop-color="#FFF8EE" stop-opacity="0"/>
</linearGradient>
<linearGradient id="paint10_linear" x1="236.998" y1="79.35" x2="236.998" y2="223.88" gradientUnits="userSpaceOnUse">
<stop stop-color="#FFF8EE"/>
<stop offset="1" stop-color="#FFF8EE" stop-opacity="0"/>
</linearGradient>
<linearGradient id="paint11_linear" x1="157.636" y1="46.6982" x2="157.636" y2="223.264" gradientUnits="userSpaceOnUse">
<stop stop-color="#FFF8EE"/>
<stop offset="1" stop-color="#FFF8EE" stop-opacity="0"/>
</linearGradient>
<linearGradient id="paint12_linear" x1="314.323" y1="79.2268" x2="314.323" y2="160.425" gradientUnits="userSpaceOnUse">
<stop stop-color="#FFF8EE"/>
<stop offset="1" stop-color="#FFF8EE" stop-opacity="0"/>
</linearGradient>
<linearGradient id="paint13_linear" x1="231.814" y1="45.5894" x2="231.814" y2="159.932" gradientUnits="userSpaceOnUse">
<stop stop-color="#FFF8EE"/>
<stop offset="1" stop-color="#FFF8EE" stop-opacity="0"/>
</linearGradient>
<linearGradient id="paint14_linear" x1="249.217" y1="162.643" x2="249.217" y2="223.757" gradientUnits="userSpaceOnUse">
<stop stop-color="#FFF8EE"/>
<stop offset="1" stop-color="#FFF8EE" stop-opacity="0"/>
</linearGradient>
<linearGradient id="paint15_linear" x1="295.747" y1="163.875" x2="295.747" y2="210.573" gradientUnits="userSpaceOnUse">
<stop stop-color="#FFF8EE"/>
<stop offset="1" stop-color="#FFF8EE" stop-opacity="0"/>
</linearGradient>
<linearGradient id="paint16_linear" x1="220.768" y1="212.175" x2="220.768" y2="223.388" gradientUnits="userSpaceOnUse">
<stop stop-color="#FFF8EE"/>
<stop offset="1" stop-color="#FFF8EE" stop-opacity="0"/>
</linearGradient>
<linearGradient id="paint17_linear" x1="300.314" y1="212.298" x2="300.314" y2="241.993" gradientUnits="userSpaceOnUse">
<stop stop-color="#FFF8EE"/>
<stop offset="1" stop-color="#FFF8EE" stop-opacity="0"/>
</linearGradient>
<linearGradient id="paint18_linear" x1="338.328" y1="164.861" x2="338.328" y2="210.327" gradientUnits="userSpaceOnUse">
<stop stop-color="#FFF8EE"/>
<stop offset="1" stop-color="#FFF8EE" stop-opacity="0"/>
</linearGradient>
<linearGradient id="paint19_linear" x1="238.788" y1="215.132" x2="238.788" y2="417.573" gradientUnits="userSpaceOnUse">
<stop stop-color="#FFF8EE"/>
<stop offset="1" stop-color="#FFF8EE" stop-opacity="0"/>
</linearGradient>
<linearGradient id="paint20_linear" x1="292.724" y1="215.255" x2="292.724" y2="395.148" gradientUnits="userSpaceOnUse">
<stop stop-color="#FFF8EE"/>
<stop offset="1" stop-color="#FFF8EE" stop-opacity="0"/>
</linearGradient>
<linearGradient id="paint21_linear" x1="393.066" y1="290.293" x2="393.066" y2="397.366" gradientUnits="userSpaceOnUse">
<stop stop-color="#FFF8EE"/>
<stop offset="1" stop-color="#FFF8EE" stop-opacity="0"/>
</linearGradient>
<linearGradient id="paint22_linear" x1="305.189" y1="399.83" x2="305.189" y2="477.455" gradientUnits="userSpaceOnUse">
<stop stop-color="#FFF8EE"/>
<stop offset="1" stop-color="#FFF8EE" stop-opacity="0"/>
</linearGradient>
<linearGradient id="paint23_linear" x1="254.154" y1="421.146" x2="254.154" y2="475.238" gradientUnits="userSpaceOnUse">
<stop stop-color="#FFF8EE"/>
<stop offset="1" stop-color="#FFF8EE" stop-opacity="0"/>
</linearGradient>
<linearGradient id="paint24_linear" x1="345.178" y1="398.845" x2="345.178" y2="497.046" gradientUnits="userSpaceOnUse">
<stop stop-color="#FFF8EE"/>
<stop offset="1" stop-color="#FFF8EE" stop-opacity="0"/>
</linearGradient>
<linearGradient id="paint25_linear" x1="379.614" y1="394.409" x2="379.614" y2="478.318" gradientUnits="userSpaceOnUse">
<stop stop-color="#FFF8EE"/>
<stop offset="1" stop-color="#FFF8EE" stop-opacity="0"/>
</linearGradient>
<linearGradient id="paint26_linear" x1="391.339" y1="393.747" x2="391.339" y2="398.475" gradientUnits="userSpaceOnUse">
<stop stop-color="#FFF8EE"/>
<stop offset="1" stop-color="#FFF8EE" stop-opacity="0"/>
</linearGradient>
<linearGradient id="paint27_linear" x1="222.804" y1="399.584" x2="222.804" y2="464.148" gradientUnits="userSpaceOnUse">
<stop stop-color="#FFF8EE"/>
<stop offset="1" stop-color="#FFF8EE" stop-opacity="0"/>
</linearGradient>
<linearGradient id="paint28_linear" x1="168.128" y1="417.573" x2="168.128" y2="463.409" gradientUnits="userSpaceOnUse">
<stop stop-color="#FFF8EE"/>
<stop offset="1" stop-color="#FFF8EE" stop-opacity="0"/>
</linearGradient>
<linearGradient id="paint29_linear" x1="265.632" y1="396.75" x2="265.632" y2="418.436" gradientUnits="userSpaceOnUse">
<stop stop-color="#FFF8EE"/>
<stop offset="1" stop-color="#FFF8EE" stop-opacity="0"/>
</linearGradient>
<linearGradient id="paint30_linear" x1="211.881" y1="463.409" x2="211.881" y2="477.45" gradientUnits="userSpaceOnUse">
<stop stop-color="#FFF8EE"/>
<stop offset="1" stop-color="#FFF8EE" stop-opacity="0"/>
</linearGradient>
<linearGradient id="paint31_linear" x1="334.688" y1="478.564" x2="334.688" y2="498.032" gradientUnits="userSpaceOnUse">
<stop stop-color="#FFF8EE"/>
<stop offset="1" stop-color="#FFF8EE" stop-opacity="0"/>
</linearGradient>
<linearGradient id="paint32_linear" x1="292.802" y1="479.18" x2="292.802" y2="604.489" gradientUnits="userSpaceOnUse">
<stop stop-color="#FFF8EE"/>
<stop offset="1" stop-color="#FFF8EE" stop-opacity="0"/>
</linearGradient>
<linearGradient id="paint33_linear" x1="236.381" y1="477.455" x2="236.381" y2="593.03" gradientUnits="userSpaceOnUse">
<stop stop-color="#FFF8EE"/>
<stop offset="1" stop-color="#FFF8EE" stop-opacity="0"/>
</linearGradient>
<linearGradient id="paint34_linear" x1="152.947" y1="467.598" x2="152.947" y2="593.277" gradientUnits="userSpaceOnUse">
<stop stop-color="#FFF8EE"/>
<stop offset="1" stop-color="#FFF8EE" stop-opacity="0"/>
</linearGradient>
<linearGradient id="paint35_linear" x1="210.091" y1="465.257" x2="210.091" y2="607.816" gradientUnits="userSpaceOnUse">
<stop stop-color="#FFF8EE"/>
<stop offset="1" stop-color="#FFF8EE" stop-opacity="0"/>
</linearGradient>
<linearGradient id="paint36_linear" x1="236.628" y1="593.832" x2="236.628" y2="606.83" gradientUnits="userSpaceOnUse">
<stop stop-color="#FFF8EE"/>
<stop offset="1" stop-color="#FFF8EE" stop-opacity="0"/>
</linearGradient>
<linearGradient id="paint37_linear" x1="334.934" y1="496.43" x2="334.934" y2="604.982" gradientUnits="userSpaceOnUse">
<stop stop-color="#FFF8EE"/>
<stop offset="1" stop-color="#FFF8EE" stop-opacity="0"/>
</linearGradient>
<linearGradient id="paint38_linear" x1="351.782" y1="479.92" x2="351.782" y2="615.579" gradientUnits="userSpaceOnUse">
<stop stop-color="#FFF8EE"/>
<stop offset="1" stop-color="#FFF8EE" stop-opacity="0"/>
</linearGradient>
<linearGradient id="paint39_linear" x1="352.769" y1="606.43" x2="352.769" y2="618.659" gradientUnits="userSpaceOnUse">
<stop stop-color="#FFF8EE"/>
<stop offset="1" stop-color="#FFF8EE" stop-opacity="0"/>
</linearGradient>
<linearGradient id="paint40_linear" x1="253.413" y1="609.048" x2="253.413" y2="676.446" gradientUnits="userSpaceOnUse">
<stop stop-color="#FFF8EE"/>
<stop offset="1" stop-color="#FFF8EE" stop-opacity="0"/>
</linearGradient>
<linearGradient id="paint41_linear" x1="197.811" y1="595.248" x2="197.811" y2="674.598" gradientUnits="userSpaceOnUse">
<stop stop-color="#FFF8EE"/>
<stop offset="1" stop-color="#FFF8EE" stop-opacity="0"/>
</linearGradient>
<linearGradient id="paint42_linear" x1="213.427" y1="679.896" x2="213.427" y2="773.416" gradientUnits="userSpaceOnUse">
<stop stop-color="#FFF8EE"/>
<stop offset="1" stop-color="#FFF8EE" stop-opacity="0"/>
</linearGradient>
<linearGradient id="paint43_linear" x1="251.808" y1="678.418" x2="251.808" y2="773.293" gradientUnits="userSpaceOnUse">
<stop stop-color="#FFF8EE"/>
<stop offset="1" stop-color="#FFF8EE" stop-opacity="0"/>
</linearGradient>
<linearGradient id="paint44_linear" x1="272.482" y1="677.186" x2="272.482" y2="754.934" gradientUnits="userSpaceOnUse">
<stop stop-color="#FFF8EE"/>
<stop offset="1" stop-color="#FFF8EE" stop-opacity="0"/>
</linearGradient>
<linearGradient id="paint45_linear" x1="312.533" y1="619.029" x2="312.533" y2="675.337" gradientUnits="userSpaceOnUse">
<stop stop-color="#FFF8EE"/>
<stop offset="1" stop-color="#FFF8EE" stop-opacity="0"/>
</linearGradient>
<linearGradient id="paint46_linear" x1="310.064" y1="606.953" x2="310.064" y2="753.455" gradientUnits="userSpaceOnUse">
<stop stop-color="#FFF8EE"/>
<stop offset="1" stop-color="#FFF8EE" stop-opacity="0"/>
</linearGradient>
<linearGradient id="paint47_linear" x1="301.495" y1="68.9698" x2="301.495" y2="82.0745" gradientUnits="userSpaceOnUse">
<stop stop-color="#FFF8EE"/>
<stop offset="1" stop-color="#FFF8EE" stop-opacity="0"/>
</linearGradient>
<linearGradient id="paint48_linear" x1="140.68" y1="37.2837" x2="140.68" y2="50.4085" gradientUnits="userSpaceOnUse">
<stop stop-color="#FFF8EE"/>
<stop offset="1" stop-color="#FFF8EE" stop-opacity="0"/>
</linearGradient>
<linearGradient id="paint49_linear" x1="267.8" y1="205.615" x2="267.8" y2="218.719" gradientUnits="userSpaceOnUse">
<stop stop-color="#FFF8EE"/>
<stop offset="1" stop-color="#FFF8EE" stop-opacity="0"/>
</linearGradient>
<linearGradient id="paint50_linear" x1="175.727" y1="218.409" x2="175.727" y2="231.533" gradientUnits="userSpaceOnUse">
<stop stop-color="#FFF8EE"/>
<stop offset="1" stop-color="#FFF8EE" stop-opacity="0"/>
</linearGradient>
<linearGradient id="paint51_linear" x1="317.54" y1="391.915" x2="317.54" y2="405.019" gradientUnits="userSpaceOnUse">
<stop stop-color="#FFF8EE"/>
<stop offset="1" stop-color="#FFF8EE" stop-opacity="0"/>
</linearGradient>
<linearGradient id="paint52_linear" x1="212.383" y1="413.087" x2="212.383" y2="426.212" gradientUnits="userSpaceOnUse">
<stop stop-color="#FFF8EE"/>
<stop offset="1" stop-color="#FFF8EE" stop-opacity="0"/>
</linearGradient>
<linearGradient id="paint53_linear" x1="127.592" y1="458.573" x2="127.592" y2="471.678" gradientUnits="userSpaceOnUse">
<stop stop-color="#FFF8EE"/>
<stop offset="1" stop-color="#FFF8EE" stop-opacity="0"/>
</linearGradient>
<linearGradient id="paint54_linear" x1="294.583" y1="470.382" x2="294.583" y2="483.507" gradientUnits="userSpaceOnUse">
<stop stop-color="#FFF8EE"/>
<stop offset="1" stop-color="#FFF8EE" stop-opacity="0"/>
</linearGradient>
<linearGradient id="paint55_linear" x1="292.609" y1="599.407" x2="292.609" y2="612.512" gradientUnits="userSpaceOnUse">
<stop stop-color="#FFF8EE"/>
<stop offset="1" stop-color="#FFF8EE" stop-opacity="0"/>
</linearGradient>
<linearGradient id="paint56_linear" x1="179.435" y1="588.688" x2="179.435" y2="601.792" gradientUnits="userSpaceOnUse">
<stop stop-color="#FFF8EE"/>
<stop offset="1" stop-color="#FFF8EE" stop-opacity="0"/>
</linearGradient>
<linearGradient id="paint57_linear" x1="216.95" y1="671.837" x2="216.95" y2="684.962" gradientUnits="userSpaceOnUse">
<stop stop-color="#FFF8EE"/>
<stop offset="1" stop-color="#FFF8EE" stop-opacity="0"/>
</linearGradient>
<linearGradient id="paint58_linear" x1="56.1288" y1="35.3324" x2="56.1288" y2="48.4371" gradientUnits="userSpaceOnUse">
<stop stop-color="#FFF8EE"/>
<stop offset="1" stop-color="#FFF8EE" stop-opacity="0"/>
</linearGradient>
<clipPath id="clip0">
<rect width="320" height="690" fill="white" transform="matrix(-1 0 0 1 320 0)"/>
</clipPath>
</defs>
</svg>
