<svg xmlns="http://www.w3.org/2000/svg" xmlns:xlink="http://www.w3.org/1999/xlink" width="1920" height="560" fill="none" xmlns:v="https://vecta.io/nano"><path fill="#000" d="M0 0h1920v560H0z"/><g clip-path="url(#Ay)"><path d="M1981.7 29.6c-6.5 2.1-12.8 4.4-19.1 6.9l-9.4 3.8c-3.1 1.3-6.3 2.4-9.5 3.5-6.4 2.2-12.8 4.6-19.1 7-6.3 2.5-12.8 4.7-18.6 8.1v.1c6.1-2.9 12.6-4.8 18.9-7.3l18.9-7.4c3.1-1.3 6.3-2.5 9.5-3.7s6.4-2.2 9.6-3.4c6.3-2.3 12.6-4.8 18.8-7.6z" fill="url(#A)"/><path d="M1994.7 133.8c-1.4-2-3.3-3.6-5.2-5.1l-5.7-4.5-11.6-8.9c-3.8-3-7.7-5.9-11.3-9.2-1.8-1.6-3.5-3.3-5.2-5.1-1.7-1.7-3.3-3.6-5.2-5.1s-4-2.8-6-4.2-3.9-2.9-5.8-4.4l-11.4-9.1-23.1-17.8-.1.1c7.4 6.3 15 12.5 22.6 18.5 3.8 3.1 7.6 6 11.5 9 1.9 1.5 3.9 3 5.9 4.3 2 1.4 4.2 2.5 6.1 4s3.6 3.2 5.3 4.9l5.2 5.1c3.6 3.3 7.2 6.5 11 9.6s7.7 5.9 11.6 8.9l5.9 4.3c1.9 1.4 3.8 2.9 5.5 4.7z" fill="url(#B)"/><path d="M1876.9.8c1.8 4.9 3.8 9.8 6 14.5 1.1 2.4 2.3 4.7 3.4 7.1s2.1 4.8 3.1 7.2c2 4.9 4.3 9.6 6.7 14.2s4.8 9.3 6.9 14.1h.1c-1.5-5.1-3.7-9.9-6-14.6l-7.2-14c-1.2-2.3-2.3-4.7-3.3-7.1s-1.9-4.9-2.9-7.3c-2-4.7-4.2-9.5-6.8-14.1z" fill="url(#C)"/><path d="M1902.6 59c-3-2-5.1-4.9-7.6-7.5-2.4-2.6-4.9-5.2-7.6-7.6-2.6-2.4-5.4-4.7-8.1-7.1a270.31 270.31 0 0 1-8-7.1l-16.1-14.2-4-3.6-3.8-3.7c-2.6-2.5-5.4-4.9-8.6-6.4v.1c6.2 3.7 10.2 9.9 15.8 14.5 2.6 2.5 5.4 4.8 8.1 7.1s5.5 4.6 8.3 6.8a274.86 274.86 0 0 1 8.2 7c2.7 2.4 5.2 4.9 7.7 7.4a272.44 272.44 0 0 1 7.6 7.6c2.5 2.2 4.9 5.1 8.1 6.7z" fill="url(#D)"/><path d="M1901.8 60.4c-10.2-3.3-20.7-5.7-31.3-7.8l-15.8-2.9-15.8-3.2-31.6-6.2c-10.6-1.9-21.2-3.6-31.9-4.8v.1l31.7 5.7 31.7 5.8c5.3.9 10.6 1.9 15.8 3 5.3 1 10.5 2.2 15.8 3.3l31.4 7z" fill="url(#E)"/><path d="M1811.4.6c-3.2 2.4-6.3 5.1-9.3 7.8-1.5 1.4-2.9 2.9-4.4 4.2-1.5 1.4-3 2.7-4.6 4l-4.7 3.9c-1.5 1.3-3.1 2.6-4.5 4.1-2.9 2.8-5.8 5.7-8.5 8.7l.1.1c3.2-2.5 6.2-5.2 9.2-7.9l8.8-8.3c1.4-1.4 2.9-2.8 4.4-4.1s3.1-2.6 4.7-3.9c3.1-2.7 6.1-5.5 8.8-8.6z" fill="url(#F)"/><path d="M1784.6.4c-1.6 2.4-2.5 5.2-3.1 7.9-.3 1.4-.4 2.8-.6 4.2s-.6 2.8-1 4.1l-2.7 8-2.5 8.1h.1c1.3-2.5 2.5-5.1 3.4-7.8s1.7-5.4 2.2-8.2l.8-4.2c.3-1.4.7-2.7 1.1-4.1l2.3-8z" fill="url(#G)"/><path d="M1778.1.7c-.5 2.7-.8 5.3-.9 8v4l-.4 4-1.1 8-.8 8h.1c.8-2.6 1.4-5.2 1.8-7.9l.6-8.1c0-1.3.1-2.7.2-4l.5-4v-8z" fill="url(#H)"/><path d="M1753.1 1c1.3 2.9 2.7 5.7 4.3 8.4l2.5 4 2.3 4.1c1.5 2.8 3.3 5.4 5.1 7.9l5.8 7.4.1-.1c-1.5-2.8-3.2-5.4-5-8l-5.5-7.6-2.5-4-2.1-4.2c-1.4-2.8-3-5.4-5-7.9z" fill="url(#I)"/><path d="M1772.3 35c-5.4-.3-10.9-.4-16.3-.3l-8.2.3c-2.7.1-5.4 0-8.2-.1-5.4-.2-10.9-.2-16.3-.2l-16.3.5v.1c5.4.3 10.9.4 16.3.4a443.08 443.08 0 0 0 16.3-.3c2.7-.1 5.4-.2 8.2-.1 2.7 0 5.4.2 8.2.2 5.5.1 10.9 0 16.3-.5z" fill="url(#J)"/><path d="M1724.2.5c-.4 1.4-1.2 2.6-2 3.8l-2.3 3.7-2 3.9c-.7 1.3-1.5 2.5-2.3 3.7l-4.5 7.4-3.8 7.9h.1l4.6-7.4 4.1-7.7 2.1-3.8 2.4-3.6c.8-1.2 1.5-2.5 2.2-3.7.8-1.3 1.4-2.7 1.4-4.2z" fill="url(#K)"/><path d="M1698.1.4c-.4 1.4-.1 2.8.2 4.1s.7 2.6 1.2 3.9l1.5 3.7c.4 1.3.7 2.6.9 3.9.2 2.7.4 5.4 1 8a37.14 37.14 0 0 0 2.7 7.7h.1l-1.8-7.8c-.3-1.3-.5-2.6-.7-3.9l-.7-4-1.1-3.9-1-3.9-1.2-3.8c-.5-1.4-1-2.7-1.1-4z" fill="url(#L)"/><path d="M1902.5 64.4c-8.9 9.3-17.1 19.1-25.1 29.2-2 2.5-3.9 5.1-6.1 7.4l-6.7 6.9a73.59 73.59 0 0 0-6.2 7.4c-1.9 2.6-3.7 5.2-5.6 7.9-7.4 10.4-15.6 20.4-23.5 30.4a108.16 108.16 0 0 1-6.3 7.2c-2.2 2.3-4.8 4.2-7.2 6.4-4.8 4.4-7.9 10.2-12.8 14.4l.1.1c5.1-4 8.4-9.7 13.2-13.9 2.4-2.1 5-4 7.3-6.2s4.4-4.7 6.5-7.2c8-10 16-20.1 23.2-30.7 3.6-5.3 7-10.8 11.6-15.3 2.2-2.3 4.6-4.5 6.8-6.8 2.3-2.2 4.3-4.8 6.4-7.2 4.1-4.9 8-10 12.1-14.9 4.1-5.3 8.2-10.2 12.3-15.1z" fill="url(#M)"/><path d="M1774 37.9c2.2 12 4.7 23.9 7.3 35.8l4.1 17.8 3.7 17.9 7.3 35.8c2.4 11.9 4.7 23.9 6.4 36h.1c-1-12.2-3-24.2-5.4-36.2l-3.8-17.9-4-17.8c-1.4-5.9-2.7-11.9-3.9-17.9-1.3-6-2.4-12-3.6-17.9l-8.2-35.6z" fill="url(#N)"/><path d="M1905.1 64.3c2.6 5.2 3.8 10.8 5.3 16.3.8 2.8 1.7 5.5 2.4 8.3.8 2.8 1.5 5.6 2.2 8.4 1.4 5.6 3 11.1 4.7 16.6 1.8 5.5 3.7 10.9 5.9 16.3h.1l-4.9-16.6-5.2-16.5c-.9-2.7-1.7-5.5-2.4-8.3s-1.3-5.6-1.9-8.4c-.7-2.8-1.4-5.6-2.3-8.4-1.1-2.7-2.2-5.4-3.9-7.7z" fill="url(#O)"/><path d="M1923.9 129.8l-18.3-12.5-18.5-12.2c-6.2-4-12.5-7.9-18.8-11.7l-19-11.3-9.6-5.5-4.8-2.8-4.7-2.9c-6.2-4-12.2-8.3-18.3-12.5-3.1-2.1-6.1-4.2-9.2-6.1-3.1-2-6.3-3.8-9.6-5.6-6.5-3.6-13.1-6.9-19.9-9.7v.1c6.7 3.2 13.2 6.5 19.6 10.3 6.4 3.7 12.5 7.8 18.6 12s12.1 8.5 18.4 12.4c1.6 1 3.1 2 4.7 2.9l4.9 2.7 9.7 5.3c6.5 3.5 12.9 7.2 19.1 11.2 6.3 3.9 12.4 8 18.5 12.1l37.2 23.8z" fill="url(#P)"/><path d="M1921.8 132c-9.5 5-19.5 8.7-29.6 12.3l-30.2 10.6c-5 1.9-10 4-14.8 6.4l-14.4 7.1c-9.6 4.6-19.5 8.7-29.3 13.1v.1c10-3.7 20-7.6 29.7-12.2 4.9-2.3 9.6-4.8 14.3-7.2s9.6-4.6 14.5-6.7c4.9-2 10-3.9 15.1-5.5l15.3-4.9c10.2-3.5 20.3-7.5 29.4-13.1z" fill="url(#Q)"/><path d="M1922.8 133c-2.7 4.2-7 6.6-10.8 9.8-1.9 1.6-3.8 3.1-5.7 4.6s-4.1 2.7-6.1 4.1c-2.1 1.4-4 2.9-5.9 4.5l-5.6 4.8c-3.7 3.3-7.3 6.6-10.8 10l.1.1a256.45 256.45 0 0 0 11.4-9.3c3.7-3.2 7.3-6.6 11.1-9.6 3.9-2.9 8.1-5.6 12.1-8.5 2-1.5 3.9-3 5.8-4.6 1.7-1.7 3.5-3.6 4.4-5.9z" fill="url(#R)"/><path d="M1875.6 172.2c-6 .6-12 1.3-18 2.3s-11.9 2.5-18 2c-1.5-.1-3-.1-4.6 0-1.5.1-3 .3-4.5.5l-9 1.2c-6 .9-12 1.8-17.9 3v.1c6-.5 12.1-1.2 18.1-2l9-1.3c1.5-.2 3-.5 4.5-.6s3-.2 4.5-.2 3-.1 4.6-.2c1.5-.1 3-.3 4.5-.5l9-1.1c5.9-.9 11.9-1.9 17.8-3.2z" fill="url(#S)"/><path d="M1928.7 196.4c-3.9-2.5-7.9-4.7-12-6.8l-6.2-2.9c-2.1-1-4.1-2.1-6.1-3.1-4-2.2-8.1-4.2-12.3-6.1s-8.4-3.6-12.7-5.2v.1l12.3 6.1 12.5 5.7c2.1.9 4.2 1.9 6.2 2.9l6 3.3a139.69 139.69 0 0 0 12.3 6z" fill="url(#T)"/><path d="M1992.9 133.8c-4.6 2.2-9.2 4.2-14 5.9s-9.6 3.1-14.5 4.5c-9.8 2.8-19.7 5.2-29.4 8.3-4.9 1.5-9.7 3.2-14.5 4.8L1906 162l-29.2 8.6v.1c9.9-2.1 19.8-4.7 29.5-7.7s19.3-6.6 28.8-10c4.8-1.7 9.6-3.2 14.6-4.5 4.9-1.3 9.9-2.3 14.8-3.6s9.8-2.7 14.6-4.5 9.4-4 13.8-6.6z" fill="url(#U)"/><path d="M1875.7 174.6a1458.97 1458.97 0 0 0-11.1 41l-5.1 20.6c-1.7 6.9-3.6 13.7-5.5 20.5l-11 41-5.2 20.6-5.1 20.6h.1c2-6.8 3.8-13.6 5.7-20.5l5.5-20.5 10.5-41.1 5.3-20.6 5.6-20.5c3.7-13.6 7.2-27.3 10.3-41.1z" fill="url(#V)"/><path d="M1877.7 174.7l5.4 20.6.5 2.3.9 4.6 2.2 9.2 2.7 9.1 2.9 9 5.9 18c3.9 12 7.3 24.2 10.5 36.4l4.7 18.4 4.6 18.4h.1l-4-18.5-4.4-18.5c-3.1-12.3-6.8-24.4-11-36.3l-6.1-18c-1.9-6-3.6-12.1-5.1-18.3-1.6-6.1-2.6-12.4-4.2-18.5-1.7-5.9-3.6-11.9-5.6-17.9z" fill="url(#W)"/><path d="M2040.9 235.6l-14.6 12c-4.8 4.1-9.7 8-15.2 11-2.7 1.5-5.5 3.1-8.1 4.8s-5.2 3.6-7.8 5.4l-46.8 31.8-15.5 10.8-15.4 11 .1.1c5.3-3.4 10.5-6.9 15.7-10.4l15.6-10.6 46.4-32.4c2.6-1.8 5.2-3.5 7.9-5.2s5.5-3.1 8.2-4.6c2.8-1.5 5.5-3.2 8-5.1s4.9-4 7.3-6c4.8-4.1 9.5-8.3 14.2-12.6z" fill="url(#X)"/><path d="M1918 324.5c-2.4 5-4.4 10.1-6.2 15.4l-2.4 7.9-2.5 7.9c-1.7 5.3-3.1 10.6-4.3 16s-2.5 10.7-4.6 15.8h.1c2.7-4.9 4.2-10.3 5.5-15.6l3.8-16.1c.7-2.7 1.4-5.3 2.3-7.9.8-2.6 1.9-5.2 2.8-7.8 2-5.1 3.8-10.3 5.5-15.6z" fill="url(#Y)"/><path d="M1897.8 385.7l-8.3-4.6c-2.7-1.6-5.3-3.5-7.9-5.3l-7.8-5.5-7.6-5.8c-5-4-10-7.8-15.1-11.6s-10.3-7.5-15.5-11.1l-.1.1c4.9 4.1 9.9 8 15 11.8l15.4 11.2c2.6 1.8 5.2 3.7 7.7 5.6s5 4 7.5 5.9 5.2 3.7 8 5.3 5.7 2.9 8.7 4z" fill="url(#Z)"/><path d="M1918.9 323.7c3.3 6.8 6.8 13.5 10.4 20.1l5.6 9.9 5.3 10 10.5 20 11.1 19.7h.1c-3.3-6.8-6.7-13.5-10.3-20.2-3.5-6.7-7.2-13.3-10.9-19.8-1.9-3.3-3.7-6.6-5.4-9.9-1.8-3.3-3.4-6.7-5.1-10.1-3.7-6.6-7.3-13.2-11.3-19.7z" fill="url(#a)"/><path d="M2035.1 320.1c-1.6.3-2.9 1.2-4.2 2.1l-3.7 2.8c-2.6 1.7-5.5 2.9-8.3 4.2l-17 8-16.9 8.3-17 8-34 15.9c-5.7 2.7-11.3 5.4-16.8 8.4s-10.8 6.3-15.7 10.3l.1.1c5-3.7 10.4-6.9 16-9.8 5.5-2.9 11.2-5.4 16.9-8.1l33.8-16.3c5.6-2.8 11.2-5.5 16.9-8.1l17.1-7.8c5.7-2.6 11.3-5.4 16.9-8.1 2.8-1.4 5.7-2.7 8.3-4.5 1.3-.9 2.4-2 3.6-3s2.5-1.9 4-2.4z" fill="url(#b)"/><path d="M2036.5 319.9c-9.8-.3-19.6-.4-29.4-.3l-14.7.3c-4.9.1-9.8 0-14.7-.1l-14.7-.2-14.7.1c-9.8.3-19.6 1.2-29.2 3.6v.1c9.6-1.8 19.4-2.4 29.2-2.7l29.4-.5 14.7-.1 14.7.2c9.8.2 19.6 0 29.4-.4z" fill="url(#c)"/><path d="M1917.5 324.3l-38.2 12.8-19 6.8-19.1 6.5-38.2 12.8c-6.4 2.1-12.7 4.4-19 6.6l-19 6.8v.1l19.2-6.2 19.1-6.3 38.1-13.3 19-6.7 19.1-6.4c12.8-4.2 25.5-8.7 38-13.5z" fill="url(#d)"/><path d="M1830.5 338.9c-4.3 4.8-10 7.8-15.6 11l-8.4 4.8c-1.4.8-2.8 1.5-4.2 2.3-1.4.7-2.9 1.4-4.4 2-2.9 1.3-5.9 2.5-8.9 3.7l-9 3.5c-3 1.2-6 2.4-8.8 4-1.4.8-2.8 1.6-4.1 2.6s-2.5 2-3.7 3.2l.1.1c4.9-4.2 11-6.6 16.9-8.8 6-2.2 12-4.7 17.7-7.6l4.3-2.2c1.4-.8 2.8-1.6 4.2-2.3 2.8-1.5 5.7-2.9 8.6-4.4 2.8-1.5 5.6-3.1 8.3-5 2.7-2 5.2-4.2 7-6.9z" fill="url(#e)"/><path d="M1919.2 322c-1.4 1.2-3.1 1.9-4.9 2.4s-3.6.7-5.4 1l-10.9 1.9-10.9 2.2c-3.6.7-7.3 1.3-10.9 1.9-7.3 1.1-14.6 2.4-21.8 3.7-7.3 1.3-14.5 2.8-21.7 4.4v.1c7.3-1 14.6-2.2 21.9-3.5l32.7-6.3 10.9-1.7c3.6-.6 7.3-1.3 10.9-2 1.8-.4 3.6-.7 5.4-1.2 1.8-.6 3.5-1.5 4.7-2.9z" fill="url(#f)"/><path d="M1900.2 386.2c-11.3.7-22.7.7-34-.1-5.7-.4-11.3-1-16.9-1.8-2.8-.4-5.6-.8-8.5-1-2.8-.2-5.7-.2-8.5-.2a120.68 120.68 0 0 1-8.5-.3c-2.8-.2-5.6-.7-8.4-1.1l-8.4-1.5c-2.8-.5-5.7-.8-8.5-1-11.3-1-22.8-.5-33.9-3.1v.1c5.5 1.6 11.1 2.4 16.8 2.9s11.3.7 17 1.2c5.6.5 11.2 1.5 16.8 2.4 2.8.4 5.6.8 8.5 1s5.7.1 8.5 0c11.4-.8 22.5 2.4 33.8 3.3 11.4.8 22.9.7 34.2-.8z" fill="url(#g)"/><path d="M1964.3 404.2c-5.5-1-10.9-2.3-16.2-4-2.7-.8-5.3-1.7-7.9-2.7-2.7-.9-5.5-1.2-8.2-1.6-5.5-.8-11-1.8-16.4-3.1-5.4-1.2-10.8-2.8-16.1-4.4v.1c5.1 2.3 10.5 4 15.9 5.4 5.5 1.3 11 2.2 16.6 2.6 2.8.2 5.6.4 8.2 1.4 1.3.5 2.6 1 3.9 1.6s2.6 1.1 3.9 1.5c5.1 1.8 10.7 3 16.3 3.2z" fill="url(#h)"/><path d="M1897.5 388.9c.3 4.2.8 8.5 1.2 12.7.2 2.1.3 4.2.2 6.3s-.3 4.2-.4 6.3c-.3 4.2-.4 8.5-.7 12.7-.2 4.2-.5 8.5-.8 12.7-.6 8.5-.9 17-.9 25.5s.3 17 .9 25.5h.1l.1-25.5.1-12.7.2-12.8c.1-4.3.3-8.5.6-12.7s.8-8.5 1.2-12.7c.2-2.1.4-4.2.5-6.4.1-2.1-.1-4.3-.3-6.4-.6-4.1-1.2-8.3-2-12.5z" fill="url(#i)"/><path d="M1898.3 387.5a64.39 64.39 0 0 0-12.1 11.2l-5.1 6.5-2.8 2.9s-2.1 1.7-3.2 2.5c-2.2 1.6-4.6 3.1-6.6 5s-3.8 4-5.5 6.2c-3.4 4.4-6.3 9-9.8 13.3-1.7 2.1-3.6 4.1-5.7 5.9s-4.3 3.3-6.5 5-4.4 3.5-6.1 5.7c-1.8 2.2-3.3 4.5-5 6.6s-3.7 4-5.7 5.9l-6 5.6-12 11.4.1.1 12.4-10.9 6.2-5.5a54.78 54.78 0 0 0 5.9-5.9c1.8-2.2 3.3-4.5 5-6.6s3.7-3.9 5.9-5.6 4.4-3.3 6.5-5.1c2.1-1.9 3.9-4 5.6-6.2 3.4-4.4 6.2-9.1 9.6-13.4 1.7-2.2 3.6-4.2 5.6-6 2.1-1.8 4.4-3.2 6.7-4.8 2.3-1.5 4.5-3.4 6.2-5.6s3.3-4.5 5-6.6c3.3-4.2 7.2-8 11.4-11.6z" fill="url(#j)"/><path d="M1764.1 379.5c2.2 4 3.8 8.3 5.5 12.6 1.6 4.3 3.3 8.6 5 12.8l5.3 12.7c1.7 4.2 3.3 8.5 4.9 12.8l9.8 25.7 10.5 25.4h.1l-9.6-25.8-10.3-25.5c-1.8-4.2-3.5-8.5-5.1-12.8-1.7-4.3-3.2-8.6-4.8-12.9s-3.3-8.5-5.1-12.8c-1.8-4.2-3.6-8.4-6.2-12.2z" fill="url(#k)"/><path d="M1763.7 377.6c2.9 2.3 5.7 4.7 8.5 7.2 1.4 1.2 2.7 2.5 3.9 3.9 1.3 1.3 2.4 2.8 3.7 4.1 2.4 2.8 5.2 5.3 8.1 7.7 2.8 2.4 5.7 4.7 8.6 7l17.4 13.9 17.3 13.9 17.5 13.7c5.9 4.5 12 8.7 17.5 13.7 5.4 5 10.2 10.6 15.2 16.1 2.5 2.7 5.1 5.4 7.8 7.9 2.8 2.5 5.7 4.8 8.9 6.6l.1-.1c-6.2-4-11.4-9.4-16.3-15s-9.6-11.4-15.1-16.4-11.7-9.2-17.6-13.7l-17.8-13.4a585.15 585.15 0 0 1-17.4-13.8l-17.1-14.2-8.6-7.1c-2.9-2.3-5.6-4.7-8.1-7.5-1.2-1.4-2.5-2.8-3.8-4.1s-2.7-2.6-4.1-3.8c-2.6-2.3-5.6-4.5-8.6-6.6z" fill="url(#l)"/><path d="M1896.9 492.5c-7.4-1.2-14.8-2.2-22.2-3-3.7-.4-7.5-.7-11.2-.8s-7.5 0-11.2-.3c-7.4-.6-14.7-2.5-22-4-7.3-1.6-14.8-2.9-22.3-2.3v.1c7.5 0 14.8 1.6 22.1 3.2l11 2.3c3.7.7 7.4 1.2 11.2 1.3s7.5-.1 11.2.1c3.7.1 7.4.7 11.1 1.2 7.4 1 14.8 1.8 22.3 2.2z" fill="url(#m)"/><path d="M1964.5 402.9c-2.1 4.1-5.2 7.5-8 11.1l-8.4 10.8-8.2 11c-2.7 3.7-5.6 7.2-8.4 10.8l-8.5 10.7c-1.4 1.8-2.8 3.6-4 5.7-1.2 2-1.8 4.3-2.7 6.3-1 2-2.5 3.7-4 5.3-1.6 1.7-3.1 3.4-4.6 5.1-3 3.5-5.6 7.3-8 11.2l.1.1c2.6-3.7 5.5-7.3 8.5-10.7 1.5-1.7 3.1-3.3 4.7-5 1.6-1.6 3.2-3.4 4.2-5.5s1.6-4.3 2.7-6.3 2.4-3.8 3.8-5.6c2.8-3.6 5.5-7.3 8.2-11s5.5-7.3 8.3-10.9l8.5-10.7 8.3-10.9c2.8-3.6 5.8-7.2 7.5-11.5z" fill="url(#n)"/><path d="M1991.3 499.6c-3.7-4.7-7.3-9.4-10.8-14.2-1.8-2.4-3.5-4.8-5.2-7.2s-3.4-4.9-5.4-7.2c-3.9-4.6-9-7.9-13-12.3-4.1-4.3-7.6-9.2-11-14.1s-6.7-9.9-10.4-14.6c-1.8-2.4-3.9-4.5-5.9-6.7l-6.1-6.6c-8.1-8.7-15.8-17.8-23.2-27.2l-.1.1c6.9 9.8 14.4 19.1 22.5 27.8l6.1 6.6c2 2.2 4.1 4.3 6 6.6 3.7 4.6 7.2 9.5 10.7 14.3s7.1 9.6 11.2 14c2 2.2 4.2 4.3 6.4 6.3s4.4 4 6.2 6.3c1.9 2.3 3.5 4.8 5.3 7.2l5.3 7.2c3.6 4.7 7.3 9.3 11.4 13.7z" fill="url(#o)"/><path d="M1993.2 502.1c-7.4-2.6-15.2-4.1-23-5l-11.7-1.1c-3.9-.3-7.8-.8-11.7-1.2-7.8-.9-15.6-1.5-23.4-2a307.22 307.22 0 0 0-23.5-.6v.1l46.8 3 11.7 1c3.9.4 7.8 1 11.6 1.6 7.8 1.1 15.5 2.3 23.2 4.2z" fill="url(#p)"/><path d="M1896 494.3c-2.2 2.6-4.9 4.5-7.7 6.4-1.4 1-2.8 1.9-4.2 2.9s-2.7 2.1-4 3.2c-2.6 2.2-5 4.6-7.5 6.9l-7.4 6.9-14.8 13.9c-4.9 4.7-9.6 9.5-14.3 14.4l.1.1c5.1-4.5 10.1-9.1 14.9-13.7l14.4-14.2c2.4-2.4 4.8-4.8 7.3-7 2.5-2.3 5.1-4.4 7.8-6.5 2.6-2.1 5.3-4.1 8.1-6.1 2.7-2.2 5.5-4.3 7.3-7.2z" fill="url(#q)"/><path d="M1806.1 483.1l7.5 16.1 3.7 8.1c1.2 2.7 2.2 5.5 3.1 8.3l3 8.4 3.4 8.2c2.5 5.4 5.4 10.6 9 15.3l.1-.1c-3.1-5-5.8-10.3-8.1-15.7-2.4-5.4-4.6-10.9-6.9-16.3s-4.4-11-6.6-16.5c-2.3-5.5-5-10.8-8.2-15.8z" fill="url(#r)"/><path d="M1835.4 551.8c-.5 6.3-.8 12.6-.9 19-.1 3.2 0 6.3-.1 9.5s-.3 6.3-.5 9.5l-1.3 18.9c-.4 6.3-.7 12.6-.9 19h.1a301.81 301.81 0 0 0 1.8-18.9c.4-6.3.7-12.6.8-19 .1-3.2.1-6.3.3-9.5.1-3.2.4-6.3.6-9.5.3-6.3.4-12.7.2-19h-.1z" fill="url(#s)"/><path d="M1837.2 550.6c2.4 3.2 4 6.8 5.9 10.2l3 5.1c1.1 1.7 2.2 3.3 3.3 4.9 2.3 3.2 4.8 6.3 7.3 9.4l14.8 18.6 7.3 9.3c4.8 6.3 9.4 12.7 13.4 19.5h.1c-3.4-7.1-7.8-13.8-12.6-20.1s-10-12.3-15.2-18.3c-2.6-3-5.2-6-7.6-9.2l-1.8-2.4-1.7-2.4c-1.2-1.6-2.3-3.2-3.4-4.9-2.2-3.3-4.4-6.6-6.4-10-1.8-3.2-3.7-6.8-6.4-9.7z" fill="url(#t)"/><path d="M1926.1 612.7c-6.2-6.8-13.7-12.2-21.5-16.9-3.9-2.3-8-4.4-12-6.7-4-2.2-7.9-4.6-11.8-6.9-1.9-1.2-3.8-2.5-5.6-3.8-1.8-1.4-3.5-2.9-5.2-4.4s-3.3-3.1-5-4.7c-1.7-1.5-3.6-2.9-5.5-4.2-3.8-2.6-7.8-4.8-11.7-7.2s-7.6-5-10.8-8.3l-.1.1c3 3.5 6.7 6.3 10.5 8.9 3.8 2.5 7.8 4.8 11.5 7.4 3.8 2.5 7.1 5.6 10.5 8.7 1.7 1.5 3.4 3 5.3 4.4s3.8 2.5 5.8 3.7c8 4.4 15.9 9 23.6 13.9 3.9 2.4 7.7 4.9 11.4 7.6 3.7 2.4 7.2 5.3 10.6 8.4z" fill="url(#u)"/><path d="M1991.4 502.4l-38.8 11-19.3 5.9c-6.4 2-12.9 3.8-19.4 5.6l-38.8 11.2-19.3 5.9-19.3 6v.1l19.5-5.4 19.4-5.6 58-17.4 19.4-5.5c12.9-3.7 25.8-7.6 38.6-11.8z" fill="url(#v)"/><path d="M1897.8 492.6c2 10 4.3 19.9 6.7 29.8l3.8 14.8c1.2 4.9 2.3 9.9 3.4 14.9l6.8 29.8 7.5 29.6h.1l-6.6-29.9-7.3-29.7a359.5 359.5 0 0 1-3.6-14.9c-1.2-5-2.2-10-3.3-14.9-2.3-9.8-4.7-19.7-7.5-29.5z" fill="url(#w)"/><use xlink:href="#BB" fill="url(#x)"/><path d="M1769.4 35.6c-.1 3 2.8 5.5 5.3 5.3 3.2 0 5.6-2.1 5.3-5.3-.2-2.6-2.8-5.3-5.3-5.3-3.1-.4-5.4 2.2-5.3 5.3z" fill="url(#y)"/><path d="M1872.4 172.2c-.1 3 2.8 5.5 5.3 5.3 3.2 0 5.6-2.1 5.3-5.3-.2-2.6-2.8-5.3-5.3-5.3-3.1-.3-5.5 2.2-5.3 5.3z" fill="url(#z)"/><path d="M1797.8 182.6c-.1 3 2.8 5.5 5.3 5.3 3.2 0 5.6-2.1 5.3-5.3-.2-2.6-2.8-5.3-5.3-5.3-3.1-.4-5.5 2.2-5.3 5.3z" fill="url(#AA)"/><path d="M1912.7 323.4c-.1 3 2.8 5.5 5.3 5.3 3.2 0 5.6-2.1 5.3-5.3-.2-2.6-2.8-5.3-5.3-5.3-3.1-.3-5.5 2.2-5.3 5.3z" fill="url(#AB)"/><use xlink:href="#BC" fill="url(#AC)"/><path d="M1758.8 377.5c-.1 3 2.8 5.5 5.3 5.3 3.2 0 5.6-2.1 5.3-5.3-.2-2.6-2.8-5.3-5.3-5.3-3.1-.3-5.5 2.2-5.3 5.3z" fill="url(#AD)"/><path d="M1894.1 387.1c-.1 3 2.8 5.5 5.3 5.3 3.2 0 5.6-2.1 5.3-5.3-.2-2.6-2.8-5.3-5.3-5.3-3.2-.4-5.5 2.2-5.3 5.3z" fill="url(#AE)"/><path d="M1892.5 491.8c-.1 3 2.8 5.5 5.3 5.3 3.2 0 5.6-2.1 5.3-5.3-.2-2.6-2.8-5.3-5.3-5.3-3.1-.3-5.5 2.2-5.3 5.3z" fill="url(#AF)"/><path d="M1800.8 483.1c-.1 3 2.8 5.5 5.3 5.3 3.2 0 5.6-2.1 5.3-5.3-.2-2.6-2.8-5.3-5.3-5.3-3.1-.3-5.4 2.2-5.3 5.3z" fill="url(#AG)"/><path d="M1831.2 550.6c-.1 3 2.8 5.5 5.3 5.3 3.2 0 5.6-2.1 5.3-5.3-.2-2.6-2.8-5.3-5.3-5.3-3.2-.4-5.5 2.2-5.3 5.3z" fill="url(#AH)"/><path d="M1700.9 34c-.1 3 2.8 5.5 5.3 5.3 3.2 0 5.6-2.1 5.3-5.3-.2-2.6-2.8-5.3-5.3-5.3-3.2-.3-5.5 2.2-5.3 5.3z" fill="url(#AI)"/></g><g clip-path="url(#Az)"><g clip-path="url(#BA)"><path d="M425.212 577.283c-3.112-.647-6.201-1.153-9.327-1.44l-4.706-.319-4.67-.539c-3.148-.426-6.309-.491-9.39-.498s-6.22.067-9.395.362l.022.139c3.148.426 6.251.573 9.413.638l9.381-.002 4.706.319 4.634.761c3.089.506 6.134.734 9.332.579z" fill="url(#AJ)"/><path d="M386.411 572.911c3.408-4.199 6.712-8.597 9.796-13.031l4.563-6.819c1.502-2.247 3.166-4.376 4.888-6.586 3.327-4.258 6.55-8.714 9.715-13.089l9.149-13.5-.081-.058c-3.408 4.199-6.713 8.597-9.878 12.972a443.4 443.4 0 0 0-9.31 13.382c-1.502 2.247-3.003 4.493-4.726 6.703-1.582 2.187-3.327 4.258-4.968 6.526-3.304 4.398-6.388 8.832-9.148 13.5z" fill="url(#AK)"/><path d="M445 560c-1.056-1.354-1.64-2.957-2.225-4.56l-1.919-4.781-2.321-4.629c-.75-1.575-1.335-3.178-1.919-4.781-1.17-3.207-2.505-6.385-3.909-9.466-1.501-3.151-3.071-6.204-4.877-9.133l-.07.096c1.169 3.207 2.504 6.385 3.839 9.563 1.405 3.082 2.905 6.232 4.475 9.286.751 1.575 1.571 3.053 2.155 4.656l1.754 4.81c.585 1.603 1.335 3.178 1.99 4.684.68 1.672 1.596 3.22 3.027 4.255z" fill="url(#AL)"/><path d="M457.934 533.072c-.9-1.145-2.21-1.722-3.439-2.241a29.08 29.08 0 0 0-3.863-1.314l-3.877-.953c-1.288-.438-2.517-.957-3.688-1.557-2.305-1.42-4.609-2.841-7.068-3.878a37.12 37.12 0 0 0-7.821-2.326l-.059.081 7.375 3.114 3.57 1.718 3.652 1.778 3.804 1.394 3.746 1.476 3.782 1.255c1.428.415 2.774.772 3.886 1.453z" fill="url(#AM)"/><path d="M286.277 661.171c-2.318-12.662-5.452-25.05-8.947-37.451-.853-3.086-1.846-6.149-2.42-9.28l-1.664-9.473a73.57 73.57 0 0 0-2.361-9.36c-.993-3.064-2.045-6.046-3.119-9.168-4.089-12.091-7.385-24.596-10.857-36.858-.853-3.086-1.567-6.194-2.141-9.325s-.59-6.351-.966-9.585c-.751-6.468-3.634-12.379-4.165-18.811l-.139.023c.252 6.476 2.936 12.491 3.525 18.842.295 3.175.311 6.395.745 9.548s1.229 6.32 2.024 9.487c3.413 12.343 6.908 24.745 11.276 36.791 2.184 6.023 4.647 12.002 5.597 18.366.574 3.131.95 6.365 1.524 9.495.435 3.153 1.369 6.298 2.083 9.406l4.98 18.537c1.891 6.428 3.458 12.622 5.025 18.816z" fill="url(#AN)"/><path d="M383.064 572.589c-11.012-5.251-22.119-10.2-33.284-15.068l-16.826-7.111-16.671-7.494-33.285-15.068c-11.048-5.031-22.119-10.201-32.919-15.915l-.059.081c10.471 6.34 21.366 11.753 32.495 16.842l16.731 7.413 16.766 7.192c5.601 2.323 11.224 4.787 16.789 7.331 5.623 2.464 11.129 5.089 16.613 7.575l33.65 14.222z" fill="url(#AO)"/><path d="M220.746 640.178l20.853-7.501 20.728-7.839c6.875-2.679 13.728-5.497 20.499-8.374l20.292-8.771 10.083-4.555 5.082-2.248 5.104-2.108c6.875-2.679 13.876-5.02 20.854-7.501 3.518-1.281 6.978-2.481 10.334-3.879 3.438-1.339 6.772-2.877 10.164-4.496 6.727-3.156 13.269-6.569 19.523-10.438l-.081-.058c-6.519 3.553-13.003 6.885-19.833 9.843-6.749 3.017-13.646 5.556-20.624 8.037s-13.979 4.822-20.832 7.64c-1.748.71-3.437 1.34-5.104 2.108l-5.06 2.388-9.979 4.753c-6.646 3.215-13.395 6.232-20.27 8.911-6.852 2.818-13.749 5.358-20.646 7.897l-41.087 16.191z" fill="url(#AP)"/><path d="M220.194 637.187c1.517-10.628 4.38-20.899 7.383-31.192l9.112-30.682c1.392-5.165 2.621-10.447 3.49-15.742l2.687-15.829c1.9-10.474 4.38-20.899 6.559-31.418l-.081-.058c-2.863 10.27-5.564 20.659-7.523 31.214-1.008 5.318-1.737 10.591-2.547 15.806s-1.9 10.475-3.071 15.675c-1.251 5.143-2.701 10.389-4.394 15.459l-4.997 15.268c-3.143 10.316-5.822 20.843-6.618 31.499z" fill="url(#AQ)"/><path d="M214.702 576.192c3.03-5.213 5.98-10.484 8.686-15.932s4.949-11.107 8.93-15.756a35.38 35.38 0 0 0 2.696-3.727c.798-1.274 1.515-2.607 2.232-3.939l4.303-7.996c2.788-5.388 5.575-10.777 8.061-16.261l-.081-.059c-3.112 5.155-6.12 10.507-8.988 15.838l-4.222 8.054c-.717 1.332-1.353 2.723-2.151 3.997s-1.597 2.548-2.476 3.764-1.677 2.489-2.534 3.844c-.798 1.274-1.515 2.606-2.232 3.939l-4.384 7.937c-2.729 5.308-5.436 10.755-7.84 16.297z" fill="url(#AR)"/><path d="M212.698 574.867l-26.713-33.025-13.702-16.206c-4.594-5.421-8.99-10.946-13.386-16.471l-26.772-32.944-13.642-16.287-13.702-16.206-.059.081c4.338 5.606 8.792 11.05 13.269 16.634l13.386 16.471 27.146 32.597 13.585 16.368 13.327 16.553c8.85 10.969 17.899 21.835 27.263 32.435z" fill="url(#AS)"/><path d="M211.445 576.428l-19.855-7.698-2.157-.943-4.255-1.967-8.743-3.61-8.956-3.146-8.991-2.925-18.043-5.77c-12.008-3.874-23.886-8.27-35.646-12.827l-17.663-6.977-17.604-7.058-.059.082 17.334 7.602 17.568 7.278c11.783 4.697 23.755 8.792 35.858 12.364l18.16 5.607a274.37 274.37 0 0 1 17.816 6.594c5.88 2.279 11.571 5.161 17.451 7.44 5.777 2.081 11.752 4.058 17.785 5.954z" fill="url(#AT)"/><path d="M159.796 605.343c-4.484-2.503-8.382-5.816-12.279-9.129l-11.635-10.021-11.576-10.102c-3.839-3.394-7.561-6.951-11.283-10.507-7.443-7.113-15.004-14.064-22.741-20.771a526.79 526.79 0 0 0-23.643-19.695l-.059.081 45.988 40.673 11.4 10.345 11.283 10.507c3.781 3.475 7.678 6.788 11.716 10.079 3.956 3.233 8.111 6.361 12.829 8.54z" fill="url(#AU)"/><path d="M2.031 619.206c6.539 1.027 13.186 1.392 19.838.898 3.256-.236 6.63-.635 9.9-1.231s6.437-1.391 9.752-1.709c3.234-.375 6.594-.413 9.873-.51l2.5-.043 7.432-.548 19.759-1.381 39.474-3.041c6.571-.554 13.098-1.386 19.705-2.16l19.639-2.579-.023-.14-19.669 1.94-19.692 1.799-39.465 3.541-19.714 1.661c-3.337.177-6.594.413-9.895.37s-6.602-.086-9.917.231-6.563 1.054-9.752 1.709c-3.27.596-6.482 1.112-9.738 1.348-6.792.517-13.395.431-20.006-.155z" fill="url(#AV)"/><path d="M66.448 672.963c-.288-6.256-.657-12.571-1.165-18.863s-.796-12.548-.003-18.763c.367-3.066.712-6.273.858-9.376s.131-6.323.197-9.485l1.665-56.557.334-18.888.114-18.925-.14.022-.776 18.817-.555 18.852-.944 56.585c-.066 3.161-.212 6.264-.417 9.448s-.712 6.273-1.079 9.34c-.426 3.148-.631 6.332-.557 9.471s.369 6.315.583 9.432c.509 6.292 1.157 12.562 1.886 18.89z" fill="url(#AW)"/><path d="M66.453 521.28c-2.644-4.875-5.604-9.484-8.844-14.049l-4.994-6.575L47.68 494c-3.298-4.484-6.771-8.725-10.443-12.862s-7.204-8.297-10.105-12.988l-.059.081c2.388 5.06 5.884 9.44 9.416 13.6l10.817 12.515c1.777 2.15 3.474 4.241 5.053 6.494 1.638 2.172 3.1 4.587 4.679 6.841 2.96 4.609 6.118 9.115 9.416 13.599z" fill="url(#AX)"/><path d="M28.706 469.043l8.592-4.028c2.879-1.25 5.942-2.243 8.925-3.295l9.028-3.096 9.154-2.758c6.171-1.707 12.181-3.531 18.249-5.436s12.114-3.949 18.079-6.052l-.023-.14c-6.193 1.567-12.284 3.332-18.352 5.237l-18.101 5.913c-2.982 1.052-6.046 2.045-9.05 2.957s-6.172 1.707-9.176 2.618-6.046 2.045-8.983 3.376-5.691 2.918-8.34 4.704z" fill="url(#AY)"/><path d="M66.573 522.478c-7.444-1.311-14.924-2.403-22.381-3.354l-11.303-1.266-11.209-1.566-22.359-3.215-22.467-2.553-.059.081c7.444 1.311 14.865 2.484 22.404 3.494 7.48 1.091 14.996 1.962 22.431 2.773a241.5 241.5 0 0 1 11.186 1.428c3.729.476 7.421 1.172 11.173 1.787 7.516.871 14.974 1.823 22.585 2.391z" fill="url(#AZ)"/><path d="M1.383 618.737c.695-1.473.727-3.053.76-4.634l-.1-4.639c.147-3.103.874-6.156 1.462-9.187l3.482-18.462 3.18-18.558 3.482-18.463 7.045-36.867c1.153-6.201 2.248-12.32 3.041-18.535s1.226-12.443.857-18.758l-.14.023c.067 6.22-.505 12.47-1.438 18.707-.874 6.156-2.189 12.24-3.343 18.441l-6.604 36.939c-1.014 6.179-2.108 12.298-3.343 18.441l-3.703 18.426c-1.234 6.142-2.248 12.321-3.343 18.441-.507 3.089-1.153 6.2-1.219 9.362-.033 1.581.214 3.117.321 4.675s.074 3.139-.4 4.648z" fill="url(#Aa)"/><path d="M.725 619.988c5.987-7.764 11.812-15.646 17.475-23.645l8.373-12.086c2.791-4.028 5.744-7.94 8.697-11.851l8.778-11.794 8.535-11.969c5.501-8.116 10.516-16.583 14.198-25.768l-.081-.059c-4.168 8.833-9.426 17.125-14.927 25.241l-16.827 24.114-8.535 11.969-8.778 11.793c-5.906 7.823-11.488 15.881-16.908 24.055z" fill="url(#Ab)"/><path d="M66.908 520.992l12.019-38.453 5.627-19.379 5.928-19.285 12.019-38.453c2.05-6.417 3.879-12.869 5.789-19.263l5.627-19.38-.081-.059-6.23 19.191-6.091 19.167-11.555 38.665-5.708 19.322-6.009 19.226c-4.099 12.833-7.897 25.76-11.334 38.701z" fill="url(#Ac)"/><path d="M106.071 441.945c-1.369-6.297-.459-12.674.231-19.086l1.034-9.62c.172-1.603.426-3.147.598-4.751.254-1.544.566-3.17.959-4.737.646-3.112 1.432-6.246 2.218-9.38l2.44-9.343c.786-3.134 1.572-6.268 1.916-9.474.173-1.604.345-3.207.297-4.846s-.155-3.198-.424-4.874l-.14.023c.531 6.432-1.1 12.781-2.775 18.85-1.734 6.151-3.226 12.478-4.217 18.796l-.738 4.773c-.172 1.604-.344 3.207-.598 4.751-.425 3.148-.991 6.318-1.475 9.547-.426 3.148-.771 6.354-.814 9.656.038 3.359.355 6.675 1.488 9.715z" fill="url(#Ad)"/><path d="M67.775 523.718c-.152-1.838.278-3.625.927-5.377s1.543-3.327 2.355-4.961l4.849-9.945 4.606-10.121c1.543-3.327 3.225-6.677 4.849-9.945 3.387-6.56 6.613-13.236 9.779-19.832 3.225-6.677 6.23-13.389 9.154-20.161l-.081-.058c-3.468 6.5-6.775 13.118-10 19.795l-9.374 20.125c-1.543 3.327-3.005 6.712-4.687 10.062l-5.011 9.828c-1.624 3.268-3.225 6.676-4.768 10.004-.731 1.692-1.543 3.327-2.193 5.078-.569 1.81-.836 3.715-.405 5.508z" fill="url(#Ae)"/><path d="M26.895 470.695c6.056-9.566 12.738-18.803 20.009-27.489a235.7 235.7 0 0 1 11.364-12.638c1.965-2.034 3.93-4.068 5.792-6.301 1.803-2.151 3.503-4.501 5.144-6.77s3.422-4.559 5.225-6.711 3.849-4.127 5.815-6.161l6.139-5.927c2.046-1.975 3.989-4.149 5.792-6.3 7.433-8.57 13.769-18.18 22.382-25.65l-.081-.059c-4.52 3.519-8.451 7.587-12.197 11.912s-7.19 8.746-10.936 13.071c-3.687 4.244-7.78 8.195-11.791 12.205-1.965 2.034-3.931 4.068-5.792 6.301s-3.422 4.559-4.982 6.887c-6.034 9.705-15.132 16.823-22.484 25.451-7.33 8.768-13.989 18.144-19.397 28.179z" fill="url(#Af)"/><path d="M-25.26 512.08c4.034-3.87 8.252-7.483 12.736-10.781 2.231-1.719 4.484-3.298 6.818-4.818 2.312-1.66 4.196-3.753 6.103-5.706 3.872-3.988 7.906-7.858 12.124-11.471 4.137-3.672 8.599-7.109 13.002-10.466l-.081-.058c-4.853 2.784-9.395 6.163-13.695 9.717-4.277 3.695-8.23 7.623-11.836 11.926-1.803 2.151-3.606 4.303-5.94 5.823-1.167.761-2.334 1.521-3.582 2.222s-2.415 1.462-3.501 2.281c-4.448 3.077-8.702 6.911-12.146 11.331z" fill="url(#Ag)"/><path d="M26.289 466.925c-3.579-2.219-7.356-4.334-10.993-6.472-1.819-1.068-3.579-2.218-5.222-3.53s-3.227-2.705-4.87-4.017c-3.227-2.705-6.652-5.306-9.88-8.011-3.286-2.623-6.594-5.387-9.821-8.092a362.05 362.05 0 0 0-20.133-15.675 361.58 361.58 0 0 0-21.188-14.216l-.059.081 20.602 15.027 10.231 7.524 10.254 7.665a264 264 0 0 1 9.938 7.929c3.227 2.705 6.418 5.631 9.587 8.416 1.584 1.393 3.169 2.786 4.892 4.157 1.643 1.312 3.543 2.439 5.361 3.508l11.3 5.706z" fill="url(#Ah)"/><path d="M26.955 468.393a64.39 64.39 0 0 0-1.983-16.368l-2.277-7.942-.709-3.968s-.147-2.698-.15-4.058c-.007-2.72.184-5.544-.183-8.278s-1.014-5.424-1.8-8.09c-1.572-5.334-3.6-10.38-5.032-15.736-.705-2.608-1.212-5.32-1.44-8.076s-.153-5.418-.241-8.197-.257-5.617-1.043-8.284c-.727-2.748-1.712-5.311-2.417-7.919s-1.072-5.342-1.439-8.077l-1.021-8.143-2.203-16.405-.14.023 1.564 16.435.822 8.247a54.77 54.77 0 0 0 1.322 8.239c.727 2.748 1.712 5.311 2.417 7.919s.991 5.284 1.079 8.063.095 5.499.322 8.256c.309 2.815.955 5.504 1.741 8.171 1.572 5.333 3.739 10.357 5.23 15.632.786 2.667 1.293 5.378 1.579 8.054.228 2.756.014 5.44-.038 8.242-.133 2.742.117 5.639.903 8.305s1.712 5.312 2.417 7.92c1.469 5.135 2.262 10.522 2.717 16.035z" fill="url(#Ai)"/><path d="M112.094 364.35c-4.531-.562-8.952-1.786-13.433-2.929-4.422-1.224-8.902-2.367-13.301-3.451l-13.396-3.149c-4.399-1.085-8.821-2.309-13.243-3.533l-26.567-7.123-26.734-6.38-.059.081 26.531 7.344 26.698 6.601c4.458 1.003 8.938 2.146 13.36 3.37 4.48 1.143 8.844 2.448 13.265 3.672s8.821 2.308 13.36 3.37c4.458 1.003 8.916 2.006 13.519 2.127z" fill="url(#Aj)"/><path d="M113.867 365.14c-3.563 1.001-7.148 1.863-10.815 2.666a35.82 35.82 0 0 1-5.446.874c-1.815.292-3.675.304-5.491.595-3.675.304-7.342 1.107-10.986 2.05-3.586.862-7.149 1.863-10.712 2.865l-21.461 5.951-21.402 5.87-21.357 6.149c-7.104 2.143-14.082 4.624-21.357 6.149-7.216 1.445-14.567 2.052-21.954 2.879-3.653.443-7.364.967-10.972 1.69-3.667.803-7.23 1.805-10.564 3.342l.022.14c6.875-2.679 14.298-3.727 21.707-4.415s14.863-1.097 22.138-2.622 14.312-4.088 21.416-6.23l21.29-6.568c7.104-2.143 14.231-4.146 21.38-6.01l32.321-8.338c3.563-1.002 7.09-1.783 10.824-2.167a74.07 74.07 0 0 0 5.549-.676c1.815-.292 3.689-.664 5.482-1.095 3.388-.758 6.929-1.9 10.388-3.099z" fill="url(#Ak)"/><path d="M-57.298 405.717c5.31-5.292 10.457-10.702 15.443-16.229 2.493-2.763 4.963-5.666 7.213-8.605s4.396-6.077 6.808-8.899c4.823-5.644 10.642-10.445 16.136-15.481 5.575-4.977 11.024-10.291 14.934-16.72l-.081-.058c-4.396 6.076-9.971 11.053-15.546 16.03l-8.311 7.565c-2.736 2.587-5.31 5.292-7.618 8.312s-4.315 6.135-6.646 9.016c-2.25 2.939-4.904 5.586-7.478 8.29-5.148 5.41-10.133 10.937-14.853 16.779z" fill="url(#Al)"/><path d="M-24.323 513.004c-2.091-4.104-3.029-8.609-4.305-12.987l-3.827-13.136-4.106-13.092c-1.415-4.356-2.551-8.757-3.827-13.136l-3.687-13.158c-.638-2.189-1.276-4.379-2.274-6.582-.917-2.144-2.429-3.978-3.522-5.88-1.034-1.982-1.533-4.194-1.95-6.347-.44-2.293-.938-4.505-1.436-6.716-1.077-4.482-2.632-8.816-4.386-13.047l-.14.023c1.474 4.275 2.691 8.735 3.687 13.158.498 2.212.857 4.446 1.296 6.739.359 2.234.879 4.585 1.995 6.626s2.546 3.817 3.522 5.88 1.672 4.172 2.31 6.362c1.276 4.378 2.691 8.734 4.106 13.091s2.691 8.735 3.967 13.113l3.687 13.159 3.967 13.113c1.276 4.379 2.434 8.92 4.922 12.817z" fill="url(#Am)"/><path d="M-118.38 478.041c5.976-.243 11.895-.405 17.835-.428 3-.052 5.941-.022 8.882.007s5.963.117 8.999-.155c6.013-.464 11.676-2.662 17.585-3.324 5.887-.801 11.909-.765 17.871-.648s11.948.374 17.925.131c3-.052 5.932-.522 8.887-.853l8.923-1.074c11.796-1.464 23.683-2.369 35.636-2.855l-.022-.14c-11.984-.153-23.915.472-35.712 1.936l-8.923 1.074c-2.955.331-5.887.802-8.864.993-5.896.302-11.917.266-17.858.288s-11.94.126-17.908.869c-2.955.331-5.946.883-8.856 1.493s-5.82 1.22-8.738 1.331c-2.977.191-5.94.022-8.94.074l-8.94.074c-5.918.162-11.814.464-17.782 1.207z" fill="url(#An)"/><path d="M1.856 619.449c-1.934-8.928-4.067-17.753-6.339-26.555l-3.548-13.181-3.269-13.225-6.816-26.407-7.514-26.294-.14.022c2.074 8.906 4.265 17.649 6.618 26.51l3.548 13.181 3.688 13.158c2.551 8.758 4.544 17.605 6.618 26.51 2.191 8.744 4.463 17.546 7.154 26.281z" fill="url(#Ao)"/><path d="M1.082 618.642c-5.36-5.728-10.345-11.803-15.389-17.797l-15.132-17.982-7.596-8.95c-2.551-2.957-5.044-5.994-7.537-9.032s-4.787-6.178-7.28-9.216a111.82 111.82 0 0 0-7.911-8.685c-2.808-2.772-5.734-5.382-8.402-8.176-2.75-2.853-5.36-5.728-7.97-8.604-5.103-5.913-9.89-12.091-14.56-18.432l-13.987-18.881-14.047-18.801-.058.081 13.532 19.17 13.731 19.066c4.67 6.34 9.457 12.519 14.7 18.409 2.551 2.957 5.301 5.81 8.109 8.582s5.734 5.382 8.6 8.073c5.792 5.3 10.58 11.479 15.367 17.657l14.817 18.247 15.132 17.982c5.044 5.994 10.205 11.826 15.88 17.289z" fill="url(#Ap)"/><path d="M3.537 337.658l-17.44-3.36-8.731-1.75c-2.891-.61-5.746-1.441-8.542-2.353l-8.564-2.492-8.637-2.052c-5.841-1.139-11.753-1.837-17.671-1.675l.022.139c5.868.419 11.745 1.338 17.468 2.639 5.782 1.221 11.528 2.662 17.251 3.964s11.492 2.882 17.237 4.323c5.804 1.36 11.681 2.279 17.608 2.617z" fill="url(#Aq)"/><path d="M251.875 507.061c-2.372-1.839-6.097-.955-7.401 1.188-1.875 2.593-1.58 5.768 1.188 7.401 2.224 1.361 5.936.837 7.401-1.188 2.141-2.277 1.441-5.746-1.188-7.401z" fill="url(#Ar)"/><path d="M70.45 517.631c-2.372-1.84-6.097-.955-7.401 1.188-1.876 2.592-1.581 5.768 1.188 7.4 2.224 1.362 5.935.838 7.401-1.188 2.06-2.335 1.441-5.745-1.188-7.4z" fill="url(#As)"/><path d="M106.452 438.518c-2.372-1.839-6.098-.955-7.401 1.188-1.876 2.593-1.581 5.768 1.188 7.401 2.224 1.362 5.935.838 7.401-1.188 2.199-2.358 1.441-5.746-1.188-7.401z" fill="url(#At)"/><path d="M116.82 361.228c-2.372-1.839-6.097-.955-7.4 1.188-1.876 2.593-1.581 5.768 1.188 7.4 2.223 1.362 5.935.838 7.4-1.187 2.06-2.336 1.441-5.746-1.188-7.401z" fill="url(#Au)"/><path d="M29.741 465.225c-2.372-1.839-6.097-.955-7.401 1.188-1.876 2.592-1.581 5.768 1.188 7.4 2.224 1.362 5.935.838 7.401-1.187 2.2-2.359 1.441-5.746-1.188-7.401z" fill="url(#Av)"/><path d="M6.644 333.364c-2.372-1.84-6.097-.955-7.401 1.187-1.876 2.593-1.581 5.768 1.188 7.401 2.224 1.362 5.935.838 7.401-1.188 2.06-2.336 1.383-5.664-1.188-7.4z" fill="url(#Aw)"/><path d="M429.069 515.647c-2.372-1.839-6.097-.955-7.4 1.188-1.876 2.593-1.581 5.768 1.188 7.401 2.223 1.361 5.935.837 7.4-1.188 2.119-2.417 1.441-5.746-1.188-7.401z" fill="url(#Ax)"/></g></g><defs><linearGradient id="A" x1="1943.85" y1="29.6" x2="1943.85" y2="59" xlink:href="#BD"><stop stop-color="#fff8ee"/><stop offset="1" stop-color="#fff8ee" stop-opacity="0"/></linearGradient><linearGradient id="B" x1="1949.4" y1="60.4" x2="1949.4" y2="133.8" xlink:href="#BD"><stop stop-color="#fff8ee"/><stop offset="1" stop-color="#fff8ee" stop-opacity="0"/></linearGradient><linearGradient id="C" x1="1890" y1=".8" x2="1890" y2="57.9" xlink:href="#BD"><stop stop-color="#fff8ee"/><stop offset="1" stop-color="#fff8ee" stop-opacity="0"/></linearGradient><linearGradient id="D" x1="1870.7" y1="1.8" x2="1870.7" y2="59" xlink:href="#BD"><stop stop-color="#fff8ee"/><stop offset="1" stop-color="#fff8ee" stop-opacity="0"/></linearGradient><linearGradient id="E" x1="1838.6" y1="35.5" x2="1838.6" y2="60.4" xlink:href="#BD"><stop stop-color="#fff8ee"/><stop offset="1" stop-color="#fff8ee" stop-opacity="0"/></linearGradient><linearGradient id="F" x1="1793.4" y1=".6" x2="1793.4" y2="33.4" xlink:href="#BD"><stop stop-color="#fff8ee"/><stop offset="1" stop-color="#fff8ee" stop-opacity="0"/></linearGradient><linearGradient id="G" x1="1779.65" y1=".4" x2="1779.65" y2="32.7" xlink:href="#BD"><stop stop-color="#fff8ee"/><stop offset="1" stop-color="#fff8ee" stop-opacity="0"/></linearGradient><linearGradient id="H" x1="1776.56" y1=".7" x2="1776.56" y2="32.7" xlink:href="#BD"><stop stop-color="#fff8ee"/><stop offset="1" stop-color="#fff8ee" stop-opacity="0"/></linearGradient><linearGradient id="I" x1="1763.15" y1="1" x2="1763.15" y2="32.8" xlink:href="#BD"><stop stop-color="#fff8ee"/><stop offset="1" stop-color="#fff8ee" stop-opacity="0"/></linearGradient><linearGradient id="J" x1="1739.65" y1="34.663" x2="1739.65" y2="35.7" xlink:href="#BD"><stop stop-color="#fff8ee"/><stop offset="1" stop-color="#fff8ee" stop-opacity="0"/></linearGradient><linearGradient id="K" x1="1715.75" y1=".5" x2="1715.75" y2="30.9" xlink:href="#BD"><stop stop-color="#fff8ee"/><stop offset="1" stop-color="#fff8ee" stop-opacity="0"/></linearGradient><linearGradient id="L" x1="1701.8" y1=".4" x2="1701.8" y2="31.7" xlink:href="#BD"><stop stop-color="#fff8ee"/><stop offset="1" stop-color="#fff8ee" stop-opacity="0"/></linearGradient><linearGradient id="M" x1="1852.75" y1="64.4" x2="1852.75" y2="181.7" xlink:href="#BD"><stop stop-color="#fff8ee"/><stop offset="1" stop-color="#fff8ee" stop-opacity="0"/></linearGradient><linearGradient id="N" x1="1788.45" y1="37.9" x2="1788.45" y2="181.2" xlink:href="#BD"><stop stop-color="#fff8ee"/><stop offset="1" stop-color="#fff8ee" stop-opacity="0"/></linearGradient><linearGradient id="O" x1="1915.4" y1="64.3" x2="1915.4" y2="130.2" xlink:href="#BD"><stop stop-color="#fff8ee"/><stop offset="1" stop-color="#fff8ee" stop-opacity="0"/></linearGradient><linearGradient id="P" x1="1848.55" y1="37" x2="1848.55" y2="129.8" xlink:href="#BD"><stop stop-color="#fff8ee"/><stop offset="1" stop-color="#fff8ee" stop-opacity="0"/></linearGradient><linearGradient id="Q" x1="1862.65" y1="132" x2="1862.65" y2="181.6" xlink:href="#BD"><stop stop-color="#fff8ee"/><stop offset="1" stop-color="#fff8ee" stop-opacity="0"/></linearGradient><linearGradient id="R" x1="1900.35" y1="133" x2="1900.35" y2="170.9" xlink:href="#BD"><stop stop-color="#fff8ee"/><stop offset="1" stop-color="#fff8ee" stop-opacity="0"/></linearGradient><linearGradient id="S" x1="1839.6" y1="172.2" x2="1839.6" y2="181.3" xlink:href="#BD"><stop stop-color="#fff8ee"/><stop offset="1" stop-color="#fff8ee" stop-opacity="0"/></linearGradient><linearGradient id="T" x1="1904.05" y1="172.3" x2="1904.05" y2="196.4" xlink:href="#BD"><stop stop-color="#fff8ee"/><stop offset="1" stop-color="#fff8ee" stop-opacity="0"/></linearGradient><linearGradient id="U" x1="1934.85" y1="133.8" x2="1934.85" y2="170.7" xlink:href="#BD"><stop stop-color="#fff8ee"/><stop offset="1" stop-color="#fff8ee" stop-opacity="0"/></linearGradient><linearGradient id="V" x1="1854.2" y1="174.6" x2="1854.2" y2="338.9" xlink:href="#BD"><stop stop-color="#fff8ee"/><stop offset="1" stop-color="#fff8ee" stop-opacity="0"/></linearGradient><linearGradient id="W" x1="1897.9" y1="174.7" x2="1897.9" y2="320.7" xlink:href="#BD"><stop stop-color="#fff8ee"/><stop offset="1" stop-color="#fff8ee" stop-opacity="0"/></linearGradient><linearGradient id="X" x1="1979.2" y1="235.6" x2="1979.2" y2="322.5" xlink:href="#BD"><stop stop-color="#fff8ee"/><stop offset="1" stop-color="#fff8ee" stop-opacity="0"/></linearGradient><linearGradient id="Y" x1="1908" y1="324.5" x2="1908" y2="387.5" xlink:href="#BD"><stop stop-color="#fff8ee"/><stop offset="1" stop-color="#fff8ee" stop-opacity="0"/></linearGradient><linearGradient id="Z" x1="1866.65" y1="341.8" x2="1866.65" y2="385.7" xlink:href="#BD"><stop stop-color="#fff8ee"/><stop offset="1" stop-color="#fff8ee" stop-opacity="0"/></linearGradient><linearGradient id="a" x1="1940.4" y1="323.7" x2="1940.4" y2="403.4" xlink:href="#BD"><stop stop-color="#fff8ee"/><stop offset="1" stop-color="#fff8ee" stop-opacity="0"/></linearGradient><linearGradient id="b" x1="1968.3" y1="320.1" x2="1968.3" y2="388.2" xlink:href="#BD"><stop stop-color="#fff8ee"/><stop offset="1" stop-color="#fff8ee" stop-opacity="0"/></linearGradient><linearGradient id="c" x1="1977.8" y1="319.562" x2="1977.8" y2="323.4" xlink:href="#BD"><stop stop-color="#fff8ee"/><stop offset="1" stop-color="#fff8ee" stop-opacity="0"/></linearGradient><linearGradient id="d" x1="1841.25" y1="324.3" x2="1841.25" y2="376.7" xlink:href="#BD"><stop stop-color="#fff8ee"/><stop offset="1" stop-color="#fff8ee" stop-opacity="0"/></linearGradient><linearGradient id="e" x1="1796.95" y1="338.9" x2="1796.95" y2="376.1" xlink:href="#BD"><stop stop-color="#fff8ee"/><stop offset="1" stop-color="#fff8ee" stop-opacity="0"/></linearGradient><linearGradient id="f" x1="1875.95" y1="322" x2="1875.95" y2="339.6" xlink:href="#BD"><stop stop-color="#fff8ee"/><stop offset="1" stop-color="#fff8ee" stop-opacity="0"/></linearGradient><linearGradient id="g" x1="1832.4" y1="376.1" x2="1832.4" y2="387.496" xlink:href="#BD"><stop stop-color="#fff8ee"/><stop offset="1" stop-color="#fff8ee" stop-opacity="0"/></linearGradient><linearGradient id="h" x1="1931.9" y1="388.4" x2="1931.9" y2="404.2" xlink:href="#BD"><stop stop-color="#fff8ee"/><stop offset="1" stop-color="#fff8ee" stop-opacity="0"/></linearGradient><linearGradient id="i" x1="1897.96" y1="388.9" x2="1897.96" y2="490.6" xlink:href="#BD"><stop stop-color="#fff8ee"/><stop offset="1" stop-color="#fff8ee" stop-opacity="0"/></linearGradient><linearGradient id="j" x1="1852.25" y1="387.5" x2="1852.25" y2="481.3" xlink:href="#BD"><stop stop-color="#fff8ee"/><stop offset="1" stop-color="#fff8ee" stop-opacity="0"/></linearGradient><linearGradient id="k" x1="1784.65" y1="379.5" x2="1784.65" y2="481.5" xlink:href="#BD"><stop stop-color="#fff8ee"/><stop offset="1" stop-color="#fff8ee" stop-opacity="0"/></linearGradient><linearGradient id="l" x1="1830.95" y1="377.6" x2="1830.95" y2="493.3" xlink:href="#BD"><stop stop-color="#fff8ee"/><stop offset="1" stop-color="#fff8ee" stop-opacity="0"/></linearGradient><linearGradient id="m" x1="1852.45" y1="481.951" x2="1852.45" y2="492.5" xlink:href="#BD"><stop stop-color="#fff8ee"/><stop offset="1" stop-color="#fff8ee" stop-opacity="0"/></linearGradient><linearGradient id="n" x1="1932.1" y1="402.9" x2="1932.1" y2="491" xlink:href="#BD"><stop stop-color="#fff8ee"/><stop offset="1" stop-color="#fff8ee" stop-opacity="0"/></linearGradient><linearGradient id="o" x1="1945.75" y1="389.5" x2="1945.75" y2="499.6" xlink:href="#BD"><stop stop-color="#fff8ee"/><stop offset="1" stop-color="#fff8ee" stop-opacity="0"/></linearGradient><linearGradient id="p" x1="1946.55" y1="492.175" x2="1946.55" y2="502.1" xlink:href="#BD"><stop stop-color="#fff8ee"/><stop offset="1" stop-color="#fff8ee" stop-opacity="0"/></linearGradient><linearGradient id="q" x1="1866.05" y1="494.3" x2="1866.05" y2="549" xlink:href="#BD"><stop stop-color="#fff8ee"/><stop offset="1" stop-color="#fff8ee" stop-opacity="0"/></linearGradient><linearGradient id="r" x1="1821" y1="483.1" x2="1821" y2="547.5" xlink:href="#BD"><stop stop-color="#fff8ee"/><stop offset="1" stop-color="#fff8ee" stop-opacity="0"/></linearGradient><linearGradient id="s" x1="1833.65" y1="551.8" x2="1833.65" y2="627.7" xlink:href="#BD"><stop stop-color="#fff8ee"/><stop offset="1" stop-color="#fff8ee" stop-opacity="0"/></linearGradient><linearGradient id="t" x1="1864.75" y1="550.6" x2="1864.75" y2="627.6" xlink:href="#BD"><stop stop-color="#fff8ee"/><stop offset="1" stop-color="#fff8ee" stop-opacity="0"/></linearGradient><linearGradient id="u" x1="1881.5" y1="549.6" x2="1881.5" y2="612.7" xlink:href="#BD"><stop stop-color="#fff8ee"/><stop offset="1" stop-color="#fff8ee" stop-opacity="0"/></linearGradient><linearGradient id="v" x1="1913.95" y1="502.4" x2="1913.95" y2="548.1" xlink:href="#BD"><stop stop-color="#fff8ee"/><stop offset="1" stop-color="#fff8ee" stop-opacity="0"/></linearGradient><linearGradient id="w" x1="1911.95" y1="492.6" x2="1911.95" y2="611.5" xlink:href="#BD"><stop stop-color="#fff8ee"/><stop offset="1" stop-color="#fff8ee" stop-opacity="0"/></linearGradient><linearGradient id="x" x1="1905.01" y1="55.976" x2="1905.01" y2="66.611" xlink:href="#BD"><stop stop-color="#fff8ee"/><stop offset="1" stop-color="#fff8ee" stop-opacity="0"/></linearGradient><linearGradient id="y" x1="1774.71" y1="30.259" x2="1774.71" y2="40.911" xlink:href="#BD"><stop stop-color="#fff8ee"/><stop offset="1" stop-color="#fff8ee" stop-opacity="0"/></linearGradient><linearGradient id="z" x1="1877.71" y1="166.875" x2="1877.71" y2="177.511" xlink:href="#BD"><stop stop-color="#fff8ee"/><stop offset="1" stop-color="#fff8ee" stop-opacity="0"/></linearGradient><linearGradient id="AA" x1="1803.11" y1="177.259" x2="1803.11" y2="187.911" xlink:href="#BD"><stop stop-color="#fff8ee"/><stop offset="1" stop-color="#fff8ee" stop-opacity="0"/></linearGradient><linearGradient id="AB" x1="1918.01" y1="318.076" x2="1918.01" y2="328.711" xlink:href="#BD"><stop stop-color="#fff8ee"/><stop offset="1" stop-color="#fff8ee" stop-opacity="0"/></linearGradient><linearGradient id="AC" x1="1832.81" y1="335.259" x2="1832.81" y2="345.911" xlink:href="#BD"><stop stop-color="#fff8ee"/><stop offset="1" stop-color="#fff8ee" stop-opacity="0"/></linearGradient><linearGradient id="AD" x1="1764.11" y1="372.176" x2="1764.11" y2="382.811" xlink:href="#BD"><stop stop-color="#fff8ee"/><stop offset="1" stop-color="#fff8ee" stop-opacity="0"/></linearGradient><linearGradient id="AE" x1="1899.41" y1="381.759" x2="1899.41" y2="392.411" xlink:href="#BD"><stop stop-color="#fff8ee"/><stop offset="1" stop-color="#fff8ee" stop-opacity="0"/></linearGradient><linearGradient id="AF" x1="1897.81" y1="486.476" x2="1897.81" y2="497.111" xlink:href="#BD"><stop stop-color="#fff8ee"/><stop offset="1" stop-color="#fff8ee" stop-opacity="0"/></linearGradient><linearGradient id="AG" x1="1806.11" y1="477.776" x2="1806.11" y2="488.411" xlink:href="#BD"><stop stop-color="#fff8ee"/><stop offset="1" stop-color="#fff8ee" stop-opacity="0"/></linearGradient><linearGradient id="AH" x1="1836.51" y1="545.259" x2="1836.51" y2="555.911" xlink:href="#BD"><stop stop-color="#fff8ee"/><stop offset="1" stop-color="#fff8ee" stop-opacity="0"/></linearGradient><linearGradient id="AI" x1="1706.21" y1="28.676" x2="1706.21" y2="39.311" xlink:href="#BD"><stop stop-color="#fff8ee"/><stop offset="1" stop-color="#fff8ee" stop-opacity="0"/></linearGradient><linearGradient id="AJ" x1="419.321" y1="585.426" x2="393.556" y2="566.787" xlink:href="#BD"><stop stop-color="#fff8ee"/><stop offset="1" stop-color="#fff8ee" stop-opacity="0"/></linearGradient><linearGradient id="AK" x1="405.821" y1="546.655" x2="404.98" y2="546.047" xlink:href="#BD"><stop stop-color="#fff8ee"/><stop offset="1" stop-color="#fff8ee" stop-opacity="0"/></linearGradient><linearGradient id="AL" x1="450.919" y1="551.817" x2="421.911" y2="530.832" xlink:href="#BD"><stop stop-color="#fff8ee"/><stop offset="1" stop-color="#fff8ee" stop-opacity="0"/></linearGradient><linearGradient id="AM" x1="455.763" y1="536.073" x2="430.403" y2="517.727" xlink:href="#BD"><stop stop-color="#fff8ee"/><stop offset="1" stop-color="#fff8ee" stop-opacity="0"/></linearGradient><linearGradient id="AN" x1="315.437" y1="620.862" x2="220.397" y2="552.111" xlink:href="#BD"><stop stop-color="#fff8ee"/><stop offset="1" stop-color="#fff8ee" stop-opacity="0"/></linearGradient><linearGradient id="AO" x1="374.595" y1="584.297" x2="258.489" y2="500.306" xlink:href="#BD"><stop stop-color="#fff8ee"/><stop offset="1" stop-color="#fff8ee" stop-opacity="0"/></linearGradient><linearGradient id="AP" x1="340.098" y1="633.519" x2="264.909" y2="579.127" xlink:href="#BD"><stop stop-color="#fff8ee"/><stop offset="1" stop-color="#fff8ee" stop-opacity="0"/></linearGradient><linearGradient id="AQ" x1="254.863" y1="589.262" x2="214.675" y2="560.19" xlink:href="#BD"><stop stop-color="#fff8ee"/><stop offset="1" stop-color="#fff8ee" stop-opacity="0"/></linearGradient><linearGradient id="AR" x1="235.802" y1="547.024" x2="228.429" y2="541.691" xlink:href="#BD"><stop stop-color="#fff8ee"/><stop offset="1" stop-color="#fff8ee" stop-opacity="0"/></linearGradient><linearGradient id="AS" x1="225.3" y1="557.447" x2="92.18" y2="461.148" xlink:href="#BD"><stop stop-color="#fff8ee"/><stop offset="1" stop-color="#fff8ee" stop-opacity="0"/></linearGradient><linearGradient id="AT" x1="199.606" y1="592.795" x2="81.313" y2="507.222" xlink:href="#BD"><stop stop-color="#fff8ee"/><stop offset="1" stop-color="#fff8ee" stop-opacity="0"/></linearGradient><linearGradient id="AU" x1="162.607" y1="601.457" x2="63.355" y2="529.657" xlink:href="#BD"><stop stop-color="#fff8ee"/><stop offset="1" stop-color="#fff8ee" stop-opacity="0"/></linearGradient><linearGradient id="AV" x1="129.893" y1="648.385" x2="32.099" y2="577.641" xlink:href="#BD"><stop stop-color="#fff8ee"/><stop offset="1" stop-color="#fff8ee" stop-opacity="0"/></linearGradient><linearGradient id="AW" x1="102.612" y1="622.972" x2="32.203" y2="572.038" xlink:href="#BD"><stop stop-color="#fff8ee"/><stop offset="1" stop-color="#fff8ee" stop-opacity="0"/></linearGradient><linearGradient id="AX" x1="72.314" y1="513.178" x2="21.27" y2="476.253" xlink:href="#BD"><stop stop-color="#fff8ee"/><stop offset="1" stop-color="#fff8ee" stop-opacity="0"/></linearGradient><linearGradient id="AY" x1="82.533" y1="469.535" x2="46.964" y2="443.805" xlink:href="#BD"><stop stop-color="#fff8ee"/><stop offset="1" stop-color="#fff8ee" stop-opacity="0"/></linearGradient><linearGradient id="AZ" x1="53.972" y1="539.898" x2="-10.603" y2="493.185" xlink:href="#BD"><stop stop-color="#fff8ee"/><stop offset="1" stop-color="#fff8ee" stop-opacity="0"/></linearGradient><linearGradient id="Aa" x1="40.536" y1="564.614" x2="-14.64" y2="524.699" xlink:href="#BD"><stop stop-color="#fff8ee"/><stop offset="1" stop-color="#fff8ee" stop-opacity="0"/></linearGradient><linearGradient id="Ab" x1="35.404" y1="572.626" x2="32.294" y2="570.377" xlink:href="#BD"><stop stop-color="#fff8ee"/><stop offset="1" stop-color="#fff8ee" stop-opacity="0"/></linearGradient><linearGradient id="Ac" x1="111.599" y1="459.213" x2="69.143" y2="428.5" xlink:href="#BD"><stop stop-color="#fff8ee"/><stop offset="1" stop-color="#fff8ee" stop-opacity="0"/></linearGradient><linearGradient id="Ad" x1="125.735" y1="414.762" x2="95.595" y2="392.959" xlink:href="#BD"><stop stop-color="#fff8ee"/><stop offset="1" stop-color="#fff8ee" stop-opacity="0"/></linearGradient><linearGradient id="Ae" x1="93.125" y1="488.676" x2="78.865" y2="478.36" xlink:href="#BD"><stop stop-color="#fff8ee"/><stop offset="1" stop-color="#fff8ee" stop-opacity="0"/></linearGradient><linearGradient id="Af" x1="74.817" y1="421.681" x2="65.584" y2="415.002" xlink:href="#BD"><stop stop-color="#fff8ee"/><stop offset="1" stop-color="#fff8ee" stop-opacity="0"/></linearGradient><linearGradient id="Ag" x1="6.532" y1="495.09" x2="-6.269" y2="485.829" xlink:href="#BD"><stop stop-color="#fff8ee"/><stop offset="1" stop-color="#fff8ee" stop-opacity="0"/></linearGradient><linearGradient id="Ah" x1="26.018" y1="467.3" x2="-56.382" y2="407.692" xlink:href="#BD"><stop stop-color="#fff8ee"/><stop offset="1" stop-color="#fff8ee" stop-opacity="0"/></linearGradient><linearGradient id="Ai" x1="53.946" y1="431.083" x2="-22.053" y2="376.105" xlink:href="#BD"><stop stop-color="#fff8ee"/><stop offset="1" stop-color="#fff8ee" stop-opacity="0"/></linearGradient><linearGradient id="Aj" x1="100.049" y1="381" x2="17.406" y2="321.216" xlink:href="#BD"><stop stop-color="#fff8ee"/><stop offset="1" stop-color="#fff8ee" stop-opacity="0"/></linearGradient><linearGradient id="Ak" x1="74.451" y1="419.627" x2="-19.292" y2="351.814" xlink:href="#BD"><stop stop-color="#fff8ee"/><stop offset="1" stop-color="#fff8ee" stop-opacity="0"/></linearGradient><linearGradient id="Al" x1="-22.698" y1="375.885" x2="-31.245" y2="369.702" xlink:href="#BD"><stop stop-color="#fff8ee"/><stop offset="1" stop-color="#fff8ee" stop-opacity="0"/></linearGradient><linearGradient id="Am" x1="-5.333" y1="486.753" x2="-76.714" y2="435.116" xlink:href="#BD"><stop stop-color="#fff8ee"/><stop offset="1" stop-color="#fff8ee" stop-opacity="0"/></linearGradient><linearGradient id="An" x1="-2.477" y1="505.666" x2="-91.683" y2="441.135" xlink:href="#BD"><stop stop-color="#fff8ee"/><stop offset="1" stop-color="#fff8ee" stop-opacity="0"/></linearGradient><linearGradient id="Ao" x1="22.224" y1="591.293" x2="-46.079" y2="541.884" xlink:href="#BD"><stop stop-color="#fff8ee"/><stop offset="1" stop-color="#fff8ee" stop-opacity="0"/></linearGradient><linearGradient id="Ap" x1="14.826" y1="599.642" x2="-132.473" y2="493.086" xlink:href="#BD"><stop stop-color="#fff8ee"/><stop offset="1" stop-color="#fff8ee" stop-opacity="0"/></linearGradient><linearGradient id="Aq" x1="-5.196" y1="349.73" x2="-57.375" y2="311.984" xlink:href="#BD"><stop stop-color="#fff8ee"/><stop offset="1" stop-color="#fff8ee" stop-opacity="0"/></linearGradient><linearGradient id="Ar" x1="253.092" y1="514.491" x2="244.461" y2="508.248" xlink:href="#BD"><stop stop-color="#fff8ee"/><stop offset="1" stop-color="#fff8ee" stop-opacity="0"/></linearGradient><linearGradient id="As" x1="71.654" y1="525.051" x2="63.037" y2="518.818" xlink:href="#BD"><stop stop-color="#fff8ee"/><stop offset="1" stop-color="#fff8ee" stop-opacity="0"/></linearGradient><linearGradient id="At" x1="107.669" y1="445.948" x2="99.038" y2="439.705" xlink:href="#BD"><stop stop-color="#fff8ee"/><stop offset="1" stop-color="#fff8ee" stop-opacity="0"/></linearGradient><linearGradient id="Au" x1="118.024" y1="368.649" x2="109.407" y2="362.415" xlink:href="#BD"><stop stop-color="#fff8ee"/><stop offset="1" stop-color="#fff8ee" stop-opacity="0"/></linearGradient><linearGradient id="Av" x1="30.958" y1="472.655" x2="22.327" y2="466.412" xlink:href="#BD"><stop stop-color="#fff8ee"/><stop offset="1" stop-color="#fff8ee" stop-opacity="0"/></linearGradient><linearGradient id="Aw" x1="7.845" y1="340.788" x2="-.773" y2="334.554" xlink:href="#BD"><stop stop-color="#fff8ee"/><stop offset="1" stop-color="#fff8ee" stop-opacity="0"/></linearGradient><linearGradient id="Ax" x1="430.273" y1="523.067" x2="421.656" y2="516.834" xlink:href="#BD"><stop stop-color="#fff8ee"/><stop offset="1" stop-color="#fff8ee" stop-opacity="0"/></linearGradient><clipPath id="Ay"><path fill="#fff" transform="matrix(-1 0 0 1 1920 0)" d="M0 0h225v560H0z"/></clipPath><clipPath id="Az"><path fill="#fff" transform="translate(0 320)" d="M0 0h460v240H0z"/></clipPath><clipPath id="BA"><path fill="#fff" transform="matrix(.586117 -.810226 -.810226 -.586117 252.59 817.615)" d="M0 0h351.093v635.1H0z"/></clipPath><path id="BB" d="M1899.7 61.3c-.1 3 2.8 5.5 5.3 5.3 3.2 0 5.6-2.1 5.3-5.3-.2-2.6-2.8-5.3-5.3-5.3-3.1-.3-5.5 2.2-5.3 5.3z"/><path id="BC" d="M1827.5 340.6c-.1 3 2.8 5.5 5.3 5.3 3.2 0 5.6-2.1 5.3-5.3-.2-2.6-2.8-5.3-5.3-5.3-3.2-.4-5.5 2.2-5.3 5.3z"/><linearGradient id="BD" gradientUnits="userSpaceOnUse"/></defs></svg>