<svg xmlns="http://www.w3.org/2000/svg" xmlns:xlink="http://www.w3.org/1999/xlink" width="320" height="690" fill="none" xmlns:v="https://vecta.io/nano"><g opacity=".2" clip-path="url(#AH)"><path d="M396.152 36.471c-8.022 2.587-15.798 5.421-23.574 8.502l-11.601 4.682c-3.826 1.602-7.776 2.957-11.726 4.313-7.899 2.711-15.798 5.668-23.573 8.625-7.776 3.08-15.799 5.791-22.957 9.98v.123c7.529-3.573 15.551-5.914 23.327-8.995l23.327-9.118c3.826-1.602 7.776-3.08 11.725-4.559s7.899-2.711 11.849-4.189c7.775-2.834 15.551-5.914 23.203-9.364z" fill="url(#A)"/><path d="M412.197 164.861c-1.728-2.465-4.073-4.436-6.418-6.284l-7.035-5.545-14.317-10.966c-4.69-3.696-9.504-7.27-13.947-11.336-2.221-1.971-4.32-4.066-6.418-6.284-2.098-2.094-4.073-4.435-6.418-6.284s-4.937-3.45-7.405-5.175-4.814-3.573-7.159-5.421l-14.07-11.213-28.511-21.932-.123.123c9.133 7.763 18.513 15.402 27.893 22.795 4.69 3.82 9.381 7.393 14.194 11.09 2.345 1.848 4.814 3.696 7.282 5.298 2.468 1.725 5.184 3.08 7.529 4.928s4.443 3.943 6.541 6.038l6.418 6.284c4.444 4.066 8.887 8.009 13.577 11.828s9.503 7.27 14.317 10.966l7.282 5.299c2.345 1.725 4.69 3.573 6.788 5.791z" fill="url(#B)"/><path d="M266.805.986c2.221 6.038 4.69 12.075 7.405 17.866 1.358 2.957 2.839 5.791 4.196 8.748s2.592 5.914 3.827 8.871c2.468 6.037 5.307 11.829 8.269 17.496s5.924 11.459 8.516 17.373h.124c-1.852-6.284-4.567-12.198-7.406-17.989l-8.886-17.25c-1.481-2.834-2.839-5.791-4.073-8.748s-2.345-6.038-3.58-8.995c-2.468-5.791-5.183-11.705-8.392-17.373z" fill="url(#C)"/><path d="M298.524 72.697c-3.702-2.464-6.294-6.037-9.38-9.241-2.962-3.204-6.048-6.407-9.38-9.364-3.209-2.957-6.665-5.791-9.997-8.748a332.57 332.57 0 0 1-9.874-8.748l-19.871-17.496-4.937-4.436-4.69-4.559c-3.209-3.08-6.665-6.037-10.615-7.886v.123c7.653 4.559 12.589 12.198 19.501 17.866 3.209 3.08 6.665 5.914 9.997 8.748a337.07 337.07 0 0 0 10.245 8.379 339.47 339.47 0 0 1 10.12 8.625c3.333 2.957 6.418 6.037 9.504 9.118a335.04 335.04 0 0 1 9.38 9.364c3.086 2.711 6.048 6.284 9.997 8.255z" fill="url(#D)"/><path d="M297.537 74.422c-12.589-4.066-25.549-7.023-38.631-9.611l-19.501-3.573-19.501-3.943-39.002-7.639c-13.083-2.341-26.166-4.436-39.372-5.914v.123l39.125 7.023 39.125 7.146c6.542 1.109 13.083 2.341 19.501 3.697 6.542 1.232 12.96 2.711 19.501 4.066l38.755 8.625z" fill="url(#E)"/><path d="M185.962.739c-3.949 2.957-7.775 6.284-11.478 9.611-1.851 1.725-3.579 3.573-5.431 5.175-1.851 1.725-3.702 3.327-5.677 4.929l-5.801 4.805c-1.851 1.602-3.826 3.203-5.554 5.052-3.579 3.45-7.159 7.023-10.491 10.72l.123.123c3.95-3.08 7.653-6.407 11.355-9.734l10.862-10.227a105.42 105.42 0 0 1 5.43-5.052c1.852-1.602 3.826-3.204 5.801-4.805 3.826-3.327 7.529-6.777 10.861-10.596z" fill="url(#F)"/><path d="M152.885.493c-1.975 2.957-3.086 6.407-3.826 9.734-.371 1.725-.494 3.45-.741 5.175s-.74 3.45-1.234 5.052c-.988 3.327-2.098 6.653-3.333 9.857-1.11 3.327-2.221 6.53-3.085 9.98h.123c1.605-3.08 3.086-6.284 4.197-9.611s2.098-6.654 2.715-10.104c.247-1.725.617-3.45.987-5.175s.864-3.327 1.358-5.052c.987-3.204 1.851-6.53 2.839-9.857z" fill="url(#G)"/><path d="M144.862.862c-.617 3.327-.987 6.53-1.11 9.857v4.929l-.494 4.929-1.358 9.857-.987 9.857h.123c.988-3.204 1.728-6.407 2.222-9.734.37-3.327.74-6.653.74-9.98 0-1.602.124-3.327.247-4.929s.494-3.327.617-4.929c.124-3.204.247-6.53 0-9.857z" fill="url(#H)"/><path d="M78.337.616c-.494 1.725-1.481 3.204-2.469 4.682L73.03 9.857l-2.469 4.805c-.864 1.602-1.851 3.08-2.839 4.559-1.975 2.957-3.826 6.038-5.554 9.118-1.728 3.204-3.332 6.407-4.69 9.734h.123c1.975-2.957 3.826-6.038 5.678-9.118 1.728-3.08 3.456-6.284 5.06-9.487.864-1.602 1.605-3.204 2.592-4.682l2.962-4.436c.987-1.479 1.851-3.08 2.715-4.559.987-1.602 1.728-3.327 1.728-5.175z" fill="url(#I)"/><path d="M46.124.493c-.494 1.725-.123 3.45.247 5.052a35.76 35.76 0 0 0 1.481 4.805l1.851 4.559a33.75 33.75 0 0 1 1.111 4.805c.247 3.327.494 6.654 1.234 9.857s1.851 6.407 3.332 9.488h.123l-2.222-9.611-.864-4.805s-.494-3.327-.864-4.929-.864-3.204-1.358-4.805l-1.234-4.805-1.481-4.682c-.617-1.725-1.234-3.327-1.358-4.929z" fill="url(#J)"/><path d="M298.401 79.35c-10.985 11.459-21.106 23.534-30.979 35.979-2.469 3.08-4.814 6.283-7.529 9.117l-8.27 8.502c-2.715 2.834-5.307 5.914-7.652 9.118l-6.912 9.734c-9.133 12.814-19.254 25.136-29.004 37.457-2.469 3.08-5.06 6.038-7.776 8.872s-5.924 5.175-8.886 7.885c-5.925 5.422-9.751 12.568-15.798 17.743l.123.123c6.295-4.928 10.368-11.951 16.292-17.126 2.962-2.588 6.171-4.929 9.01-7.64s5.43-5.791 8.022-8.871c9.874-12.322 19.748-24.766 28.635-37.827 4.443-6.53 8.639-13.307 14.317-18.852 2.715-2.834 5.677-5.544 8.392-8.378 2.839-2.711 5.308-5.915 7.9-8.872 5.06-6.037 9.873-12.321 14.934-18.359 5.06-6.53 10.121-12.568 15.181-18.605z" fill="url(#K)"/><path d="M139.802 46.698c2.715 14.786 5.801 29.448 9.01 44.111l5.06 21.932 4.567 22.055 9.01 44.111c2.962 14.663 5.801 29.448 7.899 44.357h.123c-1.234-15.032-3.703-29.818-6.665-44.603l-4.69-22.056-4.937-21.932c-1.728-7.269-3.332-14.662-4.813-22.055l-4.443-22.055-10.121-43.864z" fill="url(#L)"/><path d="M301.61 79.227c3.209 6.407 4.69 13.307 6.541 20.084.988 3.45 2.099 6.777 2.963 10.227.987 3.45 1.851 6.9 2.715 10.35 1.728 6.9 3.703 13.676 5.801 20.453 2.221 6.777 4.566 13.43 7.282 20.084h.123l-6.048-20.454-6.418-20.33c-1.11-3.327-2.098-6.777-2.962-10.227s-1.604-6.9-2.345-10.35c-.864-3.45-1.728-6.9-2.839-10.35-1.357-3.327-2.715-6.654-4.813-9.487z" fill="url(#M)"/><path d="M324.813 159.932l-22.586-15.402-22.833-15.032c-7.653-4.928-15.428-9.734-23.204-14.416l-23.45-13.923-11.849-6.777-5.924-3.45-5.801-3.573c-7.653-4.929-15.058-10.227-22.587-15.402-3.826-2.588-7.529-5.175-11.355-7.516-3.826-2.464-7.775-4.682-11.848-6.9-8.023-4.436-16.169-8.502-24.562-11.952v.123c8.27 3.943 16.292 8.009 24.191 12.691 7.899 4.559 15.428 9.611 22.957 14.786s14.934 10.473 22.71 15.278c1.975 1.232 3.826 2.464 5.801 3.573l6.048 3.327 11.972 6.53c8.022 4.313 15.921 8.872 23.574 13.8 7.775 4.806 15.304 9.857 22.833 14.909l45.913 29.325z" fill="url(#N)"/><path d="M322.222 162.643c-11.726 6.161-24.068 10.719-36.534 15.155l-37.274 13.061c-6.171 2.341-12.342 4.928-18.266 7.886l-17.773 8.748c-11.849 5.668-24.068 10.719-36.163 16.141v.123c12.342-4.559 24.684-9.364 36.657-15.032 6.047-2.834 11.848-5.914 17.649-8.871s11.849-5.668 17.896-8.256c6.048-2.464 12.343-4.805 18.637-6.777l18.884-6.037c12.589-4.313 25.055-9.241 36.287-16.141z" fill="url(#O)"/><path d="M323.456 163.875c-3.332 5.175-8.64 8.132-13.33 12.075-2.345 1.971-4.69 3.82-7.035 5.668s-5.06 3.327-7.529 5.052c-2.592 1.725-4.937 3.573-7.282 5.544l-6.911 5.915c-4.567 4.066-9.01 8.132-13.33 12.321l.123.123c4.814-3.696 9.504-7.516 14.071-11.459s9.01-8.132 13.7-11.828c4.813-3.574 9.997-6.9 14.934-10.474 2.468-1.848 4.813-3.696 7.158-5.667 2.099-2.095 4.32-4.436 5.431-7.27z" fill="url(#P)"/><path d="M265.2 212.175c-7.405.739-14.811 1.602-22.216 2.834s-14.687 3.08-22.216 2.464a43.72 43.72 0 0 0-5.678 0c-1.851.123-3.702.37-5.554.616l-11.108 1.479c-7.405 1.109-14.811 2.218-22.093 3.696v.124c7.406-.617 14.935-1.479 22.34-2.465l11.108-1.602c1.851-.246 3.703-.616 5.554-.739s3.703-.246 5.554-.246 3.703-.123 5.678-.247c1.851-.123 3.702-.369 5.554-.616l11.108-1.355c7.282-1.109 14.687-2.341 21.969-3.943z" fill="url(#Q)"/><path d="M330.738 241.993c-4.814-3.081-9.751-5.791-14.811-8.379l-7.652-3.573c-2.592-1.232-5.061-2.587-7.529-3.82-4.937-2.71-9.997-5.175-15.181-7.516s-10.368-4.435-15.675-6.407v.123l15.181 7.516 15.428 7.024c2.592 1.109 5.184 2.341 7.652 3.573l7.406 4.066a172.47 172.47 0 0 0 15.181 7.393z" fill="url(#R)"/><path d="M409.976 164.861c-5.678 2.71-11.355 5.175-17.28 7.269s-11.848 3.82-17.896 5.545c-12.096 3.45-24.314 6.407-36.287 10.227-6.047 1.848-11.972 3.943-17.896 5.914l-17.896 5.791-36.04 10.597v.123c12.219-2.588 24.438-5.791 36.41-9.488s23.821-8.132 35.546-12.321c5.924-2.095 11.848-3.943 18.02-5.545 6.047-1.602 12.219-2.834 18.266-4.436s12.096-3.326 18.02-5.544 11.602-4.929 17.033-8.132z" fill="url(#S)"/><path d="M265.324 215.132l-13.7 50.518-6.295 25.382c-2.098 8.502-4.443 16.88-6.788 25.259l-13.577 50.518-6.418 25.382-6.294 25.382h.123l7.035-25.259 6.788-25.259 19.501-76.023 6.912-25.259c4.567-16.757 8.887-33.637 12.713-50.641z" fill="url(#T)"/><path d="M267.792 215.255l6.665 25.383.617 2.833 1.111 5.668c.741 3.82 1.728 7.64 2.715 11.336.988 3.82 2.099 7.516 3.333 11.213l3.579 11.089 7.282 22.178c4.814 14.786 9.01 29.818 12.959 44.85l5.801 22.672 5.678 22.671h.123l-4.937-22.794-5.43-22.795c-3.826-15.155-8.393-30.064-13.577-44.727l-7.529-22.178a337.03 337.03 0 0 1-6.294-22.549c-1.975-7.516-3.209-15.278-5.184-22.794-2.098-7.27-4.443-14.663-6.912-22.056z" fill="url(#U)"/><path d="M469.219 290.293c-6.048 4.805-12.096 9.734-18.02 14.786s-11.972 9.857-18.76 13.553c-3.333 1.848-6.789 3.82-9.998 5.914s-6.418 4.436-9.627 6.654l-57.762 39.182-19.131 13.307-19.007 13.554.124.123 19.377-12.814 19.254-13.061 57.269-39.921c3.209-2.218 6.418-4.313 9.75-6.408s6.788-3.819 10.121-5.667c3.456-1.849 6.788-3.943 9.874-6.284s6.047-4.929 9.01-7.393c5.924-5.052 11.725-10.227 17.526-15.525z" fill="url(#V)"/><path d="M317.532 399.83c-2.962 6.161-5.431 12.445-7.653 18.975l-2.962 9.734-3.085 9.734c-2.098 6.531-3.826 13.061-5.307 19.714s-3.086 13.184-5.678 19.468h.123c3.333-6.037 5.184-12.691 6.789-19.221l4.69-19.838c.864-3.326 1.728-6.53 2.839-9.734.987-3.203 2.345-6.407 3.455-9.61 2.469-6.284 4.691-12.691 6.789-19.222z" fill="url(#W)"/><path d="M292.6 475.238l-10.244-5.668c-3.332-1.972-6.541-4.313-9.75-6.531l-9.628-6.776c-3.209-2.342-6.294-4.683-9.38-7.147-6.171-4.928-12.342-9.611-18.637-14.293s-12.712-9.241-19.13-13.677l-.124.124c6.048 5.051 12.219 9.857 18.514 14.539l19.007 13.8c3.209 2.218 6.418 4.559 9.504 6.9s6.171 4.929 9.256 7.27a91.2 91.2 0 0 0 9.874 6.53c3.456 1.971 7.035 3.573 10.738 4.929z" fill="url(#X)"/><path d="M318.642 398.845c4.073 8.378 8.393 16.634 12.836 24.766 2.222 4.066 4.69 8.009 6.912 12.198l6.541 12.321 12.96 24.643 13.7 24.273h.123c-4.073-8.378-8.269-16.633-12.712-24.889-4.32-8.255-8.887-16.387-13.453-24.396a297.16 297.16 0 0 1-6.665-12.198c-2.222-4.067-4.197-8.256-6.295-12.445-4.567-8.132-9.01-16.264-13.947-24.273z" fill="url(#Y)"/><path d="M462.061 394.409c-1.975.37-3.58 1.479-5.184 2.587l-4.567 3.45c-3.209 2.095-6.788 3.574-10.244 5.175l-20.982 9.858-20.859 10.226-20.982 9.858-41.964 19.591c-7.035 3.326-13.946 6.653-20.735 10.35s-13.329 7.762-19.377 12.691l.123.123c6.171-4.559 12.836-8.502 19.748-12.075 6.788-3.573 13.823-6.654 20.859-9.98l41.717-20.084c6.911-3.45 13.823-6.777 20.858-9.981 7.035-3.327 14.071-6.407 21.106-9.61s13.947-6.654 20.858-9.981c3.456-1.725 7.035-3.327 10.244-5.544 1.605-1.109 2.963-2.465 4.444-3.697s3.085-2.341 4.937-2.957z" fill="url(#Z)"/><path d="M463.789 394.162c-12.096-.369-24.191-.492-36.287-.369l-18.143.369c-6.048.124-12.096 0-18.143-.123l-18.144-.246-18.143.123c-12.095.37-24.191 1.479-36.04 4.436v.123c11.849-2.218 23.945-2.957 36.04-3.327l36.287-.616 18.143-.123 18.143.246c12.096.247 24.191 0 36.287-.493z" fill="url(#a)"/><path d="M316.915 399.584l-47.148 15.771-23.451 8.379-23.573 8.009-47.148 15.771c-7.899 2.588-15.675 5.422-23.451 8.132l-23.45 8.379v.123l23.697-7.639 23.574-7.762 47.024-16.388 23.451-8.255 23.574-7.886c15.798-5.175 31.473-10.72 46.901-16.634z" fill="url(#b)"/><path d="M209.536 417.573c-5.307 5.915-12.342 9.611-19.254 13.554l-10.367 5.914c-1.728.986-3.456 1.848-5.184 2.834-1.728.863-3.58 1.725-5.431 2.464-3.579 1.602-7.282 3.081-10.985 4.559l-11.108 4.313c-3.702 1.478-7.405 2.957-10.861 4.928-1.728.986-3.456 1.972-5.06 3.204s-3.086 2.464-4.567 3.943l.123.123c6.048-5.175 13.577-8.132 20.859-10.843 7.405-2.711 14.811-5.791 21.846-9.364l5.307-2.711c1.728-.986 3.456-1.971 5.184-2.834 3.456-1.848 7.035-3.573 10.614-5.421 3.456-1.848 6.912-3.82 10.244-6.161 3.333-2.464 6.419-5.175 8.64-8.502z" fill="url(#c)"/><path d="M319.013 396.75c-1.728 1.479-3.826 2.341-6.048 2.957s-4.443.863-6.665 1.232l-13.453 2.341-13.453 2.711c-4.443.863-9.01 1.602-13.453 2.341-9.01 1.355-18.02 2.957-26.907 4.559-9.01 1.602-17.896 3.45-26.783 5.421v.124c9.01-1.232 18.02-2.711 27.03-4.313l40.36-7.762 13.453-2.095c4.443-.739 9.01-1.602 13.453-2.464 2.222-.493 4.443-.863 6.665-1.479 2.221-.739 4.32-1.848 5.801-3.573z" fill="url(#d)"/><path d="M295.562 475.854c-13.946.862-28.017.862-41.963-.124-7.036-.493-13.947-1.232-20.859-2.218-3.456-.492-6.912-.985-10.491-1.232-3.456-.246-7.035-.246-10.491-.246s-7.035-.123-10.491-.37-6.912-.862-10.368-1.355l-10.367-1.848c-3.456-.616-7.035-.986-10.491-1.232-13.947-1.233-28.141-.616-41.841-3.82v.123c6.789 1.972 13.7 2.957 20.735 3.573s13.947.863 20.982 1.479c6.912.616 13.824 1.848 20.736 2.957 3.455.493 6.911.986 10.491 1.232s7.035.123 10.491 0c14.07-.985 27.77 2.957 41.717 4.066 14.07.986 28.264.863 42.21-.985z" fill="url(#e)"/><path d="M374.677 498.032c-6.789-1.232-13.453-2.834-19.995-4.928-3.332-.986-6.541-2.095-9.75-3.327-3.333-1.109-6.789-1.479-10.121-1.972-6.788-.985-13.577-2.218-20.241-3.819-6.665-1.479-13.33-3.45-19.872-5.422v.123c6.295 2.834 12.96 4.929 19.625 6.654 6.788 1.602 13.576 2.711 20.488 3.204 3.456.246 6.912.492 10.121 1.725 1.604.616 3.209 1.232 4.813 1.971a38.63 38.63 0 0 0 4.814 1.848c6.294 2.218 13.206 3.697 20.118 3.943z" fill="url(#f)"/><path d="M292.23 479.18c.37 5.175.987 10.474 1.481 15.649.247 2.587.37 5.175.247 7.762s-.37 5.175-.494 7.763c-.37 5.175-.493 10.473-.864 15.648-.247 5.175-.617 10.473-.987 15.648-.741 10.473-1.111 20.946-1.111 31.42s.37 20.946 1.111 31.419h.123l.124-31.419.123-15.649.247-15.771a322.68 322.68 0 0 1 .741-15.648c.37-5.175.987-10.473 1.481-15.648.246-2.588.493-5.175.617-7.886.123-2.588-.124-5.298-.371-7.886l-2.468-15.402z" fill="url(#g)"/><path d="M293.217 477.455a79.43 79.43 0 0 0-14.934 13.8c-2.222 2.588-4.196 5.422-6.295 8.009-1.11 1.232-2.221 2.465-3.455 3.573s-2.592 2.095-3.95 3.081c-2.715 1.971-5.677 3.819-8.146 6.161s-4.69 4.928-6.788 7.639c-4.197 5.421-7.776 11.089-12.096 16.387-2.098 2.588-4.443 5.052-7.035 7.27s-5.307 4.066-8.022 6.161-5.431 4.312-7.529 7.023c-2.222 2.711-4.073 5.545-6.171 8.132s-4.567 4.929-7.035 7.27l-7.406 6.9-14.811 14.046.124.123 15.304-13.43 7.653-6.777a67.62 67.62 0 0 0 7.281-7.269c2.222-2.711 4.073-5.545 6.172-8.133s4.566-4.805 7.282-6.9 5.43-4.066 8.022-6.284c2.592-2.341 4.814-4.928 6.912-7.639 4.196-5.421 7.652-11.212 11.849-16.511 2.098-2.71 4.443-5.175 6.911-7.392 2.592-2.218 5.431-3.943 8.27-5.915 2.838-1.848 5.554-4.189 7.652-6.9s4.073-5.544 6.171-8.132c4.073-5.175 8.887-9.857 14.07-14.293z" fill="url(#h)"/><path d="M127.583 467.598c2.715 4.929 4.69 10.227 6.788 15.525 1.975 5.298 4.073 10.597 6.171 15.772l6.542 15.648c2.098 5.175 4.073 10.473 6.048 15.771l12.095 31.666 12.96 31.297h.123l-11.849-31.789-12.712-31.42c-2.222-5.175-4.32-10.473-6.295-15.772-2.098-5.298-3.949-10.596-5.924-15.894s-4.073-10.473-6.295-15.772c-2.221-5.175-4.443-10.35-7.652-15.032z" fill="url(#i)"/><path d="M127.089 465.257c3.58 2.834 7.035 5.791 10.491 8.871a44.31 44.31 0 0 1 4.814 4.806c1.604 1.602 2.962 3.45 4.566 5.052 2.963 3.45 6.418 6.53 9.998 9.487 3.456 2.957 7.035 5.791 10.614 8.625l21.476 17.127 21.352 17.127 21.599 16.88c7.282 5.545 14.811 10.72 21.599 16.88 6.665 6.161 12.589 13.061 18.761 19.838 3.085 3.327 6.294 6.654 9.627 9.734 3.455 3.08 7.035 5.914 10.984 8.132l.124-.123c-7.653-4.929-14.071-11.582-20.118-18.482s-11.849-14.047-18.637-20.208-14.441-11.335-21.723-16.88l-21.969-16.511c-7.282-5.544-14.441-11.212-21.476-17.003l-21.105-17.497-10.615-8.748c-3.579-2.834-6.911-5.791-9.997-9.241-1.481-1.725-3.086-3.45-4.69-5.052a91.56 91.56 0 0 0-5.06-4.682c-3.209-2.834-6.912-5.544-10.615-8.132z" fill="url(#j)"/><path d="M291.489 606.83c-9.133-1.478-18.266-2.71-27.4-3.696-4.566-.493-9.257-.863-13.823-.986s-9.257 0-13.824-.369c-9.133-.74-18.143-3.081-27.153-4.929-9.01-1.971-18.266-3.573-27.523-2.834v.123c9.257 0 18.267 1.972 27.276 3.943l13.577 2.834c4.567.863 9.133 1.479 13.823 1.602s9.257-.123 13.824.123c4.566.123 9.133.863 13.7 1.479 9.133 1.232 18.267 2.218 27.523 2.71z" fill="url(#k)"/><path d="M374.923 496.43c-2.592 5.052-6.418 9.241-9.874 13.677l-10.367 13.307-10.121 13.554c-3.332 4.559-6.912 8.871-10.367 13.307l-10.491 13.184c-1.728 2.218-3.456 4.436-4.937 7.023-1.481 2.464-2.222 5.298-3.333 7.763-1.234 2.464-3.085 4.559-4.937 6.53-1.974 2.095-3.826 4.189-5.677 6.284-3.703 4.313-6.912 8.995-9.874 13.8l.123.123c3.209-4.559 6.789-8.994 10.491-13.184 1.852-2.094 3.826-4.066 5.801-6.16 1.975-1.972 3.95-4.19 5.184-6.777s1.975-5.298 3.332-7.763 2.963-4.682 4.691-6.9c3.455-4.435 6.788-8.994 10.12-13.553s6.789-8.995 10.244-13.431l10.491-13.184 10.245-13.43c3.455-4.436 7.158-8.871 9.256-14.17z" fill="url(#l)"/><path d="M408.001 615.579c-4.567-5.791-9.01-11.582-13.33-17.497-2.221-2.957-4.32-5.914-6.418-8.871s-4.196-6.038-6.665-8.872c-4.813-5.667-11.108-9.734-16.045-15.155-5.06-5.298-9.38-11.336-13.576-17.373s-8.27-12.198-12.836-17.99c-2.222-2.957-4.814-5.544-7.282-8.255l-7.529-8.132c-9.997-10.72-19.501-21.932-28.634-33.514l-.124.123c8.516 12.075 17.773 23.534 27.77 34.253l7.529 8.133c2.469 2.71 5.061 5.298 7.406 8.132 4.566 5.668 8.886 11.705 13.206 17.619s8.763 11.829 13.823 17.25c2.469 2.711 5.184 5.299 7.9 7.763s5.43 4.929 7.652 7.762c2.345 2.834 4.32 5.915 6.541 8.872l6.542 8.871c4.443 5.791 9.01 11.459 14.07 16.881z" fill="url(#m)"/><path d="M410.346 618.659c-9.133-3.204-18.76-5.052-28.387-6.161l-14.441-1.355c-4.813-.37-9.627-.986-14.44-1.479-9.627-1.109-19.254-1.848-28.881-2.464a379.98 379.98 0 0 0-29.005-.739v.123l57.762 3.696 14.441 1.233c4.813.492 9.627 1.232 14.317 1.971 9.627 1.355 19.131 2.834 28.634 5.175z" fill="url(#n)"/><path d="M290.378 609.048c-2.715 3.204-6.047 5.545-9.503 7.886-1.728 1.232-3.456 2.341-5.184 3.573s-3.332 2.588-4.937 3.943c-3.209 2.711-6.171 5.668-9.257 8.502l-9.133 8.502-18.267 17.126c-6.047 5.791-11.848 11.706-17.649 17.743l.123.123c6.295-5.544 12.466-11.212 18.39-16.88l17.773-17.496c2.962-2.957 5.925-5.915 9.01-8.625 3.086-2.834 6.295-5.422 9.627-8.009 3.209-2.588 6.542-5.052 9.998-7.516 3.332-2.711 6.788-5.298 9.009-8.872z" fill="url(#o)"/><path d="M179.421 595.248l9.257 19.838c1.604 3.327 3.209 6.53 4.566 9.98 1.481 3.327 2.716 6.777 3.827 10.227l3.702 10.35c1.358 3.45 2.716 6.777 4.197 10.103 3.085 6.654 6.664 13.061 11.108 18.852l.123-.123c-3.826-6.161-7.158-12.691-9.997-19.345-2.962-6.653-5.678-13.43-8.516-20.083s-5.431-13.554-8.146-20.331c-2.839-6.777-6.171-13.307-10.121-19.468z" fill="url(#p)"/><path d="M215.584 679.896c-.617 7.763-.987 15.525-1.111 23.411-.123 3.943 0 7.763-.123 11.706s-.37 7.762-.617 11.705l-1.605 23.287c-.493 7.763-.864 15.525-1.111 23.411h.124a371.01 371.01 0 0 0 2.221-23.287c.494-7.763.864-15.525.988-23.411.123-3.943.123-7.763.37-11.705.124-3.943.494-7.763.741-11.706.37-7.762.493-15.648.247-23.411h-.124z" fill="url(#q)"/><path d="M217.805 678.418c2.962 3.943 4.937 8.378 7.282 12.568l3.703 6.284c1.358 2.094 2.715 4.066 4.073 6.037 2.839 3.943 5.924 7.763 9.01 11.582l18.266 22.918 9.01 11.459c5.925 7.762 11.602 15.648 16.539 24.027h.124c-4.197-8.748-9.627-17.004-15.552-24.766s-12.342-15.156-18.76-22.548c-3.209-3.697-6.418-7.393-9.38-11.336l-2.222-2.957-2.098-2.957c-1.481-1.972-2.839-3.943-4.197-6.038-2.715-4.066-5.43-8.132-7.899-12.321-2.221-3.943-4.566-8.379-7.899-11.952z" fill="url(#r)"/><path d="M327.529 754.934c-7.652-8.379-16.909-15.032-26.536-20.823-4.814-2.834-9.874-5.422-14.811-8.256-4.937-2.71-9.75-5.667-14.564-8.501a136.7 136.7 0 0 1-6.912-4.682c-2.221-1.725-4.32-3.574-6.418-5.422s-4.073-3.82-6.171-5.791c-2.098-1.848-4.443-3.573-6.788-5.175-4.69-3.204-9.627-5.914-14.441-8.871s-9.38-6.161-13.329-10.227l-.124.123c3.703 4.313 8.269 7.763 12.96 10.966 4.69 3.08 9.627 5.914 14.193 9.118 4.69 3.08 8.763 6.9 12.96 10.72 2.098 1.848 4.196 3.696 6.541 5.421s4.69 3.08 7.159 4.559c9.874 5.421 19.624 11.089 29.128 17.127 4.813 2.957 9.503 6.037 14.07 9.364 4.567 2.957 8.886 6.53 13.083 10.35z" fill="url(#s)"/><path d="M408.125 619.029l-47.889 13.553-23.821 7.27c-7.899 2.464-15.921 4.682-23.944 6.9l-47.888 13.8-23.821 7.269-23.82 7.393v.123c8.022-2.094 16.045-4.435 24.067-6.653l23.944-6.9 71.586-21.439 23.944-6.777c15.922-4.559 31.843-9.364 47.642-14.539z" fill="url(#t)"/><path d="M292.6 606.953c2.468 12.322 5.307 24.52 8.269 36.718l4.69 18.236c1.482 6.038 2.839 12.198 4.197 18.359l8.393 36.718 9.256 36.471h.124l-8.146-36.841-9.01-36.594a440.96 440.96 0 0 1-4.443-18.359c-1.481-6.161-2.716-12.322-4.073-18.359-2.839-12.075-5.801-24.273-9.257-36.349z" fill="url(#u)"/><path d="M294.945 75.53c-.123 3.697 3.456 6.777 6.541 6.53 3.95 0 6.912-2.587 6.542-6.53-.247-3.203-3.456-6.53-6.542-6.53-3.826-.37-6.788 2.711-6.541 6.53z" fill="url(#v)"/><path d="M134.125 43.864c-.124 3.696 3.455 6.777 6.541 6.53 3.95 0 6.912-2.588 6.541-6.53-.246-3.204-3.455-6.53-6.541-6.53-3.826-.493-6.665 2.711-6.541 6.53z" fill="url(#w)"/><use xlink:href="#AI" fill="url(#x)"/><path d="M169.177 224.989c-.124 3.697 3.456 6.777 6.541 6.531 3.95 0 6.912-2.588 6.542-6.531-.247-3.203-3.456-6.53-6.542-6.53-3.826-.493-6.788 2.711-6.541 6.53z" fill="url(#y)"/><path d="M310.99 398.475c-.123 3.696 3.456 6.777 6.542 6.53 3.949 0 6.911-2.587 6.541-6.53-.247-3.204-3.456-6.53-6.541-6.53-3.826-.37-6.788 2.71-6.542 6.53z" fill="url(#z)"/><path d="M205.834 419.668c-.124 3.696 3.455 6.777 6.541 6.53 3.95 0 6.912-2.587 6.541-6.53-.246-3.204-3.455-6.53-6.541-6.53-3.95-.493-6.788 2.71-6.541 6.53z" fill="url(#AA)"/><path d="M121.042 465.134c-.124 3.696 3.455 6.777 6.541 6.53 3.95 0 6.912-2.587 6.541-6.53-.246-3.204-3.455-6.53-6.541-6.53-3.826-.37-6.788 2.71-6.541 6.53z" fill="url(#AB)"/><path d="M288.033 476.962c-.123 3.697 3.456 6.777 6.542 6.531 3.949 0 6.911-2.588 6.541-6.531-.247-3.203-3.456-6.53-6.541-6.53-3.95-.493-6.789 2.711-6.542 6.53z" fill="url(#AC)"/><path d="M286.059 605.968c-.124 3.696 3.456 6.777 6.541 6.53 3.95 0 6.912-2.587 6.542-6.53-.247-3.204-3.456-6.53-6.542-6.53-3.826-.37-6.788 2.71-6.541 6.53z" fill="url(#AD)"/><path d="M172.879 595.248c-.123 3.697 3.456 6.777 6.542 6.531 3.949 0 6.912-2.588 6.541-6.531-.246-3.203-3.455-6.53-6.541-6.53-3.826-.37-6.665 2.711-6.542 6.53z" fill="url(#AE)"/><path d="M210.4 678.418c-.123 3.696 3.456 6.777 6.541 6.53 3.95 0 6.912-2.587 6.542-6.53-.247-3.204-3.456-6.53-6.542-6.53-3.949-.493-6.788 2.71-6.541 6.53z" fill="url(#AF)"/><path d="M49.579 41.893c-.123 3.696 3.456 6.777 6.541 6.53 3.95 0 6.912-2.587 6.541-6.53-.247-3.204-3.456-6.53-6.541-6.53-3.95-.37-6.788 2.711-6.541 6.53z" fill="url(#AG)"/></g><defs><linearGradient id="A" x1="349.437" y1="36.471" x2="349.437" y2="72.696" xlink:href="#AJ"><stop stop-color="#fff8ee"/><stop offset="1" stop-color="#fff8ee" stop-opacity="0"/></linearGradient><linearGradient id="B" x1="356.286" y1="74.421" x2="356.286" y2="164.861" xlink:href="#AJ"><stop stop-color="#fff8ee"/><stop offset="1" stop-color="#fff8ee" stop-opacity="0"/></linearGradient><linearGradient id="C" x1="282.973" y1=".986" x2="282.973" y2="71.341" xlink:href="#AJ"><stop stop-color="#fff8ee"/><stop offset="1" stop-color="#fff8ee" stop-opacity="0"/></linearGradient><linearGradient id="D" x1="259.152" y1="2.218" x2="259.152" y2="72.697" xlink:href="#AJ"><stop stop-color="#fff8ee"/><stop offset="1" stop-color="#fff8ee" stop-opacity="0"/></linearGradient><linearGradient id="E" x1="219.534" y1="43.741" x2="219.534" y2="74.422" xlink:href="#AJ"><stop stop-color="#fff8ee"/><stop offset="1" stop-color="#fff8ee" stop-opacity="0"/></linearGradient><linearGradient id="F" x1="163.746" y1=".739" x2="163.746" y2="41.154" xlink:href="#AJ"><stop stop-color="#fff8ee"/><stop offset="1" stop-color="#fff8ee" stop-opacity="0"/></linearGradient><linearGradient id="G" x1="146.775" y1=".493" x2="146.775" y2="40.291" xlink:href="#AJ"><stop stop-color="#fff8ee"/><stop offset="1" stop-color="#fff8ee" stop-opacity="0"/></linearGradient><linearGradient id="H" x1="142.959" y1=".862" x2="142.959" y2="40.291" xlink:href="#AJ"><stop stop-color="#fff8ee"/><stop offset="1" stop-color="#fff8ee" stop-opacity="0"/></linearGradient><linearGradient id="I" x1="67.908" y1=".616" x2="67.908" y2="38.073" xlink:href="#AJ"><stop stop-color="#fff8ee"/><stop offset="1" stop-color="#fff8ee" stop-opacity="0"/></linearGradient><linearGradient id="J" x1="50.695" y1=".493" x2="50.695" y2="39.059" xlink:href="#AJ"><stop stop-color="#fff8ee"/><stop offset="1" stop-color="#fff8ee" stop-opacity="0"/></linearGradient><linearGradient id="K" x1="236.998" y1="79.35" x2="236.998" y2="223.88" xlink:href="#AJ"><stop stop-color="#fff8ee"/><stop offset="1" stop-color="#fff8ee" stop-opacity="0"/></linearGradient><linearGradient id="L" x1="157.636" y1="46.698" x2="157.636" y2="223.264" xlink:href="#AJ"><stop stop-color="#fff8ee"/><stop offset="1" stop-color="#fff8ee" stop-opacity="0"/></linearGradient><linearGradient id="M" x1="314.323" y1="79.227" x2="314.323" y2="160.425" xlink:href="#AJ"><stop stop-color="#fff8ee"/><stop offset="1" stop-color="#fff8ee" stop-opacity="0"/></linearGradient><linearGradient id="N" x1="231.814" y1="45.589" x2="231.814" y2="159.932" xlink:href="#AJ"><stop stop-color="#fff8ee"/><stop offset="1" stop-color="#fff8ee" stop-opacity="0"/></linearGradient><linearGradient id="O" x1="249.217" y1="162.643" x2="249.217" y2="223.757" xlink:href="#AJ"><stop stop-color="#fff8ee"/><stop offset="1" stop-color="#fff8ee" stop-opacity="0"/></linearGradient><linearGradient id="P" x1="295.747" y1="163.875" x2="295.747" y2="210.573" xlink:href="#AJ"><stop stop-color="#fff8ee"/><stop offset="1" stop-color="#fff8ee" stop-opacity="0"/></linearGradient><linearGradient id="Q" x1="220.768" y1="212.175" x2="220.768" y2="223.388" xlink:href="#AJ"><stop stop-color="#fff8ee"/><stop offset="1" stop-color="#fff8ee" stop-opacity="0"/></linearGradient><linearGradient id="R" x1="300.314" y1="212.298" x2="300.314" y2="241.993" xlink:href="#AJ"><stop stop-color="#fff8ee"/><stop offset="1" stop-color="#fff8ee" stop-opacity="0"/></linearGradient><linearGradient id="S" x1="338.328" y1="164.861" x2="338.328" y2="210.327" xlink:href="#AJ"><stop stop-color="#fff8ee"/><stop offset="1" stop-color="#fff8ee" stop-opacity="0"/></linearGradient><linearGradient id="T" x1="238.788" y1="215.132" x2="238.788" y2="417.573" xlink:href="#AJ"><stop stop-color="#fff8ee"/><stop offset="1" stop-color="#fff8ee" stop-opacity="0"/></linearGradient><linearGradient id="U" x1="292.724" y1="215.255" x2="292.724" y2="395.148" xlink:href="#AJ"><stop stop-color="#fff8ee"/><stop offset="1" stop-color="#fff8ee" stop-opacity="0"/></linearGradient><linearGradient id="V" x1="393.066" y1="290.293" x2="393.066" y2="397.366" xlink:href="#AJ"><stop stop-color="#fff8ee"/><stop offset="1" stop-color="#fff8ee" stop-opacity="0"/></linearGradient><linearGradient id="W" x1="305.189" y1="399.83" x2="305.189" y2="477.455" xlink:href="#AJ"><stop stop-color="#fff8ee"/><stop offset="1" stop-color="#fff8ee" stop-opacity="0"/></linearGradient><linearGradient id="X" x1="254.154" y1="421.146" x2="254.154" y2="475.238" xlink:href="#AJ"><stop stop-color="#fff8ee"/><stop offset="1" stop-color="#fff8ee" stop-opacity="0"/></linearGradient><linearGradient id="Y" x1="345.178" y1="398.845" x2="345.178" y2="497.046" xlink:href="#AJ"><stop stop-color="#fff8ee"/><stop offset="1" stop-color="#fff8ee" stop-opacity="0"/></linearGradient><linearGradient id="Z" x1="379.614" y1="394.409" x2="379.614" y2="478.318" xlink:href="#AJ"><stop stop-color="#fff8ee"/><stop offset="1" stop-color="#fff8ee" stop-opacity="0"/></linearGradient><linearGradient id="a" x1="391.339" y1="393.747" x2="391.339" y2="398.475" xlink:href="#AJ"><stop stop-color="#fff8ee"/><stop offset="1" stop-color="#fff8ee" stop-opacity="0"/></linearGradient><linearGradient id="b" x1="222.804" y1="399.584" x2="222.804" y2="464.148" xlink:href="#AJ"><stop stop-color="#fff8ee"/><stop offset="1" stop-color="#fff8ee" stop-opacity="0"/></linearGradient><linearGradient id="c" x1="168.128" y1="417.573" x2="168.128" y2="463.409" xlink:href="#AJ"><stop stop-color="#fff8ee"/><stop offset="1" stop-color="#fff8ee" stop-opacity="0"/></linearGradient><linearGradient id="d" x1="265.632" y1="396.75" x2="265.632" y2="418.436" xlink:href="#AJ"><stop stop-color="#fff8ee"/><stop offset="1" stop-color="#fff8ee" stop-opacity="0"/></linearGradient><linearGradient id="e" x1="211.881" y1="463.409" x2="211.881" y2="477.45" xlink:href="#AJ"><stop stop-color="#fff8ee"/><stop offset="1" stop-color="#fff8ee" stop-opacity="0"/></linearGradient><linearGradient id="f" x1="334.688" y1="478.564" x2="334.688" y2="498.032" xlink:href="#AJ"><stop stop-color="#fff8ee"/><stop offset="1" stop-color="#fff8ee" stop-opacity="0"/></linearGradient><linearGradient id="g" x1="292.802" y1="479.18" x2="292.802" y2="604.489" xlink:href="#AJ"><stop stop-color="#fff8ee"/><stop offset="1" stop-color="#fff8ee" stop-opacity="0"/></linearGradient><linearGradient id="h" x1="236.381" y1="477.455" x2="236.381" y2="593.03" xlink:href="#AJ"><stop stop-color="#fff8ee"/><stop offset="1" stop-color="#fff8ee" stop-opacity="0"/></linearGradient><linearGradient id="i" x1="152.947" y1="467.598" x2="152.947" y2="593.277" xlink:href="#AJ"><stop stop-color="#fff8ee"/><stop offset="1" stop-color="#fff8ee" stop-opacity="0"/></linearGradient><linearGradient id="j" x1="210.091" y1="465.257" x2="210.091" y2="607.816" xlink:href="#AJ"><stop stop-color="#fff8ee"/><stop offset="1" stop-color="#fff8ee" stop-opacity="0"/></linearGradient><linearGradient id="k" x1="236.628" y1="593.832" x2="236.628" y2="606.83" xlink:href="#AJ"><stop stop-color="#fff8ee"/><stop offset="1" stop-color="#fff8ee" stop-opacity="0"/></linearGradient><linearGradient id="l" x1="334.934" y1="496.43" x2="334.934" y2="604.982" xlink:href="#AJ"><stop stop-color="#fff8ee"/><stop offset="1" stop-color="#fff8ee" stop-opacity="0"/></linearGradient><linearGradient id="m" x1="351.782" y1="479.92" x2="351.782" y2="615.579" xlink:href="#AJ"><stop stop-color="#fff8ee"/><stop offset="1" stop-color="#fff8ee" stop-opacity="0"/></linearGradient><linearGradient id="n" x1="352.769" y1="606.43" x2="352.769" y2="618.659" xlink:href="#AJ"><stop stop-color="#fff8ee"/><stop offset="1" stop-color="#fff8ee" stop-opacity="0"/></linearGradient><linearGradient id="o" x1="253.413" y1="609.048" x2="253.413" y2="676.446" xlink:href="#AJ"><stop stop-color="#fff8ee"/><stop offset="1" stop-color="#fff8ee" stop-opacity="0"/></linearGradient><linearGradient id="p" x1="197.811" y1="595.248" x2="197.811" y2="674.598" xlink:href="#AJ"><stop stop-color="#fff8ee"/><stop offset="1" stop-color="#fff8ee" stop-opacity="0"/></linearGradient><linearGradient id="q" x1="213.427" y1="679.896" x2="213.427" y2="773.416" xlink:href="#AJ"><stop stop-color="#fff8ee"/><stop offset="1" stop-color="#fff8ee" stop-opacity="0"/></linearGradient><linearGradient id="r" x1="251.808" y1="678.418" x2="251.808" y2="773.293" xlink:href="#AJ"><stop stop-color="#fff8ee"/><stop offset="1" stop-color="#fff8ee" stop-opacity="0"/></linearGradient><linearGradient id="s" x1="272.482" y1="677.186" x2="272.482" y2="754.934" xlink:href="#AJ"><stop stop-color="#fff8ee"/><stop offset="1" stop-color="#fff8ee" stop-opacity="0"/></linearGradient><linearGradient id="t" x1="312.533" y1="619.029" x2="312.533" y2="675.337" xlink:href="#AJ"><stop stop-color="#fff8ee"/><stop offset="1" stop-color="#fff8ee" stop-opacity="0"/></linearGradient><linearGradient id="u" x1="310.064" y1="606.953" x2="310.064" y2="753.455" xlink:href="#AJ"><stop stop-color="#fff8ee"/><stop offset="1" stop-color="#fff8ee" stop-opacity="0"/></linearGradient><linearGradient id="v" x1="301.495" y1="68.97" x2="301.495" y2="82.075" xlink:href="#AJ"><stop stop-color="#fff8ee"/><stop offset="1" stop-color="#fff8ee" stop-opacity="0"/></linearGradient><linearGradient id="w" x1="140.68" y1="37.284" x2="140.68" y2="50.409" xlink:href="#AJ"><stop stop-color="#fff8ee"/><stop offset="1" stop-color="#fff8ee" stop-opacity="0"/></linearGradient><linearGradient id="x" x1="267.8" y1="205.615" x2="267.8" y2="218.719" xlink:href="#AJ"><stop stop-color="#fff8ee"/><stop offset="1" stop-color="#fff8ee" stop-opacity="0"/></linearGradient><linearGradient id="y" x1="175.727" y1="218.409" x2="175.727" y2="231.533" xlink:href="#AJ"><stop stop-color="#fff8ee"/><stop offset="1" stop-color="#fff8ee" stop-opacity="0"/></linearGradient><linearGradient id="z" x1="317.54" y1="391.915" x2="317.54" y2="405.019" xlink:href="#AJ"><stop stop-color="#fff8ee"/><stop offset="1" stop-color="#fff8ee" stop-opacity="0"/></linearGradient><linearGradient id="AA" x1="212.383" y1="413.087" x2="212.383" y2="426.212" xlink:href="#AJ"><stop stop-color="#fff8ee"/><stop offset="1" stop-color="#fff8ee" stop-opacity="0"/></linearGradient><linearGradient id="AB" x1="127.592" y1="458.573" x2="127.592" y2="471.678" xlink:href="#AJ"><stop stop-color="#fff8ee"/><stop offset="1" stop-color="#fff8ee" stop-opacity="0"/></linearGradient><linearGradient id="AC" x1="294.583" y1="470.382" x2="294.583" y2="483.507" xlink:href="#AJ"><stop stop-color="#fff8ee"/><stop offset="1" stop-color="#fff8ee" stop-opacity="0"/></linearGradient><linearGradient id="AD" x1="292.609" y1="599.407" x2="292.609" y2="612.512" xlink:href="#AJ"><stop stop-color="#fff8ee"/><stop offset="1" stop-color="#fff8ee" stop-opacity="0"/></linearGradient><linearGradient id="AE" x1="179.435" y1="588.688" x2="179.435" y2="601.792" xlink:href="#AJ"><stop stop-color="#fff8ee"/><stop offset="1" stop-color="#fff8ee" stop-opacity="0"/></linearGradient><linearGradient id="AF" x1="216.95" y1="671.837" x2="216.95" y2="684.962" xlink:href="#AJ"><stop stop-color="#fff8ee"/><stop offset="1" stop-color="#fff8ee" stop-opacity="0"/></linearGradient><linearGradient id="AG" x1="56.129" y1="35.332" x2="56.129" y2="48.437" xlink:href="#AJ"><stop stop-color="#fff8ee"/><stop offset="1" stop-color="#fff8ee" stop-opacity="0"/></linearGradient><clipPath id="AH"><path fill="#fff" transform="matrix(-1 0 0 1 320 0)" d="M0 0h320v690H0z"/></clipPath><path id="AI" d="M261.251 212.175c-.124 3.696 3.455 6.777 6.541 6.53 3.95 0 6.912-2.587 6.541-6.53-.246-3.204-3.455-6.53-6.541-6.53-3.826-.37-6.788 2.71-6.541 6.53z"/><linearGradient id="AJ" gradientUnits="userSpaceOnUse"/></defs></svg>