<svg width="1920" height="560" viewBox="0 0 1920 560" fill="none" xmlns="http://www.w3.org/2000/svg">
<rect y="0.000244141" width="1920" height="560" fill="black"/>
<g clip-path="url(#clip0)">
<path d="M1981.7 29.6C1975.2 31.7 1968.9 34 1962.6 36.5C1959.5 37.8 1956.4 39.1 1953.2 40.3C1950.1 41.6 1946.9 42.7 1943.7 43.8C1937.3 46 1930.9 48.4 1924.6 50.8C1918.3 53.3 1911.8 55.5 1906 58.9V59C1912.1 56.1 1918.6 54.2 1924.9 51.7C1931.2 49.3 1937.5 46.8 1943.8 44.3C1946.9 43 1950.1 41.8 1953.3 40.6C1956.5 39.4 1959.7 38.4 1962.9 37.2C1969.2 34.9 1975.5 32.4 1981.7 29.6Z" fill="url(#paint0_linear)"/>
<path d="M1994.7 133.8C1993.3 131.8 1991.4 130.2 1989.5 128.7C1987.6 127.2 1985.7 125.6 1983.8 124.2L1972.2 115.3C1968.4 112.3 1964.5 109.4 1960.9 106.1C1959.1 104.5 1957.4 102.8 1955.7 101C1954 99.3 1952.4 97.4 1950.5 95.9C1948.6 94.4 1946.5 93.1 1944.5 91.7C1942.5 90.3 1940.6 88.8 1938.7 87.3C1934.9 84.2 1931.1 81.2 1927.3 78.2C1919.7 72.2 1912 66.2 1904.2 60.4L1904.1 60.5C1911.5 66.8 1919.1 73 1926.7 79C1930.5 82.1 1934.3 85 1938.2 88C1940.1 89.5 1942.1 91 1944.1 92.3C1946.1 93.7 1948.3 94.8 1950.2 96.3C1952.1 97.8 1953.8 99.5 1955.5 101.2C1957.2 102.9 1959 104.6 1960.7 106.3C1964.3 109.6 1967.9 112.8 1971.7 115.9C1975.5 119 1979.4 121.8 1983.3 124.8L1989.2 129.1C1991.1 130.5 1993 132 1994.7 133.8Z" fill="url(#paint1_linear)"/>
<path d="M1876.9 0.800049C1878.7 5.70005 1880.7 10.6 1882.9 15.3C1884 17.7 1885.2 20 1886.3 22.4C1887.4 24.8 1888.4 27.2001 1889.4 29.6C1891.4 34.5 1893.7 39.2001 1896.1 43.8C1898.5 48.4 1900.9 53.1001 1903 57.9001H1903.1C1901.6 52.8001 1899.4 48 1897.1 43.3L1893.5 36.3L1889.9 29.3C1888.7 27 1887.6 24.6 1886.6 22.2001C1885.6 19.8001 1884.7 17.3 1883.7 14.9C1881.7 10.2 1879.5 5.40005 1876.9 0.800049Z" fill="url(#paint2_linear)"/>
<path d="M1902.6 59C1899.6 57 1897.5 54.1 1895 51.5C1892.6 48.9001 1890.1 46.3001 1887.4 43.9001C1884.8 41.5 1882 39.2001 1879.3 36.8C1876.6 34.5 1873.9 32.1 1871.3 29.7001C1866 24.9001 1860.5 20.3 1855.2 15.5L1851.2 11.9L1847.4 8.20005C1844.8 5.70005 1842 3.30005 1838.8 1.80005V1.90005C1845 5.60005 1849 11.8 1854.6 16.4C1857.2 18.9 1860 21.2001 1862.7 23.5C1865.4 25.8 1868.2 28.1 1871 30.3C1873.8 32.6 1876.5 34.9 1879.2 37.3C1881.9 39.7001 1884.4 42.2001 1886.9 44.7001C1889.5 47.2001 1892 49.7001 1894.5 52.3C1897 54.5 1899.4 57.4001 1902.6 59Z" fill="url(#paint3_linear)"/>
<path d="M1901.8 60.4C1891.6 57.1 1881.1 54.7 1870.5 52.6C1865.2 51.6 1859.9 50.7 1854.7 49.7C1849.4 48.7 1844.2 47.6 1838.9 46.5C1828.4 44.3 1817.9 42.1 1807.3 40.3C1796.7 38.4 1786.1 36.7 1775.4 35.5V35.6C1786 37.5 1796.5 39.4 1807.1 41.3C1817.7 43.2 1828.2 45.2 1838.8 47.1C1844.1 48 1849.4 49 1854.6 50.1C1859.9 51.1 1865.1 52.3 1870.4 53.4C1880.9 55.6 1891.4 57.8 1901.8 60.4Z" fill="url(#paint4_linear)"/>
<path d="M1811.4 0.599976C1808.2 2.99998 1805.1 5.69998 1802.1 8.39998C1800.6 9.79998 1799.2 11.3 1797.7 12.6C1796.2 14 1794.7 15.3 1793.1 16.6C1791.5 17.9 1790 19.2 1788.4 20.5C1786.9 21.8 1785.3 23.1 1783.9 24.6C1781 27.4 1778.1 30.3 1775.4 33.3L1775.5 33.4C1778.7 30.9 1781.7 28.2 1784.7 25.5C1787.6 22.7 1790.6 20 1793.5 17.2C1794.9 15.8 1796.4 14.4 1797.9 13.1C1799.4 11.8 1801 10.5 1802.6 9.19998C1805.7 6.49998 1808.7 3.69998 1811.4 0.599976Z" fill="url(#paint5_linear)"/>
<path d="M1784.6 0.400024C1783 2.80002 1782.1 5.60002 1781.5 8.30002C1781.2 9.70002 1781.1 11.1 1780.9 12.5C1780.7 13.9 1780.3 15.3 1779.9 16.6C1779.1 19.3 1778.2 22 1777.2 24.6C1776.3 27.3 1775.4 29.9 1774.7 32.7H1774.8C1776.1 30.2 1777.3 27.6 1778.2 24.9C1779.1 22.2 1779.9 19.5 1780.4 16.7C1780.6 15.3 1780.9 13.9 1781.2 12.5C1781.5 11.1 1781.9 9.80002 1782.3 8.40002C1783.1 5.80002 1783.8 3.10002 1784.6 0.400024Z" fill="url(#paint6_linear)"/>
<path d="M1778.1 0.699951C1777.6 3.39995 1777.3 5.99995 1777.2 8.69995C1777.2 9.99995 1777.2 11.4 1777.2 12.7C1777.1 14 1777 15.4 1776.8 16.7C1776.4 19.4 1776 22 1775.7 24.7C1775.4 27.4 1775.1 30 1774.9 32.7H1775C1775.8 30.1 1776.4 27.5 1776.8 24.7999C1777.1 22.0999 1777.4 19.4 1777.4 16.7C1777.4 15.4 1777.5 14 1777.6 12.7C1777.7 11.4 1778 9.99995 1778.1 8.69995C1778.2 6.09995 1778.3 3.39995 1778.1 0.699951Z" fill="url(#paint7_linear)"/>
<path d="M1753.1 1C1754.4 3.9 1755.8 6.7 1757.4 9.4C1758.2 10.7 1759.1 12 1759.9 13.4C1760.7 14.7 1761.5 16.1 1762.2 17.5C1763.7 20.3 1765.5 22.9 1767.3 25.4C1769.1 27.9 1771 30.4 1773.1 32.8L1773.2 32.7C1771.7 29.9 1770 27.3 1768.2 24.7C1766.4 22.1 1764.5 19.6 1762.7 17.1C1761.8 15.8 1761 14.5 1760.2 13.1C1759.5 11.7 1758.8 10.3 1758.1 8.9C1756.7 6.1 1755.1 3.5 1753.1 1Z" fill="url(#paint8_linear)"/>
<path d="M1772.3 35C1766.9 34.7 1761.4 34.6 1756 34.7C1753.3 34.8 1750.6 34.9 1747.8 35C1745.1 35.1 1742.4 35 1739.6 34.9C1734.2 34.7 1728.7 34.7 1723.3 34.7C1717.9 34.8 1712.4 34.9 1707 35.2V35.3C1712.4 35.6 1717.9 35.7 1723.3 35.7C1728.7 35.7 1734.2 35.6 1739.6 35.4C1742.3 35.3 1745 35.2 1747.8 35.3C1750.5 35.3 1753.2 35.5 1756 35.5C1761.5 35.6 1766.9 35.5 1772.3 35Z" fill="url(#paint9_linear)"/>
<path d="M1724.2 0.5C1723.8 1.9 1723 3.1 1722.2 4.3C1721.4 5.5 1720.6 6.7 1719.9 8C1719.2 9.3 1718.6 10.6 1717.9 11.9C1717.2 13.2 1716.4 14.4 1715.6 15.6C1714 18 1712.5 20.5 1711.1 23C1709.7 25.6 1708.4 28.2 1707.3 30.9H1707.4C1709 28.5 1710.5 26 1712 23.5C1713.4 21 1714.8 18.4 1716.1 15.8C1716.8 14.5 1717.4 13.2 1718.2 12C1719 10.8 1719.8 9.6 1720.6 8.4C1721.4 7.2 1722.1 5.9 1722.8 4.7C1723.6 3.4 1724.2 2 1724.2 0.5Z" fill="url(#paint10_linear)"/>
<path d="M1698.1 0.400024C1697.7 1.80002 1698 3.20002 1698.3 4.50002C1698.6 5.80002 1699 7.10002 1699.5 8.40002C1700 9.70002 1700.6 10.9 1701 12.1C1701.4 13.4 1701.7 14.7 1701.9 16C1702.1 18.7 1702.3 21.4 1702.9 24C1703.5 26.6 1704.4 29.2 1705.6 31.7H1705.7C1705.1 29.1 1704.4 26.5 1703.9 23.9C1703.6 22.6 1703.4 21.3 1703.2 20C1703 18.7 1702.8 17.3 1702.5 16C1702.2 14.7 1701.8 13.4 1701.4 12.1L1700.4 8.20002C1700 6.90002 1699.6 5.70002 1699.2 4.40002C1698.7 3.00002 1698.2 1.70002 1698.1 0.400024Z" fill="url(#paint11_linear)"/>
<path d="M1902.5 64.4C1893.6 73.7 1885.4 83.5 1877.4 93.6C1875.4 96.1 1873.5 98.7 1871.3 101C1869.1 103.3 1866.8 105.6 1864.6 107.9C1862.4 110.2 1860.3 112.7 1858.4 115.3C1856.5 117.9 1854.7 120.5 1852.8 123.2C1845.4 133.6 1837.2 143.6 1829.3 153.6C1827.3 156.1 1825.2 158.5 1823 160.8C1820.8 163.1 1818.2 165 1815.8 167.2C1811 171.6 1807.9 177.4 1803 181.6L1803.1 181.7C1808.2 177.7 1811.5 172 1816.3 167.8C1818.7 165.7 1821.3 163.8 1823.6 161.6C1825.9 159.4 1828 156.9 1830.1 154.4C1838.1 144.4 1846.1 134.3 1853.3 123.7C1856.9 118.4 1860.3 112.9 1864.9 108.4C1867.1 106.1 1869.5 103.9 1871.7 101.6C1874 99.4 1876 96.8 1878.1 94.4C1882.2 89.5 1886.1 84.4 1890.2 79.5C1894.3 74.2 1898.4 69.3 1902.5 64.4Z" fill="url(#paint12_linear)"/>
<path d="M1774 37.9C1776.2 49.9 1778.7 61.8 1781.3 73.7C1782.6 79.6 1784.1 85.6 1785.4 91.5C1786.7 97.4 1787.9 103.4 1789.1 109.4C1791.4 121.4 1793.9 133.3 1796.4 145.2C1798.8 157.1 1801.1 169.1 1802.8 181.2H1802.9C1801.9 169 1799.9 157 1797.5 145C1796.3 139 1795 133.1 1793.7 127.1C1792.4 121.1 1791.1 115.2 1789.7 109.3C1788.3 103.4 1787 97.4 1785.8 91.4C1784.5 85.4 1783.4 79.4 1782.2 73.5C1779.6 61.6 1777 49.8 1774 37.9Z" fill="url(#paint13_linear)"/>
<path d="M1905.1 64.3C1907.7 69.5 1908.9 75.1 1910.4 80.6C1911.2 83.4 1912.1 86.1 1912.8 88.9C1913.6 91.7 1914.3 94.5 1915 97.3C1916.4 102.9 1918 108.4 1919.7 113.9C1921.5 119.4 1923.4 124.8 1925.6 130.2H1925.7C1924.1 124.6 1922.4 119.1 1920.8 113.6L1915.6 97.1C1914.7 94.4 1913.9 91.6 1913.2 88.8C1912.5 86 1911.9 83.2 1911.3 80.4C1910.6 77.6 1909.9 74.8 1909 72C1907.9 69.3 1906.8 66.6 1905.1 64.3Z" fill="url(#paint14_linear)"/>
<path d="M1923.9 129.8C1917.8 125.6 1911.7 121.4 1905.6 117.3C1899.5 113.2 1893.3 109.1 1887.1 105.1C1880.9 101.1 1874.6 97.2 1868.3 93.4C1862 89.6 1855.7 85.7 1849.3 82.1L1839.7 76.6L1834.9 73.8C1833.3 72.8 1831.8 71.9 1830.2 70.9C1824 66.9 1818 62.6 1811.9 58.4C1808.8 56.3 1805.8 54.2 1802.7 52.3C1799.6 50.3 1796.4 48.5 1793.1 46.7C1786.6 43.1 1780 39.8 1773.2 37V37.1C1779.9 40.3 1786.4 43.6 1792.8 47.4C1799.2 51.1 1805.3 55.2 1811.4 59.4C1817.5 63.6 1823.5 67.9 1829.8 71.8C1831.4 72.8 1832.9 73.8 1834.5 74.7L1839.4 77.4L1849.1 82.7C1855.6 86.2 1862 89.9 1868.2 93.9C1874.5 97.8 1880.6 101.9 1886.7 106C1899 113.9 1911.4 122 1923.9 129.8Z" fill="url(#paint15_linear)"/>
<path d="M1921.8 132C1912.3 137 1902.3 140.7 1892.2 144.3C1887.2 146.1 1882.1 147.9 1877.1 149.6C1872 151.4 1867 153 1862 154.9C1857 156.8 1852 158.9 1847.2 161.3C1842.4 163.7 1837.7 166.1 1832.8 168.4C1823.2 173 1813.3 177.1 1803.5 181.5V181.6C1813.5 177.9 1823.5 174 1833.2 169.4C1838.1 167.1 1842.8 164.6 1847.5 162.2C1852.2 159.8 1857.1 157.6 1862 155.5C1866.9 153.5 1872 151.6 1877.1 150C1882.2 148.3 1887.3 146.8 1892.4 145.1C1902.6 141.6 1912.7 137.6 1921.8 132Z" fill="url(#paint16_linear)"/>
<path d="M1922.8 133C1920.1 137.2 1915.8 139.6 1912 142.8C1910.1 144.4 1908.2 145.9 1906.3 147.4C1904.4 148.9 1902.2 150.1 1900.2 151.5C1898.1 152.9 1896.2 154.4 1894.3 156C1892.4 157.6 1890.5 159.2 1888.7 160.8C1885 164.1 1881.4 167.4 1877.9 170.8L1878 170.9C1881.9 167.9 1885.7 164.8 1889.4 161.6C1893.1 158.4 1896.7 155 1900.5 152C1904.4 149.1 1908.6 146.4 1912.6 143.5C1914.6 142 1916.5 140.5 1918.4 138.9C1920.1 137.2 1921.9 135.3 1922.8 133Z" fill="url(#paint17_linear)"/>
<path d="M1875.6 172.2C1869.6 172.8 1863.6 173.5 1857.6 174.5C1851.6 175.5 1845.7 177 1839.6 176.5C1838.1 176.4 1836.6 176.4 1835 176.5C1833.5 176.6 1832 176.8 1830.5 177C1827.5 177.4 1824.5 177.8 1821.5 178.2C1815.5 179.1 1809.5 180 1803.6 181.2V181.3C1809.6 180.8 1815.7 180.1 1821.7 179.3C1824.7 178.9 1827.7 178.4 1830.7 178C1832.2 177.8 1833.7 177.5 1835.2 177.4C1836.7 177.3 1838.2 177.2 1839.7 177.2C1841.2 177.2 1842.7 177.1 1844.3 177C1845.8 176.9 1847.3 176.7 1848.8 176.5C1851.8 176.1 1854.8 175.8 1857.8 175.4C1863.7 174.5 1869.7 173.5 1875.6 172.2Z" fill="url(#paint18_linear)"/>
<path d="M1928.7 196.4C1924.8 193.9 1920.8 191.7 1916.7 189.6C1914.6 188.6 1912.5 187.7 1910.5 186.7C1908.4 185.7 1906.4 184.6 1904.4 183.6C1900.4 181.4 1896.3 179.4 1892.1 177.5C1887.9 175.6 1883.7 173.9 1879.4 172.3V172.4C1883.5 174.5 1887.6 176.5 1891.7 178.5C1895.9 180.4 1900 182.3 1904.2 184.2C1906.3 185.1 1908.4 186.1 1910.4 187.1C1912.4 188.2 1914.4 189.3 1916.4 190.4C1920.4 192.6 1924.5 194.6 1928.7 196.4Z" fill="url(#paint19_linear)"/>
<path d="M1992.9 133.8C1988.3 136 1983.7 138 1978.9 139.7C1974.1 141.4 1969.3 142.8 1964.4 144.2C1954.6 147 1944.7 149.4 1935 152.5C1930.1 154 1925.3 155.7 1920.5 157.3C1915.7 158.9 1910.9 160.5 1906 162C1896.3 165 1886.6 167.9 1876.8 170.6V170.7C1886.7 168.6 1896.6 166 1906.3 163C1916 160 1925.6 156.4 1935.1 153C1939.9 151.3 1944.7 149.8 1949.7 148.5C1954.6 147.2 1959.6 146.2 1964.5 144.9C1969.4 143.6 1974.3 142.2 1979.1 140.4C1983.9 138.6 1988.5 136.4 1992.9 133.8Z" fill="url(#paint20_linear)"/>
<path d="M1875.7 174.6C1871.8 188.2 1868.1 201.9 1864.6 215.6C1862.9 222.5 1861.2 229.3 1859.5 236.2C1857.8 243.1 1855.9 249.9 1854 256.7C1850.3 270.4 1846.5 284 1843 297.7C1841.2 304.5 1839.5 311.4 1837.8 318.3C1836.1 325.2 1834.4 332 1832.7 338.9H1832.8C1834.8 332.1 1836.6 325.3 1838.5 318.4C1840.4 311.6 1842.2 304.8 1844 297.9C1847.6 284.2 1851.1 270.5 1854.5 256.8C1856.2 249.9 1857.9 243.1 1859.8 236.2C1861.6 229.4 1863.6 222.6 1865.4 215.7C1869.1 202.1 1872.6 188.4 1875.7 174.6Z" fill="url(#paint21_linear)"/>
<path d="M1877.7 174.7C1879.3 180.8 1881 186.9 1882.5 193L1883.1 195.3L1883.6 197.6L1884.5 202.2C1885.1 205.3 1885.9 208.4 1886.7 211.4C1887.5 214.5 1888.4 217.5 1889.4 220.5L1892.3 229.5C1894.3 235.5 1896.3 241.5 1898.2 247.5C1902.1 259.5 1905.5 271.7 1908.7 283.9L1913.4 302.3C1914.9 308.4 1916.4 314.6 1918 320.7H1918.1C1916.8 314.5 1915.5 308.3 1914.1 302.2C1912.7 296 1911.3 289.9 1909.7 283.7C1906.6 271.4 1902.9 259.3 1898.7 247.4C1896.6 241.4 1894.5 235.5 1892.6 229.4C1890.7 223.4 1889 217.3 1887.5 211.1C1885.9 205 1884.9 198.7 1883.3 192.6C1881.6 186.7 1879.7 180.7 1877.7 174.7Z" fill="url(#paint22_linear)"/>
<path d="M2040.9 235.6C2036 239.5 2031.1 243.5 2026.3 247.6C2021.5 251.7 2016.6 255.6 2011.1 258.6C2008.4 260.1 2005.6 261.7 2003 263.4C2000.4 265.1 1997.8 267 1995.2 268.8C1990 272.4 1984.8 275.9 1979.6 279.4C1969.2 286.4 1958.7 293.4 1948.4 300.6C1943.2 304.2 1938.1 307.8 1932.9 311.4C1927.8 315 1922.6 318.6 1917.5 322.4L1917.6 322.5C1922.9 319.1 1928.1 315.6 1933.3 312.1C1938.5 308.6 1943.8 305.1 1948.9 301.5C1959.3 294.4 1969.6 287.2 1979.8 279.9C1984.9 276.3 1990.1 272.6 1995.3 269.1C1997.9 267.3 2000.5 265.6 2003.2 263.9C2005.9 262.2 2008.7 260.8 2011.4 259.3C2014.2 257.8 2016.9 256.1 2019.4 254.2C2021.9 252.3 2024.3 250.2 2026.7 248.2C2031.5 244.1 2036.2 239.9 2040.9 235.6Z" fill="url(#paint23_linear)"/>
<path d="M1918 324.5C1915.6 329.5 1913.6 334.6 1911.8 339.9C1911 342.5 1910.2 345.2 1909.4 347.8C1908.6 350.4 1907.8 353.1 1906.9 355.7C1905.2 361 1903.8 366.3 1902.6 371.7C1901.4 377.1 1900.1 382.4 1898 387.5H1898.1C1900.8 382.6 1902.3 377.2 1903.6 371.9C1904.8 366.5 1906.1 361.2 1907.4 355.8C1908.1 353.1 1908.8 350.5 1909.7 347.9C1910.5 345.3 1911.6 342.7 1912.5 340.1C1914.5 335 1916.3 329.8 1918 324.5Z" fill="url(#paint24_linear)"/>
<path d="M1897.8 385.7C1895 384.2 1892.2 382.7 1889.5 381.1C1886.8 379.5 1884.2 377.6 1881.6 375.8C1879 374 1876.4 372.2 1873.8 370.3C1871.2 368.4 1868.7 366.5 1866.2 364.5C1861.2 360.5 1856.2 356.7 1851.1 352.9C1846 349.1 1840.8 345.4 1835.6 341.8L1835.5 341.9C1840.4 346 1845.4 349.9 1850.5 353.7C1855.6 357.5 1860.7 361.3 1865.9 364.9C1868.5 366.7 1871.1 368.6 1873.6 370.5C1876.1 372.4 1878.6 374.5 1881.1 376.4C1883.6 378.3 1886.3 380.1 1889.1 381.7C1891.9 383.3 1894.8 384.6 1897.8 385.7Z" fill="url(#paint25_linear)"/>
<path d="M1918.9 323.7C1922.2 330.5 1925.7 337.2 1929.3 343.8C1931.1 347.1 1933.1 350.3 1934.9 353.7C1936.7 357 1938.5 360.4 1940.2 363.7C1943.6 370.4 1947.1 377.1 1950.7 383.7C1954.3 390.3 1958 396.9 1961.8 403.4H1961.9C1958.6 396.6 1955.2 389.9 1951.6 383.2C1948.1 376.5 1944.4 369.9 1940.7 363.4C1938.8 360.1 1937 356.8 1935.3 353.5C1933.5 350.2 1931.9 346.8 1930.2 343.4C1926.5 336.8 1922.9 330.2 1918.9 323.7Z" fill="url(#paint26_linear)"/>
<path d="M2035.1 320.1C2033.5 320.4 2032.2 321.3 2030.9 322.2C2029.6 323.1 2028.5 324.2 2027.2 325C2024.6 326.7 2021.7 327.9 2018.9 329.2C2013.2 331.8 2007.6 334.5 2001.9 337.2C1996.3 339.9 1990.7 342.8 1985 345.5C1979.4 348.2 1973.7 350.8 1968 353.5C1956.6 358.7 1945.3 364 1934 369.4C1928.3 372.1 1922.7 374.8 1917.2 377.8C1911.7 380.8 1906.4 384.1 1901.5 388.1L1901.6 388.2C1906.6 384.5 1912 381.3 1917.6 378.4C1923.1 375.5 1928.8 373 1934.5 370.3C1945.8 365 1957.1 359.5 1968.3 354C1973.9 351.2 1979.5 348.5 1985.2 345.9C1990.9 343.2 1996.6 340.7 2002.3 338.1C2008 335.5 2013.6 332.7 2019.2 330C2022 328.6 2024.9 327.3 2027.5 325.5C2028.8 324.6 2029.9 323.5 2031.1 322.5C2032.3 321.5 2033.6 320.6 2035.1 320.1Z" fill="url(#paint27_linear)"/>
<path d="M2036.5 319.9C2026.7 319.6 2016.9 319.5 2007.1 319.6C2002.2 319.7 1997.3 319.9 1992.4 319.9C1987.5 320 1982.6 319.9 1977.7 319.8C1972.8 319.7 1967.9 319.7 1963 319.6C1958.1 319.6 1953.2 319.6 1948.3 319.7C1938.5 320 1928.7 320.9 1919.1 323.3V323.4C1928.7 321.6 1938.5 321 1948.3 320.7C1958.1 320.5 1967.9 320.5 1977.7 320.2C1982.6 320.1 1987.5 320 1992.4 320.1C1997.3 320.1 2002.2 320.3 2007.1 320.3C2016.9 320.5 2026.7 320.3 2036.5 319.9Z" fill="url(#paint28_linear)"/>
<path d="M1917.5 324.3C1904.7 328.4 1892 332.7 1879.3 337.1C1873 339.4 1866.7 341.7 1860.3 343.9C1854 346.1 1847.6 348.3 1841.2 350.4C1828.5 354.7 1815.7 358.8 1803 363.2C1796.6 365.3 1790.3 367.6 1784 369.8C1777.7 372 1771.3 374.2 1765 376.6V376.7C1771.4 374.7 1777.8 372.6 1784.2 370.5C1790.6 368.4 1797 366.3 1803.3 364.2C1816 359.9 1828.7 355.5 1841.4 350.9C1847.7 348.6 1854 346.4 1860.4 344.2C1866.8 342 1873.2 340 1879.5 337.8C1892.3 333.6 1905 329.1 1917.5 324.3Z" fill="url(#paint29_linear)"/>
<path d="M1830.5 338.9C1826.2 343.7 1820.5 346.7 1814.9 349.9C1812.1 351.5 1809.4 353.1 1806.5 354.7C1805.1 355.5 1803.7 356.2 1802.3 357C1800.9 357.7 1799.4 358.4 1797.9 359C1795 360.3 1792 361.5 1789 362.7C1786 363.9 1783 365 1780 366.2C1777 367.4 1774 368.6 1771.2 370.2C1769.8 371 1768.4 371.8 1767.1 372.8C1765.8 373.8 1764.6 374.8 1763.4 376L1763.5 376.1C1768.4 371.9 1774.5 369.5 1780.4 367.3C1786.4 365.1 1792.4 362.6 1798.1 359.7L1802.4 357.5C1803.8 356.7 1805.2 355.9 1806.6 355.2C1809.4 353.7 1812.3 352.3 1815.2 350.8C1818 349.3 1820.8 347.7 1823.5 345.8C1826.2 343.8 1828.7 341.6 1830.5 338.9Z" fill="url(#paint30_linear)"/>
<path d="M1919.2 322C1917.8 323.2 1916.1 323.9 1914.3 324.4C1912.5 324.9 1910.7 325.1 1908.9 325.4C1905.3 326 1901.6 326.6 1898 327.3C1894.4 328 1890.8 328.8 1887.1 329.5C1883.5 330.2 1879.8 330.8 1876.2 331.4C1868.9 332.5 1861.6 333.8 1854.4 335.1C1847.1 336.4 1839.9 337.9 1832.7 339.5V339.6C1840 338.6 1847.3 337.4 1854.6 336.1C1861.9 334.8 1869.1 333.4 1876.4 331.9C1880 331.2 1883.6 330.4 1887.3 329.8C1890.9 329.2 1894.6 328.7 1898.2 328.1C1901.8 327.5 1905.5 326.8 1909.1 326.1C1910.9 325.7 1912.7 325.4 1914.5 324.9C1916.3 324.3 1918 323.4 1919.2 322Z" fill="url(#paint31_linear)"/>
<path d="M1900.2 386.2C1888.9 386.9 1877.5 386.9 1866.2 386.1C1860.5 385.7 1854.9 385.1 1849.3 384.3C1846.5 383.9 1843.7 383.5 1840.8 383.3C1838 383.1 1835.1 383.1 1832.3 383.1C1829.5 383.1 1826.6 383 1823.8 382.8C1821 382.6 1818.2 382.1 1815.4 381.7L1807 380.2C1804.2 379.7 1801.3 379.4 1798.5 379.2C1787.2 378.2 1775.7 378.7 1764.6 376.1V376.2C1770.1 377.8 1775.7 378.6 1781.4 379.1C1787.1 379.6 1792.7 379.8 1798.4 380.3C1804 380.8 1809.6 381.8 1815.2 382.7C1818 383.1 1820.8 383.5 1823.7 383.7C1826.6 383.9 1829.4 383.8 1832.2 383.7C1843.6 382.9 1854.7 386.1 1866 387C1877.4 387.8 1888.9 387.7 1900.2 386.2Z" fill="url(#paint32_linear)"/>
<path d="M1964.3 404.2C1958.8 403.2 1953.4 401.9 1948.1 400.2C1945.4 399.4 1942.8 398.5 1940.2 397.5C1937.5 396.6 1934.7 396.3 1932 395.9C1926.5 395.1 1921 394.1 1915.6 392.8C1910.2 391.6 1904.8 390 1899.5 388.4V388.5C1904.6 390.8 1910 392.5 1915.4 393.9C1920.9 395.2 1926.4 396.1 1932 396.5C1934.8 396.7 1937.6 396.9 1940.2 397.9C1941.5 398.4 1942.8 398.9 1944.1 399.5C1945.4 400.1 1946.7 400.6 1948 401C1953.1 402.8 1958.7 404 1964.3 404.2Z" fill="url(#paint33_linear)"/>
<path d="M1897.5 388.9C1897.8 393.1 1898.3 397.4 1898.7 401.6C1898.9 403.7 1899 405.8 1898.9 407.9C1898.8 410 1898.6 412.1 1898.5 414.2C1898.2 418.4 1898.1 422.7 1897.8 426.9C1897.6 431.1 1897.3 435.4 1897 439.6C1896.4 448.1 1896.1 456.6 1896.1 465.1C1896.1 473.6 1896.4 482.1 1897 490.6H1897.1L1897.2 465.1L1897.3 452.4L1897.5 439.6C1897.6 435.3 1897.8 431.1 1898.1 426.9C1898.4 422.7 1898.9 418.4 1899.3 414.2C1899.5 412.1 1899.7 410 1899.8 407.8C1899.9 405.7 1899.7 403.5 1899.5 401.4C1898.9 397.3 1898.3 393.1 1897.5 388.9Z" fill="url(#paint34_linear)"/>
<path d="M1898.3 387.5C1893.8 390.7 1889.7 394.5 1886.2 398.7C1884.4 400.8 1882.8 403.1 1881.1 405.2C1880.2 406.2 1879.3 407.2 1878.3 408.1C1877.3 409 1876.2 409.8 1875.1 410.6C1872.9 412.2 1870.5 413.7 1868.5 415.6C1866.5 417.5 1864.7 419.6 1863 421.8C1859.6 426.2 1856.7 430.8 1853.2 435.1C1851.5 437.2 1849.6 439.2 1847.5 441C1845.4 442.8 1843.2 444.3 1841 446C1838.8 447.7 1836.6 449.5 1834.9 451.7C1833.1 453.9 1831.6 456.2 1829.9 458.3C1828.2 460.4 1826.2 462.3 1824.2 464.2L1818.2 469.8C1814.2 473.6 1810.2 477.4 1806.2 481.2L1806.3 481.3C1810.5 477.7 1814.6 474.1 1818.7 470.4L1824.9 464.9C1827 463.1 1829 461.1 1830.8 459C1832.6 456.8 1834.1 454.5 1835.8 452.4C1837.5 450.3 1839.5 448.5 1841.7 446.8C1843.9 445.1 1846.1 443.5 1848.2 441.7C1850.3 439.8 1852.1 437.7 1853.8 435.5C1857.2 431.1 1860 426.4 1863.4 422.1C1865.1 419.9 1867 417.9 1869 416.1C1871.1 414.3 1873.4 412.9 1875.7 411.3C1878 409.8 1880.2 407.9 1881.9 405.7C1883.6 403.5 1885.2 401.2 1886.9 399.1C1890.2 394.9 1894.1 391.1 1898.3 387.5Z" fill="url(#paint35_linear)"/>
<path d="M1764.1 379.5C1766.3 383.5 1767.9 387.8 1769.6 392.1C1771.2 396.4 1772.9 400.7 1774.6 404.9C1776.3 409.1 1778.2 413.3 1779.9 417.6C1781.6 421.8 1783.2 426.1 1784.8 430.4C1788 439 1791.2 447.6 1794.6 456.1C1798 464.6 1801.4 473.1 1805.1 481.5H1805.2C1802.1 472.9 1798.9 464.3 1795.6 455.7C1792.3 447.2 1788.8 438.7 1785.3 430.2C1783.5 426 1781.8 421.7 1780.2 417.4C1778.5 413.1 1777 408.8 1775.4 404.5C1773.8 400.2 1772.1 396 1770.3 391.7C1768.5 387.5 1766.7 383.3 1764.1 379.5Z" fill="url(#paint36_linear)"/>
<path d="M1763.7 377.6C1766.6 379.9 1769.4 382.3 1772.2 384.8C1773.6 386 1774.9 387.3 1776.1 388.7C1777.4 390 1778.5 391.5 1779.8 392.8C1782.2 395.6 1785 398.1 1787.9 400.5C1790.7 402.9 1793.6 405.2 1796.5 407.5L1813.9 421.4L1831.2 435.3C1837 439.9 1842.8 444.5 1848.7 449C1854.6 453.5 1860.7 457.7 1866.2 462.7C1871.6 467.7 1876.4 473.3 1881.4 478.8C1883.9 481.5 1886.5 484.2 1889.2 486.7C1892 489.2 1894.9 491.5 1898.1 493.3L1898.2 493.2C1892 489.2 1886.8 483.8 1881.9 478.2C1877 472.6 1872.3 466.8 1866.8 461.8C1861.3 456.8 1855.1 452.6 1849.2 448.1C1843.2 443.7 1837.3 439.3 1831.4 434.7C1825.5 430.2 1819.7 425.6 1814 420.9C1808.2 416.2 1802.6 411.4 1796.9 406.7L1788.3 399.6C1785.4 397.3 1782.7 394.9 1780.2 392.1C1779 390.7 1777.7 389.3 1776.4 388C1775.1 386.7 1773.7 385.4 1772.3 384.2C1769.7 381.9 1766.7 379.7 1763.7 377.6Z" fill="url(#paint37_linear)"/>
<path d="M1896.9 492.5C1889.5 491.3 1882.1 490.3 1874.7 489.5C1871 489.1 1867.2 488.8 1863.5 488.7C1859.8 488.6 1856 488.7 1852.3 488.4C1844.9 487.8 1837.6 485.9 1830.3 484.4C1823 482.8 1815.5 481.5 1808 482.1V482.2C1815.5 482.2 1822.8 483.8 1830.1 485.4C1833.7 486.2 1837.4 487 1841.1 487.7C1844.8 488.4 1848.5 488.9 1852.3 489C1856.1 489.1 1859.8 488.9 1863.5 489.1C1867.2 489.2 1870.9 489.8 1874.6 490.3C1882 491.3 1889.4 492.1 1896.9 492.5Z" fill="url(#paint38_linear)"/>
<path d="M1964.5 402.9C1962.4 407 1959.3 410.4 1956.5 414C1953.7 417.6 1950.9 421.2 1948.1 424.8C1945.4 428.5 1942.7 432.2 1939.9 435.8C1937.2 439.5 1934.3 443 1931.5 446.6C1928.6 450.2 1925.8 453.7 1923 457.3C1921.6 459.1 1920.2 460.9 1919 463C1917.8 465 1917.2 467.3 1916.3 469.3C1915.3 471.3 1913.8 473 1912.3 474.6C1910.7 476.3 1909.2 478 1907.7 479.7C1904.7 483.2 1902.1 487 1899.7 490.9L1899.8 491C1902.4 487.3 1905.3 483.7 1908.3 480.3C1909.8 478.6 1911.4 477 1913 475.3C1914.6 473.7 1916.2 471.9 1917.2 469.8C1918.2 467.7 1918.8 465.5 1919.9 463.5C1921 461.5 1922.3 459.7 1923.7 457.9C1926.5 454.3 1929.2 450.6 1931.9 446.9C1934.6 443.2 1937.4 439.6 1940.2 436C1943 432.4 1945.9 428.9 1948.7 425.3C1951.5 421.7 1954.3 418.1 1957 414.4C1959.8 410.8 1962.8 407.2 1964.5 402.9Z" fill="url(#paint39_linear)"/>
<path d="M1991.3 499.6C1987.6 494.9 1984 490.2 1980.5 485.4C1978.7 483 1977 480.6 1975.3 478.2C1973.6 475.8 1971.9 473.3 1969.9 471C1966 466.4 1960.9 463.1 1956.9 458.7C1952.8 454.4 1949.3 449.5 1945.9 444.6C1942.5 439.7 1939.2 434.7 1935.5 430C1933.7 427.6 1931.6 425.5 1929.6 423.3C1927.6 421.1 1925.5 418.9 1923.5 416.7C1915.4 408 1907.7 398.9 1900.3 389.5L1900.2 389.6C1907.1 399.4 1914.6 408.7 1922.7 417.4L1928.8 424C1930.8 426.2 1932.9 428.3 1934.8 430.6C1938.5 435.2 1942 440.1 1945.5 444.9C1949 449.7 1952.6 454.5 1956.7 458.9C1958.7 461.1 1960.9 463.2 1963.1 465.2C1965.3 467.2 1967.5 469.2 1969.3 471.5C1971.2 473.8 1972.8 476.3 1974.6 478.7C1976.4 481.1 1978.1 483.5 1979.9 485.9C1983.5 490.6 1987.2 495.2 1991.3 499.6Z" fill="url(#paint40_linear)"/>
<path d="M1993.2 502.1C1985.8 499.5 1978 498 1970.2 497.1C1966.3 496.7 1962.4 496.4 1958.5 496C1954.6 495.7 1950.7 495.2 1946.8 494.8C1939 493.9 1931.2 493.3 1923.4 492.8C1915.6 492.3 1907.7 492.1 1899.9 492.2V492.3C1907.7 492.9 1915.5 493.4 1923.3 493.8L1946.7 495.3C1950.6 495.6 1954.5 495.9 1958.4 496.3C1962.3 496.7 1966.2 497.3 1970 497.9C1977.8 499 1985.5 500.2 1993.2 502.1Z" fill="url(#paint41_linear)"/>
<path d="M1896 494.3C1893.8 496.9 1891.1 498.8 1888.3 500.7C1886.9 501.7 1885.5 502.6 1884.1 503.6C1882.7 504.6 1881.4 505.7 1880.1 506.8C1877.5 509 1875.1 511.4 1872.6 513.7C1870.1 516 1867.7 518.3 1865.2 520.6C1860.2 525.2 1855.3 529.8 1850.4 534.5C1845.5 539.2 1840.8 544 1836.1 548.9L1836.2 549C1841.3 544.5 1846.3 539.9 1851.1 535.3C1856 530.6 1860.8 525.9 1865.5 521.1C1867.9 518.7 1870.3 516.3 1872.8 514.1C1875.3 511.8 1877.9 509.7 1880.6 507.6C1883.2 505.5 1885.9 503.5 1888.7 501.5C1891.4 499.3 1894.2 497.2 1896 494.3Z" fill="url(#paint42_linear)"/>
<path d="M1806.1 483.1L1813.6 499.2C1814.9 501.9 1816.2 504.5 1817.3 507.3C1818.5 510 1819.5 512.8 1820.4 515.6C1821.4 518.4 1822.4 521.2 1823.4 524C1824.5 526.8 1825.6 529.5 1826.8 532.2C1829.3 537.6 1832.2 542.8 1835.8 547.5L1835.9 547.4C1832.8 542.4 1830.1 537.1 1827.8 531.7C1825.4 526.3 1823.2 520.8 1820.9 515.4C1818.6 510 1816.5 504.4 1814.3 498.9C1812 493.4 1809.3 488.1 1806.1 483.1Z" fill="url(#paint43_linear)"/>
<path d="M1835.4 551.8C1834.9 558.1 1834.6 564.4 1834.5 570.8C1834.4 574 1834.5 577.1 1834.4 580.3C1834.3 583.5 1834.1 586.6 1833.9 589.8C1833.4 596.1 1833 602.4 1832.6 608.7C1832.2 615 1831.9 621.3 1831.7 627.7H1831.8C1832.6 621.4 1833.2 615.1 1833.6 608.8C1834 602.5 1834.3 596.2 1834.4 589.8C1834.5 586.6 1834.5 583.5 1834.7 580.3C1834.8 577.1 1835.1 574 1835.3 570.8C1835.6 564.5 1835.7 558.1 1835.5 551.8H1835.4Z" fill="url(#paint44_linear)"/>
<path d="M1837.2 550.6C1839.6 553.8 1841.2 557.4 1843.1 560.8C1844.1 562.5 1845.1 564.2 1846.1 565.9C1847.2 567.6 1848.3 569.2 1849.4 570.8C1851.7 574 1854.2 577.1 1856.7 580.2L1864.1 589.5C1866.6 592.6 1869 595.7 1871.5 598.8C1874 601.9 1876.4 605 1878.8 608.1C1883.6 614.4 1888.2 620.8 1892.2 627.6H1892.3C1888.9 620.5 1884.5 613.8 1879.7 607.5C1874.9 601.2 1869.7 595.2 1864.5 589.2C1861.9 586.2 1859.3 583.2 1856.9 580L1855.1 577.6L1853.4 575.2C1852.2 573.6 1851.1 572 1850 570.3C1847.8 567 1845.6 563.7 1843.6 560.3C1841.8 557.1 1839.9 553.5 1837.2 550.6Z" fill="url(#paint45_linear)"/>
<path d="M1926.1 612.7C1919.9 605.9 1912.4 600.5 1904.6 595.8C1900.7 593.5 1896.6 591.4 1892.6 589.1C1888.6 586.9 1884.7 584.5 1880.8 582.2C1878.9 581 1877 579.7 1875.2 578.4C1873.4 577 1871.7 575.5 1870 574C1868.3 572.5 1866.7 570.9 1865 569.3C1863.3 567.8 1861.4 566.4 1859.5 565.1C1855.7 562.5 1851.7 560.3 1847.8 557.9C1843.9 555.5 1840.2 552.9 1837 549.6L1836.9 549.7C1839.9 553.2 1843.6 556 1847.4 558.6C1851.2 561.1 1855.2 563.4 1858.9 566C1862.7 568.5 1866 571.6 1869.4 574.7C1871.1 576.2 1872.8 577.7 1874.7 579.1C1876.6 580.5 1878.5 581.6 1880.5 582.8C1888.5 587.2 1896.4 591.8 1904.1 596.7C1908 599.1 1911.8 601.6 1915.5 604.3C1919.2 606.7 1922.7 609.6 1926.1 612.7Z" fill="url(#paint46_linear)"/>
<path d="M1991.4 502.4C1978.4 505.9 1965.5 509.6 1952.6 513.4C1946.2 515.4 1939.8 517.4 1933.3 519.3C1926.9 521.3 1920.4 523.1 1913.9 524.9C1900.9 528.6 1888 532.2 1875.1 536.1C1868.6 538 1862.2 540 1855.8 542C1849.4 544 1842.9 545.9 1836.5 548V548.1C1843 546.4 1849.5 544.5 1856 542.7C1862.5 540.9 1869 539.1 1875.4 537.1C1888.3 533.3 1901.2 529.4 1914.1 525.5C1920.5 523.5 1927 521.5 1933.4 519.7C1939.9 517.8 1946.4 516.1 1952.8 514.2C1965.7 510.5 1978.6 506.6 1991.4 502.4Z" fill="url(#paint47_linear)"/>
<path d="M1897.8 492.6C1899.8 502.6 1902.1 512.5 1904.5 522.4C1905.7 527.3 1907.1 532.3 1908.3 537.2C1909.5 542.1 1910.6 547.1 1911.7 552.1C1913.9 562.1 1916.1 572 1918.5 581.9C1920.9 591.8 1923.4 601.7 1926 611.5H1926.1C1924 601.5 1921.8 591.6 1919.5 581.6C1917.2 571.7 1914.7 561.8 1912.2 551.9C1910.9 547 1909.7 542 1908.6 537C1907.4 532 1906.4 527 1905.3 522.1C1903 512.3 1900.6 502.4 1897.8 492.6Z" fill="url(#paint48_linear)"/>
<path d="M1899.7 61.3C1899.6 64.3 1902.5 66.8 1905 66.6C1908.2 66.6 1910.6 64.5 1910.3 61.3C1910.1 58.7 1907.5 56 1905 56C1901.9 55.7 1899.5 58.2 1899.7 61.3Z" fill="url(#paint49_linear)"/>
<path d="M1769.4 35.6C1769.3 38.6 1772.2 41.1001 1774.7 40.9001C1777.9 40.9001 1780.3 38.8 1780 35.6C1779.8 33.0001 1777.2 30.3001 1774.7 30.3001C1771.6 29.9001 1769.3 32.5001 1769.4 35.6Z" fill="url(#paint50_linear)"/>
<path d="M1872.4 172.2C1872.3 175.2 1875.2 177.7 1877.7 177.5C1880.9 177.5 1883.3 175.4 1883 172.2C1882.8 169.6 1880.2 166.9 1877.7 166.9C1874.6 166.6 1872.2 169.1 1872.4 172.2Z" fill="url(#paint51_linear)"/>
<path d="M1797.8 182.6C1797.7 185.6 1800.6 188.1 1803.1 187.9C1806.3 187.9 1808.7 185.8 1808.4 182.6C1808.2 180 1805.6 177.3 1803.1 177.3C1800 176.9 1797.6 179.5 1797.8 182.6Z" fill="url(#paint52_linear)"/>
<path d="M1912.7 323.4C1912.6 326.4 1915.5 328.9 1918 328.7C1921.2 328.7 1923.6 326.6 1923.3 323.4C1923.1 320.8 1920.5 318.1 1918 318.1C1914.9 317.8 1912.5 320.3 1912.7 323.4Z" fill="url(#paint53_linear)"/>
<path d="M1827.5 340.6C1827.4 343.6 1830.3 346.1 1832.8 345.9C1836 345.9 1838.4 343.8 1838.1 340.6C1837.9 338 1835.3 335.3 1832.8 335.3C1829.6 334.9 1827.3 337.5 1827.5 340.6Z" fill="url(#paint54_linear)"/>
<path d="M1758.8 377.5C1758.7 380.5 1761.6 383 1764.1 382.8C1767.3 382.8 1769.7 380.7 1769.4 377.5C1769.2 374.9 1766.6 372.2 1764.1 372.2C1761 371.9 1758.6 374.4 1758.8 377.5Z" fill="url(#paint55_linear)"/>
<path d="M1894.1 387.1C1894 390.1 1896.9 392.6 1899.4 392.4C1902.6 392.4 1905 390.3 1904.7 387.1C1904.5 384.5 1901.9 381.8 1899.4 381.8C1896.2 381.4 1893.9 384 1894.1 387.1Z" fill="url(#paint56_linear)"/>
<path d="M1892.5 491.8C1892.4 494.8 1895.3 497.3 1897.8 497.1C1901 497.1 1903.4 495 1903.1 491.8C1902.9 489.2 1900.3 486.5 1897.8 486.5C1894.7 486.2 1892.3 488.7 1892.5 491.8Z" fill="url(#paint57_linear)"/>
<path d="M1800.8 483.1C1800.7 486.1 1803.6 488.6 1806.1 488.4C1809.3 488.4 1811.7 486.3 1811.4 483.1C1811.2 480.5 1808.6 477.8 1806.1 477.8C1803 477.5 1800.7 480 1800.8 483.1Z" fill="url(#paint58_linear)"/>
<path d="M1831.2 550.6C1831.1 553.6 1834 556.1 1836.5 555.9C1839.7 555.9 1842.1 553.8 1841.8 550.6C1841.6 548 1839 545.3 1836.5 545.3C1833.3 544.9 1831 547.5 1831.2 550.6Z" fill="url(#paint59_linear)"/>
<path d="M1700.9 34C1700.8 37 1703.7 39.5 1706.2 39.3C1709.4 39.3 1711.8 37.2 1711.5 34C1711.3 31.4 1708.7 28.7 1706.2 28.7C1703 28.4 1700.7 30.9 1700.9 34Z" fill="url(#paint60_linear)"/>
</g>
<g clip-path="url(#clip1)">
<g clip-path="url(#clip2)">
<path d="M425.212 577.283C422.1 576.636 419.011 576.13 415.885 575.843C414.363 575.73 412.782 575.697 411.179 575.524C409.657 575.411 408.054 575.238 406.509 574.985C403.361 574.559 400.2 574.494 397.119 574.487C394.039 574.48 390.899 574.554 387.724 574.849L387.746 574.988C390.894 575.414 393.997 575.561 397.159 575.626C400.32 575.692 403.46 575.618 406.54 575.624C408.121 575.657 409.643 575.771 411.246 575.943C412.791 576.197 414.336 576.45 415.88 576.704C418.969 577.21 422.014 577.438 425.212 577.283Z" fill="url(#paint61_linear)"/>
<path d="M386.411 572.911C389.819 568.712 393.123 564.314 396.207 559.88C397.709 557.634 399.21 555.388 400.77 553.061C402.272 550.814 403.936 548.685 405.658 546.475C408.985 542.217 412.208 537.761 415.373 533.386C418.457 528.952 421.6 524.437 424.522 519.886L424.441 519.828C421.033 524.027 417.728 528.425 414.563 532.8C411.398 537.175 408.256 541.69 405.253 546.182C403.751 548.429 402.25 550.675 400.527 552.885C398.945 555.072 397.2 557.143 395.559 559.411C392.255 563.809 389.171 568.243 386.411 572.911Z" fill="url(#paint62_linear)"/>
<path d="M445 560C443.944 558.646 443.36 557.043 442.775 555.44C442.19 553.837 441.606 552.234 440.856 550.659C440.105 549.084 439.285 547.605 438.535 546.03C437.785 544.455 437.2 542.852 436.616 541.249C435.446 538.042 434.111 534.864 432.707 531.783C431.206 528.632 429.636 525.579 427.83 522.65L427.76 522.746C428.929 525.953 430.264 529.131 431.599 532.309C433.004 535.391 434.504 538.541 436.074 541.595C436.825 543.17 437.645 544.648 438.229 546.251C438.814 547.854 439.399 549.457 439.983 551.061C440.568 552.664 441.318 554.239 441.973 555.745C442.653 557.417 443.569 558.965 445 560Z" fill="url(#paint63_linear)"/>
<path d="M457.934 533.072C457.034 531.927 455.724 531.35 454.495 530.831C453.266 530.312 451.978 529.874 450.632 529.517C449.285 529.161 447.961 528.943 446.755 528.564C445.467 528.126 444.238 527.607 443.067 527.007C440.762 525.587 438.458 524.166 435.999 523.129C433.541 522.091 430.907 521.296 428.178 520.803L428.119 520.884C430.578 521.922 433.095 522.879 435.494 523.998C436.723 524.516 437.894 525.116 439.064 525.716C440.235 526.316 441.486 526.975 442.716 527.494C443.945 528.012 445.232 528.45 446.52 528.888L450.266 530.364C451.554 530.802 452.761 531.181 454.048 531.619C455.476 532.034 456.822 532.391 457.934 533.072Z" fill="url(#paint64_linear)"/>
<path d="M286.277 661.171C283.959 648.509 280.825 636.121 277.33 623.72C276.477 620.634 275.484 617.571 274.91 614.44C274.336 611.309 273.82 608.098 273.246 604.967C272.672 601.837 271.878 598.67 270.885 595.607C269.892 592.543 268.84 589.561 267.766 586.439C263.677 574.348 260.381 561.843 256.909 549.581C256.056 546.495 255.342 543.387 254.768 540.256C254.194 537.126 254.178 533.905 253.802 530.671C253.051 524.203 250.168 518.292 249.637 511.86L249.498 511.883C249.75 518.359 252.434 524.374 253.023 530.725C253.318 533.9 253.334 537.12 253.768 540.273C254.202 543.426 254.997 546.593 255.792 549.76C259.205 562.103 262.7 574.505 267.068 586.551C269.252 592.574 271.715 598.553 272.665 604.917C273.239 608.048 273.615 611.282 274.189 614.412C274.624 617.565 275.558 620.71 276.272 623.818C277.839 630.012 279.685 636.161 281.252 642.355C283.143 648.783 284.71 654.977 286.277 661.171Z" fill="url(#paint65_linear)"/>
<path d="M383.064 572.589C372.052 567.338 360.945 562.389 349.78 557.521C344.237 555.116 338.497 552.814 332.954 550.41C327.412 548.005 321.847 545.46 316.283 542.916C305.212 537.746 294.105 532.797 282.998 527.848C271.95 522.817 260.879 517.647 250.079 511.933L250.02 512.014C260.491 518.354 271.386 523.767 282.515 528.856C288.08 531.4 293.622 533.805 299.246 536.269C304.869 538.732 310.411 541.137 316.012 543.461C321.613 545.784 327.236 548.248 332.801 550.792C338.424 553.256 343.93 555.881 349.414 558.367C360.58 563.235 371.664 568.045 383.064 572.589Z" fill="url(#paint66_linear)"/>
<path d="M220.746 640.178C227.724 637.697 234.702 635.216 241.599 632.677C248.497 630.138 255.452 627.517 262.327 624.838C269.202 622.159 276.055 619.341 282.826 616.464C289.597 613.587 296.45 610.768 303.118 607.693L313.201 603.138L318.283 600.89C320.031 600.18 321.639 599.492 323.387 598.782C330.262 596.103 337.263 593.762 344.241 591.281C347.759 590 351.219 588.8 354.575 587.402C358.013 586.063 361.347 584.525 364.739 582.906C371.466 579.75 378.008 576.337 384.262 572.468L384.181 572.41C377.662 575.963 371.178 579.295 364.348 582.253C357.599 585.27 350.702 587.809 343.724 590.29C336.745 592.771 329.745 595.112 322.892 597.93C321.144 598.64 319.455 599.27 317.788 600.038L312.728 602.426L302.749 607.179C296.103 610.394 289.354 613.411 282.479 616.09C275.627 618.908 268.73 621.448 261.833 623.987C248.222 629.322 234.392 634.622 220.746 640.178Z" fill="url(#paint67_linear)"/>
<path d="M220.194 637.187C221.711 626.559 224.574 616.288 227.577 605.995C229.049 600.889 230.58 595.702 232.133 590.654C233.664 585.467 235.298 580.478 236.689 575.313C238.081 570.148 239.31 564.866 240.179 559.571C241.047 554.275 241.858 549.06 242.866 543.742C244.766 533.268 247.246 522.843 249.425 512.324L249.344 512.266C246.481 522.536 243.78 532.925 241.821 543.48C240.813 548.798 240.084 554.071 239.274 559.286C238.463 564.501 237.374 569.761 236.203 574.961C234.952 580.104 233.502 585.35 231.809 590.42C230.197 595.548 228.424 600.559 226.812 605.688C223.669 616.004 220.99 626.531 220.194 637.187Z" fill="url(#paint68_linear)"/>
<path d="M214.702 576.192C217.732 570.979 220.682 565.708 223.388 560.26C226.095 554.813 228.337 549.153 232.318 544.504C233.278 543.347 234.157 542.132 235.014 540.777C235.812 539.503 236.529 538.17 237.246 536.838C238.681 534.173 240.115 531.508 241.549 528.842C244.337 523.454 247.124 518.065 249.61 512.581L249.529 512.522C246.417 517.677 243.409 523.029 240.541 528.36C239.106 531.025 237.753 533.749 236.319 536.414C235.602 537.746 234.966 539.137 234.168 540.411C233.369 541.685 232.571 542.959 231.692 544.175C230.813 545.39 230.015 546.664 229.158 548.019C228.36 549.293 227.643 550.625 226.926 551.958C225.491 554.623 223.976 557.23 222.542 559.895C219.813 565.203 217.106 570.65 214.702 576.192Z" fill="url(#paint69_linear)"/>
<path d="M212.698 574.867C203.965 563.736 195.034 552.708 185.985 541.842C181.391 536.421 176.878 531.058 172.283 525.636C167.689 520.215 163.293 514.69 158.897 509.165C149.966 498.137 141.174 487.087 132.125 476.221C127.671 470.777 123.077 465.356 118.483 459.934C113.888 454.513 109.375 449.15 104.781 443.728L104.722 443.809C109.06 449.415 113.514 454.859 117.991 460.443C122.387 465.968 126.842 471.412 131.377 476.914C140.367 487.861 149.416 498.727 158.523 509.511C163.118 514.933 167.631 520.296 172.108 525.879C176.562 531.323 180.899 536.929 185.435 542.432C194.285 553.401 203.334 564.267 212.698 574.867Z" fill="url(#paint70_linear)"/>
<path d="M211.445 576.428C205.565 574.15 199.626 571.952 193.805 569.592L191.59 568.73L189.433 567.787L185.178 565.82C182.315 564.489 179.334 563.32 176.435 562.21C173.454 561.041 170.496 560.012 167.479 559.064L158.488 556.139C152.454 554.242 146.42 552.346 140.445 550.369C128.437 546.495 116.559 542.099 104.799 537.542L87.136 530.565C81.3144 528.205 75.4118 525.786 69.5317 523.507L69.473 523.589C75.2584 526.169 81.0438 528.75 86.8067 531.191C92.6507 533.69 98.4136 536.131 104.375 538.469C116.158 543.166 128.13 547.261 140.233 550.833C146.326 552.648 152.337 554.404 158.393 556.44C164.368 558.418 170.306 560.615 176.209 563.034C182.089 565.313 187.78 568.195 193.66 570.474C199.437 572.555 205.412 574.532 211.445 576.428Z" fill="url(#paint71_linear)"/>
<path d="M159.796 605.343C155.312 602.84 151.414 599.527 147.517 596.214C143.619 592.9 139.78 589.506 135.882 586.193C131.984 582.88 128.087 579.566 124.306 576.091C120.467 572.697 116.745 569.14 113.023 565.584C105.58 558.471 98.0187 551.52 90.2819 544.813C82.6037 538.024 74.6687 531.42 66.6388 525.118L66.5802 525.199L112.568 565.872C116.407 569.266 120.188 572.741 123.968 576.217C127.749 579.692 131.471 583.248 135.251 586.724C139.032 590.199 142.929 593.512 146.967 596.803C150.923 600.036 155.078 603.164 159.796 605.343Z" fill="url(#paint72_linear)"/>
<path d="M2.03137 619.206C8.57006 620.233 15.2173 620.598 21.8698 620.104C25.1262 619.868 28.4998 619.469 31.7701 618.873C35.0403 618.276 38.207 617.482 41.522 617.164C44.756 616.789 48.1159 616.751 51.3947 616.654L53.8943 616.611L56.3716 616.428L61.326 616.063C67.8974 615.509 74.4913 615.096 81.0851 614.682C94.1918 613.796 107.438 612.887 120.559 611.641C127.13 611.087 133.657 610.255 140.264 609.481C146.872 608.707 153.398 607.874 159.903 606.902L159.88 606.762L140.211 608.702L120.519 610.501L81.0541 614.042C74.4827 614.596 67.8526 615.23 61.3398 615.703C58.0024 615.88 54.7459 616.116 51.4447 616.073C48.1435 616.03 44.8422 615.987 41.5272 616.304C38.2122 616.621 34.9644 617.358 31.7752 618.013C28.505 618.609 25.2934 619.125 22.037 619.361C15.2449 619.878 8.64246 619.792 2.03137 619.206Z" fill="url(#paint73_linear)"/>
<path d="M66.4482 672.963C66.1603 666.707 65.7914 660.392 65.2828 654.1C64.7743 647.808 64.4864 641.552 65.2793 635.337C65.6465 632.271 65.9913 629.064 66.1378 625.961C66.2843 622.858 66.2688 619.638 66.3343 616.476C66.4653 610.153 66.6773 603.889 66.8893 597.624C67.3133 585.095 67.796 572.485 67.9994 559.919C68.1304 553.596 68.2027 547.354 68.3337 541.031C68.4061 534.789 68.5371 528.465 68.4475 522.106L68.3078 522.128C67.9562 528.415 67.7441 534.68 67.5321 540.945C67.3201 547.209 67.0495 553.555 66.9771 559.797C66.6341 572.385 66.4307 584.95 66.367 597.493C66.2946 603.735 66.2446 610.117 66.0326 616.382C65.9671 619.543 65.8206 622.646 65.6155 625.83C65.4103 629.014 64.9035 632.103 64.5363 635.17C64.1106 638.318 63.9054 641.502 63.9796 644.641C64.0537 647.78 64.3485 650.956 64.5623 654.073C65.0708 660.365 65.719 666.635 66.4482 672.963Z" fill="url(#paint74_linear)"/>
<path d="M66.4526 521.28C63.8082 516.405 60.8483 511.796 57.6091 507.231C55.9714 505.059 54.2527 502.828 52.615 500.656C50.9773 498.484 49.2585 496.253 47.6795 494C44.3817 489.516 40.908 485.275 37.2361 481.138C33.5643 477.001 30.032 472.841 27.1307 468.15L27.0721 468.231C29.4597 473.291 32.9557 477.671 36.488 481.831C40.1599 485.968 43.6921 490.128 47.3054 494.346C49.0827 496.496 50.779 498.587 52.3581 500.84C53.9958 503.012 55.4577 505.427 57.0367 507.681C59.9967 512.29 63.1548 516.796 66.4526 521.28Z" fill="url(#paint75_linear)"/>
<path d="M28.7064 469.043C31.5629 467.654 34.4194 466.264 37.2983 465.015C40.1771 463.765 43.2405 462.772 46.2228 461.72C49.2051 460.669 52.1874 459.617 55.2507 458.624C58.3141 457.631 61.3188 456.719 64.4045 455.866C70.576 454.159 76.5855 452.335 82.6535 450.43C88.7216 448.526 94.7672 446.481 100.732 444.378L100.709 444.238C94.5156 445.805 88.4251 447.57 82.357 449.475C76.289 451.38 70.2209 453.285 64.2563 455.388C61.274 456.44 58.2106 457.433 55.2059 458.345C52.2012 459.257 49.0344 460.052 46.0297 460.963C43.025 461.875 39.984 463.008 37.0466 464.339C34.1091 465.67 31.356 467.257 28.7064 469.043Z" fill="url(#paint76_linear)"/>
<path d="M66.5732 522.478C59.1294 521.167 51.6495 520.075 44.192 519.124C40.4633 518.648 36.6983 518.393 32.8885 517.858C29.1597 517.383 25.35 516.848 21.6798 516.292C14.2585 515.119 6.77856 514.028 -0.678952 513.077C-8.13647 512.125 -15.6526 511.254 -23.1463 510.524L-23.2049 510.605C-15.7612 511.916 -8.33988 513.089 -0.801345 514.099C6.67858 515.19 14.1947 516.061 21.6298 516.872C25.4172 517.267 29.146 517.743 32.8161 518.3C36.5449 518.776 40.2374 519.472 43.9886 520.087C51.5047 520.958 58.9622 521.91 66.5732 522.478Z" fill="url(#paint77_linear)"/>
<path d="M1.3833 618.737C2.07802 617.264 2.11076 615.684 2.14351 614.103C2.17626 612.522 1.92975 610.986 2.04352 609.464C2.19004 606.361 2.9175 603.308 3.50533 600.277C4.73961 594.135 5.83426 588.015 6.98751 581.815C8.08216 575.695 9.01476 569.458 10.168 563.257C11.2627 557.137 12.4969 550.995 13.6502 544.794C16.1188 532.51 18.4477 520.248 20.6956 507.927C21.8488 501.726 22.9435 495.607 23.7365 489.392C24.5294 483.177 24.9621 476.949 24.5932 470.634L24.4535 470.657C24.5208 476.877 23.9485 483.127 23.0159 489.364C22.1419 495.52 20.8266 501.604 19.6733 507.805C17.3444 520.067 15.1775 532.446 13.0693 544.744C12.0556 550.923 10.961 557.042 9.72671 563.185C8.57346 569.385 7.25814 575.469 6.02387 581.611C4.78959 587.753 3.77597 593.932 2.68133 600.052C2.17451 603.141 1.52807 606.252 1.46257 609.414C1.42982 610.995 1.67634 612.531 1.78323 614.089C1.89012 615.648 1.85736 617.228 1.3833 618.737Z" fill="url(#paint78_linear)"/>
<path d="M0.725092 619.988C6.71211 612.224 12.5371 604.342 18.2 596.343C20.9909 592.315 23.7009 588.227 26.5729 584.257C29.3638 580.229 32.3168 576.317 35.2698 572.406C38.2228 568.494 41.0948 564.524 44.0478 560.612C46.9197 556.642 49.7917 552.672 52.5827 548.643C58.0835 540.527 63.0983 532.06 66.7805 522.875L66.6994 522.816C62.5311 531.649 57.2733 539.941 51.7724 548.057C46.1905 556.115 40.4466 564.055 34.9457 572.171C32.1547 576.2 29.3638 580.229 26.4108 584.14C23.5388 588.11 20.5048 591.963 17.6328 595.933C11.7269 603.756 6.14495 611.814 0.725092 619.988Z" fill="url(#paint79_linear)"/>
<path d="M66.9077 520.992C71.0881 508.218 75.0478 495.408 78.9265 482.539C80.7555 476.087 82.5845 469.634 84.5532 463.16C86.4632 456.766 88.4319 450.291 90.4815 443.875C94.4412 431.064 98.6216 418.29 102.5 405.422C104.55 399.005 106.379 392.553 108.289 386.159C110.199 379.765 112.168 373.29 113.916 366.779L113.835 366.72C111.704 373.078 109.654 379.494 107.605 385.911C105.555 392.327 103.505 398.743 101.514 405.078C97.5545 417.889 93.6758 430.757 89.9592 443.743C88.1302 450.196 86.2201 456.59 84.2515 463.065C82.2828 469.54 80.1521 475.897 78.2421 482.291C74.1428 495.124 70.3451 508.051 66.9077 520.992Z" fill="url(#paint80_linear)"/>
<path d="M106.071 441.945C104.702 435.648 105.612 429.271 106.302 422.859C106.646 419.652 106.933 416.527 107.336 413.239C107.508 411.636 107.762 410.092 107.934 408.488C108.188 406.944 108.5 405.318 108.893 403.751C109.539 400.639 110.325 397.505 111.111 394.371C111.897 391.237 112.764 388.162 113.551 385.028C114.337 381.894 115.123 378.76 115.467 375.554C115.64 373.95 115.812 372.347 115.764 370.708C115.716 369.068 115.609 367.51 115.34 365.834L115.2 365.857C115.731 372.289 114.1 378.638 112.425 384.707C110.691 390.858 109.199 397.185 108.208 403.503L107.47 408.276C107.298 409.88 107.126 411.483 106.872 413.027C106.447 416.175 105.881 419.345 105.397 422.574C104.971 425.722 104.626 428.928 104.583 432.23C104.621 435.589 104.938 438.905 106.071 441.945Z" fill="url(#paint81_linear)"/>
<path d="M67.7749 523.718C67.6232 521.88 68.0524 520.093 68.7023 518.341C69.3522 516.59 70.2452 515.014 71.0571 513.38C72.681 510.111 74.3635 506.762 75.9064 503.435C77.4493 500.108 78.9111 496.722 80.5126 493.314C82.0554 489.987 83.7379 486.637 85.3618 483.369C88.7492 476.809 91.9746 470.133 95.1413 463.537C98.3667 456.86 101.371 450.148 104.295 443.376L104.214 443.318C100.746 449.818 97.4392 456.436 94.2139 463.113C90.9885 469.79 87.9028 476.444 84.8395 483.238C83.2966 486.565 81.8348 489.95 80.1523 493.3C78.5284 496.568 76.7649 499.859 75.141 503.128C73.5171 506.396 71.9156 509.804 70.3728 513.132C69.6418 514.824 68.8299 516.459 68.18 518.21C67.6111 520.02 67.3439 521.925 67.7749 523.718Z" fill="url(#paint82_linear)"/>
<path d="M26.8948 470.695C32.9508 461.129 39.6325 451.892 46.9038 443.206C50.5688 438.822 54.3372 434.636 58.2676 430.568C60.2329 428.534 62.1981 426.5 64.0599 424.267C65.863 422.116 67.5628 419.766 69.2039 417.497C70.845 415.229 72.6258 412.938 74.429 410.786C76.2321 408.635 78.2784 406.659 80.2436 404.625L86.3823 398.698C88.4286 396.723 90.3714 394.549 92.1745 392.398C99.6079 383.828 105.943 374.218 114.556 366.748L114.475 366.689C109.955 370.208 106.024 374.276 102.278 378.601C98.5322 382.927 95.0879 387.347 91.3419 391.672C87.6545 395.916 83.562 399.867 79.5506 403.877C77.5854 405.911 75.6201 407.945 73.7584 410.178C71.8966 412.41 70.3365 414.737 68.7764 417.065C62.7428 426.77 53.6442 433.888 46.2919 442.516C38.962 451.284 32.3026 460.66 26.8948 470.695Z" fill="url(#paint83_linear)"/>
<path d="M-25.2596 512.08C-21.2257 508.21 -17.0074 504.597 -12.5236 501.299C-10.2929 499.58 -8.03978 498.001 -5.70565 496.481C-3.39393 494.821 -1.50973 492.728 0.396874 490.775C4.2687 486.787 8.30257 482.917 12.5209 479.304C16.6582 475.632 21.1196 472.195 25.5224 468.838L25.4414 468.78C20.5886 471.564 16.0462 474.943 11.7469 478.497C7.46993 482.192 3.51708 486.12 -0.0892672 490.423C-1.89244 492.574 -3.69561 494.726 -6.02974 496.246C-7.1968 497.007 -8.36387 497.767 -9.61196 498.468C-10.8601 499.17 -12.0271 499.93 -13.1132 500.749C-17.5608 503.826 -21.8153 507.66 -25.2596 512.08Z" fill="url(#paint84_linear)"/>
<path d="M26.2894 466.925C22.7107 464.706 18.9336 462.591 15.2962 460.453C13.4775 459.385 11.7174 458.235 10.0746 456.923C8.43171 455.611 6.84745 454.218 5.20458 452.906C1.97747 450.201 -1.44788 447.6 -4.675 444.895C-7.96073 442.272 -11.2689 439.508 -14.496 436.803C-21.0312 431.335 -27.7423 426.11 -34.6293 421.128C-41.5162 416.146 -48.5789 411.407 -55.8175 406.912L-55.8761 406.993L-35.274 422.02L-25.0427 429.544L-14.789 437.209C-11.3637 439.81 -8.07795 442.434 -4.85083 445.138C-1.62372 447.843 1.56718 450.769 4.73569 453.554C6.31994 454.947 7.90421 456.34 9.6281 457.711C11.271 459.023 13.1707 460.15 14.9894 461.219C18.663 463.136 22.4176 465.111 26.2894 466.925Z" fill="url(#paint85_linear)"/>
<path d="M26.9551 468.393C26.9999 462.872 26.3241 457.323 24.9725 452.025C24.3261 449.336 23.4004 446.691 22.6953 444.083C22.4126 442.768 22.1298 441.453 21.9868 440.115C21.8437 438.777 21.8402 437.417 21.8368 436.057C21.8299 433.337 22.0212 430.513 21.654 427.779C21.2868 425.045 20.6404 422.355 19.8543 419.689C18.2821 414.355 16.2547 409.309 14.8222 403.953C14.1171 401.345 13.6103 398.633 13.3827 395.877C13.1552 393.12 13.2293 390.459 13.1413 387.68C13.0534 384.901 12.8845 382.063 12.0984 379.396C11.3709 376.648 10.3865 374.085 9.68147 371.477C8.97639 368.869 8.60917 366.135 8.24198 363.4L7.22143 355.257C6.48704 349.789 5.75263 344.321 5.01823 338.852L4.87863 338.875C5.33375 344.388 5.84748 349.82 6.44223 355.31L7.26455 363.557C7.49212 366.314 7.94033 369.107 8.5868 371.796C9.31428 374.544 10.2986 377.107 11.0037 379.715C11.7088 382.324 11.995 384.999 12.0829 387.778C12.1708 390.557 12.1777 393.277 12.4053 396.034C12.7138 398.849 13.3603 401.538 14.1464 404.205C15.7186 409.538 17.8855 414.562 19.3767 419.837C20.1628 422.504 20.6697 425.215 20.9558 427.891C21.1834 430.647 20.9696 433.331 20.9179 436.133C20.7852 438.875 21.0352 441.772 21.8213 444.438C22.6074 447.105 23.5331 449.75 24.2382 452.358C25.7069 457.493 26.5 462.88 26.9551 468.393Z" fill="url(#paint86_linear)"/>
<path d="M112.094 364.35C107.563 363.788 103.142 362.564 98.6613 361.421C94.2395 360.197 89.7592 359.054 85.3598 357.97C80.9605 356.886 76.4439 355.964 71.9635 354.821C67.5642 353.736 63.1424 352.512 58.7207 351.288C49.8771 348.841 41.0336 346.393 32.1539 344.165C23.2742 341.938 14.3945 339.711 5.41992 337.785L5.3613 337.866C14.1462 340.395 22.9897 342.843 31.8919 345.21C40.713 347.518 49.6513 349.665 58.5896 351.811C63.0476 352.814 67.528 353.957 71.9497 355.181C76.4301 356.324 80.7933 357.629 85.215 358.853C89.6368 360.077 94.0361 361.161 98.5751 362.223C103.033 363.226 107.491 364.229 112.094 364.35Z" fill="url(#paint87_linear)"/>
<path d="M113.867 365.14C110.304 366.141 106.719 367.003 103.052 367.806C101.259 368.237 99.4437 368.529 97.6061 368.68C95.7908 368.972 93.9308 368.984 92.1155 369.275C88.4402 369.579 84.7735 370.382 81.1292 371.325C77.5435 372.187 73.9803 373.188 70.417 374.19L48.9564 380.141L27.5545 386.011C20.4279 388.014 13.3014 390.017 6.19731 392.16C-0.906805 394.303 -7.88508 396.784 -15.1599 398.309C-22.376 399.754 -29.7266 400.361 -37.1135 401.188C-40.7664 401.631 -44.4779 402.155 -48.086 402.878C-51.7527 403.681 -55.3159 404.683 -58.6499 406.22L-58.6275 406.36C-51.7527 403.681 -44.3296 402.633 -36.9204 401.945C-29.5112 401.257 -22.0571 400.848 -14.7823 399.323C-7.50752 397.797 -0.470665 395.235 6.63345 393.093C13.7151 390.81 20.7382 388.609 27.9234 386.525C35.0275 384.382 42.154 382.379 49.3029 380.515C56.5105 378.57 63.6818 376.847 70.8307 374.983L81.624 372.177C85.1872 371.175 88.7143 370.394 92.4482 370.01C94.2859 369.858 96.1821 369.625 97.9974 369.334C99.8126 369.042 101.686 368.67 103.479 368.239C106.867 367.481 110.408 366.339 113.867 365.14Z" fill="url(#paint88_linear)"/>
<path d="M-57.2982 405.717C-51.9886 400.425 -46.8411 395.015 -41.8557 389.488C-39.363 386.725 -36.8926 383.822 -34.643 380.883C-32.3933 377.943 -30.2471 374.806 -27.8354 371.984C-23.012 366.34 -17.1939 361.539 -11.6999 356.503C-6.1249 351.526 -0.675735 346.212 3.23401 339.783L3.15298 339.725C-1.2429 345.801 -6.8179 350.778 -12.3929 355.755C-15.1511 358.203 -17.968 360.732 -20.7037 363.32C-23.4395 365.907 -26.0133 368.612 -28.3215 371.632C-30.6298 374.652 -32.6364 377.767 -34.9671 380.648C-37.2167 383.587 -39.8715 386.234 -42.4452 388.938C-47.5927 394.348 -52.5782 399.875 -57.2982 405.717Z" fill="url(#paint89_linear)"/>
<path d="M-24.3232 513.004C-26.4143 508.9 -27.3521 504.395 -28.6278 500.017C-29.9035 495.638 -31.1792 491.259 -32.4549 486.881C-33.8702 482.524 -35.2855 478.168 -36.5612 473.789C-37.9765 469.433 -39.1126 465.032 -40.3883 460.653C-41.6054 456.194 -42.8 451.874 -44.0757 447.495C-44.7135 445.306 -45.3514 443.116 -46.3495 440.913C-47.2666 438.769 -48.7785 436.935 -49.8714 435.033C-50.9058 433.051 -51.404 430.839 -51.8212 428.686C-52.2608 426.393 -52.759 424.181 -53.2572 421.97C-54.3346 417.488 -55.8896 413.154 -57.6428 408.923L-57.7824 408.946C-56.3085 413.221 -55.0914 417.681 -54.095 422.104C-53.5968 424.316 -53.2382 426.55 -52.7986 428.843C-52.44 431.077 -51.9194 433.428 -50.804 435.469C-49.6887 437.51 -48.2579 439.286 -47.2821 441.349C-46.3064 443.413 -45.61 445.521 -44.9721 447.711C-43.6964 452.089 -42.2811 456.445 -40.8658 460.802C-39.4505 465.158 -38.1748 469.537 -36.8991 473.915C-35.6234 478.294 -34.4873 482.695 -33.2117 487.074C-31.936 491.452 -30.6603 495.831 -29.245 500.187C-27.9693 504.566 -26.8108 509.107 -24.3232 513.004Z" fill="url(#paint90_linear)"/>
<path d="M-118.38 478.041C-112.404 477.798 -106.485 477.636 -100.545 477.613C-97.5454 477.561 -94.6045 477.591 -91.6635 477.62C-88.7226 477.649 -85.7006 477.737 -82.6649 477.465C-76.652 477.001 -70.989 474.803 -65.0796 474.141C-59.1925 473.34 -53.171 473.376 -47.2081 473.493C-41.2452 473.61 -35.2599 473.867 -29.2832 473.624C-26.2836 473.572 -23.3513 473.102 -20.3965 472.771C-17.4418 472.44 -14.4285 472.028 -11.4737 471.697C0.322774 470.233 12.2089 469.328 24.1623 468.842L24.1399 468.702C12.1555 468.549 0.224526 469.174 -11.572 470.638L-20.4948 471.712C-23.4495 472.043 -26.3819 472.514 -29.359 472.705C-35.2547 473.007 -41.2762 472.971 -47.2167 472.993C-53.1572 473.015 -59.1563 473.119 -65.1244 473.862C-68.0791 474.193 -71.0701 474.745 -73.98 475.355C-76.8899 475.965 -79.7998 476.575 -82.7183 476.686C-85.6954 476.877 -88.6588 476.708 -91.6584 476.76C-94.6579 476.812 -97.5988 476.782 -100.598 476.834C-106.516 476.996 -112.412 477.298 -118.38 478.041Z" fill="url(#paint91_linear)"/>
<path d="M1.85596 619.449C-0.0782683 610.521 -2.21075 601.696 -4.48286 592.894C-5.61891 588.493 -6.8946 584.114 -8.03065 579.713C-9.16671 575.312 -10.1631 570.889 -11.2992 566.488C-13.4316 557.663 -15.7037 548.861 -18.1155 540.081C-20.5272 531.302 -22.939 522.522 -25.63 513.787L-25.7696 513.809C-23.6958 522.715 -21.5047 531.458 -19.1516 540.319C-18.0155 544.72 -16.7398 549.099 -15.6038 553.5C-14.4091 557.82 -13.192 562.28 -11.9163 566.658C-9.36494 575.416 -7.37211 584.263 -5.29825 593.168C-3.10717 601.912 -0.835052 610.714 1.85596 619.449Z" fill="url(#paint92_linear)"/>
<path d="M1.08154 618.642C-4.27802 612.914 -9.26351 606.839 -14.3076 600.845C-19.3517 594.851 -24.3372 588.776 -29.4399 582.863L-37.0354 573.913C-39.5867 570.956 -42.0795 567.919 -44.5722 564.881C-47.0649 561.844 -49.3594 558.703 -51.8522 555.665C-54.3449 552.628 -56.9549 549.752 -59.7631 546.98C-62.5713 544.208 -65.4967 541.598 -68.1653 538.804C-70.9149 535.951 -73.5249 533.076 -76.1349 530.2C-81.2376 524.287 -86.0248 518.109 -90.6948 511.768L-104.682 492.887C-109.352 486.546 -114 480.346 -118.729 474.086L-118.787 474.167C-114.316 480.611 -109.785 486.974 -105.255 493.337C-100.724 499.7 -96.2527 506.143 -91.524 512.403C-86.854 518.743 -82.0668 524.922 -76.8244 530.812C-74.2731 533.769 -71.5235 536.622 -68.7152 539.394C-65.907 542.166 -62.9816 544.776 -60.1148 547.467C-54.3225 552.767 -49.5353 558.946 -44.748 565.124C-39.7625 571.199 -34.9753 577.378 -29.9312 583.371C-24.9457 589.446 -19.843 595.359 -14.7989 601.353C-9.75481 607.347 -4.59349 613.179 1.08154 618.642Z" fill="url(#paint93_linear)"/>
<path d="M3.53709 337.658L-13.9034 334.298C-16.853 333.769 -19.7215 333.298 -22.6349 332.548C-25.5258 331.938 -28.3806 331.107 -31.1767 330.195C-34.0315 329.364 -36.8862 328.533 -39.741 327.703C-42.6544 326.953 -45.4867 326.261 -48.3777 325.651C-54.2182 324.512 -60.1311 323.814 -66.0492 323.976L-66.0268 324.115C-60.1587 324.534 -54.2819 325.453 -48.5587 326.754C-42.7767 327.975 -37.0311 329.416 -31.3078 330.718C-25.5845 332.019 -19.8163 333.6 -14.0706 335.041C-8.26632 336.401 -2.38962 337.32 3.53709 337.658Z" fill="url(#paint94_linear)"/>
<path d="M251.875 507.061C249.503 505.222 245.778 506.106 244.474 508.249C242.599 510.842 242.894 514.017 245.662 515.65C247.886 517.011 251.598 516.487 253.063 514.462C255.204 512.185 254.504 508.716 251.875 507.061Z" fill="url(#paint95_linear)"/>
<path d="M70.4503 517.631C68.0782 515.791 64.3529 516.676 63.0497 518.819C61.1741 521.411 61.4689 524.587 64.2375 526.219C66.4613 527.581 70.1728 527.057 71.6381 525.031C73.6981 522.696 73.0792 519.286 70.4503 517.631Z" fill="url(#paint96_linear)"/>
<path d="M106.452 438.518C104.08 436.679 100.354 437.563 99.0511 439.706C97.1755 442.299 97.4703 445.474 100.239 447.107C102.463 448.469 106.174 447.945 107.64 445.919C109.839 443.561 109.081 440.173 106.452 438.518Z" fill="url(#paint97_linear)"/>
<path d="M116.82 361.228C114.448 359.389 110.723 360.273 109.42 362.416C107.544 365.009 107.839 368.184 110.608 369.816C112.831 371.178 116.543 370.654 118.008 368.629C120.068 366.293 119.449 362.883 116.82 361.228Z" fill="url(#paint98_linear)"/>
<path d="M29.7408 465.225C27.3687 463.386 23.6434 464.27 22.3402 466.413C20.4646 469.005 20.7594 472.181 23.5279 473.813C25.7517 475.175 29.4633 474.651 30.9286 472.626C33.1282 470.267 32.3697 466.88 29.7408 465.225Z" fill="url(#paint99_linear)"/>
<path d="M6.64364 333.364C4.27158 331.524 0.546281 332.409 -0.756967 334.551C-2.63254 337.144 -2.33776 340.319 0.4308 341.952C2.65461 343.314 6.36614 342.79 7.83144 340.764C9.89147 338.428 9.21396 335.1 6.64364 333.364Z" fill="url(#paint100_linear)"/>
<path d="M429.069 515.647C426.697 513.808 422.972 514.692 421.669 516.835C419.793 519.428 420.088 522.603 422.857 524.236C425.08 525.597 428.792 525.073 430.257 523.048C432.376 520.631 431.698 517.302 429.069 515.647Z" fill="url(#paint101_linear)"/>
</g>
</g>
<defs>
<linearGradient id="paint0_linear" x1="1943.85" y1="29.6" x2="1943.85" y2="59" gradientUnits="userSpaceOnUse">
<stop stop-color="#FFF8EE"/>
<stop offset="1" stop-color="#FFF8EE" stop-opacity="0"/>
</linearGradient>
<linearGradient id="paint1_linear" x1="1949.4" y1="60.4" x2="1949.4" y2="133.8" gradientUnits="userSpaceOnUse">
<stop stop-color="#FFF8EE"/>
<stop offset="1" stop-color="#FFF8EE" stop-opacity="0"/>
</linearGradient>
<linearGradient id="paint2_linear" x1="1890" y1="0.800049" x2="1890" y2="57.9001" gradientUnits="userSpaceOnUse">
<stop stop-color="#FFF8EE"/>
<stop offset="1" stop-color="#FFF8EE" stop-opacity="0"/>
</linearGradient>
<linearGradient id="paint3_linear" x1="1870.7" y1="1.80005" x2="1870.7" y2="59" gradientUnits="userSpaceOnUse">
<stop stop-color="#FFF8EE"/>
<stop offset="1" stop-color="#FFF8EE" stop-opacity="0"/>
</linearGradient>
<linearGradient id="paint4_linear" x1="1838.6" y1="35.5" x2="1838.6" y2="60.4" gradientUnits="userSpaceOnUse">
<stop stop-color="#FFF8EE"/>
<stop offset="1" stop-color="#FFF8EE" stop-opacity="0"/>
</linearGradient>
<linearGradient id="paint5_linear" x1="1793.4" y1="0.599976" x2="1793.4" y2="33.4" gradientUnits="userSpaceOnUse">
<stop stop-color="#FFF8EE"/>
<stop offset="1" stop-color="#FFF8EE" stop-opacity="0"/>
</linearGradient>
<linearGradient id="paint6_linear" x1="1779.65" y1="0.400024" x2="1779.65" y2="32.7" gradientUnits="userSpaceOnUse">
<stop stop-color="#FFF8EE"/>
<stop offset="1" stop-color="#FFF8EE" stop-opacity="0"/>
</linearGradient>
<linearGradient id="paint7_linear" x1="1776.56" y1="0.699951" x2="1776.56" y2="32.7" gradientUnits="userSpaceOnUse">
<stop stop-color="#FFF8EE"/>
<stop offset="1" stop-color="#FFF8EE" stop-opacity="0"/>
</linearGradient>
<linearGradient id="paint8_linear" x1="1763.15" y1="1" x2="1763.15" y2="32.8" gradientUnits="userSpaceOnUse">
<stop stop-color="#FFF8EE"/>
<stop offset="1" stop-color="#FFF8EE" stop-opacity="0"/>
</linearGradient>
<linearGradient id="paint9_linear" x1="1739.65" y1="34.6625" x2="1739.65" y2="35.7" gradientUnits="userSpaceOnUse">
<stop stop-color="#FFF8EE"/>
<stop offset="1" stop-color="#FFF8EE" stop-opacity="0"/>
</linearGradient>
<linearGradient id="paint10_linear" x1="1715.75" y1="0.5" x2="1715.75" y2="30.9" gradientUnits="userSpaceOnUse">
<stop stop-color="#FFF8EE"/>
<stop offset="1" stop-color="#FFF8EE" stop-opacity="0"/>
</linearGradient>
<linearGradient id="paint11_linear" x1="1701.8" y1="0.400024" x2="1701.8" y2="31.7" gradientUnits="userSpaceOnUse">
<stop stop-color="#FFF8EE"/>
<stop offset="1" stop-color="#FFF8EE" stop-opacity="0"/>
</linearGradient>
<linearGradient id="paint12_linear" x1="1852.75" y1="64.4" x2="1852.75" y2="181.7" gradientUnits="userSpaceOnUse">
<stop stop-color="#FFF8EE"/>
<stop offset="1" stop-color="#FFF8EE" stop-opacity="0"/>
</linearGradient>
<linearGradient id="paint13_linear" x1="1788.45" y1="37.9" x2="1788.45" y2="181.2" gradientUnits="userSpaceOnUse">
<stop stop-color="#FFF8EE"/>
<stop offset="1" stop-color="#FFF8EE" stop-opacity="0"/>
</linearGradient>
<linearGradient id="paint14_linear" x1="1915.4" y1="64.3" x2="1915.4" y2="130.2" gradientUnits="userSpaceOnUse">
<stop stop-color="#FFF8EE"/>
<stop offset="1" stop-color="#FFF8EE" stop-opacity="0"/>
</linearGradient>
<linearGradient id="paint15_linear" x1="1848.55" y1="37" x2="1848.55" y2="129.8" gradientUnits="userSpaceOnUse">
<stop stop-color="#FFF8EE"/>
<stop offset="1" stop-color="#FFF8EE" stop-opacity="0"/>
</linearGradient>
<linearGradient id="paint16_linear" x1="1862.65" y1="132" x2="1862.65" y2="181.6" gradientUnits="userSpaceOnUse">
<stop stop-color="#FFF8EE"/>
<stop offset="1" stop-color="#FFF8EE" stop-opacity="0"/>
</linearGradient>
<linearGradient id="paint17_linear" x1="1900.35" y1="133" x2="1900.35" y2="170.9" gradientUnits="userSpaceOnUse">
<stop stop-color="#FFF8EE"/>
<stop offset="1" stop-color="#FFF8EE" stop-opacity="0"/>
</linearGradient>
<linearGradient id="paint18_linear" x1="1839.6" y1="172.2" x2="1839.6" y2="181.3" gradientUnits="userSpaceOnUse">
<stop stop-color="#FFF8EE"/>
<stop offset="1" stop-color="#FFF8EE" stop-opacity="0"/>
</linearGradient>
<linearGradient id="paint19_linear" x1="1904.05" y1="172.3" x2="1904.05" y2="196.4" gradientUnits="userSpaceOnUse">
<stop stop-color="#FFF8EE"/>
<stop offset="1" stop-color="#FFF8EE" stop-opacity="0"/>
</linearGradient>
<linearGradient id="paint20_linear" x1="1934.85" y1="133.8" x2="1934.85" y2="170.7" gradientUnits="userSpaceOnUse">
<stop stop-color="#FFF8EE"/>
<stop offset="1" stop-color="#FFF8EE" stop-opacity="0"/>
</linearGradient>
<linearGradient id="paint21_linear" x1="1854.2" y1="174.6" x2="1854.2" y2="338.9" gradientUnits="userSpaceOnUse">
<stop stop-color="#FFF8EE"/>
<stop offset="1" stop-color="#FFF8EE" stop-opacity="0"/>
</linearGradient>
<linearGradient id="paint22_linear" x1="1897.9" y1="174.7" x2="1897.9" y2="320.7" gradientUnits="userSpaceOnUse">
<stop stop-color="#FFF8EE"/>
<stop offset="1" stop-color="#FFF8EE" stop-opacity="0"/>
</linearGradient>
<linearGradient id="paint23_linear" x1="1979.2" y1="235.6" x2="1979.2" y2="322.5" gradientUnits="userSpaceOnUse">
<stop stop-color="#FFF8EE"/>
<stop offset="1" stop-color="#FFF8EE" stop-opacity="0"/>
</linearGradient>
<linearGradient id="paint24_linear" x1="1908" y1="324.5" x2="1908" y2="387.5" gradientUnits="userSpaceOnUse">
<stop stop-color="#FFF8EE"/>
<stop offset="1" stop-color="#FFF8EE" stop-opacity="0"/>
</linearGradient>
<linearGradient id="paint25_linear" x1="1866.65" y1="341.8" x2="1866.65" y2="385.7" gradientUnits="userSpaceOnUse">
<stop stop-color="#FFF8EE"/>
<stop offset="1" stop-color="#FFF8EE" stop-opacity="0"/>
</linearGradient>
<linearGradient id="paint26_linear" x1="1940.4" y1="323.7" x2="1940.4" y2="403.4" gradientUnits="userSpaceOnUse">
<stop stop-color="#FFF8EE"/>
<stop offset="1" stop-color="#FFF8EE" stop-opacity="0"/>
</linearGradient>
<linearGradient id="paint27_linear" x1="1968.3" y1="320.1" x2="1968.3" y2="388.2" gradientUnits="userSpaceOnUse">
<stop stop-color="#FFF8EE"/>
<stop offset="1" stop-color="#FFF8EE" stop-opacity="0"/>
</linearGradient>
<linearGradient id="paint28_linear" x1="1977.8" y1="319.562" x2="1977.8" y2="323.4" gradientUnits="userSpaceOnUse">
<stop stop-color="#FFF8EE"/>
<stop offset="1" stop-color="#FFF8EE" stop-opacity="0"/>
</linearGradient>
<linearGradient id="paint29_linear" x1="1841.25" y1="324.3" x2="1841.25" y2="376.7" gradientUnits="userSpaceOnUse">
<stop stop-color="#FFF8EE"/>
<stop offset="1" stop-color="#FFF8EE" stop-opacity="0"/>
</linearGradient>
<linearGradient id="paint30_linear" x1="1796.95" y1="338.9" x2="1796.95" y2="376.1" gradientUnits="userSpaceOnUse">
<stop stop-color="#FFF8EE"/>
<stop offset="1" stop-color="#FFF8EE" stop-opacity="0"/>
</linearGradient>
<linearGradient id="paint31_linear" x1="1875.95" y1="322" x2="1875.95" y2="339.6" gradientUnits="userSpaceOnUse">
<stop stop-color="#FFF8EE"/>
<stop offset="1" stop-color="#FFF8EE" stop-opacity="0"/>
</linearGradient>
<linearGradient id="paint32_linear" x1="1832.4" y1="376.1" x2="1832.4" y2="387.496" gradientUnits="userSpaceOnUse">
<stop stop-color="#FFF8EE"/>
<stop offset="1" stop-color="#FFF8EE" stop-opacity="0"/>
</linearGradient>
<linearGradient id="paint33_linear" x1="1931.9" y1="388.4" x2="1931.9" y2="404.2" gradientUnits="userSpaceOnUse">
<stop stop-color="#FFF8EE"/>
<stop offset="1" stop-color="#FFF8EE" stop-opacity="0"/>
</linearGradient>
<linearGradient id="paint34_linear" x1="1897.96" y1="388.9" x2="1897.96" y2="490.6" gradientUnits="userSpaceOnUse">
<stop stop-color="#FFF8EE"/>
<stop offset="1" stop-color="#FFF8EE" stop-opacity="0"/>
</linearGradient>
<linearGradient id="paint35_linear" x1="1852.25" y1="387.5" x2="1852.25" y2="481.3" gradientUnits="userSpaceOnUse">
<stop stop-color="#FFF8EE"/>
<stop offset="1" stop-color="#FFF8EE" stop-opacity="0"/>
</linearGradient>
<linearGradient id="paint36_linear" x1="1784.65" y1="379.5" x2="1784.65" y2="481.5" gradientUnits="userSpaceOnUse">
<stop stop-color="#FFF8EE"/>
<stop offset="1" stop-color="#FFF8EE" stop-opacity="0"/>
</linearGradient>
<linearGradient id="paint37_linear" x1="1830.95" y1="377.6" x2="1830.95" y2="493.3" gradientUnits="userSpaceOnUse">
<stop stop-color="#FFF8EE"/>
<stop offset="1" stop-color="#FFF8EE" stop-opacity="0"/>
</linearGradient>
<linearGradient id="paint38_linear" x1="1852.45" y1="481.951" x2="1852.45" y2="492.5" gradientUnits="userSpaceOnUse">
<stop stop-color="#FFF8EE"/>
<stop offset="1" stop-color="#FFF8EE" stop-opacity="0"/>
</linearGradient>
<linearGradient id="paint39_linear" x1="1932.1" y1="402.9" x2="1932.1" y2="491" gradientUnits="userSpaceOnUse">
<stop stop-color="#FFF8EE"/>
<stop offset="1" stop-color="#FFF8EE" stop-opacity="0"/>
</linearGradient>
<linearGradient id="paint40_linear" x1="1945.75" y1="389.5" x2="1945.75" y2="499.6" gradientUnits="userSpaceOnUse">
<stop stop-color="#FFF8EE"/>
<stop offset="1" stop-color="#FFF8EE" stop-opacity="0"/>
</linearGradient>
<linearGradient id="paint41_linear" x1="1946.55" y1="492.175" x2="1946.55" y2="502.1" gradientUnits="userSpaceOnUse">
<stop stop-color="#FFF8EE"/>
<stop offset="1" stop-color="#FFF8EE" stop-opacity="0"/>
</linearGradient>
<linearGradient id="paint42_linear" x1="1866.05" y1="494.3" x2="1866.05" y2="549" gradientUnits="userSpaceOnUse">
<stop stop-color="#FFF8EE"/>
<stop offset="1" stop-color="#FFF8EE" stop-opacity="0"/>
</linearGradient>
<linearGradient id="paint43_linear" x1="1821" y1="483.1" x2="1821" y2="547.5" gradientUnits="userSpaceOnUse">
<stop stop-color="#FFF8EE"/>
<stop offset="1" stop-color="#FFF8EE" stop-opacity="0"/>
</linearGradient>
<linearGradient id="paint44_linear" x1="1833.65" y1="551.8" x2="1833.65" y2="627.7" gradientUnits="userSpaceOnUse">
<stop stop-color="#FFF8EE"/>
<stop offset="1" stop-color="#FFF8EE" stop-opacity="0"/>
</linearGradient>
<linearGradient id="paint45_linear" x1="1864.75" y1="550.6" x2="1864.75" y2="627.6" gradientUnits="userSpaceOnUse">
<stop stop-color="#FFF8EE"/>
<stop offset="1" stop-color="#FFF8EE" stop-opacity="0"/>
</linearGradient>
<linearGradient id="paint46_linear" x1="1881.5" y1="549.6" x2="1881.5" y2="612.7" gradientUnits="userSpaceOnUse">
<stop stop-color="#FFF8EE"/>
<stop offset="1" stop-color="#FFF8EE" stop-opacity="0"/>
</linearGradient>
<linearGradient id="paint47_linear" x1="1913.95" y1="502.4" x2="1913.95" y2="548.1" gradientUnits="userSpaceOnUse">
<stop stop-color="#FFF8EE"/>
<stop offset="1" stop-color="#FFF8EE" stop-opacity="0"/>
</linearGradient>
<linearGradient id="paint48_linear" x1="1911.95" y1="492.6" x2="1911.95" y2="611.5" gradientUnits="userSpaceOnUse">
<stop stop-color="#FFF8EE"/>
<stop offset="1" stop-color="#FFF8EE" stop-opacity="0"/>
</linearGradient>
<linearGradient id="paint49_linear" x1="1905.01" y1="55.9756" x2="1905.01" y2="66.6113" gradientUnits="userSpaceOnUse">
<stop stop-color="#FFF8EE"/>
<stop offset="1" stop-color="#FFF8EE" stop-opacity="0"/>
</linearGradient>
<linearGradient id="paint50_linear" x1="1774.71" y1="30.2593" x2="1774.71" y2="40.9113" gradientUnits="userSpaceOnUse">
<stop stop-color="#FFF8EE"/>
<stop offset="1" stop-color="#FFF8EE" stop-opacity="0"/>
</linearGradient>
<linearGradient id="paint51_linear" x1="1877.71" y1="166.875" x2="1877.71" y2="177.511" gradientUnits="userSpaceOnUse">
<stop stop-color="#FFF8EE"/>
<stop offset="1" stop-color="#FFF8EE" stop-opacity="0"/>
</linearGradient>
<linearGradient id="paint52_linear" x1="1803.11" y1="177.259" x2="1803.11" y2="187.911" gradientUnits="userSpaceOnUse">
<stop stop-color="#FFF8EE"/>
<stop offset="1" stop-color="#FFF8EE" stop-opacity="0"/>
</linearGradient>
<linearGradient id="paint53_linear" x1="1918.01" y1="318.076" x2="1918.01" y2="328.711" gradientUnits="userSpaceOnUse">
<stop stop-color="#FFF8EE"/>
<stop offset="1" stop-color="#FFF8EE" stop-opacity="0"/>
</linearGradient>
<linearGradient id="paint54_linear" x1="1832.81" y1="335.259" x2="1832.81" y2="345.911" gradientUnits="userSpaceOnUse">
<stop stop-color="#FFF8EE"/>
<stop offset="1" stop-color="#FFF8EE" stop-opacity="0"/>
</linearGradient>
<linearGradient id="paint55_linear" x1="1764.11" y1="372.176" x2="1764.11" y2="382.811" gradientUnits="userSpaceOnUse">
<stop stop-color="#FFF8EE"/>
<stop offset="1" stop-color="#FFF8EE" stop-opacity="0"/>
</linearGradient>
<linearGradient id="paint56_linear" x1="1899.41" y1="381.759" x2="1899.41" y2="392.411" gradientUnits="userSpaceOnUse">
<stop stop-color="#FFF8EE"/>
<stop offset="1" stop-color="#FFF8EE" stop-opacity="0"/>
</linearGradient>
<linearGradient id="paint57_linear" x1="1897.81" y1="486.476" x2="1897.81" y2="497.111" gradientUnits="userSpaceOnUse">
<stop stop-color="#FFF8EE"/>
<stop offset="1" stop-color="#FFF8EE" stop-opacity="0"/>
</linearGradient>
<linearGradient id="paint58_linear" x1="1806.11" y1="477.776" x2="1806.11" y2="488.411" gradientUnits="userSpaceOnUse">
<stop stop-color="#FFF8EE"/>
<stop offset="1" stop-color="#FFF8EE" stop-opacity="0"/>
</linearGradient>
<linearGradient id="paint59_linear" x1="1836.51" y1="545.259" x2="1836.51" y2="555.911" gradientUnits="userSpaceOnUse">
<stop stop-color="#FFF8EE"/>
<stop offset="1" stop-color="#FFF8EE" stop-opacity="0"/>
</linearGradient>
<linearGradient id="paint60_linear" x1="1706.21" y1="28.6755" x2="1706.21" y2="39.3112" gradientUnits="userSpaceOnUse">
<stop stop-color="#FFF8EE"/>
<stop offset="1" stop-color="#FFF8EE" stop-opacity="0"/>
</linearGradient>
<linearGradient id="paint61_linear" x1="419.321" y1="585.426" x2="393.556" y2="566.787" gradientUnits="userSpaceOnUse">
<stop stop-color="#FFF8EE"/>
<stop offset="1" stop-color="#FFF8EE" stop-opacity="0"/>
</linearGradient>
<linearGradient id="paint62_linear" x1="405.821" y1="546.655" x2="404.98" y2="546.047" gradientUnits="userSpaceOnUse">
<stop stop-color="#FFF8EE"/>
<stop offset="1" stop-color="#FFF8EE" stop-opacity="0"/>
</linearGradient>
<linearGradient id="paint63_linear" x1="450.919" y1="551.817" x2="421.911" y2="530.832" gradientUnits="userSpaceOnUse">
<stop stop-color="#FFF8EE"/>
<stop offset="1" stop-color="#FFF8EE" stop-opacity="0"/>
</linearGradient>
<linearGradient id="paint64_linear" x1="455.763" y1="536.073" x2="430.403" y2="517.727" gradientUnits="userSpaceOnUse">
<stop stop-color="#FFF8EE"/>
<stop offset="1" stop-color="#FFF8EE" stop-opacity="0"/>
</linearGradient>
<linearGradient id="paint65_linear" x1="315.437" y1="620.862" x2="220.397" y2="552.111" gradientUnits="userSpaceOnUse">
<stop stop-color="#FFF8EE"/>
<stop offset="1" stop-color="#FFF8EE" stop-opacity="0"/>
</linearGradient>
<linearGradient id="paint66_linear" x1="374.595" y1="584.297" x2="258.489" y2="500.306" gradientUnits="userSpaceOnUse">
<stop stop-color="#FFF8EE"/>
<stop offset="1" stop-color="#FFF8EE" stop-opacity="0"/>
</linearGradient>
<linearGradient id="paint67_linear" x1="340.098" y1="633.519" x2="264.909" y2="579.127" gradientUnits="userSpaceOnUse">
<stop stop-color="#FFF8EE"/>
<stop offset="1" stop-color="#FFF8EE" stop-opacity="0"/>
</linearGradient>
<linearGradient id="paint68_linear" x1="254.863" y1="589.262" x2="214.675" y2="560.19" gradientUnits="userSpaceOnUse">
<stop stop-color="#FFF8EE"/>
<stop offset="1" stop-color="#FFF8EE" stop-opacity="0"/>
</linearGradient>
<linearGradient id="paint69_linear" x1="235.802" y1="547.024" x2="228.429" y2="541.691" gradientUnits="userSpaceOnUse">
<stop stop-color="#FFF8EE"/>
<stop offset="1" stop-color="#FFF8EE" stop-opacity="0"/>
</linearGradient>
<linearGradient id="paint70_linear" x1="225.3" y1="557.447" x2="92.1796" y2="461.148" gradientUnits="userSpaceOnUse">
<stop stop-color="#FFF8EE"/>
<stop offset="1" stop-color="#FFF8EE" stop-opacity="0"/>
</linearGradient>
<linearGradient id="paint71_linear" x1="199.606" y1="592.795" x2="81.3126" y2="507.222" gradientUnits="userSpaceOnUse">
<stop stop-color="#FFF8EE"/>
<stop offset="1" stop-color="#FFF8EE" stop-opacity="0"/>
</linearGradient>
<linearGradient id="paint72_linear" x1="162.607" y1="601.457" x2="63.3547" y2="529.657" gradientUnits="userSpaceOnUse">
<stop stop-color="#FFF8EE"/>
<stop offset="1" stop-color="#FFF8EE" stop-opacity="0"/>
</linearGradient>
<linearGradient id="paint73_linear" x1="129.893" y1="648.385" x2="32.0992" y2="577.641" gradientUnits="userSpaceOnUse">
<stop stop-color="#FFF8EE"/>
<stop offset="1" stop-color="#FFF8EE" stop-opacity="0"/>
</linearGradient>
<linearGradient id="paint74_linear" x1="102.612" y1="622.972" x2="32.203" y2="572.038" gradientUnits="userSpaceOnUse">
<stop stop-color="#FFF8EE"/>
<stop offset="1" stop-color="#FFF8EE" stop-opacity="0"/>
</linearGradient>
<linearGradient id="paint75_linear" x1="72.3138" y1="513.178" x2="21.2695" y2="476.253" gradientUnits="userSpaceOnUse">
<stop stop-color="#FFF8EE"/>
<stop offset="1" stop-color="#FFF8EE" stop-opacity="0"/>
</linearGradient>
<linearGradient id="paint76_linear" x1="82.5329" y1="469.535" x2="46.964" y2="443.805" gradientUnits="userSpaceOnUse">
<stop stop-color="#FFF8EE"/>
<stop offset="1" stop-color="#FFF8EE" stop-opacity="0"/>
</linearGradient>
<linearGradient id="paint77_linear" x1="53.9716" y1="539.898" x2="-10.6034" y2="493.185" gradientUnits="userSpaceOnUse">
<stop stop-color="#FFF8EE"/>
<stop offset="1" stop-color="#FFF8EE" stop-opacity="0"/>
</linearGradient>
<linearGradient id="paint78_linear" x1="40.5359" y1="564.614" x2="-14.6405" y2="524.699" gradientUnits="userSpaceOnUse">
<stop stop-color="#FFF8EE"/>
<stop offset="1" stop-color="#FFF8EE" stop-opacity="0"/>
</linearGradient>
<linearGradient id="paint79_linear" x1="35.4036" y1="572.626" x2="32.2944" y2="570.377" gradientUnits="userSpaceOnUse">
<stop stop-color="#FFF8EE"/>
<stop offset="1" stop-color="#FFF8EE" stop-opacity="0"/>
</linearGradient>
<linearGradient id="paint80_linear" x1="111.599" y1="459.213" x2="69.1433" y2="428.5" gradientUnits="userSpaceOnUse">
<stop stop-color="#FFF8EE"/>
<stop offset="1" stop-color="#FFF8EE" stop-opacity="0"/>
</linearGradient>
<linearGradient id="paint81_linear" x1="125.735" y1="414.762" x2="95.5946" y2="392.959" gradientUnits="userSpaceOnUse">
<stop stop-color="#FFF8EE"/>
<stop offset="1" stop-color="#FFF8EE" stop-opacity="0"/>
</linearGradient>
<linearGradient id="paint82_linear" x1="93.1245" y1="488.676" x2="78.8645" y2="478.36" gradientUnits="userSpaceOnUse">
<stop stop-color="#FFF8EE"/>
<stop offset="1" stop-color="#FFF8EE" stop-opacity="0"/>
</linearGradient>
<linearGradient id="paint83_linear" x1="74.8169" y1="421.681" x2="65.5835" y2="415.002" gradientUnits="userSpaceOnUse">
<stop stop-color="#FFF8EE"/>
<stop offset="1" stop-color="#FFF8EE" stop-opacity="0"/>
</linearGradient>
<linearGradient id="paint84_linear" x1="6.53219" y1="495.09" x2="-6.2694" y2="485.829" gradientUnits="userSpaceOnUse">
<stop stop-color="#FFF8EE"/>
<stop offset="1" stop-color="#FFF8EE" stop-opacity="0"/>
</linearGradient>
<linearGradient id="paint85_linear" x1="26.0179" y1="467.3" x2="-56.3821" y2="407.692" gradientUnits="userSpaceOnUse">
<stop stop-color="#FFF8EE"/>
<stop offset="1" stop-color="#FFF8EE" stop-opacity="0"/>
</linearGradient>
<linearGradient id="paint86_linear" x1="53.9458" y1="431.083" x2="-22.0535" y2="376.105" gradientUnits="userSpaceOnUse">
<stop stop-color="#FFF8EE"/>
<stop offset="1" stop-color="#FFF8EE" stop-opacity="0"/>
</linearGradient>
<linearGradient id="paint87_linear" x1="100.049" y1="381" x2="17.406" y2="321.216" gradientUnits="userSpaceOnUse">
<stop stop-color="#FFF8EE"/>
<stop offset="1" stop-color="#FFF8EE" stop-opacity="0"/>
</linearGradient>
<linearGradient id="paint88_linear" x1="74.451" y1="419.627" x2="-19.2921" y2="351.814" gradientUnits="userSpaceOnUse">
<stop stop-color="#FFF8EE"/>
<stop offset="1" stop-color="#FFF8EE" stop-opacity="0"/>
</linearGradient>
<linearGradient id="paint89_linear" x1="-22.6981" y1="375.885" x2="-31.2452" y2="369.702" gradientUnits="userSpaceOnUse">
<stop stop-color="#FFF8EE"/>
<stop offset="1" stop-color="#FFF8EE" stop-opacity="0"/>
</linearGradient>
<linearGradient id="paint90_linear" x1="-5.33305" y1="486.753" x2="-76.714" y2="435.116" gradientUnits="userSpaceOnUse">
<stop stop-color="#FFF8EE"/>
<stop offset="1" stop-color="#FFF8EE" stop-opacity="0"/>
</linearGradient>
<linearGradient id="paint91_linear" x1="-2.47669" y1="505.666" x2="-91.6826" y2="441.135" gradientUnits="userSpaceOnUse">
<stop stop-color="#FFF8EE"/>
<stop offset="1" stop-color="#FFF8EE" stop-opacity="0"/>
</linearGradient>
<linearGradient id="paint92_linear" x1="22.2235" y1="591.293" x2="-46.0786" y2="541.884" gradientUnits="userSpaceOnUse">
<stop stop-color="#FFF8EE"/>
<stop offset="1" stop-color="#FFF8EE" stop-opacity="0"/>
</linearGradient>
<linearGradient id="paint93_linear" x1="14.826" y1="599.642" x2="-132.473" y2="493.086" gradientUnits="userSpaceOnUse">
<stop stop-color="#FFF8EE"/>
<stop offset="1" stop-color="#FFF8EE" stop-opacity="0"/>
</linearGradient>
<linearGradient id="paint94_linear" x1="-5.19605" y1="349.73" x2="-57.3746" y2="311.984" gradientUnits="userSpaceOnUse">
<stop stop-color="#FFF8EE"/>
<stop offset="1" stop-color="#FFF8EE" stop-opacity="0"/>
</linearGradient>
<linearGradient id="paint95_linear" x1="253.092" y1="514.491" x2="244.461" y2="508.248" gradientUnits="userSpaceOnUse">
<stop stop-color="#FFF8EE"/>
<stop offset="1" stop-color="#FFF8EE" stop-opacity="0"/>
</linearGradient>
<linearGradient id="paint96_linear" x1="71.6539" y1="525.051" x2="63.0366" y2="518.818" gradientUnits="userSpaceOnUse">
<stop stop-color="#FFF8EE"/>
<stop offset="1" stop-color="#FFF8EE" stop-opacity="0"/>
</linearGradient>
<linearGradient id="paint97_linear" x1="107.669" y1="445.948" x2="99.0381" y2="439.705" gradientUnits="userSpaceOnUse">
<stop stop-color="#FFF8EE"/>
<stop offset="1" stop-color="#FFF8EE" stop-opacity="0"/>
</linearGradient>
<linearGradient id="paint98_linear" x1="118.024" y1="368.649" x2="109.407" y2="362.415" gradientUnits="userSpaceOnUse">
<stop stop-color="#FFF8EE"/>
<stop offset="1" stop-color="#FFF8EE" stop-opacity="0"/>
</linearGradient>
<linearGradient id="paint99_linear" x1="30.9577" y1="472.655" x2="22.3272" y2="466.412" gradientUnits="userSpaceOnUse">
<stop stop-color="#FFF8EE"/>
<stop offset="1" stop-color="#FFF8EE" stop-opacity="0"/>
</linearGradient>
<linearGradient id="paint100_linear" x1="7.84475" y1="340.788" x2="-0.772567" y2="334.554" gradientUnits="userSpaceOnUse">
<stop stop-color="#FFF8EE"/>
<stop offset="1" stop-color="#FFF8EE" stop-opacity="0"/>
</linearGradient>
<linearGradient id="paint101_linear" x1="430.273" y1="523.067" x2="421.656" y2="516.834" gradientUnits="userSpaceOnUse">
<stop stop-color="#FFF8EE"/>
<stop offset="1" stop-color="#FFF8EE" stop-opacity="0"/>
</linearGradient>
<clipPath id="clip0">
<rect width="225" height="560" fill="white" transform="matrix(-1 0 0 1 1920 0)"/>
</clipPath>
<clipPath id="clip1">
<rect width="460" height="240" fill="white" transform="translate(0 320)"/>
</clipPath>
<clipPath id="clip2">
<rect width="351.093" height="635.1" fill="white" transform="matrix(0.586117 -0.810226 -0.810226 -0.586117 252.59 817.615)"/>
</clipPath>
</defs>
</svg>
