<svg width="1920" height="560" viewBox="0 0 1920 560" fill="none" xmlns="http://www.w3.org/2000/svg">
<rect y="0.000244141" width="1920" height="560" fill="black"/>
<g opacity="0.5" clip-path="url(#clip0)">
<path d="M704.3 364.1C704.7 380 704.8 396 704.9 411.9C705 427.8 704.7 443.8 704.8 459.7L704.9 483.6C704.9 491.6 704.9 499.5 704.8 507.5C704.6 515.5 704.4 523.4 704 531.4C703.6 539.4 703.1 547.3 702.4 555.3L702.2 554.9C708.1 560.1 713.7 565.7 719.2 571.3L735.5 588.3L735.4 588.4C732.6 585.7 729.8 582.9 727 580.1L718.7 571.7C713.1 566.1 707.5 560.7 701.5 555.6L701.3 555.4V555.1C702 547.2 702.5 539.2 702.9 531.3C703.3 523.4 703.6 515.4 703.8 507.4C704.3 491.5 704.5 475.5 704.4 459.6C704.4 443.7 703.9 427.7 703.9 411.8C703.9 395.9 703.9 379.9 704.1 364L704.3 364.1Z" fill="url(#paint0_linear)"/>
<path d="M703.3 539.9C705.9 543.1 708.7 546 711.6 548.8C714.5 551.6 717.8 554.1 720.9 556.7C724 559.3 727 562.2 729.8 565.2C732.6 568.2 735.3 571.3 737.8 574.5L737.9 574.6V574.7C737.5 584.9 737.2 595.2 737.3 605.4C737.4 610.5 737.5 615.6 737.7 620.8C737.8 623.3 738 625.9 738.1 628.5C738.2 631.1 738.2 633.6 738.2 636.2C738.2 641.3 738.3 646.5 738.1 651.6C738.1 652.9 738 654.2 737.9 655.5C737.8 656.8 737.8 658 737.7 659.3L737.6 667C737.5 677.2 737.5 687.5 737.2 697.7H737.1C736.8 687.5 736.8 677.2 736.7 667C736.7 664.4 736.6 661.9 736.7 659.3C736.7 658 736.8 656.7 736.9 655.4C737 654.1 737 652.9 737.1 651.6C737.2 646.5 737.3 641.4 737.3 636.2C737.3 633.6 737.3 631.1 737.2 628.5C737.2 625.9 737 623.4 736.9 620.8C736.7 615.7 736.7 610.5 736.8 605.4L737.1 574.7L737.2 574.9C734.6 571.8 731.9 568.7 729.1 565.8C726.3 562.9 723.4 560 720.4 557.3L715.7 553.4C714.1 552.1 712.6 550.7 711.2 549.2C708.3 546.4 705.7 543.3 703.3 539.9Z" fill="url(#paint1_linear)"/>
<path d="M723.3 416.5C724.3 422.1 724.3 427.9 724.2 433.5C724.1 439.2 724 444.9 723.8 450.5C723.6 456.2 723.6 461.9 723.7 467.5C723.8 473.2 724.1 478.9 724.4 484.5L724.3 484.2C726.9 487.1 729.9 489.6 732.9 492.1C735.9 494.6 738.9 497.1 741.7 499.8C744.5 502.5 747.3 505.3 750 508C752.8 510.8 755.5 513.5 758.2 516.4L758.1 516.5C755.2 513.9 752.3 511.2 749.5 508.6L741 500.6C738.2 497.9 735.2 495.5 732.2 492.9C729.2 490.4 726.3 487.8 723.7 484.8L723.6 484.7V484.5C723.5 478.8 723.5 473.1 723.5 467.4C723.5 461.7 723.4 456 723.3 450.3C723.2 444.6 723.3 438.9 723.6 433.2C723.7 430.4 723.8 427.5 723.8 424.7C723.6 422.2 723.5 419.4 723.3 416.5Z" fill="url(#paint2_linear)"/>
<path d="M724.5 472.7C727 475.7 729.9 478.1 732.8 480.7C734.2 482 735.6 483.4 736.9 484.8C738.3 486.2 739.5 487.7 740.9 489C743.7 491.7 746.7 494.1 749.6 496.5C752.5 499 755.4 501.6 757.8 504.8L757.7 504.9C754.9 502.2 751.9 499.8 748.9 497.4C745.9 494.9 743 492.4 740.4 489.4C739.1 487.9 738 486.4 736.6 485C735.2 483.7 733.7 482.5 732.2 481.3C729.3 478.9 726.4 476.2 724.5 472.7Z" fill="url(#paint3_linear)"/>
<path d="M758 504.9C757.8 515.2 758.9 525.5 759 535.8C759.1 541 758.5 546.1 758.3 551.3C758.2 552.6 758.2 553.9 758.1 555.2V559.1C758.1 561.7 758.1 564.3 758.2 566.8C758.4 577.1 758.6 587.4 758.6 597.8C758.6 608.1 758.5 618.4 758.3 628.8H758.2C757.8 618.5 757.6 608.2 757.6 597.8C757.5 587.5 757.6 577.2 757.7 566.8L757.8 559.1V555.2L757.9 551.3C758.1 546.1 758.3 541 758.1 535.8C757.9 525.5 757.1 515.2 758 504.9Z" fill="url(#paint4_linear)"/>
<path d="M724.2 514.1C727.7 515.5 730.3 518.4 732.7 521.2C735.1 524 737.6 526.7 740.2 529.3C745.5 534.4 751.2 539.1 756.8 544C759.6 546.5 762.3 548.9 764.9 551.6C767.5 554.3 770.1 556.9 772.6 559.6C777.6 565 782.6 570.5 787.6 576L787.7 576.1V576.3C787.9 580.5 788 584.8 788.1 589C788.1 593.2 788.2 597.5 788.1 601.7C788 605.9 788 610.2 787.9 614.4C787.8 618.6 787.6 622.9 787.5 627.1H787.4C787.3 622.9 787.3 618.6 787.3 614.4L787.2 601.7L787 589C786.9 584.8 786.9 580.6 786.7 576.3L786.8 576.6C781.9 571.1 777.1 565.5 772.2 559.9C771 558.5 769.7 557.2 768.5 555.8C767.2 554.5 766 553.1 764.7 551.8C762.1 549.2 759.3 546.8 756.4 544.4C750.7 539.7 744.8 535.1 739.6 529.9C737 527.3 734.5 524.5 732.2 521.6C729.9 518.8 727.5 515.8 724.2 514.1Z" fill="url(#paint5_linear)"/>
<path d="M682.1 414.7C682.3 419.6 682.5 424.4 682.6 429.3C682.7 434.2 682.9 439 683 443.9C683.1 448.8 683.2 453.6 683.3 458.5C683.4 463.4 683.4 468.2 683.4 473.1V473.3L683.3 473.4C680.2 475.7 677.1 478.2 674.3 480.9C671.5 483.6 669.2 486.8 666.5 489.6C663.8 492.5 660.8 495 657.7 497.4L648.5 504.7L648.6 504.4C649.1 513.6 649.4 522.8 649.3 532C649.3 536.6 649.2 541.2 649 545.8C648.9 550.4 649.3 555 649.3 559.6V559.9L649.1 560C646.3 561.7 644.2 564.2 642 566.7C639.9 569.2 637.6 571.7 635.3 574.1C633 576.5 630.6 578.8 628 580.9C625.5 583.1 622.9 585.1 620.2 587.1L620.1 587C622.7 584.9 625.2 582.8 627.6 580.5C630 578.3 632.4 576 634.7 573.6C637 571.2 639.2 568.7 641.3 566.2C643.4 563.7 645.6 561 648.5 559.2L648.3 559.6C648.3 555 647.8 550.4 647.9 545.8C648 541.2 648.2 536.6 648.2 532C648.3 522.8 648.2 513.6 647.9 504.4V504.2L648 504.1L657.3 496.9C660.4 494.5 663.4 492 666.1 489.2C668.8 486.4 671 483.1 673.8 480.4C676.6 477.6 679.6 475.1 682.7 472.7L682.6 473C682.5 468.1 682.3 463.3 682.2 458.4C682.1 453.5 682.1 448.7 682 443.8C681.9 438.9 681.9 434.1 681.9 429.2C681.9 424.3 681.9 419.5 681.9 414.6L682.1 414.7Z" fill="url(#paint6_linear)"/>
<path d="M648.8 547.5C643.7 552.1 638.8 556.7 633.9 561.4C631.5 563.8 629.1 566.2 626.7 568.6C624.3 571 621.9 573.4 619.6 575.9L619.7 575.7L620.3 600C620.5 608.1 620.6 616.2 620.5 624.3C620.4 632.4 620.2 640.5 619.9 648.6C619.8 650.6 619.7 652.7 619.7 654.6C619.7 655.6 619.7 656.6 619.9 657.6C620 658.6 620.3 659.6 620.5 660.5C621.5 664.5 621.6 668.6 620.7 672.6H620.6C621.2 668.6 620.9 664.5 619.9 660.6C619.6 659.6 619.4 658.6 619.2 657.6C619 656.6 619 655.5 618.9 654.5C618.9 652.5 619 650.4 619 648.4L619.6 624.1C619.8 616 619.9 607.9 620 599.8C620 591.7 619.8 583.6 619.2 575.5V575.4L619.3 575.3C621.6 572.8 623.9 570.3 626.3 567.8C628.7 565.3 631.1 563 633.6 560.6C638.3 556.1 643.4 551.7 648.8 547.5Z" fill="url(#paint7_linear)"/>
<path d="M649.4 559.7C649.3 570.8 649 582 648.7 593.1C648.5 598.7 648.3 604.2 648.3 609.8C648.2 615.4 648.3 620.9 648.4 626.5L649.2 659.9C649.4 671 649.6 682.2 649.6 693.3H649.5C648.9 682.2 648.4 671 648.2 659.9C647.9 648.8 647.7 637.6 647.8 626.5C647.9 620.9 647.9 615.4 647.9 609.8V593.1C648 582 648.5 570.8 649.3 559.7H649.4Z" fill="url(#paint8_linear)"/>
<path d="M533.5 540.7C533.8 550.2 533.9 559.7 534 569.2C534.1 578.7 534 588.2 533.8 597.7C533.7 607.2 533.9 616.7 534 626.2L534.1 633.3V634.2C534.1 634.4 534.2 634.7 534.3 634.9C534.4 635 534.4 635.1 534.5 635.2C534.6 635.3 534.6 635.3 534.8 635.4L535.5 636L538.3 638.3L541 640.6C541.9 641.3 542.9 642 543.8 642.7C544.7 643.3 545.8 643.9 546.8 644.7C547.8 645.5 548.6 646.4 549.3 647.5L549.4 647.6V647.8C549.2 651.9 549.1 656.1 549 660.2C549 664.3 549 668.5 549.1 672.6C549.2 676.7 549.3 680.9 549.5 685L550 697.4H549.9C549.6 693.3 549.2 689.1 549 685C548.7 680.9 548.5 676.7 548.4 672.6C548.2 668.5 548.1 664.3 548.1 660.2C548.1 656.1 548.2 651.9 548.4 647.8L548.5 648.1C547.9 647.1 547.1 646.3 546.3 645.6C545.4 644.9 544.4 644.4 543.4 643.7C542.5 643 541.5 642.2 540.6 641.5L537.9 639.2L535.2 636.9L534.5 636.3C534.4 636.2 534.2 636.1 534.1 635.9C534 635.8 533.9 635.6 533.8 635.4C533.7 635.1 533.6 634.8 533.5 634.4C533.5 634.1 533.5 633.8 533.5 633.5L533.6 626.4C533.7 616.9 533.8 607.4 533.6 597.9C533.4 588.4 533.2 578.9 533.3 569.4C533.3 559.9 533.4 550.4 533.6 540.9L533.5 540.7Z" fill="url(#paint9_linear)"/>
<path d="M530.1 539.8C527.9 541.8 525.7 543.8 523.6 546C521.5 548.1 519.5 550.3 517.5 552.6L511.6 559.4C509.6 561.6 507.6 563.9 505.2 565.8L505.3 565.6C505.4 568.9 505.4 572.2 505.4 575.5C505.4 578.8 505.4 582.1 505.4 585.4L505.3 590.4L505.2 595.4C505.1 598.7 505 602 504.8 605.3H504.7C504.6 602 504.5 598.7 504.4 595.4V590.4V585.4C504.4 582.1 504.5 578.8 504.6 575.5C504.7 572.2 504.8 568.9 504.9 565.6V565.5L505 565.4C507.4 563.6 509.5 561.4 511.4 559.1C513.3 556.8 515 554.3 517 552C518.9 549.7 521 547.5 523.2 545.5C525.3 543.4 527.6 541.5 530.1 539.8Z" fill="url(#paint10_linear)"/>
<path d="M533.4 549.1C530.8 551.1 528.3 553.2 526 555.4C524.8 556.5 523.6 557.6 522.5 558.8C521.4 560 520.4 561.3 519.3 562.6C517.3 565.2 515 567.6 512.6 569.9C510.2 572.1 507.6 574.2 504.9 576L504.8 575.9L511.8 569.1C514.2 566.9 516.5 564.6 518.8 562.2C519.9 561 521.1 559.8 522.1 558.6C523.2 557.4 524.2 556 525.3 554.8C527.7 552.5 530.4 550.5 533.4 549.1Z" fill="url(#paint11_linear)"/>
<path d="M703.7 481.8C700.7 484.4 697.7 487.1 694.9 489.9C692 492.7 689.3 495.6 686.7 498.6C684 501.6 681.5 504.7 678.7 507.5C675.8 510.3 672.8 512.9 669.8 515.5L669.9 515.4L670.1 532.9C670.1 538.7 670.1 544.5 670 550.4C669.9 556.2 669.8 562 669.7 567.9C669.6 573.7 669.4 579.5 669.3 585.4H669.2C669 579.6 668.9 573.8 668.9 567.9C668.9 562.1 668.9 556.3 669 550.4L669.3 532.9C669.4 527.1 669.6 521.3 669.6 515.4V515.3H669.7C672.7 512.7 675.7 510 678.4 507.1C679.8 505.7 681 504.1 682.3 502.6L686.2 498C688.9 495 691.7 492.1 694.6 489.4C697.3 486.7 700.4 484.1 703.7 481.8Z" fill="url(#paint12_linear)"/>
<path d="M686 527.8C686.4 531.6 686.6 535.4 686.7 539.3C686.8 541.2 686.8 543.1 686.8 545L686.7 550.7C686.6 554.5 686.7 558.3 686.8 562.2C686.9 566 686.9 569.9 686.8 573.7L686.7 573.4C687.9 574.8 689.1 576.3 690.2 577.7L692 579.9C692.6 580.6 693.2 581.3 693.8 582C696.2 584.8 698.6 587.6 701 590.5L700.9 590.6C698.3 588 695.7 585.3 693.1 582.6C691.8 581.3 690.6 579.8 689.4 578.4C688.2 577 687 575.5 685.9 574.1L685.8 573.9V573.7C685.9 569.9 686 566.1 686.2 562.2C686.4 558.4 686.4 554.6 686.3 550.7L686 545C686 543.1 685.9 541.2 685.9 539.3C685.9 535.5 685.8 531.7 685.9 527.8H686Z" fill="url(#paint13_linear)"/>
<path d="M657.7 546.3C657.4 551.3 653.2 554.9 648.8 555.2C644.3 555.6 640.5 551.5 639.9 546.3C640 542.1 643.1 536.6 648.8 537.4C654.5 537.7 658.5 541.5 657.7 546.3Z" fill="url(#paint14_linear)"/>
<path d="M692 408.4C691.7 413.4 687.5 417 683.1 417.3C678.6 417.7 674.8 413.6 674.2 408.4C674.3 404.2 677.4 398.7 683.1 399.5C688.8 399.8 692.8 403.7 692 408.4Z" fill="url(#paint15_linear)"/>
<path d="M733.4 408.4C733.1 413.4 728.9 417 724.5 417.3C720 417.7 716.2 413.6 715.6 408.4C715.7 404.2 718.8 398.7 724.5 399.5C730.2 399.8 734.2 403.7 733.4 408.4Z" fill="url(#paint16_linear)"/>
<path d="M713.6 356C713.3 361 709.1 364.6 704.7 364.9C700.2 365.3 696.4 361.2 695.8 356C695.9 351.8 699 346.3 704.7 347.1C710.3 347.4 714.4 351.3 713.6 356Z" fill="url(#paint17_linear)"/>
<path d="M767.5 546.3C767.2 551.3 763 554.9 758.6 555.2C754.1 555.6 750.3 551.5 749.7 546.3C749.8 542.1 752.9 536.6 758.6 537.4C764.2 537.7 768.3 541.5 767.5 546.3Z" fill="url(#paint18_linear)"/>
<path d="M542.4 535.8C542.1 540.8 537.9 544.4 533.5 544.7C529 545.1 525.2 541 524.6 535.8C524.7 531.6 527.8 526.1 533.5 526.9C539.1 527.2 543.1 531.1 542.4 535.8Z" fill="url(#paint19_linear)"/>
<path d="M727.5 514.2C727.3 516.6 725.3 518.3 723.2 518.5C721.1 518.7 719.2 516.8 718.9 514.2C718.9 512.2 720.4 509.6 723.2 509.9C726 510 727.9 511.9 727.5 514.2Z" fill="url(#paint20_linear)"/>
<path d="M690.6 524.2C690.4 526.6 688.4 528.3 686.3 528.5C684.2 528.7 682.3 526.8 682 524.2C682 522.2 683.5 519.6 686.3 519.9C689 520.1 691 522 690.6 524.2Z" fill="url(#paint21_linear)"/>
<path d="M707.9 481.8C707.7 484.2 705.7 485.9 703.6 486.1C701.5 486.3 699.6 484.4 699.3 481.8C699.3 479.8 700.8 477.2 703.6 477.5C706.4 477.7 708.3 479.5 707.9 481.8Z" fill="url(#paint22_linear)"/>
<path d="M687.4 447C687.2 449.4 685.2 451.1 683.1 451.3C681 451.5 679.1 449.6 678.8 447C678.8 445 680.3 442.4 683.1 442.7C685.8 442.9 687.7 444.7 687.4 447Z" fill="url(#paint23_linear)"/>
<path d="M708.9 408.4C708.7 410.8 706.7 412.5 704.6 412.7C702.5 412.9 700.6 411 700.3 408.4C700.3 406.4 701.8 403.8 704.6 404.1C707.4 404.3 709.3 406.1 708.9 408.4Z" fill="url(#paint24_linear)"/>
</g>
<g clip-path="url(#clip1)">
<g clip-path="url(#clip2)">
<path d="M1777.87 84.2235C1775.47 86.9085 1776.27 91.3827 1778.61 92.9609C1781.43 95.3492 1785.18 95.2471 1787.34 92.2274C1789.19 89.7306 1788.82 85.3619 1786.61 83.49C1784.04 80.7963 1780.03 81.2039 1777.87 84.2235Z" fill="url(#paint25_linear)"/>
<path d="M1828.16 181.19C1825.76 183.875 1826.56 188.349 1828.9 189.927C1831.72 192.316 1835.47 192.214 1837.63 189.194C1839.48 186.697 1839.11 182.328 1836.9 180.457C1834.33 177.763 1830.33 178.311 1828.16 181.19Z" fill="url(#paint26_linear)"/>
<path d="M1850.43 293.494C1848.03 296.179 1848.83 300.653 1851.17 302.232C1853.99 304.62 1857.74 304.518 1859.9 301.498C1861.75 299.001 1861.39 294.633 1859.17 292.761C1856.6 290.067 1852.6 290.616 1850.43 293.494Z" fill="url(#paint27_linear)"/>
<path d="M1738.06 304.843C1735.66 307.528 1736.46 312.002 1738.8 313.58C1741.62 315.968 1745.38 315.866 1747.53 312.847C1749.38 310.35 1749.02 305.981 1746.8 304.109C1744.23 301.416 1740.16 301.9 1738.06 304.843Z" fill="url(#paint28_linear)"/>
<path d="M1799.61 424.281C1797.21 426.966 1798.01 431.44 1800.34 433.019C1803.17 435.407 1806.92 435.305 1809.08 432.285C1810.93 429.788 1810.56 425.42 1808.34 423.548C1805.78 420.854 1801.78 421.403 1799.61 424.281Z" fill="url(#paint29_linear)"/>
<path d="M1731.79 518.319C1729.39 521.004 1730.19 525.478 1732.52 527.056C1735.35 529.445 1739.1 529.343 1741.26 526.323C1743.11 523.826 1742.74 519.457 1740.52 517.586C1737.96 514.892 1734.02 515.364 1731.79 518.319Z" fill="url(#paint30_linear)"/>
<path d="M1911.09 117.462C1904.64 122.616 1898.41 127.963 1892.35 133.44C1889.32 136.248 1886.29 139.057 1883.25 141.725C1880.14 144.469 1877.1 147.137 1873.92 149.817L1864.44 157.779C1861.26 160.459 1858.15 163.062 1855.04 165.806C1848.82 171.154 1842.61 176.642 1836.62 182.183L1836.7 182.248C1843.15 177.094 1849.52 171.876 1855.82 166.593C1862.11 161.31 1868.26 155.898 1874.32 150.28C1877.34 147.471 1880.45 144.727 1883.49 142.059C1886.59 139.315 1889.79 136.777 1892.97 134.097C1899.11 128.685 1905.25 123.132 1911.09 117.462Z" fill="url(#paint31_linear)"/>
<path d="M1831.48 184.388C1828.04 176.375 1824.26 168.461 1820.2 160.713C1818.1 156.844 1815.94 153.052 1813.91 149.248C1811.82 145.38 1809.79 141.576 1807.69 137.707C1805.6 133.839 1803.57 130.035 1801.41 126.242C1799.25 122.45 1797.15 118.582 1794.98 114.79C1794.48 113.839 1793.83 112.9 1793.4 112.013C1792.97 111.127 1792.6 110.023 1792.23 109.06C1791.35 107.005 1790.48 105.092 1789.6 103.037C1787.71 99.0801 1785.75 95.1998 1783.17 91.584L1783.11 91.6604C1785.34 95.3762 1787.17 99.4093 1788.92 103.378C1789.72 105.368 1790.61 107.423 1791.41 109.413C1791.78 110.376 1792.15 111.479 1792.59 112.507C1793.18 113.522 1793.68 114.473 1794.19 115.424C1798.45 123.085 1802.84 130.593 1807.23 138.101C1809.39 141.893 1811.56 145.685 1813.66 149.554C1815.75 153.422 1817.57 157.314 1819.53 161.195C1823.44 168.955 1827.36 176.716 1831.48 184.388Z" fill="url(#paint32_linear)"/>
<path d="M1989.37 182.701C1986.26 183.742 1982.88 184.026 1979.54 183.952C1976.27 183.942 1972.97 183.51 1969.62 183.294C1962.98 182.788 1956.27 183.138 1949.62 183.412C1942.97 183.686 1936.35 184.242 1929.7 184.517C1923.13 184.855 1916.41 185.065 1909.75 185.198C1896.43 185.465 1883.23 185.437 1869.9 184.782L1849.97 184.042C1843.36 183.817 1836.66 183.528 1830.05 183.444L1830.07 183.585C1836.71 184.092 1843.34 184.457 1849.97 184.823C1856.6 185.189 1863.24 185.696 1869.86 185.921C1883.12 186.653 1896.44 186.387 1909.73 185.838C1916.38 185.564 1923.01 185.149 1929.59 184.951C1936.24 184.677 1942.9 184.544 1949.48 184.346C1956.14 184.213 1962.78 183.798 1969.41 184.164C1972.68 184.314 1975.97 184.606 1979.38 184.604C1982.84 184.385 1986.21 183.96 1989.37 182.701Z" fill="url(#paint33_linear)"/>
<path d="M2044.1 264.961L1991.42 244.405C1982.63 241.028 1973.83 237.651 1965.09 234.198C1956.36 230.744 1947.68 227.073 1939 223.403C1934.66 221.567 1930.31 219.732 1925.84 218.049C1921.38 216.367 1916.93 214.966 1912.29 213.794C1907.71 212.546 1903.22 211.363 1898.69 209.898C1894.25 208.497 1889.79 206.955 1885.32 205.273C1876.52 201.896 1867.77 198.301 1858.92 195.141C1854.53 193.523 1850.07 191.982 1845.48 190.593C1840.97 189.268 1836.33 188.097 1831.72 187.207L1831.65 187.283C1836.28 188.314 1840.79 189.638 1845.24 191.039C1849.76 192.504 1854.15 194.123 1858.48 195.817C1867.28 199.194 1875.9 202.941 1884.76 206.242C1889.23 207.924 1893.62 209.543 1898.14 210.867C1902.66 212.332 1907.22 213.439 1911.86 214.611C1916.36 215.794 1920.87 217.119 1925.33 218.66C1929.79 220.202 1934.13 222.037 1938.53 223.796L1964.76 234.439L1990.92 245.157C2008.68 252.181 2026.27 258.794 2044.1 264.961Z" fill="url(#paint34_linear)"/>
<path d="M1832.54 185.151C1828.32 189.834 1824.19 194.722 1820.29 199.804C1818.3 202.313 1816.45 204.809 1814.54 207.383C1812.62 209.956 1810.93 212.582 1809.02 215.155L1798.34 230.881C1794.74 236.08 1791.05 241.215 1787.3 246.426C1779.79 256.707 1772.19 266.782 1764.45 276.869L1752.88 291.962L1741.22 306.99L1741.3 307.055C1745.44 302.308 1749.5 297.355 1753.41 292.414C1757.4 287.538 1761.38 282.52 1765.22 277.515C1772.96 267.428 1780.47 257.147 1787.68 246.748C1791.29 241.549 1794.9 236.35 1798.57 231.075C1802.18 225.876 1806.01 220.729 1809.69 215.595C1816.98 205.261 1824.57 195.045 1832.54 185.151Z" fill="url(#paint35_linear)"/>
<path d="M1741.82 309.069C1743.76 299.966 1745.62 290.939 1747.48 281.771C1749.27 272.68 1751.13 263.512 1752.78 254.433L1757.42 226.936C1759 217.792 1760.71 208.637 1762.43 199.481C1765.86 181.169 1769.22 162.934 1772.51 144.634C1774.16 135.555 1775.66 126.346 1777.23 117.202C1778.81 108.058 1780.38 98.9144 1781.88 89.7058L1781.74 89.7177C1779.95 98.8089 1778.23 107.965 1776.52 117.121C1774.8 126.276 1773.09 135.432 1771.44 144.512C1768.15 162.811 1765 181.099 1761.85 199.387C1760.28 208.531 1758.7 217.675 1757.07 226.896C1755.42 235.975 1753.56 245.143 1751.84 254.298C1748.4 272.469 1744.9 290.716 1741.82 309.069Z" fill="url(#paint36_linear)"/>
<path d="M1855.78 297.231C1846.23 297.537 1836.77 298.047 1827.32 298.84C1817.82 299.709 1808.39 300.643 1798.93 301.294C1789.41 302.022 1779.98 302.956 1770.57 304.03C1761.15 305.105 1751.68 306.396 1742.28 307.753L1742.29 307.894C1751.74 307.101 1761.23 306.091 1770.72 305.081L1784.92 303.464L1799.12 301.846C1803.9 301.303 1808.62 300.836 1813.34 300.51L1816.94 300.279L1820.48 300.124L1827.61 299.738C1836.85 299.034 1846.3 298.382 1855.78 297.231Z" fill="url(#paint37_linear)"/>
<path d="M1855.02 297.367C1855.39 292.581 1854.65 287.89 1853.69 283.286C1852.74 278.683 1851.64 274.092 1850.55 269.5C1849.45 264.909 1848.15 260.406 1847.06 255.814C1845.96 251.223 1844.87 246.632 1843.91 242.028C1841.93 232.757 1839.88 223.563 1837.77 214.444C1835.58 205.262 1833.32 196.155 1830.85 186.996L1830.71 187.008C1832.55 196.291 1834.6 205.485 1836.65 214.68C1838.7 223.875 1841.03 233.046 1843.28 242.152C1844.44 246.667 1845.62 251.323 1846.57 255.926C1847.66 260.518 1848.55 265.197 1849.57 269.724C1850.12 272.02 1850.6 274.392 1851.22 276.611C1851.76 278.907 1852.31 281.203 1852.86 283.498C1854.09 288.078 1854.91 292.693 1855.02 297.367Z" fill="url(#paint38_linear)"/>
<path d="M1855.38 298.33C1852.83 303.511 1850.37 308.756 1847.96 313.925C1846.77 316.58 1845.49 319.171 1844.36 321.749C1843.16 324.404 1842.26 327.176 1841.58 330.001L1840.51 334.206C1840.13 335.587 1839.75 336.967 1839.37 338.347C1838.61 341.107 1837.63 343.815 1836.51 346.535C1834.33 351.897 1831.79 357.078 1829.16 362.194C1826.54 367.311 1824 372.491 1821.82 377.854C1819.65 383.217 1817.76 388.697 1816.1 394.229C1812.7 405.23 1809.44 416.36 1803.77 426.487L1803.84 426.551C1806.91 421.681 1809.44 416.36 1811.48 411.009C1813.58 405.582 1815.32 400.114 1816.98 394.581C1818.72 389.113 1820.46 383.645 1822.56 378.218C1824.74 372.855 1827.14 367.686 1829.53 362.376C1832 357.131 1834.41 351.962 1836.72 346.587C1837.78 343.944 1838.9 341.225 1839.8 338.452C1840.26 337.137 1840.7 335.68 1841.09 334.3L1842.23 330.159C1843.68 324.574 1846.3 319.458 1848.55 314.16C1850.95 308.991 1853.21 303.693 1855.38 298.33Z" fill="url(#paint39_linear)"/>
<path d="M1803.7 429.969C1801.42 424.768 1799 419.578 1796.58 414.389C1794.15 409.199 1791.67 404.086 1789.04 398.984C1786.49 393.948 1783.86 388.846 1781.3 383.669C1780.02 381.15 1778.81 378.555 1777.6 375.961C1776.32 373.442 1775.11 370.847 1773.69 368.341C1771 363.316 1767.56 358.708 1764.39 353.936C1761.16 349.24 1758.61 344.203 1756.19 339.014C1751.55 328.547 1746.99 318.144 1742.14 307.765L1742.08 307.841C1744.15 313.131 1746.37 318.408 1748.59 323.686C1750.8 328.964 1752.94 334.177 1755.3 339.443C1756.51 342.038 1757.72 344.633 1759.14 347.139C1760.56 349.646 1762.04 352.076 1763.66 354.494C1766.89 359.19 1770.4 363.721 1773.29 368.658C1776.19 373.595 1778.68 378.708 1781.1 383.898C1783.59 389.011 1785.95 394.277 1788.43 399.39C1790.86 404.58 1793.41 409.616 1795.97 414.794C1798.52 419.831 1801.01 424.944 1803.7 429.969Z" fill="url(#paint40_linear)"/>
<path d="M1832.24 184.112C1829.55 204.49 1827.07 224.78 1824.88 245.187C1823.74 255.359 1822.75 265.518 1821.55 275.766C1820.42 285.937 1819.15 296.12 1817.95 306.368L1816.04 321.643C1815.75 324.151 1815.4 326.734 1815.12 329.242C1814.76 331.826 1814.34 334.346 1813.91 336.865C1813.06 341.904 1812.28 347.007 1811.86 352.152L1810.73 367.432C1809.88 377.579 1808.68 387.827 1807.41 398.01C1806.06 408.129 1804.5 418.336 1803.15 428.454L1803.29 428.443C1805.06 418.288 1806.77 408.211 1808.26 398.08C1809.75 387.95 1811.03 377.767 1811.94 367.543C1812.36 362.398 1812.72 357.33 1813.07 352.262C1813.35 347.13 1814.21 342.091 1814.92 337.064C1815.35 334.545 1815.7 331.961 1815.98 329.453C1816.34 326.869 1816.55 324.297 1816.83 321.789L1818.46 306.538C1819.59 296.367 1820.65 286.131 1821.86 276.024C1822.99 265.853 1824.41 255.658 1825.62 245.551C1828 224.915 1830.33 204.496 1832.24 184.112Z" fill="url(#paint41_linear)"/>
<path d="M1938.85 364.553C1928.06 370.355 1917.59 376.698 1906.86 382.424C1901.5 385.357 1895.98 388.021 1890.28 390.273C1884.65 392.59 1878.87 394.778 1873.16 396.89C1867.45 399.002 1861.76 401.395 1856.24 404.058C1850.71 406.722 1845.35 409.655 1840.01 412.73C1829.36 418.661 1818.5 424.54 1806.61 427.454L1806.63 427.595C1812.63 426.382 1818.49 424.399 1824.1 421.941C1829.72 419.483 1835.15 416.614 1840.51 413.681C1845.87 410.747 1851.15 407.749 1856.6 405.021C1862.05 402.293 1867.74 399.9 1873.36 397.583C1884.68 392.872 1896.19 388.855 1907.15 383.322C1912.6 380.594 1917.87 377.455 1923.14 374.316C1928.47 371.101 1933.75 367.962 1938.85 364.553Z" fill="url(#paint42_linear)"/>
<path d="M1941.47 365.327C1932.69 350.311 1923.78 335.448 1914.66 320.673C1910.07 313.253 1905.48 305.975 1900.88 298.555C1896.29 291.135 1891.83 283.704 1887.38 276.272C1878.53 261.333 1869.21 246.646 1859.82 232.036C1855.16 224.693 1850.43 217.426 1845.71 210.159C1840.98 202.892 1836.26 195.625 1831.45 188.293L1831.39 188.37C1835.91 195.725 1840.51 203.145 1845.1 210.564C1849.7 217.984 1854.28 225.263 1858.95 232.606C1868.27 247.293 1877.72 261.827 1886.84 276.601C1891.43 284.021 1896.02 291.3 1900.47 298.731C1904.93 306.163 1909.32 313.671 1913.78 321.102C1922.97 335.942 1932.09 350.716 1941.47 365.327Z" fill="url(#paint43_linear)"/>
<path d="M2043.19 266.031C2035.39 267.679 2027.58 269.328 2019.78 271.118C2011.98 272.908 2004.25 274.622 1996.31 275.501C1992.37 275.974 1988.41 276.164 1984.43 276.072C1982.45 276.097 1980.46 276.122 1978.42 276.364C1976.45 276.529 1974.49 276.836 1972.47 277.219C1964.64 278.727 1956.75 280.17 1948.9 281.397C1933.16 284.066 1917.41 286.595 1901.64 288.983L1878.03 292.597L1854.33 296.005L1854.35 296.146C1862.29 295.266 1870.16 294.322 1878.09 293.301C1886.02 292.281 1893.88 291.195 1901.8 290.034C1917.57 287.646 1933.31 284.976 1949.03 282.025C1956.85 280.517 1964.67 279.009 1972.57 277.565C1980.37 275.916 1988.44 277.368 1996.45 276.412C2004.47 275.596 2012.27 273.806 2019.99 271.952C2027.7 269.957 2035.42 268.102 2043.19 266.031Z" fill="url(#paint44_linear)"/>
<path d="M1940.96 365.156C1933.6 359.459 1926.44 353.673 1919.22 347.964C1915.58 345.148 1911.94 342.331 1908.35 339.297C1904.77 336.405 1901.18 333.371 1897.73 330.325C1890.69 324.246 1883.67 318.308 1876.24 312.687C1868.88 306.989 1861.34 301.662 1853.41 296.793L1853.34 296.869C1860.88 302.196 1868.31 307.817 1875.6 313.45C1882.88 319.083 1890.11 324.933 1897.27 330.719C1900.85 333.612 1904.5 336.569 1908.01 339.538C1909.77 341.023 1911.53 342.508 1913.28 343.992L1918.55 348.446C1925.87 354.502 1933.16 360.135 1940.96 365.156Z" fill="url(#paint45_linear)"/>
<path d="M1950.83 486.094C1943.07 470.638 1935.19 455.334 1927.1 440.118C1923.06 432.51 1918.87 424.914 1914.83 417.306C1910.78 409.698 1906.8 402.014 1902.9 394.394L1879.23 348.341L1855.51 302.364L1855.44 302.44C1859.08 310.225 1862.85 317.997 1866.77 325.758C1870.6 333.454 1874.38 341.227 1878.36 348.911C1886.18 364.291 1894.27 379.507 1902.43 394.787C1906.48 402.395 1910.52 410.003 1914.5 417.688C1918.48 425.372 1922.32 433.068 1926.3 440.752C1934.3 455.763 1942.47 471.043 1950.83 486.094Z" fill="url(#paint46_linear)"/>
<path d="M1951.02 487.568C1951.02 482.459 1950.95 477.427 1950.89 472.395C1950.74 467.298 1950.81 462.253 1950.25 457.192C1949.96 454.591 1949.4 452.154 1949.12 449.694C1948.77 447.169 1948.63 444.697 1948.7 442.136C1948.7 439.653 1948.91 437.08 1948.98 434.52C1949.02 433.24 1949.05 431.96 1949.09 430.68C1949.12 429.399 1949.16 428.119 1949.05 426.851C1948.9 416.645 1947.28 406.634 1945.88 396.676C1944.47 386.717 1943.2 376.606 1943.63 366.494L1943.49 366.506C1942.42 376.601 1943.42 386.876 1944.83 396.835L1946.94 411.843C1947.57 416.828 1948.14 421.889 1948.49 426.898C1948.59 428.167 1948.56 429.447 1948.59 430.651C1948.62 431.854 1948.66 433.199 1948.55 434.415L1948.27 442.031C1948.2 444.591 1948.27 447.14 1948.48 449.677C1948.69 452.213 1949.19 454.726 1949.33 457.198C1949.54 459.735 1949.68 462.207 1949.75 464.756L1950.03 472.325C1950.25 477.486 1950.53 482.571 1951.02 487.568Z" fill="url(#paint47_linear)"/>
<path d="M1943.16 365.966C1944.2 370.774 1946.28 375.283 1948.63 379.627C1951.05 383.894 1953.74 387.997 1956.49 392.024C1959.24 396.051 1962.06 400.142 1964.67 404.18C1967.42 408.207 1970.05 412.387 1972.67 416.566C1977.83 424.86 1983.14 433.143 1988.58 441.272C1993.95 449.479 1999.45 457.532 2005.09 465.573L2005.16 465.497C2000.06 457.126 1994.82 448.908 1989.45 440.702C1984.08 432.496 1978.64 424.367 1973.21 416.237C1970.46 412.21 1967.77 408.107 1965.08 404.004C1962.4 399.901 1959.92 395.71 1957.23 391.607C1954.55 387.504 1951.79 383.477 1949.38 379.209C1946.76 375.03 1944.61 370.598 1943.16 365.966Z" fill="url(#paint48_linear)"/>
<path d="M1802.09 430.176C1796.24 437.408 1790.78 445.104 1785.68 452.841C1783.17 456.741 1780.67 460.783 1778.09 464.619C1775.57 468.52 1772.85 472.368 1770.26 476.204C1764.94 483.888 1759.63 491.572 1754.53 499.309C1749.37 507.122 1744.35 514.923 1739.33 522.865L1739.41 522.93C1744.88 515.375 1750.12 507.626 1755.36 499.878C1760.6 492.129 1765.62 484.328 1770.71 476.45C1773.22 472.549 1775.79 468.572 1778.38 464.736C1780.97 460.9 1783.69 457.052 1786.36 453.281L1802.09 430.176Z" fill="url(#paint49_linear)"/>
<path d="M1949.7 488.673C1942.26 500.721 1934.74 512.564 1927.01 524.354C1923.17 530.282 1919.27 536.145 1915.28 541.943C1913.33 544.874 1911.15 547.612 1909.04 550.414C1907.96 551.854 1906.93 553.217 1905.85 554.656L1902.5 558.769C1900.24 561.442 1898 564.256 1896.12 567.252C1894.17 570.183 1892.44 573.308 1890.78 576.357C1889.06 579.482 1887.4 582.531 1885.52 585.527C1883.64 588.523 1881.54 591.325 1879.2 593.934C1876.94 596.607 1874.54 599.292 1872.51 602.159C1870.42 605.102 1868.76 608.151 1867.11 611.34C1865.53 614.454 1863.88 617.643 1861.92 620.575C1860.05 623.571 1857.86 626.308 1855.15 628.594L1855.22 628.659C1858.02 626.438 1860.42 623.752 1862.37 620.821C1864.32 617.89 1866.05 614.765 1867.71 611.716C1869.43 608.591 1871.17 605.607 1873.28 602.804C1875.38 600.002 1877.72 597.393 1879.98 594.72C1882.24 592.047 1884.48 589.233 1886.36 586.237C1888.24 583.241 1889.89 580.051 1891.55 577.003C1893.21 573.954 1894.85 570.764 1896.73 567.768C1898.61 564.772 1900.71 561.97 1902.9 559.232C1911.54 548.076 1919.8 536.596 1927.77 525C1935.57 513.133 1942.93 501.02 1949.7 488.673Z" fill="url(#paint50_linear)"/>
<path d="M1948.53 484.939C1942.87 481.724 1936.73 479.544 1930.47 477.657C1924.2 475.77 1917.96 474.023 1911.89 471.907C1899.62 467.828 1887.62 462.662 1875.69 457.419C1863.75 452.177 1851.89 446.999 1839.91 441.973C1833.94 439.423 1827.92 436.948 1821.89 434.474C1815.87 431.999 1809.84 429.525 1803.82 427.191L1803.76 427.268C1809.73 429.959 1815.63 432.587 1821.59 435.137C1827.55 437.688 1833.53 440.38 1839.49 442.931C1851.41 448.032 1863.47 452.981 1875.44 457.865C1881.47 460.34 1887.5 462.814 1893.46 465.365C1899.48 467.84 1905.38 470.467 1911.52 472.647C1923.82 477.15 1936.7 479.262 1948.53 484.939Z" fill="url(#paint51_linear)"/>
<path d="M1947.26 489.232C1929.73 491.698 1912.3 494.509 1894.87 497.462C1877.43 500.132 1859.91 502.739 1842.35 504.922C1824.8 507.105 1807.25 509.43 1789.72 511.895C1780.95 513.127 1772.18 514.36 1763.42 515.593C1754.65 516.825 1745.96 518.122 1737.21 519.496L1737.22 519.637C1746 518.545 1754.78 517.454 1763.55 516.362C1772.33 515.27 1781.11 514.178 1789.88 512.946C1807.42 510.622 1824.88 508.092 1842.48 505.55C1851.24 504.318 1860 502.944 1868.7 501.788C1877.46 500.555 1886.24 499.464 1895.02 498.372C1912.38 495.496 1929.94 492.531 1947.26 489.232Z" fill="url(#paint52_linear)"/>
<path d="M1857.53 628.253C1852.33 611.943 1847.55 595.597 1842.84 579.176C1840.45 571.003 1837.98 562.766 1835.8 554.505C1833.47 546.256 1831.43 537.983 1829.25 529.722C1825.02 513.189 1820.72 496.591 1816.29 480.145C1814.1 471.884 1811.78 463.635 1809.53 455.451C1807.28 447.266 1805.02 438.941 1802.63 430.768L1802.49 430.78C1804.54 439.053 1806.66 447.39 1808.76 455.586C1810.88 463.924 1812.99 472.12 1815.17 480.381C1819.54 496.903 1824.05 513.413 1828.62 529.846C1830.94 538.095 1833.13 546.356 1835.31 554.617C1837.5 562.878 1839.68 571.139 1841.86 579.399C1846.65 595.886 1851.71 612.207 1857.53 628.253Z" fill="url(#paint53_linear)"/>
<path d="M1857.13 630.273C1847 621.189 1836.82 612.322 1826.5 603.467L1818.64 596.959C1816.05 594.765 1813.38 592.647 1810.85 590.376C1805.72 585.91 1801.25 580.821 1796.65 575.886C1792.11 570.874 1786.91 566.343 1781.86 561.942C1776.73 557.477 1771.6 553.011 1766.48 548.686C1761.35 544.221 1756.16 539.831 1750.98 535.583C1745.78 531.194 1740.59 526.805 1735.33 522.492L1735.27 522.568C1740.33 527.11 1745.39 531.652 1750.45 536.053C1755.58 540.519 1760.64 545.061 1765.76 549.386C1770.89 553.851 1776.08 558.24 1781.2 562.565C1783.8 564.76 1786.39 566.954 1788.92 569.225C1791.46 571.496 1793.92 573.844 1796.25 576.203L1803.32 583.486C1805.72 585.91 1808.19 588.257 1810.72 590.528L1825.97 603.937C1836.23 612.868 1846.54 621.582 1857.12 630.132L1857.13 630.273Z" fill="url(#paint54_linear)"/>
<path d="M1812.11 695.787C1806.54 680.998 1800.49 666.462 1794.1 652.026L1784.28 630.499C1781.05 623.319 1777.88 616.063 1774.66 608.883C1768.26 594.447 1761.95 580.076 1755.42 565.652L1745.73 544.113L1736.11 522.497L1736.05 522.574L1740.52 533.552L1745.05 544.454L1749.72 555.344L1754.46 566.158C1760.86 580.593 1767.52 594.865 1774.12 609.212C1777.41 616.316 1780.71 623.56 1783.94 630.74C1787.17 637.92 1790.19 645.188 1793.21 652.456L1812.11 695.787Z" fill="url(#paint55_linear)"/>
<path d="M1738.18 673.112C1737.43 670.124 1737.17 667.023 1737.05 663.911C1737.01 660.863 1737.17 657.728 1737.2 654.604C1737.38 648.344 1737.58 642.225 1737.76 635.965C1737.92 623.533 1737.94 611.114 1738.61 598.711C1738.87 592.516 1739.13 586.32 1739.39 580.125C1739.57 573.865 1739.69 567.682 1739.59 561.445C1739.47 549.038 1738.86 536.601 1737.67 524.211L1737.53 524.223C1738.07 536.595 1738.41 549.056 1738.53 561.464C1738.55 567.635 1738.51 573.883 1738.47 580.132L1738.04 598.758C1737.94 601.818 1737.92 604.942 1737.76 608.078C1737.66 611.137 1737.64 614.261 1737.48 617.397C1737.29 623.657 1736.96 629.788 1736.77 636.048C1736.51 642.243 1736.47 648.491 1736.35 654.675C1736.33 657.799 1736.23 660.858 1736.43 664.035C1736.67 666.994 1737.09 670.224 1738.18 673.112Z" fill="url(#paint56_linear)"/>
<path d="M1736.96 525.832C1723.24 536.493 1709.67 547.282 1696.18 558.277L1686.17 566.569C1682.78 569.337 1679.53 572.093 1676.07 574.796C1672.67 577.423 1669.06 579.997 1665.4 582.149C1661.61 584.312 1657.72 586.129 1653.84 588.087C1649.96 590.044 1646.17 592.208 1642.78 594.976C1639.32 597.679 1636.24 600.705 1632.93 603.537C1631.34 604.948 1629.62 606.37 1627.88 607.651C1626.14 608.932 1624.33 610.149 1622.51 611.365C1618.95 613.722 1615.17 616.027 1611.7 618.589C1604.61 623.726 1598.29 629.649 1591.82 635.443C1585.36 641.236 1578.73 646.901 1571.3 651.357L1571.38 651.421C1578.98 647.236 1585.74 641.559 1592.29 635.971C1598.91 630.306 1605.3 624.447 1612.33 619.387C1615.81 616.825 1619.52 614.597 1623.15 612.164C1624.96 610.947 1626.78 609.73 1628.51 608.449C1630.25 607.168 1631.9 605.681 1633.48 604.271C1636.72 601.374 1639.8 598.348 1643.19 595.58C1646.57 592.812 1650.21 590.52 1654.02 588.498C1657.82 586.475 1661.7 584.517 1665.49 582.354C1669.21 580.126 1672.76 577.629 1676.22 574.925L1696.65 558.805C1710.3 548.08 1723.72 537.162 1736.96 525.832Z" fill="url(#paint57_linear)"/>
</g>
</g>
<defs>
<linearGradient id="paint0_linear" x1="718.4" y1="364" x2="718.4" y2="588.4" gradientUnits="userSpaceOnUse">
<stop stop-color="#FFF8EE"/>
<stop offset="1" stop-color="#FFF8EE" stop-opacity="0"/>
</linearGradient>
<linearGradient id="paint1_linear" x1="720.763" y1="539.9" x2="720.763" y2="697.7" gradientUnits="userSpaceOnUse">
<stop stop-color="#FFF8EE"/>
<stop offset="1" stop-color="#FFF8EE" stop-opacity="0"/>
</linearGradient>
<linearGradient id="paint2_linear" x1="740.731" y1="416.5" x2="740.731" y2="516.5" gradientUnits="userSpaceOnUse">
<stop stop-color="#FFF8EE"/>
<stop offset="1" stop-color="#FFF8EE" stop-opacity="0"/>
</linearGradient>
<linearGradient id="paint3_linear" x1="741.15" y1="472.7" x2="741.15" y2="504.9" gradientUnits="userSpaceOnUse">
<stop stop-color="#FFF8EE"/>
<stop offset="1" stop-color="#FFF8EE" stop-opacity="0"/>
</linearGradient>
<linearGradient id="paint4_linear" x1="758.285" y1="504.9" x2="758.285" y2="628.8" gradientUnits="userSpaceOnUse">
<stop stop-color="#FFF8EE"/>
<stop offset="1" stop-color="#FFF8EE" stop-opacity="0"/>
</linearGradient>
<linearGradient id="paint5_linear" x1="756.172" y1="514.1" x2="756.172" y2="627.1" gradientUnits="userSpaceOnUse">
<stop stop-color="#FFF8EE"/>
<stop offset="1" stop-color="#FFF8EE" stop-opacity="0"/>
</linearGradient>
<linearGradient id="paint6_linear" x1="651.75" y1="414.6" x2="651.75" y2="587.1" gradientUnits="userSpaceOnUse">
<stop stop-color="#FFF8EE"/>
<stop offset="1" stop-color="#FFF8EE" stop-opacity="0"/>
</linearGradient>
<linearGradient id="paint7_linear" x1="633.85" y1="547.5" x2="633.85" y2="672.6" gradientUnits="userSpaceOnUse">
<stop stop-color="#FFF8EE"/>
<stop offset="1" stop-color="#FFF8EE" stop-opacity="0"/>
</linearGradient>
<linearGradient id="paint8_linear" x1="648.687" y1="559.7" x2="648.687" y2="693.3" gradientUnits="userSpaceOnUse">
<stop stop-color="#FFF8EE"/>
<stop offset="1" stop-color="#FFF8EE" stop-opacity="0"/>
</linearGradient>
<linearGradient id="paint9_linear" x1="541.637" y1="540.7" x2="541.637" y2="697.4" gradientUnits="userSpaceOnUse">
<stop stop-color="#FFF8EE"/>
<stop offset="1" stop-color="#FFF8EE" stop-opacity="0"/>
</linearGradient>
<linearGradient id="paint10_linear" x1="517.25" y1="539.8" x2="517.25" y2="605.3" gradientUnits="userSpaceOnUse">
<stop stop-color="#FFF8EE"/>
<stop offset="1" stop-color="#FFF8EE" stop-opacity="0"/>
</linearGradient>
<linearGradient id="paint11_linear" x1="519.1" y1="549.1" x2="519.1" y2="576" gradientUnits="userSpaceOnUse">
<stop stop-color="#FFF8EE"/>
<stop offset="1" stop-color="#FFF8EE" stop-opacity="0"/>
</linearGradient>
<linearGradient id="paint12_linear" x1="686.3" y1="481.8" x2="686.3" y2="585.4" gradientUnits="userSpaceOnUse">
<stop stop-color="#FFF8EE"/>
<stop offset="1" stop-color="#FFF8EE" stop-opacity="0"/>
</linearGradient>
<linearGradient id="paint13_linear" x1="693.4" y1="527.8" x2="693.4" y2="590.6" gradientUnits="userSpaceOnUse">
<stop stop-color="#FFF8EE"/>
<stop offset="1" stop-color="#FFF8EE" stop-opacity="0"/>
</linearGradient>
<linearGradient id="paint14_linear" x1="648.851" y1="537.322" x2="648.851" y2="555.227" gradientUnits="userSpaceOnUse">
<stop stop-color="#FFF8EE"/>
<stop offset="1" stop-color="#FFF8EE" stop-opacity="0"/>
</linearGradient>
<linearGradient id="paint15_linear" x1="683.151" y1="399.422" x2="683.151" y2="417.327" gradientUnits="userSpaceOnUse">
<stop stop-color="#FFF8EE"/>
<stop offset="1" stop-color="#FFF8EE" stop-opacity="0"/>
</linearGradient>
<linearGradient id="paint16_linear" x1="724.551" y1="399.422" x2="724.551" y2="417.327" gradientUnits="userSpaceOnUse">
<stop stop-color="#FFF8EE"/>
<stop offset="1" stop-color="#FFF8EE" stop-opacity="0"/>
</linearGradient>
<linearGradient id="paint17_linear" x1="704.75" y1="347.022" x2="704.75" y2="364.927" gradientUnits="userSpaceOnUse">
<stop stop-color="#FFF8EE"/>
<stop offset="1" stop-color="#FFF8EE" stop-opacity="0"/>
</linearGradient>
<linearGradient id="paint18_linear" x1="758.65" y1="537.322" x2="758.65" y2="555.227" gradientUnits="userSpaceOnUse">
<stop stop-color="#FFF8EE"/>
<stop offset="1" stop-color="#FFF8EE" stop-opacity="0"/>
</linearGradient>
<linearGradient id="paint19_linear" x1="533.54" y1="526.822" x2="533.54" y2="544.727" gradientUnits="userSpaceOnUse">
<stop stop-color="#FFF8EE"/>
<stop offset="1" stop-color="#FFF8EE" stop-opacity="0"/>
</linearGradient>
<linearGradient id="paint20_linear" x1="723.227" y1="509.876" x2="723.227" y2="518.514" gradientUnits="userSpaceOnUse">
<stop stop-color="#FFF8EE"/>
<stop offset="1" stop-color="#FFF8EE" stop-opacity="0"/>
</linearGradient>
<linearGradient id="paint21_linear" x1="686.326" y1="519.876" x2="686.326" y2="528.514" gradientUnits="userSpaceOnUse">
<stop stop-color="#FFF8EE"/>
<stop offset="1" stop-color="#FFF8EE" stop-opacity="0"/>
</linearGradient>
<linearGradient id="paint22_linear" x1="703.627" y1="477.476" x2="703.627" y2="486.114" gradientUnits="userSpaceOnUse">
<stop stop-color="#FFF8EE"/>
<stop offset="1" stop-color="#FFF8EE" stop-opacity="0"/>
</linearGradient>
<linearGradient id="paint23_linear" x1="683.116" y1="442.676" x2="683.116" y2="451.315" gradientUnits="userSpaceOnUse">
<stop stop-color="#FFF8EE"/>
<stop offset="1" stop-color="#FFF8EE" stop-opacity="0"/>
</linearGradient>
<linearGradient id="paint24_linear" x1="704.627" y1="404.076" x2="704.627" y2="412.714" gradientUnits="userSpaceOnUse">
<stop stop-color="#FFF8EE"/>
<stop offset="1" stop-color="#FFF8EE" stop-opacity="0"/>
</linearGradient>
<linearGradient id="paint25_linear" x1="1786.63" y1="83.4618" x2="1778.59" y2="92.9772" gradientUnits="userSpaceOnUse">
<stop stop-color="#FFF8EE"/>
<stop offset="1" stop-color="#FFF8EE" stop-opacity="0"/>
</linearGradient>
<linearGradient id="paint26_linear" x1="1836.93" y1="180.433" x2="1828.89" y2="189.947" gradientUnits="userSpaceOnUse">
<stop stop-color="#FFF8EE"/>
<stop offset="1" stop-color="#FFF8EE" stop-opacity="0"/>
</linearGradient>
<linearGradient id="paint27_linear" x1="1859.2" y1="292.737" x2="1851.16" y2="302.252" gradientUnits="userSpaceOnUse">
<stop stop-color="#FFF8EE"/>
<stop offset="1" stop-color="#FFF8EE" stop-opacity="0"/>
</linearGradient>
<linearGradient id="paint28_linear" x1="1746.82" y1="304.082" x2="1738.78" y2="313.597" gradientUnits="userSpaceOnUse">
<stop stop-color="#FFF8EE"/>
<stop offset="1" stop-color="#FFF8EE" stop-opacity="0"/>
</linearGradient>
<linearGradient id="paint29_linear" x1="1808.37" y1="423.524" x2="1800.33" y2="433.039" gradientUnits="userSpaceOnUse">
<stop stop-color="#FFF8EE"/>
<stop offset="1" stop-color="#FFF8EE" stop-opacity="0"/>
</linearGradient>
<linearGradient id="paint30_linear" x1="1740.55" y1="517.561" x2="1732.51" y2="527.076" gradientUnits="userSpaceOnUse">
<stop stop-color="#FFF8EE"/>
<stop offset="1" stop-color="#FFF8EE" stop-opacity="0"/>
</linearGradient>
<linearGradient id="paint31_linear" x1="1905.32" y1="112.588" x2="1842.39" y2="187.057" gradientUnits="userSpaceOnUse">
<stop stop-color="#FFF8EE"/>
<stop offset="1" stop-color="#FFF8EE" stop-opacity="0"/>
</linearGradient>
<linearGradient id="paint32_linear" x1="1820.14" y1="122.825" x2="1794.51" y2="153.147" gradientUnits="userSpaceOnUse">
<stop stop-color="#FFF8EE"/>
<stop offset="1" stop-color="#FFF8EE" stop-opacity="0"/>
</linearGradient>
<linearGradient id="paint33_linear" x1="1943.08" y1="143.585" x2="1876.27" y2="222.636" gradientUnits="userSpaceOnUse">
<stop stop-color="#FFF8EE"/>
<stop offset="1" stop-color="#FFF8EE" stop-opacity="0"/>
</linearGradient>
<linearGradient id="paint34_linear" x1="1962.99" y1="196.411" x2="1912.77" y2="255.833" gradientUnits="userSpaceOnUse">
<stop stop-color="#FFF8EE"/>
<stop offset="1" stop-color="#FFF8EE" stop-opacity="0"/>
</linearGradient>
<linearGradient id="paint35_linear" x1="1835.94" y1="188.024" x2="1737.83" y2="304.118" gradientUnits="userSpaceOnUse">
<stop stop-color="#FFF8EE"/>
<stop offset="1" stop-color="#FFF8EE" stop-opacity="0"/>
</linearGradient>
<linearGradient id="paint36_linear" x1="1824.23" y1="125.498" x2="1699.4" y2="273.212" gradientUnits="userSpaceOnUse">
<stop stop-color="#FFF8EE"/>
<stop offset="1" stop-color="#FFF8EE" stop-opacity="0"/>
</linearGradient>
<linearGradient id="paint37_linear" x1="1825.27" y1="271.445" x2="1772.73" y2="333.616" gradientUnits="userSpaceOnUse">
<stop stop-color="#FFF8EE"/>
<stop offset="1" stop-color="#FFF8EE" stop-opacity="0"/>
</linearGradient>
<linearGradient id="paint38_linear" x1="1865.07" y1="215.913" x2="1820.72" y2="268.385" gradientUnits="userSpaceOnUse">
<stop stop-color="#FFF8EE"/>
<stop offset="1" stop-color="#FFF8EE" stop-opacity="0"/>
</linearGradient>
<linearGradient id="paint39_linear" x1="1871.95" y1="312.337" x2="1787.27" y2="412.544" gradientUnits="userSpaceOnUse">
<stop stop-color="#FFF8EE"/>
<stop offset="1" stop-color="#FFF8EE" stop-opacity="0"/>
</linearGradient>
<linearGradient id="paint40_linear" x1="1790.22" y1="348.398" x2="1755.62" y2="389.336" gradientUnits="userSpaceOnUse">
<stop stop-color="#FFF8EE"/>
<stop offset="1" stop-color="#FFF8EE" stop-opacity="0"/>
</linearGradient>
<linearGradient id="paint41_linear" x1="1884.02" y1="227.875" x2="1751.44" y2="384.755" gradientUnits="userSpaceOnUse">
<stop stop-color="#FFF8EE"/>
<stop offset="1" stop-color="#FFF8EE" stop-opacity="0"/>
</linearGradient>
<linearGradient id="paint42_linear" x1="1915.79" y1="345.06" x2="1829.62" y2="447.024" gradientUnits="userSpaceOnUse">
<stop stop-color="#FFF8EE"/>
<stop offset="1" stop-color="#FFF8EE" stop-opacity="0"/>
</linearGradient>
<linearGradient id="paint43_linear" x1="1907.18" y1="252.293" x2="1865.74" y2="301.327" gradientUnits="userSpaceOnUse">
<stop stop-color="#FFF8EE"/>
<stop offset="1" stop-color="#FFF8EE" stop-opacity="0"/>
</linearGradient>
<linearGradient id="paint44_linear" x1="1995.5" y1="225.72" x2="1901.97" y2="336.392" gradientUnits="userSpaceOnUse">
<stop stop-color="#FFF8EE"/>
<stop offset="1" stop-color="#FFF8EE" stop-opacity="0"/>
</linearGradient>
<linearGradient id="paint45_linear" x1="1898.57" y1="329.332" x2="1895.73" y2="332.693" gradientUnits="userSpaceOnUse">
<stop stop-color="#FFF8EE"/>
<stop offset="1" stop-color="#FFF8EE" stop-opacity="0"/>
</linearGradient>
<linearGradient id="paint46_linear" x1="1928.6" y1="364.136" x2="1877.74" y2="424.322" gradientUnits="userSpaceOnUse">
<stop stop-color="#FFF8EE"/>
<stop offset="1" stop-color="#FFF8EE" stop-opacity="0"/>
</linearGradient>
<linearGradient id="paint47_linear" x1="1975.59" y1="393.507" x2="1918.98" y2="460.49" gradientUnits="userSpaceOnUse">
<stop stop-color="#FFF8EE"/>
<stop offset="1" stop-color="#FFF8EE" stop-opacity="0"/>
</linearGradient>
<linearGradient id="paint48_linear" x1="1985.78" y1="401.983" x2="1962.47" y2="429.556" gradientUnits="userSpaceOnUse">
<stop stop-color="#FFF8EE"/>
<stop offset="1" stop-color="#FFF8EE" stop-opacity="0"/>
</linearGradient>
<linearGradient id="paint49_linear" x1="1806.67" y1="434.049" x2="1734.83" y2="519.057" gradientUnits="userSpaceOnUse">
<stop stop-color="#FFF8EE"/>
<stop offset="1" stop-color="#FFF8EE" stop-opacity="0"/>
</linearGradient>
<linearGradient id="paint50_linear" x1="1956.89" y1="494.751" x2="1848.51" y2="622.99" gradientUnits="userSpaceOnUse">
<stop stop-color="#FFF8EE"/>
<stop offset="1" stop-color="#FFF8EE" stop-opacity="0"/>
</linearGradient>
<linearGradient id="paint51_linear" x1="1892.09" y1="437.238" x2="1860.2" y2="474.969" gradientUnits="userSpaceOnUse">
<stop stop-color="#FFF8EE"/>
<stop offset="1" stop-color="#FFF8EE" stop-opacity="0"/>
</linearGradient>
<linearGradient id="paint52_linear" x1="1893.45" y1="443.758" x2="1790.95" y2="565.046" gradientUnits="userSpaceOnUse">
<stop stop-color="#FFF8EE"/>
<stop offset="1" stop-color="#FFF8EE" stop-opacity="0"/>
</linearGradient>
<linearGradient id="paint53_linear" x1="1867.29" y1="485.408" x2="1792.8" y2="573.548" gradientUnits="userSpaceOnUse">
<stop stop-color="#FFF8EE"/>
<stop offset="1" stop-color="#FFF8EE" stop-opacity="0"/>
</linearGradient>
<linearGradient id="paint54_linear" x1="1797.54" y1="574.836" x2="1794.95" y2="577.902" gradientUnits="userSpaceOnUse">
<stop stop-color="#FFF8EE"/>
<stop offset="1" stop-color="#FFF8EE" stop-opacity="0"/>
</linearGradient>
<linearGradient id="paint55_linear" x1="1800.99" y1="577.331" x2="1747.23" y2="640.953" gradientUnits="userSpaceOnUse">
<stop stop-color="#FFF8EE"/>
<stop offset="1" stop-color="#FFF8EE" stop-opacity="0"/>
</linearGradient>
<linearGradient id="paint56_linear" x1="1774.49" y1="555.323" x2="1701.29" y2="641.936" gradientUnits="userSpaceOnUse">
<stop stop-color="#FFF8EE"/>
<stop offset="1" stop-color="#FFF8EE" stop-opacity="0"/>
</linearGradient>
<linearGradient id="paint57_linear" x1="1719.58" y1="511.147" x2="1588.68" y2="666.042" gradientUnits="userSpaceOnUse">
<stop stop-color="#FFF8EE"/>
<stop offset="1" stop-color="#FFF8EE" stop-opacity="0"/>
</linearGradient>
<clipPath id="clip0">
<rect width="324" height="215" fill="white" transform="translate(474 345)"/>
</clipPath>
<clipPath id="clip1">
<rect width="240" height="560" fill="white" transform="translate(1680)"/>
</clipPath>
<clipPath id="clip2">
<rect width="428.3" height="645.6" fill="white" transform="matrix(-0.763778 -0.645479 -0.645479 0.763778 2149.85 307.459)"/>
</clipPath>
</defs>
</svg>
