<svg width="768" height="400" viewBox="0 0 768 400" fill="none" xmlns="http://www.w3.org/2000/svg">
<g clip-path="url(#clip0)">
<rect y="0.000244141" width="768" height="400" fill="black"/>
<g opacity="0.2" clip-path="url(#clip1)">
<g clip-path="url(#clip2)">
<path d="M650.745 7.60944C648.765 9.8246 649.426 13.5158 651.35 14.8178C653.681 16.7881 656.777 16.7039 658.558 14.2127C660.083 12.1528 659.78 8.54866 657.953 7.00435C655.835 4.78197 652.526 5.11825 650.745 7.60944Z" fill="url(#paint0_linear)"/>
<path d="M692.234 87.6068C690.254 89.822 690.915 93.5132 692.839 94.8152C695.17 96.7855 698.266 96.7013 700.047 94.2101C701.572 92.1502 701.269 88.546 699.442 87.0017C697.324 84.7794 694.025 85.2319 692.234 87.6068Z" fill="url(#paint1_linear)"/>
<path d="M710.607 180.258C708.627 182.473 709.288 186.164 711.212 187.466C713.544 189.436 716.639 189.352 718.421 186.861C719.945 184.801 719.643 181.197 717.815 179.653C715.697 177.43 712.398 177.883 710.607 180.258Z" fill="url(#paint2_linear)"/>
<path d="M617.902 189.62C615.922 191.835 616.583 195.527 618.507 196.829C620.839 198.799 623.935 198.715 625.716 196.224C627.241 194.164 626.938 190.559 625.111 189.015C622.992 186.793 619.63 187.192 617.902 189.62Z" fill="url(#paint3_linear)"/>
<path d="M668.675 288.157C666.695 290.372 667.356 294.063 669.28 295.365C671.612 297.336 674.707 297.252 676.489 294.76C678.013 292.701 677.711 289.096 675.883 287.552C673.765 285.33 670.466 285.782 668.675 288.157Z" fill="url(#paint4_linear)"/>
<path d="M612.724 365.738C610.744 367.954 611.405 371.645 613.329 372.947C615.66 374.917 618.756 374.833 620.537 372.342C622.062 370.282 621.759 366.678 619.932 365.133C617.814 362.911 614.568 363.3 612.724 365.738Z" fill="url(#paint5_linear)"/>
<path d="M760.646 35.031C755.324 39.2829 750.192 43.6946 745.185 48.2128C742.687 50.53 740.188 52.8472 737.68 55.0482C735.119 57.3121 732.611 59.5131 729.986 61.7238L722.166 68.2929C719.542 70.5036 716.971 72.6513 714.409 74.9153C709.277 79.327 704.154 83.8549 699.21 88.4263L699.273 88.4796C704.595 84.2277 709.853 79.9225 715.049 75.5641C720.245 71.2057 725.314 66.7408 730.311 62.1063C732.809 59.7891 735.371 57.5251 737.879 55.3242C740.44 53.0602 743.074 50.9658 745.699 48.755C750.768 44.2901 755.828 39.7089 760.646 35.031Z" fill="url(#paint6_linear)"/>
<path d="M694.972 90.2456C692.134 83.6345 689.01 77.1059 685.664 70.7131C683.932 67.5216 682.148 64.3931 680.479 61.2548C678.748 58.0633 677.079 54.925 675.348 51.7335C673.616 48.542 671.948 45.4037 670.163 42.2752C668.379 39.1467 666.647 35.9552 664.863 32.8267C664.445 32.0421 663.912 31.2673 663.558 30.536C663.204 29.8047 662.893 28.8941 662.592 28.0998C661.865 26.4046 661.147 24.8257 660.419 23.1306C658.857 19.8663 657.242 16.665 655.118 13.682L655.065 13.745C656.903 16.8105 658.412 20.1378 659.857 23.4119C660.522 25.0538 661.25 26.7489 661.914 28.3908C662.215 29.1852 662.526 30.0958 662.89 30.9433C663.37 31.7812 663.787 32.5657 664.204 33.3503C667.72 39.6703 671.343 45.8643 674.965 52.0583C676.75 55.1868 678.535 58.3153 680.266 61.5069C681.998 64.6984 683.497 67.9094 685.112 71.1107C688.342 77.5133 691.573 83.9158 694.972 90.2456Z" fill="url(#paint7_linear)"/>
<path d="M825.227 88.8535C822.665 89.7126 819.875 89.9468 817.118 89.8855C814.425 89.8774 811.702 89.5206 808.935 89.343C803.456 88.9249 797.919 89.214 792.435 89.4402C786.951 89.6664 781.487 90.1251 776.003 90.3513C770.582 90.6307 765.035 90.8036 759.541 90.9136C748.554 91.1334 737.663 91.1109 726.671 90.5701L710.228 89.96C704.768 89.7744 699.245 89.5355 693.795 89.4661L693.804 89.5824C699.284 90.0006 704.754 90.3024 710.223 90.6043C715.693 90.9062 721.173 91.3244 726.632 91.51C737.572 92.1138 748.559 91.894 759.527 91.4416C765.011 91.2154 770.485 90.873 775.916 90.7098C781.4 90.4837 786.893 90.3737 792.324 90.2106C797.818 90.1007 803.292 89.7582 808.762 90.0601C811.465 90.1844 814.178 90.425 816.988 90.4233C819.841 90.2423 822.622 89.8918 825.227 88.8535Z" fill="url(#paint8_linear)"/>
<path d="M870.381 156.718L826.925 139.759C819.666 136.973 812.407 134.187 805.202 131.338C797.996 128.489 790.834 125.461 783.672 122.432C780.091 120.918 776.51 119.404 772.822 118.016C769.135 116.628 765.467 115.472 761.639 114.505C757.864 113.476 754.153 112.499 750.422 111.291C746.754 110.135 743.076 108.863 739.388 107.475C732.129 104.689 724.914 101.724 717.612 99.1167C713.987 97.7818 710.309 96.5099 706.525 95.3641C702.804 94.2715 698.976 93.3049 695.168 92.5708L695.114 92.6338C698.932 93.4841 702.654 94.5768 706.322 95.7324C710.053 96.9413 713.677 98.2762 717.249 99.6741C724.508 102.46 731.616 105.552 738.928 108.275C742.616 109.663 746.241 110.998 749.962 112.09C753.693 113.299 757.458 114.212 761.286 115.179C764.997 116.155 768.718 117.248 772.396 118.52C776.074 119.792 779.655 121.306 783.289 122.757L804.926 131.537L826.509 140.38C841.162 146.175 855.67 151.63 870.381 156.718Z" fill="url(#paint9_linear)"/>
<path d="M695.845 90.8749C692.364 94.7381 688.956 98.7709 685.737 102.963C684.096 105.033 682.571 107.093 680.993 109.216C679.415 111.339 678.016 113.505 676.438 115.628L667.634 128.602C664.657 132.891 661.617 137.127 658.524 141.426C652.328 149.908 646.059 158.22 639.674 166.542L630.124 178.994L620.51 191.392L620.573 191.445C623.991 187.529 627.336 183.443 630.565 179.367C633.857 175.344 637.139 171.204 640.305 167.075C646.689 158.753 652.885 150.271 658.839 141.693C661.816 137.403 664.793 133.114 667.823 128.762C670.799 124.473 673.956 120.227 676.995 115.991C683.012 107.466 689.271 99.0371 695.845 90.8749V90.8749Z" fill="url(#paint10_linear)"/>
<path d="M621.005 193.107C622.599 185.597 624.14 178.15 625.671 170.586C627.149 163.086 628.68 155.523 630.042 148.032L633.875 125.348C635.173 117.804 636.588 110.25 638.003 102.697C640.833 87.5898 643.609 72.5457 646.323 57.4484C647.684 49.9579 648.92 42.3608 650.219 34.817C651.517 27.2733 652.816 19.7295 654.051 12.1324L653.935 12.1422C652.457 19.6425 651.042 27.196 649.628 34.7496C648.213 42.3031 646.798 49.8566 645.436 57.3472C642.723 72.4445 640.125 87.532 637.528 102.62C636.23 110.163 634.931 117.707 633.579 125.314C632.217 132.804 630.686 140.368 629.271 147.921C626.432 162.912 623.539 177.966 621.005 193.107Z" fill="url(#paint11_linear)"/>
<path d="M715.022 183.341C707.141 183.593 699.331 184.014 691.542 184.668C683.699 185.385 675.919 186.155 668.119 186.693C660.267 187.294 652.487 188.064 644.717 188.95C636.947 189.837 629.133 190.902 621.382 192.021L621.392 192.137C629.182 191.484 637.015 190.65 644.848 189.817L656.561 188.483L668.275 187.148C672.218 186.7 676.108 186.315 680.008 186.046L682.977 185.855L685.894 185.728L691.779 185.409C699.4 184.828 707.199 184.291 715.022 183.341Z" fill="url(#paint12_linear)"/>
<path d="M714.388 183.453C714.7 179.504 714.083 175.634 713.296 171.836C712.508 168.039 711.605 164.251 710.702 160.463C709.798 156.675 708.725 152.96 707.822 149.172C706.919 145.384 706.015 141.596 705.228 137.798C703.591 130.15 701.9 122.564 700.157 115.042C698.35 107.466 696.49 99.953 694.451 92.3968L694.334 92.4065C695.855 100.065 697.546 107.65 699.236 115.236C700.927 122.822 702.85 130.388 704.71 137.9C705.666 141.625 706.633 145.466 707.42 149.264C708.323 153.052 709.057 156.913 709.898 160.647C710.349 162.541 710.748 164.498 711.253 166.329C711.704 168.223 712.156 170.117 712.608 172.011C713.627 175.789 714.298 179.597 714.388 183.453Z" fill="url(#paint13_linear)"/>
<path d="M714.689 184.247C712.589 188.521 710.552 192.849 708.568 197.113C707.581 199.304 706.531 201.441 705.597 203.568C704.611 205.758 703.866 208.045 703.3 210.376L702.421 213.845C702.107 214.984 701.792 216.123 701.478 217.261C700.85 219.539 700.042 221.772 699.118 224.016C697.323 228.44 695.224 232.714 693.061 236.935C690.898 241.156 688.798 245.43 687.003 249.855C685.208 254.279 683.656 258.8 682.283 263.364C679.474 272.44 676.791 281.622 672.106 289.977L672.169 290.03C674.7 286.012 676.791 281.622 678.469 277.207C680.201 272.73 681.637 268.219 683.01 263.654C684.446 259.143 685.882 254.632 687.614 250.155C689.408 245.73 691.392 241.466 693.366 237.085C695.403 232.758 697.387 228.494 699.297 224.06C700.168 221.879 701.092 219.635 701.837 217.348C702.214 216.263 702.581 215.061 702.896 213.923L703.838 210.507C705.032 205.899 707.195 201.678 709.053 197.307C711.036 193.042 712.894 188.671 714.689 184.247Z" fill="url(#paint14_linear)"/>
<path d="M672.055 292.849C670.172 288.558 668.174 284.277 666.175 279.996C664.177 275.714 662.125 271.496 659.957 267.287C657.852 263.132 655.684 258.923 653.569 254.652C652.516 252.574 651.517 250.433 650.518 248.293C649.465 246.215 648.466 244.074 647.297 242.006C645.076 237.861 642.239 234.059 639.626 230.122C636.959 226.248 634.854 222.093 632.855 217.812C629.028 209.176 625.263 200.594 621.266 192.031L621.213 192.094C622.925 196.458 624.755 200.812 626.584 205.166C628.413 209.52 630.179 213.821 632.124 218.166C633.123 220.306 634.123 222.447 635.291 224.515C636.46 226.583 637.682 228.588 639.02 230.583C641.687 234.457 644.577 238.195 646.968 242.268C649.359 246.341 651.41 250.559 653.409 254.841C655.461 259.059 657.406 263.403 659.458 267.622C661.456 271.903 663.562 276.058 665.676 280.33C667.781 284.485 669.833 288.704 672.055 292.849Z" fill="url(#paint15_linear)"/>
<path d="M695.597 90.0173C693.379 106.829 691.33 123.569 689.524 140.404C688.589 148.796 687.77 157.177 686.782 165.632C685.848 174.023 684.797 182.424 683.809 190.879L682.232 203.48C681.996 205.549 681.707 207.681 681.47 209.75C681.181 211.881 680.829 213.96 680.476 216.039C679.771 220.196 679.13 224.406 678.783 228.65L677.851 241.256C677.149 249.628 676.161 258.082 675.11 266.483C673.996 274.831 672.712 283.252 671.598 291.6L671.715 291.59C673.177 283.213 674.587 274.899 675.817 266.541C677.048 258.184 678.099 249.782 678.854 241.348C679.2 237.103 679.493 232.922 679.786 228.741C680.016 224.507 680.721 220.35 681.31 216.203C681.662 214.124 681.951 211.992 682.188 209.924C682.477 207.792 682.65 205.67 682.886 203.601L684.23 191.019C685.165 182.628 686.037 174.183 687.034 165.845C687.969 157.453 689.136 149.043 690.134 140.704C692.101 123.679 694.023 106.834 695.597 90.0173Z" fill="url(#paint16_linear)"/>
<path d="M783.553 238.881C774.647 243.668 766.013 248.901 757.16 253.625C752.738 256.045 748.18 258.242 743.478 260.101C738.838 262.012 734.072 263.817 729.359 265.559C724.646 267.301 719.953 269.276 715.396 271.473C710.838 273.671 706.417 276.091 702.005 278.627C693.225 283.521 684.265 288.371 674.456 290.775L674.466 290.891C679.417 289.89 684.255 288.254 688.885 286.227C693.516 284.199 698 281.832 702.422 279.412C706.843 276.992 711.202 274.518 715.696 272.268C720.191 270.017 724.884 268.042 729.524 266.131C738.857 262.245 748.355 258.93 757.397 254.366C761.892 252.115 766.241 249.526 770.589 246.936C774.992 244.283 779.34 241.694 783.553 238.881Z" fill="url(#paint17_linear)"/>
<path d="M785.715 239.519C778.469 227.131 771.117 214.869 763.596 202.68C759.804 196.559 756.022 190.554 752.229 184.433C748.437 178.312 744.761 172.181 741.085 166.05C733.787 153.725 726.096 141.608 718.352 129.555C714.507 123.496 710.608 117.501 706.709 111.506C702.811 105.511 698.912 99.5156 694.95 93.4672L694.897 93.5302C698.626 99.5981 702.418 105.719 706.21 111.841C710.003 117.962 713.785 123.967 717.63 130.025C725.321 142.141 733.119 154.132 740.64 166.321C744.432 172.442 748.214 178.447 751.89 184.578C755.566 190.709 759.189 196.903 762.865 203.034C770.449 215.277 777.97 227.466 785.715 239.519Z" fill="url(#paint18_linear)"/>
<path d="M869.636 157.6C863.193 158.96 856.751 160.321 850.318 161.798C843.885 163.274 837.506 164.688 830.952 165.414C827.706 165.803 824.441 165.96 821.156 165.885C819.519 165.905 817.881 165.925 816.2 166.125C814.573 166.262 812.955 166.515 811.284 166.83C804.831 168.075 798.316 169.265 791.845 170.277C778.858 172.48 765.861 174.566 752.854 176.536L733.376 179.517L713.825 182.329L713.835 182.446C720.389 181.72 726.88 180.941 733.425 180.099C739.969 179.256 746.451 178.361 752.986 177.403C765.992 175.433 778.979 173.23 791.947 170.795C798.399 169.551 804.851 168.307 811.366 167.116C817.809 165.756 824.466 166.953 831.073 166.164C837.691 165.492 844.123 164.015 850.493 162.485C856.853 160.839 863.223 159.309 869.636 157.6Z" fill="url(#paint19_linear)"/>
<path d="M785.293 239.379C779.22 234.679 773.316 229.906 767.359 225.195C764.354 222.872 761.349 220.548 758.388 218.045C755.436 215.659 752.474 213.156 749.629 210.643C743.822 205.628 738.025 200.729 731.899 196.091C725.826 191.391 719.603 186.996 713.06 182.979L713.007 183.042C719.23 187.437 725.356 192.074 731.366 196.722C737.377 201.369 743.343 206.195 749.247 210.968C752.198 213.355 755.213 215.795 758.112 218.244C759.561 219.469 761.01 220.694 762.46 221.919L766.807 225.593C772.847 230.589 778.857 235.236 785.293 239.379Z" fill="url(#paint20_linear)"/>
<path d="M793.434 339.153C787.037 326.401 780.532 313.775 773.859 301.222C770.522 294.946 767.069 288.679 763.732 282.402C760.395 276.126 757.111 269.786 753.891 263.5L734.368 225.506L714.792 187.575L714.739 187.638C717.737 194.06 720.851 200.473 724.082 206.875C727.249 213.225 730.363 219.637 733.647 225.977C740.098 238.665 746.771 251.218 753.508 263.825C756.845 270.101 760.182 276.378 763.465 282.717C766.749 289.057 769.916 295.406 773.2 301.746C779.801 314.129 786.538 326.736 793.434 339.153Z" fill="url(#paint21_linear)"/>
<path d="M793.595 340.369C793.592 336.154 793.536 332.002 793.481 327.851C793.362 323.646 793.422 319.484 792.955 315.308C792.716 313.162 792.255 311.152 792.026 309.122C791.734 307.039 791.621 305 791.678 302.888C791.681 300.838 791.855 298.716 791.911 296.604C791.94 295.548 791.968 294.492 791.997 293.436C792.025 292.38 792.054 291.323 791.966 290.277C791.844 281.857 790.507 273.598 789.349 265.382C788.191 257.167 787.14 248.825 787.493 240.482L787.377 240.492C786.495 248.821 787.324 257.298 788.482 265.514L790.224 277.895C790.745 282.008 791.212 286.184 791.501 290.316C791.589 291.362 791.56 292.419 791.585 293.412C791.61 294.405 791.644 295.514 791.553 296.517L791.319 302.801C791.262 304.913 791.322 307.015 791.498 309.108C791.673 311.201 792.081 313.274 792.194 315.314C792.37 317.406 792.482 319.446 792.542 321.548L792.773 327.793C792.955 332.051 793.19 336.246 793.595 340.369Z" fill="url(#paint22_linear)"/>
<path d="M787.105 240.047C787.965 244.014 789.682 247.733 791.622 251.317C793.616 254.838 795.832 258.223 798.101 261.545C800.37 264.867 802.702 268.242 804.855 271.574C807.125 274.896 809.288 278.344 811.45 281.792C815.713 288.635 820.092 295.468 824.577 302.175C829.009 308.945 833.547 315.589 838.202 322.223L838.256 322.16C834.046 315.254 829.73 308.474 825.298 301.704C820.866 294.934 816.381 288.227 811.896 281.52C809.627 278.198 807.411 274.813 805.195 271.428C802.978 268.043 800.932 264.586 798.716 261.201C796.5 257.816 794.231 254.494 792.237 250.973C790.075 247.525 788.304 243.868 787.105 240.047Z" fill="url(#paint23_linear)"/>
<path d="M670.722 293.02C665.896 298.987 661.394 305.336 657.188 311.718C655.117 314.937 653.055 318.271 650.921 321.436C648.849 324.654 646.598 327.828 644.464 330.993C640.078 337.332 635.693 343.672 631.487 350.055C627.228 356.5 623.085 362.937 618.951 369.489L619.014 369.542C623.526 363.309 627.848 356.917 632.17 350.524C636.493 344.131 640.636 337.695 644.832 331.196C646.904 327.978 649.028 324.697 651.163 321.532C653.297 318.368 655.548 315.193 657.746 312.081L670.722 293.02Z" fill="url(#paint24_linear)"/>
<path d="M792.5 341.28C786.368 351.22 780.164 360.991 773.78 370.718C770.619 375.608 767.395 380.445 764.109 385.228C762.497 387.647 760.696 389.905 758.958 392.217C758.063 393.405 757.221 394.529 756.325 395.716L753.566 399.109C751.702 401.315 749.848 403.636 748.299 406.108C746.687 408.527 745.265 411.105 743.895 413.62C742.472 416.198 741.103 418.713 739.554 421.185C738.005 423.657 736.268 425.968 734.341 428.121C732.477 430.326 730.497 432.541 728.822 434.906C727.094 437.335 725.725 439.85 724.365 442.481C723.058 445.05 721.699 447.681 720.087 450.099C718.538 452.571 716.737 454.83 714.495 456.716L714.558 456.769C716.863 454.936 718.843 452.721 720.455 450.303C722.067 447.884 723.49 445.306 724.859 442.791C726.282 440.213 727.714 437.751 729.452 435.439C731.19 433.127 733.117 430.975 734.981 428.769C736.844 426.564 738.699 424.242 740.247 421.771C741.796 419.299 743.156 416.668 744.525 414.152C745.895 411.637 747.255 409.006 748.803 406.534C750.352 404.062 752.09 401.751 753.891 399.492C761.021 390.288 767.837 380.817 774.41 371.25C780.847 361.46 786.916 351.467 792.5 341.28Z" fill="url(#paint25_linear)"/>
<path d="M791.539 338.199C786.868 335.547 781.799 333.748 776.634 332.192C771.469 330.635 766.313 329.194 761.308 327.448C751.19 324.083 741.29 319.821 731.443 315.496C721.596 311.17 711.813 306.899 701.922 302.753C697.004 300.648 692.032 298.607 687.06 296.566C682.089 294.524 677.117 292.483 672.155 290.558L672.102 290.621C677.03 292.841 681.895 295.009 686.814 297.113C691.732 299.218 696.66 301.438 701.579 303.543C711.416 307.751 721.359 311.834 731.24 315.864C736.212 317.905 741.184 319.947 746.102 322.051C751.074 324.092 755.939 326.26 761.008 328.059C771.154 331.773 781.78 333.516 791.539 338.199Z" fill="url(#paint26_linear)"/>
<path d="M790.49 341.742C776.026 343.776 761.643 346.095 747.271 348.531C732.879 350.734 718.424 352.885 703.94 354.686C689.456 356.487 674.982 358.405 660.517 360.438C653.285 361.455 646.052 362.472 638.82 363.489C631.588 364.506 624.418 365.576 617.196 366.709L617.206 366.826C624.448 365.925 631.69 365.024 638.932 364.124C646.174 363.223 653.416 362.322 660.648 361.306C675.123 359.388 689.524 357.301 704.042 355.204C711.275 354.187 718.497 353.054 725.676 352.1C732.909 351.083 740.151 350.183 747.393 349.282C761.712 346.909 776.2 344.464 790.49 341.742Z" fill="url(#paint27_linear)"/>
<path d="M716.462 456.433C712.171 442.978 708.229 429.493 704.341 415.945C702.37 409.202 700.336 402.407 698.534 395.592C696.617 388.786 694.931 381.961 693.13 375.146C689.643 361.506 686.094 347.812 682.437 334.245C680.636 327.43 678.718 320.624 676.863 313.872C675.009 307.12 673.144 300.251 671.173 293.509L671.057 293.519C672.742 300.344 674.49 307.222 676.229 313.984C677.977 320.862 679.716 327.624 681.517 334.439C685.12 348.07 688.839 361.69 692.612 375.248C694.529 382.053 696.331 388.869 698.132 395.684C699.934 402.499 701.735 409.314 703.537 416.129C707.488 429.731 711.663 443.196 716.462 456.433Z" fill="url(#paint28_linear)"/>
<path d="M716.134 458.1C707.777 450.606 699.377 443.291 690.861 435.985L684.38 430.617C682.238 428.806 680.042 427.058 677.953 425.185C673.722 421.501 670.032 417.303 666.237 413.231C662.494 409.096 658.199 405.358 654.031 401.727C649.799 398.043 645.568 394.359 641.346 390.791C637.115 387.107 632.83 383.486 628.555 379.981C624.27 376.36 619.985 372.739 615.647 369.181L615.594 369.244C619.772 372.991 623.95 376.738 628.119 380.369C632.35 384.053 636.529 387.8 640.751 391.368C644.982 395.052 649.267 398.673 653.489 402.241C655.631 404.052 657.773 405.862 659.863 407.736C661.952 409.61 663.988 411.546 665.907 413.493L671.739 419.501C673.722 421.501 675.757 423.437 677.847 425.311L690.425 436.373C698.888 443.741 707.395 450.93 716.124 457.984L716.134 458.1Z" fill="url(#paint29_linear)"/>
<path d="M678.989 512.149C674.394 499.948 669.407 487.956 664.133 476.047L656.027 458.287C653.364 452.363 650.754 446.377 648.091 440.454C642.818 428.544 637.607 416.688 632.218 404.788L624.228 387.018L616.291 369.185L616.238 369.248L619.926 378.305L623.666 387.299L627.523 396.284L631.433 405.205C636.706 417.115 642.202 428.888 647.645 440.725C650.362 446.586 653.088 452.562 655.751 458.485C658.415 464.409 660.908 470.405 663.402 476.401L678.989 512.149Z" fill="url(#paint30_linear)"/>
<path d="M617.999 493.443C617.383 490.977 617.168 488.419 617.069 485.852C617.034 483.337 617.168 480.75 617.186 478.173C617.338 473.009 617.499 467.96 617.651 462.796C617.786 452.54 617.804 442.294 618.35 432.062C618.565 426.951 618.78 421.839 618.994 416.728C619.146 411.564 619.245 406.462 619.164 401.318C619.066 391.081 618.556 380.821 617.581 370.599L617.465 370.609C617.912 380.816 618.189 391.096 618.288 401.333C618.305 406.424 618.27 411.579 618.234 416.734L617.885 432.101C617.804 434.625 617.786 437.202 617.652 439.789C617.571 442.313 617.553 444.891 617.419 447.478C617.267 452.642 616.989 457.7 616.838 462.864C616.623 467.975 616.587 473.13 616.488 478.232C616.471 480.809 616.39 483.333 616.551 485.954C616.756 488.395 617.097 491.06 617.999 493.443Z" fill="url(#paint31_linear)"/>
<path d="M616.991 371.936C605.669 380.731 594.474 389.633 583.352 398.704L575.086 405.544C572.292 407.828 569.615 410.101 566.758 412.332C563.954 414.499 560.971 416.623 557.959 418.398C554.83 420.182 551.619 421.681 548.418 423.296C545.217 424.912 542.088 426.696 539.294 428.98C536.437 431.21 533.895 433.706 531.164 436.043C529.857 437.207 528.434 438.38 527 439.437C525.567 440.494 524.07 441.498 522.574 442.501C519.635 444.446 516.516 446.347 513.649 448.461C507.8 452.698 502.59 457.585 497.254 462.365C491.918 467.145 486.456 471.818 480.325 475.494L480.388 475.548C486.655 472.094 492.233 467.411 497.642 462.801C503.104 458.127 508.376 453.294 514.173 449.119C517.04 447.005 520.105 445.167 523.098 443.16C524.594 442.156 526.09 441.152 527.524 440.096C528.957 439.039 530.318 437.812 531.625 436.649C534.293 434.259 536.835 431.762 539.629 429.479C542.423 427.195 545.425 425.304 548.563 423.635C551.702 421.967 554.903 420.352 558.032 418.567C561.097 416.729 564.027 414.668 566.884 412.438L583.74 399.139C594.998 390.291 606.067 381.283 616.991 371.936Z" fill="url(#paint32_linear)"/>
</g>
</g>
<g opacity="0.05" clip-path="url(#clip3)">
<path d="M246.844 224.146C247.203 238.419 247.293 252.782 247.383 267.055C247.472 281.328 247.203 295.691 247.293 309.964L247.383 331.418C247.383 338.599 247.383 345.691 247.293 352.872C247.113 360.054 246.933 367.145 246.574 374.327C246.215 381.508 245.766 388.6 245.137 395.781L244.958 395.422C250.257 400.09 255.286 405.117 260.226 410.144L274.866 425.405L274.776 425.494C272.261 423.071 269.746 420.557 267.232 418.044L259.777 410.503C254.747 405.476 249.718 400.629 244.329 396.051L244.149 395.871V395.602C244.778 388.51 245.227 381.329 245.586 374.237C245.945 367.145 246.215 359.964 246.395 352.783C246.844 338.51 247.023 324.147 246.933 309.874C246.933 295.601 246.484 281.238 246.484 266.965C246.484 252.692 246.484 238.329 246.664 224.056L246.844 224.146Z" fill="url(#paint33_linear)"/>
<path d="M245.945 381.957C248.28 384.829 250.795 387.433 253.4 389.946C256.005 392.46 258.968 394.704 261.753 397.038C264.537 399.372 267.231 401.975 269.746 404.668C272.261 407.361 274.686 410.144 276.931 413.016L277.021 413.106V413.196C276.662 422.352 276.393 431.598 276.482 440.754C276.572 445.333 276.662 449.911 276.842 454.579C276.931 456.823 277.111 459.157 277.201 461.491C277.291 463.825 277.291 466.069 277.291 468.403C277.291 472.981 277.38 477.649 277.201 482.227C277.201 483.394 277.111 484.561 277.021 485.728C276.931 486.895 276.931 487.972 276.842 489.139L276.752 496.051C276.662 505.207 276.662 514.454 276.393 523.61H276.303C276.033 514.454 276.033 505.207 275.943 496.051C275.943 493.717 275.854 491.473 275.943 489.139C275.943 487.972 276.033 486.805 276.123 485.638C276.213 484.471 276.213 483.394 276.303 482.227C276.393 477.649 276.482 473.071 276.482 468.403C276.482 466.069 276.482 463.825 276.393 461.491C276.393 459.157 276.213 456.913 276.123 454.579C275.943 450 275.943 445.333 276.033 440.754L276.303 413.196L276.393 413.375C274.057 410.593 271.632 407.81 269.118 405.207C266.603 402.603 263.998 400 261.304 397.576L257.082 394.075C255.645 392.908 254.298 391.652 253.041 390.305C250.436 387.792 248.101 385.009 245.945 381.957Z" fill="url(#paint34_linear)"/>
<path d="M263.908 271.184C264.807 276.211 264.807 281.418 264.717 286.445C264.627 291.561 264.537 296.678 264.358 301.705C264.178 306.822 264.178 311.938 264.268 316.965C264.358 322.082 264.627 327.199 264.896 332.226L264.807 331.957C267.142 334.56 269.836 336.804 272.531 339.048C275.225 341.292 277.92 343.537 280.434 345.96C282.949 348.384 285.464 350.898 287.889 353.321C290.404 355.835 292.829 358.258 295.254 360.862L295.164 360.952C292.559 358.618 289.955 356.194 287.44 353.86L279.806 346.678C277.291 344.255 274.596 342.1 271.902 339.766C269.208 337.522 266.603 335.188 264.268 332.495L264.178 332.405V332.226C264.088 327.109 264.088 321.992 264.088 316.876C264.088 311.759 263.998 306.642 263.908 301.525C263.819 296.409 263.908 291.292 264.178 286.175C264.268 283.662 264.358 281.058 264.358 278.545C264.178 276.301 264.088 273.787 263.908 271.184Z" fill="url(#paint35_linear)"/>
<path d="M264.986 321.633C267.232 324.326 269.836 326.481 272.441 328.815C273.698 329.982 274.956 331.238 276.123 332.495C277.381 333.752 278.458 335.098 279.716 336.265C282.231 338.689 284.925 340.844 287.53 342.998C290.134 345.242 292.739 347.576 294.895 350.449L294.805 350.538C292.29 348.115 289.595 345.96 286.901 343.806C284.207 341.562 281.602 339.317 279.267 336.624C278.099 335.278 277.111 333.931 275.854 332.675C274.596 331.508 273.249 330.431 271.902 329.353C269.297 327.199 266.693 324.775 264.986 321.633Z" fill="url(#paint36_linear)"/>
<path d="M295.074 350.538C294.895 359.784 295.882 369.03 295.972 378.276C296.062 382.944 295.523 387.523 295.344 392.19C295.254 393.357 295.254 394.524 295.164 395.691V399.192C295.164 401.526 295.164 403.86 295.254 406.104C295.433 415.35 295.613 424.596 295.613 433.932C295.613 443.178 295.523 452.424 295.344 461.76H295.254C294.895 452.514 294.715 443.268 294.715 433.932C294.625 424.686 294.715 415.44 294.805 406.104L294.895 399.192V395.691L294.984 392.19C295.164 387.523 295.344 382.944 295.164 378.276C294.984 369.03 294.266 359.784 295.074 350.538Z" fill="url(#paint37_linear)"/>
<path d="M264.717 358.797C267.86 360.054 270.195 362.657 272.351 365.171C274.507 367.684 276.752 370.108 279.087 372.442C283.847 377.02 288.967 381.239 293.996 385.638C296.511 387.882 298.936 390.036 301.271 392.46C303.607 394.884 305.942 397.218 308.187 399.642C312.678 404.489 317.169 409.426 321.659 414.363L321.749 414.453V414.633C321.929 418.403 322.019 422.263 322.108 426.033C322.108 429.803 322.198 433.663 322.108 437.434C322.019 441.204 322.019 445.064 321.929 448.834C321.839 452.604 321.659 456.464 321.57 460.235H321.48C321.39 456.464 321.39 452.604 321.39 448.834L321.3 437.434L321.12 426.033C321.031 422.263 321.031 418.493 320.851 414.633L320.941 414.902C316.54 409.965 312.229 404.938 307.828 399.911C306.75 398.654 305.583 397.487 304.505 396.23C303.337 395.063 302.259 393.807 301.092 392.64C298.757 390.306 296.242 388.151 293.637 385.997C288.518 381.778 283.219 377.649 278.548 372.981C276.213 370.647 273.968 368.133 271.902 365.53C269.836 363.016 267.681 360.323 264.717 358.797Z" fill="url(#paint38_linear)"/>
<path d="M226.905 269.568C227.084 273.967 227.264 278.276 227.354 282.674C227.444 287.073 227.623 291.382 227.713 295.78C227.803 300.179 227.893 304.488 227.983 308.886C228.072 313.285 228.072 317.594 228.072 321.992V322.172L227.983 322.262C225.198 324.326 222.414 326.571 219.899 328.994C217.384 331.418 215.319 334.291 212.894 336.804C210.469 339.407 207.774 341.652 204.99 343.806L196.727 350.359L196.817 350.09C197.266 358.348 197.535 366.607 197.446 374.865C197.446 378.995 197.356 383.124 197.176 387.253C197.086 391.383 197.446 395.512 197.446 399.641V399.911L197.266 400C194.751 401.526 192.865 403.771 190.889 406.015C189.003 408.259 186.937 410.503 184.871 412.658C182.806 414.812 180.65 416.877 178.315 418.762C176.07 420.737 173.734 422.532 171.309 424.327L171.22 424.238C173.555 422.352 175.8 420.467 177.956 418.403C180.111 416.428 182.267 414.363 184.333 412.209C186.398 410.054 188.374 407.81 190.26 405.566C192.146 403.322 194.122 400.898 196.727 399.282L196.547 399.641C196.547 395.512 196.098 391.383 196.188 387.253C196.278 383.124 196.458 378.995 196.458 374.865C196.547 366.607 196.458 358.348 196.188 350.09V349.91L196.278 349.82L204.631 343.357C207.415 341.203 210.109 338.959 212.534 336.445C214.959 333.932 216.935 330.969 219.45 328.545C221.965 326.032 224.659 323.788 227.444 321.633L227.354 321.903C227.264 317.504 227.084 313.195 226.995 308.797C226.905 304.398 226.905 300.089 226.815 295.691C226.725 291.292 226.725 286.983 226.725 282.585C226.725 278.186 226.725 273.877 226.725 269.479L226.905 269.568Z" fill="url(#paint39_linear)"/>
<path d="M196.996 388.78C192.416 392.909 188.015 397.038 183.614 401.257C181.459 403.412 179.303 405.566 177.147 407.72C174.992 409.875 172.836 412.029 170.771 414.273L170.86 414.094L171.399 435.907C171.579 443.179 171.669 450.45 171.579 457.721C171.489 464.992 171.309 472.263 171.04 479.534C170.95 481.33 170.86 483.215 170.86 484.92C170.86 485.818 170.86 486.716 171.04 487.613C171.13 488.511 171.399 489.409 171.579 490.217C172.477 493.807 172.567 497.488 171.759 501.079H171.669C172.208 497.488 171.938 493.807 171.04 490.307C170.771 489.409 170.591 488.511 170.411 487.613C170.232 486.716 170.232 485.728 170.142 484.831C170.142 483.035 170.232 481.15 170.232 479.355L170.771 457.541C170.95 450.27 171.04 442.999 171.13 435.728C171.13 428.457 170.95 421.186 170.411 413.914V413.825L170.501 413.735C172.567 411.491 174.633 409.247 176.788 407.002C178.944 404.758 181.099 402.693 183.345 400.539C187.566 396.5 192.146 392.55 196.996 388.78Z" fill="url(#paint40_linear)"/>
<path d="M197.535 399.731C197.446 409.695 197.176 419.749 196.907 429.713C196.727 434.74 196.547 439.677 196.547 444.704C196.458 449.731 196.547 454.669 196.637 459.696L197.356 489.678C197.535 499.642 197.715 509.696 197.715 519.66H197.625C197.086 509.696 196.637 499.642 196.458 489.678C196.188 479.714 196.008 469.66 196.098 459.696C196.188 454.669 196.188 449.731 196.188 444.704V429.713C196.278 419.749 196.727 409.695 197.446 399.731H197.535Z" fill="url(#paint41_linear)"/>
<path d="M93.44 382.675C93.7094 391.203 93.7992 399.731 93.889 408.259C93.9789 416.787 93.889 425.315 93.7094 433.842C93.6196 442.37 93.7992 450.898 93.889 459.426L93.9789 465.8V466.608C93.9789 466.787 94.0687 467.056 94.1585 467.236C94.2483 467.326 94.2483 467.416 94.3381 467.505C94.4279 467.595 94.4279 467.595 94.6076 467.685L95.2363 468.223L97.7511 470.288L100.176 472.353C100.984 472.981 101.883 473.609 102.691 474.238C103.499 474.776 104.487 475.315 105.385 476.033C106.283 476.751 107.002 477.559 107.631 478.547L107.721 478.636V478.816C107.541 482.496 107.451 486.267 107.361 489.947C107.361 493.628 107.361 497.398 107.451 501.078C107.541 504.759 107.631 508.529 107.81 512.209L108.259 523.341H108.17C107.9 519.66 107.541 515.89 107.361 512.209C107.092 508.529 106.912 504.759 106.822 501.078C106.643 497.398 106.553 493.628 106.553 489.947C106.553 486.267 106.643 482.496 106.822 478.816L106.912 479.085C106.373 478.188 105.655 477.469 104.936 476.841C104.128 476.213 103.23 475.764 102.332 475.136C101.523 474.507 100.625 473.789 99.8168 473.161L97.3918 471.096L94.9668 469.031L94.3381 468.493C94.2483 468.403 94.0687 468.313 93.9789 468.134C93.889 468.044 93.7992 467.864 93.7094 467.685C93.6196 467.416 93.5298 467.146 93.44 466.787C93.44 466.518 93.44 466.249 93.44 465.979L93.5298 459.606C93.6196 451.078 93.7094 442.55 93.5298 434.022C93.3502 425.494 93.1705 416.966 93.2603 408.438C93.2603 399.91 93.3502 391.382 93.5298 382.855L93.44 382.675Z" fill="url(#paint42_linear)"/>
<path d="M90.3862 381.867C88.4103 383.663 86.4344 385.458 84.5483 387.433C82.6622 389.318 80.8659 391.293 79.0696 393.358L73.7705 399.462C71.9742 401.437 70.1779 403.501 68.0223 405.207L68.1122 405.027C68.202 407.99 68.202 410.952 68.202 413.914C68.202 416.877 68.202 419.839 68.202 422.801L68.1122 427.29L68.0223 431.778C67.9325 434.74 67.8427 437.703 67.6631 440.665H67.5733C67.4835 437.703 67.3936 434.74 67.3038 431.778V427.29V422.801C67.3038 419.839 67.3936 416.877 67.4835 413.914C67.5733 410.952 67.6631 407.99 67.7529 405.027V404.938L67.8427 404.848C69.9983 403.232 71.8844 401.257 73.5909 399.193C75.2974 397.128 76.8242 394.884 78.6205 392.819C80.327 390.754 82.2131 388.78 84.189 386.984C86.0751 385.099 88.1409 383.393 90.3862 381.867Z" fill="url(#paint43_linear)"/>
<path d="M93.3501 390.216C91.0149 392.011 88.7696 393.896 86.7038 395.871C85.626 396.859 84.5483 397.846 83.5603 398.923C82.5723 400 81.6742 401.167 80.6862 402.334C78.8899 404.668 76.8242 406.823 74.6686 408.887C72.5131 410.862 70.1779 412.747 67.7529 414.363L67.6631 414.273L73.9501 408.169C76.1057 406.194 78.1714 404.13 80.2372 401.975C81.2251 400.898 82.3029 399.821 83.201 398.744C84.189 397.667 85.0872 396.41 86.0751 395.333C88.2307 393.268 90.6557 391.473 93.3501 390.216Z" fill="url(#paint44_linear)"/>
<path d="M246.305 329.802C243.61 332.136 240.916 334.56 238.401 337.073C235.797 339.587 233.372 342.19 231.036 344.883C228.611 347.576 226.366 350.359 223.851 352.872C221.247 355.386 218.552 357.72 215.858 360.054L215.947 359.964L216.127 375.673C216.127 380.88 216.127 386.086 216.037 391.383C215.947 396.589 215.858 401.796 215.768 407.092C215.678 412.299 215.498 417.505 215.409 422.801H215.319C215.139 417.595 215.049 412.388 215.049 407.092C215.049 401.885 215.049 396.679 215.139 391.383L215.409 375.673C215.498 370.467 215.678 365.26 215.678 359.964V359.874H215.768C218.462 357.54 221.157 355.117 223.582 352.513C224.839 351.257 225.917 349.82 227.084 348.474L230.587 344.345C233.012 341.652 235.527 339.048 238.132 336.625C240.557 334.201 243.341 331.867 246.305 329.802Z" fill="url(#paint45_linear)"/>
<path d="M230.407 371.095C230.767 374.506 230.946 377.918 231.036 381.418C231.126 383.124 231.126 384.83 231.126 386.535L231.036 391.652C230.946 395.063 231.036 398.474 231.126 401.975C231.216 405.386 231.216 408.887 231.126 412.298L231.036 412.029C232.114 413.286 233.192 414.632 234.18 415.889L235.796 417.864C236.335 418.492 236.874 419.121 237.413 419.749C239.569 422.263 241.724 424.776 243.88 427.379L243.79 427.469C241.455 425.135 239.119 422.712 236.784 420.288C235.617 419.121 234.539 417.774 233.461 416.518C232.383 415.261 231.306 413.914 230.318 412.658L230.228 412.478V412.298C230.318 408.887 230.407 405.476 230.587 401.975C230.767 398.564 230.767 395.153 230.677 391.652L230.407 386.535C230.407 384.83 230.318 383.124 230.318 381.418C230.318 378.007 230.228 374.596 230.318 371.095H230.407Z" fill="url(#paint46_linear)"/>
<path d="M204.99 387.702C204.721 392.191 200.948 395.422 196.996 395.691C192.955 396.051 189.542 392.37 189.003 387.702C189.093 383.932 191.877 378.995 196.996 379.713C202.116 379.982 205.708 383.393 204.99 387.702Z" fill="url(#paint47_linear)"/>
<path d="M235.796 263.913C235.527 268.401 231.755 271.633 227.803 271.902C223.761 272.261 220.348 268.581 219.809 263.913C219.899 260.143 222.684 255.205 227.803 255.924C232.922 256.193 236.515 259.694 235.796 263.913Z" fill="url(#paint48_linear)"/>
<path d="M272.98 263.913C272.71 268.401 268.938 271.633 264.986 271.902C260.945 272.261 257.532 268.581 256.993 263.913C257.082 260.143 259.867 255.205 264.986 255.924C270.106 256.193 273.698 259.694 272.98 263.913Z" fill="url(#paint49_linear)"/>
<path d="M255.196 216.874C254.927 221.363 251.155 224.594 247.203 224.864C243.161 225.223 239.748 221.542 239.209 216.874C239.299 213.104 242.083 208.167 247.203 208.885C252.233 209.154 255.915 212.655 255.196 216.874Z" fill="url(#paint50_linear)"/>
<path d="M303.607 387.702C303.337 392.191 299.565 395.422 295.613 395.691C291.571 396.051 288.158 392.37 287.62 387.702C287.709 383.932 290.494 378.995 295.613 379.713C300.643 379.982 304.325 383.393 303.607 387.702Z" fill="url(#paint51_linear)"/>
<path d="M101.433 378.277C101.164 382.765 97.3918 385.997 93.4399 386.266C89.3983 386.625 85.9853 382.944 85.4464 378.277C85.5362 374.506 88.3205 369.569 93.4399 370.287C98.4696 370.557 102.062 374.058 101.433 378.277Z" fill="url(#paint52_linear)"/>
<path d="M267.681 358.887C267.501 361.041 265.705 362.567 263.819 362.747C261.933 362.926 260.226 361.221 259.957 358.887C259.957 357.091 261.304 354.757 263.819 355.027C266.334 355.116 268.04 356.822 267.681 358.887Z" fill="url(#paint53_linear)"/>
<path d="M234.539 367.864C234.359 370.018 232.563 371.544 230.677 371.724C228.791 371.903 227.084 370.197 226.815 367.864C226.815 366.068 228.162 363.734 230.677 364.004C233.102 364.183 234.898 365.889 234.539 367.864Z" fill="url(#paint54_linear)"/>
<path d="M250.077 329.802C249.897 331.956 248.101 333.482 246.215 333.662C244.329 333.842 242.622 332.136 242.353 329.802C242.353 328.007 243.7 325.673 246.215 325.942C248.73 326.122 250.436 327.737 250.077 329.802Z" fill="url(#paint55_linear)"/>
<path d="M231.665 298.563C231.485 300.718 229.689 302.244 227.803 302.423C225.917 302.603 224.21 300.897 223.941 298.563C223.941 296.768 225.288 294.434 227.803 294.703C230.228 294.883 231.934 296.499 231.665 298.563Z" fill="url(#paint56_linear)"/>
<path d="M250.975 263.913C250.795 266.067 248.999 267.593 247.113 267.773C245.227 267.952 243.52 266.247 243.251 263.913C243.251 262.117 244.598 259.783 247.113 260.053C249.628 260.232 251.334 261.848 250.975 263.913Z" fill="url(#paint57_linear)"/>
</g>
</g>
<defs>
<linearGradient id="paint0_linear" x1="657.973" y1="6.98107" x2="651.338" y2="14.8313" gradientUnits="userSpaceOnUse">
<stop stop-color="#FFF8EE"/>
<stop offset="1" stop-color="#FFF8EE" stop-opacity="0"/>
</linearGradient>
<linearGradient id="paint1_linear" x1="699.465" y1="86.9822" x2="692.831" y2="94.8317" gradientUnits="userSpaceOnUse">
<stop stop-color="#FFF8EE"/>
<stop offset="1" stop-color="#FFF8EE" stop-opacity="0"/>
</linearGradient>
<linearGradient id="paint2_linear" x1="717.838" y1="179.633" x2="711.205" y2="187.483" gradientUnits="userSpaceOnUse">
<stop stop-color="#FFF8EE"/>
<stop offset="1" stop-color="#FFF8EE" stop-opacity="0"/>
</linearGradient>
<linearGradient id="paint3_linear" x1="625.13" y1="188.993" x2="618.496" y2="196.842" gradientUnits="userSpaceOnUse">
<stop stop-color="#FFF8EE"/>
<stop offset="1" stop-color="#FFF8EE" stop-opacity="0"/>
</linearGradient>
<linearGradient id="paint4_linear" x1="675.906" y1="287.533" x2="669.272" y2="295.382" gradientUnits="userSpaceOnUse">
<stop stop-color="#FFF8EE"/>
<stop offset="1" stop-color="#FFF8EE" stop-opacity="0"/>
</linearGradient>
<linearGradient id="paint5_linear" x1="619.955" y1="365.113" x2="613.321" y2="372.963" gradientUnits="userSpaceOnUse">
<stop stop-color="#FFF8EE"/>
<stop offset="1" stop-color="#FFF8EE" stop-opacity="0"/>
</linearGradient>
<linearGradient id="paint6_linear" x1="755.888" y1="31.0105" x2="703.968" y2="92.4469" gradientUnits="userSpaceOnUse">
<stop stop-color="#FFF8EE"/>
<stop offset="1" stop-color="#FFF8EE" stop-opacity="0"/>
</linearGradient>
<linearGradient id="paint7_linear" x1="685.616" y1="39.456" x2="664.475" y2="64.4716" gradientUnits="userSpaceOnUse">
<stop stop-color="#FFF8EE"/>
<stop offset="1" stop-color="#FFF8EE" stop-opacity="0"/>
</linearGradient>
<linearGradient id="paint8_linear" x1="787.042" y1="56.5828" x2="731.927" y2="121.8" gradientUnits="userSpaceOnUse">
<stop stop-color="#FFF8EE"/>
<stop offset="1" stop-color="#FFF8EE" stop-opacity="0"/>
</linearGradient>
<linearGradient id="paint9_linear" x1="803.463" y1="100.164" x2="762.033" y2="149.187" gradientUnits="userSpaceOnUse">
<stop stop-color="#FFF8EE"/>
<stop offset="1" stop-color="#FFF8EE" stop-opacity="0"/>
</linearGradient>
<linearGradient id="paint10_linear" x1="698.649" y1="93.2446" x2="617.706" y2="189.022" gradientUnits="userSpaceOnUse">
<stop stop-color="#FFF8EE"/>
<stop offset="1" stop-color="#FFF8EE" stop-opacity="0"/>
</linearGradient>
<linearGradient id="paint11_linear" x1="688.991" y1="41.6607" x2="586.002" y2="163.525" gradientUnits="userSpaceOnUse">
<stop stop-color="#FFF8EE"/>
<stop offset="1" stop-color="#FFF8EE" stop-opacity="0"/>
</linearGradient>
<linearGradient id="paint12_linear" x1="689.849" y1="162.067" x2="646.502" y2="213.358" gradientUnits="userSpaceOnUse">
<stop stop-color="#FFF8EE"/>
<stop offset="1" stop-color="#FFF8EE" stop-opacity="0"/>
</linearGradient>
<linearGradient id="paint13_linear" x1="722.68" y1="116.254" x2="686.096" y2="159.543" gradientUnits="userSpaceOnUse">
<stop stop-color="#FFF8EE"/>
<stop offset="1" stop-color="#FFF8EE" stop-opacity="0"/>
</linearGradient>
<linearGradient id="paint14_linear" x1="728.362" y1="195.803" x2="658.496" y2="278.474" gradientUnits="userSpaceOnUse">
<stop stop-color="#FFF8EE"/>
<stop offset="1" stop-color="#FFF8EE" stop-opacity="0"/>
</linearGradient>
<linearGradient id="paint15_linear" x1="660.932" y1="225.553" x2="632.389" y2="259.327" gradientUnits="userSpaceOnUse">
<stop stop-color="#FFF8EE"/>
<stop offset="1" stop-color="#FFF8EE" stop-opacity="0"/>
</linearGradient>
<linearGradient id="paint16_linear" x1="738.319" y1="126.122" x2="628.939" y2="255.548" gradientUnits="userSpaceOnUse">
<stop stop-color="#FFF8EE"/>
<stop offset="1" stop-color="#FFF8EE" stop-opacity="0"/>
</linearGradient>
<linearGradient id="paint17_linear" x1="764.524" y1="222.799" x2="693.432" y2="306.92" gradientUnits="userSpaceOnUse">
<stop stop-color="#FFF8EE"/>
<stop offset="1" stop-color="#FFF8EE" stop-opacity="0"/>
</linearGradient>
<linearGradient id="paint18_linear" x1="757.426" y1="146.267" x2="723.238" y2="186.72" gradientUnits="userSpaceOnUse">
<stop stop-color="#FFF8EE"/>
<stop offset="1" stop-color="#FFF8EE" stop-opacity="0"/>
</linearGradient>
<linearGradient id="paint19_linear" x1="830.285" y1="124.344" x2="753.123" y2="215.648" gradientUnits="userSpaceOnUse">
<stop stop-color="#FFF8EE"/>
<stop offset="1" stop-color="#FFF8EE" stop-opacity="0"/>
</linearGradient>
<linearGradient id="paint20_linear" x1="750.321" y1="209.824" x2="747.978" y2="212.597" gradientUnits="userSpaceOnUse">
<stop stop-color="#FFF8EE"/>
<stop offset="1" stop-color="#FFF8EE" stop-opacity="0"/>
</linearGradient>
<linearGradient id="paint21_linear" x1="775.095" y1="238.538" x2="733.132" y2="288.191" gradientUnits="userSpaceOnUse">
<stop stop-color="#FFF8EE"/>
<stop offset="1" stop-color="#FFF8EE" stop-opacity="0"/>
</linearGradient>
<linearGradient id="paint22_linear" x1="813.863" y1="262.768" x2="767.161" y2="318.03" gradientUnits="userSpaceOnUse">
<stop stop-color="#FFF8EE"/>
<stop offset="1" stop-color="#FFF8EE" stop-opacity="0"/>
</linearGradient>
<linearGradient id="paint23_linear" x1="822.266" y1="269.761" x2="803.042" y2="292.508" gradientUnits="userSpaceOnUse">
<stop stop-color="#FFF8EE"/>
<stop offset="1" stop-color="#FFF8EE" stop-opacity="0"/>
</linearGradient>
<linearGradient id="paint24_linear" x1="674.503" y1="296.215" x2="615.234" y2="366.347" gradientUnits="userSpaceOnUse">
<stop stop-color="#FFF8EE"/>
<stop offset="1" stop-color="#FFF8EE" stop-opacity="0"/>
</linearGradient>
<linearGradient id="paint25_linear" x1="798.434" y1="346.295" x2="709.024" y2="452.092" gradientUnits="userSpaceOnUse">
<stop stop-color="#FFF8EE"/>
<stop offset="1" stop-color="#FFF8EE" stop-opacity="0"/>
</linearGradient>
<linearGradient id="paint26_linear" x1="744.974" y1="298.846" x2="718.667" y2="329.974" gradientUnits="userSpaceOnUse">
<stop stop-color="#FFF8EE"/>
<stop offset="1" stop-color="#FFF8EE" stop-opacity="0"/>
</linearGradient>
<linearGradient id="paint27_linear" x1="746.099" y1="304.226" x2="661.534" y2="404.288" gradientUnits="userSpaceOnUse">
<stop stop-color="#FFF8EE"/>
<stop offset="1" stop-color="#FFF8EE" stop-opacity="0"/>
</linearGradient>
<linearGradient id="paint28_linear" x1="724.513" y1="338.587" x2="663.06" y2="411.302" gradientUnits="userSpaceOnUse">
<stop stop-color="#FFF8EE"/>
<stop offset="1" stop-color="#FFF8EE" stop-opacity="0"/>
</linearGradient>
<linearGradient id="paint29_linear" x1="666.969" y1="412.364" x2="664.831" y2="414.894" gradientUnits="userSpaceOnUse">
<stop stop-color="#FFF8EE"/>
<stop offset="1" stop-color="#FFF8EE" stop-opacity="0"/>
</linearGradient>
<linearGradient id="paint30_linear" x1="669.82" y1="414.423" x2="625.461" y2="466.912" gradientUnits="userSpaceOnUse">
<stop stop-color="#FFF8EE"/>
<stop offset="1" stop-color="#FFF8EE" stop-opacity="0"/>
</linearGradient>
<linearGradient id="paint31_linear" x1="647.953" y1="396.267" x2="587.565" y2="467.722" gradientUnits="userSpaceOnUse">
<stop stop-color="#FFF8EE"/>
<stop offset="1" stop-color="#FFF8EE" stop-opacity="0"/>
</linearGradient>
<linearGradient id="paint32_linear" x1="602.656" y1="359.821" x2="494.66" y2="487.609" gradientUnits="userSpaceOnUse">
<stop stop-color="#FFF8EE"/>
<stop offset="1" stop-color="#FFF8EE" stop-opacity="0"/>
</linearGradient>
<linearGradient id="paint33_linear" x1="259.508" y1="224.056" x2="259.508" y2="425.494" gradientUnits="userSpaceOnUse">
<stop stop-color="#FFF8EE"/>
<stop offset="1" stop-color="#FFF8EE" stop-opacity="0"/>
</linearGradient>
<linearGradient id="paint34_linear" x1="261.629" y1="381.957" x2="261.629" y2="523.61" gradientUnits="userSpaceOnUse">
<stop stop-color="#FFF8EE"/>
<stop offset="1" stop-color="#FFF8EE" stop-opacity="0"/>
</linearGradient>
<linearGradient id="paint35_linear" x1="279.564" y1="271.184" x2="279.564" y2="360.952" gradientUnits="userSpaceOnUse">
<stop stop-color="#FFF8EE"/>
<stop offset="1" stop-color="#FFF8EE" stop-opacity="0"/>
</linearGradient>
<linearGradient id="paint36_linear" x1="279.94" y1="321.633" x2="279.94" y2="350.538" gradientUnits="userSpaceOnUse">
<stop stop-color="#FFF8EE"/>
<stop offset="1" stop-color="#FFF8EE" stop-opacity="0"/>
</linearGradient>
<linearGradient id="paint37_linear" x1="295.33" y1="350.538" x2="295.33" y2="461.76" gradientUnits="userSpaceOnUse">
<stop stop-color="#FFF8EE"/>
<stop offset="1" stop-color="#FFF8EE" stop-opacity="0"/>
</linearGradient>
<linearGradient id="paint38_linear" x1="293.433" y1="358.797" x2="293.433" y2="460.235" gradientUnits="userSpaceOnUse">
<stop stop-color="#FFF8EE"/>
<stop offset="1" stop-color="#FFF8EE" stop-opacity="0"/>
</linearGradient>
<linearGradient id="paint39_linear" x1="199.646" y1="269.479" x2="199.646" y2="424.327" gradientUnits="userSpaceOnUse">
<stop stop-color="#FFF8EE"/>
<stop offset="1" stop-color="#FFF8EE" stop-opacity="0"/>
</linearGradient>
<linearGradient id="paint40_linear" x1="183.569" y1="388.78" x2="183.569" y2="501.079" gradientUnits="userSpaceOnUse">
<stop stop-color="#FFF8EE"/>
<stop offset="1" stop-color="#FFF8EE" stop-opacity="0"/>
</linearGradient>
<linearGradient id="paint41_linear" x1="196.895" y1="399.731" x2="196.895" y2="519.66" gradientUnits="userSpaceOnUse">
<stop stop-color="#FFF8EE"/>
<stop offset="1" stop-color="#FFF8EE" stop-opacity="0"/>
</linearGradient>
<linearGradient id="paint42_linear" x1="100.748" y1="382.675" x2="100.748" y2="523.341" gradientUnits="userSpaceOnUse">
<stop stop-color="#FFF8EE"/>
<stop offset="1" stop-color="#FFF8EE" stop-opacity="0"/>
</linearGradient>
<linearGradient id="paint43_linear" x1="78.845" y1="381.867" x2="78.845" y2="440.665" gradientUnits="userSpaceOnUse">
<stop stop-color="#FFF8EE"/>
<stop offset="1" stop-color="#FFF8EE" stop-opacity="0"/>
</linearGradient>
<linearGradient id="paint44_linear" x1="80.5066" y1="390.216" x2="80.5066" y2="414.363" gradientUnits="userSpaceOnUse">
<stop stop-color="#FFF8EE"/>
<stop offset="1" stop-color="#FFF8EE" stop-opacity="0"/>
</linearGradient>
<linearGradient id="paint45_linear" x1="230.677" y1="329.802" x2="230.677" y2="422.801" gradientUnits="userSpaceOnUse">
<stop stop-color="#FFF8EE"/>
<stop offset="1" stop-color="#FFF8EE" stop-opacity="0"/>
</linearGradient>
<linearGradient id="paint46_linear" x1="237.054" y1="371.095" x2="237.054" y2="427.469" gradientUnits="userSpaceOnUse">
<stop stop-color="#FFF8EE"/>
<stop offset="1" stop-color="#FFF8EE" stop-opacity="0"/>
</linearGradient>
<linearGradient id="paint47_linear" x1="197.042" y1="379.643" x2="197.042" y2="395.716" gradientUnits="userSpaceOnUse">
<stop stop-color="#FFF8EE"/>
<stop offset="1" stop-color="#FFF8EE" stop-opacity="0"/>
</linearGradient>
<linearGradient id="paint48_linear" x1="227.849" y1="255.853" x2="227.849" y2="271.926" gradientUnits="userSpaceOnUse">
<stop stop-color="#FFF8EE"/>
<stop offset="1" stop-color="#FFF8EE" stop-opacity="0"/>
</linearGradient>
<linearGradient id="paint49_linear" x1="265.032" y1="255.853" x2="265.032" y2="271.926" gradientUnits="userSpaceOnUse">
<stop stop-color="#FFF8EE"/>
<stop offset="1" stop-color="#FFF8EE" stop-opacity="0"/>
</linearGradient>
<linearGradient id="paint50_linear" x1="247.248" y1="208.815" x2="247.248" y2="224.888" gradientUnits="userSpaceOnUse">
<stop stop-color="#FFF8EE"/>
<stop offset="1" stop-color="#FFF8EE" stop-opacity="0"/>
</linearGradient>
<linearGradient id="paint51_linear" x1="295.658" y1="379.643" x2="295.658" y2="395.716" gradientUnits="userSpaceOnUse">
<stop stop-color="#FFF8EE"/>
<stop offset="1" stop-color="#FFF8EE" stop-opacity="0"/>
</linearGradient>
<linearGradient id="paint52_linear" x1="93.4756" y1="370.217" x2="93.4756" y2="386.29" gradientUnits="userSpaceOnUse">
<stop stop-color="#FFF8EE"/>
<stop offset="1" stop-color="#FFF8EE" stop-opacity="0"/>
</linearGradient>
<linearGradient id="paint53_linear" x1="263.843" y1="355.005" x2="263.843" y2="362.76" gradientUnits="userSpaceOnUse">
<stop stop-color="#FFF8EE"/>
<stop offset="1" stop-color="#FFF8EE" stop-opacity="0"/>
</linearGradient>
<linearGradient id="paint54_linear" x1="230.7" y1="363.982" x2="230.7" y2="371.737" gradientUnits="userSpaceOnUse">
<stop stop-color="#FFF8EE"/>
<stop offset="1" stop-color="#FFF8EE" stop-opacity="0"/>
</linearGradient>
<linearGradient id="paint55_linear" x1="246.239" y1="325.921" x2="246.239" y2="333.675" gradientUnits="userSpaceOnUse">
<stop stop-color="#FFF8EE"/>
<stop offset="1" stop-color="#FFF8EE" stop-opacity="0"/>
</linearGradient>
<linearGradient id="paint56_linear" x1="227.817" y1="294.682" x2="227.817" y2="302.436" gradientUnits="userSpaceOnUse">
<stop stop-color="#FFF8EE"/>
<stop offset="1" stop-color="#FFF8EE" stop-opacity="0"/>
</linearGradient>
<linearGradient id="paint57_linear" x1="247.137" y1="260.031" x2="247.137" y2="267.786" gradientUnits="userSpaceOnUse">
<stop stop-color="#FFF8EE"/>
<stop offset="1" stop-color="#FFF8EE" stop-opacity="0"/>
</linearGradient>
<clipPath id="clip0">
<rect width="768" height="400" fill="white"/>
</clipPath>
<clipPath id="clip1">
<rect width="198" height="400.125" fill="white" transform="translate(570)"/>
</clipPath>
<clipPath id="clip2">
<rect width="353.347" height="532.62" fill="white" transform="matrix(-0.763778 -0.645479 -0.645479 0.763778 957.624 191.778)"/>
</clipPath>
<clipPath id="clip3">
<rect width="291" height="193" fill="white" transform="translate(40 207)"/>
</clipPath>
</defs>
</svg>
