<svg xmlns="http://www.w3.org/2000/svg" xmlns:xlink="http://www.w3.org/1999/xlink" width="320" height="600" fill="none"  xmlns:v="https://vecta.io/nano"><path fill="#000" d="M0 0h320v600H0z"/><g opacity=".2" clip-path="url(#h)"><g clip-path="url(#i)"><path d="M177.872 124.223c-2.4 2.686-1.598 7.16.734 8.738 2.826 2.388 6.578 2.286 8.737-.734 1.848-2.496 1.482-6.865-.733-8.737-2.568-2.694-6.578-2.286-8.738.733z" fill="url(#A)"/><path d="M228.162 221.19c-2.4 2.685-1.599 7.159.733 8.737 2.826 2.389 6.579 2.287 8.738-.733 1.848-2.497 1.481-6.866-.734-8.737-2.567-2.694-6.566-2.146-8.737.733z" fill="url(#B)"/><path d="M250.433 333.494c-2.4 2.685-1.599 7.159.733 8.738 2.826 2.388 6.579 2.286 8.738-.734 1.848-2.497 1.481-6.865-.734-8.737-2.567-2.694-6.566-2.145-8.737.733z" fill="url(#C)"/><path d="M138.063 344.843c-2.4 2.685-1.598 7.159.734 8.737 2.826 2.388 6.578 2.286 8.737-.733 1.849-2.497 1.482-6.866-.733-8.738-2.568-2.693-6.643-2.209-8.738.734z" fill="url(#D)"/><path d="M199.606 464.281c-2.4 2.685-1.599 7.159.734 8.738 2.826 2.388 6.578 2.286 8.737-.734 1.848-2.497 1.482-6.865-.733-8.737-2.568-2.694-6.567-2.145-8.738.733z" fill="url(#E)"/><path d="M131.786 558.319c-2.4 2.685-1.598 7.159.734 8.737 2.826 2.389 6.578 2.287 8.737-.733 1.848-2.497 1.482-6.866-.733-8.737-2.568-2.694-6.502-2.222-8.738.733z" fill="url(#F)"/><path d="M311.086 157.462c-6.451 5.154-12.672 10.501-18.74 15.978l-9.097 8.285-9.326 8.092-9.479 7.962-9.403 8.027c-6.221 5.348-12.43 10.836-18.422 16.377l.076.065 19.122-15.655c6.298-5.283 12.443-10.695 18.499-16.313 3.029-2.809 6.133-5.553 9.174-8.221 3.104-2.744 6.297-5.282 9.478-7.962 6.145-5.412 12.278-10.965 18.118-16.635z" fill="url(#G)"/><path d="M231.482 224.388c-3.44-8.013-7.227-15.927-11.283-23.675l-6.285-11.465-6.22-11.541-6.284-11.465-6.425-11.452c-.506-.951-1.152-1.89-1.581-2.777s-.806-1.99-1.171-2.953l-2.634-6.023c-1.893-3.957-3.851-7.837-6.425-11.453l-.065.076c2.228 3.716 4.057 7.749 5.809 11.718l2.493 6.035c.365.963.741 2.066 1.182 3.094.582 1.015 1.088 1.966 1.594 2.917l13.044 22.677 6.425 11.453c2.099 3.868 3.916 7.76 5.873 11.641l11.953 23.193z" fill="url(#H)"/><path d="M389.367 222.701c-3.106 1.041-6.488 1.325-9.83 1.251-3.265-.01-6.565-.442-9.918-.658-6.642-.506-13.354-.156-20.001.118l-19.918 1.105c-6.571.338-13.294.548-19.953.681-13.318.267-26.519.239-39.843-.416l-19.931-.74-19.919-.598.012.141 19.902 1.238 19.89 1.098c13.259.732 26.577.466 39.872-.083l19.865-.887 19.889-.605c6.659-.133 13.294-.548 19.924-.182 3.277.15 6.565.442 9.971.44 3.459-.219 6.829-.644 9.988-1.903z" fill="url(#I)"/><path d="M444.099 304.961l-79.006-30.763c-8.734-3.454-17.416-7.125-26.097-10.795l-13.151-5.354a125.29 125.29 0 0 0-13.556-4.255c-4.575-1.248-9.074-2.431-13.596-3.896-4.446-1.401-8.904-2.943-13.374-4.625l-26.396-10.132c-4.393-1.618-8.851-3.159-13.438-4.548-4.511-1.325-9.151-2.496-13.767-3.386l-.064.076c4.628 1.031 9.138 2.355 13.585 3.756 4.522 1.465 8.915 3.084 13.244 4.778l26.279 10.425c4.47 1.682 8.863 3.301 13.374 4.625 4.522 1.465 9.085 2.572 13.725 3.744 4.499 1.183 9.01 2.508 13.468 4.049s8.798 3.377 13.203 5.136l26.226 10.643 26.162 10.718c17.761 7.024 35.347 13.637 53.179 19.804z" fill="url(#J)"/><path d="M232.539 225.151c-4.219 4.683-8.35 9.571-12.252 14.653-1.989 2.509-3.837 5.005-5.75 7.579s-3.608 5.199-5.521 7.772l-10.672 15.726-11.042 15.545-22.848 30.443-11.577 15.093-11.653 15.028.076.065c4.143-4.747 8.198-9.7 12.112-14.641a604.58 604.58 0 0 0 11.806-14.899 799 799 0 0 0 22.466-30.767l10.889-15.673c3.608-5.199 7.434-10.346 11.118-15.48 7.293-10.334 14.88-20.55 22.848-30.444z" fill="url(#K)"/><path d="M141.824 349.069l5.656-27.298 5.298-27.338 4.646-27.497 5.004-27.455 10.084-54.847 4.723-27.432 4.646-27.496-.141.012-5.222 27.403-5.08 27.391-14.372 82.384-5.222 27.402-10.02 54.771z" fill="url(#L)"/><path d="M255.785 337.231c-9.554.306-19.02.816-28.462 1.609l-28.39 2.454c-9.519.728-18.949 1.662-28.367 2.736s-18.89 2.366-28.285 3.723l.012.141c9.442-.793 18.937-1.803 28.432-2.813l28.396-3.235c4.779-.543 9.495-1.01 14.221-1.336l3.6-.231 3.535-.155 7.134-.386c9.237-.704 18.691-1.356 28.174-2.507z" fill="url(#M)"/><path d="M255.016 337.367c.378-4.786-.37-9.477-1.324-14.081s-2.049-9.194-3.144-13.786-2.396-9.094-3.491-13.686l-3.144-13.786-6.147-27.584-6.917-27.448-.141.012c1.844 9.283 3.893 18.477 5.942 27.672s4.38 18.366 6.635 27.472c1.159 4.515 2.331 9.171 3.285 13.774 1.095 4.592 1.984 9.271 3.003 13.798.547 2.296 1.03 4.668 1.642 6.887l1.643 6.887c1.236 4.58 2.049 9.195 2.158 13.869z" fill="url(#N)"/><path d="M255.38 338.33l-7.419 15.595-3.6 7.824c-1.197 2.655-2.099 5.427-2.785 8.252l-1.066 4.205-1.142 4.141c-.762 2.76-1.741 5.468-2.861 8.188-2.175 5.362-4.721 10.543-7.343 15.659s-5.167 10.297-7.342 15.66-4.057 10.843-5.721 16.375c-3.406 11.001-6.658 22.131-12.336 32.258l.076.064c3.069-4.87 5.602-10.191 7.637-15.542 2.098-5.427 3.839-10.895 5.504-16.428 1.74-5.468 3.481-10.936 5.58-16.363 2.175-5.363 4.58-10.532 6.972-15.842l7.19-15.789c1.056-2.643 2.175-5.362 3.078-8.135a68.59 68.59 0 0 0 1.284-4.152l1.142-4.141c1.447-5.585 4.069-10.701 6.321-15.999 2.404-5.169 4.656-10.467 6.831-15.83z" fill="url(#O)"/><path d="M203.702 469.969c-2.281-5.201-4.704-10.391-7.126-15.58a440.07 440.07 0 0 0-7.538-15.405l-7.743-15.315c-1.275-2.519-2.487-5.114-3.698-7.708-1.276-2.519-2.487-5.114-3.904-7.62-2.692-5.025-6.13-9.633-9.298-14.405-3.233-4.696-5.784-9.733-8.207-14.922l-14.047-31.249-.065.076c2.076 5.29 4.293 10.567 6.51 15.845l6.716 15.757c1.211 2.595 2.422 5.19 3.839 7.696a112.32 112.32 0 0 0 4.52 7.355c3.233 4.696 6.735 9.227 9.633 14.164s5.385 10.05 7.808 15.24l7.332 15.492c2.422 5.19 4.974 10.226 7.537 15.404l7.731 15.175z" fill="url(#P)"/><path d="M232.239 224.112l-7.362 61.075-3.323 30.579-3.604 30.602-1.911 15.275-.923 7.599-1.205 7.623c-.855 5.039-1.633 10.142-2.052 15.287l-1.13 15.28c-.851 10.147-2.049 20.395-3.323 30.578l-4.256 30.444.141-.011 4.972-30.363c1.492-10.13 2.766-20.313 3.681-30.537l1.13-15.281c.279-5.132 1.133-10.171 1.847-15.198.427-2.519.778-5.103 1.064-7.611.351-2.584.561-5.156.847-7.664l1.629-15.251 3.399-30.514 3.757-30.473 6.622-61.439z" fill="url(#Q)"/><path d="M338.853 404.553c-10.796 5.802-21.262 12.145-31.993 17.871-5.36 2.933-10.884 5.597-16.584 7.849-5.624 2.317-11.401 4.505-17.114 6.617s-11.401 4.505-16.925 7.168-10.884 5.597-16.231 8.672c-10.643 5.931-21.503 11.81-33.392 14.724l.011.141c6.001-1.213 11.866-3.196 17.479-5.654s11.048-5.327 16.407-8.26l16.091-8.66c5.448-2.728 11.136-5.121 16.76-7.438 11.313-4.711 22.826-8.728 33.786-14.261 5.448-2.728 10.719-5.867 15.991-9.006 5.336-3.215 10.607-6.354 15.714-9.763z" fill="url(#R)"/><path d="M341.472 405.327l-26.81-44.654-13.778-22.118-13.508-22.283c-8.846-14.939-18.169-29.626-27.555-44.236l-14.113-21.877-14.253-21.866-.065.077 13.714 22.194 13.842 22.042 27.89 43.995 13.637 22.13 13.303 22.371 27.696 44.225z" fill="url(#S)"/><path d="M443.195 306.031l-23.415 5.087c-7.798 1.79-15.53 3.504-23.475 4.383a83.23 83.23 0 0 1-11.873.571c-1.985.025-3.97.05-6.007.292-1.973.165-3.934.472-5.96.855-7.821 1.508-15.718 2.951-23.563 4.178l-47.26 7.586-23.61 3.614-23.698 3.408.011.141 23.746-2.845 23.71-3.267a1358.67 1358.67 0 0 0 47.225-8.009l23.539-4.46c7.809-1.649 15.878-.197 23.888-1.153 8.02-.816 15.818-2.606 23.538-4.46l23.204-5.921z" fill="url(#T)"/><path d="M340.961 405.156l-21.737-17.192c-3.643-2.816-7.285-5.633-10.875-8.667a320.64 320.64 0 0 1-10.617-8.972c-7.038-6.079-14.065-12.017-21.491-17.638-7.361-5.698-14.904-11.025-22.835-15.894l-.064.076c7.543 5.327 14.969 10.948 22.254 16.581s14.517 11.483 21.673 17.269l10.745 8.819 10.54 8.908c7.321 6.056 14.606 11.689 22.407 16.71z" fill="url(#U)"/><path d="M350.829 526.094l-23.728-45.976-12.275-22.812-11.928-22.912-23.664-46.053-23.728-45.977-.065.076 11.324 23.318 11.595 23.153 24.074 45.876 12.07 22.901 11.799 23.064 24.526 45.342z" fill="url(#V)"/><path d="M351.024 527.568l-.138-15.173c-.144-5.097-.071-10.142-.638-15.203-.289-2.601-.849-5.038-1.126-7.498-.354-2.525-.49-4.997-.422-7.558.005-2.483.215-5.056.284-7.616l.103-3.84c.034-1.281.069-2.561-.038-3.829-.147-10.206-1.768-20.217-3.171-30.175s-2.678-20.07-2.25-30.182l-.141.012c-1.068 10.095-.064 20.37 1.34 30.329l2.111 15.008c.631 4.985 1.198 10.046 1.548 15.055.106 1.269.072 2.549.102 3.753s.072 2.548-.039 3.764l-.283 7.616a69.08 69.08 0 0 0 .216 7.646c.213 2.536.708 5.049.844 7.521a135.06 135.06 0 0 1 .422 7.558l.28 7.569c.221 5.161.506 10.246.996 15.243z" fill="url(#W)"/><path d="M343.158 405.966c1.042 4.808 3.124 9.317 5.475 13.661 2.416 4.267 5.102 8.37 7.853 12.397l8.187 12.156c2.751 4.027 5.372 8.207 7.994 12.386 5.167 8.294 10.474 16.577 15.911 24.706 5.372 8.207 10.873 16.26 16.516 24.301l.064-.076c-5.102-8.371-10.333-16.589-15.705-24.795l-24.369-36.698c-2.686-4.103-5.166-8.294-7.853-12.397s-5.436-8.13-7.852-12.398c-2.622-4.179-4.768-8.611-6.221-13.243z" fill="url(#X)"/><path d="M202.088 470.176c-5.85 7.232-11.307 14.928-16.405 22.665l-7.598 11.778c-2.51 3.901-5.239 7.749-7.826 11.585l-15.729 23.105-15.195 23.556.076.065c5.469-7.555 10.708-15.304 15.947-23.052s10.261-15.55 15.347-23.428l7.674-11.714c2.587-3.836 5.316-7.684 7.979-11.455l15.73-23.105z" fill="url(#Y)"/><path d="M349.698 528.673l-22.692 35.681-11.722 17.589c-1.954 2.931-4.137 5.669-6.243 8.471l-3.192 4.242-3.345 4.113c-2.259 2.673-4.506 5.487-6.384 8.483-1.953 2.931-3.678 6.056-5.338 9.105-1.724 3.125-3.384 6.174-5.262 9.17a61.62 61.62 0 0 1-6.319 8.407c-2.259 2.673-4.659 5.358-6.689 8.225-2.095 2.943-3.755 5.992-5.403 9.181-1.584 3.114-3.232 6.303-5.185 9.235-1.878 2.996-4.061 5.733-6.778 8.019l.076.065c2.794-2.221 5.194-4.907 7.148-7.838s3.678-6.056 5.338-9.105c1.725-3.125 3.461-6.109 5.567-8.912s4.442-5.411 6.702-8.084 4.506-5.487 6.383-8.483 3.526-6.186 5.186-9.234 3.308-6.239 5.185-9.235 3.984-5.798 6.167-8.536c8.643-11.156 16.904-22.636 24.871-34.232 7.803-11.867 15.16-23.98 21.929-36.327z" fill="url(#Z)"/><path d="M348.533 524.939c-5.663-3.215-11.807-5.395-18.068-7.282s-12.51-3.634-18.577-5.75c-12.264-4.079-24.264-9.245-36.199-14.488l-35.783-15.446-18.015-7.499-18.067-7.283-.064.077 17.832 7.869 17.898 7.794 53.967 22.434c6.026 2.475 11.924 5.102 18.067 7.282 12.3 4.503 25.179 6.615 37.009 12.292z" fill="url(#a)"/><path d="M347.261 529.232c-17.533 2.466-34.966 5.277-52.387 8.23l-52.522 7.46-52.634 6.973-26.3 3.698-26.211 3.903.012.141 26.335-3.275 26.323-3.416 52.598-7.396 26.223-3.762 26.323-3.416 52.24-9.14z" fill="url(#b)"/><path d="M257.53 668.253c-5.201-16.31-9.979-32.656-14.693-49.077l-7.038-24.671c-2.324-8.249-4.367-16.522-6.551-24.783l-12.96-49.577-6.757-24.694-6.897-24.683-.141.012 6.269 24.806 6.41 24.795 13.448 49.465 6.692 24.771 6.551 24.782c4.79 16.487 9.85 32.808 15.667 48.854z" fill="url(#c)"/><path d="M257.132 670.273l-30.634-26.806-7.855-6.508c-2.597-2.194-5.258-4.312-7.791-6.583-5.129-4.466-9.601-9.555-14.202-14.49-4.536-5.012-9.742-9.543-14.794-13.944l-15.376-13.256c-5.129-4.465-10.323-8.855-15.505-13.103l-15.645-13.091-.065.076 15.182 13.485 15.311 13.333 15.44 13.179 7.726 6.66c2.533 2.271 5 4.619 7.327 6.978l7.069 7.283a174.23 174.23 0 0 0 7.403 7.042l15.247 13.409c10.258 8.931 20.569 17.645 31.15 26.195l.012.141z" fill="url(#d)"/><path d="M212.108 735.787c-5.57-14.789-11.615-29.325-18.007-43.761l-9.825-21.527-48.165-108.002-.065.077 4.47 10.978 4.534 10.902 4.675 10.89 4.739 10.814 29.477 64.582c3.228 7.18 6.251 14.448 9.274 21.716l18.893 43.331z" fill="url(#e)"/><path d="M138.181 713.112c-.747-2.988-1.008-6.089-1.127-9.201l.141-9.307.564-18.639.847-37.254.781-18.586c.184-6.26.304-12.443.206-18.68-.119-12.407-.737-24.844-1.919-37.234l-.141.012a1091.67 1091.67 0 0 1 .997 37.241l-.065 18.668-.423 18.626-.564 18.639-.705 18.651c-.261 6.195-.304 12.443-.423 18.627-.022 3.124-.12 6.183.076 9.36.248 2.959.661 6.189 1.755 9.077z" fill="url(#f)"/><path d="M136.958 565.832l-40.774 32.445-10.019 8.292-10.095 8.227c-3.398 2.627-7.014 5.201-10.665 7.353-3.792 2.163-7.684 3.98-11.565 5.938s-7.673 4.121-11.059 6.889c-3.463 2.703-6.544 5.729-9.854 8.561-1.585 1.411-3.31 2.833-5.048 4.114s-3.551 2.498-5.365 3.714c-3.563 2.357-7.343 4.662-10.818 7.224-7.091 5.137-13.405 11.06-19.873 16.854s-13.088 11.458-20.519 15.914l.076.064c7.596-4.185 14.357-9.862 20.913-15.45 6.62-5.665 13.012-11.524 20.038-16.584 3.475-2.562 7.191-4.79 10.818-7.223 1.814-1.217 3.628-2.434 5.365-3.715s3.387-2.768 4.971-4.178c3.234-2.897 6.315-5.923 9.702-8.691s7.026-5.06 10.83-7.082l11.476-6.144c3.716-2.228 7.267-4.725 10.73-7.429l20.431-16.12c13.646-10.725 27.064-21.643 40.304-32.973z" fill="url(#g)"/></g></g><defs><linearGradient id="A" x1="186.634" y1="123.462" x2="178.592" y2="132.977" xlink:href="#j"><stop stop-color="#fff8ee"/><stop offset="1" stop-color="#fff8ee" stop-opacity="0"/></linearGradient><linearGradient id="B" x1="236.927" y1="220.433" x2="228.886" y2="229.947" xlink:href="#j"><stop stop-color="#fff8ee"/><stop offset="1" stop-color="#fff8ee" stop-opacity="0"/></linearGradient><linearGradient id="C" x1="259.198" y1="332.737" x2="251.157" y2="342.252" xlink:href="#j"><stop stop-color="#fff8ee"/><stop offset="1" stop-color="#fff8ee" stop-opacity="0"/></linearGradient><linearGradient id="D" x1="146.824" y1="344.082" x2="138.783" y2="353.597" xlink:href="#j"><stop stop-color="#fff8ee"/><stop offset="1" stop-color="#fff8ee" stop-opacity="0"/></linearGradient><linearGradient id="E" x1="208.371" y1="463.524" x2="200.33" y2="473.039" xlink:href="#j"><stop stop-color="#fff8ee"/><stop offset="1" stop-color="#fff8ee" stop-opacity="0"/></linearGradient><linearGradient id="F" x1="140.552" y1="557.561" x2="132.51" y2="567.076" xlink:href="#j"><stop stop-color="#fff8ee"/><stop offset="1" stop-color="#fff8ee" stop-opacity="0"/></linearGradient><linearGradient id="G" x1="305.319" y1="152.588" x2="242.385" y2="227.057" xlink:href="#j"><stop stop-color="#fff8ee"/><stop offset="1" stop-color="#fff8ee" stop-opacity="0"/></linearGradient><linearGradient id="H" x1="220.14" y1="162.825" x2="194.515" y2="193.147" xlink:href="#j"><stop stop-color="#fff8ee"/><stop offset="1" stop-color="#fff8ee" stop-opacity="0"/></linearGradient><linearGradient id="I" x1="343.082" y1="183.585" x2="276.275" y2="262.636" xlink:href="#j"><stop stop-color="#fff8ee"/><stop offset="1" stop-color="#fff8ee" stop-opacity="0"/></linearGradient><linearGradient id="J" x1="362.985" y1="236.411" x2="312.767" y2="295.833" xlink:href="#j"><stop stop-color="#fff8ee"/><stop offset="1" stop-color="#fff8ee" stop-opacity="0"/></linearGradient><linearGradient id="K" x1="235.938" y1="228.024" x2="137.825" y2="344.118" xlink:href="#j"><stop stop-color="#fff8ee"/><stop offset="1" stop-color="#fff8ee" stop-opacity="0"/></linearGradient><linearGradient id="L" x1="224.232" y1="165.498" x2="99.396" y2="313.212" xlink:href="#j"><stop stop-color="#fff8ee"/><stop offset="1" stop-color="#fff8ee" stop-opacity="0"/></linearGradient><linearGradient id="M" x1="225.272" y1="311.445" x2="172.73" y2="373.616" xlink:href="#j"><stop stop-color="#fff8ee"/><stop offset="1" stop-color="#fff8ee" stop-opacity="0"/></linearGradient><linearGradient id="N" x1="265.066" y1="255.913" x2="220.722" y2="308.385" xlink:href="#j"><stop stop-color="#fff8ee"/><stop offset="1" stop-color="#fff8ee" stop-opacity="0"/></linearGradient><linearGradient id="O" x1="271.954" y1="352.337" x2="187.267" y2="452.544" xlink:href="#j"><stop stop-color="#fff8ee"/><stop offset="1" stop-color="#fff8ee" stop-opacity="0"/></linearGradient><linearGradient id="P" x1="190.22" y1="388.398" x2="155.623" y2="429.336" xlink:href="#j"><stop stop-color="#fff8ee"/><stop offset="1" stop-color="#fff8ee" stop-opacity="0"/></linearGradient><linearGradient id="Q" x1="284.023" y1="267.875" x2="151.442" y2="424.755" xlink:href="#j"><stop stop-color="#fff8ee"/><stop offset="1" stop-color="#fff8ee" stop-opacity="0"/></linearGradient><linearGradient id="R" x1="315.787" y1="385.06" x2="229.615" y2="487.024" xlink:href="#j"><stop stop-color="#fff8ee"/><stop offset="1" stop-color="#fff8ee" stop-opacity="0"/></linearGradient><linearGradient id="S" x1="307.183" y1="292.293" x2="265.744" y2="341.327" xlink:href="#j"><stop stop-color="#fff8ee"/><stop offset="1" stop-color="#fff8ee" stop-opacity="0"/></linearGradient><linearGradient id="T" x1="395.497" y1="265.72" x2="301.967" y2="376.392" xlink:href="#j"><stop stop-color="#fff8ee"/><stop offset="1" stop-color="#fff8ee" stop-opacity="0"/></linearGradient><linearGradient id="U" x1="298.572" y1="369.332" x2="295.731" y2="372.693" xlink:href="#j"><stop stop-color="#fff8ee"/><stop offset="1" stop-color="#fff8ee" stop-opacity="0"/></linearGradient><linearGradient id="V" x1="328.6" y1="404.136" x2="277.736" y2="464.322" xlink:href="#j"><stop stop-color="#fff8ee"/><stop offset="1" stop-color="#fff8ee" stop-opacity="0"/></linearGradient><linearGradient id="W" x1="375.592" y1="433.507" x2="318.984" y2="500.49" xlink:href="#j"><stop stop-color="#fff8ee"/><stop offset="1" stop-color="#fff8ee" stop-opacity="0"/></linearGradient><linearGradient id="X" x1="385.777" y1="441.983" x2="362.475" y2="469.556" xlink:href="#j"><stop stop-color="#fff8ee"/><stop offset="1" stop-color="#fff8ee" stop-opacity="0"/></linearGradient><linearGradient id="Y" x1="206.67" y1="474.049" x2="134.829" y2="559.057" xlink:href="#j"><stop stop-color="#fff8ee"/><stop offset="1" stop-color="#fff8ee" stop-opacity="0"/></linearGradient><linearGradient id="Z" x1="356.89" y1="534.751" x2="248.514" y2="662.99" xlink:href="#j"><stop stop-color="#fff8ee"/><stop offset="1" stop-color="#fff8ee" stop-opacity="0"/></linearGradient><linearGradient id="a" x1="292.089" y1="477.238" x2="260.203" y2="514.969" xlink:href="#j"><stop stop-color="#fff8ee"/><stop offset="1" stop-color="#fff8ee" stop-opacity="0"/></linearGradient><linearGradient id="b" x1="293.453" y1="483.758" x2="190.951" y2="605.046" xlink:href="#j"><stop stop-color="#fff8ee"/><stop offset="1" stop-color="#fff8ee" stop-opacity="0"/></linearGradient><linearGradient id="c" x1="267.288" y1="525.408" x2="192.8" y2="613.548" xlink:href="#j"><stop stop-color="#fff8ee"/><stop offset="1" stop-color="#fff8ee" stop-opacity="0"/></linearGradient><linearGradient id="d" x1="197.538" y1="614.836" x2="194.947" y2="617.902" xlink:href="#j"><stop stop-color="#fff8ee"/><stop offset="1" stop-color="#fff8ee" stop-opacity="0"/></linearGradient><linearGradient id="e" x1="200.994" y1="617.331" x2="147.225" y2="680.953" xlink:href="#j"><stop stop-color="#fff8ee"/><stop offset="1" stop-color="#fff8ee" stop-opacity="0"/></linearGradient><linearGradient id="f" x1="174.488" y1="595.323" x2="101.291" y2="681.936" xlink:href="#j"><stop stop-color="#fff8ee"/><stop offset="1" stop-color="#fff8ee" stop-opacity="0"/></linearGradient><linearGradient id="g" x1="119.583" y1="551.147" x2="-11.321" y2="706.042" xlink:href="#j"><stop stop-color="#fff8ee"/><stop offset="1" stop-color="#fff8ee" stop-opacity="0"/></linearGradient><clipPath id="h"><path fill="#fff" transform="translate(80 115)" d="M0 0h240v485H0z"/></clipPath><clipPath id="i"><path fill="#fff" transform="matrix(-.763778 -.645479 -.645479 .763778 549.847 347.459)" d="M0 0h428.3v645.6H0z"/></clipPath><linearGradient id="j" gradientUnits="userSpaceOnUse"/></defs></svg>