<svg width="320" height="600" viewBox="0 0 320 600" fill="none" xmlns="http://www.w3.org/2000/svg">
<rect width="320" height="600" fill="black"/>
<g opacity="0.2" clip-path="url(#clip0)">
<g clip-path="url(#clip1)">
<path d="M177.872 124.223C175.472 126.909 176.274 131.383 178.606 132.961C181.432 135.349 185.184 135.247 187.343 132.227C189.191 129.731 188.825 125.362 186.61 123.49C184.042 120.796 180.032 121.204 177.872 124.223Z" fill="url(#paint0_linear)"/>
<path d="M228.162 221.19C225.762 223.875 226.563 228.349 228.895 229.927C231.721 232.316 235.474 232.214 237.633 229.194C239.481 226.697 239.114 222.328 236.899 220.457C234.332 217.763 230.333 218.311 228.162 221.19Z" fill="url(#paint1_linear)"/>
<path d="M250.433 333.494C248.033 336.179 248.834 340.653 251.166 342.232C253.992 344.62 257.745 344.518 259.904 341.498C261.752 339.001 261.385 334.633 259.17 332.761C256.603 330.067 252.604 330.616 250.433 333.494Z" fill="url(#paint2_linear)"/>
<path d="M138.063 344.843C135.663 347.528 136.465 352.002 138.797 353.58C141.623 355.968 145.375 355.866 147.534 352.847C149.383 350.35 149.016 345.981 146.801 344.109C144.233 341.416 140.158 341.9 138.063 344.843Z" fill="url(#paint3_linear)"/>
<path d="M199.606 464.281C197.206 466.966 198.007 471.44 200.34 473.019C203.166 475.407 206.918 475.305 209.077 472.285C210.925 469.788 210.559 465.42 208.344 463.548C205.776 460.854 201.777 461.403 199.606 464.281Z" fill="url(#paint4_linear)"/>
<path d="M131.786 558.319C129.386 561.004 130.188 565.478 132.52 567.056C135.346 569.445 139.098 569.343 141.257 566.323C143.105 563.826 142.739 559.457 140.524 557.586C137.956 554.892 134.022 555.364 131.786 558.319Z" fill="url(#paint5_linear)"/>
<path d="M311.086 157.462C304.635 162.616 298.414 167.963 292.346 173.44C289.317 176.248 286.289 179.057 283.249 181.725C280.144 184.469 277.104 187.137 273.923 189.817L264.444 197.779C261.263 200.459 258.146 203.062 255.041 205.806C248.82 211.154 242.611 216.642 236.619 222.183L236.695 222.248C243.145 217.094 249.519 211.876 255.817 206.593C262.115 201.31 268.26 195.898 274.316 190.28C277.345 187.471 280.449 184.727 283.49 182.059C286.594 179.315 289.787 176.777 292.968 174.097C299.113 168.685 305.246 163.132 311.086 157.462Z" fill="url(#paint6_linear)"/>
<path d="M231.482 224.388C228.042 216.375 224.255 208.461 220.199 200.713C218.1 196.844 215.937 193.052 213.914 189.248C211.816 185.38 209.793 181.576 207.694 177.707C205.596 173.839 203.573 170.035 201.41 166.242C199.247 162.45 197.148 158.582 194.985 154.79C194.479 153.839 193.833 152.9 193.404 152.013C192.974 151.127 192.598 150.023 192.233 149.06C191.351 147.005 190.481 145.092 189.599 143.037C187.706 139.08 185.748 135.2 183.174 131.584L183.109 131.66C185.337 135.376 187.166 139.409 188.918 143.378C189.724 145.368 190.606 147.423 191.411 149.413C191.776 150.376 192.152 151.479 192.593 152.507C193.175 153.522 193.681 154.473 194.187 155.424C198.449 163.085 202.84 170.593 207.231 178.101C209.394 181.893 211.557 185.685 213.656 189.554C215.755 193.422 217.572 197.314 219.529 201.195C223.445 208.955 227.361 216.716 231.482 224.388Z" fill="url(#paint7_linear)"/>
<path d="M389.367 222.701C386.261 223.742 382.879 224.026 379.537 223.952C376.272 223.942 372.972 223.51 369.619 223.294C362.977 222.788 356.265 223.138 349.618 223.412C342.971 223.686 336.347 224.242 329.7 224.517C323.129 224.855 316.406 225.065 309.747 225.198C296.429 225.465 283.228 225.437 269.904 224.782L249.973 224.042C243.355 223.817 236.661 223.528 230.054 223.444L230.066 223.585C236.708 224.092 243.338 224.457 249.968 224.823C256.598 225.189 263.239 225.696 269.858 225.921C283.117 226.653 296.435 226.387 309.73 225.838C316.377 225.564 323.012 225.149 329.595 224.951C336.242 224.677 342.901 224.544 349.484 224.346C356.143 224.213 362.778 223.798 369.408 224.164C372.685 224.314 375.973 224.606 379.379 224.604C382.838 224.385 386.208 223.96 389.367 222.701Z" fill="url(#paint8_linear)"/>
<path d="M444.099 304.961L391.424 284.405C382.626 281.028 373.827 277.651 365.093 274.198C356.359 270.744 347.677 267.073 338.996 263.403C334.655 261.567 330.315 259.732 325.845 258.049C321.375 256.367 316.929 254.966 312.289 253.794C307.714 252.546 303.215 251.363 298.693 249.898C294.247 248.497 289.789 246.955 285.319 245.273C276.52 241.896 267.775 238.301 258.923 235.141C254.53 233.523 250.072 231.982 245.485 230.593C240.974 229.268 236.334 228.097 231.718 227.207L231.654 227.283C236.282 228.314 240.792 229.638 245.239 231.039C249.761 232.504 254.154 234.123 258.483 235.817C267.282 239.194 275.899 242.941 284.762 246.242C289.232 247.924 293.625 249.543 298.136 250.867C302.658 252.332 307.221 253.439 311.861 254.611C316.36 255.794 320.871 257.119 325.329 258.66C329.787 260.202 334.127 262.037 338.532 263.796L364.758 274.439L390.92 285.157C408.681 292.181 426.267 298.794 444.099 304.961Z" fill="url(#paint9_linear)"/>
<path d="M232.539 225.151C228.32 229.834 224.189 234.722 220.287 239.804C218.298 242.313 216.45 244.809 214.537 247.383C212.624 249.956 210.929 252.582 209.016 255.155L198.344 270.881C194.735 276.08 191.051 281.215 187.302 286.426C179.792 296.707 172.193 306.782 164.454 316.869L152.877 331.962L141.224 346.99L141.3 347.055C145.443 342.308 149.498 337.355 153.412 332.414C157.402 327.538 161.38 322.52 165.218 317.515C172.957 307.428 180.467 297.147 187.684 286.748C191.292 281.549 194.9 276.35 198.573 271.075C202.181 265.876 206.007 260.729 209.691 255.595C216.984 245.261 224.571 235.045 232.539 225.151Z" fill="url(#paint10_linear)"/>
<path d="M141.824 349.069C143.756 339.966 145.624 330.939 147.48 321.771C149.272 312.68 151.127 303.512 152.778 294.433L157.424 266.936C158.998 257.792 160.713 248.637 162.428 239.481C165.858 221.169 169.223 202.934 172.512 184.634C174.163 175.555 175.661 166.346 177.235 157.202C178.809 148.058 180.383 138.914 181.881 129.706L181.74 129.718C179.948 138.809 178.233 147.965 176.518 157.121C174.803 166.276 173.088 175.432 171.438 184.512C168.149 202.811 165.001 221.099 161.852 239.387C160.278 248.531 158.704 257.675 157.066 266.896C155.415 275.975 153.559 285.143 151.844 294.298C148.402 312.469 144.896 330.716 141.824 349.069Z" fill="url(#paint11_linear)"/>
<path d="M255.785 337.231C246.231 337.537 236.765 338.047 227.323 338.84C217.817 339.709 208.386 340.643 198.933 341.294C189.414 342.022 179.984 342.956 170.566 344.03C161.147 345.105 151.676 346.396 142.281 347.753L142.293 347.894C151.735 347.101 161.23 346.091 170.725 345.081L184.923 343.464L199.121 341.846C203.9 341.303 208.616 340.836 213.342 340.51L216.942 340.279L220.477 340.124L227.611 339.738C236.848 339.034 246.302 338.382 255.785 337.231Z" fill="url(#paint12_linear)"/>
<path d="M255.016 337.367C255.394 332.581 254.646 327.89 253.692 323.286C252.738 318.683 251.643 314.092 250.548 309.5C249.453 304.909 248.152 300.406 247.057 295.814C245.962 291.223 244.867 286.632 243.913 282.028C241.928 272.757 239.879 263.563 237.766 254.444C235.576 245.262 233.321 236.155 230.849 226.996L230.708 227.008C232.552 236.291 234.601 245.485 236.65 254.68C238.699 263.875 241.03 273.046 243.285 282.152C244.444 286.667 245.616 291.323 246.57 295.926C247.665 300.518 248.554 305.197 249.573 309.724C250.12 312.02 250.603 314.392 251.215 316.611C251.763 318.907 252.31 321.203 252.858 323.498C254.094 328.078 254.907 332.693 255.016 337.367Z" fill="url(#paint13_linear)"/>
<path d="M255.38 338.33C252.835 343.511 250.366 348.756 247.961 353.925C246.765 356.58 245.492 359.171 244.361 361.749C243.164 364.404 242.262 367.176 241.576 370.001L240.51 374.206C240.129 375.587 239.748 376.967 239.368 378.347C238.606 381.107 237.627 383.815 236.507 386.535C234.332 391.897 231.786 397.078 229.164 402.194C226.543 407.311 223.997 412.491 221.822 417.854C219.647 423.217 217.765 428.697 216.101 434.229C212.695 445.23 209.443 456.36 203.765 466.487L203.841 466.551C206.91 461.681 209.443 456.36 211.478 451.009C213.576 445.582 215.317 440.114 216.982 434.581C218.722 429.113 220.463 423.645 222.562 418.218C224.737 412.855 227.142 407.686 229.534 402.376C232.003 397.131 234.408 391.962 236.724 386.587C237.78 383.944 238.899 381.225 239.802 378.452C240.259 377.137 240.705 375.68 241.086 374.3L242.228 370.159C243.675 364.574 246.297 359.458 248.549 354.16C250.953 348.991 253.205 343.693 255.38 338.33Z" fill="url(#paint14_linear)"/>
<path d="M203.702 469.969C201.421 464.768 198.998 459.578 196.576 454.389C194.153 449.199 191.666 444.086 189.038 438.984C186.487 433.948 183.859 428.846 181.295 423.669C180.02 421.15 178.808 418.555 177.597 415.961C176.321 413.442 175.11 410.847 173.693 408.341C171.001 403.316 167.563 398.708 164.395 393.936C161.162 389.24 158.611 384.203 156.188 379.014C151.549 368.547 146.986 358.144 142.141 347.765L142.076 347.841C144.152 353.131 146.369 358.408 148.586 363.686C150.803 368.964 152.944 374.177 155.302 379.443C156.513 382.038 157.724 384.633 159.141 387.139C160.558 389.646 162.039 392.076 163.661 394.494C166.894 399.19 170.396 403.721 173.294 408.658C176.192 413.595 178.679 418.708 181.102 423.898C183.589 429.011 185.947 434.277 188.434 439.39C190.856 444.58 193.408 449.616 195.971 454.794C198.523 459.831 201.01 464.944 203.702 469.969Z" fill="url(#paint15_linear)"/>
<path d="M232.239 224.112C229.55 244.49 227.067 264.78 224.877 285.187C223.744 295.359 222.752 305.518 221.554 315.766C220.421 325.937 219.147 336.12 217.95 346.368L216.039 361.643C215.753 364.151 215.402 366.734 215.116 369.242C214.765 371.826 214.338 374.346 213.911 376.865C213.056 381.904 212.278 387.007 211.859 392.152L210.729 407.432C209.878 417.579 208.68 427.827 207.406 438.01C206.056 448.129 204.5 458.336 203.15 468.454L203.291 468.443C205.064 458.288 206.772 448.211 208.263 438.08C209.755 427.95 211.029 417.767 211.944 407.543C212.364 402.398 212.719 397.33 213.074 392.262C213.353 387.13 214.207 382.091 214.921 377.064C215.348 374.545 215.699 371.961 215.985 369.453C216.336 366.869 216.546 364.297 216.832 361.789L218.461 346.538C219.594 336.367 220.651 326.131 221.86 316.024C222.993 305.853 224.408 295.658 225.617 285.551C228.001 264.915 230.331 244.496 232.239 224.112Z" fill="url(#paint16_linear)"/>
<path d="M338.853 404.553C328.057 410.355 317.591 416.698 306.86 422.424C301.5 425.357 295.976 428.021 290.276 430.273C284.652 432.59 278.875 434.778 273.162 436.89C267.45 439.002 261.761 441.395 256.237 444.058C250.713 446.722 245.353 449.655 240.006 452.73C229.363 458.661 218.503 464.54 206.614 467.454L206.625 467.595C212.626 466.382 218.491 464.399 224.104 461.941C229.716 459.483 235.152 456.614 240.511 453.681C245.871 450.747 251.154 447.749 256.602 445.021C262.05 442.293 267.738 439.9 273.362 437.583C284.675 432.872 296.188 428.855 307.148 423.322C312.596 420.594 317.867 417.455 323.139 414.316C328.475 411.101 333.746 407.962 338.853 404.553Z" fill="url(#paint17_linear)"/>
<path d="M341.472 405.327C332.69 390.311 323.779 375.448 314.662 360.673C310.065 353.253 305.481 345.975 300.884 338.555C296.288 331.135 291.832 323.704 287.376 316.272C278.53 301.333 269.207 286.646 259.821 272.036C255.159 264.693 250.434 257.426 245.708 250.159C240.982 242.892 236.257 235.625 231.455 228.293L231.39 228.37C235.91 235.725 240.507 243.145 245.104 250.564C249.7 257.984 254.285 265.263 258.946 272.606C268.268 287.293 277.719 301.827 286.836 316.601C291.433 324.021 296.018 331.3 300.473 338.731C304.929 346.163 309.32 353.671 313.776 361.102C322.969 375.942 332.085 390.716 341.472 405.327Z" fill="url(#paint18_linear)"/>
<path d="M443.195 306.031C435.386 307.679 427.577 309.328 419.78 311.118C411.982 312.908 404.25 314.622 396.305 315.501C392.371 315.974 388.413 316.164 384.432 316.072C382.447 316.097 380.462 316.122 378.425 316.364C376.452 316.529 374.491 316.836 372.465 317.219C364.644 318.727 356.747 320.17 348.902 321.397C333.161 324.066 317.407 326.595 301.642 328.983L278.032 332.597L254.334 336.005L254.345 336.146C262.29 335.266 270.158 334.322 278.091 333.301C286.024 332.281 293.88 331.195 301.801 330.034C317.566 327.646 333.308 324.976 349.026 322.025C356.847 320.517 364.668 319.009 372.565 317.565C380.374 315.916 388.443 317.368 396.453 316.412C404.473 315.596 412.271 313.806 419.991 311.952C427.7 309.957 435.421 308.102 443.195 306.031Z" fill="url(#paint19_linear)"/>
<path d="M340.961 405.156C333.6 399.459 326.444 393.673 319.224 387.964C315.581 385.148 311.939 382.331 308.349 379.297C304.771 376.405 301.181 373.371 297.732 370.325C290.694 364.246 283.667 358.308 276.241 352.687C268.88 346.989 261.337 341.662 253.406 336.793L253.342 336.869C260.885 342.196 268.311 347.817 275.596 353.45C282.881 359.083 290.113 364.933 297.269 370.719C300.847 373.612 304.501 376.569 308.014 379.538C309.771 381.023 311.528 382.508 313.284 383.992L318.554 388.446C325.875 394.502 333.16 400.135 340.961 405.156Z" fill="url(#paint20_linear)"/>
<path d="M350.829 526.094C343.075 510.638 335.191 495.334 327.101 480.118C323.057 472.51 318.871 464.914 314.826 457.306C310.782 449.698 306.801 442.014 302.898 434.394L279.234 388.341L255.506 342.364L255.441 342.44C259.075 350.225 262.85 357.997 266.765 365.758C270.605 373.454 274.379 381.227 278.36 388.911C286.179 404.291 294.268 419.507 302.434 434.787C306.479 442.395 310.523 450.003 314.504 457.688C318.484 465.372 322.323 473.068 326.303 480.752C334.304 495.763 342.47 511.043 350.829 526.094Z" fill="url(#paint21_linear)"/>
<path d="M351.024 527.568C351.021 522.459 350.953 517.427 350.886 512.395C350.742 507.298 350.815 502.253 350.248 497.192C349.959 494.591 349.399 492.154 349.122 489.694C348.768 487.169 348.632 484.697 348.7 482.136C348.705 479.653 348.915 477.08 348.984 474.52C349.018 473.24 349.052 471.96 349.087 470.68C349.121 469.399 349.156 468.119 349.049 466.851C348.902 456.645 347.281 446.634 345.878 436.676C344.474 426.717 343.2 416.606 343.628 406.494L343.487 406.506C342.419 416.601 343.423 426.876 344.827 436.835L346.938 451.843C347.569 456.828 348.136 461.889 348.486 466.898C348.592 468.167 348.558 469.447 348.588 470.651C348.618 471.854 348.66 473.199 348.549 474.415L348.266 482.031C348.197 484.591 348.269 487.14 348.482 489.677C348.695 492.213 349.19 494.726 349.326 497.198C349.539 499.735 349.676 502.207 349.748 504.756L350.028 512.325C350.249 517.486 350.534 522.571 351.024 527.568Z" fill="url(#paint22_linear)"/>
<path d="M343.158 405.966C344.2 410.774 346.282 415.283 348.633 419.627C351.049 423.894 353.735 427.997 356.486 432.024C359.237 436.051 362.064 440.142 364.673 444.18C367.424 448.207 370.045 452.387 372.667 456.566C377.834 464.86 383.141 473.143 388.578 481.272C393.95 489.479 399.451 497.532 405.094 505.573L405.158 505.497C400.056 497.126 394.825 488.908 389.453 480.702C384.08 472.496 378.644 464.367 373.207 456.237C370.456 452.21 367.77 448.107 365.084 444.004C362.398 439.901 359.918 435.71 357.231 431.607C354.545 427.504 351.795 423.477 349.379 419.209C346.757 415.03 344.611 410.598 343.158 405.966Z" fill="url(#paint23_linear)"/>
<path d="M202.088 470.176C196.238 477.408 190.781 485.104 185.683 492.841C183.172 496.741 180.673 500.783 178.085 504.619C175.575 508.52 172.846 512.368 170.259 516.204C164.943 523.888 159.628 531.572 154.53 539.309C149.367 547.122 144.345 554.923 139.335 562.865L139.411 562.93C144.88 555.375 150.119 547.626 155.358 539.878C160.597 532.129 165.619 524.328 170.705 516.45C173.216 512.549 175.792 508.572 178.379 504.736C180.966 500.9 183.695 497.052 186.358 493.281L202.088 470.176Z" fill="url(#paint24_linear)"/>
<path d="M349.698 528.673C342.265 540.721 334.744 552.564 327.006 564.354C323.175 570.282 319.267 576.145 315.284 581.943C313.33 584.874 311.147 587.612 309.041 590.414C307.955 591.854 306.934 593.217 305.849 594.656L302.504 598.769C300.245 601.442 297.998 604.256 296.12 607.252C294.167 610.183 292.442 613.308 290.782 616.357C289.058 619.482 287.398 622.531 285.52 625.527C283.643 628.523 281.537 631.325 279.201 633.934C276.942 636.607 274.542 639.292 272.512 642.159C270.417 645.102 268.757 648.151 267.109 651.34C265.525 654.454 263.877 657.643 261.924 660.575C260.046 663.571 257.863 666.308 255.146 668.594L255.222 668.659C258.016 666.438 260.416 663.752 262.37 660.821C264.324 657.89 266.048 654.765 267.708 651.716C269.433 648.591 271.169 645.607 273.275 642.804C275.382 640.002 277.717 637.393 279.977 634.72C282.236 632.047 284.483 629.233 286.36 626.237C288.238 623.241 289.886 620.051 291.546 617.003C293.206 613.954 294.854 610.764 296.731 607.768C298.609 604.772 300.715 601.97 302.898 599.232C311.541 588.076 319.802 576.596 327.769 565C335.572 553.133 342.929 541.02 349.698 528.673Z" fill="url(#paint25_linear)"/>
<path d="M348.533 524.939C342.87 521.724 336.726 519.544 330.465 517.657C324.204 515.77 317.955 514.023 311.888 511.907C299.624 507.828 287.624 502.662 275.689 497.419C263.753 492.177 251.894 486.999 239.906 481.973C233.944 479.423 227.918 476.948 221.891 474.474C215.865 471.999 209.839 469.525 203.824 467.191L203.76 467.268C209.733 469.959 215.63 472.587 221.592 475.137C227.554 477.688 233.528 480.38 239.49 482.931C251.413 488.032 263.466 492.981 275.442 497.865C281.469 500.34 287.495 502.814 293.457 505.365C299.483 507.84 305.381 510.467 311.524 512.647C323.824 517.15 336.703 519.262 348.533 524.939Z" fill="url(#paint26_linear)"/>
<path d="M347.261 529.232C329.728 531.698 312.295 534.509 294.874 537.462C277.429 540.132 259.908 542.739 242.352 544.922C224.795 547.105 207.25 549.43 189.718 551.895C180.951 553.127 172.185 554.36 163.418 555.593C154.652 556.825 145.962 558.122 137.207 559.496L137.219 559.637C145.997 558.545 154.775 557.454 163.554 556.362C172.332 555.27 181.11 554.178 189.877 552.946C207.422 550.622 224.878 548.092 242.475 545.55C251.242 544.318 259.997 542.944 268.698 541.788C277.465 540.555 286.243 539.464 295.021 538.372C312.378 535.496 329.94 532.531 347.261 529.232Z" fill="url(#paint27_linear)"/>
<path d="M257.53 668.253C252.329 651.943 247.551 635.597 242.837 619.176C240.448 611.003 237.983 602.766 235.799 594.505C233.475 586.256 231.432 577.983 229.248 569.722C225.022 553.189 220.719 536.591 216.288 520.145C214.104 511.884 211.78 503.635 209.531 495.451C207.283 487.266 205.023 478.941 202.634 470.768L202.493 470.78C204.536 479.053 206.655 487.39 208.762 495.586C210.881 503.924 212.989 512.12 215.172 520.381C219.539 536.903 224.047 553.413 228.62 569.846C230.945 578.095 233.128 586.356 235.312 594.617C237.495 602.878 239.679 611.139 241.863 619.399C246.653 635.886 251.713 652.207 257.53 668.253Z" fill="url(#paint28_linear)"/>
<path d="M257.132 670.273C247.003 661.189 236.821 652.322 226.498 643.467L218.643 636.959C216.046 634.765 213.385 632.647 210.852 630.376C205.723 625.91 201.251 620.821 196.65 615.886C192.114 610.874 186.908 606.343 181.856 601.942C176.727 597.477 171.597 593.011 166.48 588.686C161.351 584.221 156.157 579.831 150.975 575.583C145.782 571.194 140.588 566.805 135.33 562.492L135.265 562.568C140.33 567.11 145.394 571.652 150.447 576.053C155.576 580.519 160.641 585.061 165.758 589.386C170.887 593.851 176.081 598.24 181.198 602.565C183.795 604.76 186.392 606.954 188.924 609.225C191.457 611.496 193.924 613.844 196.251 616.203L203.32 623.486C205.723 625.91 208.191 628.257 210.723 630.528L225.97 643.937C236.228 652.868 246.539 661.582 257.12 670.132L257.132 670.273Z" fill="url(#paint29_linear)"/>
<path d="M212.108 735.787C206.538 720.998 200.493 706.462 194.101 692.026L184.276 670.499C181.047 663.319 177.884 656.063 174.656 648.883C168.264 634.447 161.948 620.076 155.415 605.652L145.731 584.113L136.111 562.497L136.046 562.574L140.516 573.552L145.05 584.454L149.725 595.344L154.464 606.158C160.856 620.593 167.518 634.865 174.115 649.212C177.408 656.316 180.713 663.56 183.941 670.74C187.169 677.92 190.192 685.188 193.215 692.456L212.108 735.787Z" fill="url(#paint30_linear)"/>
<path d="M138.181 713.112C137.434 710.124 137.173 707.023 137.054 703.911C137.011 700.863 137.173 697.728 137.195 694.604C137.379 688.344 137.575 682.225 137.759 675.965C137.922 663.533 137.944 651.114 138.606 638.711C138.866 632.516 139.127 626.32 139.387 620.125C139.571 613.865 139.691 607.682 139.593 601.445C139.474 589.038 138.856 576.601 137.674 564.211L137.533 564.223C138.075 576.595 138.411 589.056 138.53 601.464C138.552 607.635 138.508 613.883 138.465 620.132L138.042 638.758C137.944 641.818 137.922 644.942 137.76 648.078C137.662 651.137 137.64 654.261 137.478 657.397C137.294 663.657 136.957 669.788 136.773 676.048C136.512 682.243 136.469 688.491 136.35 694.675C136.328 697.799 136.23 700.858 136.426 704.035C136.674 706.994 137.087 710.224 138.181 713.112Z" fill="url(#paint31_linear)"/>
<path d="M136.958 565.832C123.236 576.493 109.666 587.282 96.184 598.277L86.1651 606.569C82.7786 609.337 79.5329 612.093 76.0699 614.796C72.6715 617.423 69.0558 619.997 65.4046 622.149C61.6125 624.312 57.7203 626.129 53.84 628.087C49.9596 630.044 46.1675 632.208 42.7809 634.976C39.3179 637.679 36.2369 640.705 32.9267 643.537C31.3421 644.948 29.6165 646.37 27.8791 647.651C26.1417 648.932 24.3279 650.149 22.5141 651.365C18.9511 653.722 15.1708 656.027 11.6961 658.589C4.60556 663.726 -1.70935 669.649 -8.17701 675.443C-14.6447 681.236 -21.265 686.901 -28.6965 691.357L-28.6202 691.421C-21.0241 687.236 -14.2628 681.559 -7.7069 675.971C-1.08648 670.306 5.30478 664.447 12.3307 659.387C15.8055 656.825 19.5213 654.597 23.1488 652.164C24.9626 650.947 26.7764 649.73 28.5138 648.449C30.2512 647.168 31.9003 645.681 33.485 644.271C36.7188 641.374 39.7999 638.348 43.1865 635.58C46.5731 632.812 50.2124 630.52 54.0164 628.498C57.8203 626.475 61.7007 624.517 65.4928 622.354C69.2086 620.126 72.7597 617.629 76.2227 614.925L96.6541 598.805C110.3 588.08 123.718 577.162 136.958 565.832Z" fill="url(#paint32_linear)"/>
</g>
</g>
<defs>
<linearGradient id="paint0_linear" x1="186.634" y1="123.462" x2="178.592" y2="132.977" gradientUnits="userSpaceOnUse">
<stop stop-color="#FFF8EE"/>
<stop offset="1" stop-color="#FFF8EE" stop-opacity="0"/>
</linearGradient>
<linearGradient id="paint1_linear" x1="236.927" y1="220.433" x2="228.886" y2="229.947" gradientUnits="userSpaceOnUse">
<stop stop-color="#FFF8EE"/>
<stop offset="1" stop-color="#FFF8EE" stop-opacity="0"/>
</linearGradient>
<linearGradient id="paint2_linear" x1="259.198" y1="332.737" x2="251.157" y2="342.252" gradientUnits="userSpaceOnUse">
<stop stop-color="#FFF8EE"/>
<stop offset="1" stop-color="#FFF8EE" stop-opacity="0"/>
</linearGradient>
<linearGradient id="paint3_linear" x1="146.824" y1="344.082" x2="138.783" y2="353.597" gradientUnits="userSpaceOnUse">
<stop stop-color="#FFF8EE"/>
<stop offset="1" stop-color="#FFF8EE" stop-opacity="0"/>
</linearGradient>
<linearGradient id="paint4_linear" x1="208.371" y1="463.524" x2="200.33" y2="473.039" gradientUnits="userSpaceOnUse">
<stop stop-color="#FFF8EE"/>
<stop offset="1" stop-color="#FFF8EE" stop-opacity="0"/>
</linearGradient>
<linearGradient id="paint5_linear" x1="140.552" y1="557.561" x2="132.51" y2="567.076" gradientUnits="userSpaceOnUse">
<stop stop-color="#FFF8EE"/>
<stop offset="1" stop-color="#FFF8EE" stop-opacity="0"/>
</linearGradient>
<linearGradient id="paint6_linear" x1="305.319" y1="152.588" x2="242.385" y2="227.057" gradientUnits="userSpaceOnUse">
<stop stop-color="#FFF8EE"/>
<stop offset="1" stop-color="#FFF8EE" stop-opacity="0"/>
</linearGradient>
<linearGradient id="paint7_linear" x1="220.14" y1="162.825" x2="194.515" y2="193.147" gradientUnits="userSpaceOnUse">
<stop stop-color="#FFF8EE"/>
<stop offset="1" stop-color="#FFF8EE" stop-opacity="0"/>
</linearGradient>
<linearGradient id="paint8_linear" x1="343.082" y1="183.585" x2="276.275" y2="262.636" gradientUnits="userSpaceOnUse">
<stop stop-color="#FFF8EE"/>
<stop offset="1" stop-color="#FFF8EE" stop-opacity="0"/>
</linearGradient>
<linearGradient id="paint9_linear" x1="362.985" y1="236.411" x2="312.767" y2="295.833" gradientUnits="userSpaceOnUse">
<stop stop-color="#FFF8EE"/>
<stop offset="1" stop-color="#FFF8EE" stop-opacity="0"/>
</linearGradient>
<linearGradient id="paint10_linear" x1="235.938" y1="228.024" x2="137.825" y2="344.118" gradientUnits="userSpaceOnUse">
<stop stop-color="#FFF8EE"/>
<stop offset="1" stop-color="#FFF8EE" stop-opacity="0"/>
</linearGradient>
<linearGradient id="paint11_linear" x1="224.232" y1="165.498" x2="99.3963" y2="313.212" gradientUnits="userSpaceOnUse">
<stop stop-color="#FFF8EE"/>
<stop offset="1" stop-color="#FFF8EE" stop-opacity="0"/>
</linearGradient>
<linearGradient id="paint12_linear" x1="225.272" y1="311.445" x2="172.73" y2="373.616" gradientUnits="userSpaceOnUse">
<stop stop-color="#FFF8EE"/>
<stop offset="1" stop-color="#FFF8EE" stop-opacity="0"/>
</linearGradient>
<linearGradient id="paint13_linear" x1="265.066" y1="255.913" x2="220.722" y2="308.385" gradientUnits="userSpaceOnUse">
<stop stop-color="#FFF8EE"/>
<stop offset="1" stop-color="#FFF8EE" stop-opacity="0"/>
</linearGradient>
<linearGradient id="paint14_linear" x1="271.954" y1="352.337" x2="187.267" y2="452.544" gradientUnits="userSpaceOnUse">
<stop stop-color="#FFF8EE"/>
<stop offset="1" stop-color="#FFF8EE" stop-opacity="0"/>
</linearGradient>
<linearGradient id="paint15_linear" x1="190.22" y1="388.398" x2="155.623" y2="429.336" gradientUnits="userSpaceOnUse">
<stop stop-color="#FFF8EE"/>
<stop offset="1" stop-color="#FFF8EE" stop-opacity="0"/>
</linearGradient>
<linearGradient id="paint16_linear" x1="284.023" y1="267.875" x2="151.442" y2="424.755" gradientUnits="userSpaceOnUse">
<stop stop-color="#FFF8EE"/>
<stop offset="1" stop-color="#FFF8EE" stop-opacity="0"/>
</linearGradient>
<linearGradient id="paint17_linear" x1="315.787" y1="385.06" x2="229.615" y2="487.024" gradientUnits="userSpaceOnUse">
<stop stop-color="#FFF8EE"/>
<stop offset="1" stop-color="#FFF8EE" stop-opacity="0"/>
</linearGradient>
<linearGradient id="paint18_linear" x1="307.183" y1="292.293" x2="265.744" y2="341.327" gradientUnits="userSpaceOnUse">
<stop stop-color="#FFF8EE"/>
<stop offset="1" stop-color="#FFF8EE" stop-opacity="0"/>
</linearGradient>
<linearGradient id="paint19_linear" x1="395.497" y1="265.72" x2="301.967" y2="376.392" gradientUnits="userSpaceOnUse">
<stop stop-color="#FFF8EE"/>
<stop offset="1" stop-color="#FFF8EE" stop-opacity="0"/>
</linearGradient>
<linearGradient id="paint20_linear" x1="298.572" y1="369.332" x2="295.731" y2="372.693" gradientUnits="userSpaceOnUse">
<stop stop-color="#FFF8EE"/>
<stop offset="1" stop-color="#FFF8EE" stop-opacity="0"/>
</linearGradient>
<linearGradient id="paint21_linear" x1="328.6" y1="404.136" x2="277.736" y2="464.322" gradientUnits="userSpaceOnUse">
<stop stop-color="#FFF8EE"/>
<stop offset="1" stop-color="#FFF8EE" stop-opacity="0"/>
</linearGradient>
<linearGradient id="paint22_linear" x1="375.592" y1="433.507" x2="318.984" y2="500.49" gradientUnits="userSpaceOnUse">
<stop stop-color="#FFF8EE"/>
<stop offset="1" stop-color="#FFF8EE" stop-opacity="0"/>
</linearGradient>
<linearGradient id="paint23_linear" x1="385.777" y1="441.983" x2="362.475" y2="469.556" gradientUnits="userSpaceOnUse">
<stop stop-color="#FFF8EE"/>
<stop offset="1" stop-color="#FFF8EE" stop-opacity="0"/>
</linearGradient>
<linearGradient id="paint24_linear" x1="206.67" y1="474.049" x2="134.829" y2="559.057" gradientUnits="userSpaceOnUse">
<stop stop-color="#FFF8EE"/>
<stop offset="1" stop-color="#FFF8EE" stop-opacity="0"/>
</linearGradient>
<linearGradient id="paint25_linear" x1="356.89" y1="534.751" x2="248.514" y2="662.99" gradientUnits="userSpaceOnUse">
<stop stop-color="#FFF8EE"/>
<stop offset="1" stop-color="#FFF8EE" stop-opacity="0"/>
</linearGradient>
<linearGradient id="paint26_linear" x1="292.089" y1="477.238" x2="260.203" y2="514.969" gradientUnits="userSpaceOnUse">
<stop stop-color="#FFF8EE"/>
<stop offset="1" stop-color="#FFF8EE" stop-opacity="0"/>
</linearGradient>
<linearGradient id="paint27_linear" x1="293.453" y1="483.758" x2="190.951" y2="605.046" gradientUnits="userSpaceOnUse">
<stop stop-color="#FFF8EE"/>
<stop offset="1" stop-color="#FFF8EE" stop-opacity="0"/>
</linearGradient>
<linearGradient id="paint28_linear" x1="267.288" y1="525.408" x2="192.8" y2="613.548" gradientUnits="userSpaceOnUse">
<stop stop-color="#FFF8EE"/>
<stop offset="1" stop-color="#FFF8EE" stop-opacity="0"/>
</linearGradient>
<linearGradient id="paint29_linear" x1="197.538" y1="614.836" x2="194.947" y2="617.902" gradientUnits="userSpaceOnUse">
<stop stop-color="#FFF8EE"/>
<stop offset="1" stop-color="#FFF8EE" stop-opacity="0"/>
</linearGradient>
<linearGradient id="paint30_linear" x1="200.994" y1="617.331" x2="147.225" y2="680.953" gradientUnits="userSpaceOnUse">
<stop stop-color="#FFF8EE"/>
<stop offset="1" stop-color="#FFF8EE" stop-opacity="0"/>
</linearGradient>
<linearGradient id="paint31_linear" x1="174.488" y1="595.323" x2="101.291" y2="681.936" gradientUnits="userSpaceOnUse">
<stop stop-color="#FFF8EE"/>
<stop offset="1" stop-color="#FFF8EE" stop-opacity="0"/>
</linearGradient>
<linearGradient id="paint32_linear" x1="119.583" y1="551.147" x2="-11.3206" y2="706.042" gradientUnits="userSpaceOnUse">
<stop stop-color="#FFF8EE"/>
<stop offset="1" stop-color="#FFF8EE" stop-opacity="0"/>
</linearGradient>
<clipPath id="clip0">
<rect width="240" height="485" fill="white" transform="translate(80 115)"/>
</clipPath>
<clipPath id="clip1">
<rect width="428.3" height="645.6" fill="white" transform="matrix(-0.763778 -0.645479 -0.645479 0.763778 549.847 347.459)"/>
</clipPath>
</defs>
</svg>
