<svg xmlns="http://www.w3.org/2000/svg" xmlns:xlink="http://www.w3.org/1999/xlink" width="1920" height="560" fill="none" xmlns:v="https://vecta.io/nano"><path fill="#000" d="M0 0h1920v560H0z"/><g opacity=".5" clip-path="url(#AG)"><path d="M704.3 364.1l.6 47.8-.1 47.8.1 23.9-.1 23.9-.8 23.9c-.4 8-.9 15.9-1.6 23.9l-.2-.4c5.9 5.2 11.5 10.8 17 16.4l16.3 17-.1.1-8.4-8.3-8.3-8.4c-5.6-5.6-11.2-11-17.2-16.1l-.2-.2v-.3c.7-7.9 1.2-15.9 1.6-23.8l.9-23.9a1269.77 1269.77 0 0 0 .6-47.8l-.5-47.8.2-47.8.2.1z" fill="url(#A)"/><path d="M703.3 539.9c2.6 3.2 5.4 6.1 8.3 8.9s6.2 5.3 9.3 7.9 6.1 5.5 8.9 8.5 5.5 6.1 8 9.3l.1.1v.1c-.4 10.2-.7 20.5-.6 30.7l.4 15.4.4 7.7c.1 2.6.1 5.1.1 7.7 0 5.1.1 10.3-.1 15.4 0 1.3-.1 2.6-.2 3.9s-.1 2.5-.2 3.8l-.5 38.4h-.1c-.3-10.2-.3-20.5-.4-30.7 0-2.6-.1-5.1 0-7.7 0-1.3.1-2.6.2-3.9s.1-2.5.2-3.8l.2-15.4-.1-7.7c0-2.6-.2-5.1-.3-7.7-.2-5.1-.2-10.3-.1-15.4l.3-30.7.1.2c-2.6-3.1-5.3-6.2-8.1-9.1s-5.7-5.8-8.7-8.5l-4.7-3.9c-1.6-1.3-3.1-2.7-4.5-4.2-2.9-2.8-5.5-5.9-7.9-9.3z" fill="url(#B)"/><path d="M723.3 416.5c1 5.6 1 11.4.9 17l-.4 17c-.2 5.7-.2 11.4-.1 17 .1 5.7.4 11.4.7 17l-.1-.3c2.6 2.9 5.6 5.4 8.6 7.9s6 5 8.8 7.7l8.3 8.2 8.2 8.4-.1.1-8.6-7.9-8.5-8c-2.8-2.7-5.8-5.1-8.8-7.7-3-2.5-5.9-5.1-8.5-8.1l-.1-.1v-.2l-.1-17.1-.2-17.1a243.86 243.86 0 0 1 .3-17.1l.2-8.5c-.2-2.5-.3-5.3-.5-8.2z" fill="url(#C)"/><path d="M724.5 472.7c2.5 3 5.4 5.4 8.3 8a79.27 79.27 0 0 1 4.1 4.1c1.4 1.4 2.6 2.9 4 4.2 2.8 2.7 5.8 5.1 8.7 7.5 2.9 2.5 5.8 5.1 8.2 8.3l-.1.1c-2.8-2.7-5.8-5.1-8.8-7.5-3-2.5-5.9-5-8.5-8-1.3-1.5-2.4-3-3.8-4.4-1.4-1.3-2.9-2.5-4.4-3.7-2.9-2.4-5.8-5.1-7.7-8.6z" fill="url(#D)"/><path d="M758 504.9c-.2 10.3.9 20.6 1 30.9.1 5.2-.5 10.3-.7 15.5-.1 1.3-.1 2.6-.2 3.9v3.9l.5 38.7-.3 31h-.1c-.4-10.3-.6-20.6-.6-31l.1-31 .1-7.7v-3.9l.1-3.9c.2-5.2.4-10.3.2-15.5-.2-10.3-1-20.6-.1-30.9z" fill="url(#E)"/><path d="M724.2 514.1c3.5 1.4 6.1 4.3 8.5 7.1s4.9 5.5 7.5 8.1c5.3 5.1 11 9.8 16.6 14.7 2.8 2.5 5.5 4.9 8.1 7.6l7.7 8 15.1 16.5v.2c.2 4.2.3 8.5.4 12.7v12.7l-.2 12.7-.4 12.7h-.1c-.1-4.2-.1-8.5-.1-12.7l-.1-12.7-.2-12.7-.3-12.7.1.3-14.6-16.7c-1.2-1.4-2.5-2.7-3.7-4.1-1.3-1.3-2.5-2.7-3.8-4-2.6-2.6-5.4-5-8.3-7.4-5.7-4.7-11.6-9.3-16.8-14.5-2.6-2.6-5.1-5.4-7.4-8.3-2.3-2.8-4.7-5.8-8-7.5z" fill="url(#F)"/><path d="M682.1 414.7l.5 14.6.4 14.6.3 14.6.1 14.8-.1.1c-3.1 2.3-6.2 4.8-9 7.5s-5.1 5.9-7.8 8.7c-2.7 2.9-5.7 5.4-8.8 7.8l-9.2 7.3.1-.3c.5 9.2.8 18.4.7 27.6 0 4.6-.1 9.2-.3 13.8-.1 4.6.3 9.2.3 13.8v.3l-.2.1c-2.8 1.7-4.9 4.2-7.1 6.7-2.1 2.5-4.4 5-6.7 7.4s-4.7 4.7-7.3 6.8c-2.5 2.2-5.1 4.2-7.8 6.2l-.1-.1c2.6-2.1 5.1-4.2 7.5-6.5 2.4-2.2 4.8-4.5 7.1-6.9s4.5-4.9 6.6-7.4 4.3-5.2 7.2-7l-.2.4c0-4.6-.5-9.2-.4-13.8l.3-13.8c.1-9.2 0-18.4-.3-27.6v-.2l.1-.1 9.3-7.2c3.1-2.4 6.1-4.9 8.8-7.7s4.9-6.1 7.7-8.8c2.8-2.8 5.8-5.3 8.9-7.7l-.1.3-.4-14.6-.2-14.6-.1-14.6v-14.6l.2.1z" fill="url(#G)"/><path d="M648.8 547.5c-5.1 4.6-10 9.2-14.9 13.9l-7.2 7.2-7.1 7.3.1-.2.6 24.3c.2 8.1.3 16.2.2 24.3l-.6 24.3c-.1 2-.2 4.1-.2 6 0 1 0 2 .2 3 .1 1 .4 2 .6 2.9 1 4 1.1 8.1.2 12.1h-.1c.6-4 .3-8.1-.7-12-.3-1-.5-2-.7-3s-.2-2.1-.3-3.1c0-2 .1-4.1.1-6.1l.6-24.3.4-24.3c0-8.1-.2-16.2-.8-24.3v-.1l.1-.1 7-7.5c2.4-2.5 4.8-4.8 7.3-7.2 4.7-4.5 9.8-8.9 15.2-13.1z" fill="url(#H)"/><path d="M649.4 559.7l-.7 33.4-.4 16.7c-.1 5.6 0 11.1.1 16.7l.8 33.4.4 33.4h-.1l-1.3-33.4c-.3-11.1-.5-22.3-.4-33.4l.1-16.7v-16.7c.1-11.1.6-22.3 1.4-33.4h.1z" fill="url(#I)"/><path d="M533.5 540.7l.5 28.5c.1 9.5 0 19-.2 28.5-.1 9.5.1 19 .2 28.5l.1 7.1v.9c0 .2.1.5.2.7.1.1.1.2.2.3s.1.1.3.2l.7.6 2.8 2.3 2.7 2.3c.9.7 1.9 1.4 2.8 2.1.9.6 2 1.2 3 2s1.8 1.7 2.5 2.8l.1.1v.2c-.2 4.1-.3 8.3-.4 12.4l.1 12.4.4 12.4.5 12.4h-.1L549 685c-.3-4.1-.5-8.3-.6-12.4a256.53 256.53 0 0 1 0-24.8l.1.3c-.6-1-1.4-1.8-2.2-2.5-.9-.7-1.9-1.2-2.9-1.9l-2.8-2.2-6.1-5.2c-.1-.1-.3-.2-.4-.4-.1-.1-.2-.3-.3-.5-.1-.3-.2-.6-.3-1v-.9l.1-7.1v-28.5l-.3-28.5.3-28.5-.1-.2z" fill="url(#J)"/><path d="M530.1 539.8l-6.5 6.2-6.1 6.6-5.9 6.8c-2 2.2-4 4.5-6.4 6.4l.1-.2.1 9.9v9.9l-.2 10-.4 9.9h-.1l-.3-9.9v-10l.2-9.9.3-10 .1-.1c2.4-1.8 4.5-4 6.4-6.3l5.6-7.1c1.9-2.3 4-4.5 6.2-6.5 2.1-2.1 4.4-4 6.9-5.7z" fill="url(#K)"/><path d="M533.4 549.1c-2.6 2-5.1 4.1-7.4 6.3l-3.5 3.4-3.2 3.8c-2 2.6-4.3 5-6.7 7.3-2.4 2.2-5 4.3-7.7 6.1l-.1-.1 7-6.8 7-6.9 3.3-3.6 3.2-3.8c2.4-2.3 5.1-4.3 8.1-5.7z" fill="url(#L)"/><path d="M703.7 481.8c-3 2.6-6 5.3-8.8 8.1-2.9 2.8-5.6 5.7-8.2 8.7-2.7 3-5.2 6.1-8 8.9-2.9 2.8-5.9 5.4-8.9 8l.1-.1.2 17.5-.1 17.5-.3 17.5-.4 17.5h-.1a506.33 506.33 0 0 1-.3-17.5l.1-17.5.6-35.1h.1c3-2.6 6-5.3 8.7-8.2 1.4-1.4 2.6-3 3.9-4.5l3.9-4.6c2.7-3 5.5-5.9 8.4-8.6 2.7-2.7 5.8-5.3 9.1-7.6z" fill="url(#M)"/><path d="M686 527.8c.4 3.8.6 7.6.7 11.5.1 1.9.1 3.8.1 5.7l-.1 5.7c-.1 3.8 0 7.6.1 11.5.1 3.8.1 7.7 0 11.5l-.1-.3c1.2 1.4 2.4 2.9 3.5 4.3l1.8 2.2 1.8 2.1 7.2 8.5-.1.1-7.8-8c-1.3-1.3-2.5-2.8-3.7-4.2s-2.4-2.9-3.5-4.3l-.1-.2v-.2l.4-11.5c.2-3.8.2-7.6.1-11.5l-.3-5.7c0-1.9-.1-3.8-.1-5.7v-11.5h.1z" fill="url(#N)"/><path d="M657.7 546.3c-.3 5-4.5 8.6-8.9 8.9-4.5.4-8.3-3.7-8.9-8.9.1-4.2 3.2-9.7 8.9-8.9 5.7.3 9.7 4.1 8.9 8.9z" fill="url(#O)"/><use xlink:href="#AJ" fill="url(#P)"/><path d="M733.4 408.4c-.3 5-4.5 8.6-8.9 8.9-4.5.4-8.3-3.7-8.9-8.9.1-4.2 3.2-9.7 8.9-8.9 5.7.3 9.7 4.2 8.9 8.9z" fill="url(#Q)"/><path d="M713.6 356c-.3 5-4.5 8.6-8.9 8.9-4.5.4-8.3-3.7-8.9-8.9.1-4.2 3.2-9.7 8.9-8.9 5.6.3 9.7 4.2 8.9 8.9z" fill="url(#R)"/><path d="M767.5 546.3c-.3 5-4.5 8.6-8.9 8.9-4.5.4-8.3-3.7-8.9-8.9.1-4.2 3.2-9.7 8.9-8.9 5.6.3 9.7 4.1 8.9 8.9z" fill="url(#S)"/><path d="M542.4 535.8c-.3 5-4.5 8.6-8.9 8.9-4.5.4-8.3-3.7-8.9-8.9.1-4.2 3.2-9.7 8.9-8.9 5.6.3 9.6 4.2 8.9 8.9z" fill="url(#T)"/><path d="M727.5 514.2c-.2 2.4-2.2 4.1-4.3 4.3s-4-1.7-4.3-4.3c0-2 1.5-4.6 4.3-4.3 2.8.1 4.7 2 4.3 4.3z" fill="url(#U)"/><path d="M690.6 524.2c-.2 2.4-2.2 4.1-4.3 4.3s-4-1.7-4.3-4.3c0-2 1.5-4.6 4.3-4.3 2.7.2 4.7 2.1 4.3 4.3z" fill="url(#V)"/><path d="M707.9 481.8c-.2 2.4-2.2 4.1-4.3 4.3s-4-1.7-4.3-4.3c0-2 1.5-4.6 4.3-4.3 2.8.2 4.7 2 4.3 4.3z" fill="url(#W)"/><path d="M687.4 447c-.2 2.4-2.2 4.1-4.3 4.3s-4-1.7-4.3-4.3c0-2 1.5-4.6 4.3-4.3 2.7.2 4.6 2 4.3 4.3z" fill="url(#X)"/><path d="M708.9 408.4c-.2 2.4-2.2 4.1-4.3 4.3s-4-1.7-4.3-4.3c0-2 1.5-4.6 4.3-4.3 2.8.2 4.7 2 4.3 4.3z" fill="url(#Y)"/></g><g clip-path="url(#AH)"><g clip-path="url(#AI)"><path d="M1777.87 84.224c-2.4 2.685-1.6 7.159.74 8.737 2.82 2.388 6.57 2.286 8.73-.733 1.85-2.497 1.48-6.865-.73-8.737-2.57-2.694-6.58-2.286-8.74.734z" fill="url(#Z)"/><path d="M1828.16 181.19c-2.4 2.685-1.6 7.159.74 8.737 2.82 2.389 6.57 2.287 8.73-.733 1.85-2.497 1.48-6.866-.73-8.737-2.57-2.694-6.57-2.146-8.74.733z" fill="url(#a)"/><path d="M1850.43 293.494c-2.4 2.685-1.6 7.159.74 8.738 2.82 2.388 6.57 2.286 8.73-.734 1.85-2.497 1.49-6.865-.73-8.737-2.57-2.694-6.57-2.145-8.74.733z" fill="url(#b)"/><path d="M1738.06 304.843c-2.4 2.685-1.6 7.159.74 8.737 2.82 2.388 6.58 2.286 8.73-.733 1.85-2.497 1.49-6.866-.73-8.738-2.57-2.693-6.64-2.209-8.74.734z" fill="url(#c)"/><path d="M1799.61 424.281c-2.4 2.685-1.6 7.159.73 8.738 2.83 2.388 6.58 2.286 8.74-.734 1.85-2.497 1.48-6.865-.74-8.737-2.56-2.694-6.56-2.145-8.73.733z" fill="url(#d)"/><path d="M1731.79 518.319c-2.4 2.685-1.6 7.159.73 8.737 2.83 2.389 6.58 2.287 8.74-.733 1.85-2.497 1.48-6.866-.74-8.737-2.56-2.694-6.5-2.222-8.73.733z" fill="url(#e)"/><path d="M1911.09 117.462c-6.45 5.154-12.68 10.501-18.74 15.978l-9.1 8.285-9.33 8.092-9.48 7.962-9.4 8.027c-6.22 5.348-12.43 10.836-18.42 16.377l.08.065 19.12-15.655a502.79 502.79 0 0 0 18.5-16.313c3.02-2.809 6.13-5.553 9.17-8.221 3.1-2.744 6.3-5.282 9.48-7.962 6.14-5.412 12.28-10.965 18.12-16.635z" fill="url(#f)"/><path d="M1831.48 184.388c-3.44-8.013-7.22-15.927-11.28-23.675l-6.29-11.465-6.22-11.541-6.28-11.465-6.43-11.452c-.5-.951-1.15-1.89-1.58-2.777s-.8-1.99-1.17-2.953l-2.63-6.023c-1.89-3.957-3.85-7.837-6.43-11.453l-.06.076c2.23 3.716 4.06 7.749 5.81 11.718l2.49 6.035c.37.963.74 2.066 1.18 3.094.59 1.015 1.09 1.966 1.6 2.917l13.04 22.677 6.43 11.453c2.09 3.868 3.91 7.76 5.87 11.641l11.95 23.193z" fill="url(#g)"/><path d="M1989.37 182.701c-3.11 1.041-6.49 1.325-9.83 1.251-3.27-.01-6.57-.442-9.92-.658-6.64-.506-13.35-.156-20 .118l-19.92 1.105c-6.57.338-13.29.548-19.95.681-13.32.267-26.52.239-39.85-.416l-19.93-.74-19.92-.598.02.141 19.9 1.238 19.89 1.098c13.26.732 26.58.466 39.87-.083l19.86-.887 19.89-.605c6.66-.133 13.3-.548 19.93-.182 3.27.15 6.56.442 9.97.44 3.46-.219 6.83-.644 9.99-1.903z" fill="url(#h)"/><path d="M2044.1 264.961l-79.01-30.763c-8.73-3.454-17.41-7.125-26.09-10.795l-13.16-5.354c-4.46-1.682-8.91-3.083-13.55-4.255-4.58-1.248-9.07-2.431-13.6-3.896a260.9 260.9 0 0 1-13.37-4.625l-26.4-10.132c-4.39-1.618-8.85-3.159-13.44-4.548-4.51-1.325-9.15-2.496-13.76-3.386l-.07.076c4.63 1.031 9.14 2.355 13.59 3.756 4.52 1.465 8.91 3.084 13.24 4.778l26.28 10.425c4.47 1.682 8.86 3.301 13.38 4.625 4.52 1.465 9.08 2.572 13.72 3.744 4.5 1.183 9.01 2.508 13.47 4.049s8.8 3.377 13.2 5.136l26.23 10.643 26.16 10.718c17.76 7.024 35.35 13.637 53.18 19.804z" fill="url(#i)"/><path d="M1832.54 185.151c-4.22 4.683-8.35 9.571-12.25 14.653-1.99 2.509-3.84 5.005-5.75 7.579-1.92 2.573-3.61 5.199-5.52 7.772l-10.68 15.726-11.04 15.545-22.85 30.443-11.57 15.093-11.66 15.028.08.065c4.14-4.747 8.2-9.7 12.11-14.641 3.99-4.876 7.97-9.894 11.81-14.899a790.41 790.41 0 0 0 22.46-30.767l10.89-15.673c3.61-5.199 7.44-10.346 11.12-15.48 7.29-10.334 14.88-20.55 22.85-30.444z" fill="url(#j)"/><path d="M1741.82 309.069l5.66-27.298 5.3-27.338 4.64-27.497 5.01-27.455 10.08-54.847 4.72-27.432 4.65-27.496-.14.012-5.22 27.403-5.08 27.391-9.59 54.875-4.78 27.509-5.23 27.402-10.02 54.771z" fill="url(#k)"/><path d="M1855.78 297.231c-9.55.306-19.01.816-28.46 1.609l-28.39 2.454c-9.52.728-18.95 1.662-28.36 2.736-9.42 1.075-18.89 2.366-28.29 3.723l.01.141c9.45-.793 18.94-1.803 28.43-2.813l28.4-3.235c4.78-.543 9.5-1.01 14.22-1.336l3.6-.231 3.54-.155 7.13-.386c9.24-.704 18.69-1.356 28.17-2.507z" fill="url(#l)"/><path d="M1855.02 297.367c.37-4.786-.37-9.477-1.33-14.081-.95-4.603-2.05-9.194-3.14-13.786l-3.49-13.686-3.15-13.786-6.14-27.584-6.92-27.448-.14.012c1.84 9.283 3.89 18.477 5.94 27.672s4.38 18.366 6.63 27.472c1.16 4.515 2.34 9.171 3.29 13.774 1.09 4.592 1.98 9.271 3 13.798.55 2.296 1.03 4.668 1.65 6.887l1.64 6.887c1.23 4.58 2.05 9.195 2.16 13.869z" fill="url(#m)"/><path d="M1855.38 298.33l-7.42 15.595-3.6 7.824c-1.2 2.655-2.1 5.427-2.78 8.252l-1.07 4.205-1.14 4.141c-.76 2.76-1.74 5.468-2.86 8.188-2.18 5.362-4.72 10.543-7.35 15.659-2.62 5.117-5.16 10.297-7.34 15.66-2.17 5.363-4.06 10.843-5.72 16.375-3.4 11.001-6.66 22.131-12.33 32.258l.07.064c3.07-4.87 5.6-10.191 7.64-15.542 2.1-5.427 3.84-10.895 5.5-16.428 1.74-5.468 3.48-10.936 5.58-16.363 2.18-5.363 4.58-10.532 6.97-15.842l7.19-15.789c1.06-2.643 2.18-5.362 3.08-8.135.46-1.315.9-2.772 1.29-4.152l1.14-4.141c1.45-5.585 4.07-10.701 6.32-15.999 2.4-5.169 4.66-10.467 6.83-15.83z" fill="url(#n)"/><path d="M1803.7 429.969c-2.28-5.201-4.7-10.391-7.12-15.58-2.43-5.19-4.91-10.303-7.54-15.405l-7.74-15.315c-1.28-2.519-2.49-5.114-3.7-7.708-1.28-2.519-2.49-5.114-3.91-7.62-2.69-5.025-6.13-9.633-9.3-14.405-3.23-4.696-5.78-9.733-8.2-14.922l-14.05-31.249-.06.076c2.07 5.29 4.29 10.567 6.51 15.845l6.71 15.757c1.21 2.595 2.42 5.19 3.84 7.696s2.9 4.937 4.52 7.355c3.23 4.696 6.74 9.227 9.63 14.164 2.9 4.937 5.39 10.05 7.81 15.24l7.33 15.492c2.43 5.19 4.98 10.226 7.54 15.404l7.73 15.175z" fill="url(#o)"/><path d="M1832.24 184.112l-7.36 61.075-3.33 30.579-3.6 30.602-1.91 15.275-.92 7.599-1.21 7.623c-.85 5.039-1.63 10.142-2.05 15.287l-1.13 15.28c-.85 10.147-2.05 20.395-3.32 30.578l-4.26 30.444.14-.011 4.97-30.363c1.49-10.13 2.77-20.313 3.68-30.537l1.13-15.281c.28-5.132 1.14-10.171 1.85-15.198.43-2.519.78-5.103 1.06-7.611.36-2.584.57-5.156.85-7.664l1.63-15.251 3.4-30.514 3.76-30.473 6.62-61.439z" fill="url(#p)"/><path d="M1938.85 364.553c-10.79 5.802-21.26 12.145-31.99 17.871-5.36 2.933-10.88 5.597-16.58 7.849-5.63 2.317-11.41 4.505-17.12 6.617s-11.4 4.505-16.92 7.168c-5.53 2.664-10.89 5.597-16.23 8.672-10.65 5.931-21.51 11.81-33.4 14.724l.02.141c6-1.213 11.86-3.196 17.47-5.654 5.62-2.458 11.05-5.327 16.41-8.26s10.64-5.932 16.09-8.66 11.14-5.121 16.76-7.438c11.32-4.711 22.83-8.728 33.79-14.261 5.45-2.728 10.72-5.867 15.99-9.006 5.33-3.215 10.61-6.354 15.71-9.763z" fill="url(#q)"/><path d="M1941.47 365.327l-26.81-44.654-13.78-22.118-13.5-22.283c-8.85-14.939-18.17-29.626-27.56-44.236l-14.11-21.877-14.26-21.866-.06.077 13.71 22.194 13.85 22.042 27.89 43.995 13.63 22.13 13.31 22.371 27.69 44.225z" fill="url(#r)"/><path d="M2043.19 266.031l-23.41 5.087c-7.8 1.79-15.53 3.504-23.47 4.383-3.94.473-7.9.663-11.88.571-1.98.025-3.97.05-6.01.292-1.97.165-3.93.472-5.95.855-7.83 1.508-15.72 2.951-23.57 4.178l-47.26 7.586-23.61 3.614-23.7 3.408.02.141 23.74-2.845 23.71-3.267a1357.74 1357.74 0 0 0 47.23-8.009l23.54-4.46c7.8-1.649 15.87-.197 23.88-1.153 8.02-.816 15.82-2.606 23.54-4.46l23.2-5.921z" fill="url(#s)"/><path d="M1940.96 365.156l-21.74-17.192c-3.64-2.816-7.28-5.633-10.87-8.667a319.72 319.72 0 0 1-10.62-8.972c-7.04-6.079-14.06-12.017-21.49-17.638-7.36-5.698-14.9-11.025-22.83-15.894l-.07.076c7.54 5.327 14.97 10.948 22.26 16.581l21.67 17.269 10.74 8.819 10.54 8.908c7.32 6.056 14.61 11.689 22.41 16.71z" fill="url(#t)"/><path d="M1950.83 486.094l-23.73-45.976-12.27-22.812-11.93-22.912-47.39-92.03-.07.076 11.33 23.318 11.59 23.153 24.07 45.876 12.07 22.901 11.8 23.064 24.53 45.342z" fill="url(#u)"/><path d="M1951.02 487.568l-.13-15.173c-.15-5.097-.08-10.142-.64-15.203-.29-2.601-.85-5.038-1.13-7.498a45.41 45.41 0 0 1-.42-7.558c0-2.483.21-5.056.28-7.616l.11-3.84c.03-1.281.07-2.561-.04-3.829-.15-10.206-1.77-20.217-3.17-30.175-1.41-9.959-2.68-20.07-2.25-30.182l-.14.012c-1.07 10.095-.07 20.37 1.34 30.329l2.11 15.008c.63 4.985 1.2 10.046 1.55 15.055.1 1.269.07 2.549.1 3.753s.07 2.548-.04 3.764l-.28 7.616a69.57 69.57 0 0 0 .21 7.646c.21 2.536.71 5.049.85 7.521.21 2.537.35 5.009.42 7.558l.28 7.569c.22 5.161.5 10.246.99 15.243z" fill="url(#v)"/><path d="M1943.16 365.966c1.04 4.808 3.12 9.317 5.47 13.661 2.42 4.267 5.11 8.37 7.86 12.397l8.18 12.156c2.75 4.027 5.38 8.207 8 12.386 5.16 8.294 10.47 16.577 15.91 24.706 5.37 8.207 10.87 16.26 16.51 24.301l.07-.076c-5.1-8.371-10.34-16.589-15.71-24.795l-24.37-36.698-7.85-12.397c-2.68-4.103-5.44-8.13-7.85-12.398-2.62-4.179-4.77-8.611-6.22-13.243z" fill="url(#w)"/><path d="M1802.09 430.176c-5.85 7.232-11.31 14.928-16.41 22.665l-7.59 11.778c-2.52 3.901-5.24 7.749-7.83 11.585l-15.73 23.105-15.2 23.556.08.065c5.47-7.555 10.71-15.304 15.95-23.052s10.26-15.55 15.35-23.428l7.67-11.714c2.59-3.836 5.31-7.684 7.98-11.455l15.73-23.105z" fill="url(#x)"/><path d="M1949.7 488.673l-22.69 35.681-11.73 17.589c-1.95 2.931-4.13 5.669-6.24 8.471l-3.19 4.242-3.35 4.113c-2.26 2.673-4.5 5.487-6.38 8.483-1.95 2.931-3.68 6.056-5.34 9.105-1.72 3.125-3.38 6.174-5.26 9.17s-3.98 5.798-6.32 8.407c-2.26 2.673-4.66 5.358-6.69 8.225-2.09 2.943-3.75 5.992-5.4 9.181-1.58 3.114-3.23 6.303-5.19 9.235-1.87 2.996-4.06 5.733-6.77 8.019l.07.065c2.8-2.221 5.2-4.907 7.15-7.838s3.68-6.056 5.34-9.105c1.72-3.125 3.46-6.109 5.57-8.912 2.1-2.802 4.44-5.411 6.7-8.084s4.5-5.487 6.38-8.483 3.53-6.186 5.19-9.234 3.3-6.239 5.18-9.235 3.98-5.798 6.17-8.536c8.64-11.156 16.9-22.636 24.87-34.232 7.8-11.867 15.16-23.98 21.93-36.327z" fill="url(#y)"/><path d="M1948.53 484.939c-5.66-3.215-11.8-5.395-18.06-7.282-6.27-1.887-12.51-3.634-18.58-5.75-12.27-4.079-24.27-9.245-36.2-14.488l-35.78-15.446-18.02-7.499-18.07-7.283-.06.077 17.83 7.869 17.9 7.794 53.97 22.434c6.02 2.475 11.92 5.102 18.06 7.282 12.3 4.503 25.18 6.615 37.01 12.292z" fill="url(#z)"/><path d="M1947.26 489.232c-17.53 2.466-34.96 5.277-52.39 8.23l-52.52 7.46-52.63 6.973-26.3 3.698-26.21 3.903.01.141 26.33-3.275 26.33-3.416 52.6-7.396 26.22-3.762 26.32-3.416 52.24-9.14z" fill="url(#AA)"/><path d="M1857.53 628.253c-5.2-16.31-9.98-32.656-14.69-49.077l-7.04-24.671c-2.33-8.249-4.37-16.522-6.55-24.783l-12.96-49.577-6.76-24.694-6.9-24.683-.14.012 6.27 24.806 6.41 24.795 13.45 49.465 6.69 24.771 6.55 24.782c4.79 16.487 9.85 32.808 15.67 48.854z" fill="url(#AB)"/><path d="M1857.13 630.273l-30.63-26.806-7.86-6.508c-2.59-2.194-5.26-4.312-7.79-6.583-5.13-4.466-9.6-9.555-14.2-14.49-4.54-5.012-9.74-9.543-14.79-13.944l-15.38-13.256a693.53 693.53 0 0 0-15.5-13.103l-15.65-13.091-.06.076 15.18 13.485 15.31 13.333 15.44 13.179 7.72 6.66a163.75 163.75 0 0 1 7.33 6.978l7.07 7.283a173.56 173.56 0 0 0 7.4 7.042l15.25 13.409c10.26 8.931 20.57 17.645 31.15 26.195l.01.141z" fill="url(#AC)"/><path d="M1812.11 695.787c-5.57-14.789-11.62-29.325-18.01-43.761l-9.82-21.527-28.86-64.847-9.69-21.539-9.62-21.616-.06.077 4.47 10.978 4.53 10.902 4.67 10.89 4.74 10.814 19.66 43.054 9.82 21.528c3.23 7.18 6.25 14.448 9.27 21.716l18.9 43.331z" fill="url(#AD)"/><path d="M1738.18 673.112c-.75-2.988-1.01-6.089-1.13-9.201l.15-9.307.56-18.639c.16-12.432.18-24.851.85-37.254l.78-18.586c.18-6.26.3-12.443.2-18.68-.12-12.407-.73-24.844-1.92-37.234l-.14.012c.54 12.372.88 24.833 1 37.241l-.06 18.668-.43 18.626-.56 18.639-.71 18.651c-.26 6.195-.3 12.443-.42 18.627-.02 3.124-.12 6.183.08 9.36.24 2.959.66 6.189 1.75 9.077z" fill="url(#AE)"/><path d="M1736.96 525.832l-40.78 32.445-10.01 8.292-10.1 8.227c-3.4 2.627-7.01 5.201-10.67 7.353-3.79 2.163-7.68 3.98-11.56 5.938s-7.67 4.121-11.06 6.889c-3.46 2.703-6.54 5.729-9.85 8.561-1.59 1.411-3.31 2.833-5.05 4.114s-3.55 2.498-5.37 3.714c-3.56 2.357-7.34 4.662-10.81 7.224-7.09 5.137-13.41 11.06-19.88 16.854-6.46 5.793-13.09 11.458-20.52 15.914l.08.064c7.6-4.185 14.36-9.862 20.91-15.45 6.62-5.665 13.01-11.524 20.04-16.584 3.48-2.562 7.19-4.79 10.82-7.223 1.81-1.217 3.63-2.434 5.36-3.715 1.74-1.281 3.39-2.768 4.97-4.178 3.24-2.897 6.32-5.923 9.71-8.691 3.38-2.768 7.02-5.06 10.83-7.082l11.47-6.144c3.72-2.228 7.27-4.725 10.73-7.429l20.43-16.12c13.65-10.725 27.07-21.643 40.31-32.973z" fill="url(#AF)"/></g></g><defs><linearGradient id="A" x1="718.4" y1="364" x2="718.4" y2="588.4" xlink:href="#AK"><stop stop-color="#fff8ee"/><stop offset="1" stop-color="#fff8ee" stop-opacity="0"/></linearGradient><linearGradient id="B" x1="720.763" y1="539.9" x2="720.763" y2="697.7" xlink:href="#AK"><stop stop-color="#fff8ee"/><stop offset="1" stop-color="#fff8ee" stop-opacity="0"/></linearGradient><linearGradient id="C" x1="740.731" y1="416.5" x2="740.731" y2="516.5" xlink:href="#AK"><stop stop-color="#fff8ee"/><stop offset="1" stop-color="#fff8ee" stop-opacity="0"/></linearGradient><linearGradient id="D" x1="741.15" y1="472.7" x2="741.15" y2="504.9" xlink:href="#AK"><stop stop-color="#fff8ee"/><stop offset="1" stop-color="#fff8ee" stop-opacity="0"/></linearGradient><linearGradient id="E" x1="758.285" y1="504.9" x2="758.285" y2="628.8" xlink:href="#AK"><stop stop-color="#fff8ee"/><stop offset="1" stop-color="#fff8ee" stop-opacity="0"/></linearGradient><linearGradient id="F" x1="756.172" y1="514.1" x2="756.172" y2="627.1" xlink:href="#AK"><stop stop-color="#fff8ee"/><stop offset="1" stop-color="#fff8ee" stop-opacity="0"/></linearGradient><linearGradient id="G" x1="651.75" y1="414.6" x2="651.75" y2="587.1" xlink:href="#AK"><stop stop-color="#fff8ee"/><stop offset="1" stop-color="#fff8ee" stop-opacity="0"/></linearGradient><linearGradient id="H" x1="633.85" y1="547.5" x2="633.85" y2="672.6" xlink:href="#AK"><stop stop-color="#fff8ee"/><stop offset="1" stop-color="#fff8ee" stop-opacity="0"/></linearGradient><linearGradient id="I" x1="648.687" y1="559.7" x2="648.687" y2="693.3" xlink:href="#AK"><stop stop-color="#fff8ee"/><stop offset="1" stop-color="#fff8ee" stop-opacity="0"/></linearGradient><linearGradient id="J" x1="541.637" y1="540.7" x2="541.637" y2="697.4" xlink:href="#AK"><stop stop-color="#fff8ee"/><stop offset="1" stop-color="#fff8ee" stop-opacity="0"/></linearGradient><linearGradient id="K" x1="517.25" y1="539.8" x2="517.25" y2="605.3" xlink:href="#AK"><stop stop-color="#fff8ee"/><stop offset="1" stop-color="#fff8ee" stop-opacity="0"/></linearGradient><linearGradient id="L" x1="519.1" y1="549.1" x2="519.1" y2="576" xlink:href="#AK"><stop stop-color="#fff8ee"/><stop offset="1" stop-color="#fff8ee" stop-opacity="0"/></linearGradient><linearGradient id="M" x1="686.3" y1="481.8" x2="686.3" y2="585.4" xlink:href="#AK"><stop stop-color="#fff8ee"/><stop offset="1" stop-color="#fff8ee" stop-opacity="0"/></linearGradient><linearGradient id="N" x1="693.4" y1="527.8" x2="693.4" y2="590.6" xlink:href="#AK"><stop stop-color="#fff8ee"/><stop offset="1" stop-color="#fff8ee" stop-opacity="0"/></linearGradient><linearGradient id="O" x1="648.851" y1="537.322" x2="648.851" y2="555.227" xlink:href="#AK"><stop stop-color="#fff8ee"/><stop offset="1" stop-color="#fff8ee" stop-opacity="0"/></linearGradient><linearGradient id="P" x1="683.151" y1="399.422" x2="683.151" y2="417.327" xlink:href="#AK"><stop stop-color="#fff8ee"/><stop offset="1" stop-color="#fff8ee" stop-opacity="0"/></linearGradient><linearGradient id="Q" x1="724.551" y1="399.422" x2="724.551" y2="417.327" xlink:href="#AK"><stop stop-color="#fff8ee"/><stop offset="1" stop-color="#fff8ee" stop-opacity="0"/></linearGradient><linearGradient id="R" x1="704.75" y1="347.022" x2="704.75" y2="364.927" xlink:href="#AK"><stop stop-color="#fff8ee"/><stop offset="1" stop-color="#fff8ee" stop-opacity="0"/></linearGradient><linearGradient id="S" x1="758.65" y1="537.322" x2="758.65" y2="555.227" xlink:href="#AK"><stop stop-color="#fff8ee"/><stop offset="1" stop-color="#fff8ee" stop-opacity="0"/></linearGradient><linearGradient id="T" x1="533.54" y1="526.822" x2="533.54" y2="544.727" xlink:href="#AK"><stop stop-color="#fff8ee"/><stop offset="1" stop-color="#fff8ee" stop-opacity="0"/></linearGradient><linearGradient id="U" x1="723.227" y1="509.876" x2="723.227" y2="518.514" xlink:href="#AK"><stop stop-color="#fff8ee"/><stop offset="1" stop-color="#fff8ee" stop-opacity="0"/></linearGradient><linearGradient id="V" x1="686.326" y1="519.876" x2="686.326" y2="528.514" xlink:href="#AK"><stop stop-color="#fff8ee"/><stop offset="1" stop-color="#fff8ee" stop-opacity="0"/></linearGradient><linearGradient id="W" x1="703.627" y1="477.476" x2="703.627" y2="486.114" xlink:href="#AK"><stop stop-color="#fff8ee"/><stop offset="1" stop-color="#fff8ee" stop-opacity="0"/></linearGradient><linearGradient id="X" x1="683.116" y1="442.676" x2="683.116" y2="451.315" xlink:href="#AK"><stop stop-color="#fff8ee"/><stop offset="1" stop-color="#fff8ee" stop-opacity="0"/></linearGradient><linearGradient id="Y" x1="704.627" y1="404.076" x2="704.627" y2="412.714" xlink:href="#AK"><stop stop-color="#fff8ee"/><stop offset="1" stop-color="#fff8ee" stop-opacity="0"/></linearGradient><linearGradient id="Z" x1="1786.63" y1="83.462" x2="1778.59" y2="92.977" xlink:href="#AK"><stop stop-color="#fff8ee"/><stop offset="1" stop-color="#fff8ee" stop-opacity="0"/></linearGradient><linearGradient id="a" x1="1836.93" y1="180.433" x2="1828.89" y2="189.947" xlink:href="#AK"><stop stop-color="#fff8ee"/><stop offset="1" stop-color="#fff8ee" stop-opacity="0"/></linearGradient><linearGradient id="b" x1="1859.2" y1="292.737" x2="1851.16" y2="302.252" xlink:href="#AK"><stop stop-color="#fff8ee"/><stop offset="1" stop-color="#fff8ee" stop-opacity="0"/></linearGradient><linearGradient id="c" x1="1746.82" y1="304.082" x2="1738.78" y2="313.597" xlink:href="#AK"><stop stop-color="#fff8ee"/><stop offset="1" stop-color="#fff8ee" stop-opacity="0"/></linearGradient><linearGradient id="d" x1="1808.37" y1="423.524" x2="1800.33" y2="433.039" xlink:href="#AK"><stop stop-color="#fff8ee"/><stop offset="1" stop-color="#fff8ee" stop-opacity="0"/></linearGradient><linearGradient id="e" x1="1740.55" y1="517.561" x2="1732.51" y2="527.076" xlink:href="#AK"><stop stop-color="#fff8ee"/><stop offset="1" stop-color="#fff8ee" stop-opacity="0"/></linearGradient><linearGradient id="f" x1="1905.32" y1="112.588" x2="1842.39" y2="187.057" xlink:href="#AK"><stop stop-color="#fff8ee"/><stop offset="1" stop-color="#fff8ee" stop-opacity="0"/></linearGradient><linearGradient id="g" x1="1820.14" y1="122.825" x2="1794.51" y2="153.147" xlink:href="#AK"><stop stop-color="#fff8ee"/><stop offset="1" stop-color="#fff8ee" stop-opacity="0"/></linearGradient><linearGradient id="h" x1="1943.08" y1="143.585" x2="1876.27" y2="222.636" xlink:href="#AK"><stop stop-color="#fff8ee"/><stop offset="1" stop-color="#fff8ee" stop-opacity="0"/></linearGradient><linearGradient id="i" x1="1962.99" y1="196.411" x2="1912.77" y2="255.833" xlink:href="#AK"><stop stop-color="#fff8ee"/><stop offset="1" stop-color="#fff8ee" stop-opacity="0"/></linearGradient><linearGradient id="j" x1="1835.94" y1="188.024" x2="1737.83" y2="304.118" xlink:href="#AK"><stop stop-color="#fff8ee"/><stop offset="1" stop-color="#fff8ee" stop-opacity="0"/></linearGradient><linearGradient id="k" x1="1824.23" y1="125.498" x2="1699.4" y2="273.212" xlink:href="#AK"><stop stop-color="#fff8ee"/><stop offset="1" stop-color="#fff8ee" stop-opacity="0"/></linearGradient><linearGradient id="l" x1="1825.27" y1="271.445" x2="1772.73" y2="333.616" xlink:href="#AK"><stop stop-color="#fff8ee"/><stop offset="1" stop-color="#fff8ee" stop-opacity="0"/></linearGradient><linearGradient id="m" x1="1865.07" y1="215.913" x2="1820.72" y2="268.385" xlink:href="#AK"><stop stop-color="#fff8ee"/><stop offset="1" stop-color="#fff8ee" stop-opacity="0"/></linearGradient><linearGradient id="n" x1="1871.95" y1="312.337" x2="1787.27" y2="412.544" xlink:href="#AK"><stop stop-color="#fff8ee"/><stop offset="1" stop-color="#fff8ee" stop-opacity="0"/></linearGradient><linearGradient id="o" x1="1790.22" y1="348.398" x2="1755.62" y2="389.336" xlink:href="#AK"><stop stop-color="#fff8ee"/><stop offset="1" stop-color="#fff8ee" stop-opacity="0"/></linearGradient><linearGradient id="p" x1="1884.02" y1="227.875" x2="1751.44" y2="384.755" xlink:href="#AK"><stop stop-color="#fff8ee"/><stop offset="1" stop-color="#fff8ee" stop-opacity="0"/></linearGradient><linearGradient id="q" x1="1915.79" y1="345.06" x2="1829.62" y2="447.024" xlink:href="#AK"><stop stop-color="#fff8ee"/><stop offset="1" stop-color="#fff8ee" stop-opacity="0"/></linearGradient><linearGradient id="r" x1="1907.18" y1="252.293" x2="1865.74" y2="301.327" xlink:href="#AK"><stop stop-color="#fff8ee"/><stop offset="1" stop-color="#fff8ee" stop-opacity="0"/></linearGradient><linearGradient id="s" x1="1995.5" y1="225.72" x2="1901.97" y2="336.392" xlink:href="#AK"><stop stop-color="#fff8ee"/><stop offset="1" stop-color="#fff8ee" stop-opacity="0"/></linearGradient><linearGradient id="t" x1="1898.57" y1="329.332" x2="1895.73" y2="332.693" xlink:href="#AK"><stop stop-color="#fff8ee"/><stop offset="1" stop-color="#fff8ee" stop-opacity="0"/></linearGradient><linearGradient id="u" x1="1928.6" y1="364.136" x2="1877.74" y2="424.322" xlink:href="#AK"><stop stop-color="#fff8ee"/><stop offset="1" stop-color="#fff8ee" stop-opacity="0"/></linearGradient><linearGradient id="v" x1="1975.59" y1="393.507" x2="1918.98" y2="460.49" xlink:href="#AK"><stop stop-color="#fff8ee"/><stop offset="1" stop-color="#fff8ee" stop-opacity="0"/></linearGradient><linearGradient id="w" x1="1985.78" y1="401.983" x2="1962.47" y2="429.556" xlink:href="#AK"><stop stop-color="#fff8ee"/><stop offset="1" stop-color="#fff8ee" stop-opacity="0"/></linearGradient><linearGradient id="x" x1="1806.67" y1="434.049" x2="1734.83" y2="519.057" xlink:href="#AK"><stop stop-color="#fff8ee"/><stop offset="1" stop-color="#fff8ee" stop-opacity="0"/></linearGradient><linearGradient id="y" x1="1956.89" y1="494.751" x2="1848.51" y2="622.99" xlink:href="#AK"><stop stop-color="#fff8ee"/><stop offset="1" stop-color="#fff8ee" stop-opacity="0"/></linearGradient><linearGradient id="z" x1="1892.09" y1="437.238" x2="1860.2" y2="474.969" xlink:href="#AK"><stop stop-color="#fff8ee"/><stop offset="1" stop-color="#fff8ee" stop-opacity="0"/></linearGradient><linearGradient id="AA" x1="1893.45" y1="443.758" x2="1790.95" y2="565.046" xlink:href="#AK"><stop stop-color="#fff8ee"/><stop offset="1" stop-color="#fff8ee" stop-opacity="0"/></linearGradient><linearGradient id="AB" x1="1867.29" y1="485.408" x2="1792.8" y2="573.548" xlink:href="#AK"><stop stop-color="#fff8ee"/><stop offset="1" stop-color="#fff8ee" stop-opacity="0"/></linearGradient><linearGradient id="AC" x1="1797.54" y1="574.836" x2="1794.95" y2="577.902" xlink:href="#AK"><stop stop-color="#fff8ee"/><stop offset="1" stop-color="#fff8ee" stop-opacity="0"/></linearGradient><linearGradient id="AD" x1="1800.99" y1="577.331" x2="1747.23" y2="640.953" xlink:href="#AK"><stop stop-color="#fff8ee"/><stop offset="1" stop-color="#fff8ee" stop-opacity="0"/></linearGradient><linearGradient id="AE" x1="1774.49" y1="555.323" x2="1701.29" y2="641.936" xlink:href="#AK"><stop stop-color="#fff8ee"/><stop offset="1" stop-color="#fff8ee" stop-opacity="0"/></linearGradient><linearGradient id="AF" x1="1719.58" y1="511.147" x2="1588.68" y2="666.042" xlink:href="#AK"><stop stop-color="#fff8ee"/><stop offset="1" stop-color="#fff8ee" stop-opacity="0"/></linearGradient><clipPath id="AG"><path fill="#fff" transform="translate(474 345)" d="M0 0h324v215H0z"/></clipPath><clipPath id="AH"><path fill="#fff" transform="translate(1680)" d="M0 0h240v560H0z"/></clipPath><clipPath id="AI"><path fill="#fff" transform="matrix(-.763778 -.645479 -.645479 .763778 2149.85 307.459)" d="M0 0h428.3v645.6H0z"/></clipPath><path id="AJ" d="M692 408.4c-.3 5-4.5 8.6-8.9 8.9-4.5.4-8.3-3.7-8.9-8.9.1-4.2 3.2-9.7 8.9-8.9 5.7.3 9.7 4.2 8.9 8.9z"/><linearGradient id="AK" gradientUnits="userSpaceOnUse"/></defs></svg>