<svg xmlns="http://www.w3.org/2000/svg" xmlns:xlink="http://www.w3.org/1999/xlink" width="768" height="400" fill="none"  xmlns:v="https://vecta.io/nano"><g clip-path="url(#AG)"><path fill="#000" d="M0 0h768v400H0z"/><g opacity=".2" clip-path="url(#AH)"><g clip-path="url(#AI)"><path d="M650.745 7.609c-1.98 2.215-1.319 5.906.605 7.208 2.331 1.97 5.427 1.886 7.208-.605 1.525-2.06 1.222-5.664-.605-7.208-2.118-2.222-5.427-1.886-7.208.605z" fill="url(#A)"/><path d="M692.234 87.607c-1.98 2.215-1.319 5.906.605 7.208 2.331 1.97 5.427 1.886 7.208-.605 1.525-2.06 1.222-5.664-.605-7.208-2.118-2.222-5.417-1.77-7.208.605z" fill="url(#B)"/><path d="M710.607 180.258c-1.98 2.215-1.319 5.906.605 7.208 2.332 1.97 5.427 1.886 7.209-.605 1.524-2.06 1.222-5.664-.606-7.208-2.118-2.223-5.417-1.77-7.208.605z" fill="url(#C)"/><path d="M617.902 189.62c-1.98 2.215-1.319 5.907.605 7.209 2.332 1.97 5.428 1.886 7.209-.605 1.525-2.06 1.222-5.665-.605-7.209-2.119-2.222-5.481-1.823-7.209.605z" fill="url(#D)"/><path d="M668.675 288.157c-1.98 2.215-1.319 5.906.605 7.208 2.332 1.971 5.427 1.887 7.209-.605 1.524-2.059 1.222-5.664-.606-7.208-2.118-2.222-5.417-1.77-7.208.605z" fill="url(#E)"/><path d="M612.724 365.738c-1.98 2.216-1.319 5.907.605 7.209 2.331 1.97 5.427 1.886 7.208-.605 1.525-2.06 1.222-5.664-.605-7.209-2.118-2.222-5.364-1.833-7.208.605z" fill="url(#F)"/><path d="M760.646 35.031c-5.322 4.252-10.454 8.664-15.461 13.182l-7.505 6.835-7.694 6.676-7.82 6.569-7.757 6.622c-5.132 4.412-10.255 8.94-15.199 13.511l.063.053 15.776-12.916a407.54 407.54 0 0 0 15.262-13.458c2.498-2.317 5.06-4.581 7.568-6.782 2.561-2.264 5.195-4.358 7.82-6.569 5.069-4.465 10.129-9.046 14.947-13.724z" fill="url(#G)"/><path d="M694.972 90.246a282.55 282.55 0 0 0-9.308-19.532l-5.185-9.458-5.131-9.521-5.185-9.458-5.3-9.448-1.305-2.291s-.665-1.642-.966-2.436l-2.173-4.969c-1.562-3.264-3.177-6.466-5.301-9.449l-.053.063c1.838 3.066 3.347 6.393 4.792 9.667l2.057 4.979c.301.794.612 1.705.976 2.553.48.838.897 1.622 1.314 2.407l10.761 18.708 5.301 9.449c1.732 3.192 3.231 6.403 4.846 9.604l9.86 19.135z" fill="url(#H)"/><path d="M825.227 88.854c-2.562.859-5.352 1.093-8.109 1.032-2.693-.008-5.416-.365-8.183-.542-5.479-.418-11.016-.129-16.5.097l-16.432.911c-5.421.279-10.968.452-16.462.562-10.987.22-21.878.197-32.87-.344l-16.443-.61-16.433-.494.009.116 16.419 1.022 16.409.906c10.94.604 21.927.384 32.895-.068l16.389-.732 16.408-.499c5.494-.11 10.968-.452 16.438-.15 2.703.124 5.416.365 8.226.363 2.853-.181 5.634-.531 8.239-1.57z" fill="url(#I)"/><path d="M870.381 156.718l-65.179-25.38c-7.206-2.849-14.368-5.877-21.53-8.906l-10.85-4.416a103.25 103.25 0 0 0-11.183-3.511c-3.775-1.029-7.486-2.006-11.217-3.214a213.63 213.63 0 0 1-11.034-3.816l-21.776-8.358c-3.625-1.335-7.303-2.607-11.087-3.753-3.721-1.093-7.549-2.059-11.357-2.793l-.054.063c3.818.85 7.54 1.943 11.208 3.099 3.731 1.209 7.355 2.544 10.927 3.942l21.679 8.601c3.688 1.388 7.313 2.723 11.034 3.815 3.731 1.209 7.496 2.122 11.324 3.089 3.711.976 7.432 2.069 11.11 3.341s7.259 2.786 10.893 4.237l21.637 8.78 21.583 8.843c14.653 5.795 29.161 11.25 43.872 16.338z" fill="url(#J)"/><path d="M695.845 90.875c-3.481 3.863-6.889 7.896-10.108 12.088-1.641 2.07-3.166 4.13-4.744 6.253s-2.977 4.289-4.555 6.412l-8.804 12.974-9.11 12.824-18.85 25.116-9.55 12.452-9.614 12.398.063.053c3.418-3.916 6.763-8.002 9.992-12.078a498.17 498.17 0 0 0 9.74-12.292c6.384-8.322 12.58-16.804 18.534-25.382l8.984-12.931c2.976-4.289 6.133-8.535 9.172-12.771 6.017-8.525 12.276-16.954 18.85-25.116h0z" fill="url(#K)"/><path d="M621.005 193.107l4.666-22.521 4.371-22.554 3.833-22.684 4.128-22.651 8.32-45.249 3.896-22.631 3.832-22.685-.116.01-4.307 22.607-4.192 22.598-11.857 67.967-4.308 22.607-8.266 45.186z" fill="url(#L)"/><path d="M715.022 183.341c-7.881.252-15.691.673-23.48 1.327l-23.423 2.025c-7.852.601-15.632 1.371-23.402 2.257s-15.584 1.952-23.335 3.071l.01.116c7.79-.653 15.623-1.487 23.456-2.32l23.427-2.669c3.943-.448 7.833-.833 11.733-1.102l2.969-.191 2.917-.127 5.885-.319c7.621-.581 15.42-1.118 23.243-2.068z" fill="url(#M)"/><path d="M714.388 183.453c.312-3.949-.305-7.819-1.092-11.617s-1.691-7.585-2.594-11.373-1.977-7.503-2.88-11.291l-2.594-11.374-5.071-22.756-5.706-22.645-.117.01c1.521 7.659 3.212 15.244 4.902 22.83s3.614 15.152 5.474 22.664c.956 3.725 1.923 7.566 2.71 11.364.903 3.788 1.637 7.649 2.478 11.383.451 1.894.85 3.851 1.355 5.682l1.355 5.682c1.019 3.778 1.69 7.586 1.78 11.442z" fill="url(#N)"/><path d="M714.689 184.247l-6.121 12.866-2.971 6.455c-.986 2.19-1.731 4.477-2.297 6.808l-.879 3.469-.943 3.416c-.628 2.278-1.436 4.511-2.36 6.755-1.795 4.424-3.894 8.698-6.057 12.919s-4.263 8.495-6.058 12.92-3.347 8.945-4.72 13.509c-2.809 9.076-5.492 18.258-10.177 26.613l.063.053c2.531-4.018 4.622-8.408 6.3-12.823 1.732-4.477 3.168-8.988 4.541-13.553 1.436-4.511 2.872-9.022 4.604-13.499 1.794-4.425 3.778-8.689 5.752-13.07l5.931-13.025c.871-2.181 1.795-4.425 2.54-6.712.377-1.085.744-2.287 1.059-3.425l.942-3.416c1.194-4.608 3.357-8.829 5.215-13.2 1.983-4.265 3.841-8.636 5.636-13.06z" fill="url(#O)"/><path d="M672.055 292.849c-1.883-4.291-3.881-8.572-5.88-12.853s-4.05-8.5-6.218-12.709l-6.388-12.635c-1.053-2.078-2.052-4.219-3.051-6.359-1.053-2.078-2.052-4.219-3.221-6.287-2.221-4.145-5.058-7.947-7.671-11.884-2.667-3.874-4.772-8.029-6.771-12.31l-11.589-25.781-.053.063c1.712 4.364 3.542 8.718 5.371 13.072l5.54 13c.999 2.14 1.999 4.281 3.167 6.349s2.391 4.073 3.729 6.068c2.667 3.874 5.557 7.612 7.948 11.685s4.442 8.291 6.441 12.573l6.049 12.781c1.998 4.281 4.104 8.436 6.218 12.708l6.379 12.519z" fill="url(#P)"/><path d="M695.597 90.017l-6.073 50.387-2.742 25.228-2.973 25.247-1.577 12.601-.762 6.27-.994 6.289c-.705 4.157-1.346 8.367-1.693 12.611l-.932 12.606c-.702 8.372-1.69 16.826-2.741 25.227l-3.512 25.117.117-.01 4.102-25.049c1.231-8.357 2.282-16.759 3.037-25.193l.932-12.607c.23-4.234.935-8.391 1.524-12.538a119.26 119.26 0 0 0 .878-6.279c.289-2.132.462-4.254.698-6.323l1.344-12.582 2.804-25.174 3.1-25.141 5.463-50.687z" fill="url(#Q)"/><path d="M783.553 238.881c-8.906 4.787-17.54 10.02-26.393 14.744-4.422 2.42-8.98 4.617-13.682 6.476-4.64 1.911-9.406 3.716-14.119 5.458s-9.406 3.717-13.963 5.914-8.979 4.618-13.391 7.154c-8.78 4.894-17.74 9.744-27.549 12.148l.01.116c4.951-1.001 9.789-2.637 14.419-4.664s9.115-4.395 13.537-6.815 8.78-4.894 13.274-7.144 9.188-4.226 13.828-6.137c9.333-3.886 18.831-7.201 27.873-11.765 4.495-2.251 8.844-4.84 13.192-7.43 4.403-2.653 8.751-5.242 12.964-8.055z" fill="url(#R)"/><path d="M785.715 239.519l-22.119-36.839-11.367-18.247-11.144-18.383c-7.298-12.325-14.989-24.442-22.733-36.495l-11.643-18.049-11.759-18.039-.053.063 11.313 18.311 11.42 18.184 23.01 36.296 11.25 18.257 10.975 18.456 22.85 36.485z" fill="url(#S)"/><path d="M869.636 157.6l-19.318 4.198c-6.433 1.476-12.812 2.89-19.366 3.616-3.246.389-6.511.546-9.796.471-1.637.02-3.275.04-4.956.24-1.627.137-3.245.39-4.916.705-6.453 1.245-12.968 2.435-19.439 3.447l-38.991 6.259-19.478 2.981-19.551 2.812.01.117 19.59-2.347 19.561-2.696c13.006-1.97 25.993-4.173 38.961-6.608l19.419-3.679c6.443-1.36 13.1-.163 19.707-.952 6.618-.672 13.05-2.149 19.42-3.679l19.143-4.885z" fill="url(#T)"/><path d="M785.293 239.379l-17.934-14.184c-3.005-2.323-6.01-4.647-8.971-7.15a264 264 0 0 1-8.759-7.402c-5.807-5.015-11.604-9.914-17.73-14.552-6.073-4.7-12.296-9.095-18.839-13.112l-.053.063c6.223 4.395 12.349 9.032 18.359 13.68s11.977 9.473 17.881 14.246l8.865 7.276 8.695 7.349c6.04 4.996 12.05 9.643 18.486 13.786z" fill="url(#U)"/><path d="M793.434 339.153l-19.575-37.931-10.127-18.82-9.841-18.902-19.523-37.994-19.576-37.931-.053.063 9.343 19.237 9.565 19.102 19.861 37.848 9.957 18.892 9.735 19.029 20.234 37.407z" fill="url(#V)"/><path d="M793.595 340.369l-.114-12.518c-.119-4.205-.059-8.367-.526-12.543-.239-2.146-.7-4.156-.929-6.186-.292-2.083-.405-4.122-.348-6.234.003-2.05.177-4.172.233-6.284l.086-3.168c.028-1.056.057-2.113-.031-3.159-.122-8.42-1.459-16.679-2.617-24.895s-2.209-16.557-1.856-24.9l-.116.01c-.882 8.329-.053 16.806 1.105 25.022l1.742 12.381c.521 4.113.988 8.289 1.277 12.421.088 1.046.059 2.103.084 3.096s.059 2.102-.032 3.105l-.234 6.284a56.89 56.89 0 0 0 .179 6.307c.175 2.093.583 4.166.696 6.206a111.68 111.68 0 0 1 .348 6.234l.231 6.245c.182 4.258.417 8.453.822 12.576z" fill="url(#W)"/><path d="M787.105 240.047c.86 3.967 2.577 7.686 4.517 11.27 1.994 3.521 4.21 6.906 6.479 10.228l6.754 10.029c2.27 3.322 4.433 6.77 6.595 10.218 4.263 6.843 8.642 13.676 13.127 20.383 4.432 6.77 8.97 13.414 13.625 20.048l.054-.063c-4.21-6.906-8.526-13.686-12.958-20.456l-20.103-30.276c-2.217-3.385-4.263-6.842-6.479-10.227s-4.485-6.707-6.479-10.228c-2.162-3.448-3.933-7.105-5.132-10.926z" fill="url(#X)"/><path d="M670.722 293.02c-4.826 5.967-9.328 12.316-13.534 18.698l-6.267 9.718c-2.072 3.218-4.323 6.392-6.457 9.557l-12.977 19.062-12.536 19.434.063.053c4.512-6.233 8.834-12.625 13.156-19.018s8.466-12.829 12.662-19.328l6.331-9.664c2.134-3.164 4.385-6.339 6.583-9.451l12.976-19.061z" fill="url(#Y)"/><path d="M792.5 341.28l-18.72 29.438-9.671 14.51-5.151 6.989-2.633 3.499-2.759 3.393c-1.864 2.206-3.718 4.527-5.267 6.999-1.612 2.419-3.034 4.997-4.404 7.512l-4.341 7.565a50.91 50.91 0 0 1-5.213 6.936l-5.519 6.785c-1.728 2.429-3.097 4.944-4.457 7.575l-4.278 7.618c-1.549 2.472-3.35 4.731-5.592 6.617l.063.053c2.305-1.833 4.285-4.048 5.897-6.466s3.035-4.997 4.404-7.512c1.423-2.578 2.855-5.04 4.593-7.352s3.665-4.464 5.529-6.67 3.718-4.527 5.266-6.998 2.909-5.103 4.278-7.619 2.73-5.146 4.278-7.618 3.287-4.783 5.088-7.042c7.13-9.204 13.946-18.675 20.519-28.242 6.437-9.79 12.506-19.783 18.09-29.97z" fill="url(#Z)"/><path d="M791.539 338.199c-4.671-2.652-9.74-4.451-14.905-6.007s-10.321-2.998-15.326-4.744c-10.118-3.365-20.018-7.627-29.865-11.952l-29.521-12.743-14.862-6.187-14.905-6.008-.053.063 14.712 6.492 14.765 6.43 44.523 18.508c4.972 2.041 9.837 4.209 14.906 6.008 10.146 3.714 20.772 5.457 30.531 10.14z" fill="url(#a)"/><path d="M790.49 341.742c-14.464 2.034-28.847 4.353-43.219 6.789l-43.331 6.155-43.423 5.752-21.697 3.051-21.624 3.22.01.117 21.726-2.702 21.716-2.818 43.394-6.102 21.634-3.104 21.717-2.818 43.097-7.54z" fill="url(#b)"/><path d="M716.462 456.433c-4.291-13.455-8.233-26.94-12.121-40.488l-5.807-20.353c-1.917-6.806-3.603-13.631-5.404-20.446l-10.693-40.901-5.574-20.373-5.69-20.363-.116.01 5.172 20.465 5.288 20.455 11.095 40.809 5.52 20.436 5.405 20.445c3.951 13.602 8.126 27.067 12.925 40.304z" fill="url(#c)"/><path d="M716.134 458.1l-25.273-22.115-6.481-5.368-6.427-5.432c-4.231-3.684-7.921-7.882-11.716-11.954-3.743-4.135-8.038-7.873-12.206-11.504l-12.685-10.936a566.22 566.22 0 0 0-12.791-10.81l-12.908-10.8-.053.063 12.525 11.125 12.632 10.999 12.738 10.873 6.374 5.495c2.089 1.874 4.125 3.81 6.044 5.757l5.832 6.008a143.56 143.56 0 0 0 6.108 5.81l12.578 11.062c8.463 7.368 16.97 14.557 25.699 21.611l.01.116z" fill="url(#d)"/><path d="M678.989 512.149c-4.595-12.201-9.582-24.193-14.856-36.102l-8.106-17.76-7.936-17.833-15.873-35.666-7.99-17.77-7.937-17.833-.053.063 3.688 9.057 3.74 8.994 3.857 8.985 3.91 8.921 24.318 53.28c2.664 5.924 5.157 11.92 7.651 17.916l15.587 35.748z" fill="url(#e)"/><path d="M617.999 493.443c-.616-2.466-.831-5.024-.93-7.591l.117-7.679.465-15.377.699-30.734.644-15.334c.152-5.164.251-10.266.17-15.41-.098-10.237-.608-20.497-1.583-30.719l-.116.01c.447 10.207.724 20.487.823 30.724l-.054 15.401-.349 15.367-.466 15.377-.581 15.386c-.215 5.111-.251 10.266-.35 15.368-.017 2.577-.098 5.101.063 7.722.205 2.441.546 5.106 1.448 7.489z" fill="url(#f)"/><path d="M616.991 371.936l-33.639 26.768-8.266 6.84-8.328 6.788c-2.804 2.167-5.787 4.291-8.799 6.066-3.129 1.784-6.34 3.283-9.541 4.898s-6.33 3.4-9.124 5.684c-2.857 2.23-5.399 4.726-8.13 7.063a58.98 58.98 0 0 1-4.164 3.394c-1.433 1.057-2.93 2.061-4.426 3.064-2.939 1.945-6.058 3.846-8.925 5.96-5.849 4.237-11.059 9.124-16.395 13.904s-10.798 9.453-16.929 13.129l.063.054c6.267-3.454 11.845-8.137 17.254-12.747 5.462-4.674 10.734-9.507 16.531-13.682 2.867-2.114 5.932-3.952 8.925-5.959 1.496-1.004 2.992-2.008 4.426-3.064s2.794-2.284 4.101-3.447c2.668-2.39 5.21-4.887 8.004-7.17s5.796-4.175 8.934-5.844l9.469-5.068c3.065-1.838 5.995-3.899 8.852-6.129l16.856-13.299c11.258-8.848 22.327-17.856 33.251-27.203z" fill="url(#g)"/></g></g><g opacity=".05" clip-path="url(#AJ)"><path d="M246.844 224.146l.539 42.909-.09 42.909.09 21.454-.09 21.454-.719 21.455c-.359 7.181-.808 14.273-1.437 21.454l-.179-.359c5.299 4.668 10.328 9.695 15.268 14.722l14.64 15.261-.09.089-7.544-7.45-7.455-7.541c-5.03-5.027-10.059-9.874-15.448-14.452l-.18-.18v-.269c.629-7.092 1.078-14.273 1.437-21.365l.809-21.454a1139.01 1139.01 0 0 0 .538-42.909l-.449-42.909.18-42.909.18.09z" fill="url(#h)"/><path d="M245.945 381.957c2.335 2.872 4.85 5.476 7.455 7.989s5.568 4.758 8.353 7.092 5.478 4.937 7.993 7.63 4.94 5.476 7.185 8.348l.09.09v.09c-.359 9.156-.628 18.402-.539 27.558l.36 13.825.359 6.912c.09 2.334.09 4.578.09 6.912 0 4.578.089 9.246-.09 13.824 0 1.167-.09 2.334-.18 3.501s-.09 2.244-.179 3.411l-.449 34.471h-.09c-.27-9.156-.27-18.403-.36-27.559 0-2.334-.089-4.578 0-6.912 0-1.167.09-2.334.18-3.501s.09-2.244.18-3.411l.179-13.824-.089-6.912c0-2.334-.18-4.578-.27-6.912-.18-4.579-.18-9.246-.09-13.825l.27-27.558.09.179c-2.336-2.782-4.761-5.565-7.275-8.168s-5.12-5.207-7.814-7.631l-4.222-3.501c-1.437-1.167-2.784-2.423-4.041-3.77-2.605-2.513-4.94-5.296-7.096-8.348z" fill="url(#i)"/><path d="M263.908 271.184c.899 5.027.899 10.234.809 15.261l-.359 15.26c-.18 5.117-.18 10.233-.09 15.26.09 5.117.359 10.234.628 15.261l-.089-.269c2.335 2.603 5.029 4.847 7.724 7.091s5.389 4.489 7.903 6.912l7.455 7.361 7.365 7.541-.09.09-7.724-7.092-7.634-7.182c-2.515-2.423-5.21-4.578-7.904-6.912-2.694-2.244-5.299-4.578-7.634-7.271l-.09-.09v-.179l-.09-15.35-.18-15.351c-.089-5.116 0-10.233.27-15.35l.18-7.63c-.18-2.244-.27-4.758-.45-7.361z" fill="url(#j)"/><path d="M264.986 321.633c2.246 2.693 4.85 4.848 7.455 7.182 1.257 1.167 2.515 2.423 3.682 3.68 1.258 1.257 2.335 2.603 3.593 3.77 2.515 2.424 5.209 4.579 7.814 6.733 2.604 2.244 5.209 4.578 7.365 7.451l-.09.089c-2.515-2.423-5.21-4.578-7.904-6.732-2.694-2.244-5.299-4.489-7.634-7.182-1.168-1.346-2.156-2.693-3.413-3.949-1.258-1.167-2.605-2.244-3.952-3.322-2.605-2.154-5.209-4.578-6.916-7.72z" fill="url(#k)"/><path d="M295.074 350.538c-.179 9.246.808 18.492.898 27.738.09 4.668-.449 9.247-.628 13.914-.09 1.167-.09 2.334-.18 3.501v3.501l.449 34.74-.269 27.828h-.09c-.359-9.246-.539-18.492-.539-27.828l.09-27.828.09-6.912v-3.501l.089-3.501c.18-4.667.36-9.246.18-13.914-.18-9.246-.898-18.492-.09-27.738z" fill="url(#l)"/><path d="M264.717 358.797c3.143 1.257 5.478 3.86 7.634 6.374l6.736 7.271c4.76 4.578 9.88 8.797 14.909 13.196 2.515 2.244 4.94 4.398 7.275 6.822l6.916 7.182 13.472 14.721.09.09v.18c.18 3.77.27 7.63.359 11.4v11.401l-.179 11.4-.359 11.401h-.09c-.09-3.771-.09-7.631-.09-11.401l-.09-11.4-.18-11.401-.269-11.4.09.269-13.113-14.991c-1.078-1.257-2.245-2.424-3.323-3.681-1.168-1.167-2.246-2.423-3.413-3.59-2.335-2.334-4.85-4.489-7.455-6.643-5.119-4.219-10.418-8.348-15.089-13.016a87.56 87.56 0 0 1-6.646-7.451c-2.066-2.514-4.221-5.207-7.185-6.733z" fill="url(#m)"/><path d="M226.905 269.568l.449 13.106.359 13.106.27 13.106.089 13.286-.089.09c-2.785 2.064-5.569 4.309-8.084 6.732s-4.58 5.297-7.005 7.81c-2.425 2.603-5.12 4.848-7.904 7.002l-8.263 6.553.09-.269c.449 8.258.718 16.517.629 24.775a284.39 284.39 0 0 1-.27 12.388c-.09 4.13.27 8.259.27 12.388v.27l-.18.089c-2.515 1.526-4.401 3.771-6.377 6.015-1.886 2.244-3.952 4.488-6.018 6.643s-4.221 4.219-6.556 6.104c-2.245 1.975-4.581 3.77-7.006 5.565l-.089-.089c2.335-1.886 4.58-3.771 6.736-5.835 2.155-1.975 4.311-4.04 6.377-6.194s4.041-4.399 5.927-6.643 3.862-4.668 6.467-6.284l-.18.359c0-4.129-.449-8.258-.359-12.388l.27-12.388c.089-8.258 0-16.517-.27-24.775v-.18l.09-.09 8.353-6.463c2.784-2.154 5.478-4.398 7.903-6.912s4.401-5.476 6.916-7.9c2.515-2.513 5.209-4.757 7.994-6.912l-.09.27-.359-13.106-.18-13.106-.09-13.106v-13.106l.18.089z" fill="url(#n)"/><path d="M196.996 388.78c-4.58 4.129-8.981 8.258-13.382 12.477l-6.467 6.463-6.376 6.553.089-.179.539 21.813c.18 7.272.27 14.543.18 21.814l-.539 21.813c-.09 1.796-.18 3.681-.18 5.386 0 .898 0 1.796.18 2.693.09.898.359 1.796.539 2.604.898 3.59.988 7.271.18 10.862h-.09c.539-3.591.269-7.272-.629-10.772-.269-.898-.449-1.796-.629-2.694s-.179-1.885-.269-2.782c0-1.796.09-3.681.09-5.476l.539-21.814.359-21.813c0-7.271-.18-14.542-.719-21.814v-.089l.09-.09 6.287-6.733c2.156-2.244 4.311-4.309 6.557-6.463 4.221-4.039 8.801-7.989 13.651-11.759z" fill="url(#o)"/><path d="M197.535 399.731l-.628 29.982-.36 14.991c-.089 5.027 0 9.965.09 14.992l.719 29.982.359 29.982h-.09l-1.167-29.982c-.27-9.964-.45-20.018-.36-29.982l.09-14.992v-14.991c.09-9.964.539-20.018 1.258-29.982h.089z" fill="url(#p)"/><path d="M93.44 382.675l.449 25.584c.09 8.528 0 17.056-.18 25.583-.09 8.528.09 17.056.18 25.584l.09 6.374v.808c0 .179.09.448.18.628.09.09.09.18.18.269s.09.09.27.18l.629.538 2.515 2.065 2.425 2.065c.808.628 1.707 1.256 2.515 1.885.808.538 1.796 1.077 2.694 1.795s1.617 1.526 2.246 2.514l.09.089v.18c-.18 3.68-.27 7.451-.36 11.131l.09 11.131.359 11.131.449 11.132h-.089l-.809-11.132c-.269-3.68-.449-7.45-.539-11.131a230.93 230.93 0 0 1-.269-11.131 230.96 230.96 0 0 1 .269-11.131l.09.269c-.539-.897-1.257-1.616-1.976-2.244-.808-.628-1.706-1.077-2.604-1.705l-2.515-1.975-5.479-4.668c-.09-.09-.269-.18-.359-.359-.09-.09-.18-.27-.269-.449a11.28 11.28 0 0 1-.269-.898v-.808l.09-6.373v-25.584l-.269-25.584.269-25.583-.09-.18z" fill="url(#q)"/><path d="M90.386 381.867l-5.838 5.566-5.479 5.925-5.299 6.104c-1.796 1.975-3.593 4.039-5.748 5.745l.09-.18.09 8.887v8.887l-.18 8.977-.359 8.887h-.09l-.27-8.887v-8.977l.18-8.887.269-8.887v-.089l.09-.09c2.156-1.616 4.042-3.591 5.748-5.655l5.03-6.374c1.706-2.065 3.593-4.039 5.568-5.835 1.886-1.885 3.952-3.591 6.197-5.117z" fill="url(#r)"/><path d="M93.35 390.216l-6.646 5.655-3.144 3.052-2.874 3.411c-1.796 2.334-3.862 4.489-6.018 6.553-2.156 1.975-4.491 3.86-6.916 5.476l-.09-.09 6.287-6.104 6.287-6.194 2.964-3.231 2.874-3.411c2.156-2.065 4.581-3.86 7.275-5.117z" fill="url(#s)"/><path d="M246.305 329.802c-2.695 2.334-5.389 4.758-7.904 7.271-2.604 2.514-5.029 5.117-7.365 7.81-2.425 2.693-4.67 5.476-7.185 7.989-2.604 2.514-5.299 4.848-7.993 7.182l.089-.09.18 15.709-.09 15.71-.269 15.709-.359 15.709h-.09a453.32 453.32 0 0 1-.27-15.709l.09-15.709.539-31.509h.09c2.694-2.334 5.389-4.757 7.814-7.361 1.257-1.256 2.335-2.693 3.502-4.039l3.503-4.129c2.425-2.693 4.94-5.297 7.545-7.72a60.95 60.95 0 0 1 8.173-6.823z" fill="url(#t)"/><path d="M230.407 371.095c.36 3.411.539 6.823.629 10.323.09 1.706.09 3.412.09 5.117l-.09 5.117c-.09 3.411 0 6.822.09 10.323.09 3.411.09 6.912 0 10.323l-.09-.269c1.078 1.257 2.156 2.603 3.144 3.86l1.616 1.975 1.617 1.885 6.467 7.63-.09.09-7.006-7.181c-1.167-1.167-2.245-2.514-3.323-3.77s-2.155-2.604-3.143-3.86l-.09-.18v-.18l.359-10.323c.18-3.411.18-6.822.09-10.323l-.27-5.117c0-1.705-.089-3.411-.089-5.117v-10.323h.089z" fill="url(#u)"/><path d="M204.99 387.702c-.269 4.489-4.042 7.72-7.994 7.989-4.041.36-7.454-3.321-7.993-7.989.09-3.77 2.874-8.707 7.993-7.989 5.12.269 8.712 3.68 7.994 7.989z" fill="url(#v)"/><path d="M235.796 263.913c-.269 4.488-4.041 7.72-7.993 7.989-4.042.359-7.455-3.321-7.994-7.989.09-3.77 2.875-8.708 7.994-7.989 5.119.269 8.712 3.77 7.993 7.989z" fill="url(#w)"/><path d="M272.98 263.913c-.27 4.488-4.042 7.72-7.994 7.989-4.041.359-7.454-3.321-7.993-7.989.089-3.77 2.874-8.708 7.993-7.989 5.12.269 8.712 3.77 7.994 7.989z" fill="url(#x)"/><path d="M255.196 216.874c-.269 4.489-4.041 7.72-7.993 7.99-4.042.359-7.455-3.322-7.994-7.99.09-3.77 2.874-8.707 7.994-7.989 5.03.269 8.712 3.77 7.993 7.989z" fill="url(#y)"/><path d="M303.607 387.702c-.27 4.489-4.042 7.72-7.994 7.989-4.042.36-7.455-3.321-7.993-7.989.089-3.77 2.874-8.707 7.993-7.989 5.03.269 8.712 3.68 7.994 7.989z" fill="url(#z)"/><path d="M101.433 378.277c-.269 4.488-4.041 7.72-7.993 7.989-4.042.359-7.455-3.322-7.993-7.989.09-3.771 2.874-8.708 7.993-7.99 5.03.27 8.622 3.771 7.993 7.99z" fill="url(#AA)"/><path d="M267.681 358.887c-.18 2.154-1.976 3.68-3.862 3.86s-3.593-1.526-3.862-3.86c0-1.796 1.347-4.13 3.862-3.86 2.515.089 4.221 1.795 3.862 3.86z" fill="url(#AB)"/><path d="M234.539 367.864c-.18 2.154-1.976 3.68-3.862 3.86s-3.593-1.527-3.862-3.86c0-1.796 1.347-4.13 3.862-3.86 2.425.179 4.221 1.885 3.862 3.86z" fill="url(#AC)"/><path d="M250.077 329.802c-.18 2.154-1.976 3.68-3.862 3.86s-3.593-1.526-3.862-3.86c0-1.795 1.347-4.129 3.862-3.86 2.515.18 4.221 1.795 3.862 3.86z" fill="url(#AD)"/><path d="M231.665 298.563c-.18 2.155-1.976 3.681-3.862 3.86s-3.593-1.526-3.862-3.86c0-1.795 1.347-4.129 3.862-3.86 2.425.18 4.131 1.796 3.862 3.86z" fill="url(#AE)"/><path d="M250.975 263.913c-.18 2.154-1.976 3.68-3.862 3.86s-3.593-1.526-3.862-3.86c0-1.796 1.347-4.13 3.862-3.86 2.515.179 4.221 1.795 3.862 3.86z" fill="url(#AF)"/></g></g><defs><linearGradient id="A" x1="657.973" y1="6.981" x2="651.338" y2="14.831" xlink:href="#AK"><stop stop-color="#fff8ee"/><stop offset="1" stop-color="#fff8ee" stop-opacity="0"/></linearGradient><linearGradient id="B" x1="699.465" y1="86.982" x2="692.831" y2="94.832" xlink:href="#AK"><stop stop-color="#fff8ee"/><stop offset="1" stop-color="#fff8ee" stop-opacity="0"/></linearGradient><linearGradient id="C" x1="717.838" y1="179.633" x2="711.205" y2="187.483" xlink:href="#AK"><stop stop-color="#fff8ee"/><stop offset="1" stop-color="#fff8ee" stop-opacity="0"/></linearGradient><linearGradient id="D" x1="625.13" y1="188.993" x2="618.496" y2="196.842" xlink:href="#AK"><stop stop-color="#fff8ee"/><stop offset="1" stop-color="#fff8ee" stop-opacity="0"/></linearGradient><linearGradient id="E" x1="675.906" y1="287.533" x2="669.272" y2="295.382" xlink:href="#AK"><stop stop-color="#fff8ee"/><stop offset="1" stop-color="#fff8ee" stop-opacity="0"/></linearGradient><linearGradient id="F" x1="619.955" y1="365.113" x2="613.321" y2="372.963" xlink:href="#AK"><stop stop-color="#fff8ee"/><stop offset="1" stop-color="#fff8ee" stop-opacity="0"/></linearGradient><linearGradient id="G" x1="755.888" y1="31.011" x2="703.968" y2="92.447" xlink:href="#AK"><stop stop-color="#fff8ee"/><stop offset="1" stop-color="#fff8ee" stop-opacity="0"/></linearGradient><linearGradient id="H" x1="685.616" y1="39.456" x2="664.475" y2="64.472" xlink:href="#AK"><stop stop-color="#fff8ee"/><stop offset="1" stop-color="#fff8ee" stop-opacity="0"/></linearGradient><linearGradient id="I" x1="787.042" y1="56.583" x2="731.927" y2="121.8" xlink:href="#AK"><stop stop-color="#fff8ee"/><stop offset="1" stop-color="#fff8ee" stop-opacity="0"/></linearGradient><linearGradient id="J" x1="803.463" y1="100.164" x2="762.033" y2="149.187" xlink:href="#AK"><stop stop-color="#fff8ee"/><stop offset="1" stop-color="#fff8ee" stop-opacity="0"/></linearGradient><linearGradient id="K" x1="698.649" y1="93.245" x2="617.706" y2="189.022" xlink:href="#AK"><stop stop-color="#fff8ee"/><stop offset="1" stop-color="#fff8ee" stop-opacity="0"/></linearGradient><linearGradient id="L" x1="688.991" y1="41.661" x2="586.002" y2="163.525" xlink:href="#AK"><stop stop-color="#fff8ee"/><stop offset="1" stop-color="#fff8ee" stop-opacity="0"/></linearGradient><linearGradient id="M" x1="689.849" y1="162.067" x2="646.502" y2="213.358" xlink:href="#AK"><stop stop-color="#fff8ee"/><stop offset="1" stop-color="#fff8ee" stop-opacity="0"/></linearGradient><linearGradient id="N" x1="722.68" y1="116.254" x2="686.096" y2="159.543" xlink:href="#AK"><stop stop-color="#fff8ee"/><stop offset="1" stop-color="#fff8ee" stop-opacity="0"/></linearGradient><linearGradient id="O" x1="728.362" y1="195.803" x2="658.496" y2="278.474" xlink:href="#AK"><stop stop-color="#fff8ee"/><stop offset="1" stop-color="#fff8ee" stop-opacity="0"/></linearGradient><linearGradient id="P" x1="660.932" y1="225.553" x2="632.389" y2="259.327" xlink:href="#AK"><stop stop-color="#fff8ee"/><stop offset="1" stop-color="#fff8ee" stop-opacity="0"/></linearGradient><linearGradient id="Q" x1="738.319" y1="126.122" x2="628.939" y2="255.548" xlink:href="#AK"><stop stop-color="#fff8ee"/><stop offset="1" stop-color="#fff8ee" stop-opacity="0"/></linearGradient><linearGradient id="R" x1="764.524" y1="222.799" x2="693.432" y2="306.92" xlink:href="#AK"><stop stop-color="#fff8ee"/><stop offset="1" stop-color="#fff8ee" stop-opacity="0"/></linearGradient><linearGradient id="S" x1="757.426" y1="146.267" x2="723.238" y2="186.72" xlink:href="#AK"><stop stop-color="#fff8ee"/><stop offset="1" stop-color="#fff8ee" stop-opacity="0"/></linearGradient><linearGradient id="T" x1="830.285" y1="124.344" x2="753.123" y2="215.648" xlink:href="#AK"><stop stop-color="#fff8ee"/><stop offset="1" stop-color="#fff8ee" stop-opacity="0"/></linearGradient><linearGradient id="U" x1="750.321" y1="209.824" x2="747.978" y2="212.597" xlink:href="#AK"><stop stop-color="#fff8ee"/><stop offset="1" stop-color="#fff8ee" stop-opacity="0"/></linearGradient><linearGradient id="V" x1="775.095" y1="238.538" x2="733.132" y2="288.191" xlink:href="#AK"><stop stop-color="#fff8ee"/><stop offset="1" stop-color="#fff8ee" stop-opacity="0"/></linearGradient><linearGradient id="W" x1="813.863" y1="262.768" x2="767.161" y2="318.03" xlink:href="#AK"><stop stop-color="#fff8ee"/><stop offset="1" stop-color="#fff8ee" stop-opacity="0"/></linearGradient><linearGradient id="X" x1="822.266" y1="269.761" x2="803.042" y2="292.508" xlink:href="#AK"><stop stop-color="#fff8ee"/><stop offset="1" stop-color="#fff8ee" stop-opacity="0"/></linearGradient><linearGradient id="Y" x1="674.503" y1="296.215" x2="615.234" y2="366.347" xlink:href="#AK"><stop stop-color="#fff8ee"/><stop offset="1" stop-color="#fff8ee" stop-opacity="0"/></linearGradient><linearGradient id="Z" x1="798.434" y1="346.295" x2="709.024" y2="452.092" xlink:href="#AK"><stop stop-color="#fff8ee"/><stop offset="1" stop-color="#fff8ee" stop-opacity="0"/></linearGradient><linearGradient id="a" x1="744.974" y1="298.846" x2="718.667" y2="329.974" xlink:href="#AK"><stop stop-color="#fff8ee"/><stop offset="1" stop-color="#fff8ee" stop-opacity="0"/></linearGradient><linearGradient id="b" x1="746.099" y1="304.226" x2="661.534" y2="404.288" xlink:href="#AK"><stop stop-color="#fff8ee"/><stop offset="1" stop-color="#fff8ee" stop-opacity="0"/></linearGradient><linearGradient id="c" x1="724.513" y1="338.587" x2="663.06" y2="411.302" xlink:href="#AK"><stop stop-color="#fff8ee"/><stop offset="1" stop-color="#fff8ee" stop-opacity="0"/></linearGradient><linearGradient id="d" x1="666.969" y1="412.364" x2="664.831" y2="414.894" xlink:href="#AK"><stop stop-color="#fff8ee"/><stop offset="1" stop-color="#fff8ee" stop-opacity="0"/></linearGradient><linearGradient id="e" x1="669.82" y1="414.423" x2="625.461" y2="466.912" xlink:href="#AK"><stop stop-color="#fff8ee"/><stop offset="1" stop-color="#fff8ee" stop-opacity="0"/></linearGradient><linearGradient id="f" x1="647.953" y1="396.267" x2="587.565" y2="467.722" xlink:href="#AK"><stop stop-color="#fff8ee"/><stop offset="1" stop-color="#fff8ee" stop-opacity="0"/></linearGradient><linearGradient id="g" x1="602.656" y1="359.821" x2="494.66" y2="487.609" xlink:href="#AK"><stop stop-color="#fff8ee"/><stop offset="1" stop-color="#fff8ee" stop-opacity="0"/></linearGradient><linearGradient id="h" x1="259.508" y1="224.056" x2="259.508" y2="425.494" xlink:href="#AK"><stop stop-color="#fff8ee"/><stop offset="1" stop-color="#fff8ee" stop-opacity="0"/></linearGradient><linearGradient id="i" x1="261.629" y1="381.957" x2="261.629" y2="523.61" xlink:href="#AK"><stop stop-color="#fff8ee"/><stop offset="1" stop-color="#fff8ee" stop-opacity="0"/></linearGradient><linearGradient id="j" x1="279.564" y1="271.184" x2="279.564" y2="360.952" xlink:href="#AK"><stop stop-color="#fff8ee"/><stop offset="1" stop-color="#fff8ee" stop-opacity="0"/></linearGradient><linearGradient id="k" x1="279.94" y1="321.633" x2="279.94" y2="350.538" xlink:href="#AK"><stop stop-color="#fff8ee"/><stop offset="1" stop-color="#fff8ee" stop-opacity="0"/></linearGradient><linearGradient id="l" x1="295.33" y1="350.538" x2="295.33" y2="461.76" xlink:href="#AK"><stop stop-color="#fff8ee"/><stop offset="1" stop-color="#fff8ee" stop-opacity="0"/></linearGradient><linearGradient id="m" x1="293.433" y1="358.797" x2="293.433" y2="460.235" xlink:href="#AK"><stop stop-color="#fff8ee"/><stop offset="1" stop-color="#fff8ee" stop-opacity="0"/></linearGradient><linearGradient id="n" x1="199.646" y1="269.479" x2="199.646" y2="424.327" xlink:href="#AK"><stop stop-color="#fff8ee"/><stop offset="1" stop-color="#fff8ee" stop-opacity="0"/></linearGradient><linearGradient id="o" x1="183.569" y1="388.78" x2="183.569" y2="501.079" xlink:href="#AK"><stop stop-color="#fff8ee"/><stop offset="1" stop-color="#fff8ee" stop-opacity="0"/></linearGradient><linearGradient id="p" x1="196.895" y1="399.731" x2="196.895" y2="519.66" xlink:href="#AK"><stop stop-color="#fff8ee"/><stop offset="1" stop-color="#fff8ee" stop-opacity="0"/></linearGradient><linearGradient id="q" x1="100.748" y1="382.675" x2="100.748" y2="523.341" xlink:href="#AK"><stop stop-color="#fff8ee"/><stop offset="1" stop-color="#fff8ee" stop-opacity="0"/></linearGradient><linearGradient id="r" x1="78.845" y1="381.867" x2="78.845" y2="440.665" xlink:href="#AK"><stop stop-color="#fff8ee"/><stop offset="1" stop-color="#fff8ee" stop-opacity="0"/></linearGradient><linearGradient id="s" x1="80.507" y1="390.216" x2="80.507" y2="414.363" xlink:href="#AK"><stop stop-color="#fff8ee"/><stop offset="1" stop-color="#fff8ee" stop-opacity="0"/></linearGradient><linearGradient id="t" x1="230.677" y1="329.802" x2="230.677" y2="422.801" xlink:href="#AK"><stop stop-color="#fff8ee"/><stop offset="1" stop-color="#fff8ee" stop-opacity="0"/></linearGradient><linearGradient id="u" x1="237.054" y1="371.095" x2="237.054" y2="427.469" xlink:href="#AK"><stop stop-color="#fff8ee"/><stop offset="1" stop-color="#fff8ee" stop-opacity="0"/></linearGradient><linearGradient id="v" x1="197.042" y1="379.643" x2="197.042" y2="395.716" xlink:href="#AK"><stop stop-color="#fff8ee"/><stop offset="1" stop-color="#fff8ee" stop-opacity="0"/></linearGradient><linearGradient id="w" x1="227.849" y1="255.853" x2="227.849" y2="271.926" xlink:href="#AK"><stop stop-color="#fff8ee"/><stop offset="1" stop-color="#fff8ee" stop-opacity="0"/></linearGradient><linearGradient id="x" x1="265.032" y1="255.853" x2="265.032" y2="271.926" xlink:href="#AK"><stop stop-color="#fff8ee"/><stop offset="1" stop-color="#fff8ee" stop-opacity="0"/></linearGradient><linearGradient id="y" x1="247.248" y1="208.815" x2="247.248" y2="224.888" xlink:href="#AK"><stop stop-color="#fff8ee"/><stop offset="1" stop-color="#fff8ee" stop-opacity="0"/></linearGradient><linearGradient id="z" x1="295.658" y1="379.643" x2="295.658" y2="395.716" xlink:href="#AK"><stop stop-color="#fff8ee"/><stop offset="1" stop-color="#fff8ee" stop-opacity="0"/></linearGradient><linearGradient id="AA" x1="93.476" y1="370.217" x2="93.476" y2="386.29" xlink:href="#AK"><stop stop-color="#fff8ee"/><stop offset="1" stop-color="#fff8ee" stop-opacity="0"/></linearGradient><linearGradient id="AB" x1="263.843" y1="355.005" x2="263.843" y2="362.76" xlink:href="#AK"><stop stop-color="#fff8ee"/><stop offset="1" stop-color="#fff8ee" stop-opacity="0"/></linearGradient><linearGradient id="AC" x1="230.7" y1="363.982" x2="230.7" y2="371.737" xlink:href="#AK"><stop stop-color="#fff8ee"/><stop offset="1" stop-color="#fff8ee" stop-opacity="0"/></linearGradient><linearGradient id="AD" x1="246.239" y1="325.921" x2="246.239" y2="333.675" xlink:href="#AK"><stop stop-color="#fff8ee"/><stop offset="1" stop-color="#fff8ee" stop-opacity="0"/></linearGradient><linearGradient id="AE" x1="227.817" y1="294.682" x2="227.817" y2="302.436" xlink:href="#AK"><stop stop-color="#fff8ee"/><stop offset="1" stop-color="#fff8ee" stop-opacity="0"/></linearGradient><linearGradient id="AF" x1="247.137" y1="260.031" x2="247.137" y2="267.786" xlink:href="#AK"><stop stop-color="#fff8ee"/><stop offset="1" stop-color="#fff8ee" stop-opacity="0"/></linearGradient><clipPath id="AG"><path fill="#fff" d="M0 0h768v400H0z"/></clipPath><clipPath id="AH"><path fill="#fff" transform="translate(570)" d="M0 0h198v400.125H0z"/></clipPath><clipPath id="AI"><path fill="#fff" transform="matrix(-.763778 -.645479 -.645479 .763778 957.624 191.778)" d="M0 0h353.347v532.62H0z"/></clipPath><clipPath id="AJ"><path fill="#fff" transform="translate(40 207)" d="M0 0h291v193H0z"/></clipPath><linearGradient id="AK" gradientUnits="userSpaceOnUse"/></defs></svg>