<svg xmlns="http://www.w3.org/2000/svg" width="324" height="88" fill="none"  xmlns:v="https://vecta.io/nano"><path d="M73.116 51.021l3.722 1.617-3.184-5.505-1.169-2.035-1.608-2.784-1.608 2.784-1.175 2.035-2.121 3.663-1.057 1.841 3.716-1.617 2.245 4.475 2.238-4.475z" fill="#3c2829"/><path d="M104.626 67.51v-.686c0-.175-.05-.343-.081-.512 0-.056 0-.119-.031-.175 0-.156-.074-.312-.117-.462l-.062-.212-.142-.393-.099-.256-.161-.343-.142-.268-.049-.1-26.867-46.896c-.016-.02-.03-.041-.043-.062a6.64 6.64 0 0 0-.458-.693c-.167-.221-.346-.428-.538-.624l-.099-.1a6.46 6.46 0 0 0-.581-.512l-.056-.044a6.88 6.88 0 0 0-4.192-1.442 6.92 6.92 0 0 0-.884.062 6.87 6.87 0 0 0-3.259 1.348l-.093.075a6.7 6.7 0 0 0-.544.481l-.117.119a7.38 7.38 0 0 0-.507.58.24.24 0 0 0-.049.062 6.52 6.52 0 0 0-.458.68l-.043.069-14.741 25.776a6.99 6.99 0 0 0-.944 2.593 7.01 7.01 0 0 0 .13 2.759 6.98 6.98 0 0 0 1.184 2.49 6.91 6.91 0 0 0 2.051 1.828 6.85 6.85 0 0 0 2.595.878 6.83 6.83 0 0 0 2.729-.211 6.88 6.88 0 0 0 2.432-1.267 6.94 6.94 0 0 0 1.751-2.123l8.78-15.347 14.895 26.044H32.023l19.588-34.139a7.01 7.01 0 0 0 .688-5.277c-.473-1.781-1.628-3.3-3.21-4.222a6.83 6.83 0 0 0-5.228-.694 6.9 6.9 0 0 0-4.183 3.241L14.11 64.109s0 .056-.043.087-.111.225-.167.337l-.136.275c-.043.094-.093.243-.142.368l-.099.268-.105.387-.068.275-.068.393c-.019.131 0 .187-.043.281s0 .268 0 .399v.955c0 .081.037.325.062.487a1.46 1.46 0 0 0 0 .162l.111.512v.137l.155.493.062.162.179.431.105.206a3.72 3.72 0 0 0 .185.349l.161.268.173.256c.074.112.155.212.235.318l.161.193.284.318.167.162.322.293.204.169.309.231.297.193a2.76 2.76 0 0 0 .253.156 7.43 7.43 0 0 0 .736.368h.056a7.52 7.52 0 0 0 .717.25l.21.05a5.41 5.41 0 0 0 .618.125l.223.037a6.84 6.84 0 0 0 .798.05h77.754a6.65 6.65 0 0 0 .791-.05l.229-.037c.204 0 .408-.075.618-.125l.198-.05a6.48 6.48 0 0 0 .755-.262 6.97 6.97 0 0 0 .748-.368l.266-.162.272-.181c.116-.078.228-.163.334-.256l.166-.131.384-.349.093-.087c.129-.131.253-.275.371-.418l.061-.075a3.87 3.87 0 0 0 .328-.443.65.65 0 0 0 .074-.106l.254-.418a1.8 1.8 0 0 0 .105-.194l.173-.362.124-.287.111-.3.118-.368.074-.287c0-.125.055-.25.08-.374s.037-.231.05-.343l.037-.312v-.449c.003-.048.003-.096 0-.144l.037-.062zm71.744-34.176v13.974h-8.076V33.334c0-4.656-1.922-6.984-5.768-6.984s-5.769 2.328-5.769 6.984v13.974h-8.076V33.334c0-4.656-1.921-6.984-5.762-6.984s-5.765 2.328-5.769 6.984v13.974h-8.076V33.334c0-9.324 4.615-13.986 13.845-13.986 4.241 0 7.508.984 9.8 2.952 2.296-1.968 5.565-2.952 9.807-2.952 9.229 0 13.844 4.662 13.844 13.986zm3.462 0c0-9.324 5.383-13.986 16.15-13.986s16.151 4.656 16.151 13.968c0 9.32-5.384 13.978-16.151 13.974s-16.15-4.656-16.15-13.955zm16.15-6.984c-5.383 0-8.075 2.328-8.075 6.984s2.692 6.986 8.075 6.99 8.075-2.33 8.075-6.99-2.691-6.988-8.075-6.984zm19.613 6.984c0-9.324 5.384-13.986 16.151-13.986s16.15 4.656 16.15 13.968c0 9.32-5.383 13.978-16.15 13.974s-16.151-4.656-16.151-13.955zm16.151-6.984c-5.388 0-8.08 2.328-8.075 6.984s2.695 6.986 8.075 6.99c5.359 0 8.038-2.33 8.038-6.99s-2.679-6.988-8.038-6.984zm35.758-7.002h6.925v7.003h-6.925c-5.38 0-8.072 2.328-8.076 6.984v13.974h-8.075V33.334c0-9.324 5.384-13.986 16.151-13.986zm26.532 0h16.15v7.003h-16.15c-3.797 0-6.258 1.165-7.383 3.495h23.533v6.978h-23.533c1.125 2.33 3.586 3.495 7.383 3.495h16.15v6.99h-16.15c-10.763 0-16.147-4.658-16.151-13.974s5.38-13.978 16.151-13.986z" fill="#ed7339"/><path d="M143.036 57.768h-3.555a2.78 2.78 0 0 0-1.105-1.059 2.74 2.74 0 0 0-1.492-.308c-2.065 0-3.444 1.479-3.444 3.801 0 2.496 1.397 3.907 3.71 3.907.717.039 1.426-.17 2.011-.592a3.19 3.19 0 0 0 1.204-1.73h-4.081v-2.422h7v3.046c-.419 1.361-1.268 2.547-2.417 3.377a6.43 6.43 0 0 1-3.946 1.217c-3.951 0-6.733-2.79-6.733-6.778s2.763-6.803 6.714-6.803c3.16-.025 5.46 1.61 6.134 4.344zm35.646-4.213c3.234 0 4.854 1.872 4.854 4.194a3.91 3.91 0 0 1-.796 2.45 3.85 3.85 0 0 1-2.141 1.407l3.048 5.28h-3.629l-2.746-5.037h-.773v5.037h-3.215V53.555h5.398zm-.192 2.696h-1.991v3.302h1.991c1.237 0 1.769-.624 1.769-1.673s-.563-1.629-1.769-1.629zm41.514 10.766a6.72 6.72 0 0 1-3.759-1.147c-1.113-.749-1.981-1.815-2.494-3.062a6.89 6.89 0 0 1-.389-3.945 6.85 6.85 0 0 1 1.848-3.498 6.75 6.75 0 0 1 3.462-1.872 6.71 6.71 0 0 1 3.909.385 6.78 6.78 0 0 1 3.038 2.512c.744 1.122 1.142 2.442 1.143 3.792.018.901-.145 1.797-.478 2.633s-.83 1.596-1.461 2.234a6.64 6.64 0 0 1-2.211 1.479c-.828.338-1.715.504-2.608.488zm0-2.965c2.109 0 3.481-1.535 3.481-3.869s-1.372-3.876-3.481-3.876-3.5 1.498-3.5 3.876 1.348 3.869 3.5 3.869zm36.697-10.497h3.197v7.976c0 1.573.767 2.496 2.294 2.496s2.331-.911 2.331-2.496v-7.976h3.215v7.957c0 3.682-2.553 5.505-5.602 5.505s-5.459-1.822-5.459-5.505l.024-7.957zm46.746 8.544h-1.991v4.787h-3.222V53.555h5.213c3.24 0 4.853 1.872 4.853 4.288 0 2.203-1.484 4.257-4.853 4.257zm-.266-2.584c1.28 0 1.824-.624 1.824-1.673s-.52-1.673-1.824-1.673h-1.75v3.339l1.75.006z" fill="#3c2829"/></svg>