<svg width="324" height="280" viewBox="0 0 324 280" fill="none" xmlns="http://www.w3.org/2000/svg">
<path d="M141.094 37.9367L68.7238 79.8418L190.545 150.375L284.96 95.704L188.59 39.9118C174.53 31.7977 153.268 30.8902 141.094 37.9367Z" fill="#D5EDF4"/>
<path d="M47.084 218.698C29.1975 231.5 40.5818 244.534 49.4793 249.883C87.4474 267.367 125.5 255.914 164 195.699C188.702 157.064 293.956 150.571 260.021 127.657C259.86 127.548 259.663 127.436 259.487 127.354C232.771 114.892 211.668 121.903 201.945 128.542C200.174 129.752 197.758 129.692 196.06 128.382C176.348 113.172 118.412 102.233 76.9835 123.743C45.8186 139.925 47.4611 162.014 53.5154 174.065C54.6023 176.229 53.9266 178.987 51.8663 180.259C32.628 192.135 38.3899 203.523 47.1545 210.365C49.7517 212.392 49.7633 216.78 47.084 218.698Z" fill="#FFE8E8"/>
<path d="M161.811 166.82L139.135 153.704L165.9 151.336L161.811 166.82Z" stroke="#877672"/>
<path d="M170.335 141.104L131.482 144.544L164.392 163.584L170.335 141.104Z" fill="#F6B289"/>
<path d="M254.579 159.915L231.908 146.799L258.673 144.43L254.579 159.915Z" stroke="#877672"/>
<path d="M263.103 134.199L224.25 137.639L257.166 156.678L263.103 134.199Z" fill="#F6B289"/>
<path d="M259.558 205.069L236.881 191.953L263.646 189.584L259.558 205.069Z" stroke="#877672"/>
<path d="M268.081 179.353L229.228 182.792L262.144 201.832L268.081 179.353Z" fill="#F6B289"/>
<path d="M240.063 121.277C243.694 118.987 247.362 116.753 251.019 114.504C254.676 112.255 258.344 110.022 262.016 107.803L273.06 101.159L284.133 94.5956V96.5788C275.292 91.5526 266.475 86.4873 257.681 81.3827C248.902 76.2355 240.221 70.9402 231.498 65.701C222.776 60.4618 214.069 55.2073 205.27 50.1164C200.863 47.5607 196.461 45.005 192.034 42.526L188.718 40.645C187.611 40.0265 186.504 39.3672 185.387 38.8305C184.821 38.5545 184.275 38.2529 183.704 37.9973L181.965 37.2919C181.674 37.1744 181.388 37.0466 181.092 36.9444L180.2 36.653L178.414 36.0703C168.713 33.4343 158.479 33.4873 148.804 36.2237L147.907 36.4741C147.611 36.561 147.32 36.6786 147.029 36.7757L145.28 37.3993C144.698 37.6089 144.147 37.9104 143.581 38.12C143.01 38.3515 142.452 38.6126 141.908 38.902L140.291 39.7761C139.75 40.0572 139.2 40.4099 138.654 40.7268L135.364 42.6589L122.209 50.3822L109.054 58.1055L95.8581 65.7726C91.4663 68.3282 87.0388 70.8277 82.6267 73.363L75.9956 77.1454L69.3646 80.9022V78.6072L83.2183 86.8263C87.8363 89.5728 92.4406 92.3364 97.0313 95.117L110.803 103.454C115.394 106.265 119.985 109.051 124.53 111.898L124.392 112.138C119.653 109.582 114.95 107.026 110.232 104.471L96.1693 96.6504C91.4697 94.0504 86.7804 91.4351 82.1013 88.8044L68.0435 80.8971L66.0746 79.7777L68.0639 78.6021L74.6286 74.7175L81.2137 70.8635C85.6055 68.3078 89.9769 65.7061 94.3891 63.1964L107.605 55.5753L120.867 48.0207L134.129 40.4661L137.445 38.58C138.006 38.2682 138.531 37.9462 139.123 37.6497L140.883 36.7501C141.455 36.4432 142.042 36.1651 142.643 35.917C143.25 35.6767 143.846 35.4058 144.464 35.1861L146.32 34.5727C146.631 34.4756 146.937 34.3631 147.254 34.2762L148.197 34.0309C153.214 32.7068 158.396 32.1196 163.581 32.2879C168.745 32.4241 173.865 33.265 178.802 34.7874L180.623 35.4416L181.536 35.7636C181.837 35.8812 182.128 36.0192 182.424 36.147L184.199 36.9393C184.78 37.2153 185.341 37.5424 185.913 37.844C187.065 38.442 188.121 39.1269 189.228 39.7607L192.513 41.698C196.89 44.2894 201.291 46.8349 205.688 49.3906C214.508 54.4764 223.373 59.4293 232.274 64.3567C241.175 69.2841 250.081 74.191 258.915 79.2359C267.75 84.2809 276.513 89.4331 285.276 94.5956L287 95.6179L285.276 96.5891L274.054 102.917L262.833 109.189C259.078 111.269 255.319 113.344 251.544 115.384C247.77 117.423 244.011 119.498 240.216 121.517L240.063 121.277Z" fill="#3C2829"/>
<path d="M189.31 55.054L193.784 57.6406L124.815 97.5448L120.345 94.9538L189.31 55.054Z" stroke="#877672"/>
<path d="M144.54 69.0541L109.554 89.29L104.086 86.1261L139.067 65.8901L144.54 69.0541Z" fill="#877672"/>
<path d="M186.657 69.2534L191.132 71.8399L135.757 103.873L131.287 101.286L186.657 69.2534Z" stroke="#877672"/>
<path d="M211.192 67.715L215.667 70.3062L146.698 110.206L142.228 107.619L211.192 67.715Z" stroke="#877672"/>
<path d="M154.931 112.918L208.551 81.919L212.997 84.4764L161.682 114.169C159.459 113.694 157.204 113.28 154.931 112.918Z" stroke="#877672"/>
<path d="M170.714 116.452L219.486 88.2473L223.966 90.8387L176.459 118.314C174.589 117.631 172.67 117.018 170.714 116.452Z" stroke="#877672"/>
<path d="M184.119 121.339L216.237 102.779L220.721 105.37L188.976 123.712C187.388 122.883 185.777 122.083 184.119 121.339Z" stroke="#877672"/>
<path d="M49.456 249.838C49.6243 249.925 49.5478 249.838 49.0989 249.588L48.7521 249.45L49.456 249.838Z" fill="#3C2829"/>
<path d="M46.5741 247.881C46.064 247.554 45.4417 247.206 45.707 247.513C46.2579 247.784 46.3446 247.916 46.9414 248.192C47.38 248.474 47.6861 248.704 47.5943 248.704C47.681 248.744 47.8442 248.862 48.0227 248.975C48.1866 249.078 48.3569 249.17 48.5328 249.251C47.9717 248.877 47.2831 248.376 46.4925 247.922C46.3701 247.778 46.5333 247.87 46.5741 247.881Z" fill="#3C2829"/>
<path d="M47.7114 210.506L47.9359 210.74C47.8721 210.652 47.7966 210.574 47.7114 210.506V210.506Z" fill="#3C2829"/>
<path d="M45.7121 185.113C45.5539 185.276 45.5182 185.379 45.5437 185.42C45.6713 185.251 45.7784 185.113 45.7121 185.113Z" fill="#3C2829"/>
<path d="M50.1141 182.455L49.8438 182.588C49.8955 182.585 49.9462 182.572 49.9927 182.549C50.0392 182.527 50.0805 182.494 50.1141 182.455V182.455Z" fill="#3C2829"/>
<path d="M47.7116 210.506C47.5229 210.302 47.3239 210.108 47.1505 209.893C46.9975 209.975 47.3954 210.241 47.7116 210.506Z" fill="#3C2829"/>
<path d="M41.1672 243.408C41.274 243.52 41.3863 243.625 41.5039 243.725L41.2029 243.439L41.1672 243.408Z" fill="#3C2829"/>
<path d="M47.8544 218.582L47.6453 218.715C47.6089 218.792 47.5799 218.873 47.5586 218.955L47.8544 218.582Z" fill="#3C2829"/>
<path d="M40.5704 225.708C40.7082 225.524 40.5347 225.314 40.4888 225.196C40.4957 225.376 40.4496 225.554 40.3562 225.708C40.3899 225.723 40.4264 225.731 40.4633 225.731C40.5003 225.731 40.5368 225.723 40.5704 225.708V225.708Z" fill="#3C2829"/>
<path d="M40.2286 241.139L40.4072 241.378L40.2286 241.139Z" fill="#3C2829"/>
<path d="M54.266 214.064C54.3327 214.064 54.3583 214.008 54.348 213.972C54.3378 213.936 54.2558 214.018 54.266 214.064Z" fill="#3C2829"/>
<path d="M249.254 122.401C249.254 122.401 249.254 122.401 249.254 122.433C249.254 122.465 249.339 122.428 249.254 122.401Z" fill="#3C2829"/>
<path d="M260.415 127.753L260.262 127.676H260.221L260.415 127.753Z" fill="#3C2829"/>
<path d="M57.0511 175.182L57.0869 175.253C57.4031 175.652 57.245 175.422 57.0511 175.182Z" fill="#3C2829"/>
<path d="M101.729 116.043C100.709 116.125 103.259 115.46 101.765 115.649C101.918 115.68 100.479 116.242 101.729 116.043Z" fill="#3C2829"/>
<path d="M40.999 243.183L40.7235 242.836C40.8459 242.999 40.9275 243.101 40.999 243.183Z" fill="#3C2829"/>
<path d="M52.4144 154.501C52.3259 154.538 52.2499 154.6 52.1951 154.679C52.2359 154.659 52.3022 154.618 52.4144 154.501Z" fill="#3C2829"/>
<path d="M53.4039 170.142L53.3171 169.748C53.3301 169.882 53.3593 170.014 53.4039 170.142V170.142Z" fill="#3C2829"/>
<path d="M54.6078 146.461C54.7422 146.314 54.8431 146.139 54.9036 145.949C54.8718 145.963 54.8426 145.982 54.8169 146.006C54.808 146.179 54.7332 146.341 54.6078 146.461V146.461Z" fill="#3C2829"/>
<path d="M59.5198 139.167C59.4639 139.189 59.4094 139.215 59.3566 139.243L59.1882 139.468L59.5198 139.167Z" fill="#3C2829"/>
<path d="M221.536 120.296C221.704 120.341 221.861 120.417 222 120.52C221.827 120.316 223.179 120.065 221.536 120.296Z" fill="#3C2829"/>
<path d="M41.2182 243.356C41.1304 243.32 41.0544 243.26 40.9989 243.183C41.0629 243.263 41.131 243.34 41.2029 243.412C41.2386 243.438 41.2539 243.438 41.2182 243.356Z" fill="#3C2829"/>
<path d="M51.9707 144.646C52.2257 144.207 52.5114 143.787 52.7817 143.358C52.487 143.771 52.2163 144.202 51.9707 144.646V144.646Z" fill="#3C2829"/>
<path d="M162.377 113.717L162.714 113.748C162.605 113.716 162.491 113.706 162.377 113.717V113.717Z" fill="#3C2829"/>
<path d="M55.2506 139.601C55.5172 139.462 55.7657 139.29 55.9902 139.09C56.0071 139.027 56.0174 138.962 56.0208 138.896C55.7658 139.131 55.4954 139.356 55.2506 139.601Z" fill="#3C2829"/>
<path d="M231.6 119.35C230.197 119.309 230.947 119.687 230.657 119.887C228.994 119.999 229.876 119.626 229.305 119.442C228.259 119.544 227.484 119.912 226.709 119.953C226.647 119.897 226.494 119.881 226.668 119.789C225.591 120.142 223.398 120.03 222.184 120.602C222.117 120.592 222.053 120.564 222 120.52C222.087 120.574 222.158 120.649 222.206 120.739C222.255 120.829 222.279 120.93 222.276 121.032C221.659 121.124 221.174 121.451 220.904 121.216C221.116 121.2 221.314 121.105 221.46 120.95L220.832 121.154C220.19 120.853 221.689 120.899 221.649 120.617C220.399 120.888 219.006 121.497 218.027 121.553C217.746 121.205 220.251 121.042 218.899 120.914L220.429 120.801C219.807 120.597 220.037 120.571 220.276 120.536C220.516 120.5 220.787 120.469 220.19 120.224C218.18 120.449 218.007 120.776 216.022 121.088C215.63 121.4 216.242 121.379 215.854 121.691C213.222 122.774 213.406 121.226 211.544 122.355C211.325 122.57 211.207 122.815 210.957 123.03C210.568 123.347 210.091 123.536 209.59 123.572L209.907 122.953C208.04 123.562 209.101 123.976 207.091 124.425C207.351 124.114 208.448 123.7 208.152 123.756C206.78 123.904 207.387 124.359 206.458 124.778L206.086 124.477C205.107 124.961 204.161 125.511 203.255 126.122C202.301 126.726 201.363 127.411 200.419 128.085C200.455 127.901 200.71 127.574 200.179 127.753L199.669 128.157L199.404 128.361L199.338 128.412H199.312L199.271 128.448C199.165 128.542 199.055 128.631 198.94 128.714C198.802 128.618 198.674 128.508 198.557 128.387L197.308 127.365C196.471 126.695 195.645 126.036 194.859 125.432L193.747 125.208C193.538 125.08 193.446 124.819 193.717 124.891C192.86 124.206 193.538 125.08 193.013 124.947C192.467 124.655 192.421 124.339 192.819 124.436C191.906 124.109 190.61 123.618 189.376 123.05C188.22 122.567 187.116 121.967 186.081 121.262L186.484 121.323C185.127 120.515 184.55 121.323 183.372 120.403L183.653 120.449C182.101 119.722 180.512 119.075 178.894 118.512C178.108 118.22 177.333 117.944 176.644 117.653C175.984 117.382 175.338 117.075 174.711 116.733C174.395 116.902 173.614 116.6 172.854 116.344C172.094 116.089 171.355 115.884 171.156 116.176C170.273 115.757 169.978 115.573 169.58 115.363C168.871 115.02 168.133 114.74 167.376 114.525C166.677 114.336 166.228 114.663 165.336 114.525L165.387 114.208L164.127 114.279L163.571 113.794L162.729 113.712C163.056 113.789 163.398 113.978 163.331 114.054C162.02 113.927 160.271 113.262 160.235 113.119L157.134 112.858C157.22 112.761 157.741 112.802 158.154 112.797C156.471 112.797 157.904 112.48 156.364 112.506C156.552 112.593 156.226 112.639 156.185 112.685C154.976 112.365 153.736 112.177 152.487 112.122L152.752 111.989C150.467 111.703 147.922 111.591 145.356 111.422C146.274 111.545 146.04 111.765 145.285 111.729L145.004 111.509C144.494 111.596 145.779 111.642 144.775 111.719C143.821 111.632 144.147 111.458 144.703 111.422H143.53C143.469 111.361 143.744 111.345 143.821 111.274C143.311 111.361 141.816 110.993 141.112 111.167L141.051 111.11C138.501 111.023 137.312 111.069 135.221 111.064C135.18 111.202 134.364 111.172 133.736 111.279C132.206 111.243 130.497 111.161 128.636 111.238C127.34 111.345 128.263 111.361 127.682 111.458C127.58 111.345 125.733 111.432 126.687 111.31C124.473 111.432 123.856 111.494 121.076 111.78C121.382 111.811 121.724 111.805 121.551 111.857C121.041 111.908 120.393 111.908 120.459 111.857L120.592 111.831C117.475 112.265 113.313 112.25 110.859 112.853L110.997 112.818L108.447 113.375C107.263 113.543 109.14 113.16 108.248 113.216C105.524 113.922 103.866 113.968 101.617 114.622C100.678 114.56 99.1326 114.954 97.5361 115.363C96.0545 115.821 94.5493 116.198 93.027 116.493L93.2004 116.585C92.6393 116.886 92.4506 116.723 91.9915 116.82C92.0884 116.907 92.6852 116.748 92.3333 116.927C87.2988 118.609 81.8563 120.26 76.7912 122.498C74.9498 123.342 76.2505 123.899 73.7817 124.666L74.2357 124.006C73.3787 124.563 72.532 125.156 71.6445 125.683L69.0125 127.339C67.2635 128.413 65.6324 129.669 64.1463 131.086C64.2738 130.861 64.1973 130.758 64.5085 130.518C63.9286 130.782 63.4081 131.161 62.9782 131.633C62.5038 132.144 62.1621 132.609 62.2437 132.711C61.7336 133.099 61.9785 132.634 61.5959 132.788C60.8308 133.232 60.3054 134.546 59.7596 134.638C59.6678 134.638 59.8565 134.393 59.9535 134.27C59.6576 134.781 58.1019 136.11 58.7446 135.977C57.5714 136.964 56.9338 138.247 56.0105 139.044C55.812 139.56 55.5119 140.031 55.1281 140.429C54.7608 140.884 54.4446 141.298 54.618 141.579C54.3885 141.354 53.9141 141.845 53.4601 142.515C53.0462 143.144 52.7314 143.834 52.5267 144.559C52.5267 144.176 51.9503 145.213 51.8891 144.748C51.6606 145.183 51.4695 145.636 51.3178 146.103C51.2158 146.466 51.2464 146.706 51.4351 146.686C51.071 147.06 50.7818 147.5 50.5833 147.984C50.4189 148.444 50.2893 148.915 50.1956 149.395C49.9865 150.299 49.8845 151.102 49.201 151.516C48.6682 154.616 48.5362 157.772 48.8082 160.905C48.441 160.864 48.4359 160.036 48.4155 159.234C48.3951 158.431 48.4563 157.665 48.0839 157.701C48.0932 158.362 48.1511 159.021 48.2573 159.674C48.3492 160.272 48.4359 160.834 48.5634 161.381C48.7827 162.49 49.0021 163.568 49.1602 164.959C49.1959 165.69 48.7827 164.606 48.6195 164.381C48.8235 165.066 48.9663 165.751 49.1296 166.426C49.2928 167.1 49.4407 167.755 49.6397 168.388C49.9692 169.645 50.4723 170.849 51.1342 171.966C51.0679 171.966 50.8893 171.772 50.7414 171.558C50.9557 172.002 51.1087 172.651 51.3841 172.467L51.1087 172.064C51.2311 171.174 52.7919 173.428 53.0878 173.352C52.4808 173.203 52.7001 173.766 52.8685 174.292C53.0368 174.819 53.1796 175.314 52.3329 175.018C52.5369 175.279 52.8838 175.529 53.0368 175.376C53.2204 175.815 53.1898 176.015 52.7256 175.718C52.7868 175.805 52.8583 175.902 52.9042 175.958L52.9807 176.01L53.1286 176.096L53.404 176.219C53.6413 176.322 53.8372 176.502 53.96 176.73C53.7407 176.684 53.5826 176.551 53.3173 176.485C53.5845 176.613 53.8347 176.775 54.062 176.965C54.0314 177.114 53.7764 177.292 53.3479 177.405C53.302 177.318 53.1337 177.257 53.2969 177.185C53.1905 177.243 53.0883 177.308 52.9909 177.379L52.8481 177.497C52.7871 177.556 52.7205 177.609 52.6491 177.655C52.2207 177.952 51.8279 178.259 51.43 178.57C50.5995 179.272 49.6947 179.881 48.7317 180.385C48.9663 179.388 47.9003 180.666 47.4514 180.252C47.0995 180.548 46.7781 180.886 46.4313 181.203L47.0383 181.106C46.0691 181.806 45.5335 182.803 44.6562 183.339C44.8143 183.079 44.9826 182.828 45.1663 182.573C44.8857 182.818 44.6256 183.084 44.3654 183.36C44.1053 183.636 43.8554 183.871 43.6003 184.178C43.937 183.917 44.3144 183.702 44.6664 183.467C44.0084 184.489 45.253 183.912 44.039 184.883C44.2175 184.617 43.2229 185.696 42.5802 185.956C42.3565 186.617 41.9909 187.221 41.509 187.725C41.2284 187.812 41.0754 187.214 40.8918 187.255C40.9428 187.653 40.5551 188.236 40.2491 188.895C39.9151 189.428 39.7383 190.045 39.739 190.674C39.739 190.403 39.4636 190.265 39.3718 190.311C39.4228 190.521 39.4687 190.72 39.5248 190.919C39.2187 191.39 39.132 191.431 38.9382 191.277C38.6066 192.064 38.8311 191.993 39.0045 191.952C39.1779 191.911 39.2952 191.891 38.877 192.795C38.877 192.637 38.8158 192.693 38.8464 192.366C38.7597 192.601 38.6781 192.836 38.6066 193.071C38.5352 193.306 38.5046 193.552 38.4587 193.792C38.3744 194.267 38.325 194.747 38.3108 195.228C38.2751 195.699 38.3108 196.169 38.3108 196.634C38.3108 197.099 38.3363 197.554 38.3108 198.014C37.8007 198.617 38.0813 196.399 37.6477 197.043C37.7511 198.44 38.0963 199.808 38.6679 201.086C39.2187 202.359 39.8563 203.534 40.4582 204.664L40.2797 204.224C40.7031 204.189 40.8204 204.643 41.0346 205.201C41.131 205.507 41.2504 205.806 41.3917 206.095C41.5487 206.386 41.762 206.644 42.0191 206.852C41.7895 206.637 41.4427 206.775 41.56 206.79C42.5496 208.252 44.0339 209.402 46.1507 210.844L45.7886 210.782C46.4568 211.564 47.8544 212.454 48.7215 213.108C49.0888 213.139 49.609 213.471 49.4203 213.067C49.5427 213.21 49.7213 213.374 49.8182 213.481C49.8965 213.578 49.9799 213.67 50.0681 213.757C50.223 213.902 50.3942 214.029 50.5782 214.135C50.7772 214.251 50.9833 214.353 51.1954 214.442L51.5627 214.59L51.6596 214.631C51.6902 214.631 51.7412 214.657 51.7004 214.667L51.5933 214.738C51.2821 214.958 50.8842 215.25 50.3844 215.526C50.1242 215.669 49.8743 215.781 49.5784 215.924C49.2203 216.093 48.8524 216.24 48.4767 216.364C48.7725 216.175 49.1245 215.797 48.8847 215.95C48.191 216.435 47.4973 216.916 46.8444 217.442C47.1556 217.545 47.2066 217.386 47.7524 217.258C47.4329 217.701 47.0394 218.085 46.5894 218.393C47.4106 217.621 46.3394 218.051 45.8702 218.25C45.9824 218.25 45.9008 218.434 45.9773 218.47C44.6715 218.914 46.0946 218.981 44.544 219.875V219.717C44.0645 220.182 43.7482 220.739 43.1974 221.199C42.7893 221.199 43.6258 220.627 43.5034 220.427C43.3171 220.605 43.1464 220.798 42.9933 221.005L42.6108 221.639C42.482 221.843 42.3389 222.038 42.1823 222.222C42.038 222.407 41.8659 222.569 41.6722 222.702C41.7844 222.513 41.9426 222.303 42.0956 222.089C42.2486 221.874 42.4271 221.685 42.5496 221.501C41.9721 221.786 41.469 222.203 41.0805 222.717L41.1315 222.666C40.7235 223.08 40.3562 223.535 39.9788 223.98C40.0808 223.873 40.193 223.77 40.3001 223.668C40.2433 224.006 40.1439 224.336 40.0043 224.649C39.8716 224.956 39.6829 225.232 39.4942 225.549C39.3078 225.866 39.1375 226.191 38.9841 226.525C38.8255 226.901 38.7092 227.294 38.6372 227.696C38.9637 226.024 38.5454 227.348 38.3465 227.128C38.0966 227.507 37.8109 228.151 37.8007 227.921C37.7775 228.118 37.7331 228.311 37.6681 228.498C37.6171 228.677 37.5508 228.851 37.4845 229.035C37.4266 229.233 37.3807 229.435 37.3467 229.638C37.3122 229.901 37.3019 230.166 37.3161 230.43C37.2455 230.563 37.1988 230.706 37.1784 230.855C37.1427 231.044 37.0968 231.202 37.0101 231.095C36.954 232.189 37.1682 230.855 37.2549 230.962C37.2906 231.805 37.1121 232.761 37.1376 233.829C37.1375 234.386 37.1819 234.941 37.2702 235.491C37.3752 236.066 37.5463 236.627 37.7803 237.162C37.8721 237.402 37.9486 237.617 38.0354 237.806L38.2955 238.317C38.4316 238.598 38.5867 238.87 38.7597 239.13L39.2697 239.892C39.4585 240.162 39.6625 240.469 39.9073 240.858C40.0349 241.144 39.9073 241.067 39.7849 240.909C39.6625 240.75 39.484 240.515 39.484 240.515C39.6756 240.936 39.9061 241.338 40.1726 241.716C40.4231 242.088 40.6992 242.441 40.9989 242.774C40.851 242.647 40.9428 242.826 41.0805 243.086C41.5906 243.669 41.5396 243.367 42.1517 244.175C41.9248 244.04 41.7098 243.886 41.509 243.715C41.8195 244.045 42.1481 244.357 42.4934 244.65C42.8352 244.952 43.1718 245.264 43.5136 245.555C43.6564 245.759 43.0035 245.264 42.7587 245.044C43.1361 245.412 43.6768 245.831 44.1206 246.209C44.4465 246.466 44.7871 246.703 45.1408 246.92L44.6511 246.506C44.9469 246.746 44.7531 246.69 44.5236 246.506C44.1234 246.288 43.7888 245.967 43.5544 245.575L44.0645 246.005C43.7023 245.402 42.1058 244.221 41.2642 243.168L41.7742 243.459C41.4325 243.158 41.1162 242.831 40.7949 242.504C40.6623 242.238 40.647 241.992 41.0601 242.504C40.55 241.686 40.5041 241.865 40.1624 241.118C40.1318 241.037 40.1624 241.062 40.2134 241.118C40.0302 240.874 39.8599 240.619 39.7033 240.357C39.8359 240.49 39.7747 240.142 40.0145 240.653C39.3208 239.171 38.7087 238.333 38.6679 237.683L38.7342 237.806C38.3414 236.743 38.3057 236.692 38.2241 236.728C38.1425 236.763 38.1629 236.779 38.0966 236.728C37.9464 236.532 37.8371 236.307 37.7752 236.068L37.9129 235.45C37.969 235.245 38.0405 235.041 38.1068 234.842L37.8619 234.642C37.8313 234.407 37.8262 233.942 37.9231 234.024C37.7395 233.155 37.8313 234.177 37.6681 233.676C37.7038 233.385 37.714 233.047 37.7497 232.695C37.7854 232.342 37.7752 231.979 37.8262 231.647C37.8874 230.972 38.0354 230.42 38.2547 230.338C38.1527 229.899 37.8874 231.361 38.0098 230.16C38.0715 230.124 38.1251 230.076 38.1672 230.019C38.2094 229.962 38.2392 229.897 38.2547 229.827C38.3239 229.646 38.3718 229.457 38.3975 229.265C38.4534 228.771 38.6115 228.294 38.8617 227.864C38.9688 228.248 38.4995 229.101 39.0657 228.222C39.0328 228.02 39.0594 227.812 39.1422 227.624C39.2415 227.394 39.3609 227.174 39.4993 226.965C39.8042 226.558 40.0869 226.135 40.346 225.697C40.2134 225.595 40.4429 225.186 40.7949 224.639C41.1468 224.092 41.6824 223.458 42.1313 222.876C42.5427 222.582 42.9268 222.252 43.279 221.889C43.9183 221.309 44.6003 220.777 45.3193 220.3V220.371C45.2632 219.896 46.4211 219.088 47.2219 218.449C47.329 218.674 47.2219 218.843 46.8444 219.257C47.0944 219.063 47.3545 218.889 47.6248 218.715C47.8374 218.376 48.1255 218.091 48.4665 217.882L48.4308 218.27C48.9408 217.933 49.4509 217.529 50.0273 217.131C50.4 216.878 50.7885 216.649 51.1903 216.446C51.7163 216.172 52.2619 215.938 52.8225 215.745C52.4019 215.709 51.9797 215.693 51.5576 215.699C51.175 215.659 51.1036 215.49 51.6188 215.132C51.7823 215.139 51.9447 215.163 52.1033 215.204C52.2564 215.25 52.3125 215.326 52.1033 215.459C52.3148 215.26 52.5698 215.113 52.8481 215.03C52.7887 215.189 52.7043 215.337 52.5981 215.469C53.7356 215.091 52.6287 215.183 53.3173 214.902C53.5966 214.909 53.8754 214.873 54.1437 214.795C54.252 214.739 54.3759 214.721 54.4956 214.744C54.4968 214.764 54.4968 214.784 54.4956 214.805C54.1871 214.883 53.8927 215.008 53.6234 215.178C53.9294 215.055 54.2763 214.933 54.6435 214.805C54.662 214.769 54.6842 214.734 54.7098 214.703L54.7455 214.652C54.7455 214.652 54.7762 214.621 54.7455 214.6C54.7149 214.58 54.5721 214.457 54.5007 214.391C54.3912 214.304 54.3067 214.189 54.2559 214.059C53.8492 214.129 53.4311 214.045 53.0827 213.824C52.3431 213.43 52.3074 213.312 52.3584 213.251C52.4094 213.19 52.5777 213.139 52.1543 212.832C51.6035 212.75 50.6547 211.948 50.4609 212.27C50.1446 212.07 50.1803 211.881 50.114 211.723C49.6061 211.484 49.1167 211.207 48.6501 210.895C48.14 210.583 47.7779 210.384 47.9513 210.772L48.0686 210.9L47.9717 210.849C47.4763 210.6 47.0122 210.293 46.5894 209.934C46.157 209.577 45.7528 209.188 45.3805 208.768C44.6052 207.951 43.9574 207.046 43.2127 206.284L43.3249 206.202C42.4067 205.313 41.6416 203.974 40.9632 203.304C40.7898 202.962 40.8204 202.389 41.0397 202.466C40.8391 202.173 40.6601 201.865 40.5041 201.546C40.4248 201.382 40.3599 201.211 40.3103 201.035C40.2521 200.763 40.2113 200.489 40.1879 200.212C40.698 201.05 40.3001 199.844 40.6419 201.086C40.397 199.88 40.5551 199.599 39.9788 198.382C40.1879 198.576 40.2797 198.336 40.3001 197.988C40.32 197.624 40.2995 197.259 40.2389 196.9L39.9941 197.743C39.9584 197.426 39.943 197.125 39.9379 196.833C39.9328 196.542 39.9839 196.256 40.0043 195.975L40.5143 196.297C40.8663 195.147 40.8 194.109 40.9122 193.071C40.9462 192.572 41.051 192.08 41.2233 191.609C41.4171 191.152 41.7442 190.763 42.1619 190.495C42.1619 190.132 41.9426 190.383 41.7181 190.654C41.4937 190.925 41.2846 191.221 41.208 190.863C41.5061 190.378 41.898 189.957 42.3608 189.626C42.6794 189.441 42.9785 189.223 43.2535 188.977C44.3909 187.955 43.4983 187.347 44.7837 186.248C44.5032 186.248 43.9829 186.084 44.7531 185.031C45.6865 184.254 46.3598 184.627 45.9212 185.23C45.7273 185.43 45.5896 185.481 45.5539 185.425C45.3142 185.726 45.0438 186.145 45.508 185.961L45.4774 185.721C45.844 185.511 46.1967 185.277 46.5333 185.021C46.8852 184.781 47.1709 184.653 47.125 184.888C47.6758 184.198 47.2168 184.413 46.6506 184.75C47.2004 184.417 47.7255 184.045 48.2216 183.636C48.4512 183.457 48.6858 183.273 48.9408 183.094C49.1959 182.915 49.5019 182.746 49.8488 182.583C49.5886 182.634 49.2724 182.583 49.4764 182.44C50.4966 181.893 50.67 181.724 50.7312 181.52C50.7924 181.315 50.7669 181.141 51.4198 180.707C52.338 180.528 51.481 181.458 52.7358 180.497C53.6693 180.237 53.1439 180.855 52.8889 181.167C53.1408 180.936 53.4263 180.745 53.7356 180.6C53.8937 180.523 54.0059 180.482 54.2049 180.405C54.4038 180.329 54.7149 180.206 54.9751 180.119C55.9952 179.771 57.0919 179.511 57.8774 179.219L56.6532 179.894C57.3377 179.529 58.0428 179.205 58.765 178.923C58.3263 178.964 57.9131 179 57.5204 179.025C58.3365 178.754 58.969 178.514 59.1985 178.565C59.1074 178.445 58.9881 178.349 58.8511 178.285C58.7141 178.222 58.5636 178.193 58.413 178.202C58.1937 178.202 57.9029 178.039 57.2755 177.42C57.0293 176.907 56.7301 176.42 56.3829 175.969C56.0411 175.457 55.7861 175.008 55.9391 174.762C56.6379 176.056 56.7553 175.953 56.8471 175.82C56.9389 175.688 57.0103 175.432 57.8672 176.659C57.4317 176.126 57.049 175.553 56.7247 174.946C56.7247 174.824 56.893 175.013 57.0511 175.202C56.2656 173.525 56.2656 173.73 55.9442 173.597C55.6229 173.464 55.3372 173.454 54.9241 172.646C55.2811 172.718 55.2148 172.038 55.0261 171.808C55.3576 172.442 54.7506 172.319 54.2661 171.808C54.0059 170.663 53.5826 170.735 53.3938 170.152C53.4397 170.382 53.4959 170.612 53.5622 170.837C53.1949 170.735 53.0266 170.167 52.6491 169.436C52.8276 169.293 53.0572 170.075 53.0419 169.769C52.8632 169.577 52.7276 169.349 52.644 169.1C52.5604 168.852 52.5309 168.588 52.5573 168.327C52.5726 167.726 52.4505 167.13 52.2003 166.584C52.2411 165.976 52.7103 166.4 52.7103 165.884C52.4565 165.462 52.3573 164.965 52.4298 164.478C52.4479 164.271 52.4479 164.062 52.4298 163.855C52.4135 163.564 52.3533 163.278 52.2513 163.006C51.9401 163.461 52.0421 163.517 51.5422 162.556L51.833 163.732C51.9248 164.12 52.0625 164.504 52.1798 164.887C51.9044 164.417 51.6137 163.942 51.379 163.451C51.4049 163.635 51.4406 163.818 51.4861 163.998C51.5422 164.177 51.6035 164.356 51.6647 164.509C51.7778 164.782 51.8549 165.069 51.8942 165.363C51.4504 164.693 51.5576 164.744 51.3178 165.153C51.6647 164.069 50.6496 163.211 50.9149 161.984L51.833 161.943C51.8941 161.536 51.8941 161.123 51.833 160.716C51.7984 160.311 51.7422 159.909 51.6647 159.51C51.5796 159.077 51.5301 158.638 51.5167 158.196C51.5167 157.961 51.5167 157.716 51.5167 157.465C51.5409 157.197 51.5835 156.931 51.6443 156.668L51.4045 157.373C51.2464 157.205 51.2719 156.862 51.3331 156.453C51.4076 156.049 51.4587 155.642 51.4861 155.232C51.7667 155.349 51.9503 154.92 52.1849 154.654C51.935 154.654 52.5471 153.065 52.0319 152.717C52.2258 152.415 52.4604 152.134 52.6746 151.848C52.919 151.226 53.0184 150.557 52.9654 149.89C52.9401 149.6 52.9401 149.307 52.9654 149.016C53.0297 148.65 53.1483 148.295 53.3173 147.963C53.3887 148.582 53.8937 147.928 53.6336 149.098C53.8682 148.561 54.1437 148.101 53.9447 148.009C54.2151 147.764 54.3171 146.369 54.7915 146.001C54.7915 145.725 54.5874 145.489 54.9394 144.937C55.021 144.902 55.0567 145.009 55.0567 145.009C54.9343 144.937 55.4137 143.987 54.8578 144.35C55.3022 144.017 55.6942 143.619 56.0207 143.169C56.3727 142.688 56.7349 142.147 57.0868 141.635C57.4228 141.126 57.7962 140.643 58.2039 140.189C58.5165 139.792 58.9093 139.467 59.3567 139.233C60.1645 138.131 61.0455 137.084 61.9938 136.1C61.9938 136.207 62.0805 136.197 61.902 136.33C62.1117 136.216 62.2926 136.056 62.4306 135.861C62.5686 135.666 62.66 135.441 62.6977 135.205C62.7742 134.873 62.8711 134.52 63.6719 133.999C64.6615 133.672 63.0802 134.832 63.6311 134.551C64.0137 134.781 64.4064 134.382 64.8706 133.871C65.3103 133.303 65.8785 132.847 66.5284 132.542L66.3243 132.777C66.8135 132.487 67.247 132.111 67.6046 131.668C68.0824 131.109 68.6291 130.612 69.2318 130.191C69.2318 130.191 69.2318 130.293 69.293 130.293C69.9204 129.322 71.5527 128.065 72.7972 127.17C72.5473 127.681 72.2872 127.681 72.6952 127.773C73.2512 127.38 72.2668 127.462 73.394 126.685C73.8582 126.593 74.7662 126.174 75.0365 126.409C74.6641 126.618 74.3122 126.858 73.95 127.088C74.347 127.049 74.7207 126.882 75.0161 126.613C75.3175 126.361 75.642 126.139 75.9852 125.949V126.143C77.6481 125.121 77.5155 124.737 79.3824 123.787H79.1324C79.9894 122.892 80.0965 123.546 81.0146 122.764L81.5247 122.974C81.8461 122.769 82.4071 122.386 83.0549 121.998C83.7027 121.609 84.4271 121.21 85.0442 120.909C84.4373 121.476 83.0039 122.217 82.198 122.826C82.8713 122.478 84.524 121.737 84.8147 121.405C84.5426 121.598 84.2458 121.755 83.9323 121.87C84.8916 121.08 85.9831 120.468 87.156 120.06C87.156 120.433 88.0792 120.086 89.1657 119.703C90.2522 119.319 91.5018 118.864 92.0884 118.91C93.3285 118.383 94.6054 117.947 95.9089 117.607L100.127 116.472C98.9694 116.39 101.005 116.222 100.724 115.895C101.053 115.772 101.396 115.688 101.744 115.644L103.938 115.348C104.448 115.348 103.28 115.588 103.366 115.654C104.897 115.302 104.045 115.654 105.085 115.501C104.851 115.424 105.595 115.205 106.483 115.061L105.203 115.174C107.345 114.54 107.131 115.026 109.283 114.453L108.605 114.683C109.161 114.55 110.201 114.346 111.237 114.141C112.122 114.005 112.997 113.805 113.854 113.543C114.058 113.543 114.333 113.584 113.854 113.681C115.215 113.502 116.72 113.247 118.159 113.037C119.444 112.837 120.74 112.712 122.04 112.664L121.836 112.746C122.34 112.644 122.852 112.588 123.366 112.577C123.336 112.608 123.168 112.659 123.402 112.644C124.076 112.526 124.758 112.458 125.443 112.439L124.871 112.541C127.549 112.49 128.952 112.179 131.222 112.107C131.222 112.306 133.328 112.368 134.379 112.434L134.338 112.465C137.455 112.567 139.638 112.465 142.5 112.587C144.27 112.991 148.539 113.293 151.355 113.942C150.926 113.819 151.457 113.697 151.967 113.748C152.625 113.922 153.844 113.809 153.691 114.106L153.456 114.06C153.91 114.448 155.282 114.627 156.343 114.852L156.593 114.443C158.15 115.029 159.764 115.449 161.408 115.695C163.076 116.002 164.581 116.288 165.239 116.835C165.927 116.881 166.739 117.111 167.422 117.162L167.31 117.448C168.197 117.75 168.84 117.995 169.595 118.236C170.35 118.476 171.1 118.711 172.212 119.043L171.702 119.12C172.931 119.565 173.558 118.726 174.716 119.12L174.89 119.733C177.078 120.525 179.021 121.778 181.286 122.238C181.22 122.299 181.097 122.422 180.776 122.294C181.26 122.509 182.184 123.02 182.959 123.367C183.734 123.715 184.377 123.914 184.362 123.48C184.178 123.94 186.453 124.538 187.652 124.921L187.31 125.167C188.205 125.114 189.098 125.303 189.896 125.714C190.177 125.923 190.013 126.122 189.661 125.821C190.569 126.547 190.626 125.928 191.743 126.792L191.171 126.741C191.653 127.12 192.252 127.318 192.865 127.298C193.584 127.559 194.727 128.581 194.681 128.959C194.947 128.932 195.216 128.963 195.469 129.051C195.722 129.14 195.953 129.283 196.145 129.47C196.145 129.629 195.895 129.547 195.767 129.511C196.008 129.725 196.262 129.923 196.527 130.104C196.65 130.186 196.767 130.268 196.884 130.334L197.297 130.59C197.945 130.973 198.465 131.295 198.96 131.576C199.346 131.227 199.776 130.931 200.241 130.697C200.327 130.784 200.465 130.758 200.623 130.697C200.016 131.147 199.45 131.602 198.96 131.985C197.879 131.193 197.17 130.636 197.282 130.702C197.19 130.85 197.558 131.239 197.792 131.556C198.027 131.873 198.119 132.108 197.251 131.76C197.762 132.041 198.379 132.369 198.976 132.665C199.639 131.98 200.286 131.295 200.904 130.753C201.231 130.412 201.612 130.125 202.031 129.905C202.095 129.892 202.161 129.892 202.225 129.905L202.143 130.002C202.371 129.886 202.577 129.73 202.75 129.542C203.059 129.415 203.361 129.27 203.653 129.107C203.913 129.271 204.964 128.55 205.51 128.264C205.295 127.963 206.045 127.63 205.234 127.722C205.331 127.697 205.147 127.819 204.796 128.034C204.717 128.082 204.644 128.136 204.576 128.198L204.602 128.147C204.25 128.361 203.77 128.607 203.26 128.929C203.596 128.445 204.1 128.104 204.673 127.973C204.827 127.65 204.997 127.337 205.183 127.032C206.203 127.109 207.785 126.628 208.126 126.843C209.779 125.857 212.253 125.085 213.227 124.109C213.737 123.858 213.88 124.109 214.104 124.139C213.83 124.241 213.569 124.373 213.324 124.533C214.319 124.022 216.42 123.577 216.583 123.112C217.976 122.989 215.915 123.679 217.752 123.178L217.527 123.367C219.414 123.281 220.848 122.739 222.373 122.274C224.059 121.688 225.852 121.48 227.627 121.665C227.336 121.665 227.188 121.63 227.117 121.573C229.494 121.573 231.937 121.394 234.385 121.43C236.8 121.416 239.21 121.649 241.577 122.125C242.336 122.277 243.113 122.317 243.883 122.243L244.128 122.498H245.546C246.462 122.642 247.36 122.885 248.224 123.224C249.22 123.59 250.243 123.875 251.284 124.078L251.004 123.889C251.866 124.155 253.738 124.722 253.554 124.773C253.771 124.795 253.982 124.858 254.176 124.957V125.023C254.88 125.243 255.579 125.484 256.273 125.754C257.834 126.47 255.951 125.811 258.237 126.828C259.093 127.186 260.649 127.937 260.348 127.763C260.052 127.615 259.767 127.444 259.496 127.252L260.251 127.656C260.425 127.656 261.022 127.957 259.231 126.802C258.798 126.577 258.364 126.342 257.915 126.143L257.522 125.867C257.89 126.066 258.257 126.25 258.614 126.46C258.155 126.155 257.664 125.902 257.15 125.703C256.992 125.571 256.821 125.455 256.64 125.356C256.191 125.177 255.732 125.023 255.268 124.88C255.135 124.742 255.911 125.029 255.038 124.589C254.391 124.379 255.579 124.988 254.528 124.589C254.17 124.32 253.763 124.124 253.33 124.011C253.238 123.925 253.411 123.95 253.722 124.057C252.999 123.77 252.256 123.536 251.498 123.357C250.845 122.974 249.121 122.621 249.254 122.412C249.019 122.412 247.958 122.228 247.295 122.069C247.933 122.069 247.326 121.89 246.597 121.706C245.867 121.522 245.031 121.302 245.23 121.154C244.276 121.246 241.95 120.587 240.307 120.561C240.445 120.532 240.588 120.532 240.725 120.561C240.139 120.442 239.56 120.288 238.991 120.101C238.838 120.398 237.415 120.295 236.64 120.459C235.543 120.035 237.344 120.122 237.017 119.784C237.053 120.055 235.048 119.876 235.421 120.147C234.569 119.881 234.686 120.004 234.253 119.682C234.089 120.122 233.447 119.713 232.722 119.958C231.483 119.713 232.406 119.519 231.034 119.636C230.381 119.488 231.6 119.35 231.6 119.35ZM200.485 128.182L201.046 127.794L200.485 128.182ZM198.889 129.297C198.889 129.297 198.919 129.337 198.94 129.297L199.399 128.954C199.424 128.978 199.443 129.007 199.455 129.04C199.466 129.073 199.47 129.108 199.466 129.142C199.461 129.177 199.449 129.209 199.429 129.238C199.409 129.267 199.383 129.29 199.353 129.307C199.394 129.174 199.103 129.307 198.94 129.307C198.909 129.353 198.894 129.312 198.879 129.297H198.889ZM204.367 128.811C204.03 129.056 203.857 129.061 203.791 129.021C203.959 128.923 204.148 128.801 204.398 128.637C204.399 128.617 204.399 128.596 204.398 128.576C204.406 128.657 204.392 128.738 204.357 128.811H204.367Z" fill="#3C2829"/>
<path d="M204.78 128.034C204.822 127.993 204.869 127.958 204.918 127.927L204.658 127.972L204.586 128.146L204.78 128.034Z" fill="#3C2829"/>
<path d="M47.9617 210.777L47.9207 210.741C47.947 210.775 47.9677 210.813 47.9822 210.854C47.9617 210.813 47.9719 210.808 47.9617 210.777Z" fill="#3C2829"/>
<path d="M165.387 114.172L165.372 114.243L165.622 114.233L165.387 114.172Z" fill="#3C2829"/>
<path d="M45.8702 218.245C45.7982 218.244 45.7275 218.263 45.6661 218.301C45.7369 218.295 45.806 218.276 45.8702 218.245V218.245Z" fill="#3C2829"/>
<path d="M41.0806 222.718C40.8459 222.927 40.6521 223.172 40.4379 223.402C40.7337 223.106 40.9173 222.881 41.0806 222.718Z" fill="#3C2829"/>
<path d="M38.3312 226.995C38.3375 227.044 38.3569 227.09 38.3873 227.128V227.128L38.3312 226.995Z" fill="#3C2829"/>
<path d="M50.7721 171.598L50.6802 171.414C50.4048 171.005 50.5527 171.297 50.7721 171.598Z" fill="#3C2829"/>
<path d="M42.57 185.956C42.6683 185.706 42.7825 185.461 42.9118 185.225C42.6108 185.532 42.3813 185.783 42.57 185.956Z" fill="#3C2829"/>
<path d="M51.889 144.789L51.9706 144.636L51.889 144.789Z" fill="#3C2829"/>
<path d="M43.6973 184.418C43.3821 184.629 43.1145 184.904 42.9117 185.225C43.2049 184.989 43.4687 184.717 43.6973 184.418V184.418Z" fill="#3C2829"/>
<path d="M44.3654 246.506L44.549 246.659C44.549 246.659 44.549 246.659 44.5796 246.659L44.3654 246.506Z" fill="#3C2829"/>
<path d="M44.5796 246.674L44.7989 246.832C44.7312 246.773 44.6577 246.72 44.5796 246.674V246.674Z" fill="#3C2829"/>
<path d="M45.2529 247.16L44.799 246.833C44.9415 246.954 45.0933 247.063 45.2529 247.16V247.16Z" fill="#3C2829"/>
<path d="M39.8923 241.645L39.8052 241.609C39.8155 241.622 39.8289 241.632 39.8441 241.638C39.8594 241.644 39.8759 241.647 39.8923 241.645V241.645Z" fill="#3C2829"/>
<path d="M38.8311 239.912C38.928 240.132 39.0657 240.423 39.2085 240.704C39.3422 241.016 39.5135 241.309 39.7186 241.578L39.79 241.609C39.5503 241.394 39.1269 240.275 38.8311 239.912Z" fill="#3C2829"/>
<path d="M38.1017 231.713C38.0499 231.978 38.0158 232.246 37.9997 232.516C37.9997 232.787 37.9334 233.057 37.9385 233.328C37.9589 233.206 38.004 233.09 38.0711 232.986C38.1221 232.95 38.1272 233.042 38.1527 233.405C38.2905 232.383 38.2701 232.505 38.1834 232.597C38.0966 232.689 37.9691 232.766 38.1017 231.713Z" fill="#3C2829"/>
<path d="M39.6932 227.001C39.3616 227.793 39.8258 227.052 39.8564 227.118C39.9073 226.97 39.9482 226.818 39.9788 226.663C39.9635 226.633 39.8666 226.725 39.6932 227.001Z" fill="#3C2829"/>
<path d="M41.0347 202.088L41.407 202.016C41.0806 201.454 41.2693 202.067 41.0347 202.088Z" fill="#3C2829"/>
<path d="M37.9844 195.392C37.8824 195.627 37.8008 195.862 37.709 196.107L38.0507 196.46C38.0201 196.123 38.0201 195.765 37.9844 195.392Z" fill="#3C2829"/>
<path d="M41.6262 192.075L41.5905 192.325L41.7078 191.814C41.7537 191.65 41.8098 191.487 41.8608 191.303C41.7656 191.555 41.6872 191.812 41.6262 192.075V192.075Z" fill="#3C2829"/>
<path d="M58.7956 140.593L58.3314 140.48C58.1121 140.889 58.4232 141.262 58.7956 140.593Z" fill="#3C2829"/>
<path d="M79.2803 124.063C79.7931 124.018 80.2787 123.813 80.6677 123.475C80.1931 123.64 79.7296 123.837 79.2803 124.063Z" fill="#3C2829"/>
<path d="M157.879 115.051L157.333 115.031L158.338 115.168L157.879 115.051Z" fill="#3C2829"/>
<path d="M98.2145 248.873C98.2145 251.672 96.2496 254.301 92.8676 256.258C89.4987 258.207 84.8114 259.428 79.607 259.428C74.4025 259.428 69.7152 258.207 66.3463 256.258C62.9643 254.301 60.9994 251.672 60.9994 248.873C60.9994 246.073 62.9643 243.444 66.3463 241.488C69.7152 239.538 74.4025 238.317 79.607 238.317C84.8114 238.317 89.4987 239.538 92.8676 241.488C96.2496 243.444 98.2145 246.073 98.2145 248.873Z" stroke="#877672"/>
<path d="M79.5356 248.755C86.1055 244.339 92.8232 240.178 99.5767 236.068L104.652 233.002L109.753 229.996C113.153 227.982 116.583 226.025 120.041 224.123C126.968 220.32 134.027 216.758 140.908 212.878C144.346 210.936 147.76 208.953 151.151 206.928L153.701 205.395L156.226 203.862L161.271 200.754C164.632 198.674 167.973 196.568 171.345 194.513C174.716 192.458 178.108 190.424 181.506 188.415L191.707 182.358C193.401 181.336 195.109 180.354 196.808 179.363L201.934 176.393C208.805 172.498 215.706 168.629 222.638 164.867C229.57 161.105 236.569 157.394 243.628 153.837L243.771 154.077C237.14 158.427 230.473 162.638 223.74 166.773C217.007 170.909 210.228 174.952 203.424 178.979L198.297 181.944C196.589 182.931 194.88 183.922 193.156 184.883L182.827 190.69C179.389 192.632 175.946 194.564 172.477 196.455C169.009 198.346 165.52 200.207 162.046 202.078L156.818 204.899L154.211 206.315L151.625 207.756C148.177 209.682 144.754 211.653 141.357 213.67C134.568 217.703 127.957 222.048 121.204 226.152C117.827 228.197 114.427 230.195 111.002 232.148L105.861 235.072L100.684 237.949C93.7311 241.752 86.7788 245.484 79.6734 248.995L79.5356 248.755Z" fill="#F6B289"/>
<path d="M108.064 232.317C107.84 228.079 107.922 223.868 108.064 219.661C108.139 217.558 108.25 215.458 108.396 213.359C108.534 211.263 108.733 209.167 109.013 207.082C109.294 204.996 109.625 202.911 109.926 200.82C110.227 198.73 110.487 196.649 110.666 194.554C110.844 192.458 110.967 190.357 111.048 188.251C111.13 186.146 111.145 184.04 111.176 181.934V181.53L111.609 181.233C114.823 179.056 118.128 177.027 121.439 175.003L126.407 171.982C128.075 170.995 129.748 170.014 131.441 169.074C133.135 168.133 134.833 167.203 136.542 166.293C138.251 165.383 139.975 164.484 141.704 163.599C145.198 161.851 148.707 160.124 152.278 158.59L152.416 158.83C149.289 161.171 146.065 163.333 142.821 165.475C141.189 166.533 139.562 167.586 137.914 168.608C136.267 169.631 134.619 170.653 132.956 171.65C131.293 172.646 129.61 173.612 127.927 174.563L122.826 177.369C119.424 179.225 116.017 181.08 112.523 182.782L112.961 182.082C112.67 184.167 112.375 186.253 112.125 188.343C111.875 190.434 111.681 192.53 111.538 194.625C111.395 196.721 111.339 198.832 111.314 200.938C111.288 203.044 111.314 205.155 111.258 207.261C111.201 209.367 111.094 211.467 110.911 213.563C110.727 215.659 110.518 217.749 110.273 219.84C109.763 224.021 109.222 228.197 108.35 232.347L108.064 232.317Z" fill="#F6B289"/>
<path d="M131.803 218.782C139.036 217.851 146.279 217.443 153.523 217.131C157.144 216.977 160.771 216.916 164.403 217.018C168.034 217.121 171.661 217.274 175.288 217.289C178.914 217.305 182.541 217.213 186.162 217.018C189.784 216.824 193.401 216.507 197.022 216.252C200.644 215.996 204.265 215.802 207.887 215.638C211.508 215.475 215.13 215.301 218.757 215.183L218.048 215.388C220.532 213.936 223.026 212.51 225.546 211.13C228.065 209.75 230.59 208.37 233.136 207.041C235.681 205.712 238.236 204.368 240.787 203.074C243.337 201.781 245.944 200.519 248.571 199.307L248.708 199.548C246.357 201.224 243.97 202.839 241.567 204.419C239.165 205.998 236.742 207.557 234.304 209.091C231.866 210.624 229.422 212.132 226.964 213.624C224.505 215.117 222.026 216.574 219.532 218L219.195 218.194H218.823C215.196 218.26 211.57 218.281 207.943 218.301C204.316 218.322 200.69 218.327 197.063 218.245C193.436 218.163 189.804 218.046 186.178 218.041C182.551 218.035 178.924 218.097 175.303 218.327C171.681 218.557 168.09 218.904 164.454 219.15C160.817 219.395 157.21 219.559 153.584 219.594C146.335 219.656 139.077 219.594 131.814 219.083L131.803 218.782Z" fill="#F6B289"/>
<path d="M96.8781 232.874L97.0056 232.95L97.1127 233.016L96.8781 232.874Z" fill="#ED7339"/>
<path d="M97.8983 233.502L98.1635 233.681L97.7606 233.41L97.5208 233.262L97.1995 233.068C97.3984 233.196 97.6585 233.339 97.9085 233.513C97.9646 233.548 97.9136 233.513 97.8983 233.502Z" fill="#ED7339"/>
<path d="M102.101 248.249L102.178 248.162L102.101 248.249Z" fill="#ED7339"/>
<path d="M93.3688 254.28C93.4456 254.25 93.4713 254.224 93.4713 254.214C93.4713 254.204 93.3483 254.28 93.3688 254.28Z" fill="#ED7339"/>
<path d="M91.5785 254.745H91.681C91.6475 254.736 91.612 254.736 91.5785 254.745V254.745Z" fill="#ED7339"/>
<path d="M102.101 248.249L101.918 248.468C101.918 248.493 102.015 248.356 102.101 248.249Z" fill="#ED7339"/>
<path d="M99.8372 234.939L99.7142 234.842L99.827 234.934L99.8372 234.939Z" fill="#ED7339"/>
<path d="M103.586 240.301C103.598 240.347 103.617 240.392 103.642 240.433C103.619 240.376 103.601 240.319 103.586 240.26C103.586 240.26 103.581 240.27 103.586 240.301Z" fill="#ED7339"/>
<path d="M100.439 235.496L100.367 235.424L100.439 235.496Z" fill="#ED7339"/>
<path d="M103.153 246.388L103.126 246.415C103.126 246.415 103.142 246.404 103.153 246.388Z" fill="#ED7339"/>
<path d="M96.8781 232.874L96.822 232.843L96.8118 232.838L96.8781 232.874Z" fill="#ED7339"/>
<path d="M88.319 255.416C88.4239 255.389 88.3714 255.4 88.319 255.416V255.416Z" fill="#ED7339"/>
<path d="M59.5351 249.767C59.6575 250.135 58.9689 249.573 59.2036 250.068C59.224 249.982 59.7595 250.14 59.5351 249.767Z" fill="#ED7339"/>
<path d="M99.908 235L100.021 235.097L99.908 235Z" fill="#ED7339"/>
<path d="M80.7137 256.243C80.7359 256.273 80.7636 256.299 80.7954 256.319C80.7954 256.319 80.775 256.279 80.7137 256.243Z" fill="#ED7339"/>
<path d="M77.7451 256.427C77.6799 256.397 77.6067 256.388 77.536 256.402L77.5666 256.427C77.5938 256.411 77.6245 256.403 77.6559 256.403C77.6872 256.403 77.718 256.411 77.7451 256.427V256.427Z" fill="#ED7339"/>
<path d="M74.6592 256.141L74.7102 256.192H74.8122L74.6592 256.141Z" fill="#ED7339"/>
<path d="M83.7742 228.856L83.917 228.886C83.8711 228.866 84.3302 228.907 83.7742 228.856Z" fill="#ED7339"/>
<path d="M99.8366 234.944L99.9081 235L99.8264 234.934L99.8366 234.944Z" fill="#ED7339"/>
<path d="M77.5511 257.848C77.3777 257.848 77.2093 257.848 77.041 257.807C77.2093 257.838 77.3801 257.851 77.5511 257.848V257.848Z" fill="#ED7339"/>
<path d="M61.7133 232.603L61.8106 232.531C61.7737 232.548 61.7406 232.573 61.7133 232.603V232.603Z" fill="#ED7339"/>
<path d="M75.5314 257.75C75.449 257.684 75.3558 257.632 75.2559 257.598C75.2335 257.61 75.2129 257.625 75.1947 257.643L75.5314 257.75Z" fill="#ED7339"/>
<path d="M87.1713 229.367C86.7071 229.265 86.952 229.337 86.8499 229.321C86.6984 229.303 86.5496 229.267 86.4062 229.214L85.5237 229.127C85.5237 229.127 85.4523 229.127 85.5237 229.127C85.1514 229.097 84.422 228.943 83.9935 228.938H83.9374C84.0088 228.964 84.019 228.979 84.0037 228.984C83.8448 228.982 83.6863 228.968 83.5293 228.943C83.5973 228.948 83.6654 228.948 83.7334 228.943H83.5089C83.31 228.892 83.815 228.943 83.815 228.943C83.3814 228.913 82.8713 228.892 82.5398 228.851C82.4735 228.815 83.3202 228.913 82.8764 228.851L83.3865 228.913C82.9989 228.826 83.6977 228.943 83.3406 228.861C82.6622 228.785 82.5806 228.795 81.9073 228.723C81.7543 228.723 81.9532 228.759 81.8002 228.769C80.8361 228.769 81.0452 228.642 80.3362 228.662C80.0861 228.713 79.8292 228.722 79.5762 228.688L79.7445 228.642C79.0865 228.642 79.3722 228.718 78.6785 228.688C78.8009 228.662 79.1886 228.662 79.0967 228.657C78.6479 228.616 78.7805 228.693 78.4387 228.698L78.3673 228.647L77.2656 228.688L76.1179 228.8C76.1587 228.774 76.2913 228.749 76.1179 228.739C75.1334 228.81 74.0266 228.918 73.0574 228.974L72.7055 229.091C72.6238 229.091 72.5473 229.091 72.634 229.051C72.2668 229.081 72.634 229.102 72.4555 229.158C72.277 229.214 72.1699 229.158 72.2974 229.122C71.4793 229.354 70.6481 229.537 69.8082 229.669L69.9306 229.608C69.4205 229.7 69.3899 229.94 68.885 229.976L68.9768 229.94C68.6911 230.001 68.4004 230.063 68.1096 230.144L67.268 230.42C66.7656 230.583 66.2547 230.717 65.7378 230.824C65.6409 231.044 64.6258 231.182 64.6564 231.438C64.1714 231.48 63.6962 231.599 63.2486 231.79C63.0139 231.887 62.9833 232.102 62.7385 232.271L62.6671 232.148L62.361 232.47L62.0703 232.419L61.8357 232.598C61.9377 232.547 62.0805 232.531 62.0907 232.598C61.7782 232.836 61.4053 232.981 61.0144 233.017C60.7339 233.252 60.4432 233.472 60.1728 233.727C60.1728 233.661 60.2901 233.533 60.3921 233.426C60.0045 233.886 60.2034 233.344 59.8515 233.779C59.9331 233.779 59.8515 233.876 59.8872 233.911C59.4753 234.09 59.104 234.351 58.7956 234.678V234.535C58.1039 235.084 57.4667 235.698 56.893 236.37C57.1633 236.155 57.2756 236.37 57.1123 236.564L56.8981 236.528C56.8981 236.743 57.1276 236.35 57.0205 236.723C56.791 236.983 56.6992 236.774 56.7757 236.58L56.5665 236.953C56.5053 236.953 56.541 236.84 56.5002 236.779C56.5002 236.978 55.8932 237.265 55.929 237.597H55.8677C55.4795 238.215 55.1662 238.877 54.9343 239.57C55.1026 239.652 54.9343 239.917 55.0159 240.183C54.72 240.752 54.5217 241.368 54.4293 242.003C54.4752 242.514 54.5772 242.156 54.6742 242.381C54.5007 242.381 54.4803 243.102 54.3732 242.739C54.3613 243.453 54.4877 244.163 54.7456 244.829C54.7966 244.702 54.8017 244.574 54.8731 244.625C54.9394 244.799 54.8731 245.059 54.7966 245.054L54.7711 245.008C55.0025 245.606 55.1734 246.226 55.2811 246.859C55.3475 247.169 55.4484 247.471 55.5821 247.758C55.6893 248.013 55.8661 248.233 56.0922 248.392L56.0463 248.361C56.2731 248.595 56.5114 248.816 56.7604 249.026C56.995 249.399 56.49 248.898 56.5972 249.23C57.4745 249.844 57.6173 250.518 58.3824 250.943C58.4232 251.377 58.8925 251.755 59.372 252.108C59.627 252.272 59.8821 252.44 60.1167 252.619C60.335 252.76 60.5252 252.94 60.6778 253.151L60.7084 253.013C60.9634 253.013 60.892 253.227 61.0195 253.34C61.0552 253.243 60.8767 253.115 61.0195 253.125C61.8612 253.575 62.7079 254.04 63.5699 254.572C63.9831 254.843 64.4269 255.052 64.8604 255.292C65.2862 255.539 65.7275 255.757 66.1815 255.947C66.8446 256.202 66.7834 255.435 67.523 256.008L67.2068 256.161C67.9208 256.275 68.6276 256.43 69.3236 256.626C69.6705 256.718 70.0122 256.826 70.3438 256.887C70.6912 256.946 71.0423 256.98 71.3945 256.989C71.3078 257.025 71.2874 257.097 71.1548 257.071C71.4099 257.291 72.2209 257.281 72.2464 257.143C72.4555 257.199 72.2464 257.276 72.3892 257.373C72.6646 257.516 73.1543 257.255 73.2818 257.444C73.2818 257.475 73.1951 257.485 73.139 257.49C73.338 257.439 74.0164 257.623 73.8633 257.414C74.3734 257.567 74.8529 257.465 75.2507 257.592C75.5415 257.408 76.1281 257.756 76.2352 257.47C76.174 257.761 77.1227 257.782 77.4543 257.644C77.3421 257.73 77.7348 257.741 77.6022 257.858C77.9746 257.858 78.3214 257.807 78.2602 257.659C78.9386 258.001 79.6374 257.419 80.02 257.812C81.1269 257.613 82.1419 257.49 83.1162 257.301C83.1162 257.557 82.0297 257.434 82.096 257.7C82.8709 257.45 83.6689 257.278 84.4781 257.189C84.7178 257.189 84.3557 257.316 84.2791 257.362C85.1922 257.117 86.0797 257.107 86.8806 256.826C86.8806 256.826 86.7938 256.887 86.7173 256.923C86.8755 256.882 87.0948 256.872 87.0591 256.78L86.9061 256.841C86.6255 256.749 87.4926 256.402 87.5028 256.33C87.2835 256.662 88.319 256.228 87.9568 256.662C88.0588 256.621 88.1813 256.55 88.1455 256.494C88.3037 256.494 88.3649 256.494 88.217 256.606C88.7831 256.422 88.5587 256.391 89.0739 256.253C89.0739 256.294 88.9821 256.34 88.9413 256.407C89.2165 256.207 89.5314 256.069 89.8645 256.003C89.8645 256.039 89.9053 256.054 89.7727 256.09C90.5174 255.86 90.9867 255.548 91.813 255.318C91.6294 255.563 92.0987 255.277 92.1905 255.395L92.5985 255.195H92.4047C92.7771 255.057 93.0831 254.868 93.4249 254.761L93.1698 254.929L93.8482 254.602L93.4402 254.73C93.787 254.505 93.3382 254.592 93.838 254.413C93.7462 254.469 94.2053 254.26 94.4246 254.245C94.612 254.106 94.8204 253.999 95.0418 253.928C95.1285 253.928 95.0418 254.071 95.0979 254.071C95.2305 253.897 95.909 253.606 96.0824 253.406C96.0212 253.462 96.0416 253.519 96.0824 253.514L96.1895 253.37C96.3629 253.304 96.3935 253.304 96.3884 253.37C96.8985 253.12 96.1691 253.335 96.7761 253.074C96.7353 253.105 96.7761 253.105 96.669 253.166C96.9584 253.019 97.2348 252.848 97.4953 252.655C97.7605 252.486 98.0054 252.307 98.2655 252.144C98.4644 252.144 97.8422 252.466 98.0513 252.415C98.7756 251.904 99.4642 251.259 100.092 250.718L99.9692 250.815C99.9692 250.667 100.479 250.426 100.745 250.094C100.678 250.176 100.683 250.232 100.699 250.201C100.919 249.987 101.128 249.762 101.326 249.527C101.53 249.256 101.78 248.98 102.02 248.612L101.974 248.714C102.081 248.581 102.219 248.402 102.351 248.203L102.708 247.661C102.754 247.559 102.851 247.37 102.77 247.472C103.326 246.565 103.718 245.567 103.927 244.523C103.902 244.64 103.881 244.804 103.897 244.712C103.959 244.43 104.003 244.145 104.029 243.858C104 243.951 103.979 244.047 103.968 244.144C103.968 244.037 103.968 243.797 104.014 243.582C103.973 243.966 104.055 243.582 104.065 243.419C104.065 243.419 104.065 243.388 104.065 243.419C104.106 242.969 104.065 243.342 104.065 242.729V242.759C104.065 242.534 104.04 242.32 104.009 242.074C104.009 241.972 104.045 242.315 104.055 242.33C104.024 241.987 103.958 241.655 103.912 241.343C103.953 241.487 103.973 241.696 103.999 241.855C103.99 241.641 103.959 241.428 103.907 241.221V241.246C103.875 241.053 103.832 240.862 103.779 240.674L103.815 240.817C103.739 240.612 103.677 240.403 103.606 240.173C103.535 239.943 103.433 239.703 103.31 239.437C103.54 239.948 103.356 239.524 103.387 239.554C103.331 239.416 103.234 239.212 103.264 239.268C103.137 239.023 103.076 238.844 102.872 238.512C102.83 238.446 102.793 238.377 102.759 238.307C102.581 237.995 102.8 238.384 102.759 238.358C102.627 238.118 102.433 237.847 102.249 237.551C102.066 237.254 101.816 236.953 101.545 236.656C101.096 236.145 100.989 236.058 100.525 235.608L100.653 235.726L99.9692 235.092L99.8927 235.026L99.4897 234.693L99.6937 234.862C99.454 234.663 99.2194 234.469 98.9592 234.285L99.2041 234.463C98.9184 234.254 98.4594 233.906 98.3624 233.85L98.5563 233.983C98.444 233.906 98.5002 233.942 98.5563 233.983L98.9286 234.259L98.745 234.121L99.2245 234.484L99.8213 234.995L99.6733 234.872C99.7907 234.975 99.9182 235.067 100.035 235.174C100.153 235.281 100.153 235.292 99.9896 235.138L100.408 235.527L100.642 235.746L100.54 235.644C100.943 236.058 101.193 236.304 101.326 236.477L101.295 236.442C101.805 237.05 101.351 236.498 101.744 236.953L101.974 237.285L102.025 237.346C102.07 237.402 102.113 237.46 102.152 237.52C102.336 237.765 102.127 237.474 102.234 237.617L102.616 238.21C102.734 238.415 102.826 238.588 102.841 238.629C102.917 238.752 102.662 238.297 102.872 238.665C102.923 238.772 103.101 239.099 103.244 239.432C103.188 239.335 103.05 239.023 103.193 239.355C103.337 239.659 103.458 239.973 103.555 240.296C103.555 240.296 103.611 240.459 103.672 240.679C103.743 240.928 103.801 241.18 103.846 241.435C103.916 241.909 103.951 242.388 103.953 242.867C103.973 243.179 103.963 243.492 103.922 243.802C103.922 243.802 103.922 243.725 103.922 243.531C103.922 243.644 103.892 243.751 103.881 243.863C103.877 243.997 103.865 244.13 103.846 244.262V244.175C103.775 244.662 103.657 245.142 103.494 245.606C103.494 245.642 103.708 245.192 103.53 245.775C103.53 245.775 103.479 245.806 103.53 245.652C103.53 245.703 103.473 245.831 103.428 245.928L103.494 245.693C103.387 245.933 103.463 245.826 103.387 246.025C103.387 246.025 103.315 246.163 103.31 246.128C103.347 246.048 103.379 245.966 103.407 245.882C103.337 246.075 103.246 246.26 103.137 246.434C103.137 246.434 103.167 246.434 103.096 246.603C102.902 247.007 103.009 246.731 102.872 246.956C102.836 247.058 102.678 247.293 102.708 247.319C102.677 247.381 102.634 247.437 102.581 247.482C102.479 247.687 101.989 248.382 102.173 248.193L102.208 248.147V248.177C101.759 248.813 101.246 249.402 100.678 249.936V249.936C100.372 250.263 99.9641 250.631 99.7396 250.861C99.6325 250.943 99.4693 251.029 99.4999 250.973C99.2928 251.181 99.0597 251.362 98.8062 251.51C99.0612 251.275 98.6889 251.551 99.0714 251.28C98.778 251.451 98.5013 251.65 98.2451 251.873C98.3471 251.735 97.9187 251.99 97.735 252.123L98.0207 251.99C97.8428 252.118 97.6571 252.234 97.4647 252.338L97.5157 252.21C96.6894 252.583 96.1742 253.161 95.4754 253.299C95.2918 253.468 95.9345 253.12 95.7814 253.299C95.4725 253.42 95.1555 253.519 94.8327 253.595C94.2767 253.749 94.4042 253.938 93.8125 254.107C93.8992 254.107 94.0064 254.183 93.6085 254.393C93.2106 254.602 93.0678 254.429 93.2973 254.296C93.3892 254.255 93.4402 254.25 93.4402 254.265C93.5575 254.199 93.7156 254.117 93.5473 254.137L93.5116 254.193C93.3024 254.234 92.7771 254.454 92.874 254.337C92.5883 254.469 92.772 254.449 92.9964 254.388C92.4863 254.505 92.2058 254.643 91.6651 254.776C91.7569 254.776 91.8538 254.776 91.7671 254.822C90.9816 255.016 91.456 255.016 90.9408 255.211C90.6194 255.211 91.002 255.016 90.4817 255.211C90.1451 255.241 90.3797 255.098 90.4817 255.032C90.0925 255.165 89.6842 255.234 89.2728 255.236L89.5177 255.134C89.3889 255.187 89.2558 255.228 89.1198 255.257L89.2932 255.318C89.1402 255.318 89.0127 255.369 89.0025 255.318C88.8648 255.42 89.1657 255.456 88.8801 255.625C88.6658 255.625 88.2731 255.809 88.1711 255.686C88.824 255.614 88.069 255.553 88.6046 255.435C88.4806 255.474 88.3519 255.497 88.2221 255.502C88.1966 255.502 88.2221 255.466 88.2731 255.451C87.6406 255.451 88.0282 255.66 87.3957 255.773C87.4569 255.676 87.2172 255.645 87.1203 255.681C87.3753 255.635 87.2682 255.793 87.0438 255.906C86.6255 255.906 86.6153 256.039 86.396 256.064H86.6459C86.5796 256.166 86.3705 256.192 86.0899 256.253C86.0542 256.187 86.345 256.172 86.2328 256.156C85.942 256.35 85.4931 256.085 85.0647 256.243C84.8504 256.207 85.0239 256.074 84.8351 256.054C84.3557 256.228 84.2893 256.003 83.7742 256.131C83.9425 256.248 83.9629 256.212 83.6058 256.366C83.8915 256.315 84.1771 256.274 84.4577 256.202C84.2842 256.289 84.1057 256.371 83.9476 256.442C84.2077 256.442 84.4883 256.304 84.6464 256.31C84.3965 256.442 84.4169 256.412 84.5546 256.499C84.1771 256.361 83.8558 256.678 83.4324 256.586V256.258C82.805 256.141 82.351 256.519 81.54 256.453L81.8002 256.509C81.7032 256.647 81.2901 256.509 81.0452 256.596C81.0452 256.478 80.9024 256.437 80.7902 256.366C80.7902 256.453 80.2036 256.366 80.1322 256.601L79.77 256.448C79.1273 256.371 79.0304 256.775 78.403 256.713C78.5918 256.586 78.3112 256.483 78.7295 256.407C78.5255 256.407 78.3367 256.366 78.3316 256.453C78.2143 256.366 77.7501 256.601 77.5614 256.453C77.4696 256.504 77.4339 256.642 77.1992 256.616C77.1929 256.606 77.1895 256.595 77.1895 256.583C77.1895 256.571 77.1929 256.56 77.1992 256.55C77.1992 256.616 76.8269 256.606 77.0258 256.764C76.4137 256.294 75.2201 256.652 74.6999 256.218C74.2459 256.192 73.6797 256.156 73.2869 256.105C73.3175 256.069 73.2869 256.039 73.3737 256.064C72.833 255.844 72.9605 256.422 72.3535 256.151C72.0679 255.86 72.7106 256.1 72.5269 255.972C72.5269 255.502 71.7465 255.875 71.3741 255.522H71.4813C71.1956 255.287 70.6447 255.548 70.1296 255.359C70.1359 255.349 70.1393 255.337 70.1393 255.326C70.1393 255.314 70.1359 255.302 70.1296 255.292C69.5822 255.378 69.0238 255.362 68.482 255.246C68.6962 255.108 68.7421 255.211 68.7013 255.006C68.4667 254.965 68.7013 255.318 68.1913 255.236C68.0739 255.093 67.7781 254.894 67.8036 254.684L68.2219 254.822C68.0841 254.495 67.6812 254.643 67.4771 254.526L67.5384 254.423C66.8957 254.234 66.7834 254.521 66.1101 254.245L66.1458 254.352C65.6715 254.464 65.901 254.071 65.4521 254.117V253.795C64.9741 253.758 64.5008 253.674 64.0392 253.544C64.4564 253.521 64.8749 253.538 65.2889 253.595C64.9728 253.434 64.6236 253.348 64.2687 253.345C64.3708 253.37 64.5289 253.345 64.6003 253.432C64.16 253.505 63.708 253.415 63.3302 253.176C63.6822 252.711 62.1978 252.43 62.1264 251.832C61.2491 251.535 60.6829 250.81 59.8872 250.15C59.8872 250.723 59.6474 249.971 59.3771 250.355C59.1782 250.207 59.1118 250.14 59.1169 250.104C58.9945 249.869 58.8721 249.639 58.7701 249.399C58.6681 249.159 58.9996 249.491 59.0557 249.399C58.7191 249 59.0557 249.108 58.8925 248.78C58.8262 248.944 58.5916 248.816 58.4538 248.55C58.4946 248.699 58.5253 248.852 58.5763 248.995C57.9132 248.607 58.4334 248.295 57.8162 247.876L58.0662 247.968C57.7601 247.738 57.296 246.889 56.8216 246.731C56.8216 246.649 56.8981 246.521 57.0052 246.644C56.8216 246.255 56.5359 245.857 56.3064 245.443C56.0815 245.088 55.9629 244.677 55.9647 244.257L56.0769 244.298C56.0106 244.15 55.832 244.058 55.9085 243.838C55.9494 243.838 56.0208 243.889 56.0157 243.838C55.8873 243.654 55.8228 243.433 55.832 243.209L55.9596 243.383C56.031 242.56 55.6688 242.085 55.7402 241.338C55.883 241.369 56.0004 241.221 56.1126 241.032C56.2173 240.85 56.311 240.662 56.3931 240.469H56.4288C56.7655 239.565 56.8369 238.818 57.2858 237.955C57.6467 237.678 57.9692 237.355 58.2447 236.994C58.5886 236.577 58.9807 236.203 59.4128 235.879C59.2751 235.951 59.3006 235.721 59.4128 235.583C59.6117 235.465 59.7851 235.046 59.8923 235.235L59.8311 235.286C60.0912 235.332 60.4074 234.99 60.7033 234.775L60.586 234.52C60.8482 234.436 61.0973 234.316 61.3256 234.162C61.5653 234.003 61.8 233.814 62.0397 233.651C62.375 233.33 62.7972 233.115 63.2537 233.032C63.4271 232.864 63.6822 232.726 63.8556 232.562L63.9015 232.68C64.4728 232.378 64.789 232.291 65.498 231.923L65.3807 232.066C65.7939 231.887 65.7786 231.524 66.1611 231.351L66.3346 231.458C67.0978 231.24 67.8459 230.972 68.5738 230.655C68.5738 230.655 68.5738 230.727 68.4361 230.768C68.7931 230.666 69.8388 230.446 69.6654 230.303C69.7062 230.42 70.4509 230.068 70.8641 229.95L70.8182 230.042C71.0716 229.881 71.3513 229.765 71.6445 229.7C71.7669 229.7 71.7618 229.735 71.5986 229.751C72.0015 229.705 71.8944 229.618 72.3739 229.551L72.2056 229.638C72.4099 229.607 72.6079 229.543 72.7922 229.449C73.0689 229.38 73.3559 229.363 73.6389 229.398C73.7945 229.308 73.9695 229.257 74.149 229.25C74.1847 229.25 74.098 229.296 74.0521 229.311C74.3286 229.282 74.603 229.234 74.8733 229.168C75.0936 229.127 75.3173 229.106 75.5415 229.107C75.5643 229.126 75.5936 229.135 75.6231 229.132C75.0773 229.178 74.6387 229.235 74.6795 229.229C74.7203 229.224 75.1283 229.229 74.7866 229.357C75.2363 229.227 75.6975 229.142 76.1638 229.102H76.2199H76.174C76.2667 229.098 76.3589 229.086 76.4494 229.066C76.5872 229.066 76.6739 229.066 76.8065 229.066C76.8575 229.097 77.3166 229.03 77.5308 229.03C77.5308 228.984 77.8011 228.979 77.5308 228.953H77.3472H77.2503C77.1074 228.953 76.9187 228.984 76.7045 229.005C76.8983 228.949 77.0998 228.925 77.3013 228.933L77.6073 228.846C77.9134 228.902 78.4949 228.913 78.5765 228.943C78.9131 228.918 79.311 228.887 79.6782 228.877C80.0455 228.867 80.3821 228.877 80.5964 228.836C80.6943 228.831 80.7924 228.841 80.8871 228.867H80.5811C80.9687 228.867 81.7237 228.867 81.8155 228.867C82.3 228.913 81.5451 228.867 82.2082 228.923H82.1164C82.7693 228.999 83.2998 229.015 83.8507 229.04C84.4651 229.077 85.0767 229.152 85.6819 229.265L85.5135 229.235C87.1811 229.46 88.8309 229.802 90.4511 230.257C90.9051 230.374 90.9612 230.395 91.2213 230.482L91.3131 230.517L91.7773 230.671C92.4251 230.896 92.9097 231.039 93.7105 231.392L93.6034 231.346L94.4705 231.714L94.6746 231.8C94.9116 231.9 95.1432 232.013 95.3683 232.138L96.0569 232.496L96.7659 232.869L96.4598 232.71L96.72 232.843L96.3272 232.639L95.8783 232.404L95.7355 232.327L96.113 232.526L95.6029 232.26L95.4193 232.163L94.9755 231.933L94.8786 231.882C94.6644 231.795 95.0826 231.974 94.7307 231.821L94.3124 231.642L94.4348 231.693L93.6952 231.381L92.9352 231.049L92.2925 230.829C92.6955 230.967 91.4713 230.548 91.5784 230.574L90.8643 230.333L89.9614 230.088L90.0992 230.119L89.5177 229.955C89.4769 229.955 89.0076 229.822 88.7474 229.761C88.3802 229.659 88.977 229.807 88.8648 229.761C88.8648 229.761 88.2119 229.623 88.3547 229.659C88.069 229.592 88.1047 229.603 87.9619 229.562C87.9058 229.562 87.6916 229.505 87.4518 229.47C87.268 229.413 87.0805 229.369 86.8908 229.337C86.7632 229.286 87.1713 229.367 87.1713 229.367ZM76.1026 228.749H76.3321H76.1026ZM75.1691 228.815L75.5721 228.79C75.6078 228.79 75.5721 228.831 75.4803 228.836C75.5313 228.821 75.3069 228.826 75.1691 228.815V228.815ZM77.1635 229.02C77.0909 229.032 77.0168 229.032 76.9442 229.02L77.1992 228.984L77.1635 229.02Z" fill="#F6B289"/>
<path d="M62.6212 232.051L62.6416 232.081L62.7029 232.02L62.6212 232.051Z" fill="#ED7339"/>
<path d="M104.05 243.439C104.051 243.415 104.051 243.391 104.05 243.368C104.049 243.391 104.049 243.415 104.05 243.439Z" fill="#ED7339"/>
<path d="M103.887 241.2L103.82 240.883L103.887 241.2Z" fill="#ED7339"/>
<path d="M86.7173 256.923H86.651C86.5031 256.994 86.6051 256.974 86.7173 256.923Z" fill="#ED7339"/>
<path d="M94.399 254.24C94.3276 254.29 94.2562 254.341 94.1797 254.387C94.3123 254.336 94.4194 254.29 94.399 254.24Z" fill="#ED7339"/>
<path d="M77.609 257.853V257.848H77.5513L77.609 257.853Z" fill="#ED7339"/>
<path d="M93.833 254.535C93.9541 254.5 94.0706 254.451 94.1799 254.388C94.06 254.426 93.9439 254.476 93.833 254.535V254.535Z" fill="#ED7339"/>
<path d="M98.6327 234.003L98.5664 233.957L98.5613 233.952L98.6327 234.003Z" fill="#ED7339"/>
<path d="M98.5613 233.947L98.4847 233.896L98.5613 233.947Z" fill="#ED7339"/>
<path d="M98.3268 233.789L98.4849 233.896L98.3268 233.789Z" fill="#ED7339"/>
<path d="M100.877 235.91C100.765 235.787 100.591 235.614 100.418 235.46C100.579 235.601 100.733 235.751 100.877 235.91V235.91Z" fill="#ED7339"/>
<path d="M102.632 238.169L102.321 237.683C102.372 237.77 102.443 237.883 102.321 237.683C102.688 238.276 102.224 237.535 102.632 238.169Z" fill="#ED7339"/>
<path d="M103.407 239.774C103.295 239.483 103.407 239.774 103.407 239.774C103.463 239.942 103.484 239.988 103.407 239.774Z" fill="#ED7339"/>
<path d="M99.3831 250.978V250.917C99.1883 251.071 99.3831 250.932 99.3831 250.978Z" fill="#ED7339"/>
<path d="M97.5464 252.654L97.7657 252.568L97.8269 252.456L97.5464 252.654Z" fill="#ED7339"/>
<path d="M96.0314 252.926L96.1181 252.87L95.7764 253.063L96.0314 252.926Z" fill="#ED7339"/>
<path d="M75.2255 256.049L75.2714 256.263C75.4346 256.242 75.4907 256.008 75.2255 256.049Z" fill="#ED7339"/>
<path d="M66.2734 254.121C66.2401 254.033 66.1786 253.958 66.0983 253.908C66.018 253.858 65.9236 253.836 65.8296 253.846C66.0081 253.943 66.1662 254.106 66.2734 254.121Z" fill="#ED7339"/>
<path d="M61.1521 234.376L61.0348 234.529L61.2898 234.295L61.1521 234.376Z" fill="#ED7339"/>
<path d="M124.224 100.423C124.423 100.464 124.402 100.28 123.938 100.044L123.489 100.075L124.224 100.423Z" fill="#3C2829"/>
<path d="M121.408 98.276C120.816 98.0715 120.097 97.9028 120.332 98.276C120.975 98.3731 121.051 98.5366 121.76 98.6184C122.229 98.8536 122.51 99.1296 122.387 99.1756C122.581 99.2165 123.066 99.6305 123.408 99.6356C122.81 99.0693 122.096 98.6403 121.316 98.3782C121.163 98.2453 121.347 98.276 121.408 98.276Z" fill="#3C2829"/>
<path d="M77.4138 72.3612L77.6842 72.5547C77.5991 72.4835 77.5087 72.4188 77.4138 72.3612V72.3612Z" fill="#3C2829"/>
<path d="M87.794 57.2418C87.5848 57.3691 87.5134 57.4404 87.5134 57.4659C87.6971 57.3385 87.8501 57.2367 87.794 57.2418Z" fill="#3C2829"/>
<path d="M92.5989 54.778L92.3132 54.9206C92.416 54.89 92.5127 54.8417 92.5989 54.778V54.778Z" fill="#3C2829"/>
<path d="M77.4138 72.3612L76.7201 71.8501C76.6283 71.9114 77.067 72.1414 77.4138 72.3612Z" fill="#3C2829"/>
<path d="M115.042 95.2601C115.18 95.3287 115.324 95.3866 115.471 95.4333L115.088 95.2397L115.042 95.2601Z" fill="#3C2829"/>
<path d="M89.5842 79.1696L89.8036 79.2969C89.8833 79.3044 89.9636 79.3044 90.0433 79.2969L89.5842 79.1696Z" fill="#3C2829"/>
<path d="M98.8676 84.4749C98.6585 84.3476 98.48 84.4749 98.3575 84.5208C98.5359 84.5266 98.7105 84.5737 98.8676 84.6583C98.9084 84.6481 98.9033 84.5921 98.8676 84.4749Z" fill="#3C2829"/>
<path d="M113.369 93.3179L113.645 93.4401L113.369 93.3179Z" fill="#3C2829"/>
<path d="M82.9737 75.2748C82.972 75.2331 82.9557 75.1932 82.9276 75.1622C82.9276 75.1622 82.9379 75.2441 82.9737 75.2748Z" fill="#3C2829"/>
<path d="M251.367 104.002C251.367 104.002 251.367 104.002 251.367 103.965C251.367 103.928 251.293 104.038 251.367 104.002Z" fill="#3C2829"/>
<path d="M240.109 109.305L240.251 109.209C240.25 109.166 240.239 109.125 240.221 109.086L240.109 109.305Z" fill="#3C2829"/>
<path d="M101.296 50.0603H101.255C101.041 50.2284 101.168 50.152 101.296 50.0603Z" fill="#3C2829"/>
<path d="M183.612 26.2463C183.189 25.9703 183.612 26.0623 183.934 26.1543C184.255 26.2463 184.551 26.3281 183.934 25.8885C184.01 26.0163 182.505 25.6432 183.612 26.2463Z" fill="#3C2829"/>
<path d="M114.792 95.0958L114.41 94.8768C114.533 94.9576 114.66 95.0307 114.792 95.0958Z" fill="#3C2829"/>
<path d="M183.903 25.8883L183.765 25.8119L183.903 25.8883Z" fill="#3C2829"/>
<path d="M120.944 38.5494C120.859 38.546 120.774 38.5581 120.694 38.585C120.694 38.585 120.77 38.5952 120.944 38.5494Z" fill="#3C2829"/>
<path d="M106.106 46.7832L106.483 46.5999C106.33 46.6508 106.213 46.7272 106.106 46.7832Z" fill="#3C2829"/>
<path d="M128.417 33.8725C128.61 33.7963 128.793 33.6968 128.962 33.576L128.865 33.6016C128.735 33.721 128.583 33.8131 128.417 33.8725Z" fill="#3C2829"/>
<path d="M136.354 29.2722L136.185 29.3181L135.94 29.4708L136.354 29.2722Z" fill="#3C2829"/>
<path d="M275.431 89.9545C275.282 89.9947 275.127 90.0119 274.972 90.0056C275.171 90.0618 274.029 90.7825 275.431 89.9545Z" fill="#3C2829"/>
<path d="M115.073 95.1526C114.976 95.1698 114.875 95.1498 114.792 95.0966L115.063 95.2392C115.098 95.2086 115.119 95.2086 115.073 95.1526Z" fill="#3C2829"/>
<path d="M127.912 32.247L129.187 31.5468C128.814 31.7308 128.36 31.9863 127.912 32.247Z" fill="#3C2829"/>
<path d="M237.915 55.5039L238.216 55.6465C238.124 55.5844 238.022 55.5363 237.915 55.5039V55.5039Z" fill="#3C2829"/>
<path d="M132.895 29.354C133.165 29.2821 133.428 29.1863 133.681 29.0677C133.727 29.0321 133.766 28.9889 133.798 28.9399L132.895 29.354Z" fill="#3C2829"/>
<path d="M266.913 95.2449C268.117 94.5548 267.342 94.6826 267.515 94.3964C268.913 93.4968 268.285 94.1868 268.841 94.0284C269.703 93.4457 270.259 92.8323 270.933 92.454C271.004 92.454 271.147 92.4029 271.019 92.5409C271.856 91.7998 273.825 90.9053 274.789 90.0261C274.847 90.011 274.909 90.011 274.967 90.0261C274.723 90.0261 274.621 89.8984 274.61 89.791C275.146 89.4741 275.523 89.0601 275.814 89.101C275.632 89.1947 275.478 89.3337 275.365 89.5048L275.875 89.1112C276.513 89.0448 275.151 89.6223 275.243 89.8012C276.243 89.0616 277.283 88.379 278.359 87.7567C278.66 87.8742 276.431 88.9681 277.666 88.5132L276.314 89.1879C277.513 88.9579 275.508 89.6223 276.64 89.4639C278.39 88.5336 278.492 88.2372 280.242 87.312C280.558 86.9644 280.012 87.2047 280.328 86.8571C280.965 86.3417 281.712 85.9813 282.511 85.8041C282.755 85.7625 282.992 85.6939 283.22 85.5997L283.323 85.5588L283.374 85.5332L283.46 85.4821C283.593 85.4106 283.725 85.3288 283.873 85.2419C284.164 85.063 284.491 84.8483 284.832 84.5979C285.251 84.2247 285.261 84.01 285.853 83.5756C285.38 83.337 284.926 83.0618 284.496 82.7526C284.827 82.8344 285.2 82.9367 285.603 83.0644C284.856 82.5839 284.059 82.1879 283.226 81.8837C282.711 81.7386 282.233 81.4821 281.828 81.1323C282.195 81.2141 283.185 81.807 282.95 81.6435C281.93 80.795 282.068 81.3266 281.201 80.8257L281.15 80.4985C279.359 79.512 277.319 78.5409 275.335 77.4317C275.483 77.4317 275.845 77.5544 275.437 77.2221C272.886 75.9034 270.173 74.1553 267.867 72.6219L266.847 72.2845C266.638 72.1619 266.505 71.9727 266.755 72.0647C265.868 71.4565 266.638 72.1619 266.148 71.9779C265.638 71.6814 265.516 71.4667 265.883 71.5996C264.149 70.8125 261.007 69.2433 259.4 68.0216L259.767 68.1597C258.466 67.3009 258.023 67.6485 256.88 66.7694L257.14 66.8767C254.263 65.103 250.938 63.4112 248.877 61.8318C248.29 61.8624 246.056 60.0377 245.648 60.2983C244.59 59.4243 243.483 58.612 242.333 57.8653C241.715 57.482 241.256 57.5638 240.461 57.1549L240.557 56.9453L239.379 56.5466L238.992 56.015L238.232 55.647C238.517 55.8259 238.798 56.0917 238.742 56.1275C237.553 55.5601 236.053 54.3845 236.084 54.2669L233.299 52.8766C233.632 52.9437 233.953 53.059 234.253 53.2191C232.723 52.5955 234.115 52.8562 232.692 52.2837C232.845 52.4319 232.529 52.3501 232.478 52.3706C231.463 51.6305 230.388 50.9773 229.264 50.418H229.555C227.586 49.2322 225.316 48.0566 223.082 46.7583C223.847 47.2694 223.521 47.4177 222.853 47.065L222.715 46.697C222.205 46.5845 223.353 47.1774 222.388 46.835C221.567 46.3238 221.965 46.2676 222.485 46.4772L221.43 45.966C221.404 45.8689 221.664 45.966 221.771 45.9303C221.261 45.8178 220.139 44.6984 219.404 44.5809V44.4837C217.17 43.1906 216.114 42.6743 214.304 41.6316C214.166 41.7951 213.477 41.3402 212.85 41.1767C211.544 40.3435 210.141 39.3366 208.514 38.4216C207.331 37.8543 208.096 38.3859 207.525 38.1967C207.525 37.9821 205.918 37.0671 206.821 37.43C204.867 36.3362 204.327 36.0346 201.802 34.7517C202.026 34.9715 202.312 35.1759 202.123 35.1452C201.664 34.9152 201.154 34.4859 201.261 34.445L201.388 34.4961C198.496 33.1569 195.324 30.3405 192.936 29.4205L193.069 29.4716L190.692 28.342C189.672 27.7082 191.391 28.5771 190.692 28.0302C189.599 27.5434 188.542 26.9779 187.53 26.3383C186.593 25.7727 185.618 25.274 184.612 24.8458C184.122 24.464 183.586 24.1462 183.015 23.9002C182.679 23.7418 182.317 23.5833 181.939 23.4248C181.562 23.2664 181.143 23.1642 180.735 23.0313C179.108 22.4588 177.359 22.0959 176.201 21.595L176.308 21.7636C175.89 21.708 175.484 21.58 175.109 21.3854C175.155 21.503 175.767 21.641 175.359 21.6359C169.957 20.6238 164.214 19.8111 158.629 20.1485C158.058 20.1492 157.498 20.2971 157.001 20.5778C156.358 20.8524 155.659 20.9698 154.961 20.9203L155.66 20.5829C151.64 21.3854 147.366 22.1163 143.699 23.844C143.852 23.6825 144.038 23.5553 144.244 23.4708C143.392 23.6446 141.322 24.6925 141.388 24.8509C140.822 25.1269 141.199 24.7998 140.822 24.9123C140.011 25.2241 139.001 26.1083 138.542 26.1799C138.46 26.1799 138.715 26.0112 138.843 25.9243C138.409 26.2719 136.634 27.1766 137.185 27.0948C135.854 27.7491 134.777 28.5925 133.696 29.078C133.145 29.6658 131.446 30.2537 131.395 30.6626C131.319 30.315 129.013 31.7257 128.279 32.3289C128.498 32.0835 127.524 32.6458 127.769 32.3289C126.846 32.8707 126.029 33.4125 126.279 33.4738C124.372 34.1076 123.015 35.7382 121.796 35.8404C119.138 37.5885 116.654 39.1679 114.221 40.6706C114.145 40.3231 116.94 39.0606 116.654 38.8101C114.379 40.2873 113.17 41.3249 110.804 42.5976C110.176 42.9094 111.074 42.2756 111.247 42.0865C108.972 43.5637 106.703 44.6831 104.708 46.0478C104.708 46.0171 104.907 45.8587 105.106 45.7105C104.698 45.9609 104.127 46.2216 104.249 46.3289L104.626 46.058C105.397 45.874 103.229 47.4074 103.214 47.5506C103.693 46.7685 101.097 48.6495 101.928 47.5506C101.673 47.7295 101.367 47.9901 101.484 48.0617C101.066 48.2662 100.908 48.2866 101.26 47.9493C99.8266 48.8744 100.434 48.716 99.0972 49.4827C99.0666 49.4162 99.3166 49.2322 99.4135 49.0789C98.7007 49.7258 97.9047 50.2741 97.0467 50.7094C97.0926 50.6327 96.9294 50.6583 97.266 50.4641C95.343 51.6039 94.1648 52.7079 91.9663 53.8171C92.4356 53.1731 91.191 54.1391 90.9462 53.9653L89.8444 54.6963L90.3545 54.548C89.3343 55.1256 88.5743 55.8106 87.6664 56.2297L88.3499 55.7185L86.5034 56.8533L87.6204 56.3421C86.6768 57.0577 87.9061 56.5875 86.534 57.2929C86.789 57.1088 85.5138 57.8653 84.9272 58.0238C84.4144 58.4647 83.8469 58.8375 83.2389 59.133C82.9991 59.1636 83.2389 58.77 83.0858 58.7956C82.7135 59.2761 80.7752 60.2063 80.2804 60.7788C80.4589 60.6101 80.3926 60.4772 80.311 60.4875L79.9948 60.8913C79.4847 61.1059 79.4184 61.1213 79.4388 60.973C78.0259 61.75 80.056 61.0242 78.3268 61.8522C78.4208 61.7582 78.5213 61.6711 78.6277 61.5915C76.9292 62.4809 75.4806 63.5543 73.9044 64.3568C73.3127 64.3568 75.2051 63.5236 74.5726 63.6156C73.5525 64.229 72.5323 64.8986 71.5121 65.5631L70.747 66.0742L69.8901 66.616C69.2117 67.0351 68.569 67.4185 67.9059 67.7967L68.518 68.1648L68.0538 67.8581C68.585 67.9754 69.0759 68.231 69.4769 68.5992L69.9105 68.9161L70.3849 69.2433C70.6477 69.4271 70.9299 69.5814 71.2265 69.7033C70.946 69.5755 70.7725 69.7033 70.8643 69.7033C72.2926 70.6029 73.8942 71.344 76.1692 72.5145L75.8427 72.443C76.6588 73.0206 78.082 73.8026 78.9848 74.3802C79.3113 74.4466 79.8366 74.7687 79.5867 74.4569C82.1371 76.6139 85.1976 77.3448 87.5031 79.236C87.1971 79.0571 86.7329 78.8936 86.993 79.0316L89.2068 80.2021C89.1201 79.9516 88.9773 79.9465 88.5896 79.5683C89.1253 79.725 89.6393 79.9483 90.1198 80.2327C89.0997 79.7676 89.9872 80.4781 90.3596 80.8052C90.3188 80.7183 90.4922 80.749 90.482 80.6825C91.4562 81.6026 90.8441 80.4883 92.2877 81.5617L92.1601 81.5975C92.7769 81.8551 93.3781 82.1487 93.9607 82.4766C94.1189 82.7986 93.2976 82.2006 93.1752 82.3233C94.0576 82.8344 95.0931 82.9878 95.7868 83.6216C95.3838 83.4529 94.8534 83.1462 94.4504 82.9775C94.897 83.416 95.4016 83.7909 95.95 84.0918L95.8888 84.0509L97.317 85.0017L96.9702 84.7256C98.327 84.9045 99.2451 85.9319 100.893 86.4891C99.2962 85.9421 100.561 86.5146 100.342 86.6475C100.684 86.9235 101.219 87.312 101.025 87.2762C101.816 87.5216 102.117 88.0736 103.234 88.4109C103.234 88.4978 103.979 88.8454 103.744 88.9221C104.677 89.3974 103.591 88.687 103.713 88.6512C105.244 89.2441 106.845 90.8133 109.028 91.6771C110.829 92.5614 111.273 92.5307 112.946 93.3536C113.456 93.7677 112.364 93.3281 112.364 93.3281C113.101 93.8651 113.89 94.3241 114.721 94.6979C114.522 94.657 114.67 94.8002 114.879 95.02C115.552 95.3829 115.455 95.0455 116.277 95.6435C116.002 95.6366 115.729 95.5936 115.466 95.5158C116.282 95.9093 117.118 96.2365 117.96 96.6454C118.113 96.8805 117.378 96.5278 117.052 96.4358C117.985 96.9112 119.46 97.6983 119.842 97.683L119.296 97.2843C119.628 97.4683 119.378 97.5348 119.118 97.4274C118.261 97.1105 118.026 96.7169 118.021 96.6249L118.618 96.9163C118.246 96.2058 116.277 95.6435 115.129 94.9484H115.767L114.451 94.4884C114.241 94.2686 114.155 94.0181 114.746 94.3095C113.997 93.6961 113.961 93.9823 113.334 93.4201C113.267 93.3485 113.308 93.3588 113.39 93.3894L112.533 93.001C112.721 93.0367 112.533 92.7301 112.982 93.0572C111.615 92.0349 110.518 91.902 110.089 91.3807L110.217 91.4369C108.146 90.3584 109.911 91.5187 108.258 90.8746L107.524 89.7961L107.207 89.883C107.003 89.7552 106.6 89.4997 106.723 89.4639C105.871 89.1521 106.805 89.6275 106.279 89.4946C105.381 88.733 103.469 87.9611 103.423 87.5318C102.979 87.4756 104.315 88.2065 103.183 87.6902C103.076 87.1791 101.913 87.0309 101.087 86.3459C101.469 86.3459 102.285 86.9286 101.459 86.2386C100.735 86.2386 99.7093 85.1448 98.9085 84.7512C98.7402 84.971 97.1742 83.8771 95.848 83.2178C95.9755 83.1871 93.4813 81.6844 92.3234 80.8921H92.3846C92.0122 80.9994 90.7931 80.2327 89.8342 79.7574C89.9515 79.6347 90.1453 79.6756 90.6758 79.8954L89.8189 79.3842C89.4302 79.2962 89.0582 79.1461 88.7171 78.9396L89.0334 78.8884C87.8959 78.2393 86.6309 77.7742 85.2435 76.8132C85.0649 76.9308 86.1361 77.9479 84.5294 77.1659C84.5294 77.0432 84.5294 76.8592 84.9782 77.0535C84.7117 76.9518 84.4568 76.8215 84.2182 76.665L84.9221 76.8694C84.2998 76.4145 84.5039 76.7928 83.9785 76.4708C84.0652 76.3481 83.6418 76.1539 83.7744 76.0976C83.9865 76.2432 84.21 76.3714 84.4427 76.481C83.9063 76.1397 83.413 75.7346 82.9736 75.2747C82.9736 75.3769 82.8767 75.4485 82.4278 75.2134C81.2904 74.5642 82.1269 74.8351 81.5046 74.3853C81.1781 74.3138 80.4844 73.8026 80.3824 73.9866C80.195 73.8858 80.0422 73.7309 79.9438 73.5419C79.3062 73.2864 77.1842 71.9779 77.73 72.5657L77.8728 72.6679L77.7708 72.6219C75.7305 71.6967 73.8381 70.1991 71.8845 69.1768L71.9253 69.1155C71.6652 68.9877 71.4152 68.8446 71.1194 68.6963L70.4053 68.3181C70.0023 68.1034 69.5993 67.8939 69.1658 67.7047C69.2309 67.6567 69.2923 67.6037 69.3494 67.5463C69.5106 67.4553 69.6818 67.3833 69.8595 67.3316C70.0278 67.2856 70.1451 67.2805 70.1451 67.3316L70.4716 67.0914C70.5787 67.0147 70.6348 66.9687 70.7929 66.8716C71.2085 66.6182 71.6395 66.3912 72.0834 66.1918C71.2724 66.8102 72.4405 66.1151 71.2316 66.7949C72.1598 66.4021 73.0313 65.8863 73.8228 65.2615C73.5066 65.6653 74.7971 64.9753 75.3071 64.6175L74.4451 64.9548C75.0368 64.5817 75.5724 64.2903 76.1182 63.9939L75.9498 64.3772C78.4186 63.3038 79.8672 61.5149 81.8872 60.9373C82.3972 60.4261 80.566 61.5557 81.0149 61.0651C82.0963 60.4772 83.3817 60.145 83.7183 59.9508C85.2486 59.2301 84.8966 58.8467 86.4677 58.0493C86.2279 58.0851 85.927 57.9829 87.0236 57.252C88.1101 56.6642 88.5233 56.8175 87.8857 57.252C87.6357 57.4053 87.498 57.4564 87.4929 57.4206C87.1614 57.6507 86.7329 57.9318 87.2022 57.7835L87.294 57.6251C87.8704 57.4002 89.3343 56.5415 89.0589 56.8686C89.824 56.3268 89.3292 56.5415 88.712 56.8686C90.1402 56.1888 90.8492 55.6368 92.2826 54.8956C92.0377 54.9825 91.7725 55.0132 92.002 54.8956C94.1189 53.7967 92.8233 54.2209 94.2056 53.3622C95.0676 53.0197 94.078 53.8069 95.4298 52.8971C96.3377 52.4779 95.7307 52.9942 95.4298 53.2549C96.4407 52.5918 97.5135 52.0286 98.6331 51.5732L97.9904 52.023C98.3729 51.7521 98.7045 51.563 99.0411 51.3688L98.5667 51.4352C98.9799 51.2359 99.3166 51.0416 99.3472 51.1081C99.6991 50.7707 98.8881 51.0365 99.6175 50.4283C100.189 50.1983 101.178 49.406 101.479 49.5082C99.7756 50.4027 101.78 49.6105 100.393 50.4589C100.718 50.2404 101.059 50.0473 101.413 49.8814C101.484 49.8814 101.377 49.958 101.28 50.0296C102.974 49.2935 101.877 49.3753 103.53 48.4246C103.387 48.6648 104.04 48.4246 104.29 48.2457C103.627 48.6291 103.861 48.2457 104.422 47.7959C105.008 47.5066 105.567 47.1644 106.09 46.7736L105.438 47.0957C105.862 46.7133 106.338 46.3916 106.85 46.1398C106.968 46.1909 106.218 46.5896 106.504 46.4772C107.207 45.7974 108.472 45.6185 109.564 44.8211C110.135 44.5911 109.737 45.0051 110.232 44.7904C111.426 43.901 111.711 44.1464 112.982 43.257C112.507 43.3235 112.471 43.4001 113.318 42.705L111.171 44.0902L112.461 43.0423C111.793 43.4308 111.11 43.9573 110.696 44.1617C111.298 43.6506 111.252 43.7221 110.86 43.7784C111.905 43.4819 112.589 42.5976 113.736 42.1427L113.925 42.5465C115.608 41.8003 116.629 40.7166 118.745 39.6228L118.042 39.9397C118.23 39.6279 119.301 39.1832 119.934 38.7334C119.934 38.897 120.388 38.7028 120.719 38.621C120.633 38.5443 122.25 37.7572 122.25 37.3891L123.27 37.0262C124.974 36.1368 124.958 35.5644 126.58 34.6852C126.177 35.0992 126.958 34.7721 125.943 35.4928C126.453 35.1861 126.963 34.9306 126.932 34.8334C127.289 34.7363 128.309 33.8112 128.871 33.6425C129.075 33.3477 129.348 33.1074 129.666 32.9422C129.748 32.9422 129.702 33.0087 129.702 33.0087C129.702 33.0087 130.59 32.38 129.983 32.5435C131.86 31.9915 134.573 29.855 136.19 29.3694C137.333 28.6538 138.71 27.79 139.761 27.1868C139.715 27.2635 139.791 27.2533 139.582 27.3453C141.112 26.6961 140.286 26.4917 142.051 25.7556C142.561 25.6739 142.326 25.8016 142.051 25.9294C141.776 26.0572 141.49 26.2361 141.776 26.1339C141.99 26.2821 142.5 26.0368 143.127 25.7352C143.749 25.3545 144.428 25.075 145.137 24.9071L144.851 25.0349C145.422 24.9041 145.975 24.705 146.499 24.442L147.473 24.0127C147.832 23.8752 148.2 23.7625 148.575 23.6753C148.575 23.6753 148.509 23.7366 148.575 23.7469C149.233 23.423 149.915 23.1496 150.615 22.929C151.431 22.7041 152.309 22.4895 153.058 22.3003C152.625 22.5815 152.39 22.5406 152.712 22.6735C153.385 22.515 152.452 22.3872 153.803 22.0959C154.267 22.1368 155.267 22.0959 155.425 22.2748L154.145 22.4639C154.839 22.6377 155.798 22.2237 156.481 22.1726L156.41 22.3003C157.079 22.2178 157.743 22.0983 158.399 21.9425C158.654 21.8812 158.909 21.825 159.246 21.7688L159.802 21.6921H160.516L160.302 21.6052C161.459 21.2832 161.286 21.7432 162.449 21.4927L162.801 21.779C163.189 21.733 163.862 21.6972 164.617 21.641C165.375 21.5762 166.136 21.5541 166.897 21.5745C166.656 21.6179 166.412 21.6486 166.168 21.6665C165.887 21.7023 165.576 21.733 165.265 21.7585L163.479 21.9068C164.478 21.9567 165.479 21.9328 166.474 21.8352C166.134 21.8617 165.793 21.8617 165.453 21.8352C165.704 21.7798 165.958 21.7371 166.213 21.7074C166.489 21.7074 166.78 21.6716 167.091 21.6716C167.782 21.6652 168.473 21.6942 169.162 21.7585C168.83 22.2697 173.089 22.4077 174.069 23.1437C175.405 23.3207 176.721 23.6306 177.996 24.0689C178.659 24.2682 179.302 24.58 179.98 24.7947L181.001 25.1729L182.051 25.6176C181.21 24.7691 182.888 25.9601 182.893 25.4592C183.236 25.565 183.566 25.709 183.877 25.8885L185.704 27.1459C186.096 27.5037 185.046 26.921 185.056 27.0386C186.433 27.8104 185.566 27.4935 186.407 28.1222C186.3 27.8717 187.009 28.1989 187.774 28.7151L186.754 27.882C188.83 28.802 188.249 29.1905 190.325 30.1208L189.631 29.8856C190.687 30.3968 193.355 32.0426 194.528 32.2982C194.681 32.4464 194.854 32.6918 194.395 32.4618C196.777 33.9083 199.96 35.2321 201.725 36.5151H201.485C201.982 36.6756 202.451 36.91 202.878 37.2102C202.827 37.2102 202.643 37.2102 202.847 37.3278C203.495 37.5733 204.117 37.8832 204.704 38.253L204.133 38.0638C206.413 39.5564 207.897 39.8886 209.912 40.962C209.738 41.2482 211.539 42.4136 212.462 43.0065H212.406C215.125 44.6269 217.201 45.46 219.802 46.8145C221.2 48.0361 225.061 50.0347 227.494 51.6703C227.137 51.3994 227.688 51.4863 228.152 51.7163C228.713 52.1201 229.912 52.4677 229.683 52.6773L229.473 52.5495C229.774 53.0606 231.034 53.7047 231.983 54.2618L232.34 54.0114C234.549 55.9537 238.971 57.5893 240.083 58.8416C240.736 59.1023 241.481 59.5368 242.123 59.7974L241.981 59.961C243.623 60.9833 244.444 61.4944 246.531 62.6291L246.02 62.5167C247.178 63.2016 247.796 62.8336 248.877 63.4418L249.04 63.907C251.08 65.0724 252.983 66.5036 255.13 67.4134C255.074 67.4134 254.972 67.4798 254.62 67.3009C255.569 67.8581 258.191 69.6215 258.079 69.0439C257.956 69.3046 260.155 70.2809 261.313 70.8073L261.037 70.8891C261.898 71.0765 262.725 71.3936 263.491 71.8296C263.781 72.029 263.674 72.1261 263.297 71.8296C264.261 72.5145 264.189 72.121 265.368 72.9286L264.858 72.7803C265.353 73.1263 265.914 73.368 266.505 73.4908C267.209 73.7975 268.469 74.6869 268.546 74.9425C269.067 75.0112 269.562 75.2117 269.984 75.5252C270.035 75.6376 269.785 75.5252 269.663 75.4996C271.346 76.6343 272.392 76.7979 273.498 77.6719C273.498 77.7486 273.549 77.8202 273.636 77.8968C272.249 77.0892 271.132 76.4299 271.244 76.4759C271.147 76.6445 272.264 77.3244 271.244 77.0381C272.538 77.4966 273.786 78.075 274.973 78.7658C275.017 78.8072 275.055 78.8555 275.085 78.9089L274.962 78.8629C275.185 79.0109 275.423 79.1359 275.671 79.236C276.003 79.466 276.212 79.6143 276.549 79.8136C276.6 80.0232 277.798 80.6314 278.354 80.9637C278.41 80.7541 279.13 81.209 278.528 80.6621C278.609 80.7234 278.41 80.6212 278.018 80.4116C277.931 80.3707 277.829 80.3145 277.768 80.2941H277.814L276.411 79.4967C276.984 79.6607 277.519 79.9388 277.982 80.3145C278.334 80.3605 278.722 80.4219 278.936 80.473C279.553 81.1681 280.976 82.1648 281.073 82.4408L282.562 83.2127L283.307 83.55C283.19 83.6506 283.08 83.7582 282.976 83.872L282.807 84.0714C282.742 84.1597 282.67 84.2434 282.593 84.3218C282.357 84.5056 282.066 84.6046 281.767 84.603C282.015 84.4456 282.256 84.275 282.486 84.0918C281.563 84.7461 279.619 85.799 279.528 86.1722C278.237 86.7753 280.089 85.5537 278.426 86.5657L278.609 86.3613C275.069 87.8947 273.57 90.0977 269.601 91.7333C269.759 91.6452 269.932 91.5879 270.111 91.5647C265.791 93.7779 261.583 96.7732 257.247 98.8228C256.537 99.1659 255.892 99.6293 255.34 100.193L254.972 100.142L253.876 101.082C252.228 102.253 250.581 102.345 248.556 103.934L248.918 103.898C248.112 104.333 246.454 105.432 246.5 105.202C246.378 105.387 246.199 105.527 245.99 105.601L245.908 105.509L244.062 106.812C242.531 107.609 244.062 106.265 241.853 107.517C241.057 108.028 239.695 109.168 240.042 109.051C240.389 108.933 240.925 108.626 241.006 108.718L240.292 109.204C240.328 109.582 239.935 110.226 241.889 109.378L243.062 108.453L243.572 108.361L242.501 108.994C243.031 108.812 243.509 108.503 243.893 108.095C244.112 108.099 244.328 108.048 244.521 107.947L245.612 106.924C245.832 106.955 245.184 107.487 246.061 107.067C246.571 106.592 245.347 107.124 246.27 106.475C246.959 106.26 246.847 106.475 247.495 105.938C247.642 105.938 247.52 106.096 247.255 106.296C247.841 105.831 248.923 105.273 249.163 104.926C249.897 104.726 251.295 103.633 251.397 103.955C251.882 103.496 252.41 103.086 252.973 102.728C252.101 103.694 255.187 101.476 255.115 102.007C255.727 101.241 257.9 100.213 259.196 99.2266C259.107 99.337 258.995 99.4275 258.869 99.4924C259.398 99.2208 259.943 98.9835 260.502 98.7819C260.461 98.4701 261.659 97.6983 262.231 97.1565C263.343 96.8396 261.818 97.7954 262.256 97.8568C262.088 97.6779 263.822 96.676 263.394 96.6914C264.225 96.4154 264.077 96.3949 264.582 96.3847C264.526 95.9911 265.24 95.9349 265.745 95.3624C266.908 94.8973 266.194 95.5004 267.316 94.7184C267.898 94.5242 266.913 95.2449 266.913 95.2449ZM275.314 77.4828L275.896 77.8099L275.314 77.4828ZM272.958 76.1181C273.238 76.2919 273.595 76.5014 273.978 76.7212C274.024 76.8286 273.901 76.8439 273.662 76.7212C273.81 76.7365 273.279 76.3788 272.958 76.1181V76.1181ZM277.212 80.2736C276.824 80.0845 276.702 79.9772 276.702 79.9107L277.365 80.2634H277.426C277.356 80.2843 277.283 80.2878 277.212 80.2736V80.2736Z" fill="#3C2829"/>
<path d="M278.023 80.4215C278.079 80.4436 278.133 80.4691 278.186 80.4979C278.121 80.4368 278.055 80.3808 277.987 80.3298H277.819L278.023 80.4215Z" fill="#3C2829"/>
<path d="M77.7302 72.5861L77.6841 72.5554C77.7181 72.579 77.7476 72.6085 77.7712 72.6424L77.7302 72.5861Z" fill="#3C2829"/>
<path d="M240.593 56.9299L240.573 56.9809L240.802 57.0573L240.593 56.9299Z" fill="#3C2829"/>
<path d="M90.3545 80.7285C90.3928 80.7863 90.4433 80.835 90.5024 80.8711C90.4583 80.8185 90.4087 80.7707 90.3545 80.7285V80.7285Z" fill="#3C2829"/>
<path d="M95.9449 84.0151L96.6999 84.5263C96.3785 84.3014 96.1388 84.1429 95.9449 84.0151Z" fill="#3C2829"/>
<path d="M100.204 86.6014C100.25 86.6036 100.296 86.593 100.337 86.5708V86.5708L100.204 86.6014Z" fill="#3C2829"/>
<path d="M105.106 45.7301L105.264 45.6282C105.636 45.3685 105.381 45.5314 105.106 45.7301Z" fill="#3C2829"/>
<path d="M84.9477 57.9676C85.1416 57.8091 85.3354 57.6507 85.5496 57.5024C85.1773 57.6967 84.8916 57.8551 84.9477 57.9676Z" fill="#3C2829"/>
<path d="M127.794 32.3388L127.937 32.2573L127.794 32.3388Z" fill="#3C2829"/>
<path d="M86.4779 56.9556C86.1435 57.1073 85.8241 57.2905 85.524 57.5025C85.852 57.3382 86.1704 57.1556 86.4779 56.9556V56.9556Z" fill="#3C2829"/>
<path d="M118.853 97.499L119.057 97.6264C119.057 97.6264 119.057 97.6264 119.097 97.6264L118.853 97.499Z" fill="#3C2829"/>
<path d="M119.123 97.6165L119.368 97.7234C119.295 97.6706 119.211 97.6341 119.123 97.6165V97.6165Z" fill="#3C2829"/>
<path d="M119.852 97.9582L119.342 97.7239C119.496 97.8336 119.669 97.9131 119.852 97.9582V97.9582Z" fill="#3C2829"/>
<path d="M113.191 94.1152H113.089C113.105 94.1229 113.122 94.1269 113.14 94.1269C113.158 94.1269 113.175 94.1229 113.191 94.1152V94.1152Z" fill="#3C2829"/>
<path d="M111.472 93.1287C111.968 93.5026 112.487 93.8441 113.027 94.1509H113.114C112.757 94.0845 111.9 93.2462 111.472 93.1287Z" fill="#3C2829"/>
<path d="M104.672 88.1196L106.096 89.0141C105.886 88.7943 105.586 88.503 106.274 88.871C104.565 87.5983 106.565 89.2492 104.672 88.1196Z" fill="#3C2829"/>
<path d="M100.25 85.4055C101.051 85.8246 100.301 85.2982 100.362 85.2828C99.8061 85.063 99.6786 84.9864 100.25 85.4055Z" fill="#3C2829"/>
<path d="M70.4563 67.2703C70.4982 67.3215 70.5443 67.3692 70.594 67.4129C70.8491 67.2346 70.5379 67.3568 70.4563 67.2703Z" fill="#3C2829"/>
<path d="M75.9805 62.9255L75.3378 63.1607L75.1439 63.4776L75.9805 62.9255Z" fill="#3C2829"/>
<path d="M80.3466 61.9852L80.0967 62.1589L81.0658 61.52L80.3466 61.9852Z" fill="#3C2829"/>
<path d="M135.037 30.2638L134.736 30.1616C134.349 30.4376 134.395 30.7136 135.037 30.2638Z" fill="#3C2829"/>
<path d="M160.286 21.8096C160.787 21.9418 161.311 21.954 161.817 21.8452C161.205 21.8452 160.598 21.7688 160.286 21.8096Z" fill="#3C2829"/>
<path d="M233.381 54.9518L232.865 54.7422L233.794 55.2022L233.381 54.9518Z" fill="#3C2829"/>
</svg>
