<svg xmlns="http://www.w3.org/2000/svg" width="324" height="280" fill="none"  xmlns:v="https://vecta.io/nano"><style><![CDATA[.B{stroke:#3c2829}.C{fill:#3c2829}]]></style><path d="M74.766 142.901l-58.843 33.951 99.051 57.151 76.767-44.287-78.356-45.214c-11.433-6.593-28.72-7.31-38.619-1.601z" fill="#aba9a0"/><path d="M190.902 189.713l-75.767 43.71-98.051-56.568 58.092-33.517c4.842-2.793 11.537-4.034 18.464-3.747s14.02 2.098 19.656 5.347l77.606 44.775z" class="B"/><path d="M74.766 136.164l-58.843 33.95 99.051 57.152 76.767-44.288-78.356-45.214c-11.433-6.593-28.72-7.309-38.619-1.6z" fill="#d3d2ce"/><path d="M74.822 136.263l-14.666 8.563-14.592 8.699-21.851 13.099-7.314 4.325v-1.656l24.806 14.266 24.596 14.575 12.286 7.309 12.366 7.223 6.183 3.583 6.183 3.547 12.409 7.099h-.445l38.143-22.564 19.111-11.202 19.168-11.164v2.008l-28.306-16.28-14.11-8.212-14.066-8.285-14.054-8.39-6.993-4.208a40.61 40.61 0 0 0-7.271-3.454c-2.554-.881-5.176-1.55-7.84-2.002-2.673-.434-5.379-.641-8.087-.617s-5.398.328-8.038.914c-2.664.562-5.231 1.514-7.617 2.824h0zm-.111-.198a27.98 27.98 0 0 1 7.642-2.898 42.13 42.13 0 0 1 8.118-1.05c2.735-.071 5.472.065 8.186.408a51.1 51.1 0 0 1 8.038 1.767c2.624.847 5.159 1.95 7.568 3.293l7.147 3.954 14.271 7.927 14.22 8.032 14.172 8.106 28.262 16.348 1.737 1.02-1.737.988-19.248 10.986-19.266 10.942-38.841 21.853-.204-.123-12.36-7.149-6.183-3.596-6.183-3.559-12.428-7.062-37.407-20.976L14 170.096l8.86-4.974 22.259-12.363 14.839-8.279 14.753-8.415z" class="C"/><path d="M74.927 128.441l-58.843 33.95 99.051 57.145 76.768-44.293-78.357-45.202c-11.432-6.574-28.719-7.309-38.618-1.6zm117.548-67.92l-58.843 33.951 99.051 57.145 76.768-44.293-78.357-45.202c-11.432-6.574-28.72-7.309-38.619-1.6z" fill="#d5edf4"/><path d="M74.983 128.539l-14.666 8.558-14.592 8.699-21.832 13.098-7.314 4.325v-1.662l24.775 14.279 36.881 21.878 12.366 7.222 6.183 3.59 6.183 3.547 12.409 7.092h-.427l38.143-22.563L172.21 185.4l19.167-11.158v2.008l-28.368-16.281-14.109-8.211-14.066-8.291-20.998-12.586c-2.304-1.387-4.74-2.544-7.271-3.454-2.561-.88-5.189-1.554-7.858-2.014a47.93 47.93 0 0 0-8.087-.618 38.53 38.53 0 0 0-8.038.908c-2.659.566-5.22 1.522-7.599 2.836h0zm-.111-.197c2.39-1.338 4.966-2.314 7.642-2.898 2.666-.611 5.385-.96 8.118-1.044a54.1 54.1 0 0 1 8.186.408 50.45 50.45 0 0 1 8.038 1.773 41.76 41.76 0 0 1 7.568 3.293l7.159 3.948 14.221 7.927 14.221 8.032 14.221 8.106 30 17.368-1.738.995-19.247 10.985-19.266 10.942-38.842 21.847-.21-.123-18.549-10.788-6.183-3.553-12.428-7.068-12.465-6.981-24.93-13.995-24.732-14.297-1.496-.828 1.441-.815 7.42-4.165 22.259-12.363 14.839-8.273 14.753-8.433z" class="C"/><path d="M114.25 142.456l3.452 1.993-55.951 32.274-3.45-1.987 55.95-32.28z" class="B"/><path d="M77.808 153.711l-28.479 16.428-4.452-2.57L73.35 151.14l4.458 2.571z" class="C"/><path d="M112.086 153.979l3.457 1.993-44.882 25.891-3.452-1.993 44.877-25.891zm19.977-1.248l3.452 1.993-55.951 32.28-3.451-1.993 55.95-32.28zm-2.163 11.523l3.457 1.993-44.883 25.897-3.452-1.993 44.878-25.897zm8.909 5.14l3.452 1.993-44.884 25.892-3.452-1.993 44.883-25.892zm-2.64 11.801l3.452 1.993-33.334 19.231-3.452-1.993 33.334-19.231z" class="B"/><path d="M192.762 60.588l-14.666 8.557-14.592 8.699-21.851 13.098-7.308 4.325v-1.662l24.769 14.279 36.881 21.878 12.335 7.222 6.183 3.59 6.183 3.547 12.416 7.092h-.427l38.143-22.563 19.111-11.202 19.168-11.158v2.008l-28.312-16.281-14.11-8.211-14.066-8.292-14.011-8.39-6.968-4.208c-2.304-1.387-4.74-2.544-7.271-3.454-2.554-.875-5.173-1.544-7.834-2.002-2.675-.434-5.383-.641-8.093-.618-2.704.02-5.398.324-8.038.908a27.55 27.55 0 0 0-7.642 2.836h0zm-.111-.198a27.77 27.77 0 0 1 7.642-2.898 42.26 42.26 0 0 1 8.118-1.044 54.16 54.16 0 0 1 8.186.408c2.723.372 5.411.965 8.038 1.773a41.89 41.89 0 0 1 7.562 3.293l7.147 3.948 14.27 7.927 14.221 8.032 14.172 8.106 29.999 17.368-1.737.995-38.545 21.927-38.816 21.847-.204-.123-18.549-10.788-6.183-3.553-12.428-7.068-37.407-20.976-24.732-14.297-1.465-.84 1.447-.816 7.419-4.164 22.259-12.363 14.839-8.273 14.747-8.421z" class="C"/><path d="M232.03 74.505l3.451 1.993-55.945 32.28-3.457-1.993 55.951-32.28z" class="B"/><path d="M195.587 85.76l-28.478 16.428-4.452-2.57 28.479-16.429 4.451 2.57z" class="C"/><path d="M229.872 86.028l3.451 1.993-44.883 25.891-3.452-1.992 44.884-25.892zm19.971-1.248l3.451 1.993-55.951 32.28-3.451-1.993 55.951-32.28zm-2.158 11.523l3.451 1.993-44.883 25.891-3.451-1.987 44.883-25.897zm8.903 5.14l3.452 1.993-44.883 25.892-3.452-1.993 44.883-25.892zm-2.64 11.801l3.452 1.993-33.334 19.231-3.451-1.993 33.333-19.231z" class="B"/><path d="M174.893 125.345l-12.014 6.926-12.007-6.926-4.452 2.564 12.008 6.933-12.008 6.932 4.452 2.564 12.007-6.926 12.014 6.926 4.452-2.57-12.008-6.926 12.008-6.933-4.452-2.564z" fill="#877672"/><path d="M174.893 118.11l-12.014 6.926-12.007-6.926-4.452 2.57 12.008 6.926-12.008 6.933 4.452 2.564 12.007-6.926 12.014 6.926 4.452-2.57-12.008-6.927 12.008-6.932-4.452-2.564z" fill="#fff" stroke-width="1.17" stroke-miterlimit="10" class="B"/><path d="M192.725 48.942l-14.697 8.52-44.017 25.659v-.513l12.397 7.118 61.83 35.885 24.781 14.26h-.161l38.334-22.243 38.335-22.199v.618l-28.306-16.336-14.146-8.143-28.213-16.453c-4.743-2.657-9.275-5.808-14.419-7.507-5.157-1.749-10.581-2.586-16.026-2.471-2.72.049-5.428.377-8.081.976-2.662.567-5.226 1.52-7.611 2.83h0zm-.038-.062a27.84 27.84 0 0 1 7.624-2.873c2.658-.613 5.372-.95 8.1-1.007s5.453.104 8.155.476a50.93 50.93 0 0 1 7.964 1.854 41.7 41.7 0 0 1 7.462 3.355l7.068 4.053 14.22 8.094 14.159 8.119 42.922 24.788-.513.29-76.934 44.17-.081-.049-24.731-14.31-62.016-35.557-12.811-7.42.446-.253 44.239-25.252 14.727-8.477zM74.946 117.048l-14.697 8.513-44.016 25.66v-.507l12.366 7.118 61.83 35.884 24.781 14.26h-.161l38.335-22.242 38.334-22.2v.587l-28.275-16.311-14.146-8.149-28.213-16.441c-4.743-2.657-9.275-5.808-14.425-7.513a50.83 50.83 0 0 0-7.902-1.922 50.23 50.23 0 0 0-8.118-.531 39.95 39.95 0 0 0-8.081.945 27.68 27.68 0 0 0-7.611 2.849h0zm-.037-.062a27.79 27.79 0 0 1 7.623-2.873 40.17 40.17 0 0 1 8.1-1.001 52.83 52.83 0 0 1 8.155.482 51.06 51.06 0 0 1 7.957 1.841 41.69 41.69 0 0 1 7.463 3.355l35.447 20.247 14.141 8.162 28.787 16.626-.513.29-76.934 44.183-.081-.05-24.731-14.309-62.021-35.551-12.366-7.167-.445-.254.445-.253 44.245-25.264 14.728-8.464z" class="C"/></svg>