<svg width="324" height="280" viewBox="0 0 324 280" fill="none" xmlns="http://www.w3.org/2000/svg">
<path d="M45.9925 176.457C45.4695 175.451 44.875 174.483 44.2136 173.562C43.5439 172.66 42.7969 171.819 41.9811 171.047C40.425 169.377 38.3913 168.224 36.1553 167.743C33.9534 167.265 31.6759 167.247 29.4667 167.69C27.2413 168.119 25.1244 168.986 23.2406 170.241L23.1961 170.188C24.4719 168.975 25.9872 168.04 27.6456 167.443C29.304 166.845 31.0691 166.598 32.8288 166.716C33.9956 166.766 35.149 166.984 36.2531 167.363C37.3539 167.72 38.4196 168.177 39.4373 168.726C40.488 169.255 41.4756 169.899 42.3814 170.648C44.1487 172.186 45.4256 174.206 46.0548 176.457H45.9925Z" fill="#F6B289"/>
<path d="M43.76 190.671C44.3558 189.546 44.9338 188.466 45.4762 187.359C45.7875 186.82 46.0551 186.257 46.2765 185.676C46.4699 185.083 46.5806 184.466 46.6055 183.843C46.6799 182.612 46.6561 181.377 46.5344 180.15C46.4215 178.913 46.2404 177.683 45.992 176.466H46.0542C46.6879 177.586 47.09 178.82 47.2369 180.097C47.3755 181.375 47.2852 182.667 46.9701 183.914L46.481 185.756C46.321 186.367 46.2054 186.996 45.9831 187.598C45.5188 188.799 44.7716 189.871 43.8045 190.724L43.76 190.671Z" fill="#F6B289"/>
<path d="M22.716 192.557C24.3155 193.667 26.0563 194.561 27.8925 195.214C28.7978 195.574 29.7405 195.832 30.7032 195.984C31.6758 196.107 32.661 196.092 33.6294 195.94C35.5418 195.668 37.3925 195.069 39.0995 194.169C40.8226 193.26 42.3947 192.092 43.7602 190.706H43.8046C42.7051 192.392 41.2051 193.782 39.4375 194.753C37.665 195.721 35.6858 196.252 33.665 196.303C32.6676 196.334 31.6692 196.299 30.6765 196.197C29.677 196.135 28.6854 195.981 27.7146 195.736C25.7819 195.165 24.0398 194.085 22.6715 192.61L22.716 192.557Z" fill="#F6B289"/>
<path d="M23.2405 170.258C21.7314 171.726 20.4593 173.416 19.4692 175.271C18.9387 176.183 18.5206 177.155 18.224 178.166C17.9606 179.19 17.8468 180.246 17.886 181.301C17.9591 183.382 18.4237 185.431 19.2558 187.341C20.0894 189.27 21.2609 191.036 22.7157 192.557V192.61C20.9485 191.328 19.5475 189.61 18.6509 187.624C17.768 185.63 17.3952 183.448 17.5658 181.275C17.6522 180.205 17.8156 179.142 18.055 178.096C18.2736 177.04 18.5953 176.007 19.0156 175.014C19.9372 173.04 21.4022 171.366 23.2405 170.188V170.258Z" fill="#F6B289"/>
<path d="M27.2609 186.5C31.9304 182.32 36.6623 178.184 41.3674 174.04L55.5985 161.642L69.8295 149.359C74.597 145.276 79.3199 141.15 84.1318 137.12C93.6844 128.982 103.353 120.976 113.003 112.953C117.842 108.95 122.651 104.918 127.43 100.856C132.242 96.8267 137.009 92.7443 141.768 88.6529L141.981 88.4581L142.186 88.6795L149.47 96.5522L156.799 104.39L171.457 120.046L170.505 119.993L200.017 94.0992C209.801 85.4383 219.754 76.8925 229.636 68.3025C239.517 59.7125 249.488 51.2287 259.405 42.7361L274.374 29.9839L289.406 17.3468L289.522 17.4796L274.926 30.6215L260.295 43.6837C250.511 52.3445 240.727 61.0585 230.836 69.6486C220.946 78.2386 211.144 86.8995 201.218 95.4275L171.439 121.047L170.932 121.49L170.488 120.994L156.159 105.054L148.981 97.0835L141.776 89.1134H142.195C137.392 93.1516 132.615 97.2193 127.866 101.317C123.098 105.408 118.349 109.499 113.635 113.635C104.171 121.888 94.7339 130.16 85.1724 138.298C80.4228 142.407 75.602 146.419 70.8168 150.475L56.4257 162.642L41.9633 174.686C37.1159 178.671 32.2862 182.656 27.4121 186.632L27.2609 186.5Z" fill="#F6B289"/>
<path d="M302.89 5.2146L282.317 9.66016L296.468 25.1842L302.89 5.2146Z" fill="#F6B289"/>
<path d="M32.58 191.433C38.1652 191.433 42.6929 186.925 42.6929 181.364C42.6929 175.803 38.1652 171.295 32.58 171.295C26.9948 171.295 22.467 175.803 22.467 181.364C22.467 186.925 26.9948 191.433 32.58 191.433Z" fill="#F6B289"/>
<path d="M303.433 193.035L156.426 277.536C152.655 279.706 146.055 279.432 141.697 276.925L59.0587 229.423C54.7004 226.917 54.2201 223.127 58.0002 220.957L204.998 136.456C208.778 134.287 215.369 134.552 219.736 137.058L302.374 184.569C306.732 187.084 307.204 190.866 303.433 193.035Z" fill="#ABA9A0" stroke="#3C2829" stroke-width="0.9" stroke-miterlimit="10"/>
<path d="M212.816 65.1411L284.238 106.196L255.536 122.694L242.372 130.266L212.371 147.508L140.949 106.497L170.95 89.2552L184.114 81.6836L212.816 65.1411Z" fill="#F4ECD5"/>
<path d="M212.852 65.088C218.865 68.4 224.862 71.7386 230.845 75.1038L248.777 85.2436L266.708 95.4188C272.667 98.8105 278.617 102.282 284.541 105.709L285.377 106.187L284.541 106.657L266.45 116.85L257.431 121.933L248.412 127.06C242.399 130.47 236.431 133.932 230.454 137.395C224.477 140.857 218.536 144.355 212.576 147.836L212.398 147.942L212.212 147.836C200.293 141.061 188.295 134.34 176.367 127.53L158.489 117.328L140.612 107.055L139.58 106.453L140.603 105.869L158.596 95.5871L176.687 85.3499L194.716 75.1747L212.825 65.088L212.888 65.1943L195.099 75.7414L177.221 86.2354L159.343 96.6586L141.288 107.037V105.86L159.165 116.115L176.954 126.44C188.873 133.312 200.684 140.282 212.532 147.189H212.167C218.18 143.789 224.21 140.415 230.205 136.979C236.2 133.543 242.186 130.133 248.145 126.653L257.102 121.446L266.041 116.177L283.918 105.691V106.639C277.959 103.23 272 99.8555 266.041 96.4018L248.27 86.1292L230.481 75.7237C224.551 72.2405 218.648 68.7366 212.772 65.212L212.852 65.088Z" fill="#3C2829"/>
<path d="M284.221 106.178V188.289L212.354 229.592V147.49L284.221 106.178Z" fill="#DACCBB"/>
<path d="M284.31 106.179C284.434 113.027 284.529 119.869 284.594 126.706L284.754 147.234L284.825 167.761C284.825 174.607 284.825 181.443 284.825 188.289V188.607L284.559 188.767L266.503 198.907L257.493 204.016L248.492 209.144C242.479 212.556 236.49 215.998 230.525 219.47C224.539 222.932 218.607 226.43 212.647 229.91L212.105 230.229V229.592C212.025 215.91 211.882 202.228 211.847 188.537L211.785 168.009V147.101L212.131 146.906L230.054 136.607L248.038 126.387L266.085 116.239L284.185 106.134L284.247 106.249L266.458 116.797L248.581 127.282L230.703 137.714L212.718 148.119L213.056 147.535V168.053L212.994 188.581C212.994 202.272 212.816 215.954 212.736 229.645L212.194 229.326C218.197 225.917 224.228 222.551 230.223 219.115C236.217 215.679 242.203 212.27 248.163 208.79L257.128 203.565L266.067 198.296L283.945 187.81L283.669 188.289C283.669 181.443 283.598 174.598 283.669 167.761L283.74 147.234L283.9 126.706C283.96 119.858 284.052 113.015 284.176 106.179H284.31Z" fill="#3C2829"/>
<path d="M242.274 150.538V130.276L255.116 122.863L255.15 140.417L242.274 150.538Z" fill="#D8D2C3"/>
<path d="M242.266 150.581L242.052 140.565C242.052 138.865 241.99 137.156 241.999 135.438C242.008 133.72 241.999 132.002 242.07 130.301V130.177L242.168 130.115L245.441 128.344L248.687 126.511C250.84 125.271 252.983 124.005 255.1 122.721L255.385 122.544V122.88C255.456 125.811 255.483 128.743 255.509 131.665V136.093V140.654L255.376 140.751C253.188 142.469 250.929 144.134 248.758 145.79L242.266 150.581ZM242.266 150.519C244.462 148.748 246.597 146.977 248.687 145.205C250.778 143.434 252.841 141.778 254.967 140.131L254.833 140.397V135.969V131.541C254.833 128.619 254.875 125.69 254.958 122.756L255.243 122.933C253.063 124.12 250.893 125.324 248.741 126.564L245.53 128.45L242.337 130.372L242.443 130.186C242.488 131.86 242.515 133.481 242.506 135.181C242.497 136.881 242.506 138.475 242.452 140.175L242.266 150.519Z" fill="#3C2829"/>
<path d="M212.371 229.592L140.505 188.28V106.152L212.371 147.473V229.592Z" fill="#A59379"/>
<path d="M212.407 229.636L176.438 209.454L158.311 199.154C152.254 195.727 146.242 192.203 140.229 188.74L139.953 188.581V188.271L140.131 167.743L140.238 157.48V147.216C140.282 140.37 140.238 133.525 140.238 126.679C140.238 119.834 140.131 112.997 140.096 106.152V105.532L140.638 105.842C152.663 112.661 164.653 119.418 176.705 126.272L194.707 136.545L212.674 146.879L213.003 147.083V147.49C213.003 154.38 213.003 161.279 212.941 168.168L212.772 188.802L212.407 229.636ZM212.345 229.521L211.927 188.271L211.758 167.832C211.704 161.04 211.713 154.256 211.696 147.464L212.042 148.048L194.058 137.749L176.127 127.361C164.164 120.472 152.254 113.431 140.327 106.48L140.896 106.161C140.896 113.006 140.772 119.852 140.772 126.688C140.772 133.525 140.718 140.379 140.772 147.225V157.488L140.852 167.752L141.038 188.28L140.763 187.801C146.722 191.22 152.681 194.585 158.64 198.048L176.429 208.426L212.345 229.521Z" fill="#3C2829"/>
<path d="M184.308 81.6105L171.087 89.1644L241.979 130.051L255.388 122.606L184.308 81.6105Z" fill="#FFFBEF"/>
<path d="M255.572 122.694L242.506 130.408L242.417 130.47L242.319 130.408L224.441 120.233C218.464 116.826 212.514 113.381 206.59 109.898C200.666 106.415 194.737 102.964 188.801 99.5456L170.924 89.3438L170.657 89.1933L170.924 89.0339L184.034 81.3826L184.167 81.3029L184.301 81.3826L202.259 91.6375L220.172 101.981L255.572 122.694ZM255.509 122.694L219.54 102.326L201.752 92.1334L183.963 81.8608H184.23L170.986 89.3527V89.0516L188.855 99.4128C194.784 102.819 200.755 106.205 206.768 109.57C212.781 112.935 218.74 116.336 224.646 119.772L242.435 130.115H242.239L255.509 122.694Z" fill="#3C2829"/>
<path d="M226.772 215.954L216.374 221.931V211.119L226.772 205.15V215.954Z" stroke="#3C2829" stroke-width="0.23" stroke-miterlimit="10"/>
<path d="M240.603 208.196L230.205 214.174V199.677L240.603 193.708V208.196Z" stroke="#3C2829" stroke-width="0.23" stroke-miterlimit="10"/>
<path d="M280.53 124.412L270.363 130.266V118.7L280.53 112.856V124.412Z" stroke="#3C2829" stroke-width="0.23" stroke-miterlimit="10"/>
<path d="M215.431 211.756C215.627 212.102 226.451 204.911 226.692 205.3C227.314 206.372 216.17 212.872 216.757 213.864C217.228 214.679 226.265 207.125 226.825 208.081C227.385 209.038 216.641 215.821 217.157 216.707C217.673 217.592 225.295 211.083 225.704 211.801C226.113 212.518 216.579 218.15 216.81 218.584C217.281 219.39 225.171 212.713 225.633 213.51C225.944 214.05 216.454 220.435 217.023 221.427C217.593 222.419 227.234 214.732 227.617 215.387" stroke="#3C2829" stroke-width="0.3" stroke-linecap="round" stroke-linejoin="round"/>
<path d="M231.094 199.27C231.53 200.022 240.362 192.805 240.878 193.646C241.483 194.691 229.938 200.403 230.392 201.2C230.97 202.183 239.162 195.267 239.553 195.887C239.793 196.294 229.218 203.795 229.858 204.911C230.418 205.885 240.327 198.198 240.62 198.712C241.1 199.535 229.991 207.452 230.383 208.125C230.641 208.559 241.421 201.112 241.705 201.616C242.088 202.272 228.364 209.268 229.129 210.57C229.725 211.597 240.594 203.246 240.905 203.795C241.474 204.769 229.529 211.508 230.232 212.651C230.409 212.969 240.976 205.814 241.261 206.31C241.545 206.806 230.454 212.128 230.899 212.908C231.21 213.448 241.394 206.381 241.572 206.709C241.874 207.222 230.899 213.04 231.165 213.421C231.672 214.307 240.06 207.222 240.54 208.028" stroke="#3C2829" stroke-width="0.3" stroke-linecap="round" stroke-linejoin="round"/>
<path d="M269.438 119.329C269.972 120.215 280.191 111.855 280.752 112.829C281.312 113.803 268.771 121.685 269.376 122.712C269.58 123.075 278.804 115.991 279.373 116.965C279.942 117.939 269.66 125.156 269.856 125.493C270.052 125.829 279.231 118.895 279.791 119.781C280.103 120.321 269.856 127.414 270.114 127.866C270.594 128.699 279.204 121.393 279.747 122.331C279.978 122.73 271.057 126.759 271.457 127.485C271.733 127.955 279.24 121.729 279.8 122.694C280.458 123.828 269.002 130.301 269.269 130.78C269.536 131.258 279.427 123.607 280.005 124.581" stroke="#3C2829" stroke-width="0.3" stroke-linecap="round" stroke-linejoin="round"/>
<path d="M145.788 139.565L195.597 168.222L175.566 179.734L166.378 185.047L145.432 197.091L95.6234 168.434L116.561 156.399L125.749 151.086L145.788 139.565Z" fill="#F4ECD5"/>
<path d="M145.806 139.529C150.004 141.838 154.19 144.167 158.365 146.516L170.888 153.601L183.394 160.685C187.556 163.05 191.71 165.468 195.846 167.867L196.424 168.195L195.846 168.523L183.216 175.607L176.927 179.15L170.63 182.692C166.432 185.074 162.269 187.492 158.089 189.909C153.909 192.327 149.773 194.762 145.637 197.198L145.512 197.268L145.379 197.198C137.063 192.469 128.684 187.775 120.368 183.028L107.916 175.944L95.4635 168.78L94.7341 168.355L95.4546 167.947L108.013 160.774L120.617 153.636L133.202 146.552L145.833 139.511L145.877 139.582L133.425 146.95L120.973 154.265L108.52 161.544L95.9705 168.788V167.965L108.423 175.12L120.875 182.329C129.2 187.129 137.436 191.99 145.708 196.817H145.459C149.657 194.443 153.864 192.088 158.045 189.732C162.225 187.377 166.414 184.95 170.568 182.524L176.794 178.893L183.02 175.209L195.472 167.894V168.558C191.31 166.176 187.156 163.82 183.02 161.412L170.568 154.221L158.169 146.968C154.018 144.536 149.897 142.088 145.806 139.627V139.529Z" fill="#3C2829"/>
<path d="M195.614 168.213V225.518L145.459 254.387V197.038L195.614 168.213Z" fill="#DACCBB"/>
<path d="M195.659 168.213C195.748 172.989 195.816 177.762 195.864 182.532L195.97 196.861L196.024 211.19C196.024 215.963 196.024 220.736 196.024 225.518V225.739L195.837 225.846L183.234 232.93L176.954 236.473L170.666 240.015C166.468 242.376 162.287 244.779 158.125 247.223C153.953 249.641 149.808 252.085 145.672 254.512L145.299 254.733V254.388C145.246 244.832 145.139 235.286 145.121 225.731V211.402V196.764L145.361 196.631L157.911 189.449L170.452 182.311L183.056 175.227L195.695 168.142L195.739 168.222L183.287 175.581L170.835 182.904L158.383 190.184L145.859 197.419L146.09 197.012V211.331L146.046 225.66C146.046 235.215 145.921 244.77 145.868 254.317L145.486 254.095C149.684 251.722 153.891 249.366 158.071 247.011C162.252 244.655 166.441 242.229 170.595 239.802L176.821 236.154L183.047 232.479L195.499 225.164L195.303 225.491C195.303 220.718 195.303 215.936 195.303 211.163L195.357 196.834L195.463 182.515C195.511 177.733 195.576 172.957 195.659 168.186V168.213Z" fill="#3C2829"/>
<path d="M166.332 199.176L166.439 185.241L175.308 180.031V192.109L166.332 199.176Z" fill="#D8D2C3"/>
<path d="M166.334 199.199L166.192 192.212C166.192 191.025 166.138 189.829 166.192 188.669C166.245 187.509 166.192 186.278 166.245 185.127V185.039H166.316L168.602 183.79L170.861 182.515C172.365 181.629 173.859 180.743 175.309 179.858L175.504 179.743V179.973C175.552 182.022 175.578 184.067 175.584 186.11V189.174V192.353L175.495 192.415C173.966 193.62 172.4 194.789 170.879 195.958L166.334 199.199ZM166.334 199.154C167.873 197.915 169.358 196.684 170.781 195.471C172.204 194.257 173.69 193.088 175.166 191.928L175.068 192.114V189.05V185.986C175.068 183.937 175.095 181.892 175.148 179.849L175.353 179.973C173.832 180.797 172.311 181.647 170.808 182.506L168.682 183.825L166.459 185.171L166.53 185.047C166.53 186.216 166.583 187.341 166.574 188.528C166.565 189.714 166.574 190.83 166.574 192.017L166.334 199.154Z" fill="#3C2829"/>
<path d="M145.468 254.335L95.312 225.5V168.186L145.468 197.029V254.335Z" fill="#A59379"/>
<path d="M145.503 254.388L120.394 240.307L107.737 233.134C103.512 230.743 99.3229 228.281 95.1248 225.863L94.9291 225.757V225.536L95.0536 211.207L95.1248 204.043V196.879C95.1248 192.105 95.1248 187.332 95.1248 182.55C95.1248 177.768 95.0625 173.004 95.0358 168.222V167.797L95.4094 168.009C103.806 172.765 112.202 177.485 120.581 182.267L133.148 189.44L145.681 196.648L145.921 196.79V197.073C145.921 201.882 145.921 206.7 145.876 211.508L145.761 225.908L145.503 254.388ZM145.449 254.317L145.165 225.518L145.049 211.251C145.005 206.514 145.049 201.776 144.996 197.029L145.236 197.445L132.686 190.255L120.171 183.002C111.82 178.193 103.512 173.26 95.187 168.425L95.5873 168.204C95.5873 172.986 95.4983 177.759 95.4983 182.532C95.4983 187.306 95.4983 192.088 95.4983 196.861V204.025L95.5517 211.189L95.7474 225.5L95.5517 225.173C99.7143 227.555 103.868 229.902 108.004 232.319L120.456 239.563L145.449 254.317Z" fill="#3C2829"/>
<path d="M175.629 179.734L166.476 185.127L166.414 185.171L166.343 185.127L153.891 178.043C149.74 175.681 145.589 173.278 141.439 170.834C137.288 168.39 133.137 165.981 128.986 163.608L116.534 156.523L116.347 156.417L116.534 156.311L125.687 150.997L125.775 150.944L125.873 150.997L138.406 158.153L150.858 165.379L175.629 179.734ZM175.575 179.734L150.475 165.565L138.023 158.48L125.633 151.307H125.82L116.579 156.541V156.328L129.031 163.519C133.182 165.881 137.35 168.242 141.536 170.604C145.723 172.965 149.873 175.327 153.989 177.688L166.441 184.906H166.307L175.575 179.734Z" fill="#3C2829"/>
<path d="M155.518 244.824L148.27 248.995V241.449L155.518 237.278V244.824Z" stroke="#3C2829" stroke-width="0.16" stroke-miterlimit="10"/>
<path d="M165.178 239.413L157.92 243.575V233.462L165.178 229.3V239.413Z" stroke="#3C2829" stroke-width="0.16" stroke-miterlimit="10"/>
<path d="M193.044 180.938L185.929 185.012V176.944L193.044 172.871V180.938Z" stroke="#3C2829" stroke-width="0.16" stroke-miterlimit="10"/>
<path d="M147.611 241.892C147.745 242.131 155.305 237.11 155.465 237.385C155.901 238.138 148.127 242.698 148.536 243.371C148.865 243.929 155.171 238.66 155.563 239.324C155.954 239.988 148.447 244.726 148.812 245.346C149.177 245.966 154.495 241.423 154.78 241.919C155.065 242.415 148.412 246.347 148.554 246.657C148.883 247.215 154.389 242.565 154.718 243.114C154.931 243.486 148.305 247.941 148.705 248.632C149.105 249.322 155.821 243.965 156.105 244.425" stroke="#3C2829" stroke-width="0.21" stroke-linecap="round" stroke-linejoin="round"/>
<path d="M158.543 233.178C158.845 233.701 165.009 228.671 165.373 229.255C165.791 229.981 157.733 233.966 158.053 234.524C158.454 235.215 164.173 230.38 164.439 230.84C164.608 231.132 157.235 236.366 157.68 237.145C158.124 237.925 164.982 232.461 165.187 232.824C165.525 233.391 157.778 238.917 158.071 239.386C158.249 239.696 165.774 234.498 165.978 234.843C166.183 235.188 156.675 240.156 157.191 241.095C157.609 241.812 165.196 235.985 165.418 236.366C165.809 237.048 157.475 241.75 157.947 242.565C158.071 242.786 165.445 237.792 165.649 238.137C165.854 238.483 158.098 242.202 158.409 242.742C158.631 243.114 165.738 238.19 165.889 238.447C166.041 238.704 158.471 242.875 158.623 243.123C158.978 243.734 164.849 238.828 165.169 239.359" stroke="#3C2829" stroke-width="0.21" stroke-linecap="round" stroke-linejoin="round"/>
<path d="M185.306 177.387C185.671 178.025 192.804 172.171 193.195 172.844C193.587 173.517 184.834 179.043 185.252 179.752C185.395 180 191.843 175.058 192.235 175.74C192.626 176.422 185.457 181.452 185.59 181.682C185.724 181.913 192.137 177.086 192.528 177.715C192.742 178.096 185.59 183.028 185.777 183.356C186.106 183.94 192.119 178.84 192.493 179.486C192.662 179.769 186.435 182.612 186.711 183.09C186.898 183.418 192.146 179.07 192.537 179.743C192.928 180.416 184.995 185.056 185.19 185.393C185.386 185.729 192.306 180.38 192.679 181.08" stroke="#3C2829" stroke-width="0.21" stroke-linecap="round" stroke-linejoin="round"/>
<path d="M125.882 151.176L116.831 156.379L166.125 184.897L175.511 179.686L125.882 151.176Z" fill="#FFFBEF"/>
<path d="M287.627 19.0117C288.517 19.8441 289.353 20.7031 290.18 21.5799C291.007 22.4566 291.834 23.351 292.617 24.2366C293.4 25.1221 294.165 26.0786 294.983 26.973C295.801 27.8674 296.637 28.7441 297.482 29.6297L297.224 29.6828C297.817 27.6932 298.428 25.7125 299.057 23.7406C299.368 22.7488 299.733 21.7747 300.062 20.8006C300.391 19.8264 300.773 18.8434 301.156 17.8782H301.2C300.942 18.8789 300.667 19.8796 300.382 20.8803C300.097 21.881 299.813 22.8728 299.493 23.8558C298.87 25.8395 298.209 27.8084 297.509 29.7625L297.42 30.0105L297.26 29.8157C296.468 28.9301 295.686 27.9737 294.876 27.0792C294.067 26.1848 293.213 25.3081 292.368 24.4757C291.523 23.6432 290.714 22.7045 289.922 21.819C289.131 20.9334 288.348 19.9858 287.592 19.0383L287.627 19.0117Z" fill="#ED7339"/>
<path d="M293.355 5.0199C292.083 5.37413 290.803 5.69293 289.513 5.99403C288.223 6.29512 286.942 6.59621 285.644 6.8796C284.345 7.16298 283.047 7.34009 281.748 7.61462C280.45 7.88915 279.178 8.1991 277.897 8.50019L277.968 8.26994C279.64 10.0411 281.303 11.7591 282.904 13.5834C284.505 15.4076 286.106 17.1876 287.627 19.065C285.911 17.3736 284.239 15.629 282.611 13.8579C280.983 12.0867 279.373 10.3156 277.799 8.45591L277.639 8.26994H277.87C279.169 8.03084 280.467 7.79173 281.757 7.50835C283.047 7.22497 284.328 6.88845 285.608 6.56965C286.889 6.25084 288.179 5.99402 289.477 5.73721C290.776 5.48039 292.075 5.24129 293.382 5.04646L293.355 5.0199Z" fill="#ED7339"/>
<path d="M301.156 17.8694C301.494 16.5411 301.867 15.2127 302.268 13.9109C302.668 12.6091 303.077 11.2542 303.548 9.9967C304.02 8.73919 304.482 7.41969 304.892 6.10905C305.301 4.7984 305.665 3.45234 306.057 2.16826L306.252 2.37194C304.118 2.90328 301.983 3.38149 299.831 3.82427C297.678 4.26706 295.526 4.70985 293.355 5.01979V4.97552C295.472 4.38218 297.607 3.87741 299.742 3.38149C301.876 2.88557 304.029 2.49592 306.19 2.05313L306.475 2L306.386 2.26567C305.941 3.5586 305.496 4.85154 305.034 6.15332C304.571 7.45511 304.233 8.81004 303.86 10.0941C303.486 11.3782 303.059 12.7508 302.615 14.0172C302.17 15.2836 301.725 16.6031 301.209 17.8871L301.156 17.8694Z" fill="#ED7339"/>
</svg>
