<svg width="324" height="280" viewBox="0 0 324 280" fill="none" xmlns="http://www.w3.org/2000/svg">
<path d="M107.469 232.02L54.681 201.416V140.596L107.469 171.199V232.02Z" fill="#A59379"/>
<path d="M107.799 110.217L160.256 140.625L139.178 152.848L129.505 158.454L107.469 171.228L55.0067 140.815L77.043 128.046L86.7164 122.435L107.799 110.217Z" fill="#80715B"/>
<path d="M107.824 110.173C112.24 112.628 116.644 115.102 121.038 117.596L134.213 125.096L147.344 132.651C151.721 135.161 156.098 137.734 160.446 140.274L161.059 140.625L160.446 140.972L147.184 148.512L140.569 152.277L133.955 156.071C129.539 158.595 125.152 161.159 120.76 163.723C116.369 166.287 112.006 168.88 107.629 171.458L107.498 171.536L107.362 171.458C98.6075 166.443 89.7949 161.462 81.0359 156.417L67.9046 148.858L54.7733 141.25L54 140.811L54.7538 140.376L67.9678 132.758L81.2353 125.184L94.5027 117.649L107.799 110.173L107.848 110.256L94.7216 118.06L81.5903 125.873L68.459 133.598L55.2548 141.25V140.376L68.3861 147.974L81.4736 155.622C90.2278 160.715 98.8993 165.876 107.61 170.994H107.342C111.758 168.469 116.189 165.974 120.59 163.43C124.992 160.886 129.383 158.356 133.76 155.778L140.341 151.925L146.901 148.018L160.033 140.254V140.952C155.656 138.423 151.279 135.927 146.901 133.373L133.814 125.721L120.785 118.06C116.437 115.455 112.1 112.851 107.775 110.246L107.824 110.173Z" fill="#3C2829"/>
<path d="M160.242 140.615V201.436L107.454 232.039V171.218L160.242 140.615Z" fill="#80715B"/>
<path d="M160.29 140.615C160.381 145.684 160.451 150.753 160.5 155.822L160.616 171.023L160.67 186.23C160.67 191.298 160.67 196.367 160.645 201.436V201.67L160.446 201.788L147.183 209.322L140.569 213.087L133.955 216.882C129.539 219.406 125.147 221.97 120.756 224.534C116.364 227.097 112.001 229.69 107.624 232.269L107.23 232.503V232.039C107.172 221.902 107.065 211.764 107.041 201.627L106.992 186.42V170.926L107.245 170.779L120.454 163.156L133.697 155.582L146.96 148.053L160.217 140.571L160.266 140.654L147.169 148.468L134.038 156.237L120.906 163.962L107.726 171.643L107.974 171.209V186.425L107.926 201.631C107.926 211.769 107.794 221.907 107.736 232.044L107.337 231.81C111.748 229.285 116.179 226.79 120.58 224.241C124.982 221.692 129.383 219.167 133.76 216.589L140.341 212.736L146.906 208.829L160.023 201.075L159.819 201.426C159.819 196.357 159.77 191.289 159.819 186.22L159.872 171.014L159.989 155.812C160.038 150.743 160.106 145.674 160.193 140.606L160.29 140.615Z" fill="#3C2829"/>
<path d="M129.427 173.504L129.271 166.086C129.271 164.826 129.223 163.562 129.233 162.287C129.242 161.013 129.233 159.743 129.281 158.483V158.39L129.359 158.346L131.762 157.023L134.145 155.67C135.727 154.749 137.298 153.811 138.857 152.858L139.066 152.731V152.98C139.115 155.148 139.139 157.316 139.154 159.489L139.183 162.741V165.993V166.116L139.086 166.189C137.476 167.463 135.827 168.699 134.222 169.924L129.427 173.504ZM129.427 173.46C131.042 172.146 132.608 170.833 134.145 169.553C135.681 168.274 137.199 167.014 138.755 165.798L138.658 165.993V162.741L138.687 159.489C138.687 157.314 138.716 155.145 138.775 152.98L138.989 153.107C137.387 153.986 135.793 154.882 134.208 155.797L131.849 157.194L129.505 158.62L129.583 158.483C129.617 159.723 129.636 160.949 129.631 162.18C129.626 163.41 129.607 164.621 129.592 165.876L129.427 173.46Z" fill="#3C2829"/>
<path d="M107.498 232.064L81.0747 217.097L67.7586 209.484C63.3134 206.935 58.8974 204.337 54.4863 201.768L54.282 201.651V201.416L54.4133 186.215L54.4863 178.612L54.5155 171.009C54.5495 165.94 54.5155 160.871 54.5155 155.802C54.5155 150.733 54.4474 145.665 54.4182 140.596V140.137L54.817 140.366C63.6441 145.406 72.481 150.421 81.3033 155.499L94.527 163.107L107.722 170.764L107.97 170.911V171.199C107.97 176.302 107.97 181.415 107.921 186.518L107.799 201.802L107.498 232.064ZM107.449 231.976L107.143 201.421L107.021 186.283C106.977 181.249 106.987 176.224 106.973 171.189L107.225 171.624L94.0163 163.991L80.8461 156.295C72.0579 151.173 63.3134 145.982 54.5495 140.83L54.9483 140.596C54.9143 145.665 54.8559 150.733 54.851 155.802C54.8462 160.871 54.817 165.94 54.851 171.009L54.8802 178.612L54.9726 186.215L55.1088 201.416L54.8802 201.075C59.2573 203.604 63.6344 206.099 68.0115 208.663L81.0893 216.349L107.449 231.976Z" fill="#3C2829"/>
<path d="M139.203 152.848L129.573 158.59L129.505 158.634L129.432 158.59L116.301 151.051C111.924 148.528 107.561 145.979 103.213 143.404C98.8653 140.828 94.5012 138.265 90.1209 135.712L76.9896 128.158L76.7902 128.046L76.9896 127.929L86.6143 122.259L86.7116 122.201L86.8137 122.259L100.003 129.853L113.159 137.514L139.203 152.848ZM139.154 152.848L112.736 137.763L99.6581 130.219L86.6143 122.606H86.8137L77.0868 128.158V127.929L90.1743 135.581C94.5514 138.11 98.9383 140.619 103.335 143.106C107.731 145.593 112.108 148.113 116.466 150.665L129.544 158.327H129.403L139.154 152.848Z" fill="#3C2829"/>
<path d="M118.047 221.926L110.411 226.355V218.347L118.047 213.922V221.926Z" stroke="#3C2829" stroke-width="0.31" stroke-miterlimit="10"/>
<path d="M128.206 216.183L120.571 220.608V209.874L128.206 205.445V216.183Z" stroke="#3C2829" stroke-width="0.31" stroke-miterlimit="10"/>
<path d="M157.533 154.127L150.068 158.454V149.889L157.533 145.562V154.127Z" stroke="#3C2829" stroke-width="0.31" stroke-miterlimit="10"/>
<path d="M109.72 218.82C109.861 219.074 117.813 213.747 117.988 214.035C118.445 214.831 110.26 219.646 110.693 220.383C111.038 220.988 117.677 215.392 118.086 216.1C118.494 216.808 110.62 221.823 111 222.488C111.379 223.152 116.977 218.322 117.278 218.85C117.58 219.377 110.576 223.557 110.756 223.874C111.102 224.47 116.899 219.528 117.239 220.114C117.468 220.52 110.494 225.247 110.917 225.974C111.34 226.702 118.411 221.003 118.698 221.472" stroke="#3C2829" stroke-width="0.4" stroke-linecap="round" stroke-linejoin="round"/>
<path d="M121.222 209.567C121.543 210.128 128.031 204.781 128.411 205.401C128.853 206.178 120.371 210.407 120.707 210.997C121.13 211.73 127.151 206.603 127.433 207.091C127.613 207.398 119.846 212.951 120.313 213.781C120.726 214.499 128.002 208.81 128.221 209.196C128.571 209.801 120.415 215.666 120.702 216.164C120.887 216.491 128.804 210.973 129.018 211.344C129.296 211.832 119.233 217.014 119.778 217.98C120.216 218.737 128.201 212.555 128.43 212.96C128.848 213.683 120.075 218.674 120.566 219.528C120.702 219.763 128.464 214.465 128.673 214.831C128.882 215.197 120.731 219.138 121.057 219.714C121.29 220.114 128.77 214.875 128.926 215.153C129.15 215.534 121.12 219.841 121.281 220.119C121.655 220.769 127.842 215.563 128.167 216.125" stroke="#3C2829" stroke-width="0.4" stroke-linecap="round" stroke-linejoin="round"/>
<path d="M149.387 150.357C149.776 151.031 157.285 144.82 157.698 145.538C158.16 146.343 148.895 152.106 149.338 152.862C149.489 153.131 156.268 147.882 156.687 148.604C157.105 149.327 149.552 154.684 149.693 154.928C149.834 155.172 156.58 150.045 156.988 150.714C157.217 151.114 149.693 156.369 149.883 156.701C150.238 157.321 156.56 151.905 156.959 152.599C157.129 152.897 150.578 155.914 150.87 156.422C151.069 156.769 156.589 152.154 156.998 152.867C157.484 153.707 149.066 158.507 149.265 158.859C149.416 159.118 156.721 153.546 157.149 154.288" stroke="#3C2829" stroke-width="0.4" stroke-linecap="round" stroke-linejoin="round"/>
<path d="M216.731 110.217L269.188 140.625L248.11 152.848L238.436 158.454L216.4 171.228L163.938 140.815L185.974 128.046L195.648 122.435L216.731 110.217Z" fill="#80715B"/>
<path d="M216.755 110.173C221.171 112.628 225.577 115.102 229.974 117.596L243.149 125.096L256.28 132.651C260.657 135.161 265.01 137.734 269.382 140.274L269.99 140.625L269.382 140.972L256.12 148.512L249.51 152.277L242.896 156.071C238.48 158.595 234.088 161.159 229.697 163.723C225.305 166.287 220.943 168.88 216.565 171.458L216.434 171.536L216.298 171.458C207.544 166.443 198.726 161.462 189.972 156.417L176.841 148.858L163.71 141.25L162.956 140.811L163.71 140.376L176.924 132.758L190.167 125.184L203.429 117.649L216.726 110.173L216.775 110.256L203.677 118.069L190.546 125.839L177.39 133.564L164.21 141.24V140.376L177.342 147.974L190.434 155.622C199.188 160.715 207.855 165.876 216.57 170.994H216.303C220.719 168.469 225.145 165.974 229.546 163.43C233.947 160.886 238.324 158.356 242.702 155.778L249.287 151.925L255.847 148.018L268.979 140.254V140.952C264.602 138.423 260.225 135.927 255.847 133.373L242.76 125.721L229.721 118.06C225.373 115.455 221.035 112.851 216.706 110.246L216.755 110.173Z" fill="#3C2829"/>
<path d="M269.178 140.615V201.436L216.39 232.039V171.218L269.178 140.615Z" fill="#DACCBB"/>
<path d="M238.392 173.504L238.348 158.594L247.809 153.019L247.928 165.966L238.392 173.504Z" fill="#D8D2C3"/>
<path d="M269.227 140.615C269.314 145.684 269.382 150.753 269.431 155.822L269.548 171.023L269.601 186.23C269.63 191.298 269.601 196.367 269.601 201.436V201.67L269.397 201.788L256.134 209.322L249.501 213.087L242.886 216.882C238.47 219.406 234.083 221.97 229.692 224.534C225.3 227.097 220.938 229.69 216.56 232.269L216.162 232.503V232.039C216.098 221.902 215.996 211.764 215.972 201.627L215.923 186.42V170.926L216.176 170.779L229.39 163.156L242.633 155.582L255.896 148.053L269.193 140.571L269.241 140.654L256.144 148.468L243.013 156.237L229.818 163.962L216.638 171.643L216.891 171.209V186.425L216.843 201.631C216.813 211.769 216.711 221.907 216.648 232.044L216.249 231.81C220.665 229.285 225.096 226.79 229.497 224.241C233.899 221.692 238.324 219.167 242.701 216.589L249.287 212.736L255.847 208.829L268.964 201.075L268.765 201.426C268.765 196.357 268.716 191.289 268.74 186.22L268.794 171.014L268.911 155.812C268.959 150.743 269.029 145.674 269.12 140.606L269.227 140.615Z" fill="#3C2829"/>
<path d="M238.358 173.504L238.208 166.086C238.208 164.826 238.154 163.562 238.169 162.287C238.183 161.013 238.169 159.743 238.213 158.483V158.39L238.29 158.346L240.693 157.023L243.076 155.67C244.652 154.749 246.221 153.811 247.784 152.858L247.993 152.731V152.98C248.042 155.148 248.072 157.318 248.085 159.489L248.11 162.741V165.993V166.116L248.017 166.189C246.407 167.463 244.759 168.699 243.154 169.924L238.358 173.504ZM238.383 173.46C239.993 172.146 241.559 170.833 243.095 169.553C244.632 168.274 246.155 167.014 247.706 165.798L247.614 165.993V162.741L247.638 159.489C247.638 157.314 247.669 155.145 247.73 152.98L247.944 153.107C246.323 153.986 244.73 154.882 243.164 155.797L240.8 157.194L238.461 158.62L238.538 158.483C238.568 159.723 238.592 160.949 238.587 162.18C238.582 163.41 238.587 164.621 238.548 165.876L238.383 173.46Z" fill="#3C2829"/>
<path d="M216.405 232.02L163.612 201.416V140.596L216.405 171.199V232.02Z" fill="#80715B"/>
<path d="M216.439 232.064L190.021 217.097L176.705 209.484C172.259 206.944 167.843 204.337 163.423 201.768L163.218 201.651V201.416L163.35 186.215L163.427 178.612L163.457 171.009C163.486 165.94 163.457 160.871 163.457 155.802C163.457 150.733 163.393 145.665 163.364 140.596V140.137L163.768 140.366C172.595 145.415 181.446 150.421 190.259 155.504L203.478 163.112L216.672 170.769L216.925 170.916V171.204C216.925 176.307 216.925 181.42 216.877 186.523L216.75 201.807L216.439 232.064ZM216.39 231.976L216.084 201.421L215.957 186.283C215.914 181.249 215.923 176.224 215.914 171.189L216.162 171.624L202.962 163.982L189.778 156.295C180.994 151.173 172.269 145.982 163.481 140.83L163.88 140.596C163.851 145.665 163.787 150.733 163.787 155.802C163.787 160.871 163.748 165.94 163.787 171.009L163.816 178.612L163.889 186.215L164.021 201.416L163.821 201.07C168.198 203.599 172.576 206.095 176.953 208.658L190.035 216.344L216.39 231.976Z" fill="#3C2829"/>
<path d="M248.134 152.848L238.509 158.59L238.441 158.634L238.363 158.59L225.232 151.051C220.855 148.528 216.491 145.979 212.14 143.404C207.789 140.828 203.431 138.27 199.067 135.727L185.935 128.173L185.736 128.06L185.935 127.943L195.575 122.274L195.672 122.215L195.774 122.274L208.964 129.867L222.095 137.529L248.134 152.848ZM248.085 152.848L221.667 137.763L208.589 130.219L195.55 122.606H195.75L186.023 128.158V127.929L199.111 135.581C203.481 138.11 207.858 140.619 212.242 143.106C216.625 145.593 221.002 148.113 225.373 150.665L238.456 158.327H238.31L248.085 152.848Z" fill="#3C2829"/>
<path d="M226.983 221.926L219.347 226.355V218.347L226.983 213.922V221.926Z" stroke="#3C2829" stroke-width="0.31" stroke-miterlimit="10"/>
<path d="M237.138 216.183L229.502 220.608V209.874L237.138 205.445V216.183Z" stroke="#3C2829" stroke-width="0.31" stroke-miterlimit="10"/>
<path d="M266.464 154.127L258.999 158.454V149.889L266.464 145.562V154.127Z" stroke="#3C2829" stroke-width="0.31" stroke-miterlimit="10"/>
<path d="M161.589 263.517L108.801 232.913V172.093L161.589 202.696V263.517Z" fill="#A59379"/>
<path d="M218.652 218.82C218.798 219.074 226.749 213.747 226.92 214.035C227.406 214.831 219.192 219.646 219.625 220.383C219.97 220.988 226.613 215.392 227.017 216.1C227.421 216.808 219.552 221.823 219.936 222.488C220.32 223.152 225.908 218.322 226.214 218.85C226.521 219.377 219.508 223.557 219.693 223.874C220.033 224.47 225.835 219.528 226.171 220.114C226.404 220.52 219.43 225.247 219.848 225.974C220.266 226.702 227.343 221.003 227.63 221.472" stroke="#3C2829" stroke-width="0.4" stroke-linecap="round" stroke-linejoin="round"/>
<path d="M230.159 209.567C230.48 210.128 236.967 204.781 237.342 205.401C237.789 206.178 229.303 210.407 229.643 210.997C230.066 211.73 236.087 206.603 236.369 207.091C236.544 207.398 228.782 212.951 229.244 213.781C229.658 214.499 236.933 208.81 237.157 209.196C237.502 209.801 229.351 215.666 229.633 216.164C229.823 216.491 237.741 210.973 237.955 211.344C238.232 211.832 228.165 217.014 228.714 217.98C229.147 218.737 237.133 212.555 237.366 212.96C237.78 213.683 229.006 218.674 229.502 219.528C229.633 219.763 237.395 214.465 237.609 214.831C237.823 215.197 229.667 219.138 229.993 219.714C230.222 220.114 237.702 214.875 237.862 215.153C238.081 215.534 230.056 219.841 230.212 220.119C230.587 220.769 236.778 215.563 237.099 216.125" stroke="#3C2829" stroke-width="0.4" stroke-linecap="round" stroke-linejoin="round"/>
<path d="M258.318 150.357C258.707 151.031 266.221 144.82 266.63 145.538C267.116 146.343 257.832 152.106 258.269 152.862C258.425 153.131 265.205 147.882 265.618 148.604C266.031 149.327 258.483 154.684 258.629 154.928C258.775 155.172 265.516 150.045 265.895 150.714C266.124 151.114 258.6 156.369 258.795 156.701C259.15 157.321 265.467 151.905 265.866 152.599C266.036 152.897 259.49 155.914 259.777 156.422C259.976 156.769 265.501 152.154 265.91 152.867C266.396 153.707 257.973 158.507 258.172 158.859C258.323 159.118 265.633 153.546 266.056 154.288" stroke="#3C2829" stroke-width="0.4" stroke-linecap="round" stroke-linejoin="round"/>
<path d="M161.92 141.714L214.377 172.122L193.299 184.345L183.625 189.951L161.589 202.725L109.127 172.312L131.163 159.543L140.837 153.932L161.92 141.714Z" fill="#80715B"/>
<path d="M161.968 141.67C166.384 144.125 170.791 146.599 175.187 149.093L188.357 156.593L201.489 164.148C205.866 166.658 210.243 169.231 214.591 171.77L215.204 172.122L214.591 172.469L201.314 180.008L194.685 183.773L188.066 187.568C183.65 190.092 179.263 192.656 174.871 195.22C170.479 197.783 166.117 200.376 161.74 202.955L161.609 203.033L161.472 202.955C152.718 197.94 143.906 192.959 135.147 187.914L122.015 180.355L108.884 172.747L108.13 172.307L108.884 171.873L122.088 164.255L135.331 156.681L148.599 149.146L161.895 141.67L161.944 141.753L148.842 149.566L135.711 157.335L122.575 165.07L109.375 172.752V171.873L122.506 179.471L135.594 187.118C144.348 192.212 153.02 197.373 161.73 202.491H161.482C165.893 199.966 170.324 197.471 174.725 194.927C179.127 192.382 183.513 189.843 187.9 187.275L194.48 183.422L201.046 179.515L214.177 171.751V172.449C209.8 169.92 205.423 167.424 201.046 164.87L187.959 157.218L174.905 149.537C170.557 146.959 166.221 144.364 161.895 141.753L161.968 141.67Z" fill="#3C2829"/>
<path d="M214.362 172.112V232.933L161.574 263.536V202.715L214.362 172.112Z" fill="#DACCBB"/>
<path d="M183.579 205.112L183.535 190.202L192.997 184.627L193.116 197.574L183.579 205.112Z" fill="#D8D2C3"/>
<path d="M214.411 172.112C214.505 177.181 214.575 182.25 214.62 187.319L214.737 202.54L214.79 217.746C214.819 222.815 214.79 227.884 214.766 232.952V233.187L214.566 233.304L201.304 240.839L194.67 244.604L188.056 248.398C183.64 250.923 179.248 253.486 174.856 256.05C170.465 258.614 166.102 261.207 161.725 263.785L161.326 264.02V263.556C161.263 253.418 161.161 243.28 161.132 233.143L161.083 217.936V202.422L161.336 202.276L174.55 194.653L187.788 187.079L201.056 179.549L214.348 172.068L214.396 172.151L201.299 179.964L188.168 187.734L175.012 195.459L161.832 203.14L162.08 202.706V217.907L162.032 233.114C162.032 243.251 161.905 253.389 161.842 263.526L161.443 263.292C165.859 260.767 170.29 258.272 174.686 255.723C179.083 253.174 183.504 250.654 187.886 248.076L194.466 244.223L201.032 240.316L214.163 232.552L213.959 232.904C213.959 227.835 213.91 222.766 213.959 217.697L214.007 202.54L214.124 187.338C214.173 182.269 214.241 177.201 214.328 172.132L214.411 172.112Z" fill="#3C2829"/>
<path d="M183.548 204.981L183.392 197.564C183.392 196.304 183.343 195.039 183.353 193.764C183.363 192.49 183.353 191.22 183.402 189.96V189.868L183.475 189.824L185.877 188.5L188.26 187.148C189.842 186.226 191.413 185.289 192.973 184.335L193.182 184.208V184.472C193.231 186.64 193.261 188.81 193.274 190.981L193.299 194.233V197.485V197.607L193.201 197.681C191.592 198.955 189.943 200.191 188.338 201.416L183.548 204.981ZM183.548 204.937C185.162 203.624 186.728 202.31 188.265 201.031C189.802 199.751 191.319 198.491 192.876 197.275L192.778 197.471V194.238L192.803 190.986C192.803 188.813 192.842 186.645 192.89 184.476L193.104 184.603C191.502 185.482 189.909 186.379 188.323 187.294L185.965 188.691L183.62 190.117L183.703 189.98C183.732 191.22 183.752 192.446 183.747 193.676C183.742 194.907 183.723 196.118 183.708 197.373L183.548 204.937Z" fill="#3C2829"/>
<path d="M161.613 263.58L135.219 248.593L121.903 240.98C117.463 238.441 113.042 235.833 108.626 233.265L108.422 233.148V232.913L108.558 217.712L108.626 210.109L108.66 202.505C108.689 197.437 108.66 192.368 108.66 187.299C108.66 182.23 108.597 177.161 108.563 172.093V171.634L108.962 171.863C117.794 176.912 126.645 181.918 135.453 187.001L148.677 194.609L161.871 202.266L162.119 202.413V202.701C162.119 207.804 162.119 212.916 162.075 218.019L161.92 233.304L161.613 263.58ZM161.565 263.492L161.263 232.938L161.137 217.8C161.093 212.765 161.103 207.74 161.088 202.706L161.341 203.14L148.142 195.498L134.967 187.792C126.183 182.67 117.458 177.479 108.67 172.327L109.069 172.093C109.04 177.161 108.976 182.23 108.971 187.299C108.967 192.368 108.937 197.437 108.971 202.505L109.001 210.109L109.069 217.712L109.205 232.913L109.001 232.567C113.378 235.096 117.755 237.591 122.132 240.155L135.219 247.841L161.565 263.492Z" fill="#3C2829"/>
<path d="M193.323 184.345L183.698 190.073L183.625 190.117L183.552 190.073L170.421 182.533C166.044 180.01 161.681 177.461 157.333 174.886C152.986 172.311 148.628 169.752 144.26 167.209L131.129 159.655L130.93 159.543L131.129 159.426L140.769 153.756L140.871 153.698L140.968 153.756L154.162 161.35L167.294 169.011L193.323 184.345ZM193.274 184.345L166.856 169.26L153.778 161.716L140.735 154.103H140.934L131.231 159.655V159.426L144.314 167.078C148.691 169.607 153.078 172.115 157.474 174.603C161.871 177.09 166.248 179.61 170.606 182.162L183.698 189.843H183.552L193.274 184.345Z" fill="#3C2829"/>
<path d="M172.167 253.423L164.532 257.852V249.844L172.167 245.419V253.423Z" stroke="#3C2829" stroke-width="0.31" stroke-miterlimit="10"/>
<path d="M182.327 247.68L174.691 252.104V241.371L182.327 236.942V247.68Z" stroke="#3C2829" stroke-width="0.31" stroke-miterlimit="10"/>
<path d="M211.653 185.624L204.188 189.951V181.385L211.653 177.059V185.624Z" stroke="#3C2829" stroke-width="0.31" stroke-miterlimit="10"/>
<path d="M163.841 250.317C163.987 250.571 171.934 245.244 172.109 245.532C172.566 246.328 164.381 251.143 164.814 251.88C165.159 252.485 171.797 246.889 172.206 247.597C172.614 248.305 164.726 253.325 165.11 253.989C165.494 254.654 171.082 249.824 171.384 250.351C171.686 250.879 164.682 255.059 164.886 255.376C165.232 255.972 171.029 251.03 171.369 251.616C171.598 252.021 164.624 256.748 165.047 257.476C165.47 258.204 172.541 252.505 172.828 252.974" stroke="#3C2829" stroke-width="0.4" stroke-linecap="round" stroke-linejoin="round"/>
<path d="M175.343 241.063C175.664 241.625 182.152 236.278 182.531 236.898C182.978 237.674 174.492 241.903 174.832 242.494C175.255 243.227 181.271 238.099 181.553 238.588C181.733 238.895 173.966 244.448 174.433 245.278C174.847 245.996 182.122 240.307 182.346 240.692C182.691 241.298 174.535 247.163 174.822 247.661C175.012 247.988 182.925 242.47 183.139 242.841C183.416 243.329 173.354 248.51 173.898 249.477C174.336 250.234 182.322 244.052 182.555 244.457C182.969 245.18 174.195 250.171 174.686 251.025C174.822 251.26 182.584 245.961 182.794 246.328C183.003 246.694 174.852 250.635 175.177 251.211C175.411 251.611 182.891 246.372 183.046 246.65C183.27 247.031 175.241 251.338 175.401 251.616C175.776 252.266 181.967 247.06 182.288 247.622" stroke="#3C2829" stroke-width="0.4" stroke-linecap="round" stroke-linejoin="round"/>
<path d="M203.507 181.854C203.896 182.528 211.405 176.317 211.819 177.035C212.281 177.84 203.016 183.602 203.458 184.359C203.609 184.628 210.389 179.378 210.807 180.101C211.225 180.824 203.672 186.176 203.794 186.425C203.915 186.674 210.681 181.542 211.065 182.211C211.293 182.611 203.77 187.866 203.959 188.198C204.319 188.818 210.637 183.402 211.036 184.096C211.206 184.394 204.655 187.411 204.947 187.919C205.146 188.266 210.666 183.651 211.074 184.364C211.561 185.204 203.142 190.004 203.342 190.356C203.492 190.615 210.797 185.043 211.225 185.785" stroke="#3C2829" stroke-width="0.4" stroke-linecap="round" stroke-linejoin="round"/>
<path d="M162.61 16.0439L215.067 46.4519L193.989 58.6746L184.316 64.2805L162.28 77.0551L109.818 46.6423L131.854 33.8726L141.527 28.2618L162.61 16.0439Z" fill="#F4ECD5"/>
<path d="M141.713 28.3329L132.156 33.9363L183.902 64.1409L193.756 58.487L141.713 28.3329Z" fill="#FFFBEF"/>
<path d="M162.635 16C167.054 18.4579 171.46 20.9321 175.854 23.4225L189.024 30.9232L202.155 38.4775C206.532 40.9875 210.909 43.561 215.286 46.1003L215.894 46.4519L215.286 46.8034L202.009 54.3383L195.375 58.1033L188.761 61.9024C184.34 64.4222 179.963 66.9859 175.586 69.5496C171.209 72.1133 166.832 74.7063 162.455 77.2846L162.323 77.3627L162.192 77.2846C153.438 72.2695 144.621 67.2886 135.866 62.2442L122.735 54.685L109.604 47.0769L108.85 46.6374L109.604 46.2028L122.823 38.585L136.061 31.0111L149.328 23.4762L162.586 16L162.635 16.083L149.537 23.8962L136.406 31.6654L123.251 39.4005L110.071 47.0769V46.2028L123.202 53.8011L136.294 61.4483C145.024 66.5415 153.715 71.7031 162.426 76.8207H162.163C166.574 74.3009 171.005 71.8007 175.406 69.2566C179.807 66.7124 184.223 64.1829 188.605 61.6045L195.186 57.7517L201.751 53.8451L214.883 46.0807V46.7839C210.506 44.2544 206.128 41.7542 201.751 39.2003L188.654 31.5726L175.586 23.8669C171.251 21.2885 166.918 18.6939 162.586 16.083L162.635 16Z" fill="#3C2829"/>
<path d="M215.058 46.4421V107.263L162.27 137.866V77.0405L215.058 46.4421Z" fill="#A59379"/>
<path d="M215.106 46.4421C215.194 51.5109 215.262 56.5797 215.311 61.6485L215.427 76.8501L215.481 92.0565C215.51 97.1253 215.481 102.194 215.481 107.263V107.497L215.277 107.614L201.995 115.13L195.361 118.895L188.747 122.689C184.331 125.214 179.939 127.777 175.552 130.341C171.165 132.905 166.798 135.498 162.421 138.076L162.022 138.31V137.847C161.959 127.709 161.857 117.571 161.827 107.434L161.779 92.2274V76.7524L162.032 76.6059L175.246 68.9832L188.469 61.4141L201.737 53.8842L215.033 46.4031L215.082 46.491L201.98 54.3042L188.849 62.0734L175.717 69.7987L162.538 77.48L162.79 77.0454V92.2469L162.737 107.453C162.713 117.591 162.61 127.728 162.547 137.866L162.148 137.632C166.564 135.107 170.995 132.612 175.392 130.068C179.788 127.523 184.209 124.994 188.591 122.416L195.161 118.548L201.722 114.641L214.854 106.877L214.654 107.229C214.654 102.16 214.606 97.0911 214.63 92.0223L214.683 76.8159L214.8 61.6144C214.849 56.5456 214.918 51.4768 215.009 46.408L215.106 46.4421Z" fill="#3C2829"/>
<path d="M184.238 79.3307L184.082 71.913C184.082 70.6531 184.034 69.3884 184.044 68.1139C184.053 66.8393 184.044 65.5697 184.092 64.3098V64.217L184.165 64.1731L186.568 62.8497L188.956 61.4971C190.531 60.5758 192.101 59.6382 193.663 58.6843L193.873 58.5574V58.8064C193.921 60.9746 193.952 63.1444 193.965 65.3158L193.989 68.568V71.8202V71.9423L193.892 72.0156C192.287 73.2901 190.633 74.5256 189.029 75.7512L184.238 79.3307ZM184.238 79.2867C185.848 77.9731 187.414 76.6595 188.951 75.3801C190.488 74.1007 192.01 72.8457 193.561 71.6249L193.469 71.8202V68.568L193.493 65.3158C193.493 63.1476 193.524 60.9778 193.586 58.8064L193.795 58.9334C192.193 59.8124 190.601 60.7093 189.019 61.624L186.655 63.0207L184.34 64.4466L184.418 64.3098C184.447 65.5502 184.467 66.7514 184.467 68.0064C184.467 69.2614 184.442 70.4481 184.428 71.7079L184.238 79.2867Z" fill="#3C2829"/>
<path d="M162.285 137.847L109.492 107.243V46.4226L162.285 77.0258V137.847Z" fill="#A59379"/>
<path d="M162.304 137.891L135.886 122.943L122.575 115.31C118.134 112.771 113.718 110.164 109.297 107.595L109.093 107.478V107.248L109.224 92.0418L109.293 84.4386L109.327 76.8354C109.356 71.7666 109.327 66.6978 109.327 61.629C109.327 56.5602 109.263 51.4914 109.234 46.4226V45.9636L109.638 46.1931C118.465 51.2424 127.316 56.2477 136.124 61.3312L149.323 68.9344L162.518 76.5913L162.771 76.7378V77.0405C162.771 82.1435 162.771 87.2563 162.722 92.3592L162.596 107.644L162.304 137.891ZM162.255 137.808L161.968 107.248L161.842 92.1102C161.798 87.0756 161.808 82.0507 161.793 77.0161L162.046 77.4507L148.837 69.8182L135.657 62.1222C126.874 56.9997 118.149 51.8089 109.361 46.657L109.759 46.4226C109.73 51.4914 109.667 56.5602 109.662 61.629C109.657 66.6978 109.628 71.7666 109.662 76.8354L109.691 84.4386L109.764 92.0418L109.896 107.248L109.696 106.897C114.073 109.426 118.45 111.921 122.827 114.485L135.905 122.171L162.255 137.808Z" fill="#3C2829"/>
<path d="M194.014 58.6745L184.389 64.4026L184.316 64.4465L184.243 64.4026L171.112 56.8629C166.725 54.3399 162.356 51.7875 158.005 49.2059C153.654 46.6243 149.301 44.0688 144.946 41.5393L131.815 33.9849L131.616 33.8726L131.815 33.7554L141.454 28.0859L141.557 28.0273L141.659 28.0859L154.819 35.6794L167.95 43.3412L194.014 58.6745ZM193.965 58.6745L167.547 43.5902L154.469 36.0456L141.43 28.4327H141.63L131.903 33.9849V33.7554L145.01 41.3928C149.383 43.9223 153.769 46.4306 158.165 48.9178C162.562 51.405 166.939 53.9248 171.296 56.4771L184.379 64.1389H184.233L193.965 58.6745Z" fill="#3C2829"/>
<path d="M172.858 127.753L165.222 132.182V124.173L172.858 119.749V127.753Z" stroke="#3C2829" stroke-width="0.31" stroke-miterlimit="10"/>
<path d="M183.017 122.01L175.382 126.434V115.701L183.017 111.277V122.01Z" stroke="#3C2829" stroke-width="0.31" stroke-miterlimit="10"/>
<path d="M212.344 59.9491L204.879 64.2805V55.7153L212.344 51.3888V59.9491Z" stroke="#3C2829" stroke-width="0.31" stroke-miterlimit="10"/>
<path d="M107.469 169.343L54.681 138.74V77.9194L107.469 108.523V169.343Z" fill="#A59379"/>
<path d="M164.532 124.647C164.677 124.901 172.629 119.573 172.799 119.862C173.261 120.657 165.071 125.472 165.504 126.21C165.85 126.81 172.488 121.214 172.897 121.922C173.305 122.63 165.417 127.655 165.801 128.314C166.185 128.974 171.773 124.149 172.08 124.676C172.386 125.204 165.373 129.389 165.553 129.706C165.898 130.302 171.7 125.36 172.036 125.951C172.269 126.351 165.29 131.078 165.713 131.811C166.136 132.543 173.208 126.84 173.495 127.308" stroke="#3C2829" stroke-width="0.4" stroke-linecap="round" stroke-linejoin="round"/>
<path d="M176.038 115.398C176.359 115.955 182.847 110.608 183.222 111.228C183.669 112.004 175.182 116.233 175.523 116.824C175.946 117.557 181.962 112.429 182.249 112.918C182.424 113.22 174.657 118.777 175.124 119.603C175.537 120.321 182.813 114.632 183.037 115.017C183.368 115.618 175.226 121.478 175.513 121.996C175.703 122.323 183.621 116.805 183.83 117.176C184.112 117.664 174.044 122.845 174.589 123.812C175.027 124.569 183.013 118.387 183.246 118.792C183.659 119.515 174.886 124.506 175.377 125.36C175.513 125.594 183.275 120.296 183.484 120.662C183.693 121.029 175.542 124.969 175.873 125.546C176.102 125.946 183.582 120.711 183.742 120.985C183.961 121.366 175.931 125.673 176.092 125.951C176.466 126.6 182.658 121.395 182.979 121.956" stroke="#3C2829" stroke-width="0.4" stroke-linecap="round" stroke-linejoin="round"/>
<path d="M204.198 56.1841C204.587 56.858 212.096 50.6465 212.509 51.3644C212.996 52.1701 203.707 57.9323 204.149 58.6892C204.305 58.9578 211.084 53.7083 211.498 54.431C211.911 55.1538 204.363 60.496 204.504 60.7451C204.645 60.9941 211.391 55.8618 211.799 56.5308C212.028 56.9313 204.504 62.1856 204.699 62.5177C205.054 63.1379 211.371 57.7224 211.77 58.4158C211.94 58.7136 205.389 61.7315 205.681 62.2393C205.88 62.5861 211.405 57.9714 211.814 58.6843C212.3 59.5243 203.877 64.3245 204.076 64.6761C204.227 64.9349 211.532 59.3631 211.96 60.1054" stroke="#3C2829" stroke-width="0.4" stroke-linecap="round" stroke-linejoin="round"/>
<path d="M107.799 47.5409L160.256 77.9488L139.178 90.1716L129.505 95.7775L107.469 108.552L55.0067 78.1393L77.043 65.3696L86.7164 59.7588L107.799 47.5409Z" fill="#F4ECD5"/>
<path d="M107.824 47.4969C112.24 49.9386 116.644 52.4127 121.038 54.9195L134.213 62.4201L147.344 69.9745C151.721 72.4845 156.098 75.0579 160.446 77.5972L161.059 77.9488L160.446 78.3004L147.193 85.8303L140.569 89.6002L133.955 93.3945C129.539 95.9191 125.152 98.4828 120.76 101.047C116.369 103.61 112.006 106.203 107.629 108.782L107.498 108.86L107.362 108.782C98.6075 103.766 89.7949 98.7856 81.0359 93.7412L67.9046 86.1819L54.7733 78.5739L54 78.1344L54.7538 77.6998L67.9678 70.0819L81.2353 62.508L94.4784 54.9732L107.775 47.4969L107.824 47.58L94.7216 55.3931L81.5903 63.1624L68.459 70.8876L55.2548 78.5739V77.6998L68.3861 85.2981L81.4736 92.9452C90.2278 98.0384 98.8993 103.2 107.61 108.318H107.342C111.758 105.798 116.189 103.298 120.59 100.754C124.992 98.2093 129.383 95.6798 133.76 93.1015L140.36 89.2486L146.921 85.342L160.052 77.5777V78.2809C155.675 75.7513 151.298 73.2511 146.921 70.6972L133.838 63.0696L120.785 55.3638C116.437 52.7855 112.1 50.1909 107.775 47.58L107.824 47.4969Z" fill="#3C2829"/>
<path d="M160.242 77.939V138.76L107.454 169.363V108.537L160.242 77.939Z" fill="#A59379"/>
<path d="M87.0609 59.9034L77.5034 65.5068L129.25 95.7114L139.103 90.0575L87.0609 59.9034Z" fill="#FFFBEF"/>
<path d="M160.29 77.939C160.381 83.0078 160.451 88.0766 160.5 93.1454L160.616 108.347L160.67 123.553C160.67 128.622 160.67 133.691 160.645 138.76V138.994L160.446 139.111L147.183 146.646L140.569 150.411L133.935 154.196C129.519 156.72 125.128 159.284 120.736 161.848C116.344 164.411 111.982 167.004 107.605 169.583L107.211 169.817V169.353C107.152 159.216 107.045 149.078 107.021 138.94L106.973 123.734V108.249L107.225 108.103L120.415 100.48L133.658 92.9061L146.921 85.3761L160.217 77.895L160.266 77.9829L147.169 85.7961L134.038 93.5653L120.906 101.291L107.726 108.972L107.974 108.537V123.739L107.926 138.945C107.926 149.083 107.794 159.22 107.736 169.358L107.337 169.124C111.748 166.599 116.179 164.104 120.58 161.559C124.982 159.015 129.383 156.491 133.76 153.912L140.341 150.059L146.906 146.153L160.038 138.389L159.833 138.74C159.833 133.671 159.785 128.603 159.833 123.534L159.887 108.327L160.004 93.1258C160.052 88.057 160.12 82.9882 160.208 77.9194L160.29 77.939Z" fill="#3C2829"/>
<path d="M129.427 110.828L129.271 103.41C129.271 102.15 129.223 100.885 129.233 99.6108C129.242 98.3363 129.233 97.0666 129.281 95.8068V95.714L129.359 95.67L131.762 94.3467L134.145 92.994C135.727 92.0727 137.298 91.1351 138.857 90.1813L139.066 90.0543V90.3034C139.115 92.4715 139.139 94.6446 139.154 96.8127L139.183 100.065V103.317V103.439L139.086 103.513C137.476 104.787 135.827 106.023 134.222 107.248L129.427 110.828ZM129.427 110.784C131.042 109.47 132.608 108.156 134.145 106.877C135.681 105.598 137.199 104.343 138.755 103.122L138.658 103.317V100.065L138.687 96.8127C138.687 94.6446 138.716 92.4748 138.775 90.3034L138.989 90.4303C137.387 91.3093 135.793 92.2062 134.208 93.121L131.849 94.5176L129.505 95.9435L129.583 95.8068C129.617 97.0471 129.636 98.2484 129.631 99.5034C129.626 100.758 129.607 101.945 129.592 103.205L129.427 110.784Z" fill="#3C2829"/>
<path d="M107.498 169.387L81.0747 154.42L67.7586 146.807C63.3134 144.268 58.8974 141.66 54.4814 139.092L54.2772 138.974V138.745L54.4085 123.539L54.4863 115.935L54.5155 108.332C54.5495 103.263 54.5155 98.1945 54.5155 93.1257C54.5155 88.0569 54.4425 82.9882 54.4133 77.9194V77.4603L54.8121 77.6898C63.6441 82.7391 72.4907 87.7444 81.3033 92.8279L94.527 100.431L107.722 108.088L107.97 108.234V108.523C107.97 113.626 107.97 118.738 107.921 123.841L107.799 139.126L107.498 169.387ZM107.449 169.304L107.143 138.745L107.021 123.607C106.977 118.572 106.987 113.547 106.973 108.513L107.225 108.947L94.0163 101.315L80.8461 93.6434C72.0579 88.5209 63.3134 83.33 54.5495 78.1782L54.9726 77.9194C54.9386 82.9882 54.8802 88.0569 54.8754 93.1257C54.8705 98.1945 54.8413 103.263 54.8754 108.332L54.9094 115.935L54.9726 123.539L55.1088 138.745L54.9045 138.393C59.2816 140.923 63.6587 143.418 68.0358 145.982L81.1136 153.668L107.449 169.304Z" fill="#3C2829"/>
<path d="M139.203 90.1715L129.573 95.8995L129.505 95.9435L129.432 95.8995L116.301 88.3598C111.924 85.8335 107.561 83.2845 103.213 80.7127C98.8653 78.1408 94.5012 75.582 90.1209 73.0362L76.9896 65.4818L76.7902 65.3695L76.9896 65.2523L86.6143 59.5829L86.7116 59.5243L86.8137 59.5829L100.003 67.1763L113.159 74.8381L139.203 90.1715ZM139.154 90.1715L112.736 75.0872L99.6581 67.5426L86.6143 59.9491H86.8137L77.0868 65.5014V65.2719L90.1743 72.9239C94.5514 75.4534 98.9383 77.9618 103.335 80.449C107.731 82.9361 112.108 85.4559 116.466 88.0082L129.544 95.67H129.403L139.154 90.1715Z" fill="#3C2829"/>
<path d="M118.047 159.25L110.411 163.679V155.67L118.047 151.246V159.25Z" stroke="#3C2829" stroke-width="0.31" stroke-miterlimit="10"/>
<path d="M128.206 153.507L120.571 157.931V147.198L128.206 142.774V153.507Z" stroke="#3C2829" stroke-width="0.31" stroke-miterlimit="10"/>
<path d="M157.533 91.4459L150.068 95.7774V87.2122L157.533 82.8856V91.4459Z" stroke="#3C2829" stroke-width="0.31" stroke-miterlimit="10"/>
<path d="M109.72 156.149C109.861 156.403 117.813 151.075 117.988 151.363C118.445 152.159 110.26 156.974 110.693 157.712C111.038 158.312 117.677 152.716 118.086 153.424C118.494 154.132 110.62 159.147 111 159.811C111.379 160.475 116.977 155.646 117.278 156.173C117.58 156.701 110.576 160.881 110.756 161.198C111.102 161.794 116.899 156.852 117.239 157.443C117.468 157.843 110.494 162.57 110.917 163.303C111.34 164.035 118.411 158.332 118.698 158.801" stroke="#3C2829" stroke-width="0.4" stroke-linecap="round" stroke-linejoin="round"/>
<path d="M121.222 146.895C121.543 147.452 128.031 142.105 128.411 142.725C128.853 143.501 120.371 147.73 120.707 148.321C121.13 149.054 127.151 143.926 127.433 144.414C127.613 144.717 119.846 150.274 120.313 151.1C120.726 151.817 128.002 146.128 128.221 146.514C128.571 147.12 120.415 152.985 120.702 153.483C120.887 153.81 128.804 148.292 129.018 148.663C129.296 149.151 119.233 154.332 119.778 155.299C120.216 156.056 128.201 149.874 128.43 150.279C128.848 151.002 120.075 155.993 120.566 156.847C120.702 157.082 128.464 151.783 128.673 152.149C128.882 152.516 120.731 156.457 121.057 157.033C121.29 157.433 128.77 152.198 128.926 152.472C129.15 152.853 121.12 157.16 121.281 157.438C121.655 158.088 127.842 152.882 128.167 153.444" stroke="#3C2829" stroke-width="0.4" stroke-linecap="round" stroke-linejoin="round"/>
<path d="M149.387 87.681C149.776 88.3548 157.285 82.1434 157.698 82.8612C158.16 83.6669 148.895 89.4292 149.338 90.1861C149.489 90.4546 156.268 85.2052 156.687 85.9279C157.105 86.6506 149.552 91.9929 149.693 92.2419C149.834 92.491 156.58 87.3587 156.988 88.0277C157.217 88.4281 149.693 93.6825 149.883 94.0145C150.238 94.6347 156.56 89.2192 156.959 89.9126C157.129 90.2105 150.578 93.2283 150.87 93.7362C151.069 94.0829 156.589 89.4682 156.998 90.1812C157.484 91.0211 149.066 95.8213 149.265 96.1729C149.416 96.4317 156.721 90.86 157.149 91.6022" stroke="#3C2829" stroke-width="0.4" stroke-linecap="round" stroke-linejoin="round"/>
<path d="M216.731 47.5409L269.188 77.9488L248.11 90.1716L238.436 95.7775L216.4 108.552L163.938 78.1393L185.974 65.3696L195.648 59.7588L216.731 47.5409Z" fill="#F4ECD5"/>
<path d="M216.755 47.4969C221.171 49.9386 225.577 52.4127 229.974 54.9195L243.149 62.4201L256.28 69.9745C260.657 72.4845 265.01 75.0579 269.382 77.5972L269.99 77.9488L269.382 78.3004L256.13 85.8303L249.51 89.6002L242.896 93.3945C238.48 95.9191 234.088 98.4828 229.697 101.047C225.305 103.61 220.943 106.203 216.565 108.782L216.434 108.86L216.298 108.782C207.544 103.766 198.726 98.7856 189.972 93.7412L176.841 86.1819L163.71 78.5739L162.956 78.1344L163.71 77.6998L176.924 70.0819L190.167 62.508L203.429 54.9732L216.706 47.4969L216.755 47.58L203.658 55.3931L190.527 63.1624L177.371 70.8876L164.191 78.5641V77.69L177.322 85.2883L190.415 92.9354C199.169 98.0287 207.836 103.19 216.551 108.308H216.283C220.699 105.788 225.125 103.288 229.527 100.744C233.928 98.1996 238.324 95.6798 242.702 93.1015L249.296 89.2486L255.857 85.342L268.988 77.5777V78.2809C264.611 75.7513 260.234 73.2511 255.857 70.6972L242.775 63.0696L229.721 55.3638C225.373 52.7855 221.035 50.1909 216.706 47.58L216.755 47.4969Z" fill="#3C2829"/>
<path d="M195.857 59.886L186.299 65.4894L238.046 95.694L247.899 90.0401L195.857 59.886Z" fill="#FFFBEF"/>
<path d="M269.178 77.939V138.76L216.39 169.363V108.537L269.178 77.939Z" fill="#DACCBB"/>
<path d="M238.375 110.805L238.331 95.8948L247.792 90.3197L247.911 103.266L238.375 110.805Z" fill="#D8D2C3"/>
<path d="M269.227 77.939C269.314 83.0078 269.382 88.0766 269.431 93.1454L269.548 108.347L269.601 123.553C269.63 128.622 269.601 133.691 269.601 138.76V138.994L269.397 139.111L256.134 146.646L249.501 150.411L242.867 154.196C238.451 156.72 234.064 159.284 229.672 161.848C225.281 164.411 220.918 167.004 216.541 169.583L216.142 169.817V169.353C216.079 159.216 215.977 149.078 215.953 138.94L215.904 123.734V108.249L216.157 108.103L229.351 100.48L242.594 92.9061L255.857 85.3761L269.154 77.895L269.202 77.9829L256.105 85.7961L242.974 93.5653L229.818 101.291L216.638 108.972L216.891 108.537V123.739L216.843 138.945C216.813 149.083 216.711 159.22 216.648 169.358L216.249 169.124C220.665 166.599 225.096 164.104 229.497 161.559C233.899 159.015 238.324 156.491 242.701 153.912L249.287 150.059L255.847 146.153L268.979 138.389L268.779 138.74C268.779 133.671 268.731 128.603 268.755 123.534L268.808 108.327L268.925 93.1258C268.974 88.057 269.044 82.9882 269.134 77.9194L269.227 77.939Z" fill="#3C2829"/>
<path d="M238.358 110.828L238.208 103.41C238.208 102.15 238.154 100.885 238.169 99.6108C238.183 98.3363 238.169 97.0666 238.213 95.8068V95.714L238.29 95.67L240.693 94.3467L243.076 92.994C244.652 92.0727 246.221 91.1351 247.784 90.1813L247.993 90.0543V90.3034C248.042 92.4715 248.072 94.6413 248.085 96.8127L248.11 100.065V103.317V103.439L248.017 103.513C246.407 104.787 244.759 106.023 243.154 107.248L238.358 110.828ZM238.383 110.784C239.993 109.47 241.559 108.156 243.095 106.877C244.632 105.598 246.155 104.343 247.706 103.122L247.614 103.317V100.065L247.638 96.8127C247.638 94.6446 247.669 92.4748 247.73 90.3034L247.944 90.4303C246.323 91.3093 244.73 92.2062 243.164 93.121L240.8 94.5176L238.461 95.9435L238.538 95.8068C238.568 97.0471 238.592 98.2484 238.587 99.5034C238.582 100.758 238.587 101.945 238.548 103.205L238.383 110.784Z" fill="#3C2829"/>
<path d="M216.405 169.343L163.612 138.74V77.9194L216.405 108.523V169.343Z" fill="#A59379"/>
<path d="M216.439 169.387L190.021 154.42L176.705 146.807C172.259 144.268 167.843 141.66 163.423 139.092L163.218 138.974V138.745L163.35 123.539L163.423 115.935L163.452 108.332C163.481 103.263 163.452 98.1945 163.452 93.1257C163.452 88.0569 163.389 82.9882 163.359 77.9194V77.4603L163.763 77.6898C172.59 82.7391 181.442 87.7444 190.254 92.8279L203.473 100.436L216.667 108.093L216.92 108.239V108.527C216.92 113.63 216.92 118.743 216.872 123.846L216.745 139.131L216.439 169.387ZM216.39 169.304L216.084 138.745L215.957 123.607C215.914 118.572 215.923 113.547 215.914 108.513L216.162 108.947L202.962 101.305L189.778 93.6434C180.994 88.5209 172.269 83.33 163.481 78.1782L163.88 77.9438C163.851 83.0126 163.787 88.0814 163.787 93.1502C163.787 98.219 163.748 103.288 163.787 108.357L163.816 115.96L163.889 123.563L164.021 138.769L163.821 138.418C168.198 140.947 172.576 143.443 176.953 146.006L190.035 153.693L216.39 169.304Z" fill="#3C2829"/>
<path d="M226.983 159.25L219.347 163.679V155.67L226.983 151.246V159.25Z" stroke="#3C2829" stroke-width="0.31" stroke-miterlimit="10"/>
<path d="M237.138 153.507L229.502 157.931V147.198L237.138 142.774V153.507Z" stroke="#3C2829" stroke-width="0.31" stroke-miterlimit="10"/>
<path d="M266.464 91.4459L258.999 95.7774V87.2122L266.464 82.8856V91.4459Z" stroke="#3C2829" stroke-width="0.31" stroke-miterlimit="10"/>
<path d="M161.589 200.84L108.801 170.242V109.416L161.589 140.019V200.84Z" fill="#A59379"/>
<path d="M218.652 156.149C218.798 156.403 226.749 151.075 226.92 151.363C227.406 152.159 219.192 156.974 219.625 157.712C219.97 158.312 226.613 152.716 227.017 153.424C227.421 154.132 219.552 159.147 219.936 159.811C220.32 160.475 225.908 155.646 226.214 156.173C226.521 156.701 219.508 160.881 219.693 161.198C220.033 161.794 225.835 156.852 226.171 157.443C226.404 157.843 219.43 162.57 219.848 163.303C220.266 164.035 227.343 158.332 227.63 158.801" stroke="#3C2829" stroke-width="0.4" stroke-linecap="round" stroke-linejoin="round"/>
<path d="M230.159 146.895C230.48 147.452 236.967 142.105 237.342 142.725C237.789 143.501 229.303 147.73 229.643 148.321C230.066 149.054 236.087 143.926 236.369 144.414C236.544 144.717 228.782 150.274 229.244 151.1C229.658 151.817 236.933 146.128 237.157 146.514C237.502 147.12 229.351 152.985 229.633 153.483C229.823 153.81 237.741 148.292 237.955 148.663C238.232 149.151 228.165 154.332 228.714 155.299C229.147 156.056 237.133 149.874 237.366 150.279C237.78 151.002 229.006 155.993 229.502 156.847C229.633 157.082 237.395 151.783 237.609 152.149C237.823 152.516 229.667 156.457 229.993 157.033C230.222 157.433 237.702 152.198 237.862 152.472C238.081 152.853 230.056 157.16 230.212 157.438C230.587 158.088 236.778 152.882 237.099 153.444" stroke="#3C2829" stroke-width="0.4" stroke-linecap="round" stroke-linejoin="round"/>
<path d="M258.318 87.681C258.707 88.3548 266.221 82.1434 266.63 82.8612C267.116 83.6669 257.832 89.4292 258.269 90.1861C258.425 90.4546 265.205 85.2052 265.618 85.9279C266.031 86.6506 258.483 91.9929 258.629 92.2419C258.775 92.491 265.516 87.3587 265.895 88.0277C266.124 88.4281 258.6 93.6825 258.795 94.0145C259.15 94.6347 265.467 89.2192 265.866 89.9126C266.036 90.2105 259.49 93.2283 259.777 93.7362C259.976 94.0829 265.501 89.4682 265.91 90.1812C266.396 91.0211 257.973 95.8213 258.172 96.1729C258.323 96.4317 265.633 90.86 266.056 91.6022" stroke="#3C2829" stroke-width="0.4" stroke-linecap="round" stroke-linejoin="round"/>
<path d="M161.92 79.0377L214.377 109.446L193.299 121.668L183.625 127.274L161.589 140.049L109.127 109.636L131.163 96.8664L140.837 91.2556L161.92 79.0377Z" fill="#F4ECD5"/>
<path d="M161.968 78.9938C166.384 81.4517 170.791 83.9258 175.187 86.4163L188.357 93.9169L201.489 101.471C205.866 103.981 210.243 106.555 214.591 109.094L215.204 109.446L214.591 109.797L201.314 117.332L194.685 121.097L188.066 124.896C183.65 127.421 179.263 129.985 174.871 132.548C170.479 135.112 166.117 137.705 161.74 140.283L161.609 140.361L161.472 140.283C152.718 135.268 143.906 130.287 135.147 125.243L122.015 117.684L108.884 110.076L108.13 109.636L108.884 109.201L122.088 101.579L135.331 94.0048L148.599 86.47L161.895 78.9938L161.944 79.0768L148.842 86.89L135.706 94.669L122.575 102.394L109.39 110.071V109.197L122.521 116.795L135.609 124.442C144.363 129.535 153.034 134.697 161.745 139.814H161.482C165.893 137.295 170.324 134.795 174.725 132.25C179.127 129.706 183.538 127.177 187.925 124.598L194.505 120.745L201.07 116.839L214.202 109.075V109.778C209.825 107.248 205.448 104.748 201.07 102.194L187.983 94.5469L174.905 86.8607C170.557 84.2823 166.221 81.6877 161.895 79.0768L161.968 78.9938Z" fill="#3C2829"/>
<path d="M214.362 109.436V170.256L161.574 200.86V140.034L214.362 109.436Z" fill="#DACCBB"/>
<path d="M141.256 91.437L131.698 97.0404L183.445 127.245L193.298 121.591L141.256 91.437Z" fill="#FFFBEF"/>
<path d="M183.579 142.324L183.535 127.414L192.997 121.839L193.116 134.786L183.579 142.324Z" fill="#D8D2C3"/>
<path d="M214.411 109.436C214.505 114.505 214.575 119.573 214.62 124.642L214.737 139.844L214.79 155.05C214.819 160.119 214.79 165.188 214.766 170.257V170.491L214.566 170.608L201.304 178.123L194.67 181.888L188.056 185.683C183.64 188.207 179.248 190.771 174.856 193.335C170.465 195.898 166.102 198.491 161.725 201.07L161.326 201.304V200.84C161.263 190.703 161.161 180.565 161.132 170.427L161.083 155.221V139.746L161.336 139.6L174.55 131.977L187.779 124.408L201.046 116.878L214.338 109.397L214.387 109.485L201.289 117.298L188.158 125.067L175.002 132.792L161.822 140.474L162.071 140.039V155.241L162.022 170.447C162.022 180.585 161.895 190.722 161.832 200.86L161.433 200.625C165.849 198.101 170.28 195.605 174.677 193.061C179.073 190.517 183.494 187.988 187.876 185.409L194.466 181.542L201.032 177.635L214.163 169.871L213.959 170.222C213.959 165.154 213.91 160.085 213.959 155.016L214.012 139.81L214.129 124.608C214.177 119.539 214.245 114.47 214.333 109.402L214.411 109.436Z" fill="#3C2829"/>
<path d="M183.548 142.324L183.392 134.907C183.392 133.647 183.343 132.382 183.353 131.108C183.363 129.833 183.353 128.563 183.402 127.303V127.211L183.475 127.167L185.877 125.843L188.26 124.491C189.842 123.569 191.413 122.632 192.973 121.678L193.182 121.551V121.8C193.231 123.968 193.261 126.138 193.274 128.309L193.299 131.562V134.814V134.936L193.201 135.009C191.592 136.284 189.943 137.519 188.338 138.745L183.548 142.324ZM183.548 142.28C185.162 140.967 186.728 139.653 188.265 138.374C189.802 137.094 191.319 135.839 192.876 134.619L192.778 134.814V131.562L192.803 128.309C192.803 126.141 192.842 123.968 192.89 121.8L193.104 121.927C191.502 122.806 189.909 123.703 188.323 124.618L185.965 126.014L183.62 127.44L183.703 127.303C183.732 128.544 183.752 129.745 183.747 131C183.742 132.255 183.723 133.442 183.708 134.702L183.548 142.28Z" fill="#3C2829"/>
<path d="M161.613 200.884L135.219 185.937L121.903 178.324C117.463 175.784 113.042 173.177 108.626 170.608L108.422 170.491V170.261L108.558 155.055L108.626 147.452L108.66 139.849C108.689 134.78 108.66 129.711 108.66 124.642C108.66 119.573 108.597 114.505 108.563 109.436V108.977L108.962 109.206C117.794 114.256 126.645 119.261 135.453 124.344L148.677 131.952L161.871 139.609L162.119 139.756V140.034C162.119 145.137 162.119 150.25 162.075 155.353L161.949 170.637L161.613 200.884ZM161.565 200.801L161.263 170.242L161.137 155.104C161.093 150.069 161.103 145.044 161.088 140.01L161.341 140.444L148.142 132.802L134.967 125.106C126.183 119.984 117.458 114.793 108.67 109.641L109.069 109.407C109.04 114.475 108.976 119.544 108.971 124.613C108.967 129.682 108.937 134.751 108.971 139.819L109.001 147.423L109.069 155.026L109.205 170.232L109.001 169.881C113.378 172.41 117.755 174.905 122.132 177.469L135.219 185.165L161.565 200.801Z" fill="#3C2829"/>
<path d="M193.323 121.668L183.698 127.396L183.625 127.44L183.552 127.396L170.421 119.857C166.044 117.33 161.681 114.781 157.333 112.21C152.985 109.638 148.621 107.079 144.241 104.533L131.11 96.9788L130.91 96.8665L131.11 96.7493L140.749 91.0798L140.851 91.0212L140.948 91.0798L154.143 98.6733L167.274 106.335L193.323 121.668ZM193.274 121.668L166.856 106.584L153.778 99.0395L140.734 91.4265H140.934L131.231 96.9788V96.7493L144.314 104.387C148.691 106.916 153.078 109.425 157.474 111.912C161.871 114.399 166.248 116.919 170.606 119.471L183.688 127.133H183.542L193.274 121.668Z" fill="#3C2829"/>
<path d="M172.167 190.747L164.532 195.176V187.167L172.167 182.743V190.747Z" stroke="#3C2829" stroke-width="0.31" stroke-miterlimit="10"/>
<path d="M182.327 185.004L174.691 189.428V178.695L182.327 174.271V185.004Z" stroke="#3C2829" stroke-width="0.31" stroke-miterlimit="10"/>
<path d="M211.653 122.943L204.188 127.274V118.709L211.653 114.383V122.943Z" stroke="#3C2829" stroke-width="0.31" stroke-miterlimit="10"/>
<path d="M163.841 187.641C163.987 187.895 171.934 182.567 172.109 182.855C172.566 183.651 164.381 188.466 164.814 189.203C165.159 189.804 171.797 184.208 172.206 184.916C172.614 185.624 164.726 190.649 165.11 191.308C165.494 191.967 171.082 187.143 171.384 187.67C171.686 188.198 164.682 192.382 164.886 192.7C165.232 193.296 171.029 188.354 171.369 188.945C171.598 189.345 164.624 194.072 165.047 194.805C165.47 195.537 172.541 189.833 172.828 190.302" stroke="#3C2829" stroke-width="0.4" stroke-linecap="round" stroke-linejoin="round"/>
<path d="M175.343 178.392C175.664 178.949 182.152 173.601 182.531 174.222C182.978 174.998 174.492 179.227 174.832 179.818C175.255 180.55 181.271 175.423 181.553 175.911C181.733 176.214 173.966 181.771 174.433 182.596C174.847 183.314 182.122 177.625 182.346 178.011C182.691 178.617 174.535 184.481 174.822 184.979C175.012 185.307 182.925 179.789 183.139 180.16C183.416 180.648 173.354 185.829 173.898 186.796C174.336 187.553 182.322 181.371 182.555 181.776C182.969 182.499 174.195 187.489 174.686 188.344C174.822 188.578 182.584 183.28 182.794 183.646C183.003 184.013 174.852 187.953 175.177 188.53C175.411 188.93 182.891 183.695 183.046 183.969C183.27 184.349 175.241 188.657 175.401 188.935C175.776 189.584 181.967 184.379 182.288 184.94" stroke="#3C2829" stroke-width="0.4" stroke-linecap="round" stroke-linejoin="round"/>
<path d="M203.507 119.178C203.896 119.852 211.405 113.64 211.819 114.358C212.281 115.164 203.016 120.926 203.458 121.683C203.609 121.952 210.389 116.702 210.807 117.425C211.225 118.148 203.672 123.5 203.794 123.749C203.915 123.998 210.681 118.865 211.065 119.534C211.293 119.935 203.77 125.189 203.959 125.521C204.319 126.141 210.637 120.726 211.036 121.419C211.206 121.717 204.655 124.735 204.947 125.243C205.146 125.59 210.666 120.975 211.074 121.688C211.561 122.528 203.142 127.328 203.342 127.68C203.492 127.938 210.797 122.367 211.225 123.109" stroke="#3C2829" stroke-width="0.4" stroke-linecap="round" stroke-linejoin="round"/>
<path d="M248.134 90.1715L238.509 95.8995L238.441 95.9435L238.363 95.8995L225.232 88.3598C220.855 85.8335 216.491 83.2845 212.14 80.7127C207.789 78.1408 203.426 75.582 199.052 73.0362L185.921 65.4818L185.721 65.3695L185.921 65.2523L195.56 59.5829L195.658 59.5243L195.76 59.5829L208.949 67.1763L222.081 74.8381L248.134 90.1715ZM248.085 90.1715L221.667 75.0872L208.589 67.5426L195.551 59.9491H195.75L186.023 65.5014V65.2719L199.111 72.9239C203.481 75.4534 207.858 77.9618 212.242 80.449C216.625 82.9361 221.003 85.4559 225.373 88.0082L238.456 95.67H238.31L248.085 90.1715Z" fill="#3C2829"/>
</svg>
