<svg xmlns="http://www.w3.org/2000/svg" width="324" height="280" fill="none"  xmlns:v="https://vecta.io/nano"><style><![CDATA[.B{fill:#3c2829}.C{stroke:#3c2829}.D{stroke-miterlimit:10}.E{stroke-linecap:round}.F{stroke-linejoin:round}]]></style><g fill="#f6b289"><path d="M45.992 176.457a23.7 23.7 0 0 0-1.779-2.895c-.67-.902-1.417-1.743-2.233-2.515-1.556-1.67-3.59-2.823-5.826-3.304-2.202-.478-4.479-.496-6.689-.053a17.05 17.05 0 0 0-6.226 2.551l-.044-.053a12.7 12.7 0 0 1 4.449-2.745c1.658-.598 3.424-.845 5.183-.727a12.15 12.15 0 0 1 3.424.647 19.15 19.15 0 0 1 3.184 1.363 15.69 15.69 0 0 1 2.944 1.922c1.767 1.538 3.044 3.558 3.673 5.809h-.062z"/><path d="M43.76 190.671l1.716-3.312c.311-.539.579-1.102.8-1.683.193-.593.304-1.21.329-1.833.074-1.231.051-2.466-.071-3.693-.113-1.237-.294-2.467-.542-3.684h.062a9.6 9.6 0 0 1 1.183 3.631c.139 1.278.048 2.57-.267 3.817l-.489 1.842-.498 1.842a8.03 8.03 0 0 1-2.179 3.126l-.044-.053z"/><path d="M22.716 192.557c1.599 1.11 3.34 2.004 5.176 2.657a13.16 13.16 0 0 0 2.811.77 10.43 10.43 0 0 0 2.926-.044 16.8 16.8 0 0 0 5.47-1.771 18.96 18.96 0 0 0 4.661-3.463h.044a12.26 12.26 0 0 1-4.367 4.047c-1.772.968-3.752 1.499-5.772 1.55a22.42 22.42 0 0 1-2.989-.106c-1-.062-1.991-.216-2.962-.461a11.21 11.21 0 0 1-5.043-3.126l.045-.053z"/><path d="M23.24 170.258a20.38 20.38 0 0 0-3.771 5.013 13.03 13.03 0 0 0-1.245 2.895 10.95 10.95 0 0 0-.338 3.135 16.58 16.58 0 0 0 1.37 6.04 17.71 17.71 0 0 0 3.46 5.216v.053a12.53 12.53 0 0 1-4.065-4.986 13.14 13.14 0 0 1-1.085-6.349 22.28 22.28 0 0 1 .489-3.179 16.48 16.48 0 0 1 .961-3.082 11.53 11.53 0 0 1 4.225-4.826v.07zm4.021 16.242l14.107-12.46 14.231-12.398 14.231-12.283 14.302-12.239 43.298-36.264 14.337-12.203.214-.195 7.489 8.094 21.987 23.494-.952-.053 29.512-25.894 29.618-25.797 29.77-25.566 14.969-12.752 15.032-12.637.116.133-14.596 13.142-14.632 13.062-29.458 25.965-29.618 25.779-30.286 26.063-.444-.496-21.507-23.91-7.205-7.97h.418l-14.329 12.204L85.172 138.3l-14.356 12.177-14.391 12.167-14.462 12.044-14.551 11.946-.151-.132z"/><path d="M302.89 5.215L282.317 9.66l14.151 15.524 6.422-19.97zM32.58 191.433c5.585 0 10.113-4.508 10.113-10.069s-4.528-10.069-10.113-10.069-10.113 4.508-10.113 10.069 4.528 10.069 10.113 10.069z"/></g><path d="M303.433 193.035l-147.007 84.501c-3.772 2.17-10.371 1.896-14.729-.611l-82.638-47.502c-4.358-2.506-4.839-6.296-1.058-8.466l146.998-84.501c3.78-2.169 10.371-1.904 14.738.602l82.638 47.511c4.358 2.515 4.83 6.297 1.059 8.466z" fill="#aba9a0" stroke-width=".9" class="C D"/><path d="M212.816 65.141l71.422 41.055-71.867 41.312-71.422-41.011 71.867-41.356z" fill="#f4ecd5"/><path d="M212.852 65.088l17.993 10.016 35.862 20.315 18.67 10.768-18.927 10.663-9.019 5.083-9.019 5.127-17.958 10.335-18.056 10.547-36.031-20.412-17.878-10.202-18.909-10.875 19.016-10.866 18.091-10.237 18.029-10.175 18.109-10.087.062.106-17.788 10.547-17.878 10.494-17.878 10.423-18.056 10.378v-1.177l17.878 10.255 17.789 10.325 35.578 20.749h-.365l18.038-10.21 17.94-10.326 8.957-5.207 8.938-5.269 17.878-10.486v.948L266.04 96.402l-17.771-10.273-17.788-10.406-17.709-10.512.08-.124z" class="B"/><path d="M284.221 106.178v82.111l-71.867 41.303V147.49l71.867-41.312z" fill="#daccbb"/><path d="M284.309 106.179l.285 20.527.16 20.528.071 20.527v20.846l-.267.16-18.055 10.14-9.01 5.109-9.002 5.128-17.966 10.326-18.421 10.759v-.637l-.258-41.055-.062-20.528v-20.908l.347-.195 17.922-10.299 17.985-10.22 18.047-10.148 18.1-10.105.062.115-17.789 10.548-17.878 10.485-17.877 10.432-17.985 10.405.338-.584v20.518l-.062 20.528-.258 41.064-.543-.319 18.029-10.211 17.94-10.325 8.966-5.225 8.939-5.269 17.878-10.486-.276.479v-20.528l.071-20.527.16-20.528.276-20.527h.133z" class="B"/><path d="M242.273 150.538v-20.262l12.843-7.413.034 17.554-12.877 10.121z" fill="#d8d2c3"/><path d="M242.265 150.581l-.213-10.016-.054-5.127.072-5.261.097-.062 3.274-1.771 3.246-1.833 6.413-3.79.285-.177v.336l.124 8.785v8.989l-.133.097-6.618 5.039-6.493 4.791zm0-.062l6.422-5.314 6.28-5.074-.134.266v-8.856l.125-8.785.284.177-6.502 3.631-3.21 1.886-3.194 1.922.107-.186.062 4.995-.053 4.994-.187 10.344z" class="B"/><path d="M212.371 229.592l-71.867-41.312v-82.128l71.867 41.321v82.119z" fill="#a59379"/><path d="M212.407 229.636l-35.969-20.182-18.127-10.3-18.358-10.573v-.31l.285-30.791v-30.801l-.143-21.147.543.31 36.067 20.43 18.002 10.273 17.967 10.334.329.204v.407l-.062 20.678-.534 61.468zm-.062-.115l-.418-41.25-.169-20.439-.063-20.368.347.584-17.984-10.299-17.931-10.388-35.8-20.881.569-.319-.125 20.527v30.8l.08 10.264.187 20.528-.275-.479 17.877 10.247 17.789 10.378 35.916 21.095z" class="B"/><path d="M184.307 81.611l-13.22 7.554 70.891 40.887 13.41-7.445-71.081-40.995z" fill="#fffbef"/><path d="M255.571 122.694l-13.154 7.776-.098-.062-17.878-10.175-17.851-10.335-17.789-10.352-18.145-10.352.267-.159 13.244-7.731.134.08 17.957 10.255 17.914 10.343 35.399 20.713zm-.062 0l-35.969-20.368-17.789-10.193-17.788-10.273h.266l-13.243 7.492v-.301l17.868 10.361 17.914 10.157 17.878 10.202 17.788 10.343h-.195l13.27-7.421z" class="B"/><g class="C"><path d="M226.771 215.954l-10.397 5.977v-10.812l10.397-5.969v10.804zm13.831-7.758l-10.397 5.978v-14.497l10.397-5.969v14.488zm39.927-83.784l-10.166 5.854V118.7l10.166-5.844v11.556z" stroke-width=".23" class="D"/><path d="M215.431 211.756c.196.346 11.02-6.845 11.26-6.456.623 1.072-10.522 7.572-9.935 8.564.472.815 9.509-6.739 10.069-5.783s-10.184 7.74-9.668 8.626 8.138-5.624 8.547-4.906-9.125 6.349-8.894 6.783c.471.806 8.361-5.871 8.823-5.074.311.54-9.179 6.925-8.61 7.917s10.211-6.695 10.594-6.04m3.477-16.117c.436.752 9.268-6.465 9.784-5.624.605 1.045-10.94 6.757-10.487 7.554.579.983 8.77-5.933 9.162-5.313.24.407-10.336 7.908-9.695 9.024.56.974 10.469-6.713 10.762-6.199.48.823-10.629 8.74-10.237 9.413.258.434 11.038-7.013 11.322-6.509.383.656-13.341 7.652-12.577 8.954.596 1.027 11.465-7.324 11.777-6.775.569.974-11.376 7.713-10.674 8.856.178.318 10.745-6.837 11.029-6.341s-10.806 5.818-10.362 6.598c.312.54 10.496-6.527 10.674-6.199.302.513-10.674 6.331-10.407 6.712.507.886 8.895-6.199 9.375-5.393m28.898-88.699c.533.886 10.753-7.474 11.313-6.5s-11.98 8.856-11.376 9.883c.205.363 9.429-6.721 9.998-5.747s-9.713 8.191-9.517 8.528 9.375-6.598 9.935-5.712c.311.54-9.935 7.633-9.677 8.085.48.833 9.09-6.473 9.632-5.535.232.399-8.689 4.428-8.289 5.154.275.47 7.782-5.756 8.343-4.791.658 1.134-10.798 7.607-10.531 8.086s10.157-7.173 10.735-6.199" stroke-width=".3" class="E F"/></g><path d="M145.788 139.565l49.809 28.657-20.031 11.512-9.188 5.313-20.946 12.044-49.809-28.657 50.165-28.869z" fill="#f4ecd5"/><path d="M145.806 139.529l12.559 6.987 25.029 14.169 13.03 7.51-.578.328-25.216 14.169-12.541 7.217-12.577 7.359-.133-.07-37.463-21.254-12.452-7.164-.729-.425.721-.408 12.558-7.173 12.604-7.138 12.585-7.084 12.631-7.041.044.071-12.452 7.368-12.452 7.315-12.453 7.279-12.549 7.244v-.823l12.453 7.155 12.452 7.209 24.833 14.488h-.249l12.586-7.085 12.523-7.208 6.226-3.631 6.226-3.684 12.452-7.315v.664l-12.452-7.146-12.452-7.191-12.399-7.253-12.363-7.341v-.098z" class="B"/><path d="M195.615 168.213v57.305l-50.156 28.869v-57.349l50.156-28.825z" fill="#daccbb"/><path d="M195.659 168.213l.205 14.319.106 14.329.054 14.329v14.549l-.187.107-12.603 7.084-12.568 7.085-12.541 7.208-12.826 7.51v-.345l-.178-28.657v-28.967l.24-.133 12.55-7.182 12.541-7.138 12.604-7.084 12.639-7.085.044.08-12.452 7.359-12.452 7.323-12.452 7.28-12.524 7.235.232-.407v14.319l-.045 14.329-.178 28.657-.382-.222 12.585-7.084 12.524-7.209 6.226-3.648 6.226-3.675 12.452-7.315-.196.327v-14.328l.054-14.329.106-14.319.196-14.329z" class="B"/><path d="M166.332 199.176l.107-13.935 8.869-5.21v12.078l-8.976 7.067z" fill="#d8d2c3"/><path d="M166.334 199.199l-.142-6.987v-3.543l.053-3.63h.071l2.286-1.249 2.259-1.275 4.447-2.657.196-.115v.23l.08 6.137v6.243l-.089.062-4.616 3.543-4.545 3.241zm0-.045l4.447-3.683 4.385-3.543-.098.186v-6.128l.08-6.137.205.124-4.545 2.533-2.126 1.319-2.223 1.346.071-.124.044 3.481v3.489l-.24 7.137z" class="B"/><path d="M145.468 254.335L95.312 225.5v-57.314l50.156 28.843v57.306z" fill="#a59379"/><path d="M145.503 254.388l-25.109-14.081-12.657-7.173-12.808-7.377v-.221l.196-21.493V182.55l-.089-14.753.374.212 25.171 14.258 12.568 7.173 12.773 7.35v.283l-.045 14.435-.373 42.88zm-.054-.071l-.284-28.799-.116-14.267-.053-14.222.24.416-12.55-7.19-12.515-7.253-24.984-14.577.4-.221-.089 14.328v21.493l.053 7.164.196 14.311-.196-.327 12.452 7.146 12.452 7.244 24.993 14.754zm30.18-74.583l-9.215 5.437-.071-.044-12.452-7.084-12.452-7.209-12.453-7.226-12.639-7.191.187-.106 9.241-5.367.098.053 12.533 7.156 12.452 7.226 24.771 14.355zm-.054 0l-25.1-14.169-12.452-7.085-12.39-7.173h.187l-9.241 5.234v-.213l12.452 7.191 12.505 7.085 12.453 7.084 12.452 7.218h-.134l9.268-5.172z" class="B"/><g class="C"><path d="M155.518 244.824l-7.248 4.171v-7.546l7.248-4.171v7.546zm9.66-5.411l-7.258 4.162v-10.113l7.258-4.162v10.113zm27.866-58.475l-7.115 4.074v-8.068l7.115-4.073v8.067z" stroke-width=".16" class="D"/><path d="M147.611 241.892c.134.239 7.694-4.782 7.854-4.507.436.753-7.338 5.313-6.929 5.986.329.558 6.636-4.711 7.027-4.047s-7.116 5.402-6.751 6.022 5.684-3.923 5.968-3.427-6.368 4.428-6.226 4.738c.329.558 5.835-4.092 6.164-3.543.213.372-6.413 4.827-6.013 5.518s7.116-4.667 7.401-4.207m2.436-11.247c.303.523 6.467-4.507 6.831-3.923.418.726-7.64 4.711-7.32 5.269.4.691 6.12-4.144 6.386-3.684.169.292-7.204 5.526-6.759 6.305s7.302-4.684 7.507-4.321c.338.567-7.41 6.093-7.116 6.562.178.31 7.703-4.888 7.907-4.543s-9.303 5.313-8.788 6.252c.418.717 8.005-5.11 8.228-4.729.391.682-7.943 5.384-7.472 6.199.125.221 7.498-4.773 7.703-4.428s-7.551 4.065-7.24 4.605c.222.372 7.329-4.552 7.48-4.295s-7.418 4.428-7.267 4.676c.356.611 6.227-4.295 6.547-3.764m20.137-61.972c.365.638 7.498-5.216 7.889-4.543s-8.36 6.199-7.942 6.908c.142.248 6.59-4.694 6.982-4.012s-6.778 5.712-6.644 5.942 6.546-4.596 6.937-3.967c.214.381-6.937 5.313-6.751 5.641.329.584 6.342-4.516 6.716-3.87.169.283-6.057 3.126-5.782 3.604.187.328 5.435-4.02 5.826-3.347s-7.542 5.313-7.347 5.65 7.116-5.013 7.489-4.313" stroke-width=".21" class="E F"/></g><path d="M125.882 151.176l-9.051 5.203 49.294 28.518 9.386-5.211-49.629-28.51z" fill="#fffbef"/><g fill="#ed7339"><path d="M287.627 19.012l2.553 2.568 2.437 2.657 2.366 2.736 2.499 2.657-.258.053 1.832-5.942 1.006-2.94 1.094-2.922h.044l-.818 3.002-.89 2.976-1.983 5.907-.089.248-.16-.195-2.384-2.736-2.508-2.604-2.446-2.657-2.33-2.781.035-.027z"/><path d="M293.355 5.02l-3.842.974-3.869.886-3.896.735-3.851.886.071-.23 4.936 5.313 4.723 5.482-5.016-5.207-4.972-5.588h.231l3.887-.762 3.851-.939 3.869-.832 3.905-.691-.027-.027z"/><path d="M301.156 17.869l1.111-3.958 1.281-3.914 1.343-3.888 1.165-3.941.196.204-6.422 1.452-6.475 1.196v-.044l6.386-1.594 6.449-1.328.284-.053-.088.266-1.352 3.888c-.463 1.302-.801 2.657-1.174 3.941l-1.246 3.923-1.405 3.87-.053-.018z"/></g></svg>