<svg xmlns="http://www.w3.org/2000/svg" width="324" height="280" fill="none"  xmlns:v="https://vecta.io/nano"><style><![CDATA[.B{stroke:#877672}.C{fill:#f6b289}.D{fill:#3c2829}]]></style><path d="M141.094 37.937l-72.37 41.905 121.821 70.533 94.415-54.671-96.37-55.792c-14.06-8.114-35.322-9.022-47.496-1.975z" fill="#d5edf4"/><path d="M47.084 218.698c-17.886 12.802-6.502 25.836 2.395 31.185C87.447 267.367 125.5 255.914 164 195.699c24.702-38.635 129.956-45.128 96.021-68.042-.161-.109-.358-.221-.534-.303-26.716-12.462-47.819-5.451-57.542 1.188-1.771 1.21-4.187 1.15-5.885-.16-19.712-15.21-77.648-26.149-119.076-4.639-31.165 16.182-29.522 38.271-23.468 50.322 1.087 2.164.411 4.922-1.649 6.194-19.238 11.876-13.476 23.264-4.712 30.106 2.597 2.027 2.609 6.415-.07 8.333z" fill="#ffe8e8"/><path d="M161.811 166.82l-22.676-13.116 26.765-2.368-4.089 15.484z" class="B"/><path d="M170.335 141.104l-38.853 3.44 32.91 19.04 5.943-22.48z" class="C"/><path d="M254.579 159.915l-22.671-13.116 26.765-2.369-4.094 15.485z" class="B"/><path d="M263.103 134.199l-38.853 3.44 32.916 19.039 5.937-22.479z" class="C"/><path d="M259.558 205.069l-22.677-13.116 26.765-2.369-4.088 15.485z" class="B"/><path d="M268.081 179.353l-38.853 3.439 32.916 19.04 5.937-22.479z" class="C"/><path d="M240.063 121.277l10.956-6.773 10.997-6.701 11.044-6.644 11.073-6.563v1.983l-26.452-15.196-26.183-15.682-26.228-15.585-13.236-7.59-3.316-1.881-3.331-1.815-1.683-.833-1.739-.705-.873-.347-2.678-.874c-9.701-2.636-19.935-2.583-29.61.153l-.897.25c-.296.087-.587.205-.878.302l-1.749.624c-.582.21-1.133.511-1.699.721-.571.232-1.129.493-1.673.782l-1.617.874c-.541.281-1.091.634-1.637.951l-29.6 17.379-13.196 7.667-13.231 7.59-6.631 3.782-6.631 3.757v-2.295l13.854 8.219 13.813 8.291 13.772 8.337 13.727 8.444-.138.24-14.16-7.667-14.063-7.821-14.068-7.846-16.027-9.027 8.554-5.06 6.585-3.854 13.175-7.667 13.216-7.621 29.84-16.995c.561-.312 1.086-.634 1.678-.93l1.76-.9a19.29 19.29 0 0 1 1.76-.833c.607-.24 1.203-.511 1.821-.731l1.856-.613c.311-.097.617-.21.934-.296l.943-.245c5.017-1.324 10.199-1.911 15.384-1.743 5.164.136 10.284.977 15.221 2.499l1.821.654.913.322c.301.118.592.256.888.383l1.775.792c.581.276 1.142.603 1.714.905 1.152.598 2.208 1.283 3.315 1.917l3.285 1.937 13.175 7.693 26.586 14.966 26.641 14.879L287 95.618l-1.724.971-11.222 6.328-11.221 6.272-11.289 6.195-11.328 6.133-.153-.24z" class="D"/><path d="M189.31 55.054l4.474 2.587-68.969 39.904-4.47-2.591 68.965-39.9z" class="B"/><path d="M144.54 69.054L109.554 89.29l-5.468-3.164 34.981-20.236 5.473 3.164z" fill="#877672"/><path d="M186.657 69.253l4.475 2.587-55.375 32.033-4.47-2.587 55.37-32.033zm24.535-1.538l4.475 2.591-68.969 39.9-4.47-2.587 68.964-39.904zm-56.261 45.203l53.62-30.999 4.446 2.557-51.315 29.693-6.751-1.251zm15.783 3.534l48.772-28.205 4.48 2.591-47.507 27.475-5.745-1.862zm13.405 4.887l32.118-18.56 4.484 2.591-31.745 18.342-4.857-2.373z" class="B"/><g class="D"><path d="M49.456 249.838c.168.087.092 0-.357-.25l-.347-.138.704.388zm-2.882-1.957c-.51-.327-1.132-.675-.867-.368.551.271.638.403 1.234.679.439.282.745.512.653.512.087.04.25.158.428.271a4.48 4.48 0 0 0 .51.276l-2.04-1.329c-.122-.144.041-.052.082-.041zm1.137-37.375l.224.234a1.2 1.2 0 0 0-.224-.234h0zm-1.999-25.393c-.158.163-.194.266-.168.307.128-.169.235-.307.168-.307z"/><path d="M50.114 182.455l-.27.133c.052-.003.102-.016.149-.039s.088-.055.121-.094h0zm-2.402 28.051l-.561-.613c-.153.082.245.348.561.613zm-6.545 32.902a4.42 4.42 0 0 0 .337.317l-.301-.286-.036-.031zm6.687-24.826l-.209.133a1.37 1.37 0 0 0-.087.24l.296-.373zm-7.284 7.126c.138-.184-.036-.394-.082-.512a.92.92 0 0 1-.133.512c.034.015.07.023.107.023a.26.26 0 0 0 .107-.023h0zm-.341 15.431l.179.239-.179-.239zm14.037-27.075c.067 0 .092-.056.082-.092s-.092.046-.082.092zm194.988-91.663v.032c0 .032.085-.005 0-.032z"/><path d="M260.415 127.753l-.153-.077h-.041l.194.077zM57.051 175.182l.036.071c.316.399.158.169-.036-.071zm44.678-59.139c-1.02.082 1.53-.583.036-.394.153.031-1.286.593-.036.394zm-60.73 127.14l-.276-.347.276.347zm11.415-88.682c-.089.037-.165.099-.219.178a.8.8 0 0 0 .219-.178zm.99 15.641l-.087-.394c.013.134.042.266.087.394h0zm1.204-23.681a1.38 1.38 0 0 0 .296-.512.31.31 0 0 0-.087.057.68.68 0 0 1-.209.455h0zm4.912-7.294a1.6 1.6 0 0 0-.163.076l-.168.225.332-.301z"/><path d="M221.536 120.296c.168.045.325.121.464.224-.173-.204 1.179-.455-.464-.224zM41.218 243.356a.51.51 0 0 1-.219-.173 2.78 2.78 0 0 0 .204.229c.036.026.051.026.015-.056zm10.753-98.71l.811-1.288a13.31 13.31 0 0 0-.811 1.288h0zm110.406-30.929l.337.031a.89.89 0 0 0-.337-.031h0zM55.251 139.601a3.65 3.65 0 0 0 .74-.511.97.97 0 0 0 .031-.194l-.77.705z"/><path d="M231.6 119.35c-1.403-.041-.653.337-.943.537-1.663.112-.781-.261-1.352-.445-1.046.102-1.821.47-2.596.511-.062-.056-.215-.072-.041-.164-1.077.353-3.27.241-4.484.813-.067-.01-.131-.038-.184-.082a.58.58 0 0 1 .206.219c.049.09.073.191.07.293-.617.092-1.102.419-1.372.184a.85.85 0 0 0 .556-.266l-.628.204c-.642-.301.857-.255.817-.537-1.25.271-2.643.88-3.622.936-.281-.348 2.224-.511.872-.639l1.53-.113c-.622-.204-.392-.23-.153-.265s.511-.067-.086-.312c-2.01.225-2.183.552-4.168.864-.392.312.22.291-.168.603-2.632 1.083-2.448-.465-4.31.664-.219.215-.337.46-.587.675a2.44 2.44 0 0 1-1.367.542l.317-.619c-1.867.609-.806 1.023-2.816 1.472.26-.311 1.357-.725 1.061-.669-1.372.148-.765.603-1.694 1.022l-.372-.301c-.979.484-1.925 1.034-2.831 1.645l-2.836 1.963c.036-.184.291-.511-.24-.332l-.51.404-.265.204-.066.051h-.026l-.041.036-.331.266c-.138-.096-.266-.206-.383-.327l-1.249-1.022-2.449-1.933-1.112-.224c-.209-.128-.301-.389-.03-.317-.857-.685-.179.189-.704.056-.546-.292-.592-.608-.194-.511l-3.443-1.386c-1.156-.483-2.26-1.083-3.295-1.788l.403.061c-1.357-.808-1.934 0-3.112-.92l.281.046a49.81 49.81 0 0 0-4.759-1.937l-2.25-.859c-.66-.271-1.306-.578-1.933-.92-.316.169-1.097-.133-1.857-.389s-1.499-.46-1.698-.168l-1.576-.813c-.709-.343-1.447-.623-2.204-.838-.699-.189-1.148.138-2.04 0l.051-.317-1.26.071-.556-.485-.842-.082c.327.077.669.266.602.342-1.311-.127-3.06-.792-3.096-.935l-3.101-.261c.086-.097.607-.056 1.02-.061-1.683 0-.25-.317-1.79-.291.188.087-.138.133-.179.179-1.209-.32-2.449-.508-3.698-.563l.265-.133-7.396-.567c.918.123.684.343-.071.307l-.281-.22c-.51.087.775.133-.229.21-.954-.087-.628-.261-.072-.297h-1.173c-.061-.061.214-.077.291-.148-.51.087-2.005-.281-2.709-.107l-.061-.057-5.83-.046c-.041.138-.857.108-1.485.215l-5.1-.041c-1.296.107-.373.123-.954.22-.102-.113-1.949-.026-.995-.148l-5.611.47c.306.031.648.025.475.077-.51.051-1.158.051-1.092 0l.133-.026-9.733 1.022.138-.035-2.55.557c-1.184.168.693-.215-.199-.159l-6.631 1.406c-.939-.062-2.484.332-4.081.741-1.482.458-2.987.835-4.509 1.13l.173.092c-.561.301-.75.138-1.209.235.097.087.694-.072.342.107-5.034 1.682-10.477 3.333-15.542 5.571-1.841.844-.541 1.401-3.01 2.168l.454-.66c-.857.557-1.704 1.15-2.591 1.677l-2.632 1.656c-1.749 1.074-3.38 2.33-4.866 3.747.127-.225.051-.328.362-.568a4.71 4.71 0 0 0-1.53 1.115c-.474.511-.816.976-.735 1.078-.51.388-.265-.077-.648.077-.765.444-1.291 1.758-1.836 1.85-.092 0 .097-.245.194-.368-.296.511-1.852 1.84-1.209 1.707-1.173.987-1.811 2.27-2.734 3.067-.199.516-.499.987-.882 1.385-.367.455-.684.869-.51 1.15-.23-.225-.704.266-1.158.936-.414.629-.729 1.319-.933 2.044 0-.383-.576.654-.638.189a8.68 8.68 0 0 0-.571 1.355c-.102.363-.071.603.117.583a4.08 4.08 0 0 0-.852 1.298 9.73 9.73 0 0 0-.388 1.411c-.209.904-.311 1.707-.995 2.121-.533 3.1-.665 6.256-.393 9.389-.367-.041-.372-.869-.393-1.671s.041-1.569-.332-1.533c.009.661.067 1.32.173 1.973.092.598.179 1.16.306 1.707.219 1.109.439 2.187.597 3.578.036.731-.378-.353-.541-.578.204.685.347 1.37.51 2.045s.311 1.329.51 1.962c.33 1.257.833 2.461 1.495 3.578-.066 0-.245-.194-.393-.408.214.444.367 1.093.643.909l-.275-.403c.122-.89 1.683 1.364 1.979 1.288-.607-.149-.388.414-.219.94s.311 1.022-.536.726c.204.261.551.511.704.358.184.439.153.639-.311.342.061.087.133.184.179.24l.076.052.148.086.275.123c.237.103.433.283.556.511-.219-.046-.377-.179-.643-.245.267.128.517.29.745.48-.031.149-.286.327-.714.44-.046-.087-.214-.148-.051-.22-.106.058-.209.123-.306.194l-.143.118c-.061.059-.128.112-.199.158-.428.297-.821.604-1.219.915a14.84 14.84 0 0 1-2.698 1.815c.235-.997-.831.281-1.28-.133-.352.296-.673.634-1.02.951l.607-.097c-.969.7-1.505 1.697-2.382 2.233a11.73 11.73 0 0 1 .51-.766 11.55 11.55 0 0 0-.801.787c-.26.276-.51.511-.765.818.337-.261.714-.476 1.066-.711-.658 1.022.587.445-.627 1.416.178-.266-.816.813-1.459 1.073-.224.661-.589 1.265-1.071 1.769-.281.087-.434-.511-.617-.47.051.398-.337.981-.643 1.64-.334.533-.511 1.15-.51 1.779 0-.271-.275-.409-.367-.363l.153.608c-.306.471-.393.512-.587.358-.332.787-.107.716.066.675s.291-.061-.127.843c0-.158-.061-.102-.031-.429-.087.235-.168.47-.24.705s-.102.481-.148.721a9.89 9.89 0 0 0-.148 1.436c-.036.471 0 .941 0 1.406s.026.92 0 1.38c-.51.603-.23-1.615-.663-.971a12.09 12.09 0 0 0 1.02 4.043c.551 1.273 1.188 2.448 1.79 3.578l-.178-.44c.423-.035.541.419.755.977.096.306.216.605.357.894a2.5 2.5 0 0 0 .627.757c-.23-.215-.576-.077-.459-.062.99 1.462 2.474 2.612 4.591 4.054l-.362-.062c.668.782 2.066 1.672 2.933 2.326.367.031.888.363.699-.041.122.143.301.307.398.414a3.29 3.29 0 0 0 .25.276 2.77 2.77 0 0 0 .51.378c.199.116.405.218.617.307l.367.148.097.041c.031 0 .082.026.041.036l-.107.071c-.311.22-.709.512-1.209.788-.26.143-.51.255-.806.398a9.72 9.72 0 0 1-1.102.44c.296-.189.648-.567.408-.414-.694.485-1.387.966-2.04 1.492.311.103.362-.056.908-.184-.32.443-.713.827-1.163 1.135.821-.772-.25-.342-.719-.143.112 0 .031.184.107.22-1.306.444.117.511-1.433 1.405v-.158c-.479.465-.796 1.022-1.347 1.482-.408 0 .428-.572.306-.772a4.5 4.5 0 0 0-.51.578l-.383.634a5.1 5.1 0 0 1-.428.583c-.144.185-.316.347-.51.48.112-.189.27-.399.423-.613s.332-.404.454-.588a4.14 4.14 0 0 0-1.469 1.216l.051-.051c-.408.414-.775.869-1.153 1.314.102-.107.214-.21.321-.312a4.06 4.06 0 0 1-.296.981c-.133.307-.321.583-.51.9s-.357.642-.51.976c-.159.376-.275.769-.347 1.171.327-1.672-.092-.348-.291-.568-.25.379-.536 1.023-.546.793-.023.197-.068.39-.133.577-.051.179-.117.353-.184.537a5.23 5.23 0 0 0-.138.603 4.31 4.31 0 0 0-.031.792c-.071.133-.117.276-.138.425-.036.189-.082.347-.168.24-.056 1.094.158-.24.245-.133.036.843-.143 1.799-.117 2.867 0 .557.044 1.112.133 1.662a7.56 7.56 0 0 0 .51 1.671c.092.24.168.455.255.644l.26.511a6.89 6.89 0 0 0 .464.813l.51.762a23.57 23.57 0 0 1 .638.966c.128.286 0 .209-.122.051l-.301-.394c.192.421.422.823.689 1.201a9.58 9.58 0 0 0 .826 1.058c-.148-.127-.056.052.082.312.51.583.459.281 1.071 1.089a4.69 4.69 0 0 1-.643-.46c.31.33.639.642.984.935l1.02.905c.143.204-.51-.291-.755-.511.377.368.918.787 1.362 1.165a10.59 10.59 0 0 0 1.02.711l-.49-.414c.296.24.102.184-.127 0a2.55 2.55 0 0 1-.969-.931l.51.43c-.362-.603-1.959-1.784-2.8-2.837l.51.291c-.342-.301-.658-.628-.979-.955-.133-.266-.148-.512.265 0-.51-.818-.556-.639-.898-1.386-.031-.081 0-.056.051 0-.183-.244-.353-.499-.51-.761.133.133.071-.215.311.296-.694-1.482-1.306-2.32-1.347-2.97l.066.123c-.393-1.063-.428-1.114-.51-1.078s-.061.051-.127 0c-.15-.196-.26-.421-.321-.66l.138-.618c.056-.205.128-.409.194-.608l-.245-.2c-.031-.235-.036-.7.061-.618-.184-.869-.092.153-.255-.348.036-.291.046-.629.082-.981s.026-.716.077-1.048c.061-.675.209-1.227.428-1.309-.102-.439-.367 1.023-.245-.178.062-.036.115-.084.157-.141s.072-.122.087-.192c.069-.181.117-.37.143-.562a3.59 3.59 0 0 1 .464-1.401c.107.384-.362 1.237.204.358a1.06 1.06 0 0 1 .077-.598 4.23 4.23 0 0 1 .357-.659 14.02 14.02 0 0 0 .847-1.268c-.133-.102.097-.511.449-1.058s.888-1.181 1.336-1.763a8.42 8.42 0 0 0 1.148-.987 17.14 17.14 0 0 1 2.04-1.589v.071c-.056-.475 1.102-1.283 1.903-1.922.107.225 0 .394-.377.808a10.75 10.75 0 0 1 .78-.542c.213-.339.501-.624.842-.833l-.036.388c.51-.337 1.02-.741 1.596-1.139a10.51 10.51 0 0 1 1.163-.685 11.96 11.96 0 0 1 1.632-.701c-.421-.036-.843-.052-1.265-.046-.383-.04-.454-.209.061-.567.163.007.326.031.484.072.153.046.209.122 0 .255.212-.199.467-.346.745-.429-.059.159-.144.307-.25.439 1.137-.378.031-.286.719-.567.279.007.558-.029.826-.107.108-.056.232-.074.352-.051.001.02.001.04 0 .061a3.02 3.02 0 0 0-.872.373c.306-.123.653-.245 1.02-.373a.57.57 0 0 1 .066-.102l.036-.051s.031-.031 0-.052-.173-.143-.245-.209c-.11-.087-.194-.202-.245-.332-.407.07-.825-.014-1.173-.235-.74-.394-.775-.512-.724-.573s.219-.112-.204-.419c-.551-.082-1.5-.884-1.693-.562-.316-.2-.281-.389-.347-.547-.508-.239-.997-.516-1.464-.828-.51-.312-.872-.511-.699-.123l.117.128-.097-.051c-.495-.249-.959-.556-1.382-.915-.432-.357-.837-.746-1.209-1.166-.775-.817-1.423-1.722-2.168-2.484l.112-.082c-.918-.889-1.683-2.228-2.362-2.898-.173-.342-.143-.915.077-.838-.201-.293-.38-.601-.536-.92-.079-.164-.144-.335-.194-.511a6.57 6.57 0 0 1-.122-.823c.51.838.112-.368.454.874-.245-1.206-.087-1.487-.663-2.704.209.194.301-.046.321-.394.02-.364-.001-.729-.061-1.088l-.245.843c-.036-.317-.051-.618-.056-.91s.046-.577.066-.858l.51.322c.352-1.15.286-2.188.398-3.226.034-.499.139-.991.311-1.462a2.47 2.47 0 0 1 .939-1.114c0-.363-.219-.112-.444.159s-.434.567-.51.209a4.27 4.27 0 0 1 1.153-1.237 5.43 5.43 0 0 0 .893-.649c1.137-1.022.245-1.63 1.53-2.729-.281 0-.801-.164-.031-1.217.933-.777 1.607-.404 1.168.199-.194.2-.332.251-.367.195-.24.301-.51.72-.046.536l-.031-.24a9.75 9.75 0 0 0 1.056-.7c.352-.24.638-.368.592-.133.551-.69.092-.475-.474-.138.55-.333 1.075-.705 1.571-1.114.23-.179.464-.363.719-.542s.561-.348.908-.511c-.26.051-.576 0-.372-.143 1.02-.547 1.194-.716 1.255-.92s.036-.379.689-.813c.918-.179.061.751 1.316-.21.934-.26.408.358.153.67.252-.231.537-.422.847-.567.158-.077.27-.118.469-.195s.51-.199.77-.286c1.02-.348 2.117-.608 2.902-.9l-1.224.675a19.77 19.77 0 0 1 2.112-.971l-1.245.102c.816-.271 1.449-.511 1.678-.46a.93.93 0 0 0-.347-.28.92.92 0 0 0-.438-.083c-.219 0-.51-.163-1.137-.782-.246-.513-.545-1-.893-1.451-.342-.512-.597-.961-.444-1.207.699 1.294.816 1.191.908 1.058s.163-.388 1.02.839c-.435-.533-.818-1.106-1.142-1.713 0-.122.168.067.326.256-.785-1.677-.785-1.472-1.107-1.605s-.607-.143-1.02-.951c.357.072.291-.608.102-.838.331.634-.276.511-.76 0-.26-1.145-.684-1.073-.872-1.656a7.9 7.9 0 0 0 .168.685c-.367-.102-.536-.67-.913-1.401.178-.143.408.639.393.333a1.84 1.84 0 0 1-.485-1.442 3.94 3.94 0 0 0-.357-1.743c.041-.608.51-.184.51-.7a2.12 2.12 0 0 1-.28-1.406 3.58 3.58 0 0 0 0-.623c-.016-.291-.077-.577-.178-.849-.311.455-.209.511-.709-.45l.291 1.176c.092.388.23.772.347 1.155-.275-.47-.566-.945-.801-1.436a5.18 5.18 0 0 0 .107.547 7.29 7.29 0 0 0 .179.511 3.41 3.41 0 0 1 .229.854c-.444-.67-.337-.619-.576-.21.347-1.084-.668-1.942-.403-3.169l.918-.041a4.13 4.13 0 0 0 0-1.227 11.42 11.42 0 0 0-.168-1.206 8.08 8.08 0 0 1-.148-1.314v-.731c.024-.268.067-.534.128-.797l-.24.705c-.158-.168-.133-.511-.071-.92a10.64 10.64 0 0 0 .153-1.221c.281.117.464-.312.699-.578-.25 0 .362-1.589-.153-1.937.194-.302.428-.583.643-.869a4.4 4.4 0 0 0 .291-1.958 5.04 5.04 0 0 1 0-.874c.064-.366.183-.721.352-1.053.071.619.576-.035.316 1.135.235-.537.51-.997.311-1.089.27-.245.372-1.64.847-2.008 0-.276-.204-.512.148-1.064.082-.035.117.072.117.072-.122-.072.357-1.022-.199-.659.444-.333.836-.731 1.163-1.181.352-.481.714-1.022 1.066-1.534.336-.509.709-.992 1.117-1.446.313-.397.705-.722 1.153-.956a30.5 30.5 0 0 1 2.637-3.133c0 .107.087.097-.092.23a1.56 1.56 0 0 0 .529-.469c.138-.195.229-.42.267-.656.077-.332.173-.685.974-1.206.99-.327-.592.833-.041.552.383.23.775-.169 1.239-.68.44-.568 1.008-1.024 1.658-1.329l-.204.235c.489-.29.923-.666 1.28-1.109.478-.559 1.024-1.056 1.627-1.477 0 0 0 .102.061.102.627-.971 2.26-2.228 3.504-3.123-.25.511-.51.511-.102.603.556-.393-.428-.311.699-1.088.464-.092 1.372-.511 1.642-.276-.372.209-.724.449-1.087.679.397-.039.771-.206 1.066-.475.301-.252.626-.474.969-.664v.194c1.663-1.022 1.53-1.406 3.397-2.356h-.25c.857-.895.964-.241 1.882-1.023l.51.21c.321-.205.882-.588 1.53-.976a27.45 27.45 0 0 1 1.989-1.089c-.607.567-2.04 1.308-2.846 1.917.673-.348 2.326-1.089 2.617-1.421a3.77 3.77 0 0 1-.882.465 10.49 10.49 0 0 1 3.224-1.81c0 .373.923.026 2.01-.357s2.336-.839 2.923-.793c1.24-.527 2.517-.963 3.821-1.303l4.218-1.135c-1.158-.082.878-.25.597-.577a4.54 4.54 0 0 1 1.02-.251l2.194-.296c.51 0-.658.24-.572.306 1.531-.352.679 0 1.719-.153-.234-.077.51-.296 1.398-.44l-1.28.113c2.142-.634 1.928-.148 4.08-.721l-.678.23c.556-.133 1.596-.337 2.632-.542.885-.136 1.76-.336 2.617-.598.204 0 .479.041 0 .138 1.361-.179 2.866-.434 4.305-.644 1.285-.2 2.581-.325 3.881-.373l-.204.082c.504-.102 1.016-.158 1.53-.169-.03.031-.198.082.036.067a14.1 14.1 0 0 1 2.041-.205l-.572.102c2.678-.051 4.081-.362 6.351-.434 0 .199 2.106.261 3.157.327l-.041.031c3.117.102 5.3 0 8.162.122 1.77.404 6.039.706 8.855 1.355-.429-.123.102-.245.612-.194.658.174 1.877.061 1.724.358l-.235-.046c.454.388 1.826.567 2.887.792l.25-.409c1.557.586 3.171 1.006 4.815 1.252 1.668.307 3.173.593 3.831 1.14.688.046 1.5.276 2.183.327l-.112.286 2.285.788 2.617.807-.51.077c1.229.445 1.856-.394 3.014 0l.174.613c2.188.792 4.131 2.045 6.396 2.505-.066.061-.189.184-.51.056.484.215 1.408.726 2.183 1.073s1.418.547 1.403.113c-.184.46 2.091 1.058 3.29 1.441l-.342.246a5 5 0 0 1 2.586.547c.281.209.117.408-.235.107.908.726.965.107 2.082.971l-.572-.051c.482.379 1.081.577 1.694.557.719.261 1.862 1.283 1.816 1.661.266-.027.535.004.788.092a1.85 1.85 0 0 1 .676.419c0 .159-.25.077-.378.041.241.214.495.412.76.593.123.082.24.164.357.23l.413.256 1.663.986c.386-.349.816-.645 1.281-.879.086.087.224.061.382 0-.607.45-1.173.905-1.663 1.288-1.081-.792-1.79-1.349-1.678-1.283-.092.148.276.537.51.854s.327.552-.541.204a47.38 47.38 0 0 0 1.725.905c.663-.685 1.31-1.37 1.928-1.912a4.39 4.39 0 0 1 1.127-.848c.064-.013.13-.013.194 0l-.082.097a2.15 2.15 0 0 0 .607-.46 8.42 8.42 0 0 0 .903-.435c.26.164 1.311-.557 1.857-.843-.215-.301.535-.634-.276-.542.097-.025-.087.097-.438.312-.079.048-.152.102-.22.164l.026-.051c-.352.214-.832.46-1.342.782a2.36 2.36 0 0 1 1.413-.956 10.41 10.41 0 0 1 .51-.941c1.02.077 2.602-.404 2.943-.189 1.653-.986 4.127-1.758 5.101-2.734.51-.251.653 0 .877.03a3.94 3.94 0 0 0-.78.394c.995-.511 3.096-.956 3.259-1.421 1.393-.123-.668.567 1.169.066l-.225.189c1.887-.086 3.321-.628 4.846-1.093a12.16 12.16 0 0 1 5.254-.609c-.291 0-.439-.035-.51-.092 2.377 0 4.82-.179 7.268-.143a35.44 35.44 0 0 1 7.192.695c.759.152 1.536.192 2.306.118l.245.255h1.418c.916.144 1.814.387 2.678.726.996.366 2.019.651 3.06.854l-.28-.189c.862.266 2.734.833 2.55.884a1.76 1.76 0 0 1 .622.184v.066a32.56 32.56 0 0 1 2.097.731c1.561.716-.322.057 1.964 1.074.856.358 2.412 1.109 2.111.935-.296-.148-.581-.319-.852-.511l.755.404c.174 0 .771.301-1.02-.854-.433-.225-.867-.46-1.316-.659l-.393-.276c.368.199.735.383 1.092.593-.459-.305-.95-.558-1.464-.757a3.16 3.16 0 0 0-.51-.347c-.449-.179-.908-.333-1.372-.476-.133-.138.643.149-.23-.291-.647-.21.541.399-.51 0a3.44 3.44 0 0 0-1.198-.578c-.092-.086.081-.061.392.046-.723-.287-1.466-.521-2.224-.7-.653-.383-2.377-.736-2.244-.945-.235 0-1.296-.184-1.959-.343.638 0 .031-.179-.698-.363s-1.566-.404-1.367-.552c-.954.092-3.28-.567-4.923-.593.138-.029.281-.029.418 0a15.32 15.32 0 0 1-1.734-.46c-.153.297-1.576.194-2.351.358-1.097-.424.704-.337.377-.675.036.271-1.969.092-1.596.363-.852-.266-.735-.143-1.168-.465-.164.44-.806.031-1.531.276-1.239-.245-.316-.439-1.688-.322-.653-.148.566-.286.566-.286zm-31.115 8.832l.561-.388-.561.388zm-1.596 1.115s.03.04.051 0l.459-.343c.025.024.044.053.056.086s.015.068.011.102-.017.067-.037.096-.046.052-.076.069c.041-.133-.25 0-.413 0-.031.046-.046.005-.061-.01h.01zm5.478-.486c-.337.245-.51.25-.576.21.168-.098.357-.22.607-.384a.62.62 0 0 0 0-.061.44.44 0 0 1-.041.235h.01z"/><path d="M204.78 128.034c.042-.041.089-.076.138-.107l-.26.045-.072.174.194-.112zM47.962 210.777l-.041-.036a.43.43 0 0 1 .062.113c-.02-.041-.01-.046-.02-.077zm117.425-96.605l-.015.071.25-.01-.235-.061zM45.87 218.245c-.072-.001-.143.018-.204.056a.58.58 0 0 0 .204-.056h0zm-4.789 4.473c-.235.209-.428.454-.643.684l.643-.684zm-2.75 4.277c.006.049.026.095.056.133h0l-.056-.133zm12.441-55.397l-.092-.184c-.275-.409-.127-.117.092.184zm-8.202 14.358a6.39 6.39 0 0 1 .342-.731c-.301.307-.53.558-.342.731z"/><path d="M51.889 144.789l.082-.153-.082.153zm-8.192 39.629a2.72 2.72 0 0 0-.786.807c.293-.236.557-.508.786-.807h0zm.668 62.088l.184.153h.031l-.214-.153zm.215.168l.219.158a1.47 1.47 0 0 0-.219-.158h0z"/><path d="M45.253 247.16l-.454-.327c.142.121.294.23.454.327h0zm-5.361-5.515l-.087-.036c.01.013.024.023.039.029s.032.009.048.007h0z"/><path d="M38.831 239.912l.377.792a4.11 4.11 0 0 0 .51.874l.071.031c-.24-.215-.663-1.334-.959-1.697zm-.729-8.199c-.052.265-.086.533-.102.803 0 .271-.066.541-.061.812a.9.9 0 0 1 .133-.342c.051-.036.056.056.082.419.138-1.022.117-.9.031-.808s-.214.169-.082-.884zm1.591-4.712c-.332.792.133.051.163.117a3.46 3.46 0 0 0 .122-.455c-.015-.03-.112.062-.286.338zm1.342-24.913l.372-.072c-.326-.562-.138.051-.372.072zm-3.051-6.696l-.275.715.342.353-.066-1.068zm3.642-3.317l-.036.25.117-.511.153-.511a6.05 6.05 0 0 0-.235.772h0zm17.17-51.482l-.464-.113c-.219.409.092.782.464.113zm20.484-16.53a2.44 2.44 0 0 0 1.387-.588 11.42 11.42 0 0 0-1.387.588zm78.599-9.012l-.546-.02 1.005.137-.459-.117z"/></g><path d="M98.215 248.873c0 2.799-1.965 5.428-5.347 7.385-3.369 1.949-8.056 3.17-13.261 3.17s-9.892-1.221-13.261-3.17c-3.382-1.957-5.347-4.586-5.347-7.385s1.965-5.429 5.347-7.385c3.369-1.95 8.056-3.171 13.261-3.171s9.892 1.221 13.261 3.171c3.382 1.956 5.347 4.585 5.347 7.385z" class="B"/><g class="C"><path d="M79.536 248.755c6.57-4.416 13.288-8.577 20.041-12.687l5.075-3.066 5.101-3.006c3.4-2.014 6.83-3.971 10.288-5.873l20.867-11.245 10.243-5.95 2.55-1.533 2.525-1.533 5.045-3.108 10.074-6.241 10.161-6.098 10.201-6.057 5.101-2.995 5.126-2.97 20.704-11.526 20.99-11.03.143.24c-6.631 4.35-13.298 8.561-20.031 12.696l-20.316 12.206-5.127 2.965-5.141 2.939-10.329 5.807-10.35 5.765-18.266 9.86-2.586 1.441-10.268 5.914c-6.789 4.033-13.4 8.378-20.153 12.482l-10.202 5.996-5.141 2.924-5.177 2.877c-6.953 3.803-13.905 7.535-21.011 11.046l-.138-.24z"/><path d="M108.064 232.317c-.224-4.238-.142-8.449 0-12.656a186.69 186.69 0 0 1 .332-6.302 93.15 93.15 0 0 1 .617-6.277l.913-6.262c.301-2.09.561-4.171.74-6.266a136.44 136.44 0 0 0 .382-6.303c.082-2.105.097-4.211.128-6.317v-.404l.433-.297c3.214-2.177 6.519-4.206 9.83-6.23l4.968-3.021 5.034-2.908 5.101-2.781 5.162-2.694c3.494-1.748 7.003-3.475 10.574-5.009l.138.24c-3.127 2.341-6.351 4.503-9.595 6.645l-4.907 3.133-4.958 3.042a229.95 229.95 0 0 1-5.029 2.913l-5.101 2.806c-3.402 1.856-6.809 3.711-10.303 5.413l.438-.7-.836 6.261a124.14 124.14 0 0 0-.587 6.282c-.143 2.096-.199 4.207-.224 6.313l-.056 6.323a105.11 105.11 0 0 1-.347 6.302l-.638 6.277c-.51 4.181-1.051 8.357-1.923 12.507l-.286-.03zm23.739-13.535c7.233-.931 14.476-1.339 21.72-1.651 3.621-.154 7.248-.215 10.88-.113l10.885.271c3.626.016 7.253-.076 10.874-.271s7.239-.511 10.86-.766l10.865-.614 10.87-.455-.709.205 7.498-4.258 7.59-4.089 7.651-3.967c2.55-1.293 5.157-2.555 7.784-3.767l.137.241c-2.351 1.676-4.738 3.291-7.141 4.871l-7.263 4.672-7.34 4.533-7.432 4.376-.337.194h-.372l-10.88.107c-3.627.021-7.253.026-10.88-.056l-10.885-.204c-3.627-.006-7.254.056-10.875.286l-10.849.823c-3.637.245-7.244.409-10.87.444-7.249.062-14.507 0-21.77-.511l-.011-.301z"/></g><g fill="#ed7339"><path d="M96.878 232.874l.127.076.107.066-.235-.142zm1.02.628l.265.179-.403-.271-.24-.148-.321-.194.709.445c.056.035.005 0-.01-.011zm4.203 14.747l.077-.087-.077.087zm-8.732 6.031c.077-.03.103-.056.103-.066s-.123.066-.103.066z"/><path d="M91.579 254.745h.102c-.034-.009-.069-.009-.102 0h0zm10.522-6.496l-.183.219c0 .025.097-.112.183-.219zm-2.264-13.31l-.123-.097.113.092.01.005zm3.749 5.362c.012.046.031.091.056.132a1.34 1.34 0 0 1-.056-.173s-.005.01 0 .041zm-3.147-4.805l-.072-.072.072.072zm2.714 10.892l-.027.027s.016-.011.027-.027zm-6.275-13.514l-.056-.031-.01-.005.066.036zm-8.559 22.542c.105-.027.052-.016 0 0h0zm-28.784-5.649c.122.368-.566-.194-.331.301.02-.086.556.072.331-.301zM99.908 235l.113.097-.113-.097zm-19.194 21.243c.022.03.05.056.082.076 0 0-.02-.04-.082-.076zm-2.969.184a.34.34 0 0 0-.209-.025l.031.025c.027-.016.058-.024.089-.024s.062.008.089.024h0z"/><path d="M74.659 256.141l.051.051h.102l-.153-.051zm9.115-27.285l.143.03c-.046-.02.413.021-.143-.03zm16.063 6.088l.072.056-.082-.066.01.01zm-22.286 22.904c-.173 0-.342 0-.51-.041.168.031.339.044.51.041h0zm-15.838-25.245l.097-.072a.3.3 0 0 0-.097.072h0zm13.818 25.147a.91.91 0 0 0-.276-.152c-.022.012-.043.027-.061.045l.337.107z"/></g><path d="M87.171 229.367c-.464-.102-.219-.03-.321-.046a1.94 1.94 0 0 1-.444-.107l-.882-.087s-.071 0 0 0l-1.53-.189h-.056c.071.026.082.041.066.046a3.28 3.28 0 0 1-.474-.041 1.39 1.39 0 0 0 .204 0h-.225c-.199-.051.306 0 .306 0l-1.275-.092c-.066-.036.78.062.337 0l.51.062c-.388-.087.311.03-.046-.052l-1.433-.138c-.153 0 .046.036-.107.046-.964 0-.755-.127-1.464-.107a2.28 2.28 0 0 1-.76.026l.168-.046c-.658 0-.372.076-1.066.046.122-.026.51-.026.418-.031-.449-.041-.316.036-.658.041l-.071-.051-1.102.041-1.148.112c.041-.026.173-.051 0-.061l-3.061.235-.352.117c-.082 0-.158 0-.072-.04-.367.03 0 .051-.178.107s-.286 0-.158-.036c-.818.232-1.649.415-2.489.547l.122-.061c-.51.092-.541.332-1.046.368l.092-.036-.867.204-.842.276c-.502.163-1.013.297-1.53.404-.097.22-1.112.358-1.081.614a4.6 4.6 0 0 0-1.408.352c-.235.097-.265.312-.51.481l-.071-.123-.306.322-.291-.051-.235.179c.102-.051.245-.067.255 0-.312.238-.685.383-1.076.419l-.842.71c0-.066.117-.194.219-.301-.388.46-.189-.082-.541.353.082 0 0 .097.036.132a3.32 3.32 0 0 0-1.092.767v-.143c-.692.549-1.329 1.163-1.903 1.835.27-.215.383 0 .219.194l-.214-.036c0 .215.23-.178.122.195-.23.26-.321.051-.245-.143l-.209.373c-.061 0-.026-.113-.066-.174 0 .199-.607.486-.571.818h-.061c-.388.618-.701 1.28-.933 1.973.168.082 0 .347.082.613-.296.569-.494 1.185-.587 1.82.046.511.148.153.245.378-.173 0-.194.721-.301.358-.012.714.114 1.424.372 2.09.051-.127.056-.255.127-.204.066.174 0 .434-.077.429l-.026-.046c.231.598.402 1.218.51 1.851.066.31.167.612.301.899.107.255.284.475.51.634l-.046-.031c.227.234.465.455.714.665.235.373-.27-.128-.163.204.877.614 1.02 1.288 1.785 1.713.041.434.51.812.99 1.165l.745.511c.218.141.408.321.561.532l.031-.138c.255 0 .184.214.311.327.036-.097-.143-.225 0-.215l2.55 1.447c.413.271.857.48 1.291.72a11.41 11.41 0 0 0 1.321.655c.663.255.602-.512 1.341.061l-.316.153c.714.114 1.421.269 2.117.465l1.02.261c.347.059.698.093 1.051.102-.087.036-.107.108-.24.082.255.22 1.066.21 1.092.072.209.056 0 .133.143.23.275.143.765-.118.893.071 0 .031-.087.041-.143.046.199-.051.877.133.724-.076.51.153.99.051 1.387.178.291-.184.877.164.985-.122-.061.291.887.312 1.219.174-.112.086.281.097.148.214.372 0 .719-.051.658-.199.678.342 1.377-.24 1.76.153l3.096-.511c0 .256-1.087.133-1.02.399a12.05 12.05 0 0 1 2.382-.511c.24 0-.122.127-.199.173.913-.245 1.801-.255 2.602-.536 0 0-.087.061-.163.097.158-.041.378-.051.342-.143l-.153.061c-.281-.092.587-.439.597-.511-.219.332.816-.102.454.332.102-.041.224-.112.189-.168.158 0 .219 0 .072.112.566-.184.342-.215.857-.353 0 .041-.092.087-.133.154.275-.2.59-.338.923-.404 0 .036.041.051-.092.087.745-.23 1.214-.542 2.04-.772-.184.245.286-.041.377.077l.408-.2h-.194l1.02-.434-.255.168.678-.327-.408.128c.347-.225-.102-.138.398-.317-.092.056.367-.153.587-.168.187-.139.396-.246.617-.317.087 0 0 .143.056.143.133-.174.811-.465.985-.665-.061.056-.041.113 0 .108l.107-.144c.173-.066.204-.066.199 0 .51-.25-.219-.035.388-.296-.041.031 0 .031-.107.092a5.8 5.8 0 0 0 .826-.511l.77-.511c.199 0-.423.322-.214.271.724-.511 1.413-1.156 2.041-1.697l-.123.097c0-.148.51-.389.776-.721-.067.082-.062.138-.046.107l.627-.674.694-.915-.046.102.377-.511.357-.542c.046-.102.143-.291.062-.189.556-.907.948-1.905 1.157-2.949-.025.117-.046.281-.03.189.062-.282.106-.567.132-.854a1.55 1.55 0 0 0-.061.286c0-.107 0-.347.046-.562-.041.384.041 0 .051-.163 0 0 0-.031 0 0 .041-.45 0-.077 0-.69v.03c0-.225-.025-.439-.056-.685 0-.102.036.241.046.256-.031-.343-.097-.675-.143-.987.041.144.061.353.087.512a3.15 3.15 0 0 0-.092-.634v.025a5.31 5.31 0 0 0-.128-.572l.036.143-.209-.644c-.071-.23-.173-.47-.296-.736.23.511.046.087.077.117l-.123-.286c-.127-.245-.188-.424-.392-.756-.042-.066-.079-.135-.113-.205-.178-.312.041.077 0 .051-.132-.24-.326-.511-.51-.807s-.433-.598-.704-.895c-.449-.511-.556-.598-1.02-1.048l.128.118-.684-.634-.076-.066-.403-.333.204.169-.735-.577.245.178-.842-.613.194.133c-.112-.077-.056-.041 0 0l.372.276-.184-.138.48.363.597.511-.148-.123.362.302c.118.107.118.118-.045-.036l.418.389.234.219-.102-.102.786.833-.031-.035c.51.608.056.056.449.511l.23.332.051.061.127.174c.184.245-.025-.046.082.097l.382.593.225.419c.076.123-.179-.332.031.036l.372.767c-.056-.097-.194-.409-.051-.077.144.304.265.618.362.941l.117.383c.071.249.129.501.174.756.07.474.105.953.107 1.432a4.79 4.79 0 0 1-.031.935v-.271c0 .113-.03.22-.041.332a3.54 3.54 0 0 1-.035.399v-.087a7.65 7.65 0 0 1-.352 1.431c0 .036.214-.414.036.169 0 0-.051.031 0-.123 0 .051-.057.179-.102.276l.066-.235c-.107.24-.031.133-.107.332 0 0-.072.138-.077.103a2.37 2.37 0 0 0 .097-.246 2.91 2.91 0 0 1-.27.552s.03 0-.041.169c-.194.404-.087.128-.224.353-.036.102-.194.337-.164.363-.031.062-.074.118-.127.163-.102.205-.592.9-.408.711l.035-.046v.03a11.59 11.59 0 0 1-1.53 1.759h0l-.938.925c-.107.082-.27.168-.24.112-.207.208-.44.389-.694.537.255-.235-.117.041.265-.23-.293.171-.57.37-.826.593.102-.138-.326.117-.51.25l.286-.133a5.12 5.12 0 0 1-.556.348l.051-.128c-.826.373-1.341.951-2.04 1.089-.184.169.459-.179.306 0a7 7 0 0 1-.949.296c-.556.154-.428.343-1.02.512.087 0 .194.076-.204.286s-.541.036-.311-.097c.092-.041.143-.046.143-.031.117-.066.275-.148.107-.128l-.036.056c-.209.041-.734.261-.638.144-.286.132-.102.112.122.051-.51.117-.791.255-1.331.388.092 0 .189 0 .102.046-.785.194-.311.194-.826.389-.321 0 .061-.195-.459 0-.337.03-.102-.113 0-.179-.389.133-.797.202-1.209.204l.245-.102a2.31 2.31 0 0 1-.398.123l.173.061c-.153 0-.281.051-.291 0-.138.102.163.138-.122.307-.214 0-.607.184-.709.061.653-.072-.102-.133.434-.251-.124.039-.253.062-.383.067-.025 0 0-.036.051-.051-.632 0-.245.209-.877.322.061-.097-.178-.128-.275-.092.255-.046.148.112-.076.225-.418 0-.428.133-.648.158h.25c-.066.102-.275.128-.556.189-.036-.066.255-.081.143-.097-.291.194-.74-.071-1.168.087-.214-.036-.041-.169-.23-.189-.479.174-.546-.051-1.061.077.168.117.189.081-.168.235l.852-.164-.51.24c.26 0 .541-.138.699-.132-.25.132-.23.102-.092.189-.377-.138-.699.179-1.122.087v-.328c-.627-.117-1.081.261-1.892.195l.26.056c-.097.138-.51 0-.755.087 0-.118-.143-.159-.255-.23 0 .087-.587 0-.658.235l-.362-.153c-.643-.077-.74.327-1.367.265.189-.127-.092-.23.326-.306-.204 0-.393-.041-.398.046-.117-.087-.581.148-.77 0-.092.051-.128.189-.362.163-.006-.01-.01-.021-.01-.033s.003-.023.01-.033c0 .066-.372.056-.173.214-.612-.47-1.806-.112-2.326-.546l-1.413-.113c.031-.036 0-.066.087-.041-.541-.22-.413.358-1.02.087-.286-.291.357-.051.173-.179 0-.47-.78-.097-1.153-.45h.107c-.286-.235-.837.026-1.352-.163.006-.01.01-.022.01-.033s-.003-.024-.01-.034a4.52 4.52 0 0 1-1.648-.046c.214-.138.26-.035.219-.24-.235-.041 0 .312-.51.23-.117-.143-.413-.342-.388-.552l.418.138c-.138-.327-.541-.179-.745-.296l.061-.103c-.643-.189-.755.098-1.428-.178l.036.107c-.474.112-.245-.281-.694-.235v-.322c-.478-.037-.951-.121-1.413-.251a6.53 6.53 0 0 1 1.25.051 2.29 2.29 0 0 0-1.02-.25c.102.025.26 0 .332.087a1.82 1.82 0 0 1-1.27-.256c.352-.465-1.132-.746-1.204-1.344-.877-.297-1.444-1.022-2.239-1.682 0 .573-.24-.179-.51.205-.199-.148-.265-.215-.26-.251l-.347-.705c-.102-.24.23.092.286 0-.337-.399 0-.291-.163-.619-.066.164-.301.036-.439-.23l.123.445c-.663-.388-.143-.7-.76-1.119l.25.092c-.306-.23-.77-1.079-1.245-1.237 0-.082.077-.21.184-.087-.184-.389-.469-.787-.699-1.201-.225-.355-.343-.766-.342-1.186l.112.041c-.066-.148-.245-.24-.168-.46.041 0 .112.051.107 0-.128-.184-.193-.405-.184-.629l.128.174c.071-.823-.291-1.298-.219-2.045.143.031.26-.117.372-.306a5.25 5.25 0 0 0 .28-.563h.036c.337-.904.408-1.651.857-2.514a5.15 5.15 0 0 0 .959-.961c.344-.417.736-.791 1.168-1.115-.138.072-.112-.158 0-.296.199-.118.372-.537.48-.348l-.061.051c.26.046.576-.296.872-.511l-.117-.255a2.91 2.91 0 0 0 .74-.358l.714-.511a2.37 2.37 0 0 1 1.214-.619c.173-.168.428-.306.602-.47l.046.118 1.597-.757-.117.143c.413-.179.398-.542.78-.715l.173.107c.763-.218 1.511-.486 2.239-.803 0 0 0 .072-.138.113.357-.102 1.403-.322 1.229-.465.041.117.785-.235 1.199-.353l-.046.092c.253-.161.533-.277.826-.342.122 0 .117.035-.046.051.403-.046.296-.133.775-.2l-.168.087a1.93 1.93 0 0 0 .587-.189 2.32 2.32 0 0 1 .847-.051c.156-.09.331-.141.51-.148.036 0-.051.046-.097.061a6.18 6.18 0 0 0 .821-.143c.22-.041.444-.062.668-.061a.11.11 0 0 0 .082.025l-.944.097c.041-.005.449 0 .107.128a7.16 7.16 0 0 1 1.377-.255h.056a1.95 1.95 0 0 0 .23-.036h.357c.051.031.51-.036.724-.036 0-.046.27-.051 0-.077h-.281c-.143 0-.332.031-.546.052a1.88 1.88 0 0 1 .597-.072l.306-.087c.306.056.888.067.969.097l1.102-.066.918-.041a.92.92 0 0 1 .291.031h-.306 1.234c.484.046-.27 0 .393.056h-.092l1.734.117c.614.037 1.226.112 1.831.225l-.168-.03c1.668.225 3.317.567 4.938 1.022l.77.225.092.035.464.154 1.933.721-.107-.046 1.071.454c.237.1.469.213.694.338l.689.358.709.373-.306-.159.26.133-.393-.204-.449-.235-.143-.077.377.199-.51-.266-.184-.097-.444-.23-.097-.051c-.214-.087.204.092-.148-.061l-.418-.179.122.051-.74-.312-.76-.332-.643-.22c.403.138-.821-.281-.714-.255l-.714-.241-.903-.245.138.031-.581-.164c-.041 0-.51-.133-.77-.194-.367-.102.23.046.117 0l-.51-.102-.393-.097c-.056 0-.27-.057-.51-.092a4.32 4.32 0 0 0-.561-.133c-.128-.051.281.03.281.03zm-11.069-.618h.23zm-.933.066l.403-.025c.036 0 0 .041-.092.046.051-.015-.173-.01-.311-.021h0zm1.994.205a.67.67 0 0 1-.219 0l.255-.036-.036.036z" class="C"/><g fill="#ed7339"><path d="M62.621 232.051l.02.03.061-.061-.082.031zm41.429 11.388v-.071.071zm-.163-2.239l-.067-.317.067.317zm-17.17 15.723h-.066c-.148.071-.046.051.066 0zm7.682-2.683l-.219.147c.133-.051.24-.097.219-.147zm-16.79 3.613v-.005h-.058l.058.005z"/><path d="M93.833 254.535a1.56 1.56 0 0 0 .347-.147c-.12.038-.236.088-.347.147h0zm4.8-20.532l-.066-.046-.005-.005.071.051z"/><path d="M98.561 233.947l-.077-.051.077.051z"/><path d="M98.327 233.789l.158.107-.158-.107zm2.55 2.121a6.66 6.66 0 0 0-.459-.45 5.57 5.57 0 0 1 .459.45h0zm1.755 2.259l-.311-.486c.051.087.122.2 0 0 .367.593-.097-.148.311.486zm.775 1.605c-.112-.291 0 0 0 0 .056.168.077.214 0 0zm-4.024 11.204v-.061c-.195.154 0 .015 0 .061zm-1.837 1.676l.219-.086.061-.112-.28.198zm-1.515.272l.087-.056-.342.193.255-.137zm-20.805 3.123l.046.214c.163-.021.219-.255-.046-.214zm-8.953-1.928a.43.43 0 0 0-.175-.213c-.08-.05-.175-.072-.269-.062.178.097.337.26.444.275zm-5.121-19.745l-.117.153.255-.234-.138.081z"/></g><g class="D"><path d="M124.224 100.423c.199.041.178-.143-.286-.379l-.449.031.735.348zm-2.816-2.147c-.592-.204-1.311-.373-1.076 0 .643.097.719.261 1.428.342.469.235.75.511.627.557.194.041.679.455 1.021.46a5.67 5.67 0 0 0-2.092-1.257c-.153-.133.031-.102.092-.102zM77.414 72.361l.27.194a2.2 2.2 0 0 0-.27-.194h0zm10.38-15.119c-.209.127-.281.199-.281.224.184-.127.337-.229.281-.224z"/><path d="M92.599 54.778l-.286.143c.103-.031.2-.079.286-.143h0zM77.414 72.361l-.694-.511c-.092.061.347.291.694.511zm37.628 22.899a3.02 3.02 0 0 0 .429.173l-.383-.194-.046.02zM89.584 79.17l.219.127a1.28 1.28 0 0 0 .24 0l-.459-.127zm9.284 5.305c-.209-.127-.388 0-.51.046.178.006.353.053.51.138.041-.01.036-.066 0-.183zm14.501 8.843l.276.122-.276-.122zM82.974 75.275c-.002-.042-.018-.082-.046-.113 0 0 .01.082.046.113zm168.393 28.727v-.037c0-.037-.074.073 0 .037z"/><path d="M240.109 109.305l.142-.096a.31.31 0 0 0-.03-.123l-.112.219zM101.296 50.06h-.041c-.214.168-.087.092.041 0zm82.316-23.814c-.423-.276 0-.184.322-.092s.617.174 0-.266c.076.128-1.429-.245-.322.358zm-68.82 68.85l-.382-.219c.123.081.25.154.382.219z"/><path d="M183.903 25.888l-.138-.076.138.076zm-62.959 12.661a.7.7 0 0 0-.25.036s.076.01.25-.036zm-14.838 8.234l.377-.183c-.153.051-.27.127-.377.183zm22.311-12.91c.193-.076.376-.176.545-.297l-.097.026a1.32 1.32 0 0 1-.448.271zm7.937-4.601l-.169.046-.245.153.414-.199zm139.077 60.683a1.54 1.54 0 0 1-.459.051c.199.056-.943.777.459-.051zm-160.358 5.198c-.097.017-.198-.003-.281-.056l.271.143c.035-.031.056-.031.01-.087zm12.839-62.906l1.275-.7-1.275.7zm110.003 23.257l.301.143a1.12 1.12 0 0 0-.301-.143h0zm-105.02-26.15c.27-.072.533-.168.786-.286a.52.52 0 0 0 .117-.128l-.903.414z"/><path d="M266.913 95.245c1.204-.69.429-.562.602-.849 1.398-.9.77-.21 1.326-.368.862-.583 1.418-1.196 2.092-1.574.071 0 .214-.051.086.087.837-.741 2.806-1.636 3.77-2.515.058-.015.12-.015.178 0-.244 0-.346-.128-.357-.235.536-.317.913-.731 1.204-.69a1.19 1.19 0 0 0-.449.404l.51-.394c.638-.066-.724.511-.632.69a33.15 33.15 0 0 1 3.116-2.044c.301.118-1.928 1.211-.693.757l-1.352.675c1.199-.23-.806.434.326.276 1.75-.93 1.852-1.227 3.602-2.152.316-.348-.23-.107.086-.455a5.29 5.29 0 0 1 2.183-1.053 3.31 3.31 0 0 0 .709-.204l.103-.041.051-.026.086-.051.413-.24.959-.644c.419-.373.429-.588 1.021-1.022a10.17 10.17 0 0 1-1.357-.823l1.107.312c-.747-.481-1.544-.877-2.377-1.181-.515-.145-.993-.402-1.398-.751.367.082 1.357.675 1.122.511-1.02-.849-.882-.317-1.749-.818l-.051-.327-5.815-3.067c.148 0 .51.123.102-.21-2.551-1.319-5.264-3.067-7.57-4.6l-1.02-.337c-.209-.123-.342-.312-.092-.22-.887-.608-.117.097-.607-.087-.51-.297-.632-.511-.265-.378-1.734-.787-4.876-2.356-6.483-3.578l.367.138c-1.301-.859-1.744-.511-2.887-1.39l.26.107-8.263-5.045c-.587.031-2.821-1.794-3.229-1.534-1.058-.874-2.165-1.686-3.315-2.433-.618-.383-1.077-.301-1.872-.71l.096-.21-1.178-.399-.387-.532-.76-.368c.285.179.566.445.51.48-1.189-.567-2.689-1.743-2.658-1.861l-2.785-1.39a3.49 3.49 0 0 1 .954.342c-1.53-.624-.138-.363-1.561-.935.153.148-.163.066-.214.087a22.37 22.37 0 0 0-3.214-1.953h.291l-6.473-3.66c.765.511.439.659-.229.307l-.138-.368c-.51-.113.638.48-.327.138-.821-.511-.423-.567.097-.358l-1.055-.511c-.026-.097.234 0 .341-.036-.51-.113-1.632-1.232-2.367-1.349v-.097l-5.1-2.852c-.138.163-.827-.291-1.454-.455l-4.336-2.755c-1.183-.567-.418-.036-.989-.225 0-.215-1.607-1.13-.704-.767l-5.019-2.678c.224.22.51.424.321.394-.459-.23-.969-.659-.862-.7l.127.051c-2.892-1.339-6.064-4.156-8.452-5.076l.133.051-2.377-1.13c-1.02-.634.699.235 0-.312a24.82 24.82 0 0 1-3.162-1.692 23.32 23.32 0 0 0-2.918-1.492 7.29 7.29 0 0 0-1.597-.946l-1.076-.475c-.377-.158-.796-.261-1.204-.393l-4.534-1.436.107.169a3.65 3.65 0 0 1-1.199-.378c.046.118.658.256.25.25-5.402-1.012-11.145-1.825-16.73-1.487-.571.001-1.131.149-1.628.429a4.4 4.4 0 0 1-2.04.343l.699-.337c-4.02.803-8.294 1.533-11.961 3.261.153-.162.339-.289.545-.373-.852.174-2.922 1.222-2.856 1.38-.566.276-.189-.051-.566.061-.811.312-1.821 1.196-2.28 1.268-.082 0 .173-.169.301-.256-.434.348-2.209 1.252-1.658 1.171-1.331.654-2.408 1.498-3.489 1.983-.551.588-2.25 1.176-2.301 1.585-.076-.348-2.382 1.063-3.116 1.666.219-.245-.755.317-.51 0-.923.542-1.74 1.084-1.49 1.145-1.907.634-3.264 2.264-4.483 2.367l-7.575 4.83c-.076-.348 2.719-1.61 2.433-1.861-2.275 1.477-3.484 2.515-5.85 3.788-.628.312.27-.322.443-.511-2.275 1.477-4.544 2.597-6.539 3.961 0-.031.199-.189.398-.337-.408.25-.979.511-.857.618l.377-.271c.771-.184-1.397 1.349-1.412 1.493.479-.782-2.117 1.099-1.286 0-.255.179-.561.439-.444.511-.418.204-.576.225-.224-.112-1.433.925-.826.767-2.163 1.533-.031-.066.219-.251.316-.404-.713.647-1.509 1.195-2.367 1.631.046-.077-.117-.051.219-.245-1.923 1.14-3.101 2.244-5.3 3.353.469-.644-.775.322-1.02.148l-1.102.731.51-.148c-1.02.578-1.78 1.263-2.688 1.682l.684-.511-1.847 1.135 1.117-.511c-.944.716.286.245-1.086.951.255-.184-1.02.572-1.607.731a7.86 7.86 0 0 1-1.688 1.109c-.24.031 0-.363-.153-.337-.372.48-2.311 1.411-2.805 1.983.178-.169.112-.302.031-.291l-.316.404c-.51.215-.576.23-.556.082-1.413.777.617.051-1.112.879.094-.094.194-.181.301-.261-1.699.889-3.147 1.963-4.723 2.765-.592 0 1.301-.833.668-.741-1.02.613-2.04 1.283-3.06 1.948l-.765.511-.857.542c-.678.419-1.321.802-1.984 1.181l.612.368-.464-.307a3.09 3.09 0 0 1 1.423.741l.434.317.474.327a4.36 4.36 0 0 0 .842.46c-.281-.128-.454 0-.362 0 1.428.9 3.03 1.641 5.305 2.811l-.327-.072c.816.578 2.239 1.36 3.142 1.937.326.066.852.388.602.077 2.55 2.157 5.611 2.888 7.916 4.779-.306-.179-.77-.342-.51-.204l2.214 1.171c-.087-.251-.23-.256-.617-.634.536.157 1.05.38 1.53.664-1.02-.465-.133.245.24.573-.041-.087.133-.056.122-.123.974.92.362-.194 1.806.879l-.128.036c.617.258 1.218.551 1.801.879.158.322-.663-.276-.785-.153.882.511 1.918.664 2.612 1.298-.403-.169-.933-.475-1.336-.644a6.83 6.83 0 0 0 1.5 1.114l-.061-.041 1.428.951-.347-.276c1.357.179 2.275 1.206 3.923 1.763-1.597-.547-.332.026-.551.158.342.276.877.665.683.629.791.245 1.092.797 2.209 1.135 0 .087.745.434.51.511.933.475-.153-.235-.031-.271 1.531.593 3.132 2.162 5.315 3.026 1.801.884 2.245.854 3.918 1.677.51.414-.582-.025-.582-.025a13.19 13.19 0 0 0 2.357 1.37c-.199-.041-.051.102.158.322.673.363.576.026 1.398.624a3.14 3.14 0 0 1-.811-.128c.816.394 1.652.721 2.494 1.13.153.235-.582-.118-.908-.21.933.475 2.408 1.263 2.79 1.247l-.546-.399c.332.184.082.251-.178.143-.857-.317-1.092-.711-1.097-.803l.597.291c-.372-.711-2.341-1.273-3.489-1.968h.638l-1.316-.46c-.21-.22-.296-.47.295-.179-.749-.613-.785-.327-1.412-.889-.067-.072-.026-.061.056-.031l-.857-.388c.188.036 0-.271.449.056-1.367-1.022-2.464-1.155-2.893-1.676l.128.056c-2.071-1.078-.306.082-1.959-.562l-.734-1.079-.317.087c-.204-.128-.607-.383-.484-.419-.852-.312.082.164-.444.031-.898-.762-2.81-1.534-2.856-1.963-.444-.056.892.675-.24.158-.107-.511-1.27-.659-2.096-1.344.382 0 1.198.583.372-.107-.724 0-1.75-1.094-2.55-1.487-.168.22-1.734-.874-3.061-1.533.127-.031-2.367-1.533-3.525-2.326h.061c-.372.107-1.592-.659-2.55-1.135.117-.123.311-.082.842.138l-.857-.511a3.71 3.71 0 0 1-1.102-.445l.316-.051c-1.138-.649-2.403-1.114-3.79-2.075-.179.118.893 1.135-.714.353 0-.123 0-.307.449-.112a3.96 3.96 0 0 1-.76-.388l.704.204c-.622-.455-.418-.077-.944-.399.087-.123-.337-.317-.204-.373a4.78 4.78 0 0 0 .668.383 7.89 7.89 0 0 1-1.469-1.206c0 .102-.097.174-.546-.061-1.137-.649-.301-.378-.923-.828-.326-.072-1.02-.583-1.122-.399a1.06 1.06 0 0 1-.439-.445c-.638-.255-2.76-1.564-2.214-.976l.143.102-.102-.046c-2.04-.925-3.933-2.423-5.886-3.445l.041-.061c-.26-.128-.51-.271-.806-.419l-.714-.378a17.53 17.53 0 0 0-1.239-.613 1.59 1.59 0 0 0 .184-.158c.161-.091.332-.163.51-.215.168-.046.286-.051.286 0l.326-.24c.107-.077.163-.123.321-.22.416-.253.847-.48 1.29-.68-.811.618.357-.077-.852.603.928-.393 1.8-.909 2.591-1.533-.316.404.974-.286 1.484-.644l-.862.337c.592-.373 1.127-.665 1.673-.961l-.168.383c2.469-1.073 3.917-2.862 5.937-3.44.51-.511-1.321.618-.872.128 1.081-.588 2.367-.92 2.703-1.114 1.53-.721 1.178-1.104 2.749-1.901-.24.036-.541-.066.556-.797 1.087-.588 1.5-.434.862 0-.25.153-.388.204-.393.169-.332.23-.76.511-.291.363l.092-.158c.576-.225 2.04-1.084 1.765-.757.765-.542.27-.327-.347 0 1.428-.68 2.137-1.232 3.571-1.973-.245.087-.51.118-.281 0 2.117-1.099.821-.675 2.204-1.533.862-.343-.128.445 1.224-.465.908-.419.301.097 0 .358 1.011-.663 2.084-1.226 3.203-1.682l-.643.45c.383-.271.714-.46 1.051-.654l-.474.066c.413-.199.75-.394.781-.327.352-.337-.459-.072.27-.68.571-.23 1.56-1.022 1.861-.92-1.703.895.301.102-1.086.951.325-.218.666-.412 1.02-.578.071 0-.036.077-.133.148 1.694-.736.597-.654 2.25-1.605-.143.24.51 0 .76-.179-.663.383-.429 0 .132-.45a10.7 10.7 0 0 0 1.668-1.022l-.652.322c.424-.382.9-.704 1.412-.956.118.051-.632.45-.346.337.703-.68 1.968-.859 3.06-1.656.571-.23.173.184.668-.031 1.194-.889 1.479-.644 2.75-1.533-.475.067-.511.143.336-.552l-2.147 1.385 1.29-1.048c-.668.389-1.351.915-1.765 1.119.602-.511.556-.44.164-.383 1.045-.296 1.729-1.181 2.876-1.636l.189.404c1.683-.746 2.704-1.83 4.82-2.924l-.703.317c.188-.312 1.259-.757 1.892-1.206 0 .164.454-.031.785-.112-.086-.077 1.531-.864 1.531-1.232l1.02-.363c1.704-.889 1.688-1.462 3.31-2.341-.403.414.378.087-.637.808.51-.307 1.02-.562.989-.659.357-.097 1.377-1.022 1.939-1.191a2.2 2.2 0 0 1 .795-.7c.082 0 .036.066.036.066s.888-.629.281-.465c1.877-.552 4.59-2.689 6.207-3.174l3.571-2.183c-.046.077.03.066-.179.159 1.53-.649.704-.854 2.469-1.59.51-.082.275.046 0 .174s-.561.307-.275.204c.214.148.724-.097 1.351-.399.622-.381 1.301-.66 2.01-.828l-.286.128c.571-.131 1.124-.33 1.648-.593l.974-.429a8.4 8.4 0 0 1 1.102-.337s-.066.061 0 .072a14.46 14.46 0 0 1 2.04-.818c.816-.225 1.694-.439 2.443-.629-.433.281-.668.24-.346.373.673-.159-.26-.286 1.091-.578.464.041 1.464 0 1.622.179l-1.28.189c.694.174 1.653-.24 2.336-.291l-.071.128a18.3 18.3 0 0 0 1.989-.358c.255-.061.51-.117.847-.174l.556-.077h.714l-.214-.087c1.157-.322.984.138 2.147-.113l.352.286c.388-.046 1.061-.082 1.816-.138a20.36 20.36 0 0 1 2.28-.066c-.241.043-.485.074-.729.092a20.66 20.66 0 0 1-.903.092l-1.786.148c.999.05 2 .026 2.995-.072-.34.026-.681.026-1.021 0 .251-.055.505-.098.76-.128.276 0 .567-.036.878-.036.691-.006 1.382.023 2.071.087-.332.511 3.927.649 4.907 1.385a20.27 20.27 0 0 1 3.927.925c.663.199 1.306.511 1.984.726l1.021.378 1.05.445c-.841-.848.837.343.842-.158.343.106.673.25.984.429l1.827 1.257c.392.358-.658-.225-.648-.107 1.377.772.51.455 1.351 1.084-.107-.25.602.077 1.367.593l-1.02-.833c2.076.92 1.495 1.308 3.571 2.239l-.694-.235c1.056.511 3.724 2.157 4.897 2.413.153.148.326.394-.133.164 2.382 1.447 5.565 2.77 7.33 4.053h-.24a5.2 5.2 0 0 1 1.393.695c-.051 0-.235 0-.031.118a10.39 10.39 0 0 1 1.857.925l-.571-.189c2.28 1.493 3.764 1.825 5.779 2.898-.174.286 1.627 1.452 2.55 2.044h-.056c2.719 1.62 4.795 2.453 7.396 3.808 1.398 1.222 5.259 3.22 7.692 4.856-.357-.271.194-.184.658.046.561.404 1.76.751 1.531.961l-.21-.128c.301.511 1.561 1.155 2.51 1.712l.357-.25c2.209 1.942 6.631 3.578 7.743 4.83.653.261 1.398.695 2.04.956l-.142.164a72.11 72.11 0 0 0 4.55 2.668l-.511-.112c1.158.685 1.776.317 2.857.925l.163.465c2.04 1.165 3.943 2.597 6.09 3.506-.056 0-.158.066-.51-.112.949.557 3.571 2.321 3.459 1.743-.123.261 2.076 1.237 3.234 1.763l-.276.082a8.7 8.7 0 0 1 2.454.941c.29.199.183.296-.194 0 .964.685.892.291 2.071 1.099l-.51-.148a4.46 4.46 0 0 0 1.647.71c.704.307 1.964 1.196 2.041 1.452a3.09 3.09 0 0 1 1.438.583c.051.112-.199 0-.321-.026 1.683 1.135 2.729 1.298 3.835 2.172 0 .077.051.148.138.225l-2.392-1.421c-.097.169 1.02.849 0 .562a22.06 22.06 0 0 1 3.729 1.728.6.6 0 0 1 .112.143l-.123-.046a3.97 3.97 0 0 0 .709.373c.332.23.541.378.878.578.051.21 1.249.818 1.805 1.15.056-.21.776.245.174-.302.081.061-.118-.041-.51-.25-.087-.041-.189-.097-.25-.118h.046l-1.403-.797c.573.164 1.108.442 1.571.818.352.046.74.107.954.159.617.695 2.04 1.692 2.137 1.968l1.489.772.745.337a3.84 3.84 0 0 0-.331.322l-.169.199a2.33 2.33 0 0 1-.214.25c-.236.184-.527.283-.826.281.248-.157.489-.328.719-.511-.923.654-2.867 1.707-2.958 2.08-1.291.603.561-.618-1.102.394l.183-.204c-3.54 1.533-5.039 3.736-9.008 5.372.158-.088.331-.145.51-.169-4.32 2.213-8.528 5.209-12.864 7.258-.71.343-1.355.806-1.907 1.37l-.368-.051-1.096.94c-1.648 1.171-3.295 1.263-5.32 2.852l.362-.036c-.806.435-2.464 1.534-2.418 1.304-.122.185-.301.325-.51.399l-.082-.092-1.846 1.303c-1.531.797 0-.547-2.209.705-.796.511-2.158 1.651-1.811 1.534s.883-.425.964-.333l-.714.486c.036.378-.357 1.022 1.597.174l1.173-.925.51-.092-1.071.633a3.45 3.45 0 0 0 1.392-.899c.219.004.435-.047.628-.148l1.091-1.023c.22.031-.428.563.449.143.51-.475-.714.057.209-.592.689-.215.577 0 1.225-.537.147 0 .025.158-.24.358.586-.465 1.668-1.023 1.908-1.37.734-.2 2.132-1.293 2.234-.971.485-.459 1.013-.869 1.576-1.227-.872.966 2.214-1.252 2.142-.721.612-.766 2.785-1.794 4.081-2.78a1.02 1.02 0 0 1-.327.266c.529-.272 1.074-.509 1.633-.711-.041-.312 1.157-1.084 1.729-1.625 1.112-.317-.413.639.025.7-.168-.179 1.566-1.181 1.138-1.165.831-.276.683-.296 1.188-.307-.056-.394.658-.45 1.163-1.022 1.163-.465.449.138 1.571-.644.582-.194-.403.526-.403.526zm8.401-17.762l.582.327-.582-.327zm-2.356-1.365a36.31 36.31 0 0 0 1.02.603c.046.107-.077.123-.316 0 .148.015-.383-.342-.704-.603h0zm4.254 4.156c-.388-.189-.51-.296-.51-.363l.663.353h.061c-.07.021-.143.024-.214.01h0z"/><path d="M278.023 80.422a1.61 1.61 0 0 1 .163.076 2.36 2.36 0 0 0-.199-.168h-.168l.204.092zM77.73 72.586l-.046-.031c.034.024.064.053.087.087l-.041-.056zM240.593 56.93l-.02.051.229.076-.209-.127zM90.355 80.729a.48.48 0 0 0 .148.143 1 1 0 0 0-.148-.143h0zm5.59 3.286l.755.511-.755-.511zm4.259 2.586c.046.002.092-.008.133-.031h0l-.133.031zm4.902-40.871l.158-.102c.372-.26.117-.097-.158.102zM84.948 57.968l.602-.465c-.372.194-.658.353-.602.465z"/><path d="M127.794 32.339l.143-.081-.143.081zM86.478 56.956a5.82 5.82 0 0 0-.954.547c.328-.164.646-.347.954-.547h0zm32.375 40.543l.204.127h.04l-.244-.127z"/><path d="M119.123 97.617l.245.107a.63.63 0 0 0-.245-.107h0z"/><path d="M119.852 97.958l-.51-.234a1.49 1.49 0 0 0 .51.234h0zm-6.661-3.843h-.102c.016.008.033.012.051.012s.035-.004.051-.012h0z"/><path d="M111.472 93.129a14.4 14.4 0 0 0 1.555 1.022h.087c-.357-.066-1.214-.905-1.642-1.022zm-6.8-5.009l1.424.894c-.21-.22-.51-.511.178-.143-1.709-1.273.291.378-1.602-.751zm-4.422-2.714c.801.419.051-.107.112-.123-.556-.22-.683-.296-.112.123zM70.456 67.27a1.24 1.24 0 0 0 .138.143c.255-.178-.056-.056-.138-.143zm5.525-4.344l-.643.235-.194.317.837-.552zm4.366-.941l-.25.174.969-.639-.719.465zm54.69-31.721l-.301-.102c-.387.276-.341.552.301.102zm25.249-8.454a3.29 3.29 0 0 0 1.531.036c-.612 0-1.219-.076-1.531-.036zm73.095 33.142l-.516-.21.929.46-.413-.25z"/></g></svg>