<svg xmlns="http://www.w3.org/2000/svg" xmlns:xlink="http://www.w3.org/1999/xlink" width="324" height="280" fill="none" xmlns:v="https://vecta.io/nano"><style><![CDATA[.B{fill:#3c2829}.C{stroke:#3c2829}.D{fill:#a59379}.E{stroke-width:.31}.F{stroke-miterlimit:10}.G{stroke-width:.4}.H{stroke-linecap:round}.I{stroke-linejoin:round}.J{fill:#80715b}.K{fill:#daccbb}.L{fill:#d8d2c3}.M{fill:#f4ecd5}.N{fill:#fffbef}]]></style><path d="M107.469 232.02l-52.788-30.604v-60.82l52.788 30.603v60.821z" class="D"/><use xlink:href="#B" class="J"/><path d="M107.824 110.173l13.214 7.423 13.175 7.5 13.131 7.555 13.715 7.974-.613.347-13.262 7.54-6.615 3.765-6.614 3.794-13.195 7.652-13.262 7.813-.136-.078-26.326-15.041-13.131-7.559-13.131-7.608-.773-.439 13.968-8.053 13.267-7.574 13.267-7.535 13.296-7.476.049.083-26.258 15.617-13.131 7.725-13.204 7.652v-.874l13.131 7.598 13.088 7.648 26.136 15.372h-.268l13.248-7.564 13.17-7.652 6.581-3.853 6.56-3.907 13.132-7.764v.698l-13.132-7.579-13.087-7.652-13.029-7.661-13.01-7.814.049-.073z" class="B"/><path d="M160.242 140.615v60.821l-52.788 30.603v-60.821l52.788-30.603z" class="J"/><g class="B"><path d="M160.29 140.615l.21 15.207.116 15.201.054 15.207-.025 15.44-.199.118-19.877 11.299-6.614 3.795-13.2 7.652-13.525 7.969v-.464l-.189-30.412-.049-15.207v-15.494l.253-.147 13.209-7.623 13.243-7.574 13.263-7.529 13.257-7.482.049.083-13.097 7.814-13.131 7.769-13.132 7.725-13.18 7.681.248-.434v15.216l-.048 15.206-.19 30.413-.399-.234 13.243-7.569 13.18-7.652 6.581-3.853 6.565-3.907 13.117-7.754-.204.351V186.22l.053-15.206.117-15.202.204-15.206.097.009z"/><path d="M129.427 173.504l-.156-7.418-.039-3.799.049-3.897.078-.044 2.402-1.323 2.384-1.353 4.921-2.939v.249l.088 6.509.029 3.252v3.375l-.097.073-4.864 3.735-4.795 3.58zm0-.044l4.718-3.907 4.61-3.755-.097.195v-3.252l.029-3.252.088-6.509.214.127-4.781 2.69-2.359 1.397-2.344 1.426.078-.137.048 3.697-.039 3.696-.165 7.584zm-21.929 58.604l-26.423-14.967-13.316-7.613-13.477-7.833v-.235l.204-22.804.029-7.603v-15.207l-.097-15.665.399.229 26.486 15.133 13.224 7.608 13.443 7.804v.288l-.049 15.319-.122 15.284-.301 30.262zm-.049-.088l-.306-30.555-.122-15.138-.048-15.094.252.435-13.209-7.633-13.17-7.696L54.55 140.83l.399-.234-.097 15.206v15.207l.029 7.603.092 7.603.136 15.201-.229-.341 13.131 7.588 13.078 7.686 26.36 15.627z"/><path d="M139.203 152.848l-9.698 5.786-.073-.044-13.131-7.539-13.088-7.647-13.092-7.692-13.331-7.666.199-.117 9.722-5.728.102.058 13.189 7.594 13.156 7.661 26.044 15.334zm-.049 0l-26.418-15.085-13.078-7.544-13.044-7.613h.199l-9.727 5.552v-.229l13.088 7.652 13.161 7.525 13.131 7.559 13.078 7.662h-.141l9.751-5.479z"/></g><g class="C"><path d="M118.047 221.926l-7.636 4.429v-8.008l7.636-4.425v8.004zm10.159-5.743l-7.635 4.425v-10.734l7.635-4.429v10.738zm29.327-62.056l-7.465 4.327v-8.565l7.465-4.327v8.565z" class="E F"/><path d="M109.72 218.82c.141.254 8.093-5.073 8.268-4.785.457.796-7.728 5.611-7.295 6.348.345.605 6.984-4.991 7.393-4.283s-7.466 5.723-7.086 6.388 5.977-4.166 6.278-3.638-6.702 4.707-6.522 5.024c.346.596 6.143-4.346 6.483-3.76.229.406-6.745 5.133-6.322 5.86s7.494-4.971 7.781-4.502m2.524-11.905c.321.561 6.809-4.786 7.189-4.166.442.777-8.04 5.006-7.704 5.596.423.733 6.444-4.394 6.726-3.906.18.307-7.587 5.86-7.12 6.69.413.718 7.689-4.971 7.908-4.585.35.605-7.806 6.47-7.519 6.968.185.327 8.102-5.191 8.316-4.82.278.488-9.785 5.67-9.24 6.636.438.757 8.423-5.425 8.652-5.02.418.723-8.355 5.714-7.864 6.568.136.235 7.898-5.063 8.107-4.697s-7.942 4.307-7.616 4.883c.233.4 7.713-4.839 7.869-4.561.224.381-7.806 4.688-7.645 4.966.374.65 6.561-4.556 6.886-3.994m21.22-65.768c.389.674 7.898-5.537 8.311-4.819.462.805-8.803 6.568-8.36 7.324.151.269 6.93-4.98 7.349-4.258s-7.135 6.08-6.994 6.324 6.887-4.883 7.295-4.214c.229.4-7.295 5.655-7.105 5.987.355.62 6.677-4.796 7.076-4.102.17.298-6.381 3.315-6.089 3.823.199.347 5.719-4.268 6.128-3.555.486.84-7.932 5.64-7.733 5.992.151.259 7.456-5.313 7.884-4.571" class="G H I"/></g><use xlink:href="#C" class="J"/><path d="M216.755 110.173l13.219 7.423 13.175 7.5 13.131 7.555 13.71 7.974-.608.347-13.262 7.54-6.61 3.765-6.614 3.794-13.199 7.652-13.263 7.813-.136-.078-26.326-15.041-13.131-7.559-13.885-8.047 13.967-8.053 13.244-7.574 13.262-7.535 13.297-7.476.049.083-13.098 7.813-13.131 7.77-13.156 7.725-13.18 7.676v-.864l13.132 7.598 13.092 7.648 26.136 15.372h-.267l13.243-7.564 13.156-7.652 6.585-3.853 6.56-3.907 13.132-7.764v.698l-13.132-7.579-13.087-7.652-13.039-7.661-13.015-7.814.049-.073z" class="B"/><path d="M269.178 140.615v60.821l-52.788 30.603v-60.821l52.788-30.603z" class="K"/><path d="M238.392 173.504l-.044-14.91 9.461-5.575.119 12.947-9.536 7.538z" class="L"/><g class="B"><path d="M269.227 140.615l.204 15.207.117 15.201.053 15.207v15.44l-.204.118-19.896 11.299-6.615 3.795-13.194 7.652-13.53 7.969v-.464l-.19-30.412-.049-15.207v-15.494l.253-.147 13.214-7.623 13.243-7.574 13.263-7.529 13.297-7.482.048.083-13.097 7.814-13.131 7.769-13.195 7.725-13.18 7.681.253-.434v15.216l-.048 15.206-.195 30.413-.399-.234 13.248-7.569 13.204-7.652 6.586-3.853 6.56-3.907 13.117-7.754-.199.351-.025-15.206.054-15.206.117-15.202.209-15.206.107.009z"/><path d="M238.358 173.504l-.15-7.418-.039-3.799.044-3.804v-.093l.077-.044 2.403-1.323 2.383-1.353 4.708-2.812.209-.127v.249l.092 6.509.025 3.252v3.375l-.093.073-4.863 3.735-4.796 3.58zm.025-.044l4.712-3.907 4.611-3.755-.092.195v-3.252l.024-3.252.092-6.509.214.127-4.78 2.69-2.364 1.397-2.339 1.426.077-.137.049 3.697-.039 3.696-.165 7.584z"/></g><path d="M216.405 232.02l-52.793-30.604v-60.82l52.793 30.603v60.821z" class="J"/><path d="M216.439 232.064l-26.418-14.967-13.316-7.613-13.487-7.833v-.235l.209-22.804.03-7.603v-15.207l-.093-15.665.404.229 26.491 15.138 13.219 7.608 13.447 7.804v.288l-.048 15.319-.127 15.284-.311 30.257zm-.049-.088l-.306-30.555-.127-15.138-.043-15.094.248.435-13.2-7.642-13.184-7.687-26.297-15.465.399-.234-.093 15.206v15.207l.029 7.603.073 7.603.132 15.201-.2-.346 13.132 7.588 13.082 7.686 26.355 15.632zm31.744-79.128l-9.625 5.742-.068.044-.078-.044-13.131-7.539-13.092-7.647-13.073-7.677-13.331-7.667 9.936-5.845.102.059 13.19 7.593 13.131 7.662 26.039 15.319zm-.049 0l-26.418-15.085-13.078-7.544-13.038-7.613h.199l-9.727 5.552v-.229l13.088 7.652 13.131 7.525 13.131 7.559 13.083 7.662h-.146l9.775-5.479z" class="B"/><path d="M226.983 221.926l-7.636 4.429v-8.008l7.636-4.425v8.004zm10.155-5.743l-7.636 4.425v-10.734l7.636-4.429v10.738zm29.326-62.056l-7.465 4.327v-8.565l7.465-4.327v8.565z" class="C E F"/><path d="M161.589 263.517l-52.788-30.604v-60.82l52.788 30.603v60.821z" class="D"/><path d="M218.652 218.82c.146.254 8.097-5.073 8.268-4.785.486.796-7.728 5.611-7.295 6.348.345.605 6.988-4.991 7.392-4.283s-7.465 5.723-7.081 6.388 5.972-4.166 6.279-3.638-6.707 4.707-6.522 5.024c.34.596 6.142-4.346 6.478-3.76.233.406-6.741 5.133-6.323 5.86s7.495-4.971 7.782-4.502m2.529-11.905c.321.561 6.808-4.786 7.183-4.166.447.777-8.039 5.006-7.699 5.596.423.733 6.444-4.394 6.726-3.906.175.307-7.587 5.86-7.125 6.69.414.718 7.689-4.971 7.913-4.585.345.605-7.806 6.47-7.524 6.968.19.327 8.108-5.191 8.322-4.82.277.488-9.79 5.67-9.241 6.636.433.757 8.419-5.425 8.652-5.02.414.723-8.36 5.714-7.864 6.568.131.235 7.893-5.063 8.107-4.697s-7.942 4.307-7.616 4.883c.229.4 7.709-4.839 7.869-4.561.219.381-7.806 4.688-7.65 4.966.375.65 6.566-4.556 6.887-3.994m21.219-65.768c.389.674 7.903-5.537 8.311-4.819.487.805-8.797 6.568-8.36 7.324.156.269 6.935-4.98 7.349-4.258s-7.135 6.08-6.989 6.324 6.887-4.883 7.266-4.214c.229.4-7.295 5.655-7.101 5.987.355.62 6.673-4.796 7.072-4.102.17.298-6.376 3.315-6.089 3.823.199.347 5.724-4.268 6.133-3.555.486.84-7.937 5.64-7.738 5.992.151.259 7.46-5.313 7.884-4.571" class="C G H I"/><use xlink:href="#C" x="-54.811" y="31.497" class="J"/><path d="M161.968 141.67l13.219 7.423 13.17 7.5 13.132 7.555 13.715 7.974-.613.347-19.906 11.304-6.619 3.795-13.195 7.652-13.262 7.813-.137-.078-26.325-15.041-13.132-7.559-13.885-8.048.754-.434 13.204-7.618 13.243-7.574 13.268-7.535 13.296-7.476.049.083-13.102 7.813-13.131 7.769-13.136 7.735-13.2 7.682v-.879l13.131 7.598 13.088 7.647 26.136 15.373h-.248l13.243-7.564 13.175-7.652 6.58-3.853 6.566-3.907 13.131-7.764v.698l-13.131-7.579-13.087-7.652-13.054-7.681-13.01-7.784.073-.083z" class="B"/><path d="M214.362 172.112v60.821l-52.788 30.603v-60.821l52.788-30.603z" class="K"/><path d="M183.579 205.112l-.044-14.91 9.462-5.575.119 12.947-9.537 7.538z" class="L"/><g class="B"><path d="M214.411 172.112l.209 15.207.117 15.221.053 15.206-.024 15.441-.2.117-19.896 11.3-6.614 3.794-13.199 7.652-13.531 7.97v-.464l-.194-30.413-.049-15.207v-15.514l13.467-7.769 13.238-7.574 13.268-7.53 13.292-7.481.048.083-13.097 7.813-13.131 7.77-13.156 7.725-13.18 7.681.248-.434v15.201l-.048 15.207-.19 30.412-.399-.234 13.243-7.569 13.2-7.647 6.58-3.853 6.566-3.907 13.131-7.764-.204.352v-15.207l.048-15.157.117-15.202.204-15.206.083-.02z"/><path d="M183.548 204.981l-.156-7.417-.039-3.8.049-3.896.073-.044 2.402-1.324 2.383-1.352 4.922-2.94v.264l.092 6.509.025 3.252v3.374l-.098.074-4.863 3.735-4.79 3.565zm0-.044l4.717-3.906 4.611-3.756-.098.196v-3.233l.025-3.252.087-6.51.214.127-4.781 2.691-2.358 1.397-2.345 1.426.083-.137.044 3.696-.039 3.697-.16 7.564zm-21.935 58.643l-26.394-14.987-13.316-7.613-13.481-7.832v-.235l.204-22.804.034-7.604v-15.206l-.097-15.665.399.229 26.491 15.138 13.224 7.608 13.442 7.804v.288l-.044 15.318-.462 45.561zm-.048-.088l-.302-30.554-.126-15.138-.049-15.094.253.434-13.199-7.642-13.175-7.706-26.297-15.465.399-.234-.098 15.206v15.206l.03 7.604.204 22.804-.204-.346 13.131 7.588 13.087 7.686 26.346 15.651z"/><path d="M193.323 184.345l-9.698 5.772-.073-.044-13.131-7.54-13.088-7.647-13.073-7.677-13.33-7.666 9.941-5.845.097.058 13.194 7.594 13.132 7.661 26.029 15.334zm-.049 0l-26.418-15.085-13.078-7.544-13.043-7.613h.199l-9.703 5.552v-.229l13.083 7.652 13.16 7.525 13.132 7.559 13.092 7.681h-.146l9.722-5.498z"/></g><g class="C"><path d="M172.167 253.423l-7.636 4.429v-8.008l7.636-4.425v8.004zm10.16-5.743l-7.636 4.424v-10.733l7.636-4.429v10.738zm29.326-62.056l-7.465 4.327v-8.566l7.465-4.326v8.565z" class="E F"/><path d="M163.841 250.317c.146.254 8.093-5.073 8.268-4.785.457.796-7.728 5.611-7.295 6.348.345.605 6.983-4.991 7.392-4.283s-7.48 5.728-7.096 6.392 5.972-4.165 6.274-3.638-6.702 4.708-6.498 5.025c.346.596 6.143-4.346 6.483-3.76.229.405-6.745 5.132-6.322 5.86s7.494-4.971 7.781-4.502m2.515-11.911c.321.562 6.809-4.785 7.188-4.165.447.776-8.039 5.005-7.699 5.596.423.733 6.439-4.395 6.721-3.906.18.307-7.587 5.86-7.12 6.69.414.718 7.689-4.971 7.913-4.586.345.606-7.811 6.471-7.524 6.969.19.327 8.103-5.191 8.317-4.82.277.488-9.785 5.669-9.241 6.636.438.757 8.424-5.425 8.657-5.02.414.723-8.36 5.714-7.869 6.568.136.235 7.898-5.064 8.108-4.697s-7.942 4.307-7.617 4.883c.234.4 7.714-4.839 7.869-4.561.224.381-7.805 4.688-7.645 4.966.375.65 6.566-4.556 6.887-3.994m21.219-65.768c.389.674 7.898-5.537 8.312-4.819.462.805-8.803 6.567-8.361 7.324.151.269 6.931-4.981 7.349-4.258s-7.135 6.075-7.013 6.324 6.887-4.883 7.271-4.214c.228.4-7.295 5.655-7.106 5.987.36.62 6.678-4.796 7.077-4.102.17.298-6.381 3.315-6.089 3.823.199.347 5.719-4.268 6.127-3.555.487.84-7.932 5.64-7.732 5.992.15.259 7.455-5.313 7.883-4.571" class="G H I"/></g><use xlink:href="#B" x="54.811" y="-94.173" class="M"/><path d="M141.713 28.333l-9.557 5.603 51.746 30.205 9.854-5.654-52.043-30.154z" class="N"/><path d="M162.635 16l13.218 7.422 13.171 7.501 13.131 7.554 13.739 7.974-.608.352-19.911 11.3-6.614 3.799-13.175 7.647-13.263 7.813-.131-.078-26.326-15.04-13.131-7.559-13.885-8.048 13.973-8.052 13.238-7.574 13.267-7.535L162.586 16l.049.083-13.098 7.813-13.131 7.769-13.155 7.735-13.18 7.676v-.874l13.131 7.598 13.092 7.647 26.132 15.372h-.263l13.243-7.564 13.199-7.652 6.581-3.853 6.565-3.907 13.132-7.764v.703L201.751 39.2l-13.097-7.628-13.068-7.706-13-7.784.049-.083z" class="B"/><path d="M215.058 46.442v60.821l-52.788 30.603V77.041l52.788-30.598z" class="D"/><g class="B"><path d="M215.106 46.442l.205 15.206.116 15.202.054 15.206v15.441l-.204.117-13.282 7.516-6.634 3.765-6.614 3.794-13.195 7.652-13.53 7.969v-.463l-.195-30.413-.048-15.207V76.752l.253-.146 13.214-7.623 13.223-7.569 13.268-7.53 13.296-7.481.049.088-13.102 7.813-13.131 7.769-13.132 7.725-13.179 7.681.252-.435v15.201l-.053 15.206-.19 30.413-.399-.234 13.244-7.564 13.199-7.652 6.57-3.868 6.561-3.907 13.132-7.764-.2.352-.024-15.207.053-15.206.117-15.201.209-15.206.097.034z"/><path d="M184.238 79.331l-.156-7.418-.038-3.799.048-3.897.073-.044 2.403-1.323 2.388-1.353 4.917-2.94v.249l.092 6.509.024 3.252v3.374l-.097.073-4.863 3.736-4.791 3.579zm0-.044l4.713-3.907 4.61-3.755-.092.195v-3.252l.024-3.252.093-6.509.209.127-4.776 2.691-2.364 1.397-2.315 1.426.078-.137.049 3.697-.039 3.701-.19 7.579z"/></g><path d="M162.285 137.847l-52.793-30.604v-60.82l52.793 30.603v60.821z" class="D"/><path d="M162.304 137.891l-26.418-14.948-13.311-7.633-13.482-7.832v-.23l.2-22.809.034-7.603V61.629l-.093-15.665.404.23 26.486 15.138 13.2 7.603 13.447 7.803v.303l-.049 15.319-.126 15.285-.292 30.247zm-.049-.083l-.413-45.698-.049-15.094.253.435-13.209-7.632-13.18-7.696-26.296-15.465.398-.234-.097 15.206v15.206l.029 7.603.073 7.603.132 15.206-.2-.351 13.132 7.588 13.077 7.686 26.35 15.637zm31.759-79.133l-9.698 5.772-.073-.044-13.131-7.54-13.107-7.657-13.059-7.667-13.33-7.667 9.941-5.845.102.059 13.16 7.594 13.131 7.662 26.064 15.333zm-.049 0L167.547 43.59l-13.078-7.545-13.039-7.613h.2l-9.727 5.552v-.23l13.107 7.637 13.155 7.525 13.132 7.559 13.082 7.662h-.146l9.732-5.464z" class="B"/><path d="M172.858 127.753l-7.636 4.429v-8.009l7.636-4.424v8.004zm10.159-5.743l-7.635 4.424v-10.733l7.635-4.424v10.733zm29.327-62.061l-7.465 4.331v-8.565l7.465-4.326v8.56z" class="C E F"/><path d="M107.469 169.343L54.681 138.74V77.919l52.788 30.604v60.82z" class="D"/><path d="M164.531 124.647c.146.254 8.098-5.074 8.268-4.785.462.795-7.728 5.61-7.295 6.348.345.6 6.984-4.996 7.393-4.288s-7.48 5.733-7.096 6.392 5.972-4.165 6.279-3.638-6.707 4.713-6.527 5.03c.345.596 6.147-4.346 6.483-3.755.233.4-6.746 5.127-6.323 5.86s7.495-4.971 7.782-4.503m2.543-11.91c.321.557 6.809-4.79 7.184-4.17.447.776-8.04 5.005-7.699 5.596.423.733 6.439-4.395 6.726-3.906.175.302-7.592 5.859-7.125 6.685.413.718 7.689-4.971 7.913-4.586.331.601-7.811 6.461-7.524 6.979.19.327 8.108-5.191 8.317-4.82.282.488-9.786 5.669-9.241 6.636.438.757 8.424-5.425 8.657-5.02.413.723-8.36 5.714-7.869 6.568.136.234 7.898-5.064 8.107-4.698s-7.942 4.307-7.611 4.884c.229.4 7.709-4.835 7.869-4.561.219.381-7.811 4.688-7.65 4.966.374.649 6.566-4.556 6.887-3.995m21.219-65.772c.389.674 7.898-5.538 8.311-4.82.487.806-8.802 6.568-8.36 7.325.156.269 6.935-4.981 7.349-4.258s-7.135 6.065-6.994 6.314 6.887-4.883 7.295-4.214c.229.401-7.295 5.655-7.1 5.987.355.62 6.672-4.795 7.071-4.102.17.298-6.381 3.316-6.089 3.824.199.347 5.724-4.268 6.133-3.555.486.84-7.937 5.64-7.738 5.992.151.259 7.456-5.313 7.884-4.571" class="C G H I"/><use xlink:href="#B" y="-62.676" class="M"/><path d="M107.824 47.497l13.214 7.423 13.175 7.501 13.131 7.554 13.715 7.974-.613.352-19.877 11.3-6.614 3.794-13.195 7.653-13.262 7.813-.136-.078-26.326-15.041-13.131-7.559-13.131-7.608-.773-.439 13.968-8.052 13.267-7.574 13.243-7.535 13.297-7.476.049.083-13.102 7.813-13.131 7.769-13.131 7.725-13.204 7.686V77.7l13.131 7.598 13.088 7.647 26.136 15.373h-.268l13.248-7.564 13.17-7.653 6.6-3.853 6.561-3.907 13.131-7.764v.703l-13.131-7.584-13.083-7.628-13.053-7.706-13.01-7.784.049-.083z" class="B"/><path d="M160.242 77.939v60.821l-52.788 30.603v-60.826l52.788-30.598z" class="D"/><use xlink:href="#D" class="N"/><g class="B"><path d="M160.29 77.939l.21 15.206.116 15.202.054 15.206-.025 15.441-.199.117-19.877 11.3-6.634 3.785-13.199 7.652-13.525 7.969v-.464l-.19-30.413-.048-15.206v-15.485l.252-.146 13.19-7.623 13.243-7.574 13.263-7.53 13.296-7.481.049.088-13.097 7.813-13.131 7.769-13.132 7.726-13.18 7.681.248-.435v15.202l-.048 15.206-.19 30.413-.399-.234 13.243-7.565 13.18-7.647 6.581-3.853 6.565-3.906 13.132-7.764-.205.351v-15.206l.054-15.207.117-15.201.204-15.206.082.02z"/><path d="M129.427 110.828l-.156-7.418-.039-3.799.049-3.897.078-.044 2.402-1.323 2.384-1.353 4.921-2.94v.249l.088 6.509.029 3.252v3.374l-.097.074-4.864 3.735-4.795 3.58zm0-.044l4.718-3.907 4.61-3.755-.097.195v-3.252l.029-3.252.088-6.509.214.127-4.781 2.691-2.359 1.397-2.344 1.426.078-.137.048 3.697-.039 3.702-.165 7.579zm-21.929 58.603L81.075 154.42l-13.316-7.613-13.482-7.833v-.229l.209-22.81.029-7.603V93.126l-.102-15.206v-.459l.399.23 26.491 15.138 13.224 7.603 13.442 7.803v.289l-.048 15.318-.122 15.285-.301 30.261zm-.049-.083l-.306-30.559-.122-15.138-.049-15.094.253.434-13.209-7.632-13.17-7.672L54.55 78.178l.423-.259-.097 15.206v15.206l.034 7.603.199 22.81-.204-.352 13.131 7.589 13.078 7.686 26.335 15.636z"/><path d="M139.203 90.172l-9.698 5.772-.073-.044-13.131-7.54-13.088-7.647-13.092-7.677L76.79 65.37l.199-.117 9.722-5.728.102.059 13.189 7.593 13.156 7.662 26.044 15.333zm-.049 0l-26.418-15.084-13.078-7.545-13.044-7.593h.199l-9.727 5.552v-.23l13.088 7.652 13.161 7.525 13.131 7.559 13.078 7.662h-.141l9.751-5.499z"/></g><g class="C"><path d="M118.047 159.25l-7.636 4.429v-8.009l7.636-4.424v8.004zm10.159-5.743l-7.635 4.424v-10.733l7.635-4.424v10.733zm29.327-62.061l-7.465 4.332v-8.565l7.465-4.327v8.56z" class="E F"/><path d="M109.72 156.149c.141.254 8.093-5.074 8.268-4.786.457.796-7.728 5.611-7.295 6.349.345.6 6.984-4.996 7.393-4.288s-7.466 5.723-7.086 6.387 5.977-4.165 6.278-3.638-6.702 4.708-6.522 5.025c.346.596 6.143-4.346 6.483-3.755.229.4-6.745 5.127-6.322 5.86s7.494-4.971 7.781-4.502m2.524-11.906c.321.557 6.809-4.79 7.189-4.17.442.776-8.04 5.005-7.704 5.596.423.733 6.444-4.395 6.726-3.907.18.303-7.587 5.86-7.12 6.686.413.717 7.689-4.972 7.908-4.586.35.606-7.806 6.471-7.519 6.969.185.327 8.102-5.191 8.316-4.82.278.488-9.785 5.669-9.24 6.636.438.757 8.423-5.425 8.652-5.02.418.723-8.355 5.714-7.864 6.568.136.235 7.898-5.064 8.107-4.698s-7.942 4.308-7.616 4.884c.233.4 7.713-4.835 7.869-4.561.224.381-7.806 4.688-7.645 4.966.374.65 6.561-4.556 6.886-3.994m21.22-65.763c.389.674 7.898-5.538 8.311-4.82.462.806-8.803 6.568-8.36 7.325.151.269 6.93-4.981 7.349-4.258s-7.135 6.065-6.994 6.314 6.887-4.883 7.295-4.214c.229.4-7.295 5.655-7.105 5.987.355.62 6.677-4.795 7.076-4.102.17.298-6.381 3.316-6.089 3.824.199.347 5.719-4.268 6.128-3.555.486.84-7.932 5.64-7.733 5.992.151.259 7.456-5.313 7.884-4.571" class="G H I"/></g><use xlink:href="#C" y="-62.676" class="M"/><path d="M216.755 47.497l13.219 7.423 13.175 7.501 13.131 7.554 13.71 7.974-.608.352-19.872 11.3-6.614 3.794-13.199 7.653-13.263 7.813-.136-.078-26.326-15.041-13.131-7.559-13.885-8.047 13.967-8.052 13.244-7.574 13.262-7.535 13.277-7.476.049.083-13.097 7.813-13.131 7.769-13.156 7.725-13.18 7.676v-.874l13.131 7.598 13.093 7.647 26.136 15.373h-.268l13.243-7.564 13.176-7.642 6.594-3.853 6.561-3.907 13.131-7.764v.703l-13.131-7.584-13.082-7.628-13.054-7.706-13.015-7.784.049-.083z" class="B"/><use xlink:href="#D" x="108.796" y="-0.017" class="N"/><path d="M269.178 77.939v60.821l-52.788 30.603v-60.826l52.788-30.598z" class="K"/><path d="M238.375 110.805l-.044-14.91 9.461-5.575.119 12.946-9.536 7.539z" class="L"/><g class="B"><path d="M269.227 77.939l.204 15.206.117 15.202.053 15.206v15.441l-.204.117-26.53 15.085-13.195 7.652-13.53 7.969v-.464l-.189-30.413-.049-15.206v-15.485l.253-.146 13.194-7.623 13.243-7.574 13.263-7.53 13.297-7.481.048.088-13.097 7.813-13.131 7.769-13.156 7.726-13.18 7.681.253-.435v15.202l-.048 15.206-.195 30.413-.399-.234 13.248-7.565 13.204-7.647 6.586-3.853 6.56-3.906 13.132-7.764-.2.351-.024-15.206.053-15.207.117-15.201.209-15.206.093.02z"/><path d="M238.358 110.828l-.15-7.418-.039-3.799.044-3.804v-.093l.077-.044 2.403-1.323 2.383-1.353 4.917-2.94v.249l.092 6.509.025 3.252v3.374l-.093.074-4.863 3.735-4.796 3.58zm.025-.044l4.712-3.907 4.611-3.755-.092.195v-3.252l.024-3.252.092-6.509.214.127-4.78 2.691-2.364 1.397-2.339 1.426.077-.137.049 3.697-.039 3.702-.165 7.579z"/></g><path d="M216.405 169.343l-52.793-30.603V77.919l52.793 30.604v60.82z" class="D"/><path d="M216.439 169.387l-26.418-14.967-13.316-7.613-13.487-7.833v-.229l.205-22.81.029-7.603V93.126l-.093-15.665.404.23 26.491 15.138 13.219 7.608 13.447 7.803v.288l-.048 15.319-.127 15.285-.306 30.256zm-.049-.083l-.306-30.559-.127-15.138-.043-15.094.248.434-13.2-7.642-13.184-7.662-26.297-15.465.399-.234-.093 15.206v15.207l.029 7.603.073 7.603.132 15.206-.2-.351 13.132 7.588 13.082 7.687 26.355 15.611z" class="B"/><path d="M226.983 159.25l-7.636 4.429v-8.009l7.636-4.424v8.004zm10.155-5.743l-7.636 4.424v-10.733l7.636-4.424v10.733zm29.326-62.061l-7.465 4.332v-8.565l7.465-4.327v8.56z" class="C E F"/><path d="M161.589 200.84l-52.788-30.598v-60.826l52.788 30.603v60.821z" class="D"/><path d="M218.652 156.149c.146.254 8.097-5.074 8.268-4.786.486.796-7.728 5.611-7.295 6.349.345.6 6.988-4.996 7.392-4.288s-7.465 5.723-7.081 6.387 5.972-4.165 6.279-3.638-6.707 4.708-6.522 5.025c.34.596 6.142-4.346 6.478-3.755.233.4-6.741 5.127-6.323 5.86s7.495-4.971 7.782-4.502m2.529-11.906c.321.557 6.808-4.79 7.183-4.17.447.776-8.039 5.005-7.699 5.596.423.733 6.444-4.395 6.726-3.907.175.303-7.587 5.86-7.125 6.686.414.717 7.689-4.972 7.913-4.586.345.606-7.806 6.471-7.524 6.969.19.327 8.108-5.191 8.322-4.82.277.488-9.79 5.669-9.241 6.636.433.757 8.419-5.425 8.652-5.02.414.723-8.36 5.714-7.864 6.568.131.235 7.893-5.064 8.107-4.698s-7.942 4.308-7.616 4.884c.229.4 7.709-4.835 7.869-4.561.219.381-7.806 4.688-7.65 4.966.375.65 6.566-4.556 6.887-3.994m21.219-65.763c.389.674 7.903-5.538 8.311-4.82.487.806-8.797 6.568-8.36 7.325.156.269 6.935-4.981 7.349-4.258s-7.135 6.065-6.989 6.314 6.887-4.883 7.266-4.214c.229.4-7.295 5.655-7.101 5.987.355.62 6.673-4.795 7.072-4.102.17.298-6.376 3.316-6.089 3.824.199.347 5.724-4.268 6.133-3.555.486.84-7.937 5.64-7.738 5.992.151.259 7.46-5.313 7.884-4.571" class="C G H I"/><use xlink:href="#C" x="-54.811" y="-31.179" class="M"/><path d="M161.968 78.994l13.219 7.423 13.17 7.501 13.132 7.554 13.715 7.975-.613.351-19.906 11.3-6.619 3.799-13.195 7.652-13.262 7.813-.137-.078-26.325-15.04-13.132-7.559-13.885-8.048.754-.435 13.204-7.622 13.243-7.574 13.268-7.535 13.296-7.476.049.083-13.102 7.813-13.136 7.779-13.131 7.725-13.185 7.677v-.874l13.131 7.598 13.088 7.647 26.136 15.372h-.263l13.243-7.564 13.2-7.652 6.58-3.853 6.565-3.906 13.132-7.764v.703l-13.132-7.584-13.087-7.647-13.078-7.686-13.01-7.784.073-.083z" class="B"/><path d="M214.362 109.436v60.82l-52.788 30.604v-60.826l52.788-30.598z" class="K"/><use xlink:href="#D" x="54.195" y="31.534" class="N"/><path d="M183.579 142.324l-.044-14.91 9.462-5.575.119 12.947-9.537 7.538z" class="L"/><g class="B"><path d="M214.411 109.436l.209 15.206.117 15.202.053 15.206-.024 15.441-.2.117-19.896 11.28-6.614 3.795-13.199 7.652-13.531 7.969v-.464l-.194-30.413-.049-15.206v-15.475l13.467-7.769 13.229-7.569 13.267-7.53 13.292-7.481.049.088-13.098 7.813-13.131 7.769-13.156 7.725-13.18 7.682.249-.435v15.202l-.049 15.206-.19 30.413-.399-.235 13.244-7.564 13.199-7.652 6.59-3.867 6.566-3.907 13.131-7.764-.204.351v-15.206l.053-15.206.117-15.202.204-15.206.078.034z"/><path d="M183.548 142.324l-.156-7.417-.039-3.799.049-3.897.073-.044 2.402-1.324 2.383-1.352 4.922-2.94v.249l.092 6.509.025 3.253v3.374l-.098.073-4.863 3.736-4.79 3.579zm0-.044l4.717-3.906 4.611-3.755-.098.195v-3.252l.025-3.253.087-6.509.214.127-4.781 2.691-2.358 1.396-2.345 1.426.083-.137.044 3.697-.039 3.702-.16 7.578zm-21.935 58.604l-26.394-14.947-13.316-7.613-13.481-7.833v-.23l.204-22.809.034-7.603v-15.207l-.097-15.665.399.229 26.491 15.138 13.224 7.608 13.442 7.804v.278l-.044 15.319-.126 15.284-.336 30.247zm-.048-.083l-.302-30.559-.126-15.138-.049-15.094.253.434-13.199-7.642-13.175-7.696-26.297-15.465.399-.234-.098 15.206v15.206l.03 7.604.204 22.809-.204-.351 13.131 7.588 13.087 7.696 26.346 15.636z"/><path d="M193.323 121.668l-9.698 5.772-.073-.044-13.131-7.539-13.088-7.647-13.092-7.677-13.331-7.666.2-.117 9.741-5.728.098.059 13.194 7.593 13.131 7.662 26.049 15.333zm-.049 0l-26.418-15.084-13.078-7.544-13.043-7.613h.199l-9.703 5.552v-.23l13.083 7.638 13.161 7.525 13.131 7.559 13.082 7.662h-.145l9.731-5.465z"/></g><g class="C"><path d="M172.167 190.747l-7.636 4.429v-8.009l7.636-4.424v8.004zm10.16-5.743l-7.636 4.424v-10.733l7.636-4.424v10.733zm29.326-62.061l-7.465 4.331v-8.565l7.465-4.326v8.56z" class="E F"/><path d="M163.841 187.641c.146.254 8.093-5.074 8.268-4.786.457.796-7.728 5.611-7.295 6.348.345.601 6.983-4.995 7.392-4.287s-7.48 5.733-7.096 6.392 5.972-4.165 6.274-3.638-6.702 4.712-6.498 5.03c.346.596 6.143-4.346 6.483-3.755.229.4-6.745 5.127-6.322 5.86s7.494-4.972 7.781-4.503m2.515-11.91c.321.557 6.809-4.791 7.188-4.17.447.776-8.039 5.005-7.699 5.596.423.732 6.439-4.395 6.721-3.907.18.303-7.587 5.86-7.12 6.685.414.718 7.689-4.971 7.913-4.585.345.606-7.811 6.47-7.524 6.968.19.328 8.103-5.19 8.317-4.819.277.488-9.785 5.669-9.241 6.636.438.757 8.424-5.425 8.657-5.02.414.723-8.36 5.713-7.869 6.568.136.234 7.898-5.064 8.108-4.698s-7.942 4.307-7.617 4.884c.234.4 7.714-4.835 7.869-4.561.224.38-7.805 4.688-7.645 4.966.375.649 6.566-4.556 6.887-3.995m21.219-65.762c.389.674 7.898-5.538 8.312-4.82.462.806-8.803 6.568-8.361 7.325.151.269 6.931-4.981 7.349-4.258s-7.135 6.075-7.013 6.324 6.887-4.884 7.271-4.215c.228.401-7.295 5.655-7.106 5.987.36.62 6.678-4.795 7.077-4.102.17.298-6.381 3.316-6.089 3.824.199.347 5.719-4.268 6.127-3.555.487.84-7.932 5.64-7.732 5.992.15.258 7.455-5.313 7.883-4.571" class="G H I"/></g><path d="M248.134 90.172l-9.693 5.772-.078-.044-13.131-7.54-13.092-7.647-13.088-7.677-13.331-7.667.2-.117 9.736-5.728.103.059 13.189 7.593 13.132 7.662 26.053 15.333zm-.049 0l-26.418-15.084-13.078-7.545-13.039-7.593h.2l-9.727 5.552v-.23l13.087 7.652 13.132 7.525 13.131 7.559 13.083 7.662h-.146l9.775-5.499z" class="B"/><defs ><path id="B" d="M107.799 110.217l52.457 30.408-52.787 30.603-52.462-30.413 52.792-30.598z"/><path id="C" d="M216.731 110.217l52.457 30.408-52.788 30.603-52.462-30.413 52.793-30.598z"/><path id="D" d="M87.061 59.903l-9.558 5.603 51.747 30.205 9.853-5.654-52.042-30.154z"/></defs></svg>