<svg width="1620" height="863" viewBox="0 0 1620 863" fill="none" xmlns="http://www.w3.org/2000/svg">
<path d="M455.457 119.625C603.151 51.9835 899.503 17.1025 1165.13 119.625C1165.13 119.625 903.7 196.388 771.184 352.289C486.63 687.059 1.26627 458.9 105 616C131.527 656.174 618.72 682.632 807 576.5C1064.84 431.159 1367.7 725.223 1518.5 634" stroke="black" stroke-opacity="0.2" stroke-dasharray="10 10"/>
<circle cx="541.778" cy="508.778" r="7.27847" fill="white" stroke="#C0C0C0"/>
<circle cx="541.778" cy="508.778" r="5.30762" fill="#C0C0C0"/>
<circle cx="458.778" cy="649.778" r="7.27847" fill="white" stroke="#C0C0C0"/>
<circle cx="458.778" cy="649.778" r="5.30762" fill="#C0C0C0"/>
<circle cx="1165" cy="572" r="15.5" fill="white" stroke="#C0C0C0"/>
<circle cx="1165" cy="572" r="10.9176" fill="#C0C0C0"/>
<circle cx="785.222" cy="336.222" r="10.7215" fill="white" stroke="#C0C0C0"/>
<circle cx="785.221" cy="336.221" r="7.65699" fill="#C0C0C0"/>
<circle cx="785.764" cy="55.0669" r="15.2785" fill="white" stroke="#C0C0C0"/>
<circle cx="785.763" cy="55.0668" r="10.7664" fill="#C0C0C0"/>
</svg>
