<svg xmlns="http://www.w3.org/2000/svg" width="1620" height="863" fill="none"  xmlns:v="https://vecta.io/nano"><path d="M455.457 119.625c147.694-67.642 444.046-102.523 709.673 0 0 0-261.43 76.763-393.946 232.664C486.63 687.059 1.266 458.9 105 616c26.527 40.174 513.72 66.632 702-39.5 257.84-145.341 560.7 148.723 711.5 57.5" stroke="#000" stroke-opacity=".2" stroke-dasharray="10 10"/><circle cx="541.778" cy="508.778" r="7.278" fill="#fff" stroke="silver"/><circle cx="541.778" cy="508.778" r="5.308" fill="silver"/><circle cx="458.778" cy="649.778" r="7.278" fill="#fff" stroke="silver"/><circle cx="458.778" cy="649.778" r="5.308" fill="silver"/><circle cx="1165" cy="572" r="15.5" fill="#fff" stroke="silver"/><circle cx="1165" cy="572" r="10.918" fill="silver"/><circle cx="785.222" cy="336.222" r="10.722" fill="#fff" stroke="silver"/><circle cx="785.221" cy="336.221" r="7.657" fill="silver"/><circle cx="785.764" cy="55.067" r="15.279" fill="#fff" stroke="silver"/><circle cx="785.763" cy="55.067" r="10.766" fill="silver"/></svg>