<svg xmlns="http://www.w3.org/2000/svg" width="324" height="530" fill="none"  xmlns:v="https://vecta.io/nano"><g clip-path="url(#A)" fill="#000"><path d="M247.294 273.461l.471 37.626-.078 37.627.078 18.814-.078 18.813-.628 18.813c-.314 6.298-.706 12.516-1.255 18.814l-.157-.315c4.628 4.093 9.02 8.501 13.334 12.91l12.784 13.382-.078.078-6.589-6.533-6.51-6.613c-4.392-4.408-8.784-8.658-13.49-12.673l-.157-.157v-.237c.549-6.218.942-12.516 1.255-18.734l.706-18.814c.392-12.516.549-25.11.471-37.627l-.392-37.626.157-37.627.156.079z"/><path d="M246.51 411.845c2.039 2.519 4.235 4.802 6.51 7.006s4.862 4.172 7.294 6.219 4.784 4.329 6.98 6.691l6.275 7.321.078.078v.079c-.314 8.029-.549 16.137-.471 24.166l.314 12.123.314 6.061c.078 2.047.078 4.015.078 6.061 0 4.015.079 8.108-.078 12.123 0 1.023-.079 2.046-.157 3.07s-.078 1.967-.157 2.991l-.392 30.227h-.078c-.236-8.029-.236-16.137-.314-24.166 0-2.047-.079-4.015 0-6.061 0-1.024.078-2.047.157-3.07s.078-1.968.157-2.991l.156-12.123-.078-6.061c0-2.047-.157-4.015-.235-6.061-.157-4.015-.157-8.108-.079-12.123l.236-24.166.078.157c-2.039-2.44-4.157-4.88-6.353-7.163s-4.471-4.565-6.823-6.691l-3.687-3.07a35.05 35.05 0 0 1-3.529-3.306c-2.275-2.204-4.314-4.644-6.196-7.321zm15.686-97.137c.784 4.409.784 8.974.706 13.382l-.314 13.382c-.157 4.487-.157 8.974-.078 13.382.078 4.487.313 8.974.549 13.382l-.079-.236c2.039 2.283 4.392 4.251 6.745 6.219s4.706 3.935 6.902 6.061l6.51 6.455 6.431 6.612-.078.079-6.745-6.219-6.667-6.297c-2.196-2.126-4.549-4.015-6.902-6.062-2.353-1.968-4.627-4.014-6.666-6.376l-.079-.078v-.158l-.078-13.461-.157-13.46a192.5 192.5 0 0 1 .235-13.461l.157-6.691c-.157-1.968-.235-4.172-.392-6.455z"/><path d="M263.137 358.948c1.961 2.361 4.235 4.25 6.51 6.297l3.216 3.227 3.137 3.306c2.196 2.126 4.549 4.015 6.823 5.904 2.275 1.968 4.549 4.015 6.432 6.534l-.079.078c-2.196-2.125-4.549-4.014-6.902-5.903-2.352-1.968-4.627-3.936-6.666-6.298l-2.981-3.463-3.451-2.913c-2.274-1.889-4.549-4.014-6.039-6.769zm26.275 25.346c-.157 8.108.706 16.216.784 24.324.078 4.093-.392 8.108-.549 12.201-.079 1.024-.079 2.047-.157 3.07v3.07l.392 30.464-.235 24.402h-.078a629.51 629.51 0 0 1-.471-24.402l.078-24.403.079-6.061v-3.07l.078-3.07c.157-4.093.314-8.108.157-12.201-.157-8.108-.784-16.216-.078-24.324z"/><path d="M262.902 391.536c2.745 1.102 4.784 3.385 6.667 5.589l5.882 6.376c4.157 4.015 8.627 7.715 13.019 11.572 2.197 1.968 4.314 3.857 6.353 5.982l6.04 6.298 11.764 12.909.079.079v.157c.157 3.307.235 6.691.313 9.998v9.997l-.156 9.997-.314 9.997h-.079c-.078-3.306-.078-6.691-.078-9.997l-.078-9.997-.157-9.997-.236-9.998.079.237-11.451-13.146c-.941-1.102-1.961-2.126-2.902-3.228-1.02-1.023-1.961-2.125-2.98-3.148-2.04-2.047-4.236-3.936-6.51-5.825-4.471-3.7-9.098-7.321-13.177-11.414a76.65 76.65 0 0 1-5.804-6.534c-1.804-2.204-3.686-4.565-6.274-5.904zm43.059 114.613l.314 8.186-.236 4.094.079 4.093.235 8.186-.392 8.187h-.079l-.392-8.187.236-8.186.078-4.093c0-1.339-.157-2.756-.235-4.094-.079-2.755 0-5.431.313-8.186h.079z"/><path d="M306.51 525.513c-.785 1.496-2.118 2.676-3.451 3.621l-2.039 1.338c-.628.473-1.255 1.102-1.804 1.653l-3.294 3.7c-1.177 1.181-2.51 2.283-4.079 2.913l-.078-.079c1.255-1.102 2.353-2.283 3.529-3.464l3.608-3.463 1.961-1.575 1.804-1.653 3.843-2.991zm-76.628-212.222l.393 11.493.313 11.493.236 11.493.078 11.65-.078.078c-2.432 1.811-4.863 3.779-7.059 5.904s-4 4.645-6.118 6.849c-2.118 2.282-4.471 4.25-6.902 6.14l-7.216 5.746.079-.236c.392 7.242.627 14.484.549 21.726 0 3.621-.079 7.242-.235 10.863-.079 3.621.235 7.242.235 10.863v.236l-.157.079c-2.196 1.338-3.843 3.306-5.569 5.274-1.647 1.968-3.451 3.935-5.255 5.825s-3.686 3.699-5.725 5.352c-1.961 1.732-4 3.307-6.118 4.881l-.078-.079c2.039-1.653 4-3.306 5.882-5.116a120.43 120.43 0 0 0 5.569-5.432c1.804-1.889 3.529-3.857 5.176-5.825s3.373-4.093 5.647-5.51l-.156.315c0-3.621-.393-7.242-.314-10.863l.235-10.863a501.23 501.23 0 0 0-.235-21.726v-.158l.078-.078 7.294-5.668c2.432-1.889 4.785-3.857 6.902-6.061s3.843-4.802 6.04-6.927c2.196-2.204 4.549-4.172 6.98-6.062l-.078.237-.314-11.493-.157-11.493-.079-11.493v-11.492l.157.078z"/><path d="M203.764 417.828c-4 3.621-7.843 7.242-11.686 10.942l-5.647 5.667-5.568 5.747.078-.158.471 19.129c.156 6.376.235 12.752.156 19.128l-.47 19.128c-.079 1.574-.157 3.228-.157 4.723 0 .787 0 1.574.157 2.362.078.787.314 1.574.47 2.282.785 3.149.863 6.377.157 9.525h-.078c.47-3.148.235-6.376-.549-9.446-.236-.787-.392-1.574-.549-2.361s-.157-1.653-.236-2.441c0-1.574.079-3.227.079-4.801l.471-19.129.313-19.128c0-6.376-.157-12.752-.627-19.128v-.079l.078-.079 5.49-5.903c1.883-1.968 3.765-3.779 5.726-5.668 3.686-3.542 7.686-7.006 11.921-10.312zm.471 9.603l-.549 26.292-.313 13.146c-.079 4.408 0 8.737.078 13.146l.627 26.291.314 26.292h-.078l-1.02-26.292c-.235-8.738-.392-17.554-.314-26.291l.079-13.146v-13.146c.078-8.738.47-17.554 1.098-26.292h.078zm-45.725 68.563a75.46 75.46 0 0 1 .235 8.423l-.235 4.251.235 12.673-.392 8.423h-.078l-.314-8.423.235-8.423.079-4.25-.157-4.251c-.079-2.834.078-5.589.314-8.423h.078zm-45.177-83.519l.393 22.435c.078 7.478 0 14.956-.157 22.434-.079 7.478.078 14.956.157 22.434l.078 5.589v.709c0 .157.079.393.157.551.078.079.078.157.157.236s.078.079.235.157l.549.473 2.196 1.81 2.118 1.811c.706.551 1.49 1.102 2.196 1.653.706.472 1.569.944 2.353 1.574s1.412 1.338 1.961 2.204l.078.079v.157c-.157 3.228-.235 6.534-.314 9.761l.079 9.761.314 9.761.392 9.761h-.079l-.706-9.761a202.96 202.96 0 0 1-.47-9.761c-.157-3.227-.236-6.533-.236-9.761s.079-6.533.236-9.761l.078.236c-.47-.787-1.098-1.416-1.725-1.967-.706-.551-1.491-.945-2.275-1.496l-2.196-1.732-4.784-4.093c-.079-.079-.235-.158-.314-.315-.078-.079-.157-.236-.235-.394-.079-.236-.157-.472-.236-.787v-.708l.079-5.589v-22.435l-.235-22.434.235-22.434-.079-.158z"/><path d="M125.255 512.289c-.157.472-.392.787-.706 1.18-.313.315-.549.63-.863 1.024l-1.803 1.968c-1.177 1.259-2.589 2.44-3.844 3.621s-2.431 2.519-3.607 3.857l-3.608 3.857.157-.315-.157 4.093-.392 4.094h-.079l-.235-4.094v-4.25l.078-.079 7.687-7.242 3.529-3.857 1.882-1.811 1.02-.866c.314-.551.627-.866.941-1.18zm0 7.084c-1.177 1.26-2.431 2.44-3.686 3.542-.628.551-1.334 1.024-2.04 1.575-.627.551-1.176 1.181-1.725 1.889l-3.294 3.936-3.451 3.778-.079-.078c.785-1.496 1.804-2.913 2.902-4.251s2.275-2.519 3.608-3.7l1.883-1.732 1.725-1.889c1.255-1.181 2.588-2.283 4.157-3.07zm.784 8.659c.941-.236 1.961.315 2.588 1.023.314.394.471.788.785 1.181.235.394.549.709.862 1.023.628.63 1.177 1.339 1.726 2.126.47.787.941 1.574 1.255 2.44l-.079.079c-.706-.63-1.333-1.26-1.882-1.968a11.76 11.76 0 0 1-1.412-2.362c-.235-.393-.392-.787-.706-1.18-.313-.315-.706-.63-1.019-.866-.706-.551-1.255-1.024-2.118-1.496zm-15.372-116.265l-5.098 4.88-4.785 5.196-4.627 5.352c-1.569 1.732-3.137 3.543-5.02 5.038l.078-.157.079 7.793v7.793l-.157 7.871-.314 7.793h-.078l-.235-7.793v-7.871l.157-7.793.235-7.872.079-.079c1.882-1.417 3.529-3.148 5.02-4.959l4.392-5.589a49.84 49.84 0 0 1 4.863-5.116 37.28 37.28 0 0 1 5.412-4.487z"/><path d="M113.255 419.087l-5.804 4.96-2.745 2.676-2.51 2.991c-1.568 2.047-3.372 3.936-5.255 5.747-1.882 1.731-3.922 3.384-6.039 4.801l-.078-.078 5.49-5.353 5.49-5.432 2.588-2.833 2.51-2.992c1.883-1.81 4-3.385 6.353-4.487zm-46.118 38.414l.079 13.855-.157 13.854-.078 13.854.392 13.854-.078-.236 6.588 7.006 6.51 7.085 3.294 3.542 3.373 3.463 6.667 6.928-.079.078-6.98-6.612-3.451-3.385-3.373-3.463-13.176-14.169v-14.012l-.157-13.854a408.11 408.11 0 0 1 0-13.855 405.74 405.74 0 0 1 .471-13.854l.157-.079z"/><path d="M67.294 500.953c3.686 2.677 7.216 5.668 10.51 8.895 1.647 1.653 3.216 3.307 4.784 4.96l4.784 4.959A143.61 143.61 0 0 1 92 524.883c.392.473.784.945 1.02 1.496.235.63.314 1.259.392 1.811.078 1.18.078 2.282.078 3.463 0 4.566 0 9.21-.235 13.776h-.078c-.314-4.566-.471-9.21-.549-13.776l-.079-3.463c0-.552-.078-1.103-.235-1.575s-.471-.944-.863-1.338l-4.392-5.274c-1.49-1.732-3.059-3.464-4.627-5.038-1.569-1.653-3.294-3.149-5.02-4.723l-10.118-9.289zm-17.412-52.819c-1.333.708-2.431 1.811-3.372 2.991l-2.98 3.464-6.274 6.691-6.667 6.297-7.137 5.825.078-.157a225.94 225.94 0 0 0-.235 10.312c0 3.464.078 6.927.235 10.312.235 6.848.627 13.775 1.098 20.624v.236l-.314.315c-2.196 1.495-4.235 3.306-6.118 5.195l-5.725 5.746L.863 537.321l-.078-.079L12 525.513l5.647-5.825c1.961-1.889 3.922-3.778 6.196-5.274l-.157.394c-.471-6.849-.784-13.776-.784-20.703v-10.312l.157-10.391.078-.078c2.353-1.968 4.628-4.015 6.902-6.062s4.471-4.172 6.667-6.297 4.314-4.33 6.431-6.534l3.137-3.384c1.02-1.26 2.196-2.362 3.608-2.913z"/><path d="M23.216 506.306c-1.412 2.204-3.059 4.251-4.784 6.219s-3.765 3.621-5.725 5.274l-5.804 5.195-6.039 4.959.157-.393c.157 2.125.078 4.251-.078 6.455-.157 2.125-.471 4.25-.863 6.376H0l.314-6.376-.157-6.613.157-.157 6.196-4.723 5.961-4.959 5.412-5.589 5.333-5.668zm.47 8.738c.392 1.81.471 3.699.471 5.51l-.235 2.755c-.078.945 0 1.81 0 2.755.078 1.811.078 3.7-.078 5.51s-.392 3.7-.863 5.51h-.078c-.078-1.889 0-3.699.078-5.51l.471-5.51.157-2.755c0-.945-.157-1.81-.157-2.755-.078-1.811-.078-3.7.235-5.51zm41.726-59.353l-6.118 6.612-6.196 6.534-3.137 3.227-3.216 3.149-6.353 6.376v-.079l.314 13.225.079 13.224-.314 13.225a359 359 0 0 1-.706 13.145h-.078l.235-26.37.157-13.224.078-13.304 6.196-6.533 3.059-3.306 3.137-3.228 6.353-6.376 6.51-6.297zm-12 32.746l.314 9.525-.314 9.525-.079 9.525-.157 9.524-.078.237c.078-.079 0-.079.078.078 0 .079.078.158.157.315.079.079.157.158.235.158l.471.236c.628.315 1.098.708 1.647 1.102 1.02.866 1.804 1.81 2.588 2.834l2.275 2.991c.784.944 1.647 1.889 2.667 2.676l-.078.079c-1.098-.63-2.039-1.496-2.902-2.44l-2.431-2.913c-.784-.944-1.647-1.889-2.588-2.598-.471-.393-.941-.708-1.49-.944l-.392-.236c-.235-.158-.392-.236-.47-.394-.157-.157-.235-.315-.314-.551-.078-.157-.157-.551.078-.866l-.078.236.471-9.446.314-9.524-.078-9.525.314-9.525-.157-.079z"/><path d="M52.627 521.42c2.196.551 4.078 2.125 5.255 4.014a10.61 10.61 0 0 0 2.039 2.519l2.51 2.204c.392.394.706.945.941 1.496s.314 1.102.392 1.732l.157 3.306-.157 6.691h-.078c-.314-2.204-.471-4.408-.549-6.612-.157-2.204.314-4.487-1.02-6.298-.627-.866-1.49-1.653-2.353-2.283l-1.255-1.102-1.176-1.259c-.706-.866-1.333-1.732-2.118-2.44s-1.647-1.338-2.588-1.968zm194.196-155.309l-6.902 6.376-6.431 6.848-6.274 7.006-6.981 6.297.235 13.697-.078 13.776-.235 13.775-.314 13.776h-.078a399.68 399.68 0 0 1-.236-13.776l.079-13.775.47-27.63h.079l6.823-6.455c1.098-1.102 2.039-2.361 3.059-3.542l3.059-3.621 6.588-6.77c2.118-2.125 4.549-4.172 7.137-5.982zm-13.882 36.21l.549 9.052.078 4.487-.078 4.487.078 9.052v9.053l-.078-.236 2.745 3.385 1.412 1.731 1.412 1.653 5.647 6.691-.079.079-6.117-6.297c-1.02-1.024-1.961-2.204-2.902-3.306l-2.745-3.385-.079-.158v-.157l.314-9.053.078-9.052-.235-4.487-.078-4.487v-9.052h.078z"/><path d="M233.098 432.627l1.961 1.102c.627.393 1.176.944 1.647 1.496l2.902 3.384 2.823 3.464 2.746 3.542.078.158-.078.157c-.471 1.338-.706 2.755-.785 4.172s.079 2.913.079 4.329l.47 8.738.392 8.738.314 8.737-.706-.157c0-.079.079-.079.079-.158.078-.078.078-.157.313-.157.157-.079.393.079.471.079l.157.157c.078.158.157.236.235.315l.549.63 3.294 4.014 4.236 5.432-.079.079-4.627-5.117-2.275-2.598-1.098-1.338-.549-.63-.314-.315s.079.079.236.079c.235-.079.078-.079.078 0l-.706-.157-.313-8.738-.314-17.475-.235-4.408c0-1.496.156-2.991.549-4.408l.078.314-2.824-3.463-2.745-3.464-2.745-3.542c-.47-.551-.941-1.102-1.49-1.574-.627-.551-1.255-.945-1.804-1.417zm-24.706 102.096l6.196-7.006 6.51-6.691 6.431-6.769c2.04-2.283 4.157-4.723 6.745-6.534l.079-.079h.157c3.529.158 7.059.158 10.588.158l5.333-.079h5.334v.079l-5.334.472c-1.804.157-3.529.236-5.333.315-3.529.157-7.137.157-10.667-.158l.236-.078c-2.51 1.732-4.706 4.014-6.902 6.218s-4.314 4.487-6.432 6.849c-2.039 2.361-4.157 4.644-6.353 6.927-2.117 2.047-4.313 4.329-6.588 6.376zm48.078-26.37c.314 3.07.393 6.14.393 9.21l-.157 4.565.157 4.566.313 9.21-.313 9.21h-.079c-.314-3.07-.392-6.14-.47-9.21l.078-9.21.078-4.566-.235-4.565c-.157-3.07-.078-6.14.235-9.21zm-36.862-40.854c.47 1.81.784 3.699.863 5.588l-.079 2.834.079 2.834c.156 1.889.156 3.779.078 5.668l-.471 5.667H220c-.235-1.889-.314-3.778-.314-5.667s.079-3.779.314-5.668c.078-.945.157-1.889.078-2.834 0-.944-.156-1.889-.313-2.834l-.157-5.588zm.392-1.575c.471 1.417 1.412 2.598 2.431 3.779l2.981 3.384 5.882 6.849.079.079v.078l.47 10.234.314 5.116.078 5.274-.078.079-6.51 6.77-6.431 6.927c-2.196 2.282-4.549 4.408-7.059 6.297l-1.882 1.417-1.961 1.259-4 2.519-.079-.078 3.843-2.755 1.883-1.339 1.804-1.495c2.431-1.968 4.627-4.172 6.823-6.376l6.432-6.849 6.745-6.612-.079.157c.157-1.731.157-3.384.079-5.116l-.314-5.117-.471-5.116-.47-5.117.078.157-5.882-6.848-2.902-3.464c-.627-1.259-1.49-2.518-1.804-4.093z"/><path d="M204.313 517.799a92.55 92.55 0 0 1 6.902-6.691l3.687-3.07 3.372-3.385 6.432-7.085c2.196-2.282 4.784-4.408 7.764-5.667v.079c-2.745 1.653-5.019 3.857-7.215 6.14l-4.942 5.195c-.549.551-1.176 1.102-1.803 1.574l-3.53 3.228-3.372 3.384c-2.275 2.283-4.706 4.33-7.295 6.298zm6.432-100.916c-.235 3.936-3.529 6.77-6.98 7.006-3.53.315-6.51-2.912-6.981-7.006.079-3.306 2.51-7.635 6.981-7.005 4.47.236 7.607 3.227 6.98 7.005zm26.902-108.551c-.235 3.936-3.53 6.77-6.981 7.006-3.529.315-6.509-2.912-6.98-7.006.078-3.306 2.51-7.635 6.98-7.006 4.471.237 7.608 3.307 6.981 7.006zm32.471 0c-.236 3.936-3.53 6.77-6.981 7.006-3.529.315-6.51-2.912-6.98-7.006.078-3.306 2.51-7.635 6.98-7.006 4.471.237 7.608 3.307 6.981 7.006zm-15.53-41.247c-.235 3.935-3.529 6.769-6.98 7.005-3.53.315-6.51-2.912-6.981-7.005.079-3.307 2.51-7.636 6.981-7.006 4.392.236 7.608 3.306 6.98 7.006zm42.275 149.798c-.236 3.936-3.53 6.77-6.981 7.006-3.529.315-6.51-2.912-6.98-7.006.078-3.306 2.51-7.635 6.98-7.005 4.392.236 7.608 3.227 6.981 7.005zm0 68.012c-.236 3.936-3.53 6.77-6.981 7.006-3.529.315-6.51-2.913-6.98-7.006.078-3.306 2.51-7.635 6.98-7.006 4.392.236 7.608 3.306 6.981 7.006zm22.745 0c-.236 3.936-3.53 6.77-6.981 7.006-3.529.315-6.509-2.913-6.98-7.006.078-3.306 2.51-7.635 6.98-7.006 4.471.236 7.608 3.306 6.981 7.006zm-39.059 21.962c-.235 3.936-3.529 6.77-6.98 7.006-3.53.315-6.51-2.913-6.981-7.006.079-3.306 2.51-7.635 6.981-7.006 4.47.236 7.608 3.228 6.98 7.006zm-17.804.787c-.235 3.936-3.529 6.77-6.98 7.006-3.53.315-6.51-2.912-6.981-7.006.079-3.306 2.51-7.635 6.981-7.005 4.392.236 7.607 3.306 6.98 7.005zm1.02-16.688c-.236 3.936-3.53 6.77-6.981 7.006-3.529.315-6.51-2.912-6.98-7.006.078-3.306 2.51-7.635 6.98-7.006 4.471.237 7.608 3.228 6.981 7.006zm-37.177-41.877c-.235 3.936-3.529 6.769-6.98 7.005-3.53.315-6.51-2.912-6.981-7.005.079-3.306 2.51-7.636 6.981-7.006 4.392.236 7.608 3.227 6.98 7.006zm0 17.947c-.235 3.936-3.529 6.77-6.98 7.006-3.53.315-6.51-2.913-6.981-7.006.079-3.306 2.51-7.635 6.981-7.006 4.392.236 7.608 3.306 6.98 7.006zm-61.098 23.93c-.235 3.936-3.529 6.77-6.98 7.006-3.53.315-6.51-2.912-6.981-7.006.079-3.306 2.51-7.635 6.981-7.006 4.392.237 7.529 3.228 6.98 7.006zm0 43.295c-.235 3.936-3.529 6.769-6.98 7.006-3.53.314-6.51-2.913-6.981-7.006.079-3.306 2.51-7.636 6.981-7.006 4.392.236 7.529 3.306 6.98 7.006zm22.981-12.752c-.236 3.935-3.53 6.769-6.981 7.005-3.529.315-6.51-2.912-6.98-7.005.078-3.307 2.51-7.636 6.98-7.006 4.392.236 7.53 3.306 6.981 7.006z"/><path d="M210.745 537.006c-.235 3.936-3.529 6.769-6.98 7.006-3.53.315-6.51-2.913-6.981-7.006.079-3.306 2.51-7.636 6.981-7.006 4.47.236 7.607 3.306 6.98 7.006zm-90.431-52.111c-.235 3.936-3.53 6.77-6.981 7.006-3.529.315-6.509-2.913-6.98-7.006.078-3.306 2.51-7.635 6.98-7.006 4.393.236 7.53 3.306 6.981 7.006zm-22.589-16.058c-.235 3.936-3.529 6.769-6.98 7.006-3.529.314-6.51-2.913-6.98-7.006.079-3.306 2.51-7.636 6.98-7.006 4.471.236 7.608 3.306 6.98 7.006zM31.53 504.889c-.235 3.936-3.529 6.77-6.98 7.006-3.529.315-6.51-2.912-6.98-7.006.079-3.306 2.51-7.635 6.98-7.006 4.392.237 7.608 3.228 6.98 7.006zm15.137 30.779c-.235 3.936-3.529 6.769-6.98 7.006-3.529.314-6.51-2.913-6.98-7.006.078-3.306 2.51-7.636 6.98-7.006 4.392.236 7.608 3.306 6.98 7.006zm73.647-127.05c-.235 3.936-3.53 6.77-6.981 7.006-3.529.315-6.509-2.913-6.98-7.006.078-3.306 2.51-7.636 6.98-7.006 4.393.236 7.53 3.306 6.981 7.006zm102.588 81.472c-.157 1.89-1.726 3.228-3.373 3.385s-3.137-1.338-3.372-3.385c0-1.574 1.176-3.621 3.372-3.385 2.196.158 3.687 1.575 3.373 3.385zM70.196 455.691c-.157 1.889-1.725 3.227-3.373 3.385s-3.137-1.338-3.373-3.385c0-1.574 1.176-3.621 3.373-3.385 2.118.158 3.686 1.574 3.373 3.385zm-15.843-9.131c-.157 1.889-1.726 3.227-3.373 3.385s-3.137-1.339-3.373-3.385c0-1.575 1.176-3.621 3.373-3.385 2.196.157 3.686 1.653 3.373 3.385zm2.196 41.877c-.157 1.889-1.725 3.228-3.373 3.385s-3.137-1.338-3.373-3.385c0-1.574 1.177-3.621 3.373-3.385 2.196.158 3.686 1.575 3.373 3.385zm236-36.052c-.157 1.889-1.726 3.227-3.373 3.385s-3.137-1.339-3.372-3.385c0-1.575 1.176-3.621 3.372-3.385 2.196.157 3.687 1.653 3.373 3.385zm16.706 52.504c-.157 1.889-1.726 3.228-3.373 3.385s-3.137-1.338-3.372-3.385c0-1.574 1.176-3.621 3.372-3.385 2.196.079 3.687 1.575 3.373 3.385zm-32.314 14.799c-.156 1.889-1.725 3.227-3.372 3.385s-3.137-1.338-3.373-3.385c0-1.574 1.177-3.621 3.373-3.385 2.117.079 3.608 1.574 3.372 3.385zM265.49 391.615c-.157 1.889-1.725 3.228-3.372 3.385s-3.138-1.338-3.373-3.385c0-1.574 1.177-3.621 3.373-3.385 2.196.079 3.686 1.575 3.372 3.385zm-28.941 7.872c-.157 1.889-1.726 3.227-3.373 3.385s-3.137-1.339-3.372-3.385c0-1.575 1.176-3.621 3.372-3.385 2.118.157 3.687 1.653 3.373 3.385zm13.569-33.376c-.157 1.889-1.726 3.227-3.373 3.385s-3.137-1.339-3.372-3.385c0-1.575 1.176-3.621 3.372-3.385 2.196.157 3.686 1.574 3.373 3.385zm-16.079-27.394c-.157 1.889-1.725 3.228-3.372 3.385s-3.138-1.338-3.373-3.385c0-1.574 1.176-3.621 3.373-3.385 2.117.158 3.607 1.575 3.372 3.385zm16.863-30.385c-.157 1.89-1.726 3.228-3.373 3.385s-3.137-1.338-3.372-3.385c0-1.574 1.176-3.621 3.372-3.384 2.196.157 3.687 1.574 3.373 3.384z"/></g><defs><clipPath id="A"><path fill="#fff" d="M0 0h324v530H0z"/></clipPath></defs></svg>