<svg width="324" height="530" viewBox="0 0 324 530" fill="none" xmlns="http://www.w3.org/2000/svg">
<g clip-path="url(#clip0)">
<path d="M247.294 273.461C247.608 285.977 247.687 298.571 247.765 311.087C247.843 323.603 247.608 336.198 247.687 348.714L247.765 367.528C247.765 373.825 247.765 380.044 247.687 386.341C247.53 392.638 247.373 398.857 247.059 405.154C246.745 411.452 246.353 417.67 245.804 423.968L245.647 423.653C250.275 427.746 254.667 432.154 258.981 436.563L271.765 449.945L271.687 450.023C269.49 447.898 267.294 445.694 265.098 443.49L258.588 436.877C254.196 432.469 249.804 428.219 245.098 424.204L244.941 424.047V423.81C245.49 417.592 245.883 411.294 246.196 405.076C246.51 398.857 246.745 392.56 246.902 386.262C247.294 373.746 247.451 361.152 247.373 348.635C247.373 336.119 246.981 323.525 246.981 311.009C246.981 298.493 246.981 285.898 247.138 273.382L247.294 273.461Z" fill="black"/>
<path d="M246.51 411.845C248.549 414.364 250.745 416.647 253.02 418.851C255.294 421.055 257.882 423.023 260.314 425.07C262.745 427.117 265.098 429.399 267.294 431.761C269.49 434.122 271.608 436.563 273.569 439.082L273.647 439.16V439.239C273.333 447.268 273.098 455.376 273.176 463.405C273.255 467.42 273.333 471.434 273.49 475.528C273.569 477.496 273.725 479.542 273.804 481.589C273.882 483.636 273.882 485.604 273.882 487.65C273.882 491.665 273.961 495.758 273.804 499.773C273.804 500.796 273.725 501.819 273.647 502.843C273.569 503.866 273.569 504.81 273.49 505.834L273.412 511.895C273.333 519.924 273.333 528.032 273.098 536.061H273.02C272.784 528.032 272.784 519.924 272.706 511.895C272.706 509.848 272.627 507.88 272.706 505.834C272.706 504.81 272.784 503.787 272.863 502.764C272.941 501.741 272.941 500.796 273.02 499.773C273.098 495.758 273.176 491.743 273.176 487.65C273.176 485.604 273.176 483.636 273.098 481.589C273.098 479.542 272.941 477.574 272.863 475.528C272.706 471.513 272.706 467.42 272.784 463.405L273.02 439.239L273.098 439.396C271.059 436.956 268.941 434.516 266.745 432.233C264.549 429.95 262.274 427.668 259.922 425.542L256.235 422.472C254.98 421.449 253.804 420.347 252.706 419.166C250.431 416.962 248.392 414.522 246.51 411.845Z" fill="black"/>
<path d="M262.196 314.708C262.98 319.117 262.98 323.682 262.902 328.09C262.823 332.577 262.745 337.064 262.588 341.472C262.431 345.959 262.431 350.446 262.51 354.854C262.588 359.341 262.823 363.828 263.059 368.236L262.98 368C265.019 370.283 267.372 372.251 269.725 374.219C272.078 376.187 274.431 378.154 276.627 380.28C278.823 382.405 281.019 384.609 283.137 386.735C285.333 388.939 287.451 391.064 289.568 393.347L289.49 393.426C287.216 391.379 284.941 389.254 282.745 387.207L276.078 380.91C273.882 378.784 271.529 376.895 269.176 374.848C266.823 372.88 264.549 370.834 262.51 368.472L262.431 368.394V368.236C262.353 363.749 262.353 359.262 262.353 354.775C262.353 350.289 262.274 345.802 262.196 341.315C262.117 336.828 262.196 332.341 262.431 327.854C262.51 325.65 262.588 323.367 262.588 321.163C262.431 319.195 262.353 316.991 262.196 314.708Z" fill="black"/>
<path d="M263.137 358.948C265.098 361.309 267.372 363.198 269.647 365.245C270.745 366.268 271.843 367.37 272.863 368.472C273.961 369.574 274.902 370.755 276 371.778C278.196 373.904 280.549 375.793 282.823 377.682C285.098 379.65 287.372 381.697 289.255 384.216L289.176 384.294C286.98 382.169 284.627 380.28 282.274 378.391C279.922 376.423 277.647 374.455 275.608 372.093C274.588 370.913 273.725 369.732 272.627 368.63C271.529 367.606 270.353 366.662 269.176 365.717C266.902 363.828 264.627 361.703 263.137 358.948Z" fill="black"/>
<path d="M289.412 384.294C289.255 392.402 290.118 400.51 290.196 408.618C290.274 412.711 289.804 416.726 289.647 420.819C289.568 421.843 289.568 422.866 289.49 423.889V426.959C289.49 429.006 289.49 431.052 289.569 433.02C289.725 441.128 289.882 449.236 289.882 457.423C289.882 465.531 289.804 473.638 289.647 481.825H289.569C289.255 473.717 289.098 465.609 289.098 457.423C289.019 449.315 289.098 441.207 289.176 433.02L289.255 426.959V423.889L289.333 420.819C289.49 416.726 289.647 412.711 289.49 408.618C289.333 400.51 288.706 392.402 289.412 384.294Z" fill="black"/>
<path d="M262.902 391.536C265.647 392.638 267.686 394.921 269.569 397.125C271.451 399.329 273.412 401.455 275.451 403.501C279.608 407.516 284.078 411.216 288.47 415.073C290.667 417.041 292.784 418.93 294.823 421.055C296.863 423.181 298.902 425.227 300.863 427.353C304.784 431.603 308.706 435.933 312.627 440.262L312.706 440.341V440.498C312.863 443.805 312.941 447.189 313.019 450.496C313.019 453.802 313.098 457.187 313.019 460.493C312.941 463.799 312.941 467.184 312.863 470.49C312.784 473.796 312.627 477.181 312.549 480.487H312.47C312.392 477.181 312.392 473.796 312.392 470.49L312.314 460.493L312.157 450.496C312.078 447.189 312.078 443.883 311.921 440.498L312 440.735C308.157 436.405 304.392 431.997 300.549 427.589C299.608 426.487 298.588 425.463 297.647 424.361C296.627 423.338 295.686 422.236 294.667 421.213C292.627 419.166 290.431 417.277 288.157 415.388C283.686 411.688 279.059 408.067 274.98 403.974C272.941 401.927 270.98 399.723 269.176 397.44C267.372 395.236 265.49 392.875 262.902 391.536Z" fill="black"/>
<path d="M305.961 506.149C306.196 508.904 306.275 511.58 306.275 514.335C306.196 515.673 306.118 517.09 306.039 518.429C306.039 519.767 306.039 521.184 306.118 522.522C306.275 525.277 306.353 527.953 306.353 530.708C306.353 533.463 306.196 536.14 305.961 538.895H305.882C305.647 536.14 305.569 533.463 305.49 530.708C305.49 527.953 305.569 525.277 305.726 522.522C305.804 521.184 305.804 519.767 305.804 518.429C305.804 517.09 305.647 515.673 305.569 514.335C305.49 511.58 305.569 508.904 305.882 506.149H305.961Z" fill="black"/>
<path d="M306.51 525.513C305.725 527.009 304.392 528.189 303.059 529.134C302.353 529.606 301.647 530 301.02 530.472C300.392 530.945 299.765 531.574 299.216 532.125C298.118 533.385 297.098 534.644 295.922 535.825C294.745 537.006 293.412 538.108 291.843 538.738L291.765 538.659C293.02 537.557 294.118 536.376 295.294 535.195C296.471 534.015 297.569 532.834 298.902 531.732C299.529 531.181 300.235 530.708 300.863 530.157C301.49 529.606 302.118 529.055 302.667 528.504C303.922 527.56 305.176 526.615 306.51 525.513Z" fill="black"/>
<path d="M229.882 313.291C230.039 317.149 230.196 320.927 230.275 324.784C230.353 328.641 230.51 332.42 230.588 336.277C230.667 340.134 230.745 343.912 230.824 347.77C230.902 351.627 230.902 355.405 230.902 359.262V359.42L230.824 359.498C228.392 361.309 225.961 363.277 223.765 365.402C221.569 367.528 219.765 370.047 217.647 372.251C215.529 374.533 213.176 376.501 210.745 378.391L203.529 384.137L203.608 383.901C204 391.143 204.235 398.385 204.157 405.627C204.157 409.248 204.078 412.869 203.922 416.49C203.843 420.111 204.157 423.732 204.157 427.353V427.589L204 427.668C201.804 429.006 200.157 430.974 198.431 432.942C196.784 434.91 194.98 436.877 193.176 438.767C191.373 440.656 189.49 442.466 187.451 444.119C185.49 445.851 183.451 447.426 181.333 449L181.255 448.921C183.294 447.268 185.255 445.615 187.137 443.805C189.02 442.073 190.902 440.262 192.706 438.373C194.51 436.484 196.235 434.516 197.882 432.548C199.529 430.58 201.255 428.455 203.529 427.038L203.373 427.353C203.373 423.732 202.98 420.111 203.059 416.49C203.137 412.869 203.294 409.248 203.294 405.627C203.373 398.385 203.294 391.143 203.059 383.901V383.743L203.137 383.665L210.431 377.997C212.863 376.108 215.216 374.14 217.333 371.936C219.451 369.732 221.176 367.134 223.373 365.009C225.569 362.805 227.922 360.837 230.353 358.947L230.275 359.184C230.196 355.326 230.039 351.548 229.961 347.691C229.882 343.834 229.882 340.055 229.804 336.198C229.725 332.341 229.725 328.563 229.725 324.705C229.725 320.848 229.725 317.07 229.725 313.213L229.882 313.291Z" fill="black"/>
<path d="M203.764 417.828C199.764 421.449 195.921 425.07 192.078 428.77C190.196 430.659 188.313 432.548 186.431 434.437C184.549 436.327 182.666 438.216 180.863 440.184L180.941 440.026L181.412 459.155C181.568 465.531 181.647 471.907 181.568 478.283C181.49 484.659 181.333 491.035 181.098 497.411C181.019 498.985 180.941 500.639 180.941 502.134C180.941 502.921 180.941 503.708 181.098 504.496C181.176 505.283 181.412 506.07 181.568 506.778C182.353 509.927 182.431 513.155 181.725 516.303H181.647C182.117 513.155 181.882 509.927 181.098 506.857C180.862 506.07 180.706 505.283 180.549 504.496C180.392 503.708 180.392 502.843 180.313 502.055C180.313 500.481 180.392 498.828 180.392 497.254L180.863 478.125C181.019 471.749 181.098 465.373 181.176 458.997C181.176 452.621 181.019 446.245 180.549 439.869V439.79L180.627 439.711C182.431 437.743 184.235 435.776 186.117 433.808C188 431.84 189.882 430.029 191.843 428.14C195.529 424.598 199.529 421.134 203.764 417.828Z" fill="black"/>
<path d="M204.235 427.431C204.157 436.169 203.922 444.985 203.686 453.723C203.529 458.131 203.373 462.461 203.373 466.869C203.294 471.277 203.373 475.606 203.451 480.015L204.078 506.306C204.235 515.044 204.392 523.86 204.392 532.598H204.314C203.843 523.86 203.451 515.044 203.294 506.306C203.059 497.568 202.902 488.752 202.98 480.015C203.059 475.606 203.059 471.277 203.059 466.869V453.723C203.137 444.985 203.529 436.169 204.157 427.431H204.235Z" fill="black"/>
<path d="M158.51 495.994C158.745 498.828 158.824 501.583 158.745 504.417C158.667 505.834 158.588 507.251 158.51 508.668C158.51 510.085 158.51 511.501 158.588 512.918C158.745 515.752 158.745 518.507 158.745 521.341C158.667 524.175 158.588 526.93 158.353 529.764H158.275C158.039 526.93 157.961 524.175 157.961 521.341C157.961 518.507 158.039 515.752 158.196 512.918C158.275 511.501 158.353 510.085 158.275 508.668C158.275 507.251 158.118 505.834 158.118 504.417C158.039 501.583 158.196 498.828 158.432 495.994H158.51Z" fill="black"/>
<path d="M113.333 412.475C113.569 419.953 113.647 427.431 113.726 434.91C113.804 442.388 113.726 449.866 113.569 457.344C113.49 464.822 113.647 472.3 113.726 479.778L113.804 485.367V486.076C113.804 486.233 113.883 486.469 113.961 486.627C114.039 486.706 114.039 486.784 114.118 486.863C114.196 486.942 114.196 486.942 114.353 487.02L114.902 487.493L117.098 489.303L119.216 491.114C119.922 491.665 120.706 492.216 121.412 492.767C122.118 493.239 122.981 493.711 123.765 494.341C124.549 494.971 125.177 495.679 125.726 496.545L125.804 496.624V496.781C125.647 500.009 125.569 503.315 125.49 506.542C125.49 509.77 125.49 513.076 125.569 516.303C125.647 519.531 125.726 522.837 125.883 526.064L126.275 535.825H126.196C125.961 532.598 125.647 529.292 125.49 526.064C125.255 522.837 125.098 519.531 125.02 516.303C124.863 513.076 124.784 509.77 124.784 506.542C124.784 503.315 124.863 500.009 125.02 496.781L125.098 497.017C124.628 496.23 124 495.601 123.373 495.05C122.667 494.499 121.882 494.105 121.098 493.554C120.392 493.003 119.608 492.373 118.902 491.822L116.784 490.012L114.667 488.201L114.118 487.729C114.039 487.65 113.883 487.571 113.804 487.414C113.726 487.335 113.647 487.178 113.569 487.02C113.49 486.784 113.412 486.548 113.333 486.233C113.333 485.997 113.333 485.761 113.333 485.525L113.412 479.936C113.49 472.458 113.569 464.98 113.412 457.501C113.255 450.023 113.098 442.545 113.177 435.067C113.177 427.589 113.255 420.111 113.412 412.633L113.333 412.475Z" fill="black"/>
<path d="M125.255 512.289C125.098 512.761 124.863 513.076 124.549 513.469C124.236 513.784 124 514.099 123.686 514.493C123.137 515.122 122.51 515.831 121.883 516.461C120.706 517.72 119.294 518.901 118.039 520.082C116.785 521.262 115.608 522.601 114.432 523.939C113.255 525.277 112.079 526.536 110.824 527.796L110.981 527.481C110.981 528.819 110.902 530.236 110.824 531.574C110.745 532.912 110.588 534.329 110.432 535.668H110.353C110.275 534.329 110.196 532.912 110.118 531.574C110.118 530.236 110.039 528.819 110.118 527.481V527.324L110.196 527.245C111.451 525.985 112.706 524.805 114.039 523.624C115.373 522.443 116.628 521.262 117.883 520.003C119.059 518.665 120.157 517.326 121.412 516.146C122.039 515.516 122.667 514.886 123.294 514.335L124.314 513.469C124.628 512.918 124.941 512.603 125.255 512.289Z" fill="black"/>
<path d="M125.255 519.373C124.078 520.633 122.824 521.813 121.569 522.915C120.941 523.466 120.235 523.939 119.529 524.49C118.902 525.041 118.353 525.671 117.804 526.379C116.706 527.717 115.608 528.977 114.51 530.315C113.412 531.574 112.235 532.834 111.059 534.093L110.98 534.015C111.765 532.519 112.784 531.102 113.882 529.764C114.98 528.426 116.157 527.245 117.49 526.064C118.118 525.513 118.745 524.962 119.373 524.332C120 523.703 120.549 523.073 121.098 522.443C122.353 521.262 123.686 520.16 125.255 519.373Z" fill="black"/>
<path d="M126.039 528.032C126.98 527.796 128 528.347 128.627 529.055C128.941 529.449 129.098 529.843 129.412 530.236C129.647 530.63 129.961 530.945 130.274 531.259C130.902 531.889 131.451 532.598 132 533.385C132.47 534.172 132.941 534.959 133.255 535.825L133.176 535.904C132.47 535.274 131.843 534.644 131.294 533.936C130.745 533.227 130.274 532.44 129.882 531.574C129.647 531.181 129.49 530.787 129.176 530.394C128.863 530.079 128.47 529.764 128.157 529.528C127.451 528.977 126.902 528.504 126.039 528.032Z" fill="black"/>
<path d="M110.667 411.767C108.941 413.341 107.216 414.915 105.569 416.647C103.922 418.3 102.353 420.032 100.784 421.843L96.1568 427.195C94.5882 428.927 93.0196 430.738 91.1372 432.233L91.2156 432.076C91.2941 434.673 91.2941 437.271 91.2941 439.869C91.2941 442.466 91.2941 445.064 91.2941 447.662L91.2156 451.598L91.1372 455.533C91.0588 458.131 90.9804 460.729 90.8235 463.326H90.7451C90.6666 460.729 90.5882 458.131 90.5098 455.533V451.598V447.662C90.5098 445.064 90.5882 442.466 90.6666 439.869C90.7451 437.271 90.8235 434.673 90.9019 432.076V431.997L90.9804 431.918C92.8627 430.501 94.5098 428.77 96 426.959C97.4902 425.149 98.8235 423.181 100.392 421.37C101.882 419.56 103.529 417.828 105.255 416.254C106.902 414.601 108.706 413.105 110.667 411.767Z" fill="black"/>
<path d="M113.255 419.087C111.216 420.662 109.255 422.315 107.451 424.047C106.51 424.912 105.569 425.778 104.706 426.723C103.843 427.668 103.059 428.691 102.196 429.714C100.628 431.761 98.8237 433.65 96.9414 435.461C95.059 437.192 93.0198 438.845 90.9022 440.262L90.8237 440.184L96.3139 434.831C98.1963 433.099 100 431.289 101.804 429.399C102.667 428.455 103.608 427.51 104.392 426.566C105.255 425.621 106.039 424.519 106.902 423.574C108.785 421.764 110.902 420.189 113.255 419.087Z" fill="black"/>
<path d="M67.1374 457.501C67.2159 462.146 67.2159 466.711 67.2159 471.356C67.2159 476 67.2159 480.566 67.059 485.21C66.9806 489.854 66.9022 494.42 66.9806 499.064C67.059 503.708 67.2159 508.274 67.3727 512.918L67.2943 512.682L73.8825 519.688C76.0786 522.05 78.1963 524.411 80.3923 526.773L83.6865 530.315L87.059 533.778C89.2551 536.061 91.5296 538.423 93.7257 540.706L93.6472 540.784C91.2943 538.58 88.9414 536.376 86.6669 534.172L83.2159 530.787L79.8433 527.324C75.4512 522.679 71.059 517.956 66.7453 513.233L66.6669 513.155V512.997C66.6669 508.353 66.6669 503.787 66.6669 499.143C66.6669 494.499 66.5884 489.933 66.51 485.289C66.4316 480.644 66.4316 476.079 66.51 471.434C66.5884 466.79 66.7453 462.225 66.9806 457.58L67.1374 457.501Z" fill="black"/>
<path d="M67.2939 500.953C70.9802 503.63 74.5096 506.621 77.8037 509.848C79.4508 511.501 81.0194 513.155 82.5881 514.808C84.1567 516.461 85.8037 518.114 87.3724 519.767C88.941 521.42 90.5096 523.152 91.9998 524.883C92.392 525.356 92.7841 525.828 93.0194 526.379C93.2547 527.009 93.3332 527.638 93.4116 528.19C93.49 529.37 93.49 530.472 93.49 531.653C93.49 536.219 93.49 540.863 93.2547 545.429H93.1763C92.8626 540.863 92.7057 536.219 92.6273 531.653L92.5488 528.19C92.5488 527.638 92.4704 527.087 92.3136 526.615C92.1567 526.143 91.843 525.671 91.4508 525.277L87.0587 520.003C85.5685 518.271 83.9998 516.539 82.4312 514.965C80.8626 513.312 79.1371 511.816 77.4116 510.242L67.2939 500.953Z" fill="black"/>
<path d="M49.8822 448.134C48.5489 448.842 47.4508 449.945 46.5097 451.125C45.5685 452.306 44.5489 453.487 43.5293 454.589C41.4901 456.872 39.3724 459.154 37.2548 461.28C35.0587 463.484 32.8626 465.531 30.5881 467.577C28.3136 469.624 25.8822 471.513 23.4508 473.402L23.5293 473.245C23.3724 476.708 23.294 480.093 23.294 483.557C23.294 487.02 23.3724 490.484 23.5293 493.869C23.7646 500.717 24.1567 507.644 24.6273 514.493V514.729L24.3136 515.044C22.1175 516.539 20.0783 518.35 18.1959 520.239L12.4705 525.985C8.62732 529.764 4.78418 533.542 0.862611 537.321L0.78418 537.242C4.47045 533.306 8.23516 529.37 11.9999 525.513C13.8822 523.545 15.7646 521.577 17.6469 519.688C19.6077 517.799 21.5685 515.91 23.843 514.414L23.6861 514.808C23.2156 507.959 22.9018 501.032 22.9018 494.105C22.9018 490.641 22.9018 487.178 22.9018 483.793C22.9803 480.329 22.9803 476.866 23.0587 473.481V473.402L23.1371 473.324C25.4901 471.356 27.7646 469.309 30.0391 467.262C32.3136 465.216 34.5097 463.09 36.7057 460.965C38.9018 458.84 41.0195 456.635 43.1371 454.431L46.2744 451.047C47.294 449.787 48.4705 448.685 49.8822 448.134Z" fill="black"/>
<path d="M23.2157 506.306C21.8039 508.51 20.1569 510.557 18.4314 512.525C16.7059 514.493 14.6667 516.146 12.7059 517.799C10.7451 519.452 8.78431 521.262 6.90196 522.994C4.94118 524.726 2.90196 526.379 0.862745 527.953L1.01961 527.56C1.17647 529.685 1.09804 531.811 0.941177 534.015C0.784314 536.14 0.470588 538.265 0.0784314 540.391H0C0.156863 538.265 0.235294 536.14 0.313726 534.015C0.313726 531.889 0.313726 529.764 0.156863 527.639V527.402L0.313726 527.245C2.43137 525.671 4.47059 524.096 6.5098 522.522C8.54902 520.948 10.5882 519.295 12.4706 517.563C14.3529 515.752 16.0784 513.863 17.8824 511.974C19.7647 510.163 21.4902 508.274 23.2157 506.306Z" fill="black"/>
<path d="M23.6864 515.044C24.0786 516.854 24.157 518.743 24.157 520.554C24.0786 521.499 24.0002 522.364 23.9217 523.309C23.8433 524.254 23.9217 525.119 23.9217 526.064C24.0002 527.875 24.0002 529.764 23.8433 531.574C23.6864 533.385 23.4511 535.274 22.9805 537.084H22.9021C22.8237 535.195 22.9021 533.385 22.9805 531.574C23.1374 529.764 23.2158 527.875 23.4511 526.064C23.5296 525.119 23.608 524.254 23.608 523.309C23.608 522.364 23.4511 521.499 23.4511 520.554C23.3727 518.743 23.3727 516.854 23.6864 515.044Z" fill="black"/>
<path d="M65.4115 455.691C63.3723 457.895 61.3331 460.099 59.2939 462.303L53.0978 468.837L49.9605 472.064L46.7449 475.213C44.6272 477.338 42.5096 479.464 40.3919 481.589V481.51L40.7056 494.735C40.7841 499.143 40.7841 503.551 40.7841 507.959C40.7056 512.367 40.6272 516.775 40.4703 521.184C40.3135 525.592 40.0782 530 39.7645 534.329H39.686L39.9213 507.959L40.0782 494.735C40.1566 490.326 40.2351 485.918 40.1566 481.51V481.431C42.2743 479.306 44.3135 477.102 46.3527 474.898L49.4115 471.592L52.5488 468.364L58.9017 461.988C61.0194 459.863 63.137 457.738 65.4115 455.691Z" fill="black"/>
<path d="M53.4119 488.437C53.6472 491.586 53.6472 494.735 53.7256 497.962C53.7256 501.111 53.5687 504.259 53.4119 507.487C53.255 510.635 53.3334 513.784 53.3334 517.012C53.3334 520.16 53.255 523.309 53.1766 526.536L53.0982 526.773C53.1766 526.694 53.0982 526.694 53.1766 526.851C53.1766 526.93 53.255 527.009 53.3334 527.166C53.4119 527.245 53.4903 527.324 53.5687 527.324L54.0393 527.56C54.6668 527.875 55.1374 528.268 55.6864 528.662C56.706 529.528 57.4903 530.472 58.2746 531.496C59.0589 532.519 59.7648 533.542 60.5491 534.487C61.3335 535.431 62.1962 536.376 63.2158 537.163L63.1374 537.242C62.0393 536.612 61.0982 535.746 60.2354 534.802C59.3727 533.857 58.5884 532.834 57.804 531.889C57.0197 530.945 56.157 530 55.2158 529.291C54.7452 528.898 54.2746 528.583 53.7256 528.347L53.3334 528.111C53.0982 527.953 52.9413 527.875 52.8629 527.717C52.706 527.56 52.6276 527.402 52.5491 527.166C52.4707 527.009 52.3923 526.615 52.6276 526.3L52.5491 526.536L53.0197 517.09C53.1766 513.942 53.4119 510.793 53.3334 507.566C53.3334 504.417 53.1766 501.268 53.255 498.041C53.3335 494.892 53.3335 491.743 53.5687 488.516L53.4119 488.437Z" fill="black"/>
<path d="M52.6274 521.42C54.8235 521.971 56.7059 523.545 57.8823 525.434C58.4314 526.379 59.1373 527.245 59.9216 527.953C60.7059 528.662 61.6471 529.37 62.4314 530.157C62.8235 530.551 63.1373 531.102 63.3725 531.653C63.6078 532.204 63.6863 532.755 63.7647 533.385C63.8431 534.566 63.9216 535.589 63.9216 536.691C63.9216 538.895 63.9216 541.099 63.7647 543.382H63.6863C63.3725 541.178 63.2157 538.974 63.1373 536.77C62.9804 534.566 63.451 532.283 62.1176 530.472C61.4902 529.606 60.6274 528.819 59.7647 528.189C59.3725 527.875 58.902 527.481 58.5098 527.087C58.1176 526.694 57.7255 526.3 57.3333 525.828C56.6274 524.962 56 524.096 55.2157 523.388C54.4314 522.679 53.5686 522.05 52.6274 521.42Z" fill="black"/>
<path d="M246.823 366.111C244.47 368.157 242.118 370.283 239.921 372.487C237.647 374.691 235.529 376.974 233.49 379.335C231.372 381.697 229.412 384.137 227.216 386.341C224.941 388.545 222.588 390.592 220.235 392.638L220.314 392.56L220.47 406.335C220.47 410.901 220.47 415.466 220.392 420.111C220.314 424.676 220.235 429.242 220.157 433.886C220.078 438.452 219.921 443.017 219.843 447.662H219.765C219.608 443.096 219.529 438.531 219.529 433.886C219.529 429.321 219.529 424.755 219.608 420.111L219.843 406.335C219.921 401.77 220.078 397.204 220.078 392.56V392.481H220.157C222.51 390.434 224.863 388.309 226.98 386.026C228.078 384.924 229.019 383.665 230.039 382.484L233.098 378.863C235.216 376.501 237.412 374.219 239.686 372.093C241.804 369.968 244.235 367.921 246.823 366.111Z" fill="black"/>
<path d="M232.941 402.321C233.255 405.312 233.412 408.303 233.49 411.373C233.569 412.869 233.568 414.364 233.568 415.86L233.49 420.347C233.412 423.338 233.49 426.329 233.568 429.399C233.647 432.391 233.647 435.461 233.568 438.452L233.49 438.216C234.431 439.318 235.372 440.499 236.235 441.601L237.647 443.332C238.118 443.883 238.588 444.434 239.059 444.985C240.941 447.189 242.823 449.394 244.706 451.676L244.627 451.755C242.588 449.708 240.549 447.583 238.51 445.458C237.49 444.434 236.549 443.254 235.608 442.152C234.667 441.05 233.725 439.869 232.863 438.767L232.784 438.609V438.452C232.863 435.461 232.941 432.469 233.098 429.399C233.255 426.408 233.255 423.417 233.176 420.347L232.941 415.86C232.941 414.364 232.863 412.869 232.863 411.373C232.863 408.382 232.784 405.391 232.863 402.321H232.941Z" fill="black"/>
<path d="M233.098 432.627C233.726 432.942 234.431 433.335 235.059 433.729C235.686 434.122 236.235 434.673 236.706 435.225C237.647 436.327 238.667 437.507 239.608 438.609L242.431 442.073C243.373 443.254 244.314 444.356 245.177 445.615L245.255 445.773L245.177 445.93C244.706 447.268 244.471 448.685 244.392 450.102C244.314 451.519 244.471 453.015 244.471 454.431C244.549 457.344 244.706 460.257 244.941 463.169C245.098 466.082 245.255 468.994 245.333 471.907C245.49 474.819 245.569 477.732 245.647 480.644L244.941 480.487C244.941 480.408 245.02 480.408 245.02 480.329C245.098 480.251 245.098 480.172 245.333 480.172C245.49 480.093 245.726 480.251 245.804 480.251C245.882 480.329 245.882 480.329 245.961 480.408C246.039 480.566 246.118 480.644 246.196 480.723L246.745 481.353L247.843 482.691L250.039 485.367C251.451 487.178 252.941 488.988 254.275 490.799L254.196 490.878C252.628 489.224 251.059 487.493 249.569 485.761L247.294 483.163L246.196 481.825L245.647 481.195C245.569 481.117 245.412 480.959 245.333 480.88C245.333 480.88 245.412 480.959 245.569 480.959C245.804 480.88 245.647 480.88 245.647 480.959L244.941 480.802C244.863 477.889 244.706 474.977 244.628 472.064C244.549 469.152 244.471 466.239 244.471 463.327C244.471 460.414 244.392 457.501 244.314 454.589C244.235 453.172 244.157 451.676 244.079 450.181C244.079 448.685 244.235 447.19 244.628 445.773L244.706 446.087C243.765 444.985 242.824 443.805 241.882 442.624L239.137 439.16C238.196 437.98 237.333 436.799 236.392 435.618C235.922 435.067 235.451 434.516 234.902 434.044C234.275 433.493 233.647 433.099 233.098 432.627Z" fill="black"/>
<path d="M208.392 534.723C210.431 532.361 212.471 530 214.588 527.717C216.706 525.434 218.902 523.152 221.098 521.026C223.294 518.822 225.49 516.539 227.529 514.257C229.569 511.974 231.686 509.534 234.274 507.723L234.353 507.644H234.51C238.039 507.802 241.569 507.802 245.098 507.802L250.431 507.723C252.235 507.723 253.961 507.723 255.765 507.723V507.802C253.961 507.959 252.235 508.117 250.431 508.274C248.627 508.431 246.902 508.51 245.098 508.589C241.569 508.746 237.961 508.746 234.431 508.431L234.667 508.353C232.157 510.085 229.961 512.367 227.765 514.571C225.569 516.775 223.451 519.058 221.333 521.42C219.294 523.781 217.176 526.064 214.98 528.347C212.863 530.394 210.667 532.676 208.392 534.723Z" fill="black"/>
<path d="M256.47 508.353C256.784 511.423 256.863 514.493 256.863 517.563C256.784 519.058 256.706 520.633 256.706 522.128C256.706 523.624 256.784 525.198 256.863 526.694C257.019 529.764 257.098 532.834 257.176 535.904C257.176 538.974 257.098 542.044 256.863 545.114H256.784C256.47 542.044 256.392 538.974 256.314 535.904C256.314 532.834 256.314 529.764 256.392 526.694C256.47 525.198 256.47 523.624 256.47 522.128C256.392 520.633 256.314 519.058 256.235 517.563C256.078 514.493 256.157 511.423 256.47 508.353Z" fill="black"/>
<path d="M219.608 467.499C220.078 469.309 220.392 471.198 220.471 473.087C220.471 474.032 220.392 474.977 220.392 475.921C220.392 476.866 220.392 477.81 220.471 478.755C220.627 480.644 220.627 482.534 220.549 484.423C220.471 486.312 220.392 488.201 220.078 490.09H220C219.765 488.201 219.686 486.312 219.686 484.423C219.686 482.534 219.765 480.644 220 478.755C220.078 477.81 220.157 476.866 220.078 475.921C220.078 474.977 219.922 474.032 219.765 473.087C219.686 471.277 219.529 469.388 219.608 467.499Z" fill="black"/>
<path d="M220 465.924C220.471 467.341 221.412 468.522 222.431 469.703L225.412 473.087C227.373 475.37 229.412 477.574 231.294 479.936L231.373 480.015V480.093C231.451 481.825 231.529 483.557 231.608 485.21C231.686 486.942 231.765 488.673 231.843 490.327L232.157 495.443C232.235 497.175 232.314 498.907 232.235 500.638V500.717L232.157 500.796C230.039 503.157 227.765 505.283 225.647 507.566C223.529 509.848 221.49 512.21 219.216 514.493C217.02 516.775 214.667 518.901 212.157 520.79C211.529 521.262 210.902 521.735 210.275 522.207L208.314 523.466L204.314 525.985L204.235 525.907L208.078 523.152L209.961 521.813C210.588 521.341 211.216 520.869 211.765 520.318C214.196 518.35 216.392 516.146 218.588 513.942C220.784 511.659 222.902 509.376 225.02 507.093C227.216 504.81 229.569 502.764 231.765 500.481L231.686 500.638C231.843 498.907 231.843 497.254 231.765 495.522C231.686 493.79 231.608 492.137 231.451 490.405C231.294 488.673 231.137 487.02 230.98 485.289C230.824 483.557 230.667 481.904 230.51 480.172L230.588 480.329C228.628 478.047 226.667 475.764 224.706 473.481L221.804 470.017C221.177 468.758 220.314 467.499 220 465.924Z" fill="black"/>
<path d="M204.313 517.799C206.51 515.437 208.784 513.233 211.215 511.108C212.392 510.085 213.725 509.061 214.902 508.038C216.078 506.936 217.176 505.834 218.274 504.653C220.549 502.37 222.431 499.851 224.706 497.568C226.902 495.286 229.49 493.16 232.47 491.901V491.98C229.725 493.633 227.451 495.837 225.255 498.12L221.961 501.583C221.412 502.134 220.862 502.764 220.313 503.315C219.764 503.866 219.137 504.417 218.51 504.889C217.333 505.913 216.157 507.015 214.98 508.117L211.608 511.501C209.333 513.784 206.902 515.831 204.313 517.799Z" fill="black"/>
<path d="M210.745 416.883C210.51 420.819 207.216 423.653 203.765 423.889C200.235 424.204 197.255 420.977 196.784 416.883C196.863 413.577 199.294 409.248 203.765 409.878C208.235 410.114 211.372 413.105 210.745 416.883Z" fill="black"/>
<path d="M237.647 308.332C237.412 312.268 234.117 315.102 230.666 315.338C227.137 315.653 224.157 312.426 223.686 308.332C223.764 305.026 226.196 300.697 230.666 301.326C235.137 301.563 238.274 304.633 237.647 308.332Z" fill="black"/>
<path d="M270.118 308.332C269.882 312.268 266.588 315.102 263.137 315.338C259.608 315.653 256.627 312.426 256.157 308.332C256.235 305.026 258.667 300.697 263.137 301.326C267.608 301.563 270.745 304.633 270.118 308.332Z" fill="black"/>
<path d="M254.588 267.085C254.353 271.02 251.059 273.854 247.608 274.09C244.078 274.405 241.098 271.178 240.627 267.085C240.706 263.778 243.137 259.449 247.608 260.079C252 260.315 255.216 263.385 254.588 267.085Z" fill="black"/>
<path d="M296.863 416.883C296.627 420.819 293.333 423.653 289.882 423.889C286.353 424.204 283.372 420.977 282.902 416.883C282.98 413.577 285.412 409.248 289.882 409.878C294.274 410.114 297.49 413.105 296.863 416.883Z" fill="black"/>
<path d="M296.863 484.895C296.627 488.831 293.333 491.665 289.882 491.901C286.353 492.216 283.372 488.988 282.902 484.895C282.98 481.589 285.412 477.26 289.882 477.889C294.274 478.125 297.49 481.195 296.863 484.895Z" fill="black"/>
<path d="M319.608 484.895C319.372 488.831 316.078 491.665 312.627 491.901C309.098 492.216 306.118 488.988 305.647 484.895C305.725 481.589 308.157 477.26 312.627 477.889C317.098 478.125 320.235 481.195 319.608 484.895Z" fill="black"/>
<path d="M280.549 506.857C280.314 510.793 277.02 513.627 273.569 513.863C270.039 514.178 267.059 510.95 266.588 506.857C266.667 503.551 269.098 499.222 273.569 499.851C278.039 500.087 281.177 503.079 280.549 506.857Z" fill="black"/>
<path d="M262.745 507.644C262.51 511.58 259.216 514.414 255.765 514.65C252.235 514.965 249.255 511.738 248.784 507.644C248.863 504.338 251.294 500.009 255.765 500.639C260.157 500.875 263.372 503.945 262.745 507.644Z" fill="black"/>
<path d="M263.765 490.956C263.529 494.892 260.235 497.726 256.784 497.962C253.255 498.277 250.274 495.05 249.804 490.956C249.882 487.65 252.314 483.321 256.784 483.95C261.255 484.187 264.392 487.178 263.765 490.956Z" fill="black"/>
<path d="M226.588 449.079C226.353 453.015 223.059 455.848 219.608 456.084C216.078 456.399 213.098 453.172 212.627 449.079C212.706 445.773 215.137 441.443 219.608 442.073C224 442.309 227.216 445.3 226.588 449.079Z" fill="black"/>
<path d="M226.588 467.026C226.353 470.962 223.059 473.796 219.608 474.032C216.078 474.347 213.098 471.119 212.627 467.026C212.706 463.72 215.137 459.391 219.608 460.02C224 460.256 227.216 463.326 226.588 467.026Z" fill="black"/>
<path d="M165.49 490.956C165.255 494.892 161.961 497.726 158.51 497.962C154.98 498.277 152 495.05 151.529 490.956C151.608 487.65 154.039 483.321 158.51 483.95C162.902 484.187 166.039 487.178 165.49 490.956Z" fill="black"/>
<path d="M165.49 534.251C165.255 538.187 161.961 541.02 158.51 541.257C154.98 541.571 152 538.344 151.529 534.251C151.608 530.945 154.039 526.615 158.51 527.245C162.902 527.481 166.039 530.551 165.49 534.251Z" fill="black"/>
<path d="M188.471 521.499C188.235 525.434 184.941 528.268 181.49 528.504C177.961 528.819 174.98 525.592 174.51 521.499C174.588 518.192 177.02 513.863 181.49 514.493C185.882 514.729 189.02 517.799 188.471 521.499Z" fill="black"/>
<path d="M210.745 537.006C210.51 540.942 207.216 543.775 203.765 544.012C200.235 544.327 197.255 541.099 196.784 537.006C196.863 533.7 199.294 529.37 203.765 530C208.235 530.236 211.372 533.306 210.745 537.006Z" fill="black"/>
<path d="M120.314 484.895C120.079 488.831 116.784 491.665 113.333 491.901C109.804 492.216 106.824 488.988 106.353 484.895C106.431 481.589 108.863 477.26 113.333 477.889C117.726 478.125 120.863 481.195 120.314 484.895Z" fill="black"/>
<path d="M97.7254 468.837C97.4901 472.773 94.196 475.606 90.745 475.843C87.2156 476.157 84.2352 472.93 83.7646 468.837C83.8431 465.531 86.2744 461.201 90.745 461.831C95.2156 462.067 98.3529 465.137 97.7254 468.837Z" fill="black"/>
<path d="M31.5296 504.889C31.2943 508.825 28.0002 511.659 24.5492 511.895C21.0198 512.21 18.0394 508.983 17.5688 504.889C17.6473 501.583 20.0787 497.254 24.5492 497.883C28.9414 498.12 32.1571 501.111 31.5296 504.889Z" fill="black"/>
<path d="M46.6668 535.668C46.4315 539.604 43.1374 542.437 39.6864 542.674C36.157 542.988 33.1766 539.761 32.7061 535.668C32.7845 532.362 35.2159 528.032 39.6864 528.662C44.0786 528.898 47.2943 531.968 46.6668 535.668Z" fill="black"/>
<path d="M120.314 408.618C120.079 412.554 116.784 415.388 113.333 415.624C109.804 415.939 106.824 412.711 106.353 408.618C106.431 405.312 108.863 400.982 113.333 401.612C117.726 401.848 120.863 404.918 120.314 408.618Z" fill="black"/>
<path d="M222.902 490.09C222.745 491.98 221.176 493.318 219.529 493.475C217.882 493.633 216.392 492.137 216.157 490.09C216.157 488.516 217.333 486.469 219.529 486.705C221.725 486.863 223.216 488.28 222.902 490.09Z" fill="black"/>
<path d="M70.1963 455.691C70.0394 457.58 68.4708 458.918 66.8237 459.076C65.1767 459.233 63.6865 457.738 63.4512 455.691C63.4512 454.117 64.6276 452.07 66.8237 452.306C68.9414 452.464 70.51 453.88 70.1963 455.691Z" fill="black"/>
<path d="M54.353 446.56C54.1961 448.449 52.6275 449.787 50.9805 449.945C49.3334 450.102 47.8432 448.606 47.6079 446.56C47.6079 444.985 48.7844 442.939 50.9805 443.175C53.1765 443.332 54.6667 444.828 54.353 446.56Z" fill="black"/>
<path d="M56.5488 488.437C56.3919 490.326 54.8233 491.665 53.1763 491.822C51.5292 491.98 50.039 490.484 49.8037 488.437C49.8037 486.863 50.9802 484.816 53.1763 485.052C55.3723 485.21 56.8625 486.627 56.5488 488.437Z" fill="black"/>
<path d="M292.549 452.385C292.392 454.274 290.823 455.612 289.176 455.77C287.529 455.927 286.039 454.431 285.804 452.385C285.804 450.81 286.98 448.764 289.176 449C291.372 449.157 292.863 450.653 292.549 452.385Z" fill="black"/>
<path d="M309.255 504.889C309.098 506.778 307.529 508.117 305.882 508.274C304.235 508.431 302.745 506.936 302.51 504.889C302.51 503.315 303.686 501.268 305.882 501.504C308.078 501.583 309.569 503.079 309.255 504.889Z" fill="black"/>
<path d="M276.941 519.688C276.785 521.577 275.216 522.915 273.569 523.073C271.922 523.23 270.432 521.735 270.196 519.688C270.196 518.114 271.373 516.067 273.569 516.303C275.686 516.382 277.177 517.877 276.941 519.688Z" fill="black"/>
<path d="M265.49 391.615C265.333 393.504 263.765 394.843 262.118 395C260.471 395.157 258.98 393.662 258.745 391.615C258.745 390.041 259.922 387.994 262.118 388.23C264.314 388.309 265.804 389.805 265.49 391.615Z" fill="black"/>
<path d="M236.549 399.487C236.392 401.376 234.823 402.714 233.176 402.872C231.529 403.029 230.039 401.533 229.804 399.487C229.804 397.912 230.98 395.866 233.176 396.102C235.294 396.259 236.863 397.755 236.549 399.487Z" fill="black"/>
<path d="M250.118 366.111C249.961 368 248.392 369.338 246.745 369.496C245.098 369.653 243.608 368.157 243.373 366.111C243.373 364.536 244.549 362.49 246.745 362.726C248.941 362.883 250.431 364.3 250.118 366.111Z" fill="black"/>
<path d="M234.039 338.717C233.882 340.606 232.314 341.945 230.667 342.102C229.019 342.259 227.529 340.764 227.294 338.717C227.294 337.143 228.47 335.096 230.667 335.332C232.784 335.49 234.274 336.907 234.039 338.717Z" fill="black"/>
<path d="M250.902 308.332C250.745 310.222 249.176 311.56 247.529 311.717C245.882 311.875 244.392 310.379 244.157 308.332C244.157 306.758 245.333 304.711 247.529 304.948C249.725 305.105 251.216 306.522 250.902 308.332Z" fill="black"/>
</g>
<defs>
<clipPath id="clip0">
<rect width="324" height="530" fill="white"/>
</clipPath>
</defs>
</svg>
