<svg xmlns="http://www.w3.org/2000/svg" width="25" height="25" fill="none"  xmlns:v="https://vecta.io/nano"><path d="M4.901.006C2.208.006.004 2.21.004 4.903v15.196c0 2.693 2.204 4.896 4.897 4.896h15.196c2.693 0 4.896-2.203 4.896-4.896V4.903c0-2.693-2.203-4.897-4.896-4.897H4.901zM6.133 4.13c1.291 0 2.087.848 2.111 1.962 0 1.09-.82 1.961-2.136 1.961h-.024c-1.267 0-2.085-.871-2.085-1.961 0-1.114.843-1.962 2.134-1.962h0zM17.26 9.337c2.483 0 4.345 1.623 4.345 5.111v6.511h-3.774v-6.075c0-1.527-.546-2.568-1.912-2.568-1.043 0-1.664.702-1.937 1.38-.1.243-.124.581-.124.921v6.342h-3.774V9.604h3.775v1.608c.502-.774 1.398-1.874 3.401-1.874h0zm-13.039.267h3.774V20.96H4.221V9.604z" fill="#3c2829"/></svg>