<svg xmlns="http://www.w3.org/2000/svg" width="166" height="45" fill="none"  xmlns:v="https://vecta.io/nano"><path d="M37.461 26.09l1.907.827-.545-.942-1.087-1.873-.599-1.04-.824-1.423-1.426 2.464-1.087 1.873-.542.942 1.904-.827 1.15 2.288 1.147-2.288z" fill="#3c2829"/><path d="M53.605 34.522v-.351c0-.089-.025-.176-.041-.262 0-.029 0-.061-.016-.089 0-.08-.038-.16-.06-.236l-.032-.109-.073-.201-.051-.131-.082-.175-.073-.137-.025-.051L39.387 8.799c-.008-.01-.016-.021-.022-.032-.071-.123-.149-.241-.234-.354a3.11 3.11 0 0 0-.276-.319l-.051-.051a3.23 3.23 0 0 0-.298-.262l-.029-.022a3.53 3.53 0 0 0-2.148-.737 3.56 3.56 0 0 0-.453.032 3.53 3.53 0 0 0-1.669.689l-.047.038a3.61 3.61 0 0 0-.279.246l-.06.061a3.77 3.77 0 0 0-.26.297c-.01.009-.019.02-.025.032a3.34 3.34 0 0 0-.234.348l-.022.035-7.552 13.181a3.57 3.57 0 0 0-.484 1.326 3.58 3.58 0 0 0 .067 1.411 3.57 3.57 0 0 0 .607 1.273 3.55 3.55 0 0 0 1.051.935 3.51 3.51 0 0 0 1.329.449c.468.059.944.022 1.398-.108a3.52 3.52 0 0 0 1.246-.648 3.55 3.55 0 0 0 .897-1.085l4.499-7.848 7.631 13.318H16.407l10.036-17.457a3.58 3.58 0 0 0 .352-2.698A3.55 3.55 0 0 0 25.15 8.69a3.51 3.51 0 0 0-2.678-.355c-.904.244-1.675.84-2.143 1.657l-13.1 22.791s0 .029-.022.045-.057.115-.086.172l-.07.14c-.022.048-.048.124-.073.188l-.051.137-.054.198-.035.14-.035.201c-.01.067 0 .096-.022.144s0 .137 0 .204v.488a2.74 2.74 0 0 0 .032.249.64.64 0 0 0 0 .083l.057.262v.07l.079.252c.009.028.02.056.032.083l.092.22.054.105a1.93 1.93 0 0 0 .095.179l.082.137.089.131.12.163.082.099.146.163.086.083.165.15.105.086.158.118.152.099a1.44 1.44 0 0 0 .13.08 3.58 3.58 0 0 0 .377.188h.029a3.88 3.88 0 0 0 .367.128l.108.026c.104.027.21.049.317.064l.114.019c.136.016.272.025.409.026h39.837c.136-.001.271-.009.406-.026l.117-.019c.105 0 .209-.038.317-.064l.101-.026a3.26 3.26 0 0 0 .386-.134 3.55 3.55 0 0 0 .383-.188l.136-.083.139-.093a1.62 1.62 0 0 0 .171-.131l.085-.067.196-.179.048-.045c.067-.067.13-.14.19-.214l.032-.038a2.01 2.01 0 0 0 .168-.227c.014-.017.027-.035.038-.054l.13-.214a.95.95 0 0 0 .054-.099l.089-.185.063-.147.057-.153.06-.188.038-.147c0-.064.029-.128.041-.191a1.97 1.97 0 0 0 .025-.176l.019-.16v-.23a.56.56 0 0 0 0-.073l.019-.032zm36.757-17.476v7.146h-4.137v-7.146c0-2.381-.985-3.571-2.956-3.571s-2.956 1.19-2.956 3.571v7.146h-4.137v-7.146c0-2.381-.984-3.571-2.953-3.571s-2.953 1.19-2.956 3.571v7.146H66.13v-7.146c0-4.768 2.364-7.152 7.093-7.152 2.173 0 3.847.503 5.021 1.51 1.176-1.006 2.851-1.51 5.024-1.51 4.729 0 7.093 2.384 7.093 7.152zm1.774 0c0-4.768 2.758-7.152 8.275-7.152s8.275 2.381 8.275 7.143-2.759 7.148-8.275 7.146-8.275-2.381-8.275-7.136zm8.275-3.571c-2.758 0-4.137 1.19-4.137 3.571s1.379 3.572 4.137 3.574 4.137-1.192 4.137-3.574-1.379-3.573-4.137-3.571zm10.049 3.571c0-4.768 2.758-7.152 8.274-7.152s8.275 2.381 8.275 7.143-2.758 7.148-8.275 7.146-8.274-2.381-8.274-7.136zm8.274-3.571c-2.76 0-4.139 1.19-4.137 3.571s1.381 3.572 4.137 3.574c2.746 0 4.119-1.192 4.119-3.574s-1.373-3.573-4.119-3.571zm18.321-3.581h3.548v3.581h-3.548c-2.757 0-4.136 1.19-4.138 3.571v7.146h-4.137v-7.146c0-4.768 2.758-7.152 8.275-7.152zm13.593 0h8.275v3.581h-8.275c-1.945 0-3.206.596-3.782 1.787h12.057v3.568h-12.057c.576 1.192 1.837 1.787 3.782 1.787h8.275v3.575h-8.275c-5.514 0-8.272-2.382-8.274-7.146s2.756-7.148 8.274-7.152z" fill="#ec7339"/><path d="M73.284 29.54h-1.822a1.42 1.42 0 0 0-.566-.542 1.4 1.4 0 0 0-.765-.157c-1.058 0-1.764.756-1.764 1.944 0 1.277.716 1.998 1.901 1.998a1.61 1.61 0 0 0 1.03-.303c.299-.216.517-.528.617-.885h-2.091v-1.238h3.586v1.558a3.34 3.34 0 0 1-1.238 1.727 3.3 3.3 0 0 1-2.022.622c-2.024 0-3.45-1.427-3.45-3.466s1.416-3.479 3.44-3.479c1.619-.013 2.797.823 3.143 2.221zm18.263-2.154c1.657 0 2.487.957 2.487 2.145.01.452-.134.894-.408 1.253a1.97 1.97 0 0 1-1.097.719l1.562 2.7h-1.86l-1.407-2.576h-.396v2.576h-1.647v-6.817h2.766zm-.098 1.379h-1.02v1.688h1.02c.634 0 .906-.319.906-.855s-.288-.833-.906-.833zm21.269 5.505a3.45 3.45 0 0 1-1.926-.587 3.48 3.48 0 0 1-1.277-1.566c-.263-.638-.333-1.34-.2-2.017a3.51 3.51 0 0 1 .947-1.789 3.46 3.46 0 0 1 1.774-.957c.672-.135 1.369-.067 2.003.197a3.47 3.47 0 0 1 1.556 1.285c.381.574.585 1.249.586 1.939a3.45 3.45 0 0 1-.245 1.347c-.171.428-.425.816-.749 1.142a3.4 3.4 0 0 1-1.132.756 3.38 3.38 0 0 1-1.337.249zm0-1.516c1.081 0 1.784-.785 1.784-1.979s-.703-1.982-1.784-1.982-1.793.766-1.793 1.982.691 1.979 1.793 1.979zm18.802-5.368h1.638v4.079c0 .804.393 1.277 1.175 1.277s1.195-.466 1.195-1.277v-4.079h1.647v4.069c0 1.883-1.308 2.815-2.87 2.815s-2.798-.932-2.798-2.815l.013-4.069zm23.95 4.369h-1.02v2.448h-1.651v-6.817h2.671c1.66 0 2.487.957 2.487 2.193 0 1.127-.761 2.177-2.487 2.177zm-.136-1.321c.655 0 .934-.319.934-.855s-.266-.855-.934-.855h-.897v1.707l.897.003z" fill="#3c2829"/></svg>