<svg width="240" height="560" viewBox="0 0 240 560" fill="none" xmlns="http://www.w3.org/2000/svg">
<g clip-path="url(#clip0)">
<g clip-path="url(#clip1)">
<path d="M97.8725 84.2235C95.4724 86.9085 96.2737 91.3827 98.6059 92.9609C101.432 95.3492 105.184 95.2471 107.343 92.2274C109.192 89.7306 108.825 85.3619 106.61 83.49C104.042 80.7963 100.032 81.2039 97.8725 84.2235Z" fill="url(#paint0_linear)"/>
<path d="M148.162 181.19C145.762 183.875 146.563 188.349 148.895 189.927C151.721 192.316 155.474 192.214 157.633 189.194C159.481 186.697 159.114 182.328 156.899 180.457C154.332 177.763 150.333 178.311 148.162 181.19Z" fill="url(#paint1_linear)"/>
<path d="M170.433 293.494C168.033 296.179 168.834 300.653 171.166 302.232C173.992 304.62 177.745 304.518 179.904 301.498C181.752 299.001 181.385 294.633 179.17 292.761C176.603 290.067 172.604 290.616 170.433 293.494Z" fill="url(#paint2_linear)"/>
<path d="M58.0634 304.843C55.6633 307.528 56.4646 312.002 58.7968 313.58C61.6228 315.968 65.3751 315.866 67.5342 312.847C69.3825 310.35 69.0157 305.981 66.8007 304.109C64.233 301.416 60.158 301.9 58.0634 304.843Z" fill="url(#paint3_linear)"/>
<path d="M119.606 424.281C117.206 426.966 118.007 431.44 120.34 433.019C123.166 435.407 126.918 435.305 129.077 432.285C130.925 429.788 130.558 425.42 128.343 423.548C125.776 420.854 121.777 421.403 119.606 424.281Z" fill="url(#paint4_linear)"/>
<path d="M51.7863 518.319C49.3862 521.004 50.1876 525.478 52.5198 527.056C55.3458 529.445 59.098 529.343 61.2572 526.323C63.1054 523.826 62.7387 519.457 60.5237 517.586C57.9559 514.892 54.0219 515.364 51.7863 518.319Z" fill="url(#paint5_linear)"/>
<path d="M231.086 117.462C224.636 122.616 218.414 127.963 212.346 133.44C209.317 136.248 206.289 139.057 203.249 141.725C200.144 144.469 197.104 147.137 193.923 149.817L184.444 157.779C181.263 160.459 178.146 163.062 175.042 165.806C168.82 171.154 162.611 176.642 156.619 182.183L156.695 182.248C163.145 177.094 169.52 171.876 175.817 166.593C182.115 161.31 188.26 155.898 194.316 150.28C197.345 147.471 200.45 144.727 203.49 142.059C206.594 139.315 209.787 136.777 212.969 134.097C219.113 128.685 225.247 123.132 231.086 117.462Z" fill="url(#paint6_linear)"/>
<path d="M151.482 184.388C148.042 176.375 144.255 168.461 140.199 160.713C138.1 156.844 135.937 153.052 133.914 149.248C131.815 145.38 129.793 141.576 127.694 137.707C125.596 133.839 123.573 130.035 121.41 126.242C119.247 122.45 117.148 118.582 114.985 114.79C114.479 113.839 113.833 112.9 113.404 112.013C112.974 111.127 112.598 110.023 112.233 109.06C111.351 107.005 110.481 105.092 109.599 103.037C107.705 99.0801 105.748 95.1998 103.173 91.584L103.109 91.6604C105.337 95.3762 107.165 99.4093 108.918 103.378C109.723 105.368 110.606 107.423 111.411 109.413C111.776 110.376 112.152 111.479 112.593 112.507C113.175 113.522 113.681 114.473 114.187 115.424C118.449 123.085 122.84 130.593 127.231 138.101C129.394 141.893 131.557 145.685 133.656 149.554C135.755 153.422 137.572 157.314 139.529 161.195C143.445 168.955 147.361 176.716 151.482 184.388Z" fill="url(#paint7_linear)"/>
<path d="M309.367 182.701C306.261 183.742 302.879 184.026 299.537 183.952C296.272 183.942 292.972 183.51 289.619 183.294C282.977 182.788 276.265 183.138 269.618 183.412C262.971 183.686 256.348 184.242 249.7 184.517C243.13 184.855 236.406 185.065 229.747 185.198C216.429 185.465 203.228 185.437 189.904 184.782L169.973 184.042C163.355 183.817 156.661 183.528 150.054 183.444L150.066 183.585C156.708 184.092 163.338 184.457 169.968 184.823C176.598 185.189 183.239 185.696 189.858 185.921C203.117 186.653 216.435 186.387 229.73 185.838C236.377 185.564 243.012 185.149 249.595 184.951C256.242 184.677 262.901 184.544 269.484 184.346C276.143 184.213 282.778 183.798 289.408 184.164C292.685 184.314 295.973 184.606 299.379 184.604C302.838 184.385 306.208 183.96 309.367 182.701Z" fill="url(#paint8_linear)"/>
<path d="M364.098 264.961L311.424 244.405C302.625 241.028 293.827 237.651 285.093 234.198C276.359 230.744 267.677 227.073 258.996 223.403C254.655 221.567 250.315 219.732 245.845 218.049C241.375 216.367 236.929 214.966 232.289 213.794C227.714 212.546 223.215 211.363 218.693 209.898C214.247 208.497 209.789 206.955 205.319 205.273C196.52 201.896 187.774 198.301 178.923 195.141C174.53 193.523 170.072 191.982 165.485 190.593C160.974 189.268 156.334 188.097 151.718 187.207L151.654 187.283C156.282 188.314 160.792 189.638 165.238 191.039C169.761 192.504 174.154 194.123 178.483 195.817C187.282 199.194 195.898 202.941 204.762 206.242C209.231 207.924 213.625 209.543 218.135 210.867C222.658 212.332 227.221 213.439 231.861 214.611C236.36 215.794 240.871 217.119 245.328 218.66C249.786 220.202 254.127 222.037 258.532 223.796L284.758 234.439L310.919 245.157C328.681 252.181 346.267 258.794 364.098 264.961Z" fill="url(#paint9_linear)"/>
<path d="M152.539 185.151C148.32 189.834 144.189 194.722 140.287 199.804C138.298 202.313 136.449 204.809 134.537 207.383C132.624 209.956 130.928 212.582 129.016 215.155L118.344 230.881C114.735 236.08 111.051 241.215 107.302 246.426C99.7915 256.707 92.193 266.782 84.4537 276.869L72.877 291.962L61.224 306.99L61.3003 307.055C65.4432 302.308 69.4979 297.355 73.4117 292.414C77.4018 287.538 81.3801 282.52 85.2175 277.515C92.9568 267.428 100.467 257.147 107.684 246.748C111.292 241.549 114.9 236.35 118.573 231.075C122.181 225.876 126.007 220.729 129.691 215.595C136.984 205.261 144.571 195.045 152.539 185.151Z" fill="url(#paint10_linear)"/>
<path d="M61.8243 309.069C63.7566 299.966 65.6243 290.939 67.4803 281.771C69.2716 272.68 71.1276 263.512 72.778 254.433L77.4239 226.936C78.9979 217.792 80.7129 208.637 82.4279 199.481C85.8579 181.169 89.2234 162.934 92.5125 144.634C94.163 135.555 95.6606 126.346 97.2347 117.202C98.8088 108.058 100.383 98.9144 101.881 89.7058L101.74 89.7177C99.9482 98.8089 98.2333 107.965 96.5183 117.121C94.8033 126.276 93.0882 135.432 91.4378 144.512C88.1487 162.811 85.0006 181.099 81.8524 199.387C80.2783 208.531 78.7043 217.675 77.0656 226.896C75.4152 235.975 73.5593 245.143 71.8443 254.298C68.4024 272.469 64.896 290.716 61.8243 309.069Z" fill="url(#paint11_linear)"/>
<path d="M175.785 297.231C166.231 297.537 156.765 298.047 147.323 298.84C137.817 299.709 128.386 300.643 118.932 301.294C109.414 302.022 99.9839 302.956 90.5655 304.03C81.1471 305.105 71.6761 306.396 62.2814 307.753L62.2932 307.894C71.7352 307.101 81.23 306.091 90.7247 305.081L104.923 303.464L119.121 301.846C123.9 301.303 128.615 300.836 133.342 300.51L136.942 300.279L140.477 300.124L147.611 299.738C156.848 299.034 166.302 298.382 175.785 297.231Z" fill="url(#paint12_linear)"/>
<path d="M175.016 297.367C175.394 292.581 174.646 287.89 173.692 283.286C172.738 278.683 171.643 274.092 170.548 269.5C169.453 264.909 168.152 260.406 167.057 255.814C165.962 251.223 164.867 246.632 163.913 242.028C161.928 232.757 159.879 223.563 157.766 214.444C155.576 205.262 153.321 196.155 150.849 186.996L150.708 187.008C152.552 196.291 154.601 205.485 156.65 214.68C158.699 223.875 161.03 233.046 163.285 242.152C164.444 246.667 165.616 251.323 166.57 255.926C167.665 260.518 168.554 265.197 169.573 269.724C170.121 272.02 170.603 274.392 171.216 276.611C171.763 278.907 172.311 281.203 172.858 283.498C174.094 288.078 174.907 292.693 175.016 297.367Z" fill="url(#paint13_linear)"/>
<path d="M175.38 298.33C172.835 303.511 170.366 308.756 167.961 313.925C166.765 316.58 165.492 319.171 164.361 321.749C163.164 324.404 162.262 327.176 161.576 330.001L160.51 334.206C160.129 335.587 159.749 336.967 159.368 338.347C158.606 341.107 157.627 343.815 156.507 346.535C154.332 351.897 151.786 357.078 149.164 362.194C146.543 367.311 143.997 372.491 141.822 377.854C139.647 383.217 137.765 388.697 136.101 394.229C132.696 405.23 129.443 416.36 123.765 426.487L123.841 426.551C126.91 421.681 129.443 416.36 131.478 411.009C133.577 405.582 135.317 400.114 136.982 394.581C138.722 389.113 140.463 383.645 142.562 378.218C144.737 372.855 147.142 367.686 149.535 362.376C152.004 357.131 154.408 351.962 156.724 346.587C157.78 343.944 158.9 341.225 159.802 338.452C160.259 337.137 160.705 335.68 161.086 334.3L162.228 330.159C163.675 324.574 166.297 319.458 168.549 314.16C170.953 308.991 173.205 303.693 175.38 298.33Z" fill="url(#paint14_linear)"/>
<path d="M123.703 429.969C121.421 424.768 118.999 419.578 116.576 414.389C114.154 409.199 111.667 404.086 109.039 398.984C106.487 393.948 103.859 388.846 101.296 383.669C100.02 381.15 98.8085 378.555 97.5973 375.961C96.3215 373.442 95.1102 370.847 93.6935 368.341C91.001 363.316 87.563 358.708 84.395 353.936C81.1624 349.24 78.6108 344.203 76.1883 339.014C71.5488 328.547 66.9856 318.144 62.1406 307.765L62.0761 307.841C64.1522 313.131 66.3692 318.408 68.5862 323.686C70.8033 328.964 72.9439 334.177 75.3018 339.443C76.5131 342.038 77.7244 344.633 79.1411 347.139C80.5578 349.646 82.039 352.076 83.6612 354.494C86.8938 359.19 90.3964 363.721 93.2944 368.658C96.1924 373.595 98.6794 378.708 101.102 383.898C103.589 389.011 105.947 394.277 108.434 399.39C110.856 404.58 113.408 409.616 115.971 414.794C118.523 419.831 121.01 424.944 123.703 429.969Z" fill="url(#paint15_linear)"/>
<path d="M152.239 184.112C149.55 204.49 147.067 224.78 144.877 245.187C143.744 255.359 142.752 265.518 141.554 275.766C140.421 285.937 139.147 296.12 137.95 306.368L136.039 321.643C135.753 324.151 135.402 326.734 135.116 329.242C134.765 331.826 134.338 334.346 133.911 336.865C133.056 341.904 132.278 347.007 131.859 352.152L130.729 367.432C129.878 377.579 128.68 387.827 127.406 398.01C126.056 408.129 124.5 418.336 123.15 428.454L123.291 428.443C125.064 418.288 126.772 408.211 128.263 398.08C129.755 387.95 131.029 377.767 131.944 367.543C132.364 362.398 132.719 357.33 133.074 352.262C133.353 347.13 134.207 342.091 134.921 337.064C135.348 334.545 135.699 331.961 135.985 329.453C136.336 326.869 136.546 324.297 136.832 321.789L138.461 306.538C139.594 296.367 140.651 286.131 141.86 276.024C142.993 265.853 144.408 255.658 145.617 245.551C148.001 224.915 150.331 204.496 152.239 184.112Z" fill="url(#paint16_linear)"/>
<path d="M258.853 364.553C248.057 370.355 237.591 376.698 226.86 382.424C221.501 385.357 215.976 388.021 210.276 390.273C204.652 392.59 198.875 394.778 193.162 396.89C187.45 399.002 181.761 401.395 176.237 404.058C170.713 406.722 165.354 409.655 160.006 412.73C149.363 418.661 138.503 424.54 126.614 427.454L126.626 427.595C132.626 426.382 138.491 424.399 144.104 421.941C149.716 419.483 155.152 416.614 160.511 413.681C165.871 410.747 171.154 407.749 176.602 405.021C182.05 402.293 187.738 399.9 193.363 397.583C204.675 392.872 216.188 388.855 227.148 383.322C232.596 380.594 237.867 377.455 243.139 374.316C248.475 371.101 253.746 367.962 258.853 364.553Z" fill="url(#paint17_linear)"/>
<path d="M261.472 365.327C252.69 350.311 243.779 335.448 234.662 320.673C230.065 313.253 225.481 305.975 220.884 298.555C216.287 291.135 211.832 283.704 207.376 276.272C198.529 261.333 189.207 246.646 179.82 232.036C175.159 224.693 170.434 217.426 165.708 210.159C160.982 202.892 156.257 195.625 151.455 188.293L151.39 188.37C155.91 195.725 160.507 203.145 165.103 210.564C169.7 217.984 174.285 225.263 178.946 232.606C188.268 247.293 197.719 261.827 206.836 276.601C211.433 284.021 216.017 291.3 220.473 298.731C224.929 306.163 229.32 313.671 233.775 321.102C242.969 335.942 252.085 350.716 261.472 365.327Z" fill="url(#paint18_linear)"/>
<path d="M363.195 266.031C355.386 267.679 347.577 269.328 339.78 271.118C331.982 272.908 324.25 274.622 316.305 275.501C312.371 275.974 308.413 276.164 304.432 276.072C302.447 276.097 300.462 276.122 298.425 276.364C296.452 276.529 294.491 276.836 292.465 277.219C284.644 278.727 276.747 280.17 268.902 281.397C253.161 284.066 237.407 286.595 221.642 288.983L198.032 292.597L174.334 296.005L174.345 296.146C182.29 295.266 190.158 294.322 198.091 293.301C206.024 292.281 213.88 291.195 221.801 290.034C237.566 287.646 253.308 284.976 269.026 282.025C276.847 280.517 284.668 279.009 292.565 277.565C300.374 275.916 308.443 277.368 316.453 276.412C324.473 275.596 332.271 273.806 339.991 271.952C347.7 269.957 355.421 268.102 363.195 266.031Z" fill="url(#paint19_linear)"/>
<path d="M260.961 365.156C253.6 359.459 246.444 353.673 239.224 347.964C235.581 345.148 231.939 342.331 228.349 339.297C224.771 336.405 221.181 333.371 217.732 330.325C210.694 324.246 203.667 318.308 196.241 312.687C188.88 306.989 181.337 301.662 173.406 296.793L173.342 296.869C180.885 302.196 188.311 307.817 195.596 313.45C202.881 319.083 210.113 324.933 217.269 330.719C220.847 333.612 224.501 336.569 228.014 339.538C229.771 341.023 231.528 342.508 233.284 343.992L238.554 348.446C245.875 354.502 253.16 360.135 260.961 365.156Z" fill="url(#paint20_linear)"/>
<path d="M270.829 486.094C263.075 470.638 255.191 455.334 247.101 440.118C243.057 432.51 238.871 424.914 234.826 417.306C230.782 409.698 226.801 402.014 222.898 394.394L199.234 348.341L175.506 302.364L175.441 302.44C179.075 310.225 182.85 317.997 186.765 325.758C190.605 333.454 194.379 341.227 198.36 348.911C206.179 364.291 214.268 379.507 222.434 394.787C226.479 402.395 230.523 410.003 234.504 417.688C238.484 425.372 242.323 433.068 246.303 440.752C254.304 455.763 262.47 471.043 270.829 486.094Z" fill="url(#paint21_linear)"/>
<path d="M271.024 487.568C271.021 482.459 270.953 477.427 270.886 472.395C270.742 467.298 270.815 462.253 270.248 457.192C269.959 454.591 269.399 452.154 269.122 449.694C268.768 447.169 268.632 444.697 268.7 442.136C268.705 439.653 268.915 437.08 268.984 434.52C269.018 433.24 269.052 431.96 269.087 430.68C269.121 429.399 269.156 428.119 269.049 426.851C268.902 416.645 267.281 406.634 265.878 396.676C264.474 386.717 263.2 376.606 263.628 366.494L263.487 366.506C262.419 376.601 263.423 386.876 264.827 396.835L266.938 411.843C267.569 416.828 268.136 421.889 268.486 426.898C268.592 428.167 268.558 429.447 268.588 430.651C268.618 431.854 268.66 433.199 268.549 434.415L268.266 442.031C268.197 444.591 268.269 447.14 268.482 449.677C268.695 452.213 269.19 454.726 269.326 457.198C269.539 459.735 269.676 462.207 269.748 464.756L270.028 472.325C270.249 477.486 270.534 482.571 271.024 487.568Z" fill="url(#paint22_linear)"/>
<path d="M263.158 365.966C264.2 370.774 266.282 375.283 268.633 379.627C271.049 383.894 273.735 387.997 276.486 392.024C279.237 396.051 282.064 400.142 284.673 404.18C287.424 408.207 290.046 412.387 292.667 416.566C297.834 424.86 303.141 433.143 308.578 441.272C313.95 449.479 319.452 457.532 325.094 465.573L325.158 465.497C320.056 457.126 314.825 448.908 309.453 440.702C304.081 432.496 298.644 424.367 293.207 416.237C290.456 412.21 287.77 408.107 285.084 404.004C282.398 399.901 279.918 395.71 277.231 391.607C274.545 387.504 271.795 383.477 269.379 379.209C266.757 375.03 264.611 370.598 263.158 365.966Z" fill="url(#paint23_linear)"/>
<path d="M122.088 430.176C116.238 437.408 110.781 445.104 105.683 452.841C103.172 456.741 100.673 460.783 98.0856 464.619C95.5746 468.52 92.8464 472.368 90.2591 476.204C84.9435 483.888 79.6279 491.572 74.5297 499.309C69.3669 507.122 64.345 514.923 59.335 522.865L59.4114 522.93C64.8797 515.375 70.1188 507.626 75.358 499.878C80.5972 492.129 85.6191 484.328 90.7055 476.45C93.2164 472.549 95.7919 468.572 98.3792 464.736C100.967 460.9 103.695 457.052 106.358 453.281L122.088 430.176Z" fill="url(#paint24_linear)"/>
<path d="M269.698 488.673C262.265 500.721 254.744 512.564 247.006 524.354C243.175 530.282 239.267 536.145 235.284 541.943C233.33 544.874 231.147 547.612 229.041 550.414C227.955 551.854 226.934 553.217 225.849 554.656L222.504 558.769C220.245 561.442 217.998 564.256 216.12 567.252C214.167 570.183 212.442 573.308 210.782 576.357C209.058 579.482 207.398 582.531 205.52 585.527C203.643 588.523 201.537 591.325 199.201 593.934C196.942 596.607 194.542 599.292 192.512 602.159C190.417 605.102 188.757 608.151 187.109 611.34C185.525 614.454 183.877 617.643 181.924 620.575C180.046 623.571 177.863 626.308 175.146 628.594L175.222 628.659C178.016 626.438 180.416 623.752 182.37 620.821C184.324 617.89 186.048 614.765 187.708 611.716C189.433 608.591 191.169 605.607 193.275 602.804C195.382 600.002 197.717 597.393 199.977 594.72C202.236 592.047 204.483 589.233 206.36 586.237C208.238 583.241 209.886 580.051 211.546 577.003C213.206 573.954 214.854 570.764 216.731 567.768C218.609 564.772 220.715 561.97 222.898 559.232C231.541 548.076 239.802 536.596 247.769 525C255.572 513.133 262.929 501.02 269.698 488.673Z" fill="url(#paint25_linear)"/>
<path d="M268.533 484.939C262.87 481.724 256.726 479.544 250.465 477.657C244.204 475.77 237.955 474.023 231.888 471.907C219.624 467.828 207.624 462.662 195.689 457.419C183.753 452.177 171.894 446.999 159.906 441.973C153.944 439.423 147.918 436.948 141.892 434.474C135.865 431.999 129.839 429.525 123.824 427.191L123.76 427.268C129.733 429.959 135.631 432.587 141.592 435.137C147.554 437.688 153.528 440.38 159.49 442.931C171.413 448.032 183.466 452.981 195.443 457.865C201.469 460.34 207.495 462.814 213.457 465.365C219.484 467.84 225.381 470.467 231.525 472.647C243.824 477.15 256.703 479.262 268.533 484.939Z" fill="url(#paint26_linear)"/>
<path d="M267.261 489.232C249.728 491.698 232.295 494.509 214.874 497.462C197.429 500.132 179.908 502.739 162.352 504.922C144.795 507.105 127.251 509.43 109.718 511.895C100.951 513.127 92.1848 514.36 83.4183 515.593C74.6518 516.825 65.9618 518.122 57.2072 519.496L57.219 519.637C65.9973 518.545 74.7756 517.454 83.5538 516.362C92.3321 515.27 101.11 514.178 109.877 512.946C127.422 510.622 144.878 508.092 162.476 505.55C171.242 504.318 179.997 502.944 188.699 501.788C197.465 500.555 206.243 499.464 215.022 498.372C232.378 495.496 249.94 492.531 267.261 489.232Z" fill="url(#paint27_linear)"/>
<path d="M177.53 628.253C172.329 611.943 167.551 595.597 162.837 579.176C160.448 571.003 157.983 562.766 155.799 554.505C153.475 546.256 151.432 537.983 149.248 529.722C145.022 513.189 140.72 496.591 136.288 480.145C134.104 471.884 131.78 463.635 129.532 455.451C127.283 447.266 125.023 438.941 122.634 430.768L122.493 430.78C124.536 439.053 126.655 447.39 128.762 455.586C130.881 463.924 132.989 472.12 135.172 480.381C139.539 496.903 144.048 513.413 148.62 529.846C150.945 538.095 153.128 546.356 155.312 554.617C157.496 562.878 159.679 571.139 161.863 579.399C166.653 595.886 171.713 612.207 177.53 628.253Z" fill="url(#paint28_linear)"/>
<path d="M177.132 630.273C167.003 621.189 156.821 612.322 146.498 603.467L138.643 596.959C136.046 594.765 133.385 592.647 130.852 590.376C125.723 585.91 121.251 580.821 116.65 575.886C112.114 570.874 106.908 566.343 101.856 561.942C96.7266 557.477 91.5974 553.011 86.4801 548.686C81.351 544.221 76.1573 539.831 70.9754 535.583C65.7817 531.194 60.5881 526.805 55.3298 522.492L55.2653 522.568C60.3299 527.11 65.3945 531.652 70.4472 536.053C75.5764 540.519 80.641 545.061 85.7583 549.386C90.8874 553.851 96.0811 558.24 101.198 562.565C103.795 564.76 106.392 566.954 108.924 569.225C111.457 571.496 113.924 573.844 116.251 576.203L123.32 583.486C125.723 585.91 128.191 588.257 130.723 590.528L145.97 603.937C156.228 612.868 166.539 621.582 177.12 630.132L177.132 630.273Z" fill="url(#paint29_linear)"/>
<path d="M132.108 695.787C126.538 680.998 120.493 666.462 114.101 652.026L104.276 630.499C101.047 623.319 97.8837 616.063 94.6555 608.883C88.2637 594.447 81.9482 580.076 75.4155 565.652L65.7309 544.113L56.1108 522.497L56.0463 522.574L60.5158 533.552L65.0499 544.454L69.7249 555.344L74.4645 566.158C80.8563 580.593 87.5182 594.865 94.1155 609.212C97.4082 616.316 100.713 623.56 103.941 630.74C107.169 637.92 110.192 645.188 113.215 652.456L132.108 695.787Z" fill="url(#paint30_linear)"/>
<path d="M58.1811 673.112C57.4335 670.124 57.1732 667.023 57.0539 663.911C57.011 660.863 57.1735 657.728 57.1951 654.604C57.3792 648.344 57.5751 642.225 57.7592 635.965C57.922 623.533 57.9438 611.114 58.6057 598.711C58.8662 592.516 59.1267 586.32 59.3872 580.125C59.5713 573.865 59.6909 567.682 59.5932 561.445C59.4741 549.038 58.8558 536.601 57.6739 524.211L57.5329 524.223C58.0748 536.595 58.4112 549.056 58.5303 561.464C58.5517 567.635 58.5085 573.883 58.4653 580.132L58.042 598.758C57.9441 601.818 57.9225 604.942 57.76 608.078C57.662 611.137 57.6404 614.261 57.4779 617.397C57.2938 623.657 56.9569 629.788 56.7728 636.048C56.5123 642.243 56.4691 648.491 56.3495 654.675C56.328 657.799 56.23 660.858 56.4257 664.035C56.6741 666.994 57.0871 670.224 58.1811 673.112Z" fill="url(#paint31_linear)"/>
<path d="M56.9585 525.832C43.2358 536.493 29.6657 547.282 16.184 558.277L6.16514 566.569C2.77856 569.337 -0.467093 572.093 -3.93006 574.796C-7.32847 577.423 -10.9442 579.997 -14.5954 582.149C-18.3875 584.312 -22.2797 586.129 -26.16 588.087C-30.0404 590.044 -33.8325 592.208 -37.2191 594.976C-40.6821 597.679 -43.7631 600.705 -47.0733 603.537C-48.6579 604.948 -50.3835 606.37 -52.1209 607.651C-53.8583 608.932 -55.6721 610.149 -57.4859 611.365C-61.0489 613.722 -64.8292 616.027 -68.3039 618.589C-75.3944 623.726 -81.7093 629.649 -88.177 635.443C-94.6447 641.236 -101.265 646.901 -108.697 651.357L-108.62 651.421C-101.024 647.236 -94.2628 641.559 -87.7069 635.971C-81.0865 630.306 -74.6952 624.447 -67.6693 619.387C-64.1945 616.825 -60.4787 614.597 -56.8512 612.164C-55.0374 610.947 -53.2236 609.73 -51.4862 608.449C-49.7488 607.168 -48.0997 605.681 -46.515 604.271C-43.2812 601.374 -40.2001 598.348 -36.8135 595.58C-33.4269 592.812 -29.7876 590.52 -25.9836 588.498C-22.1797 586.475 -18.2993 584.517 -14.5072 582.354C-10.7914 580.126 -7.24026 577.629 -3.7773 574.925L16.6541 558.805C30.3004 548.08 43.7177 537.162 56.9585 525.832Z" fill="url(#paint32_linear)"/>
</g>
</g>
<defs>
<linearGradient id="paint0_linear" x1="106.634" y1="83.4618" x2="98.5922" y2="92.9772" gradientUnits="userSpaceOnUse">
<stop stop-color="#FFF8EE"/>
<stop offset="1" stop-color="#FFF8EE" stop-opacity="0"/>
</linearGradient>
<linearGradient id="paint1_linear" x1="156.927" y1="180.433" x2="148.886" y2="189.947" gradientUnits="userSpaceOnUse">
<stop stop-color="#FFF8EE"/>
<stop offset="1" stop-color="#FFF8EE" stop-opacity="0"/>
</linearGradient>
<linearGradient id="paint2_linear" x1="179.198" y1="292.737" x2="171.157" y2="302.252" gradientUnits="userSpaceOnUse">
<stop stop-color="#FFF8EE"/>
<stop offset="1" stop-color="#FFF8EE" stop-opacity="0"/>
</linearGradient>
<linearGradient id="paint3_linear" x1="66.8239" y1="304.082" x2="58.783" y2="313.597" gradientUnits="userSpaceOnUse">
<stop stop-color="#FFF8EE"/>
<stop offset="1" stop-color="#FFF8EE" stop-opacity="0"/>
</linearGradient>
<linearGradient id="paint4_linear" x1="128.371" y1="423.524" x2="120.33" y2="433.039" gradientUnits="userSpaceOnUse">
<stop stop-color="#FFF8EE"/>
<stop offset="1" stop-color="#FFF8EE" stop-opacity="0"/>
</linearGradient>
<linearGradient id="paint5_linear" x1="60.552" y1="517.561" x2="52.5104" y2="527.076" gradientUnits="userSpaceOnUse">
<stop stop-color="#FFF8EE"/>
<stop offset="1" stop-color="#FFF8EE" stop-opacity="0"/>
</linearGradient>
<linearGradient id="paint6_linear" x1="225.319" y1="112.588" x2="162.385" y2="187.057" gradientUnits="userSpaceOnUse">
<stop stop-color="#FFF8EE"/>
<stop offset="1" stop-color="#FFF8EE" stop-opacity="0"/>
</linearGradient>
<linearGradient id="paint7_linear" x1="140.14" y1="122.825" x2="114.515" y2="153.147" gradientUnits="userSpaceOnUse">
<stop stop-color="#FFF8EE"/>
<stop offset="1" stop-color="#FFF8EE" stop-opacity="0"/>
</linearGradient>
<linearGradient id="paint8_linear" x1="263.082" y1="143.585" x2="196.275" y2="222.636" gradientUnits="userSpaceOnUse">
<stop stop-color="#FFF8EE"/>
<stop offset="1" stop-color="#FFF8EE" stop-opacity="0"/>
</linearGradient>
<linearGradient id="paint9_linear" x1="282.985" y1="196.411" x2="232.767" y2="255.833" gradientUnits="userSpaceOnUse">
<stop stop-color="#FFF8EE"/>
<stop offset="1" stop-color="#FFF8EE" stop-opacity="0"/>
</linearGradient>
<linearGradient id="paint10_linear" x1="155.938" y1="188.024" x2="57.8251" y2="304.118" gradientUnits="userSpaceOnUse">
<stop stop-color="#FFF8EE"/>
<stop offset="1" stop-color="#FFF8EE" stop-opacity="0"/>
</linearGradient>
<linearGradient id="paint11_linear" x1="144.232" y1="125.498" x2="19.3964" y2="273.212" gradientUnits="userSpaceOnUse">
<stop stop-color="#FFF8EE"/>
<stop offset="1" stop-color="#FFF8EE" stop-opacity="0"/>
</linearGradient>
<linearGradient id="paint12_linear" x1="145.272" y1="271.445" x2="92.7297" y2="333.616" gradientUnits="userSpaceOnUse">
<stop stop-color="#FFF8EE"/>
<stop offset="1" stop-color="#FFF8EE" stop-opacity="0"/>
</linearGradient>
<linearGradient id="paint13_linear" x1="185.066" y1="215.913" x2="140.722" y2="268.385" gradientUnits="userSpaceOnUse">
<stop stop-color="#FFF8EE"/>
<stop offset="1" stop-color="#FFF8EE" stop-opacity="0"/>
</linearGradient>
<linearGradient id="paint14_linear" x1="191.954" y1="312.337" x2="107.267" y2="412.544" gradientUnits="userSpaceOnUse">
<stop stop-color="#FFF8EE"/>
<stop offset="1" stop-color="#FFF8EE" stop-opacity="0"/>
</linearGradient>
<linearGradient id="paint15_linear" x1="110.22" y1="348.398" x2="75.6228" y2="389.336" gradientUnits="userSpaceOnUse">
<stop stop-color="#FFF8EE"/>
<stop offset="1" stop-color="#FFF8EE" stop-opacity="0"/>
</linearGradient>
<linearGradient id="paint16_linear" x1="204.023" y1="227.875" x2="71.4418" y2="384.755" gradientUnits="userSpaceOnUse">
<stop stop-color="#FFF8EE"/>
<stop offset="1" stop-color="#FFF8EE" stop-opacity="0"/>
</linearGradient>
<linearGradient id="paint17_linear" x1="235.787" y1="345.06" x2="149.615" y2="447.024" gradientUnits="userSpaceOnUse">
<stop stop-color="#FFF8EE"/>
<stop offset="1" stop-color="#FFF8EE" stop-opacity="0"/>
</linearGradient>
<linearGradient id="paint18_linear" x1="227.183" y1="252.293" x2="185.744" y2="301.327" gradientUnits="userSpaceOnUse">
<stop stop-color="#FFF8EE"/>
<stop offset="1" stop-color="#FFF8EE" stop-opacity="0"/>
</linearGradient>
<linearGradient id="paint19_linear" x1="315.497" y1="225.72" x2="221.967" y2="336.392" gradientUnits="userSpaceOnUse">
<stop stop-color="#FFF8EE"/>
<stop offset="1" stop-color="#FFF8EE" stop-opacity="0"/>
</linearGradient>
<linearGradient id="paint20_linear" x1="218.572" y1="329.332" x2="215.731" y2="332.693" gradientUnits="userSpaceOnUse">
<stop stop-color="#FFF8EE"/>
<stop offset="1" stop-color="#FFF8EE" stop-opacity="0"/>
</linearGradient>
<linearGradient id="paint21_linear" x1="248.6" y1="364.136" x2="197.736" y2="424.322" gradientUnits="userSpaceOnUse">
<stop stop-color="#FFF8EE"/>
<stop offset="1" stop-color="#FFF8EE" stop-opacity="0"/>
</linearGradient>
<linearGradient id="paint22_linear" x1="295.592" y1="393.507" x2="238.984" y2="460.49" gradientUnits="userSpaceOnUse">
<stop stop-color="#FFF8EE"/>
<stop offset="1" stop-color="#FFF8EE" stop-opacity="0"/>
</linearGradient>
<linearGradient id="paint23_linear" x1="305.777" y1="401.983" x2="282.475" y2="429.556" gradientUnits="userSpaceOnUse">
<stop stop-color="#FFF8EE"/>
<stop offset="1" stop-color="#FFF8EE" stop-opacity="0"/>
</linearGradient>
<linearGradient id="paint24_linear" x1="126.671" y1="434.049" x2="54.8287" y2="519.057" gradientUnits="userSpaceOnUse">
<stop stop-color="#FFF8EE"/>
<stop offset="1" stop-color="#FFF8EE" stop-opacity="0"/>
</linearGradient>
<linearGradient id="paint25_linear" x1="276.89" y1="494.751" x2="168.514" y2="622.99" gradientUnits="userSpaceOnUse">
<stop stop-color="#FFF8EE"/>
<stop offset="1" stop-color="#FFF8EE" stop-opacity="0"/>
</linearGradient>
<linearGradient id="paint26_linear" x1="212.09" y1="437.238" x2="180.203" y2="474.969" gradientUnits="userSpaceOnUse">
<stop stop-color="#FFF8EE"/>
<stop offset="1" stop-color="#FFF8EE" stop-opacity="0"/>
</linearGradient>
<linearGradient id="paint27_linear" x1="213.453" y1="443.758" x2="110.951" y2="565.046" gradientUnits="userSpaceOnUse">
<stop stop-color="#FFF8EE"/>
<stop offset="1" stop-color="#FFF8EE" stop-opacity="0"/>
</linearGradient>
<linearGradient id="paint28_linear" x1="187.288" y1="485.408" x2="112.8" y2="573.548" gradientUnits="userSpaceOnUse">
<stop stop-color="#FFF8EE"/>
<stop offset="1" stop-color="#FFF8EE" stop-opacity="0"/>
</linearGradient>
<linearGradient id="paint29_linear" x1="117.538" y1="574.836" x2="114.947" y2="577.902" gradientUnits="userSpaceOnUse">
<stop stop-color="#FFF8EE"/>
<stop offset="1" stop-color="#FFF8EE" stop-opacity="0"/>
</linearGradient>
<linearGradient id="paint30_linear" x1="120.994" y1="577.331" x2="67.2254" y2="640.953" gradientUnits="userSpaceOnUse">
<stop stop-color="#FFF8EE"/>
<stop offset="1" stop-color="#FFF8EE" stop-opacity="0"/>
</linearGradient>
<linearGradient id="paint31_linear" x1="94.4879" y1="555.323" x2="21.2906" y2="641.936" gradientUnits="userSpaceOnUse">
<stop stop-color="#FFF8EE"/>
<stop offset="1" stop-color="#FFF8EE" stop-opacity="0"/>
</linearGradient>
<linearGradient id="paint32_linear" x1="39.5825" y1="511.147" x2="-91.3206" y2="666.042" gradientUnits="userSpaceOnUse">
<stop stop-color="#FFF8EE"/>
<stop offset="1" stop-color="#FFF8EE" stop-opacity="0"/>
</linearGradient>
<clipPath id="clip0">
<rect width="240" height="560" fill="white"/>
</clipPath>
<clipPath id="clip1">
<rect width="428.3" height="645.6" fill="white" transform="matrix(-0.763778 -0.645479 -0.645479 0.763778 469.847 307.459)"/>
</clipPath>
</defs>
</svg>
